<?xml version="1.0" encoding="UTF-8"?>
<!DOCTYPE X3D PUBLIC "ISO//Web3D//DTD X3D 3.0//EN" "http://www.web3d.org/specifications/x3d-3.0.dtd">
<X3D version="3.0" profile="Immersive" xmlns:xsd="http://www.w3.org/2001/XMLSchema-instance" xsd:noNamespaceSchemaLocation="http://www.web3d.org/specifications/x3d-3.0.xsd">
	<head>
		<meta name="filename" content="OMLV4_Packing - For Xander - Hydraulic Actuator-5.x3d" />
		<meta name="created" content="2026-04-19 20:21:17" />
		<meta name="generator" content="Blender 4.3.2" />
		<meta name="translator" content="Web3D X3D/VRML2 format v2.5.1" />
	</head>
	<Scene>
		<NavigationInfo headlight="true"
		                visibilityLimit="0.0"
		                type='"EXAMINE", "ANY"'
		                avatarSize="0.25, 1.75, 0.75"
		                />
		<Background DEF="WO_World"
		            groundColor="0.051 0.051 0.051"
		            skyColor="0.051 0.051 0.051"
		            />
		<Transform DEF="OMLV4_Packing_-_For_Xander_-_Hydraulic_Actuator-5_TRANSFORM"
		           translation="0.000000 0.000000 0.000000"
		           scale="1.000000 1.000000 1.000000"
		           rotation="-1.000000 0.000000 0.000000 1.570796"
		           >
			<Transform DEF="OMLV4_Packing_-_For_Xander_-_Hydraulic_Actuator-5_ifs_TRANSFORM"
			           translation="0.000000 0.000000 0.000000"
			           scale="1.000000 1.000000 1.000000"
			           rotation="0.000000 1.000000 0.000000 0.000000"
			           >
				<Group DEF="group_ME_OMLV4_Packing_-_For_Xander_-_Hydraulic_Actuator-5">
					<Shape>
						<Appearance>
						</Appearance>
						<IndexedFaceSet solid="false"
						                coordIndex="0 1 2 -1 2 1 3 -1 2 3 4 -1 4 3 5 -1 4 5 6 -1 6 5 7 -1 6 7 8 -1 8 7 9 -1 8 9 10 -1 10 9 11 -1 10 11 12 -1 12 11 13 -1 12 13 14 -1 14 13 15 -1 14 15 16 -1 16 15 17 -1 16 17 18 -1 18 17 19 -1 18 19 20 -1 20 19 21 -1 20 21 22 -1 22 21 23 -1 22 23 24 -1 24 23 25 -1 24 25 26 -1 26 25 27 -1 26 27 28 -1 28 27 29 -1 28 29 30 -1 30 29 31 -1 30 31 32 -1 32 31 33 -1 32 33 34 -1 34 33 35 -1 34 35 36 -1 36 35 37 -1 36 37 38 -1 38 37 39 -1 38 39 40 -1 40 39 41 -1 40 41 42 -1 42 41 43 -1 42 43 44 -1 44 43 45 -1 44 45 46 -1 46 45 47 -1 46 47 48 -1 48 47 49 -1 48 49 50 -1 50 49 51 -1 50 51 52 -1 52 51 53 -1 52 53 54 -1 54 53 55 -1 54 55 56 -1 56 55 57 -1 56 57 58 -1 58 57 59 -1 58 59 60 -1 60 59 61 -1 60 61 62 -1 62 61 63 -1 62 63 64 -1 64 63 65 -1 64 65 66 -1 66 65 67 -1 66 67 68 -1 68 67 69 -1 68 69 70 -1 70 69 71 -1 70 71 0 -1 0 71 1 -1 39 37 72 -1 72 37 35 -1 72 35 33 -1 45 43 72 -1 72 43 41 -1 72 41 39 -1 51 49 72 -1 72 49 47 -1 72 47 45 -1 57 55 72 -1 72 55 53 -1 72 53 51 -1 63 61 72 -1 72 61 59 -1 72 59 57 -1 69 67 72 -1 72 67 65 -1 72 65 63 -1 3 1 72 -1 72 1 71 -1 72 71 69 -1 9 7 72 -1 72 7 5 -1 72 5 3 -1 15 13 72 -1 72 13 11 -1 72 11 9 -1 21 19 72 -1 72 19 17 -1 72 17 15 -1 27 25 72 -1 72 25 23 -1 72 23 21 -1 33 31 72 -1 72 31 29 -1 72 29 27 -1 32 34 73 -1 73 34 36 -1 73 36 38 -1 26 28 73 -1 73 28 30 -1 73 30 32 -1 20 22 73 -1 73 22 24 -1 73 24 26 -1 14 16 73 -1 73 16 18 -1 73 18 20 -1 8 10 73 -1 73 10 12 -1 73 12 14 -1 2 4 73 -1 73 4 6 -1 73 6 8 -1 68 70 73 -1 73 70 0 -1 73 0 2 -1 62 64 73 -1 73 64 66 -1 73 66 68 -1 56 58 73 -1 73 58 60 -1 73 60 62 -1 50 52 73 -1 73 52 54 -1 73 54 56 -1 44 46 73 -1 73 46 48 -1 73 48 50 -1 38 40 73 -1 73 40 42 -1 73 42 44 -1 "
						                >
							<Coordinate DEF="coords_ME_OMLV4_Packing_-_For_Xander_-_Hydraulic_Actuator-5"
							            point="555.488281 110.254250 402.215485 567.489746 110.372452 402.356323 555.489990 110.409409 402.425934 567.491333 110.561790 402.536652 555.491577 110.598747 402.606262 567.492859 110.779564 402.681335 555.493103 110.816521 402.750946 567.494202 111.019157 402.786011 555.494446 111.056114 402.855621 567.495361 111.273293 402.847504 555.495605 111.310249 402.917114 567.496216 111.534241 402.863922 555.496521 111.571198 402.933533 567.496887 111.794083 402.834778 555.497131 111.831039 402.904388 567.497192 112.044907 402.760956 555.497498 112.081863 402.830566 567.497253 112.279114 402.644714 555.497498 112.316071 402.714325 567.497009 112.489571 402.489563 555.497253 112.526527 402.559174 567.496460 112.669884 402.300201 555.496704 112.706841 402.369812 567.495667 112.814583 402.082428 555.495911 112.851540 402.152039 567.494568 112.919273 401.842834 555.494812 112.956230 401.912445 567.493286 112.980759 401.588715 555.493530 113.017715 401.658325 567.491821 112.997185 401.327759 555.492065 113.034142 401.397369 567.490234 112.968048 401.067932 555.490479 113.005005 401.137543 567.488525 112.894234 400.817108 555.488831 112.931190 400.886719 567.486816 112.777985 400.582916 555.487122 112.814941 400.652527 567.485168 112.622833 400.372467 555.485413 112.659790 400.442078 567.483521 112.433487 400.192139 555.483765 112.470444 400.261749 567.481995 112.215714 400.047455 555.482239 112.252670 400.117065 567.480652 111.976120 399.942780 555.480896 112.013077 400.012390 567.479492 111.721985 399.881287 555.479797 111.758942 399.950897 567.478638 111.461037 399.864868 555.478882 111.497993 399.934479 567.477966 111.201202 399.894012 555.478271 111.238159 399.963623 567.477661 110.950371 399.967834 555.477905 110.987328 400.037445 567.477600 110.716171 400.084076 555.477844 110.753128 400.153687 567.477844 110.505714 400.239227 555.478088 110.542671 400.308838 567.478394 110.325394 400.428558 555.478638 110.362350 400.498199 567.479187 110.180695 400.646362 555.479492 110.217651 400.715973 567.480286 110.076012 400.885956 555.480530 110.112968 400.955566 567.481567 110.014519 401.140076 555.481812 110.051476 401.209686 567.483032 109.998093 401.401031 555.483276 110.035049 401.470642 567.484619 110.027229 401.660858 555.484863 110.064186 401.730469 567.486328 110.101044 401.911682 555.486572 110.138000 401.981293 567.488037 110.217293 402.145874 567.487427 111.497643 401.364380 555.487671 111.534599 401.433990 "
							            />
						</IndexedFaceSet>
					</Shape>
				</Group>
			</Transform>
		</Transform>
	</Scene>
</X3D>