<?xml version="1.0" encoding="UTF-8"?>
<!DOCTYPE X3D PUBLIC "ISO//Web3D//DTD X3D 3.0//EN" "http://www.web3d.org/specifications/x3d-3.0.dtd">
<X3D version="3.0" profile="Immersive" xmlns:xsd="http://www.w3.org/2001/XMLSchema-instance" xsd:noNamespaceSchemaLocation="http://www.web3d.org/specifications/x3d-3.0.xsd">
	<head>
		<meta name="filename" content="OMLV4_Packing - For Xander - Nose Landing Gear-1.x3d" />
		<meta name="created" content="2026-04-19 20:21:18" />
		<meta name="generator" content="Blender 4.3.2" />
		<meta name="translator" content="Web3D X3D/VRML2 format v2.5.1" />
	</head>
	<Scene>
		<NavigationInfo headlight="true"
		                visibilityLimit="0.0"
		                type='"EXAMINE", "ANY"'
		                avatarSize="0.25, 1.75, 0.75"
		                />
		<Background DEF="WO_World"
		            groundColor="0.051 0.051 0.051"
		            skyColor="0.051 0.051 0.051"
		            />
		<Transform DEF="OMLV4_Packing_-_For_Xander_-_Nose_Landing_Gear-1_TRANSFORM"
		           translation="0.000000 0.000000 0.000000"
		           scale="1.000000 1.000000 1.000000"
		           rotation="-1.000000 0.000000 0.000000 1.570796"
		           >
			<Transform DEF="OMLV4_Packing_-_For_Xander_-_Nose_Landing_Gear-1_ifs_TRANSFORM"
			           translation="0.000000 0.000000 0.000000"
			           scale="1.000000 1.000000 1.000000"
			           rotation="0.000000 1.000000 0.000000 0.000000"
			           >
				<Group DEF="group_ME_OMLV4_Packing_-_For_Xander_-_Nose_Landing_Gear-1">
					<Shape>
						<Appearance>
						</Appearance>
						<IndexedFaceSet solid="false"
						                coordIndex="0 1 2 -1 2 1 3 -1 4 5 6 -1 6 5 7 -1 8 9 10 -1 10 9 11 -1 12 13 14 -1 14 13 15 -1 1 0 8 -1 8 0 9 -1 10 11 3 -1 3 11 2 -1 16 17 18 -1 18 17 19 -1 18 19 20 -1 20 19 21 -1 20 21 22 -1 22 21 23 -1 22 23 24 -1 24 23 25 -1 24 25 26 -1 26 25 13 -1 26 13 12 -1 27 28 29 -1 29 28 30 -1 29 30 31 -1 31 30 32 -1 31 32 33 -1 33 32 34 -1 33 34 35 -1 35 34 16 -1 35 16 36 -1 36 16 18 -1 1 8 37 -1 37 8 38 -1 37 38 27 -1 27 38 39 -1 27 39 28 -1 15 13 25 -1 15 25 40 -1 40 25 23 -1 40 23 41 -1 41 23 21 -1 41 21 42 -1 42 21 19 -1 42 19 43 -1 43 19 17 -1 43 17 44 -1 44 17 45 -1 45 17 16 -1 45 16 46 -1 39 47 28 -1 28 47 48 -1 28 48 30 -1 30 48 49 -1 30 49 32 -1 32 49 46 -1 32 46 34 -1 34 46 16 -1 8 10 38 -1 38 10 50 -1 38 50 39 -1 39 50 51 -1 39 51 47 -1 3 1 52 -1 52 1 37 -1 52 37 53 -1 53 37 27 -1 53 27 54 -1 54 27 29 -1 54 29 55 -1 55 29 31 -1 55 31 56 -1 56 31 33 -1 56 33 57 -1 57 33 35 -1 57 35 58 -1 58 35 36 -1 58 36 59 -1 36 18 59 -1 59 18 20 -1 59 20 60 -1 60 20 22 -1 60 22 61 -1 61 22 24 -1 61 24 62 -1 62 24 26 -1 62 26 63 -1 63 26 12 -1 63 12 14 -1 58 59 44 -1 44 59 60 -1 44 60 43 -1 43 60 61 -1 43 61 42 -1 42 61 62 -1 42 62 41 -1 41 62 63 -1 41 63 40 -1 40 63 14 -1 40 14 15 -1 51 54 47 -1 47 54 55 -1 47 55 48 -1 48 55 56 -1 48 56 49 -1 49 56 57 -1 49 57 46 -1 46 57 58 -1 46 58 45 -1 45 58 44 -1 10 3 50 -1 50 3 52 -1 50 52 51 -1 51 52 53 -1 51 53 54 -1 64 65 66 -1 66 65 67 -1 66 67 68 -1 68 67 69 -1 68 69 70 -1 70 69 71 -1 70 71 72 -1 72 71 73 -1 72 73 74 -1 74 73 6 -1 74 6 7 -1 75 76 77 -1 77 76 78 -1 77 78 79 -1 79 78 64 -1 79 64 80 -1 80 64 66 -1 9 0 81 -1 81 0 82 -1 81 82 83 -1 83 82 84 -1 83 84 85 -1 85 84 86 -1 85 86 75 -1 75 86 87 -1 75 87 76 -1 65 88 67 -1 67 88 89 -1 67 89 69 -1 69 89 90 -1 69 90 71 -1 71 90 91 -1 71 91 73 -1 73 91 4 -1 73 4 6 -1 0 2 82 -1 82 2 92 -1 82 92 84 -1 84 92 93 -1 84 93 86 -1 86 93 94 -1 86 94 87 -1 87 94 95 -1 87 95 76 -1 76 95 96 -1 76 96 78 -1 78 96 97 -1 78 97 64 -1 64 97 98 -1 64 98 65 -1 65 98 99 -1 65 99 88 -1 11 9 100 -1 100 9 81 -1 100 81 101 -1 101 81 83 -1 101 83 102 -1 102 83 85 -1 102 85 103 -1 103 85 75 -1 103 75 104 -1 104 75 77 -1 104 77 105 -1 77 79 105 -1 105 79 80 -1 105 80 106 -1 106 80 107 -1 80 66 107 -1 107 66 68 -1 107 68 108 -1 108 68 70 -1 108 70 109 -1 109 70 72 -1 109 72 110 -1 110 72 74 -1 110 74 111 -1 111 74 7 -1 111 7 5 -1 5 4 91 -1 5 91 111 -1 111 91 90 -1 111 90 110 -1 110 90 89 -1 110 89 109 -1 109 89 88 -1 109 88 108 -1 108 88 99 -1 108 99 107 -1 97 105 106 -1 107 99 106 -1 106 99 98 -1 106 98 97 -1 105 97 104 -1 104 97 96 -1 104 96 103 -1 103 96 95 -1 103 95 102 -1 102 95 94 -1 102 94 101 -1 94 93 101 -1 101 93 92 -1 101 92 100 -1 100 92 2 -1 100 2 11 -1 "
						                >
							<Coordinate DEF="coords_ME_OMLV4_Packing_-_For_Xander_-_Nose_Landing_Gear-1"
							            point="177.734421 64.693176 373.884399 178.676468 82.668503 373.884399 105.833092 68.461365 373.884399 106.775139 86.436691 373.884399 108.671974 65.308464 370.884399 108.671974 65.308464 352.884399 174.581528 61.854294 370.884399 174.581528 61.854294 352.884399 178.676468 82.668503 349.884399 177.734421 64.693176 349.884399 106.775139 86.436691 349.884399 105.833092 68.461365 349.884399 175.837585 85.821404 370.884399 175.837585 85.821404 352.884399 109.928040 89.275574 370.884399 109.928040 89.275574 352.884399 178.224716 84.415268 350.426941 178.076477 84.630959 350.586273 178.076477 84.630959 373.182556 177.726578 85.019577 350.956055 177.726578 85.019577 372.812775 177.314499 85.341522 351.384399 177.314499 85.341522 372.384399 176.852768 85.587029 351.858337 176.852768 85.587029 371.910461 176.355423 85.748627 352.363464 176.355423 85.748627 371.405365 178.658218 83.191124 373.838837 178.615021 83.449249 349.986633 178.615021 83.449249 373.782196 178.549500 83.702629 350.065338 178.549500 83.702629 373.703491 178.462128 83.949333 350.165497 178.462128 83.949333 373.603333 178.353592 84.187485 350.286346 178.353592 84.187485 373.482483 178.224716 84.415268 373.341858 178.678757 82.930214 373.872986 178.678757 82.930214 349.895813 178.658218 83.191124 349.929993 109.405418 89.257324 352.363464 108.893913 89.148598 351.858337 108.409058 88.952705 351.384399 107.965584 88.675591 350.956055 107.576965 88.325684 350.586273 107.406998 88.126671 350.426941 107.255020 87.913605 350.286346 106.917862 87.206734 349.986633 107.009514 87.451881 350.065338 107.122185 87.688103 350.165497 106.800224 86.697205 349.895813 106.847916 86.954536 349.929993 106.800224 86.697205 373.872986 106.847916 86.954536 373.838837 106.917862 87.206734 373.782196 107.009514 87.451881 373.703491 107.122185 87.688103 373.603333 107.255020 87.913605 373.482483 107.406998 88.126671 373.341858 107.576965 88.325684 373.182556 107.965584 88.675591 372.812775 108.409058 88.952705 372.384399 108.893913 89.148598 371.910461 109.405418 89.257324 371.405365 177.102570 63.003197 373.341858 176.932587 62.804188 373.182556 176.932587 62.804188 350.586273 176.543976 62.454273 372.812775 176.543976 62.454273 350.956055 176.100494 62.177162 372.384399 176.100494 62.177162 351.384399 175.615646 61.981266 371.910461 175.615646 61.981266 351.858337 175.104141 61.872543 371.405365 175.104141 61.872543 352.363464 177.500046 63.677986 350.065338 177.387375 63.441765 373.603333 177.387375 63.441765 350.165497 177.254547 63.216263 373.482483 177.254547 63.216263 350.286346 177.102570 63.003197 350.426941 177.709335 64.432663 349.895813 177.709335 64.432663 373.872986 177.661636 64.175331 349.929993 177.661636 64.175331 373.838837 177.591705 63.923130 349.986633 177.591705 63.923130 373.782196 177.500046 63.677986 373.703491 106.782990 66.110291 372.812775 107.195068 65.788345 372.384399 107.656792 65.542839 371.910461 108.154129 65.381241 371.405365 105.830811 68.199654 373.872986 105.851341 67.938744 373.838837 105.894539 67.680618 373.782196 105.960068 67.427238 373.703491 106.047432 67.180534 373.603333 106.155960 66.942383 373.482483 106.284836 66.714600 373.341858 106.433075 66.498909 373.182556 105.830811 68.199654 349.895813 105.851341 67.938744 349.929993 105.894539 67.680618 349.986633 105.960068 67.427238 350.065338 106.047432 67.180534 350.165497 106.155960 66.942383 350.286346 106.284836 66.714600 350.426941 106.433075 66.498909 350.586273 106.782990 66.110291 350.956055 107.195068 65.788345 351.384399 107.656792 65.542839 351.858337 108.154129 65.381241 352.363464 "
							            />
						</IndexedFaceSet>
					</Shape>
				</Group>
			</Transform>
		</Transform>
	</Scene>
</X3D>