<?xml version="1.0" encoding="UTF-8"?>
<!DOCTYPE X3D PUBLIC "ISO//Web3D//DTD X3D 3.0//EN" "http://www.web3d.org/specifications/x3d-3.0.dtd">
<X3D version="3.0" profile="Immersive" xmlns:xsd="http://www.w3.org/2001/XMLSchema-instance" xsd:noNamespaceSchemaLocation="http://www.web3d.org/specifications/x3d-3.0.xsd">
	<head>
		<meta name="filename" content="OMLV4_Packing - For Xander - Hydraulic Actuator-4.x3d" />
		<meta name="created" content="2026-04-19 20:21:17" />
		<meta name="generator" content="Blender 4.3.2" />
		<meta name="translator" content="Web3D X3D/VRML2 format v2.5.1" />
	</head>
	<Scene>
		<NavigationInfo headlight="true"
		                visibilityLimit="0.0"
		                type='"EXAMINE", "ANY"'
		                avatarSize="0.25, 1.75, 0.75"
		                />
		<Background DEF="WO_World"
		            groundColor="0.051 0.051 0.051"
		            skyColor="0.051 0.051 0.051"
		            />
		<Transform DEF="OMLV4_Packing_-_For_Xander_-_Hydraulic_Actuator-4_TRANSFORM"
		           translation="0.000000 0.000000 0.000000"
		           scale="1.000000 1.000000 1.000000"
		           rotation="-1.000000 0.000000 0.000000 1.570796"
		           >
			<Transform DEF="OMLV4_Packing_-_For_Xander_-_Hydraulic_Actuator-4_ifs_TRANSFORM"
			           translation="0.000000 0.000000 0.000000"
			           scale="1.000000 1.000000 1.000000"
			           rotation="0.000000 1.000000 0.000000 0.000000"
			           >
				<Group DEF="group_ME_OMLV4_Packing_-_For_Xander_-_Hydraulic_Actuator-4">
					<Shape>
						<Appearance>
						</Appearance>
						<IndexedFaceSet solid="false"
						                coordIndex="0 1 2 -1 2 1 3 -1 2 3 4 -1 4 3 5 -1 4 5 6 -1 6 5 7 -1 6 7 8 -1 8 7 9 -1 8 9 10 -1 10 9 11 -1 10 11 12 -1 12 11 13 -1 12 13 14 -1 14 13 15 -1 14 15 16 -1 16 15 17 -1 16 17 18 -1 18 17 19 -1 18 19 20 -1 20 19 21 -1 20 21 22 -1 22 21 23 -1 22 23 24 -1 24 23 25 -1 24 25 26 -1 26 25 27 -1 26 27 28 -1 28 27 29 -1 28 29 30 -1 30 29 31 -1 30 31 32 -1 32 31 33 -1 32 33 34 -1 34 33 35 -1 34 35 36 -1 36 35 37 -1 36 37 38 -1 38 37 39 -1 38 39 40 -1 40 39 41 -1 40 41 42 -1 42 41 43 -1 42 43 44 -1 44 43 45 -1 44 45 46 -1 46 45 47 -1 46 47 48 -1 48 47 49 -1 48 49 50 -1 50 49 51 -1 50 51 52 -1 52 51 53 -1 52 53 54 -1 54 53 55 -1 54 55 56 -1 56 55 57 -1 56 57 58 -1 58 57 59 -1 58 59 60 -1 60 59 61 -1 60 61 62 -1 62 61 63 -1 62 63 64 -1 64 63 65 -1 64 65 66 -1 66 65 67 -1 66 67 68 -1 68 67 69 -1 68 69 70 -1 70 69 71 -1 70 71 0 -1 0 71 1 -1 39 37 72 -1 72 37 35 -1 72 35 33 -1 45 43 72 -1 72 43 41 -1 72 41 39 -1 51 49 72 -1 72 49 47 -1 72 47 45 -1 57 55 72 -1 72 55 53 -1 72 53 51 -1 63 61 72 -1 72 61 59 -1 72 59 57 -1 69 67 72 -1 72 67 65 -1 72 65 63 -1 3 1 72 -1 72 1 71 -1 72 71 69 -1 9 7 72 -1 72 7 5 -1 72 5 3 -1 15 13 72 -1 72 13 11 -1 72 11 9 -1 21 19 72 -1 72 19 17 -1 72 17 15 -1 27 25 72 -1 72 25 23 -1 72 23 21 -1 33 31 72 -1 72 31 29 -1 72 29 27 -1 32 34 73 -1 73 34 36 -1 73 36 38 -1 26 28 73 -1 73 28 30 -1 73 30 32 -1 20 22 73 -1 73 22 24 -1 73 24 26 -1 14 16 73 -1 73 16 18 -1 73 18 20 -1 8 10 73 -1 73 10 12 -1 73 12 14 -1 2 4 73 -1 73 4 6 -1 73 6 8 -1 68 70 73 -1 73 70 0 -1 73 0 2 -1 62 64 73 -1 73 64 66 -1 73 66 68 -1 56 58 73 -1 73 58 60 -1 73 60 62 -1 50 52 73 -1 73 52 54 -1 73 54 56 -1 44 46 73 -1 73 46 48 -1 73 48 50 -1 38 40 73 -1 73 40 42 -1 73 42 44 -1 "
						                >
							<Coordinate DEF="coords_ME_OMLV4_Packing_-_For_Xander_-_Hydraulic_Actuator-4"
							            point="416.514252 88.237549 611.884399 416.750183 88.350266 599.884399 416.750183 88.350266 611.884399 416.962952 88.502235 599.884399 416.962952 88.502235 611.884399 417.146088 88.688850 599.884399 417.146088 88.688850 611.884399 417.294037 88.904427 599.884399 417.294037 88.904427 611.884399 417.402313 89.142418 599.884399 417.402313 89.142418 611.884399 417.467621 89.395599 599.884399 417.467621 89.395599 611.884399 417.487976 89.656273 599.884399 417.487976 89.656273 611.884399 417.462738 89.916519 599.884399 417.462738 89.916519 611.884399 417.392700 90.168434 599.884399 417.392700 90.168434 611.884399 417.279999 90.404358 599.884399 417.279999 90.404358 611.884399 417.128021 90.617126 599.884399 417.128021 90.617126 611.884399 416.941406 90.800270 599.884399 416.941406 90.800270 611.884399 416.725830 90.948227 599.884399 416.725830 90.948227 611.884399 416.487823 91.056503 599.884399 416.487823 91.056503 611.884399 416.234650 91.121811 599.884399 416.234650 91.121811 611.884399 415.973969 91.142151 599.884399 415.973969 91.142151 611.884399 415.713745 91.116928 599.884399 415.713745 91.116928 611.884399 415.461823 91.046890 599.884399 415.461823 91.046890 611.884399 415.225891 90.934174 599.884399 415.225891 90.934174 611.884399 415.013123 90.782204 599.884399 415.013123 90.782204 611.884399 414.829987 90.595596 599.884399 414.829987 90.595596 611.884399 414.682037 90.380013 599.884399 414.682037 90.380013 611.884399 414.573761 90.142021 599.884399 414.573761 90.142021 611.884399 414.508453 89.888840 599.884399 414.508453 89.888840 611.884399 414.488098 89.628166 599.884399 414.488098 89.628166 611.884399 414.513336 89.367920 599.884399 414.513336 89.367920 611.884399 414.583374 89.116005 599.884399 414.583374 89.116005 611.884399 414.696075 88.880081 599.884399 414.696075 88.880081 611.884399 414.848053 88.667313 599.884399 414.848053 88.667313 611.884399 415.034668 88.484169 599.884399 415.034668 88.484169 611.884399 415.250244 88.336212 599.884399 415.250244 88.336212 611.884399 415.488220 88.227936 599.884399 415.488220 88.227936 611.884399 415.741425 88.162636 599.884399 415.741425 88.162636 611.884399 416.002075 88.142288 599.884399 416.002075 88.142288 611.884399 416.262329 88.167511 599.884399 416.262329 88.167511 611.884399 416.514252 88.237549 599.884399 415.988037 89.642220 599.884399 415.988037 89.642220 611.884399 "
							            />
						</IndexedFaceSet>
					</Shape>
				</Group>
			</Transform>
		</Transform>
	</Scene>
</X3D>