<?xml version="1.0" encoding="UTF-8"?>
<!DOCTYPE X3D PUBLIC "ISO//Web3D//DTD X3D 3.0//EN" "http://www.web3d.org/specifications/x3d-3.0.dtd">
<X3D version="3.0" profile="Immersive" xmlns:xsd="http://www.w3.org/2001/XMLSchema-instance" xsd:noNamespaceSchemaLocation="http://www.web3d.org/specifications/x3d-3.0.xsd">
	<head>
		<meta name="filename" content="OMLV4_Packing - For Xander - Pilot Interface FCS-1.x3d" />
		<meta name="created" content="2026-04-19 20:21:18" />
		<meta name="generator" content="Blender 4.3.2" />
		<meta name="translator" content="Web3D X3D/VRML2 format v2.5.1" />
	</head>
	<Scene>
		<NavigationInfo headlight="true"
		                visibilityLimit="0.0"
		                type='"EXAMINE", "ANY"'
		                avatarSize="0.25, 1.75, 0.75"
		                />
		<Background DEF="WO_World"
		            groundColor="0.051 0.051 0.051"
		            skyColor="0.051 0.051 0.051"
		            />
		<Transform DEF="OMLV4_Packing_-_For_Xander_-_Pilot_Interface_FCS-1_TRANSFORM"
		           translation="0.000000 0.000000 0.000000"
		           scale="1.000000 1.000000 1.000000"
		           rotation="-1.000000 0.000000 0.000000 1.570796"
		           >
			<Transform DEF="OMLV4_Packing_-_For_Xander_-_Pilot_Interface_FCS-1_ifs_TRANSFORM"
			           translation="0.000000 0.000000 0.000000"
			           scale="1.000000 1.000000 1.000000"
			           rotation="0.000000 1.000000 0.000000 0.000000"
			           >
				<Group DEF="group_ME_OMLV4_Packing_-_For_Xander_-_Pilot_Interface_FCS-1">
					<Shape>
						<Appearance>
						</Appearance>
						<IndexedFaceSet solid="false"
						                coordIndex="0 1 2 -1 2 1 3 -1 4 5 6 -1 6 5 7 -1 8 9 10 -1 10 9 11 -1 12 13 14 -1 10 11 15 -1 10 15 16 -1 17 18 12 -1 19 5 20 -1 20 5 4 -1 21 22 20 -1 20 22 23 -1 20 23 19 -1 11 24 15 -1 15 24 25 -1 15 25 26 -1 4 0 20 -1 20 0 2 -1 20 2 15 -1 15 2 27 -1 15 27 16 -1 12 14 17 -1 17 14 28 -1 17 28 20 -1 20 28 29 -1 20 29 21 -1 26 30 15 -1 15 30 31 -1 15 31 18 -1 18 31 32 -1 18 32 12 -1 33 34 27 -1 27 34 16 -1 35 36 37 -1 14 13 38 -1 38 13 39 -1 38 39 37 -1 37 39 40 -1 41 42 43 -1 43 42 44 -1 43 44 45 -1 40 46 37 -1 37 46 47 -1 37 47 48 -1 48 49 37 -1 37 49 50 -1 37 50 51 -1 44 52 45 -1 45 52 53 -1 45 53 54 -1 55 35 45 -1 45 35 37 -1 45 37 56 -1 56 37 51 -1 54 57 45 -1 45 57 58 -1 45 58 55 -1 59 60 41 -1 41 60 42 -1 61 34 33 -1 3 1 62 -1 63 64 8 -1 8 64 65 -1 8 65 9 -1 61 59 66 -1 67 62 68 -1 68 62 69 -1 70 71 33 -1 33 71 3 -1 33 3 61 -1 61 3 62 -1 61 62 59 -1 59 62 67 -1 59 67 60 -1 7 72 6 -1 6 72 73 -1 6 73 74 -1 66 75 61 -1 61 75 76 -1 61 76 77 -1 77 76 78 -1 77 78 8 -1 8 78 79 -1 8 79 80 -1 74 81 6 -1 6 81 82 -1 6 82 83 -1 80 84 8 -1 8 84 85 -1 8 85 63 -1 83 86 6 -1 6 86 87 -1 6 87 69 -1 69 87 88 -1 69 88 68 -1 89 90 81 -1 91 36 35 -1 42 60 44 -1 44 60 67 -1 68 53 67 -1 67 53 52 -1 67 52 44 -1 88 57 68 -1 68 57 54 -1 68 54 53 -1 87 55 88 -1 88 55 58 -1 88 58 57 -1 92 93 86 -1 86 93 91 -1 86 91 87 -1 87 91 35 -1 87 35 55 -1 94 95 83 -1 83 95 96 -1 83 96 86 -1 86 96 97 -1 86 97 92 -1 81 90 82 -1 90 98 82 -1 82 98 99 -1 82 99 100 -1 100 101 82 -1 82 101 102 -1 82 102 83 -1 83 102 103 -1 83 103 94 -1 74 104 105 -1 105 106 74 -1 74 106 107 -1 74 107 81 -1 81 107 108 -1 81 108 89 -1 109 110 73 -1 110 111 73 -1 73 111 112 -1 73 112 74 -1 74 112 113 -1 74 113 104 -1 73 72 109 -1 109 72 7 -1 109 7 5 -1 11 9 114 -1 114 9 65 -1 114 65 115 -1 115 65 116 -1 117 118 64 -1 118 119 64 -1 64 119 120 -1 64 120 65 -1 65 120 121 -1 65 121 116 -1 122 123 63 -1 63 123 124 -1 63 124 64 -1 64 124 125 -1 64 125 117 -1 126 127 85 -1 85 127 128 -1 85 128 63 -1 63 128 129 -1 63 129 122 -1 130 131 84 -1 131 132 84 -1 84 132 133 -1 84 133 85 -1 85 133 134 -1 85 134 126 -1 79 135 80 -1 80 135 136 -1 80 136 137 -1 137 138 80 -1 80 138 139 -1 80 139 84 -1 84 139 140 -1 84 140 130 -1 79 78 49 -1 46 135 47 -1 47 135 79 -1 47 79 48 -1 48 79 49 -1 45 56 76 -1 76 56 51 -1 76 51 78 -1 78 51 50 -1 78 50 49 -1 76 75 45 -1 45 75 66 -1 45 66 43 -1 43 66 59 -1 43 59 41 -1 26 25 133 -1 133 25 134 -1 125 124 25 -1 25 124 123 -1 123 122 25 -1 25 122 129 -1 25 129 128 -1 128 127 25 -1 25 127 126 -1 25 126 134 -1 11 114 24 -1 24 114 115 -1 115 116 24 -1 24 116 121 -1 24 121 120 -1 120 119 24 -1 24 119 118 -1 24 118 25 -1 25 118 117 -1 25 117 125 -1 26 133 30 -1 30 133 132 -1 30 132 131 -1 131 130 30 -1 30 130 140 -1 30 140 139 -1 137 136 40 -1 40 136 135 -1 40 135 46 -1 139 138 30 -1 30 138 137 -1 30 137 31 -1 31 137 40 -1 31 40 32 -1 32 40 39 -1 32 39 12 -1 12 39 13 -1 14 38 28 -1 37 36 91 -1 28 38 29 -1 29 38 37 -1 29 37 21 -1 21 37 91 -1 21 91 93 -1 93 92 21 -1 21 92 97 -1 21 97 96 -1 96 95 21 -1 21 95 94 -1 21 94 103 -1 113 112 19 -1 19 112 111 -1 111 110 19 -1 19 110 109 -1 19 109 5 -1 98 90 23 -1 103 102 21 -1 21 102 101 -1 21 101 22 -1 22 101 100 -1 22 100 23 -1 23 100 99 -1 23 99 98 -1 90 89 23 -1 23 89 108 -1 23 108 107 -1 107 106 23 -1 23 106 105 -1 23 105 19 -1 19 105 104 -1 19 104 113 -1 141 142 143 -1 143 142 144 -1 143 144 145 -1 145 144 146 -1 145 146 147 -1 147 146 148 -1 147 148 141 -1 141 148 142 -1 144 142 18 -1 18 142 15 -1 146 144 17 -1 17 144 18 -1 148 146 20 -1 20 146 17 -1 142 148 15 -1 15 148 20 -1 145 147 149 -1 149 147 150 -1 147 141 150 -1 150 141 151 -1 141 143 151 -1 151 143 152 -1 143 145 152 -1 152 145 149 -1 150 151 149 -1 149 151 152 -1 153 77 10 -1 10 77 8 -1 61 154 34 -1 34 154 16 -1 154 153 16 -1 16 153 10 -1 154 61 153 -1 153 61 77 -1 69 155 6 -1 6 155 4 -1 155 156 4 -1 4 156 0 -1 156 62 0 -1 0 62 1 -1 62 156 69 -1 69 156 155 -1 157 71 158 -1 158 71 70 -1 2 157 27 -1 27 157 158 -1 71 157 3 -1 3 157 2 -1 158 70 27 -1 27 70 33 -1 "
						                >
							<Coordinate DEF="coords_ME_OMLV4_Packing_-_For_Xander_-_Pilot_Interface_FCS-1"
							            point="113.495735 106.357536 365.884399 113.495735 91.593758 365.884399 113.495735 106.357536 364.884399 113.495735 91.593758 364.884399 113.495735 106.357536 371.884399 113.495735 106.357536 376.648193 113.495735 91.593758 371.884399 113.495735 91.593758 376.648193 113.495735 91.593758 351.884399 113.495735 91.593758 347.120636 113.495735 106.357536 351.884399 113.495735 106.357536 347.120636 109.278625 117.248161 351.478516 108.823418 118.423744 352.063904 108.823418 118.423744 371.704926 112.820747 108.100677 351.384399 113.495735 106.357536 357.884399 109.570877 116.493431 372.384399 109.570877 116.493431 351.384399 112.757401 108.264275 375.982819 112.820747 108.100677 372.384399 110.702866 113.570099 373.939575 111.360809 111.870949 374.629608 112.023079 110.160652 375.288361 112.748711 108.286713 347.794006 112.005806 110.205261 348.497253 111.396141 111.779701 349.103210 113.495735 106.357536 358.884399 109.570755 116.493744 372.649200 110.134636 115.037529 373.310150 110.790108 113.344780 349.735504 110.262016 114.708580 350.314606 109.737541 116.063019 350.919952 113.495735 91.593758 358.884399 113.495735 91.593758 357.884399 100.168968 113.427101 372.931580 101.568787 114.235283 373.658417 103.526672 115.365677 373.164581 105.480545 116.493744 372.649200 106.781754 117.244995 351.476990 104.734512 116.063019 350.919952 93.810699 109.756149 355.509552 93.810699 109.756149 368.259277 94.943771 110.410332 354.490143 94.566780 110.192673 368.949585 95.677429 110.833908 353.877289 101.568787 114.235283 350.110413 100.475990 113.604362 350.669586 99.649857 113.127396 351.131500 98.833527 112.656082 351.622711 98.026741 112.190285 352.143616 97.234894 111.733116 352.690765 95.337074 110.637405 369.611694 96.117043 111.087715 370.241821 96.911217 111.546234 370.843750 99.338165 112.947441 372.453918 96.448669 111.279190 353.270874 97.709221 112.006966 371.410156 98.521240 112.475784 371.948761 93.810699 91.593758 355.509552 93.810699 91.593758 368.259277 98.495735 91.593758 357.884399 98.495735 91.593758 365.884399 107.553345 91.593758 347.969727 109.470253 91.593758 347.571716 111.455528 91.593758 347.287323 94.223907 91.593758 355.127197 95.337074 91.593758 369.611694 96.911217 91.593758 370.843750 98.495735 91.593758 371.884399 119.495735 91.593758 358.884399 119.495735 91.593758 364.884399 112.927048 91.593758 376.613983 111.012169 91.593758 376.428772 109.072723 91.593758 376.124847 95.677429 91.593758 353.877289 97.234894 91.593758 352.690765 98.495735 91.593758 351.884399 98.833527 91.593758 351.622711 100.475990 91.593758 350.669586 102.165436 91.593758 349.828949 107.191681 91.593758 375.709595 105.364655 91.593758 375.183533 103.587601 91.593758 374.546234 103.905434 91.593758 349.099060 105.699959 91.593758 348.479248 101.856804 91.593758 373.796356 100.168968 91.593758 372.931580 98.521240 91.593758 371.948761 107.737305 108.654266 375.842834 107.189865 109.023018 375.709137 101.855675 113.912178 373.795807 102.226303 113.502731 373.967682 102.165482 113.569290 373.939911 104.014954 111.663391 374.711365 103.846931 111.826012 374.647339 103.585625 112.083237 374.545441 103.039757 112.637192 374.323181 106.996933 109.159180 375.659454 106.256172 109.711723 375.455963 105.699646 110.157608 375.289490 105.513329 110.312706 375.231110 105.363205 110.439781 375.183075 104.766777 110.962975 374.983459 110.167984 107.333717 376.311371 109.509506 107.640289 376.203979 109.146080 107.825768 376.138580 109.071999 107.865005 376.124725 108.479118 108.196327 376.007080 112.820747 106.479462 376.606537 112.151993 106.637970 376.552216 111.487907 106.833031 376.485107 111.011055 106.996475 376.428619 110.827026 107.064819 376.404938 113.300621 106.388885 347.131317 112.655212 106.515182 347.174500 112.017654 106.674385 347.229095 109.539101 107.625694 347.559723 110.148659 107.342178 347.460388 110.764709 107.088623 347.372131 111.387596 106.865784 347.295013 111.455101 106.843643 347.287384 107.784439 108.623741 347.914978 108.444176 108.216812 347.769043 108.935722 107.938431 347.670074 109.469650 107.660065 347.571808 105.864845 110.022522 348.428680 106.495743 109.527878 348.244812 107.135292 109.061203 348.073578 107.551666 108.776390 347.970123 104.015594 111.662773 349.057220 104.625587 111.091072 348.834717 105.241737 110.543961 348.625275 105.645096 110.202721 348.496277 105.698700 110.158394 348.479614 102.164268 113.570625 349.829468 102.344139 113.374489 349.747803 102.372017 113.344284 349.735291 103.128021 112.546127 349.408844 103.411018 112.258011 349.293091 103.904648 111.769905 349.099365 112.756767 108.612076 351.884399 112.937317 108.145813 351.384399 109.867996 116.072304 351.884399 109.687447 116.538567 351.384399 109.867996 116.072304 371.884399 109.687447 116.538567 372.384399 112.756767 108.612076 371.884399 112.937317 108.145813 372.384399 109.751427 116.027168 371.884399 112.640198 108.566940 371.884399 112.640198 108.566940 351.884399 109.751427 116.027168 351.884399 98.495735 106.357536 351.884399 98.495735 106.357536 357.884399 98.495735 106.357536 371.884399 98.495735 106.357536 365.884399 119.495735 98.806183 364.884399 119.495735 98.806183 358.884399 "
							            />
						</IndexedFaceSet>
					</Shape>
				</Group>
			</Transform>
		</Transform>
	</Scene>
</X3D>