<?xml version="1.0" encoding="UTF-8"?>
<!DOCTYPE X3D PUBLIC "ISO//Web3D//DTD X3D 3.0//EN" "http://www.web3d.org/specifications/x3d-3.0.dtd">
<X3D version="3.0" profile="Immersive" xmlns:xsd="http://www.w3.org/2001/XMLSchema-instance" xsd:noNamespaceSchemaLocation="http://www.web3d.org/specifications/x3d-3.0.xsd">
	<head>
		<meta name="filename" content="OMLV4_Packing - For Xander - FuselageTank3-1.x3d" />
		<meta name="created" content="2026-04-19 20:21:17" />
		<meta name="generator" content="Blender 4.3.2" />
		<meta name="translator" content="Web3D X3D/VRML2 format v2.5.1" />
	</head>
	<Scene>
		<NavigationInfo headlight="true"
		                visibilityLimit="0.0"
		                type='"EXAMINE", "ANY"'
		                avatarSize="0.25, 1.75, 0.75"
		                />
		<Background DEF="WO_World"
		            groundColor="0.051 0.051 0.051"
		            skyColor="0.051 0.051 0.051"
		            />
		<Transform DEF="OMLV4_Packing_-_For_Xander_-_FuselageTank3-1_TRANSFORM"
		           translation="0.000000 0.000000 0.000000"
		           scale="1.000000 1.000000 1.000000"
		           rotation="-1.000000 0.000000 0.000000 1.570796"
		           >
			<Transform DEF="OMLV4_Packing_-_For_Xander_-_FuselageTank3-1_ifs_TRANSFORM"
			           translation="0.000000 0.000000 0.000000"
			           scale="1.000000 1.000000 1.000000"
			           rotation="0.000000 1.000000 0.000000 0.000000"
			           >
				<Group DEF="group_ME_OMLV4_Packing_-_For_Xander_-_FuselageTank3-1">
					<Shape>
						<Appearance>
						</Appearance>
						<IndexedFaceSet solid="false"
						                coordIndex="0 1 2 -1 3 4 5 -1 5 4 6 -1 7 8 3 -1 9 10 11 -1 12 13 14 -1 15 16 17 -1 17 16 18 -1 17 18 19 -1 19 18 20 -1 19 20 21 -1 21 20 22 -1 21 22 23 -1 23 22 24 -1 23 24 25 -1 25 24 26 -1 27 28 29 -1 30 31 32 -1 33 34 35 -1 36 37 32 -1 32 37 38 -1 32 38 30 -1 30 38 39 -1 30 39 40 -1 40 39 41 -1 42 43 44 -1 41 45 40 -1 40 45 46 -1 40 46 47 -1 48 49 50 -1 51 52 53 -1 48 54 53 -1 53 54 55 -1 53 55 51 -1 51 55 56 -1 48 50 54 -1 54 50 35 -1 54 35 55 -1 55 35 34 -1 55 34 56 -1 57 58 59 -1 60 61 62 -1 63 43 64 -1 64 43 42 -1 64 42 65 -1 65 42 66 -1 65 66 67 -1 67 66 12 -1 67 12 68 -1 68 12 14 -1 68 14 69 -1 44 70 42 -1 42 70 71 -1 42 71 66 -1 66 71 60 -1 66 60 12 -1 12 60 62 -1 12 62 13 -1 72 73 74 -1 74 73 75 -1 74 75 11 -1 11 75 76 -1 11 76 9 -1 14 72 69 -1 69 72 74 -1 69 74 77 -1 77 74 11 -1 78 79 80 -1 80 79 81 -1 80 81 82 -1 82 81 83 -1 82 83 84 -1 84 83 85 -1 84 85 7 -1 82 86 80 -1 80 86 87 -1 80 87 78 -1 78 87 88 -1 78 88 89 -1 7 3 84 -1 84 3 5 -1 84 5 82 -1 82 5 6 -1 82 6 86 -1 86 90 87 -1 87 90 91 -1 87 91 88 -1 88 91 92 -1 88 92 89 -1 89 92 93 -1 89 93 94 -1 94 93 95 -1 94 95 96 -1 96 95 97 -1 96 97 29 -1 29 97 98 -1 29 98 27 -1 27 98 99 -1 27 99 100 -1 100 99 101 -1 100 101 63 -1 102 103 104 -1 104 103 2 -1 104 2 105 -1 105 2 1 -1 105 1 106 -1 36 0 37 -1 37 0 2 -1 37 2 38 -1 38 2 103 -1 38 103 39 -1 39 103 102 -1 39 102 41 -1 4 107 6 -1 6 107 108 -1 6 108 86 -1 86 108 106 -1 86 106 90 -1 90 106 1 -1 90 1 91 -1 91 1 0 -1 91 0 92 -1 92 0 36 -1 92 36 93 -1 93 36 32 -1 93 32 95 -1 95 32 31 -1 95 31 97 -1 97 31 30 -1 97 30 98 -1 98 30 40 -1 98 40 99 -1 99 40 47 -1 99 47 101 -1 63 64 100 -1 100 64 65 -1 100 65 27 -1 27 65 67 -1 27 67 28 -1 28 67 68 -1 28 68 29 -1 29 68 69 -1 29 69 96 -1 96 69 77 -1 96 77 94 -1 94 77 11 -1 94 11 89 -1 89 11 10 -1 89 10 78 -1 78 10 109 -1 78 109 79 -1 110 111 112 -1 112 113 114 -1 114 113 115 -1 114 115 116 -1 116 117 114 -1 114 117 118 -1 114 118 119 -1 119 120 114 -1 114 120 121 -1 114 121 122 -1 122 123 114 -1 114 123 124 -1 114 124 125 -1 112 114 110 -1 110 114 126 -1 110 126 127 -1 128 129 130 -1 130 129 131 -1 130 131 132 -1 132 131 133 -1 132 133 134 -1 126 135 127 -1 127 135 136 -1 127 136 137 -1 138 139 140 -1 140 139 134 -1 140 134 141 -1 141 134 133 -1 138 142 139 -1 139 142 143 -1 139 143 134 -1 134 143 144 -1 134 144 132 -1 136 128 137 -1 137 128 130 -1 137 130 145 -1 145 130 132 -1 145 132 146 -1 146 132 144 -1 147 148 149 -1 52 150 53 -1 53 150 151 -1 53 151 152 -1 153 49 154 -1 154 49 48 -1 154 48 149 -1 149 48 53 -1 149 53 147 -1 147 53 152 -1 148 155 149 -1 149 155 156 -1 149 156 157 -1 107 158 108 -1 108 158 159 -1 108 159 106 -1 106 159 160 -1 106 160 105 -1 105 160 161 -1 105 161 104 -1 104 161 33 -1 104 33 102 -1 102 33 35 -1 102 35 41 -1 41 35 50 -1 41 50 45 -1 45 50 49 -1 45 49 46 -1 46 49 153 -1 46 153 47 -1 47 153 162 -1 47 162 101 -1 101 162 163 -1 101 163 63 -1 63 163 164 -1 63 164 43 -1 43 164 165 -1 43 165 44 -1 44 165 16 -1 44 16 70 -1 70 16 15 -1 70 15 71 -1 71 15 57 -1 71 57 60 -1 60 57 59 -1 60 59 61 -1 138 166 142 -1 142 166 167 -1 142 167 168 -1 111 110 26 -1 26 110 127 -1 26 127 25 -1 25 127 137 -1 25 137 23 -1 23 137 145 -1 23 145 21 -1 21 145 146 -1 21 146 19 -1 19 146 144 -1 19 144 17 -1 17 144 143 -1 17 143 15 -1 15 143 142 -1 15 142 57 -1 57 142 168 -1 57 168 58 -1 169 170 171 -1 172 173 174 -1 3 8 172 -1 175 176 177 -1 178 179 180 -1 181 182 183 -1 184 181 185 -1 186 187 188 -1 189 190 191 -1 191 190 192 -1 193 194 195 -1 196 197 198 -1 199 200 201 -1 202 203 204 -1 205 51 56 -1 206 207 208 -1 209 56 34 -1 210 211 212 -1 208 207 213 -1 213 207 214 -1 213 214 215 -1 56 209 205 -1 205 209 216 -1 205 216 217 -1 217 216 218 -1 217 218 219 -1 220 157 221 -1 221 157 156 -1 221 156 222 -1 222 156 155 -1 222 155 223 -1 223 155 148 -1 223 148 224 -1 224 148 147 -1 224 147 152 -1 204 203 225 -1 225 203 226 -1 225 226 227 -1 227 226 228 -1 227 228 229 -1 201 220 202 -1 202 220 221 -1 202 221 203 -1 203 221 222 -1 203 222 226 -1 226 222 223 -1 226 223 228 -1 228 223 224 -1 228 224 229 -1 229 224 152 -1 229 152 230 -1 230 152 151 -1 230 151 150 -1 201 202 199 -1 199 202 204 -1 199 204 231 -1 231 204 225 -1 231 225 232 -1 232 225 227 -1 232 227 233 -1 233 227 229 -1 233 229 234 -1 234 229 230 -1 234 230 235 -1 235 230 150 -1 235 150 52 -1 236 237 238 -1 238 237 219 -1 238 219 239 -1 239 219 218 -1 239 218 240 -1 240 218 216 -1 240 216 241 -1 241 216 209 -1 241 209 242 -1 242 209 34 -1 242 34 243 -1 244 245 246 -1 246 247 248 -1 248 247 249 -1 248 249 250 -1 244 246 251 -1 251 246 248 -1 251 248 252 -1 252 248 250 -1 252 250 253 -1 236 245 237 -1 237 245 244 -1 237 244 254 -1 254 244 251 -1 254 251 255 -1 255 251 252 -1 255 252 256 -1 256 252 253 -1 256 253 257 -1 51 205 52 -1 52 205 217 -1 52 217 235 -1 235 217 219 -1 235 219 234 -1 234 219 237 -1 234 237 233 -1 233 237 254 -1 233 254 232 -1 232 254 255 -1 232 255 231 -1 231 255 256 -1 231 256 199 -1 199 256 257 -1 199 257 200 -1 258 259 260 -1 259 258 261 -1 261 258 262 -1 261 262 263 -1 264 265 266 -1 266 265 267 -1 266 267 268 -1 268 267 269 -1 268 269 270 -1 270 269 271 -1 270 271 272 -1 272 271 273 -1 273 271 274 -1 273 274 275 -1 275 274 276 -1 275 276 277 -1 278 279 260 -1 260 279 210 -1 260 210 258 -1 258 210 212 -1 258 212 262 -1 263 262 280 -1 280 262 281 -1 280 281 282 -1 283 282 284 -1 284 282 281 -1 284 281 285 -1 285 281 262 -1 285 262 215 -1 215 262 212 -1 215 212 213 -1 213 212 211 -1 213 211 208 -1 286 277 287 -1 287 277 276 -1 287 276 288 -1 288 276 274 -1 288 274 289 -1 289 274 271 -1 289 271 290 -1 290 271 269 -1 290 269 291 -1 291 269 267 -1 291 267 236 -1 236 267 265 -1 236 265 245 -1 245 265 264 -1 245 264 246 -1 292 293 294 -1 294 293 198 -1 294 198 295 -1 295 198 197 -1 295 197 296 -1 297 278 298 -1 298 278 260 -1 298 260 299 -1 299 260 259 -1 299 259 300 -1 300 259 261 -1 300 261 301 -1 301 261 263 -1 301 263 296 -1 296 263 280 -1 296 280 295 -1 295 280 282 -1 295 282 294 -1 294 282 283 -1 294 283 292 -1 194 193 302 -1 302 193 303 -1 302 303 304 -1 194 305 195 -1 195 305 306 -1 195 306 307 -1 307 308 195 -1 195 308 309 -1 195 309 193 -1 193 309 310 -1 193 310 303 -1 277 311 275 -1 275 311 312 -1 275 312 273 -1 273 312 313 -1 273 313 272 -1 272 313 314 -1 272 314 270 -1 270 314 315 -1 270 315 268 -1 268 315 316 -1 268 316 266 -1 266 316 317 -1 266 317 264 -1 264 317 318 -1 264 318 246 -1 246 318 319 -1 246 319 247 -1 187 186 320 -1 321 322 188 -1 188 322 323 -1 188 323 186 -1 324 325 326 -1 327 328 329 -1 329 328 330 -1 331 332 333 -1 334 189 335 -1 185 181 336 -1 336 181 183 -1 336 183 337 -1 182 181 338 -1 338 181 184 -1 338 184 339 -1 340 341 342 -1 342 341 343 -1 342 343 344 -1 344 343 345 -1 344 345 346 -1 346 345 347 -1 346 347 348 -1 348 347 349 -1 348 349 350 -1 350 349 351 -1 350 351 352 -1 352 351 353 -1 352 353 354 -1 354 353 355 -1 354 355 356 -1 357 358 359 -1 359 358 360 -1 359 360 361 -1 361 360 362 -1 361 362 363 -1 363 362 324 -1 363 324 364 -1 364 324 326 -1 364 326 365 -1 366 367 368 -1 369 366 370 -1 370 366 371 -1 370 371 372 -1 372 371 373 -1 369 374 375 -1 375 376 369 -1 369 376 377 -1 369 377 366 -1 366 377 378 -1 366 378 367 -1 357 379 380 -1 380 379 381 -1 382 381 383 -1 383 381 379 -1 383 379 384 -1 384 379 357 -1 384 357 368 -1 368 357 359 -1 368 359 366 -1 366 359 361 -1 366 361 371 -1 371 361 363 -1 371 363 373 -1 373 363 364 -1 385 386 387 -1 388 389 390 -1 390 389 339 -1 390 339 391 -1 391 339 184 -1 391 184 333 -1 333 184 185 -1 333 185 331 -1 331 185 336 -1 331 336 335 -1 335 336 337 -1 335 337 334 -1 392 393 387 -1 387 393 394 -1 387 394 385 -1 395 396 179 -1 179 396 397 -1 179 397 180 -1 180 397 398 -1 399 400 401 -1 401 400 402 -1 401 402 403 -1 403 402 404 -1 403 404 405 -1 406 405 407 -1 407 405 404 -1 407 404 408 -1 408 404 402 -1 408 402 409 -1 409 402 400 -1 409 400 410 -1 411 412 413 -1 395 179 414 -1 414 179 178 -1 414 178 415 -1 415 178 416 -1 415 416 417 -1 417 416 418 -1 417 418 419 -1 419 418 420 -1 419 420 421 -1 422 423 424 -1 424 423 425 -1 424 425 426 -1 427 428 429 -1 429 428 430 -1 429 430 431 -1 413 432 411 -1 411 432 428 -1 411 428 433 -1 433 428 427 -1 398 406 180 -1 180 406 407 -1 180 407 178 -1 178 407 408 -1 178 408 416 -1 416 408 409 -1 416 409 418 -1 418 409 410 -1 418 410 420 -1 387 434 392 -1 392 434 435 -1 392 435 436 -1 436 435 413 -1 436 413 437 -1 437 413 412 -1 375 399 376 -1 376 399 401 -1 376 401 377 -1 377 401 403 -1 377 403 378 -1 378 403 405 -1 378 405 367 -1 367 405 406 -1 367 406 368 -1 368 406 398 -1 368 398 384 -1 384 398 397 -1 384 397 383 -1 383 397 396 -1 383 396 382 -1 382 396 395 -1 386 385 355 -1 355 385 438 -1 355 438 356 -1 374 369 439 -1 439 369 370 -1 439 370 440 -1 440 370 372 -1 440 372 441 -1 441 372 373 -1 441 373 442 -1 442 373 364 -1 442 364 330 -1 330 364 365 -1 330 365 329 -1 171 443 444 -1 444 443 320 -1 444 320 445 -1 445 320 186 -1 445 186 446 -1 446 186 323 -1 447 448 449 -1 449 448 450 -1 449 450 451 -1 451 450 452 -1 451 452 453 -1 453 452 454 -1 453 454 455 -1 177 176 456 -1 456 176 457 -1 456 457 455 -1 455 457 458 -1 455 458 453 -1 177 459 460 -1 460 461 177 -1 177 461 462 -1 177 462 175 -1 175 462 463 -1 443 447 320 -1 320 447 449 -1 320 449 187 -1 187 449 451 -1 187 451 188 -1 188 451 453 -1 188 453 321 -1 321 453 458 -1 158 107 464 -1 464 107 4 -1 161 160 465 -1 465 160 159 -1 196 286 197 -1 197 286 287 -1 197 287 296 -1 296 287 288 -1 296 288 301 -1 301 288 289 -1 301 289 300 -1 300 289 290 -1 300 290 299 -1 299 290 291 -1 299 291 298 -1 298 291 236 -1 298 236 297 -1 297 236 238 -1 297 238 278 -1 278 238 239 -1 278 239 279 -1 279 239 240 -1 279 240 210 -1 210 240 241 -1 210 241 211 -1 211 241 242 -1 211 242 208 -1 208 242 243 -1 208 243 206 -1 206 243 466 -1 206 466 174 -1 174 466 464 -1 174 464 172 -1 172 464 4 -1 172 4 3 -1 34 33 243 -1 243 33 161 -1 243 161 466 -1 466 161 465 -1 466 465 464 -1 464 465 159 -1 464 159 158 -1 170 169 467 -1 467 169 468 -1 467 468 469 -1 469 468 470 -1 469 470 471 -1 471 470 472 -1 471 472 473 -1 473 472 474 -1 473 474 475 -1 332 331 446 -1 446 331 335 -1 446 335 445 -1 445 335 189 -1 445 189 444 -1 444 189 191 -1 444 191 171 -1 171 191 192 -1 171 192 169 -1 476 475 477 -1 477 475 474 -1 477 474 478 -1 478 474 472 -1 478 472 479 -1 479 472 470 -1 479 470 480 -1 480 470 468 -1 480 468 481 -1 481 468 169 -1 481 169 482 -1 482 169 192 -1 482 192 305 -1 305 192 190 -1 305 190 306 -1 173 476 174 -1 174 476 477 -1 174 477 206 -1 206 477 478 -1 206 478 207 -1 207 478 479 -1 207 479 214 -1 214 479 480 -1 214 480 215 -1 215 480 481 -1 215 481 285 -1 285 481 482 -1 285 482 284 -1 284 482 305 -1 284 305 283 -1 283 305 194 -1 283 194 292 -1 292 194 302 -1 292 302 293 -1 293 302 304 -1 293 304 198 -1 198 304 483 -1 198 483 196 -1 196 483 484 -1 196 484 286 -1 286 484 485 -1 286 485 277 -1 277 485 486 -1 277 486 311 -1 422 431 423 -1 423 431 430 -1 423 430 425 -1 425 430 428 -1 425 428 487 -1 487 428 432 -1 487 432 488 -1 488 432 413 -1 488 413 489 -1 489 413 435 -1 489 435 490 -1 490 435 434 -1 490 434 388 -1 388 434 387 -1 388 387 389 -1 389 387 386 -1 389 386 339 -1 339 386 355 -1 339 355 338 -1 338 355 353 -1 338 353 182 -1 182 353 351 -1 182 351 183 -1 183 351 349 -1 183 349 337 -1 337 349 347 -1 337 347 334 -1 334 347 345 -1 334 345 189 -1 189 345 343 -1 189 343 190 -1 190 343 341 -1 190 341 306 -1 306 341 340 -1 306 340 307 -1 463 327 175 -1 175 327 329 -1 175 329 176 -1 176 329 365 -1 176 365 457 -1 457 365 326 -1 457 326 458 -1 458 326 325 -1 458 325 321 -1 321 325 324 -1 321 324 322 -1 322 324 362 -1 322 362 323 -1 323 362 360 -1 323 360 446 -1 446 360 358 -1 446 358 332 -1 332 358 357 -1 332 357 333 -1 333 357 380 -1 333 380 391 -1 391 380 381 -1 391 381 390 -1 390 381 382 -1 390 382 388 -1 388 382 395 -1 388 395 490 -1 490 395 414 -1 490 414 489 -1 489 414 415 -1 489 415 488 -1 488 415 417 -1 488 417 487 -1 487 417 419 -1 487 419 425 -1 425 419 421 -1 425 421 426 -1 491 492 493 -1 494 495 496 -1 497 328 327 -1 498 499 500 -1 501 502 503 -1 504 505 506 -1 507 508 504 -1 509 510 492 -1 511 512 513 -1 514 515 516 -1 517 518 519 -1 330 520 442 -1 442 520 518 -1 442 518 441 -1 441 518 517 -1 519 518 521 -1 521 518 520 -1 521 520 522 -1 522 515 521 -1 521 515 514 -1 521 514 519 -1 519 514 523 -1 519 523 517 -1 517 523 524 -1 517 524 441 -1 441 524 525 -1 374 439 525 -1 525 439 440 -1 525 440 441 -1 420 410 526 -1 422 424 527 -1 527 424 426 -1 527 426 421 -1 410 400 526 -1 526 400 399 -1 526 399 375 -1 528 529 530 -1 530 529 531 -1 530 531 532 -1 532 531 533 -1 532 533 526 -1 526 533 527 -1 526 527 420 -1 420 527 421 -1 375 374 526 -1 526 374 525 -1 526 525 532 -1 532 525 524 -1 532 524 530 -1 530 524 523 -1 530 523 528 -1 528 523 514 -1 528 514 534 -1 534 514 516 -1 534 516 535 -1 510 509 535 -1 535 509 513 -1 535 513 534 -1 534 513 512 -1 534 512 528 -1 528 512 511 -1 528 511 529 -1 492 491 509 -1 509 491 536 -1 509 536 513 -1 513 536 537 -1 513 537 511 -1 511 537 538 -1 511 538 529 -1 529 538 539 -1 529 539 531 -1 531 539 540 -1 531 540 533 -1 508 541 504 -1 504 541 542 -1 504 542 505 -1 507 504 543 -1 543 504 506 -1 543 506 544 -1 544 506 545 -1 544 545 546 -1 546 545 547 -1 546 547 548 -1 493 549 550 -1 550 549 551 -1 550 551 501 -1 503 502 552 -1 552 502 553 -1 552 553 554 -1 501 503 550 -1 550 503 555 -1 550 555 493 -1 554 556 552 -1 552 556 557 -1 552 557 503 -1 503 557 558 -1 503 558 555 -1 559 560 561 -1 561 560 562 -1 563 564 565 -1 563 566 567 -1 567 566 568 -1 567 568 569 -1 569 568 561 -1 569 561 570 -1 570 561 562 -1 570 562 571 -1 566 572 568 -1 568 572 573 -1 568 573 561 -1 561 573 574 -1 561 574 559 -1 559 574 575 -1 564 576 577 -1 577 576 578 -1 577 578 579 -1 579 578 580 -1 579 580 581 -1 582 583 584 -1 495 577 496 -1 496 577 579 -1 496 579 498 -1 498 579 581 -1 498 581 499 -1 564 577 565 -1 565 577 495 -1 565 495 585 -1 585 495 494 -1 585 494 586 -1 586 494 587 -1 586 587 588 -1 563 565 566 -1 566 565 585 -1 566 585 572 -1 572 585 586 -1 572 586 573 -1 573 586 588 -1 573 588 574 -1 574 588 589 -1 574 589 575 -1 590 591 592 -1 592 591 497 -1 592 497 593 -1 593 497 327 -1 593 327 463 -1 459 571 460 -1 460 571 562 -1 460 562 461 -1 461 562 560 -1 461 560 462 -1 462 560 559 -1 462 559 463 -1 463 559 575 -1 463 575 593 -1 593 575 589 -1 593 589 592 -1 592 589 588 -1 592 588 590 -1 590 588 587 -1 590 587 594 -1 594 587 494 -1 594 494 595 -1 595 494 496 -1 595 496 596 -1 596 496 498 -1 596 498 583 -1 583 498 500 -1 583 500 584 -1 597 598 599 -1 599 598 582 -1 599 582 600 -1 600 582 584 -1 601 602 603 -1 603 602 604 -1 603 604 541 -1 541 604 605 -1 541 605 542 -1 542 605 606 -1 606 607 542 -1 542 607 608 -1 542 608 609 -1 609 610 542 -1 542 610 611 -1 542 611 612 -1 612 613 542 -1 542 613 614 -1 542 614 615 -1 554 507 556 -1 556 507 543 -1 556 543 557 -1 557 543 544 -1 557 544 558 -1 558 544 546 -1 558 546 555 -1 555 546 548 -1 555 548 493 -1 493 548 616 -1 493 616 491 -1 491 616 617 -1 491 617 536 -1 553 618 554 -1 554 618 619 -1 554 619 507 -1 507 619 620 -1 507 620 508 -1 508 620 621 -1 508 621 541 -1 541 621 622 -1 541 622 603 -1 603 622 623 -1 603 623 601 -1 601 623 624 -1 597 549 598 -1 598 549 493 -1 598 493 582 -1 582 493 492 -1 582 492 583 -1 583 492 510 -1 583 510 596 -1 596 510 535 -1 596 535 595 -1 595 535 516 -1 595 516 594 -1 594 516 515 -1 594 515 590 -1 590 515 522 -1 590 522 591 -1 591 522 520 -1 591 520 497 -1 497 520 330 -1 497 330 328 -1 625 626 627 -1 628 629 630 -1 631 632 633 -1 634 635 636 -1 637 638 639 -1 640 641 642 -1 643 614 613 -1 608 607 644 -1 645 646 647 -1 648 649 650 -1 651 648 652 -1 652 648 650 -1 652 650 653 -1 653 650 654 -1 653 654 655 -1 644 607 655 -1 655 607 606 -1 655 606 653 -1 653 606 605 -1 653 605 652 -1 656 657 658 -1 658 657 659 -1 615 614 660 -1 660 614 643 -1 660 643 661 -1 662 663 664 -1 664 663 665 -1 664 665 666 -1 667 668 663 -1 663 668 669 -1 663 669 665 -1 665 669 670 -1 665 670 671 -1 672 673 674 -1 674 673 675 -1 666 676 664 -1 664 676 677 -1 664 677 662 -1 662 677 678 -1 662 678 679 -1 679 659 662 -1 662 659 657 -1 662 657 663 -1 663 657 656 -1 663 656 667 -1 679 680 659 -1 659 680 661 -1 659 661 658 -1 658 661 643 -1 658 643 656 -1 656 643 613 -1 656 613 667 -1 667 613 612 -1 667 612 668 -1 654 681 655 -1 655 681 682 -1 655 682 644 -1 644 682 683 -1 644 683 608 -1 608 683 684 -1 608 684 609 -1 609 684 610 -1 649 645 650 -1 650 645 647 -1 650 647 654 -1 654 647 685 -1 654 685 681 -1 681 685 686 -1 687 672 671 -1 671 672 674 -1 671 674 665 -1 665 674 675 -1 665 675 666 -1 666 675 688 -1 666 688 676 -1 689 690 691 -1 691 690 692 -1 691 692 693 -1 612 611 668 -1 668 611 694 -1 668 694 669 -1 669 694 695 -1 669 695 670 -1 670 695 696 -1 670 696 671 -1 671 696 697 -1 671 697 687 -1 687 697 698 -1 687 698 699 -1 699 698 700 -1 699 700 701 -1 701 702 703 -1 702 704 705 -1 702 705 703 -1 703 705 706 -1 703 706 707 -1 707 706 708 -1 707 708 689 -1 689 708 709 -1 689 709 690 -1 701 703 699 -1 699 703 707 -1 699 707 687 -1 687 707 689 -1 687 689 672 -1 672 689 691 -1 672 691 673 -1 673 691 693 -1 673 693 675 -1 675 693 710 -1 675 710 688 -1 711 712 641 -1 641 712 713 -1 641 713 642 -1 642 713 714 -1 715 716 717 -1 717 716 718 -1 719 720 721 -1 722 723 724 -1 724 723 725 -1 726 727 728 -1 729 730 725 -1 731 722 728 -1 728 722 724 -1 728 724 726 -1 726 724 725 -1 726 725 732 -1 732 725 730 -1 733 734 735 -1 736 737 738 -1 738 737 739 -1 738 739 740 -1 731 711 722 -1 722 711 741 -1 722 741 723 -1 723 741 742 -1 723 742 725 -1 725 742 743 -1 725 743 729 -1 729 743 744 -1 711 641 741 -1 741 641 640 -1 741 640 742 -1 742 640 735 -1 742 735 743 -1 743 735 734 -1 743 734 744 -1 736 717 737 -1 737 717 718 -1 737 718 739 -1 739 718 745 -1 720 704 721 -1 721 704 702 -1 721 702 746 -1 746 702 701 -1 746 701 747 -1 747 701 700 -1 747 700 686 -1 686 700 698 -1 686 698 681 -1 681 698 697 -1 681 697 682 -1 682 697 696 -1 682 696 683 -1 683 696 695 -1 683 695 684 -1 684 695 694 -1 684 694 610 -1 610 694 611 -1 748 749 750 -1 750 749 751 -1 638 637 752 -1 752 637 753 -1 752 753 748 -1 636 635 754 -1 754 635 755 -1 754 755 756 -1 748 753 749 -1 749 753 757 -1 749 757 751 -1 636 758 634 -1 634 758 759 -1 634 759 760 -1 760 759 761 -1 762 763 764 -1 764 763 765 -1 764 765 766 -1 766 765 767 -1 766 767 761 -1 761 767 768 -1 761 768 760 -1 769 756 770 -1 770 756 755 -1 770 755 771 -1 771 755 635 -1 771 635 772 -1 772 635 634 -1 772 634 773 -1 773 634 760 -1 774 775 776 -1 776 775 777 -1 776 777 778 -1 778 777 779 -1 778 779 780 -1 780 779 781 -1 780 781 782 -1 123 122 783 -1 783 122 784 -1 783 784 785 -1 785 784 786 -1 785 786 787 -1 787 786 788 -1 787 788 633 -1 631 633 789 -1 633 788 789 -1 789 788 790 -1 789 790 791 -1 792 793 794 -1 794 793 795 -1 794 795 796 -1 797 798 799 -1 799 798 800 -1 799 800 801 -1 802 803 800 -1 800 803 804 -1 800 804 801 -1 805 806 807 -1 807 806 808 -1 807 808 809 -1 809 808 810 -1 809 810 811 -1 812 813 814 -1 814 813 815 -1 814 815 816 -1 111 817 112 -1 112 817 812 -1 818 117 116 -1 815 818 816 -1 816 818 116 -1 816 116 814 -1 814 116 115 -1 814 115 812 -1 812 115 113 -1 812 113 112 -1 819 820 821 -1 821 820 822 -1 821 822 823 -1 823 822 824 -1 823 824 802 -1 802 824 825 -1 802 825 803 -1 803 825 826 -1 803 826 804 -1 117 818 118 -1 118 818 827 -1 118 827 119 -1 119 827 828 -1 119 828 120 -1 826 805 804 -1 804 805 807 -1 804 807 801 -1 801 807 809 -1 801 809 829 -1 829 809 811 -1 122 121 784 -1 784 121 830 -1 784 830 786 -1 786 830 797 -1 786 797 788 -1 788 797 799 -1 788 799 790 -1 790 799 801 -1 790 801 791 -1 791 801 829 -1 793 831 795 -1 795 831 832 -1 795 832 833 -1 833 832 834 -1 833 834 835 -1 633 774 787 -1 787 774 776 -1 787 776 785 -1 785 776 778 -1 785 778 783 -1 783 778 780 -1 783 780 123 -1 123 780 782 -1 123 782 124 -1 836 837 838 -1 838 837 745 -1 836 839 837 -1 837 839 750 -1 837 750 840 -1 840 750 751 -1 840 751 841 -1 841 751 757 -1 841 757 842 -1 842 757 843 -1 844 845 846 -1 846 845 847 -1 846 847 848 -1 848 847 849 -1 848 849 850 -1 850 849 851 -1 850 851 852 -1 852 851 853 -1 852 853 630 -1 630 853 854 -1 630 854 628 -1 839 844 750 -1 750 844 846 -1 750 846 748 -1 748 846 848 -1 748 848 752 -1 752 848 850 -1 752 850 638 -1 638 850 852 -1 638 852 639 -1 639 852 630 -1 624 626 601 -1 601 626 625 -1 601 625 602 -1 855 856 627 -1 627 856 857 -1 627 857 625 -1 625 857 858 -1 625 858 602 -1 602 858 604 -1 627 859 855 -1 855 859 860 -1 855 860 861 -1 861 860 862 -1 861 862 863 -1 863 646 861 -1 861 646 645 -1 861 645 855 -1 855 645 649 -1 855 649 856 -1 856 649 648 -1 856 648 857 -1 857 648 651 -1 857 651 858 -1 858 651 652 -1 858 652 604 -1 604 652 605 -1 864 865 866 -1 866 865 867 -1 866 867 868 -1 868 867 869 -1 736 733 717 -1 717 733 735 -1 717 735 715 -1 715 735 640 -1 715 640 716 -1 716 640 642 -1 716 642 865 -1 865 642 714 -1 865 714 867 -1 862 869 863 -1 863 869 867 -1 863 867 646 -1 646 867 714 -1 646 714 647 -1 647 714 713 -1 647 713 685 -1 685 713 712 -1 685 712 686 -1 686 712 711 -1 686 711 747 -1 747 711 731 -1 747 731 746 -1 746 731 728 -1 746 728 721 -1 721 728 727 -1 721 727 719 -1 121 120 830 -1 830 120 828 -1 830 828 797 -1 797 828 827 -1 797 827 798 -1 798 827 818 -1 798 818 800 -1 800 818 815 -1 800 815 802 -1 802 815 813 -1 802 813 823 -1 823 813 812 -1 823 812 821 -1 821 812 817 -1 821 817 819 -1 819 817 111 -1 769 740 756 -1 756 740 739 -1 756 739 754 -1 754 739 745 -1 754 745 636 -1 636 745 837 -1 636 837 758 -1 758 837 840 -1 758 840 759 -1 759 840 841 -1 759 841 761 -1 761 841 842 -1 761 842 766 -1 766 842 843 -1 766 843 764 -1 764 843 835 -1 764 835 762 -1 762 835 834 -1 125 124 629 -1 629 124 782 -1 629 782 630 -1 630 782 781 -1 630 781 639 -1 639 781 779 -1 639 779 637 -1 637 779 777 -1 637 777 753 -1 753 777 775 -1 753 775 757 -1 757 775 774 -1 757 774 843 -1 843 774 633 -1 843 633 835 -1 835 633 632 -1 835 632 833 -1 833 632 631 -1 833 631 795 -1 795 631 789 -1 795 789 796 -1 796 789 791 -1 796 791 794 -1 794 791 829 -1 794 829 792 -1 792 829 811 -1 864 870 865 -1 865 870 871 -1 865 871 716 -1 716 871 872 -1 716 872 718 -1 718 872 873 -1 718 873 745 -1 745 873 874 -1 745 874 838 -1 167 502 501 -1 501 551 167 -1 167 551 549 -1 167 549 168 -1 502 167 553 -1 553 167 166 -1 553 166 618 -1 618 166 138 -1 618 138 619 -1 619 138 140 -1 619 140 620 -1 475 476 168 -1 14 13 172 -1 141 628 140 -1 140 628 854 -1 456 584 500 -1 454 452 549 -1 13 62 172 -1 172 62 61 -1 172 61 59 -1 141 133 628 -1 628 133 131 -1 628 131 629 -1 114 125 629 -1 597 599 456 -1 456 599 600 -1 456 600 584 -1 476 173 168 -1 168 173 172 -1 168 172 58 -1 58 172 59 -1 597 456 549 -1 549 456 455 -1 549 455 454 -1 862 860 140 -1 140 860 859 -1 140 859 627 -1 627 626 140 -1 140 626 624 -1 140 624 623 -1 623 622 140 -1 140 622 621 -1 140 621 620 -1 75 172 76 -1 76 172 9 -1 75 73 172 -1 172 73 72 -1 172 72 14 -1 500 499 456 -1 456 499 581 -1 456 581 177 -1 177 581 580 -1 177 580 578 -1 168 467 469 -1 79 109 172 -1 172 109 10 -1 172 10 9 -1 131 129 629 -1 629 129 128 -1 629 128 136 -1 459 177 571 -1 571 177 570 -1 469 471 168 -1 168 471 473 -1 168 473 475 -1 136 135 629 -1 629 135 126 -1 629 126 114 -1 452 450 549 -1 549 450 448 -1 549 448 447 -1 8 7 172 -1 172 7 85 -1 864 866 140 -1 578 576 177 -1 177 576 564 -1 177 564 563 -1 85 83 172 -1 172 83 81 -1 172 81 79 -1 866 868 140 -1 140 868 869 -1 140 869 862 -1 447 443 549 -1 549 443 171 -1 549 171 168 -1 168 171 170 -1 168 170 467 -1 563 567 177 -1 177 567 569 -1 177 569 570 -1 854 853 140 -1 140 853 851 -1 140 851 849 -1 872 871 140 -1 140 871 870 -1 140 870 864 -1 849 847 140 -1 140 847 845 -1 140 845 844 -1 844 839 140 -1 140 839 836 -1 140 836 838 -1 838 874 140 -1 140 874 873 -1 140 873 872 -1 422 527 312 -1 690 709 26 -1 200 257 527 -1 808 806 709 -1 527 149 157 -1 437 412 312 -1 437 312 436 -1 680 679 26 -1 26 679 678 -1 26 688 710 -1 257 253 527 -1 527 253 250 -1 527 250 249 -1 315 314 527 -1 527 314 313 -1 527 313 312 -1 763 762 772 -1 157 220 527 -1 527 220 201 -1 527 201 200 -1 249 247 527 -1 527 247 319 -1 527 319 318 -1 485 393 486 -1 486 393 311 -1 438 346 348 -1 311 393 312 -1 312 393 392 -1 312 392 436 -1 427 429 312 -1 312 429 431 -1 312 431 422 -1 678 677 26 -1 26 677 676 -1 26 676 688 -1 710 693 26 -1 26 693 692 -1 26 692 690 -1 806 805 709 -1 709 805 826 -1 709 826 825 -1 825 824 709 -1 709 824 822 -1 709 822 820 -1 318 317 527 -1 527 317 316 -1 527 316 315 -1 485 484 393 -1 393 484 483 -1 393 483 304 -1 309 308 393 -1 393 308 307 -1 393 307 340 -1 340 342 393 -1 393 342 344 -1 393 344 346 -1 438 385 346 -1 346 385 394 -1 346 394 393 -1 412 411 312 -1 312 411 433 -1 312 433 427 -1 615 660 26 -1 26 660 661 -1 26 661 680 -1 706 705 834 -1 834 705 704 -1 832 709 834 -1 834 709 708 -1 834 708 706 -1 832 831 709 -1 709 831 793 -1 709 793 792 -1 820 819 709 -1 709 819 111 -1 709 111 26 -1 304 303 393 -1 393 303 310 -1 393 310 309 -1 348 350 438 -1 438 350 352 -1 438 352 356 -1 356 352 354 -1 164 617 165 -1 165 617 616 -1 165 616 16 -1 16 616 548 -1 16 548 18 -1 18 548 547 -1 18 547 20 -1 20 547 545 -1 20 545 22 -1 22 545 506 -1 22 506 24 -1 24 506 505 -1 24 505 26 -1 26 505 542 -1 26 542 615 -1 792 811 709 -1 709 811 810 -1 709 810 808 -1 163 537 164 -1 164 537 536 -1 164 536 617 -1 762 740 769 -1 726 732 762 -1 762 732 730 -1 762 730 729 -1 729 744 762 -1 762 744 734 -1 762 734 733 -1 704 720 834 -1 834 720 719 -1 834 719 762 -1 762 719 727 -1 762 727 726 -1 769 770 762 -1 762 770 771 -1 762 771 772 -1 760 768 773 -1 773 768 767 -1 773 767 772 -1 772 767 765 -1 772 765 763 -1 149 527 154 -1 154 527 533 -1 154 533 153 -1 153 533 540 -1 153 540 162 -1 162 540 539 -1 162 539 163 -1 163 539 538 -1 163 538 537 -1 733 736 762 -1 762 736 738 -1 762 738 740 -1 "
						                >
							<Coordinate DEF="coords_ME_OMLV4_Packing_-_For_Xander_-_FuselageTank3-1"
							            point="336.053925 69.930496 374.424927 336.053925 68.677025 374.056030 341.053925 68.619255 372.988861 306.053925 67.005775 379.003418 311.053925 66.887085 378.033295 311.053925 67.892876 378.748810 316.053955 67.807045 377.727600 301.053925 67.538101 380.352600 301.053925 67.124466 379.973511 301.053925 72.693054 383.326019 301.053925 72.540512 383.268036 311.053925 73.828445 381.307983 321.053955 82.111282 380.312805 301.053925 81.876511 385.599823 301.053925 79.134392 385.097656 341.053925 90.926010 375.375671 381.053955 91.610680 364.451752 361.053925 94.214966 369.989532 381.053955 94.542381 364.451752 361.053925 97.124832 370.087341 381.053955 97.474075 364.451752 361.053925 100.028191 370.178619 381.053955 100.405777 364.451752 361.053925 102.930023 370.260559 381.053955 106.269173 364.451752 361.053925 105.821045 370.321564 381.053955 109.200867 364.451752 351.053955 79.602829 372.193970 341.053925 79.509140 374.774689 341.053925 78.096008 374.627075 351.053955 73.938187 371.675842 341.053925 73.910751 374.083893 341.053925 72.547577 373.859894 351.053955 65.937553 370.272400 356.053925 65.818855 369.302307 356.053925 68.445946 369.787445 336.053925 71.221977 374.750397 341.053925 71.207176 373.606079 346.053925 71.192383 372.461792 351.053955 71.177582 371.317505 361.053925 73.965622 369.267822 356.053925 71.162788 370.173218 361.053925 85.466835 369.836151 371.053925 82.698204 367.095245 371.053925 88.511703 367.172638 361.053925 71.147987 369.028931 371.053925 71.118393 366.740326 371.053925 73.993057 366.859772 371.053925 68.272636 366.586029 371.053925 69.691292 366.667999 361.053925 69.759636 368.884277 366.053925 65.581474 367.362091 368.553955 65.522133 366.877014 371.053925 66.862907 366.494171 361.053925 68.388176 368.720306 361.053925 67.034569 368.536621 361.053925 65.700165 368.332184 321.053955 87.675293 380.777100 301.053925 87.340729 386.218872 301.053925 85.512108 386.084900 321.053955 84.905945 380.604980 301.053925 84.625496 385.989410 301.053925 82.385841 385.680847 371.053925 79.790199 367.032471 361.053925 82.580818 369.738770 351.053955 82.463432 372.382263 341.053925 85.186394 375.220581 341.053925 82.346054 375.025787 321.053955 79.321770 379.936188 321.053955 77.934990 379.714722 361.053925 88.344421 369.893524 341.053925 88.009857 375.335327 301.053925 78.646591 384.995544 301.053925 76.426224 384.475586 311.053925 76.491966 381.972626 301.053925 75.151085 384.130493 301.053925 73.801010 383.716034 321.053955 76.557716 379.469635 311.053925 71.295967 380.471863 301.053925 70.715179 382.468567 311.053925 70.101357 379.965607 301.053925 70.169701 382.181854 311.053925 68.965866 379.391724 301.053925 68.996964 381.469910 306.053925 67.978706 379.770020 301.053925 68.064537 380.791229 321.053955 68.850327 377.257446 321.053955 70.033012 377.749329 321.053955 71.266365 378.183258 321.053955 72.544044 378.563965 331.053925 68.734787 375.123169 331.053925 69.964668 375.533081 331.053925 71.236771 375.894684 331.053925 72.545815 376.211914 321.053955 73.855881 378.899963 331.053925 73.883316 376.491913 331.053925 76.623459 376.966644 341.053925 76.689209 374.463684 351.053955 76.754951 371.960693 361.053925 76.820702 369.457703 361.053925 79.696518 369.613220 371.053925 76.886444 366.954712 351.053955 68.503716 370.854584 346.053925 68.561485 371.921722 346.053925 67.292061 371.600281 341.053925 67.377892 372.621490 331.053925 67.549553 374.663940 316.053955 66.768394 377.063202 321.053955 67.721214 376.706360 301.053925 71.325562 382.760437 341.053925 109.561073 376.197388 381.053955 112.132561 364.451752 380.428925 112.113510 364.634003 379.803925 112.094460 364.816284 301.053925 108.455437 387.943024 379.178925 112.075409 364.998535 378.553925 112.056351 365.180817 377.303955 112.018250 365.545349 376.053925 111.980148 365.909882 373.553925 111.903938 366.638947 371.053925 111.827728 367.368011 366.053925 111.675308 368.826141 361.053925 111.522888 370.284302 351.053955 111.218048 373.200562 341.053925 110.913208 376.116821 301.053925 109.693848 387.781921 301.053925 107.754555 387.989105 341.053925 108.185768 376.229614 301.053925 104.476662 387.931061 301.053925 101.707695 387.687012 321.053955 102.115135 381.878204 301.053925 101.435532 387.657532 321.053955 99.273018 381.632385 301.053925 98.895432 387.359283 321.053955 96.426338 381.358551 301.053925 107.170670 388.007477 301.053925 105.166618 387.969849 341.053925 105.372917 376.191406 301.053925 93.232742 386.602905 321.053955 93.560150 381.065125 301.053925 94.359390 386.757111 301.053925 96.077095 386.994171 321.053955 90.583672 380.837616 341.053925 93.887558 375.527313 341.053925 96.775581 375.722961 341.053925 102.522583 376.069366 341.053925 99.650604 375.905518 376.053925 65.344093 365.421844 377.303955 65.314423 365.179321 381.053955 66.691246 364.451752 371.053925 65.462784 366.391968 373.553925 65.403442 365.906921 374.803925 65.373764 365.664398 381.053955 71.088799 364.451752 381.053955 68.157097 364.451752 378.553925 65.284744 364.936798 379.803925 65.255074 364.694275 381.053955 65.225403 364.451752 321.053955 66.649704 376.093079 331.053925 66.412315 374.152863 341.053925 66.174934 372.212646 346.053925 66.056244 371.242523 381.053955 74.020493 364.451752 381.053955 76.952194 364.451752 381.053955 82.815590 364.451752 381.053955 88.678986 364.451752 301.053925 91.214310 386.373230 301.053925 90.241333 386.299561 301.053925 88.163956 386.246124 321.053955 63.968788 365.126312 301.053925 64.340553 365.879456 301.053925 64.198608 363.288910 301.053925 66.724312 378.563354 301.053925 66.361702 377.214020 321.053955 65.952408 374.011108 321.053955 66.286674 348.736450 321.053955 65.952408 349.757690 301.053925 66.361702 346.554810 376.053925 64.577255 358.704010 376.053925 64.336403 358.861511 373.553925 64.383141 358.536011 373.553925 63.227261 360.024353 376.053925 63.181751 360.168945 376.053925 63.053200 360.436310 373.553925 63.376076 359.742096 371.053925 63.272770 359.879791 351.053955 63.636833 358.723236 341.053925 63.818863 358.144958 341.053925 64.126633 356.884613 361.053925 63.085224 361.012360 361.053925 63.038155 361.884399 341.053925 63.418255 361.884399 341.053925 63.463055 363.127686 376.053925 62.862411 362.769714 371.053925 62.956203 362.909760 371.053925 62.896309 362.570862 378.553925 63.136246 363.455322 376.053925 63.181751 363.599884 376.053925 63.114819 363.467560 379.803925 64.875099 364.634216 381.053955 64.848694 364.423950 381.053955 64.973755 364.439362 379.803925 65.001114 364.660065 378.553925 65.028465 364.880737 378.553925 64.901505 364.844513 366.053925 65.301987 367.087616 341.053925 65.257019 370.130066 341.053925 64.990730 369.464264 351.053955 64.803772 368.162262 361.053925 65.411400 367.970367 361.053925 64.616829 366.860291 356.053925 64.710304 367.511292 356.053925 64.248405 366.607788 351.053955 64.338280 367.125519 341.053925 64.518013 368.161011 351.053955 63.947479 366.088104 366.053925 65.031502 366.804596 368.553955 65.247284 366.646240 368.553955 64.980347 366.404236 371.053925 64.929184 366.003876 381.053955 65.099426 364.448639 379.803925 65.127869 364.680084 378.553925 65.156303 364.911530 377.303955 65.184746 365.142944 376.053925 65.213181 365.374390 377.303955 64.927902 365.054779 377.303955 65.055817 365.101440 376.053925 64.954308 365.265045 376.053925 65.083168 365.322113 374.803925 65.110519 365.542816 373.553925 65.137871 365.763489 378.553925 64.775703 364.802795 376.053925 64.826859 365.203156 374.803925 64.852440 365.403320 373.553925 64.878021 365.603516 371.053925 65.192581 366.204865 373.553925 64.383141 365.232819 373.553925 64.625809 365.426605 371.053925 64.674362 365.788422 368.553955 64.722916 366.150208 366.053925 64.771477 366.512024 361.053925 65.133827 367.605316 356.053925 65.236153 368.406036 351.053955 65.338470 369.206757 376.053925 64.577255 365.064789 376.053925 64.455605 364.988434 378.553925 64.408051 364.645050 381.053955 64.390900 364.312347 379.803925 64.504417 364.522095 381.053955 64.480148 364.341187 381.053955 64.601593 364.374817 378.553925 64.528702 364.703003 379.803925 64.626465 364.565186 381.053955 64.724541 364.402435 376.053925 64.701088 365.136383 378.553925 64.651344 364.755585 379.803925 64.750122 364.602600 381.053955 64.803024 364.416779 361.053925 64.158539 366.090027 366.053925 64.068672 365.572296 366.053925 64.288605 365.896088 366.053925 63.864948 365.238098 361.053925 63.768326 365.291992 366.053925 63.678749 364.893951 378.553925 64.289658 364.581818 376.053925 64.336403 364.907318 378.553925 64.173805 364.513367 376.053925 64.219887 364.821503 378.553925 64.060745 364.439850 376.053925 64.106316 364.731079 378.553925 63.950722 364.361328 376.053925 63.888931 364.536804 378.553925 63.843998 364.277954 378.553925 63.740818 364.189850 376.053925 63.686119 364.325348 378.553925 63.641411 364.097168 376.053925 63.499596 364.097839 378.553925 63.454807 363.898804 368.553955 64.476608 365.883789 366.053925 64.523346 366.209290 366.053925 63.511322 364.540375 361.053925 63.454800 364.467316 366.053925 63.363785 364.178162 366.053925 63.132313 363.431732 361.053925 63.225254 363.620026 351.053955 63.636833 365.045593 378.553925 63.285912 363.684326 376.053925 63.330994 363.855530 373.553925 63.544384 364.296875 373.553925 63.730827 364.553558 373.553925 63.933868 364.795685 373.553925 64.151886 365.022339 371.053925 63.039371 363.243469 376.053925 63.053200 363.332520 371.053925 63.145184 363.570374 371.053925 63.272770 363.889038 371.053925 63.421158 364.197937 371.053925 64.429871 365.558319 371.053925 64.197464 365.313568 371.053925 63.978802 365.054565 371.053925 63.775536 364.781738 371.053925 63.589172 364.495880 376.053925 62.946430 363.055176 381.053955 62.872341 362.911224 381.053955 62.961220 363.094635 361.053925 63.085224 362.756470 371.053925 62.860191 362.228516 381.053955 62.666267 362.089386 381.053955 62.707394 362.385284 381.053955 62.735149 362.508789 381.053955 62.768620 362.629669 381.053955 63.596706 363.868988 381.053955 63.646366 363.908722 381.053955 63.696045 363.946503 381.053955 63.799065 364.019073 381.053955 63.905529 364.086487 381.053955 64.001869 364.141418 381.053955 64.127724 364.205261 381.053955 64.242920 364.256317 381.053955 64.360489 364.301666 341.053925 63.597019 359.395660 341.053925 64.518013 355.607819 351.053955 64.338280 356.643311 351.053955 63.947479 357.680725 351.053955 64.803780 355.606537 341.053925 64.990730 354.304565 341.053925 65.257027 353.638763 331.053925 66.412315 349.615967 341.053925 66.174934 351.556183 341.053925 65.849037 352.267456 346.053925 66.056244 352.526306 366.053925 63.363785 359.590668 366.053925 63.511322 359.228455 371.053925 63.421158 359.570862 371.053925 62.956203 360.859070 366.053925 63.132313 360.337067 371.053925 63.145184 360.198425 371.053925 63.039371 360.525360 376.053925 63.330994 359.913300 376.053925 63.499596 359.670990 381.053955 62.658062 361.884399 371.053925 62.848110 361.884399 381.053955 62.666267 361.679443 371.053925 62.860191 361.540314 381.053955 62.707394 361.383545 371.053925 62.896309 361.197937 381.053955 62.735073 361.260345 376.053925 62.862411 360.999115 381.053955 62.768620 361.139160 376.053925 62.946430 360.713654 381.053955 62.872105 360.858154 378.553925 63.007210 360.555237 381.053955 62.961220 360.674164 378.553925 63.136246 360.313507 381.053955 63.073662 360.483948 378.553925 63.285912 360.084503 381.053955 63.240829 360.255707 368.553955 63.633961 359.073914 366.053925 63.678749 358.874878 366.053925 64.068672 358.196533 361.053925 63.768326 358.476837 361.053925 64.158539 357.678772 356.053925 64.248413 357.161041 356.053925 64.710304 356.257538 351.053955 65.338470 354.562042 341.053925 65.543121 352.960602 366.053925 64.523346 357.559509 368.553955 64.476608 357.885010 368.553955 64.023735 358.455383 366.053925 65.031509 356.964233 363.553955 65.082664 356.563873 361.053925 64.616829 356.908539 361.053925 65.133827 356.163513 356.053925 65.236153 355.362762 366.053925 65.581474 356.406738 368.553955 65.522133 356.891785 368.553955 65.247284 357.122559 368.553955 64.980347 357.364594 368.553955 64.722916 357.618622 371.053925 63.775536 358.987091 371.053925 63.589172 359.272919 373.553925 63.730827 359.215271 376.053925 63.888931 359.231995 373.553925 63.933868 358.973145 371.053925 63.978802 358.714264 381.053955 63.410019 360.069031 378.553925 63.454807 359.869995 379.803925 63.619061 359.785736 378.553925 63.843998 359.490875 378.553925 63.641411 359.671661 376.053925 63.686119 359.443451 373.553925 63.544384 359.471954 381.053955 63.799065 359.749756 381.053955 63.645058 359.861115 381.053955 63.596706 359.899841 377.303955 64.083527 359.183350 376.053925 64.106316 359.037720 373.553925 64.151886 358.746490 371.053925 64.197464 358.455231 371.053925 65.462784 357.376862 373.553925 65.403442 357.861908 371.053925 65.192581 357.563934 373.553925 65.137871 358.005310 371.053925 64.929184 357.764954 373.553925 64.878021 358.165314 371.053925 64.674362 357.980408 371.053925 64.429871 358.210510 373.553925 64.625809 358.342224 374.803925 64.852440 358.365509 374.803925 65.110519 358.226013 374.803925 65.373764 358.104431 381.053955 64.480148 359.427612 381.053955 64.389275 359.457062 379.803925 64.266289 359.349762 377.303955 64.313026 359.024261 377.303955 64.552979 358.884918 376.053925 64.826859 358.565674 377.303955 64.801277 358.765869 376.053925 65.083168 358.446686 377.303955 65.055817 358.667389 376.053925 65.344093 358.346954 377.303955 65.314423 358.589478 381.053955 65.225403 359.317078 379.803925 65.127869 359.088745 379.803925 65.255074 359.074554 378.553925 65.028465 358.888062 378.553925 65.284744 358.832031 381.053955 64.801079 359.352386 379.803925 64.750122 359.166229 381.053955 64.973755 359.329437 379.803925 65.001114 359.108765 381.053955 65.099426 359.320160 379.803925 64.504417 359.246735 381.053955 64.724541 359.366394 379.803925 63.821533 359.620300 379.803925 64.037956 359.474609 381.053955 64.000412 359.628174 381.053955 64.242920 359.512512 381.053955 63.334305 360.148041 363.553955 65.640823 355.921692 361.053925 65.700165 355.436646 356.053925 65.818863 354.466522 351.053955 65.937553 353.496399 301.053925 64.215553 359.978455 341.053925 63.463055 360.641144 361.053925 63.225254 360.148804 361.053925 63.454800 359.301514 301.053925 64.340553 357.889374 301.053925 64.503502 356.205841 321.053955 64.182930 356.988403 301.053925 64.843246 353.700226 321.053955 64.484940 355.292419 301.053925 65.019493 352.642456 321.053955 64.877487 353.536865 301.053925 65.236969 351.465881 301.053925 65.738533 349.096619 301.053925 65.931168 348.273834 321.053955 65.645462 350.744324 321.053955 65.364632 351.700592 301.053925 67.124466 343.795288 306.053925 67.005775 344.765411 311.053925 66.887085 345.735504 316.053955 66.768394 346.705627 321.053955 66.649704 347.675751 321.053955 66.286674 375.032379 341.053925 65.849037 371.501373 341.053925 65.543121 370.808228 301.053925 64.445450 367.024109 321.053955 64.182930 366.780396 301.053925 64.546989 367.936951 321.053955 64.484940 368.476410 301.053925 64.949608 370.720184 321.053955 64.877487 370.231964 301.053925 65.236969 372.302917 321.053955 65.364632 372.068237 301.053925 65.738533 374.672180 301.053925 65.819878 375.024384 321.053955 65.645462 373.024475 331.053925 65.177681 370.766235 331.053925 64.697754 369.196472 341.053925 64.126633 366.884186 341.053925 63.818863 365.623871 341.053925 63.597019 364.373169 381.053955 63.074009 363.285400 381.053955 63.240829 363.513092 381.053955 63.334560 363.621063 381.053955 63.410019 363.699799 378.553925 64.775703 358.966034 378.553925 64.528702 359.065826 378.553925 64.289658 359.187012 378.553925 64.060745 359.328979 361.053925 85.460114 353.933441 341.053925 85.172951 348.549835 341.053925 87.997337 348.434113 326.053925 73.877388 346.070312 321.053955 73.864380 344.866058 321.053955 76.555786 344.299683 341.053925 67.379303 351.146210 311.053925 79.208023 341.256012 301.053925 79.111473 338.675873 301.053925 81.845650 338.174042 301.053925 91.370193 337.381165 301.053925 93.206444 337.169373 321.053955 93.540428 342.706299 361.053925 105.815262 353.447601 381.053955 106.269173 359.317078 381.053955 100.405777 359.317078 341.053925 102.513786 347.700378 341.053925 105.361359 347.578156 361.053925 82.573105 354.031311 341.053925 82.330620 348.745544 371.053925 76.886124 356.814178 361.053925 76.820053 354.311279 361.053925 79.690788 354.156769 351.053955 73.942436 352.091583 341.053925 73.916420 349.683075 341.053925 76.687920 349.305481 356.053925 68.447853 353.980103 351.053955 68.506004 352.912720 351.053955 71.182686 352.449005 346.053925 68.564156 351.845337 346.053925 71.198334 351.304321 341.053925 71.213982 350.159637 356.053925 71.167038 353.593689 361.053925 68.389702 355.047516 361.053925 67.035278 355.231659 371.053925 66.863266 357.274353 381.053955 66.691246 359.317078 361.053925 73.968452 354.500061 371.053925 73.994476 356.908569 361.053925 71.151390 354.738342 371.053925 71.120094 357.027710 371.053925 68.273399 357.182281 381.053955 68.157097 359.317078 351.053955 76.753990 351.808380 341.053925 79.497681 348.996460 381.053955 82.815590 359.317078 381.053955 79.883888 359.317078 381.053955 76.952194 359.317078 381.053955 74.020493 359.317078 381.053955 71.088799 359.317078 341.053925 108.173248 347.539001 381.053955 109.200867 359.317078 361.053925 100.023659 353.590759 361.053925 97.119499 353.682190 381.053955 97.474075 359.317078 361.053925 94.208397 353.780151 381.053955 94.542381 359.317078 381.053955 91.610680 359.317078 301.053925 88.659203 337.517761 321.053955 90.560966 342.932556 301.053925 90.211067 337.471039 321.053955 96.410339 342.412415 301.053925 95.058495 336.914154 321.053955 99.259430 342.138123 341.053925 90.910873 348.394073 341.053925 99.641548 347.864441 341.053925 96.764915 348.047302 341.053925 93.874413 348.243225 316.053955 67.809334 346.039429 311.053925 67.895340 345.018066 311.053925 68.971214 344.373566 306.053925 67.981354 343.996704 301.053925 71.339165 341.002197 301.053925 72.171700 340.645874 311.053925 72.554680 342.848053 311.053925 71.307869 343.291565 301.053925 70.246346 341.545105 311.053925 70.109955 343.798492 301.053925 69.087517 342.238800 301.053925 68.590691 342.580688 301.053925 68.067360 342.975342 321.053955 71.276573 345.580902 321.053955 70.040382 346.015442 321.053955 68.854912 346.508362 321.053955 67.723328 347.060791 301.053925 73.812340 340.049072 311.053925 73.838356 342.457550 301.053925 74.747772 339.756195 311.053925 76.489716 341.796783 301.053925 76.423645 339.293884 301.053925 78.199135 338.870514 321.053955 84.885780 343.166199 321.053955 82.088135 343.459778 301.053925 82.289734 338.102966 321.053955 72.554672 345.200775 326.053925 71.260925 346.725586 331.053925 71.245277 347.870270 331.053925 69.970810 348.232391 331.053925 68.738609 348.643158 336.053925 71.229630 349.014954 341.053925 68.622307 350.777924 336.053925 68.680458 349.710541 331.053925 67.551315 349.103485 331.053925 73.890396 347.274567 331.053925 76.621849 346.802582 321.053955 79.304573 343.836182 301.053925 87.315689 337.551117 321.053955 87.656509 342.992615 301.053925 85.658340 337.669922 301.053925 84.598610 337.782593 321.053955 110.303520 341.819427 341.053925 110.913200 347.651978 341.053925 109.552734 347.570709 351.053955 111.218040 350.568268 361.053925 111.522881 353.484528 366.053925 111.675301 354.942657 371.053925 111.827721 356.400818 373.553925 111.903931 357.129883 376.053925 111.980148 357.858948 377.303955 112.018250 358.223480 378.553925 112.056351 358.588013 379.178925 112.075409 358.770264 379.803925 112.094460 358.952545 380.428925 112.113510 359.134796 381.053955 112.132561 359.317078 381.053955 88.678986 359.317078 381.053955 85.747284 359.317078 301.053925 98.877319 336.411804 301.053925 101.100204 336.148499 301.053925 101.690109 336.083679 301.053925 104.720085 335.822845 301.053925 107.107880 335.760315 301.053925 109.048340 335.888885 301.053925 109.693840 335.986908 321.053955 112.084595 344.445862 301.053925 111.984726 339.484680 301.053925 114.119926 342.862274 301.053925 112.485390 383.504333 301.053925 111.984734 384.284149 321.053955 113.539558 377.117096 376.053925 114.106537 364.351471 376.053925 114.319664 364.106720 373.553925 114.505524 364.310150 371.053925 115.465744 362.884583 371.053925 115.536270 362.552277 361.053925 116.421967 362.719299 351.053955 115.431847 367.426819 341.053925 116.056152 368.562714 341.053925 114.870758 370.475464 361.053925 116.083778 359.776886 361.053925 115.903603 359.341522 341.053925 117.539970 358.225006 380.428925 112.247940 359.152191 371.053925 112.784447 357.247284 341.053925 115.509674 354.297058 341.053925 116.056152 355.206116 351.053955 115.431839 356.342010 341.053925 114.121521 352.169312 341.053925 114.870758 353.293365 351.053955 114.431824 354.848145 341.053925 113.237511 350.889954 351.053955 113.086487 353.009064 361.053925 112.935471 355.128174 361.053925 113.992897 356.402924 366.053925 112.859962 356.187744 379.803925 112.377968 359.019379 379.803925 112.516319 359.058380 380.428925 112.381088 359.174408 380.428925 112.512794 359.201630 381.053955 112.258537 359.320160 381.053955 112.384209 359.329437 379.803925 112.652306 359.101501 378.553925 112.671181 358.836609 379.803925 112.785812 359.148926 378.553925 112.955551 358.973969 379.803925 112.916687 359.200806 379.178925 112.374847 358.864319 378.553925 112.371727 358.709290 377.303955 112.690063 358.571747 376.053925 113.033287 358.520325 376.053925 113.334511 358.735107 378.553925 113.353523 359.203888 379.803925 113.169907 359.318146 378.553925 113.224777 359.123810 379.803925 113.044777 359.257202 381.053955 112.877823 359.427612 381.053955 112.756378 359.394012 381.053955 112.633430 359.366394 381.053955 112.554939 359.352051 381.053955 112.509270 359.344879 366.053925 113.773438 357.180328 371.053925 113.188744 357.613037 373.553925 112.746696 357.777069 376.053925 112.359238 358.089142 361.053925 114.807526 357.477936 366.053925 114.495369 358.045868 376.053925 113.613655 358.954834 381.053955 112.967064 359.456482 378.553925 113.478226 359.287537 381.053955 113.342796 359.620239 379.803925 113.291885 359.383728 381.053955 113.230240 359.563568 381.053955 113.115044 359.512512 377.303955 112.365479 358.399231 376.053925 112.708939 358.306854 373.553925 113.111015 358.066681 371.053925 113.553970 357.957703 371.053925 113.884514 358.289429 376.053925 113.871056 359.181793 371.053925 114.183212 358.613831 376.053925 114.106537 359.417358 378.553925 113.933899 359.658600 378.553925 113.714981 359.465759 381.053955 113.761261 359.899841 381.053955 113.711601 359.860107 381.053955 113.558907 359.749756 378.553925 113.598755 359.374817 381.053955 113.452438 359.682343 381.053955 113.356094 359.627380 381.053955 112.997475 359.467163 366.053925 115.063095 358.848297 361.053925 115.434814 358.441376 351.053955 116.178246 357.627563 341.053925 116.921677 356.813721 361.053925 116.229645 360.205536 341.053925 117.954803 359.509155 361.053925 116.342140 360.629303 341.053925 118.193359 360.715485 381.053955 114.023407 360.147766 381.053955 113.947945 360.069031 378.553925 114.133804 359.865570 371.053925 114.902481 359.576508 371.053925 115.085411 359.899811 376.053925 114.509811 359.916107 376.053925 114.676323 360.178925 381.053955 114.117142 360.255707 381.053955 114.034836 360.160278 376.053925 114.417648 359.787964 381.053955 114.396744 360.674164 381.053955 114.283958 360.483429 371.053925 114.691383 359.255188 381.053955 114.267227 360.458069 381.053955 114.589348 361.139160 381.053955 114.504478 360.901917 371.053925 115.367058 360.553741 381.053955 114.622818 361.260040 361.053925 116.421967 361.049530 381.053955 114.687531 361.632782 361.053925 116.469673 361.467499 381.053955 114.691696 361.679443 366.053925 115.494507 359.620667 371.053925 115.240265 360.225525 376.053925 114.818504 360.449860 381.053955 114.485626 360.857605 341.053925 118.271156 361.884399 376.053925 114.319664 359.662109 371.053925 114.451813 358.934875 341.053925 117.539970 365.543823 361.053925 115.903603 364.427277 341.053925 117.954803 364.259674 361.053925 116.083778 363.991943 341.053925 116.921677 366.955078 361.053925 115.434814 365.327454 361.053925 116.485535 361.884399 371.053925 115.578598 362.218689 371.053925 115.592720 361.884399 366.053925 115.494507 364.148163 361.053925 116.342140 363.139526 371.053925 115.367058 363.215088 381.053955 114.485863 362.910675 376.053925 114.818504 363.318970 381.053955 114.034836 363.608521 381.053955 114.117142 363.513092 376.053925 114.509811 363.852692 381.053955 114.267227 363.310760 376.053925 114.676323 363.589874 381.053955 114.284302 363.284851 381.053955 114.396744 363.094635 381.053955 114.699905 361.884399 381.053955 114.691696 362.089386 381.053955 114.650574 362.385284 381.053955 114.622894 362.508484 381.053955 114.589348 362.629669 371.053925 114.691383 364.513611 366.053925 115.063095 364.920532 366.053925 114.495369 365.722931 361.053925 114.807526 366.290894 361.053925 113.992897 367.365875 351.053955 114.431831 368.920654 351.053955 113.086494 370.759766 341.053925 113.237511 372.878876 341.053925 112.184471 374.361755 361.053925 112.935471 368.640656 366.053925 112.859962 367.581085 366.053925 113.773438 366.588501 371.053925 113.553970 365.811096 371.053925 114.183212 365.154999 373.553925 114.027138 364.871002 376.053925 113.871063 364.587036 376.053925 113.613655 364.813995 378.553925 113.478226 364.481293 381.053955 113.558907 364.019073 381.053955 113.712914 363.907684 379.803925 113.636940 364.161072 378.553925 113.933899 364.110229 378.553925 113.714981 364.303040 373.553925 113.444237 365.422394 376.053925 113.033287 365.248474 376.053925 113.334511 365.033722 378.553925 112.955551 364.794830 378.553925 113.224777 364.645020 379.803925 112.652306 364.667297 379.803925 112.785812 364.619873 379.803925 112.916687 364.568024 381.053955 112.877823 364.341187 381.053955 112.968689 364.311768 379.803925 113.044777 364.511627 381.053955 112.997475 364.301666 379.803925 113.169907 364.450684 381.053955 113.115044 364.256317 381.053955 113.357552 364.140656 379.803925 112.377968 364.749451 379.803925 112.516319 364.710419 379.178925 112.374847 364.904480 378.553925 112.671181 364.932190 378.553925 112.371727 365.059509 380.428925 112.247940 364.616638 377.303955 112.690063 365.197083 381.053955 112.258537 364.448639 381.053955 112.384209 364.439362 380.428925 112.381088 364.594421 381.053955 112.509270 364.423950 380.428925 112.512794 364.567200 381.053955 112.556885 364.416443 381.053955 112.633430 364.402435 381.053955 112.756378 364.374817 376.053925 112.708939 365.461975 373.553925 112.746696 365.991760 379.803925 113.410507 364.314941 371.053925 112.784454 366.521545 381.053955 113.761261 363.868988 381.053955 113.947945 363.699799 378.553925 114.133804 363.903259 381.053955 114.023659 363.620789 376.053925 114.417648 363.980835 301.053925 121.736145 363.721375 341.053925 118.193359 363.053314 301.053925 121.804329 362.982300 301.053925 121.511032 365.153381 361.053925 116.229645 363.563263 371.053925 115.240265 363.543304 371.053925 115.085419 363.869019 371.053925 114.902481 364.192291 301.053925 121.405136 365.652435 301.053925 120.893753 367.526062 321.053955 119.176338 366.660339 301.053925 119.895409 370.210388 321.053955 118.408546 368.582733 301.053925 118.337479 373.533142 321.053955 117.304779 370.834534 301.053925 116.626472 376.694580 321.053955 115.748611 373.585022 301.053925 116.003120 377.777008 301.053925 113.841599 381.355316 321.053955 115.748611 350.183807 321.053955 114.743370 348.540131 321.053955 113.539551 346.651703 341.053925 112.184464 349.407043 301.053925 116.626465 347.074249 301.053925 116.981064 347.703705 321.053955 116.593117 351.635437 301.053925 118.553406 350.662476 321.053955 117.304779 352.934296 301.053925 120.812706 355.991913 321.053955 119.176338 357.108459 301.053925 120.308090 354.581146 321.053955 118.408546 355.186096 301.053925 119.895409 353.558441 301.053925 118.957008 351.483948 301.053925 121.162537 357.148834 301.053925 121.405136 358.116394 301.053925 121.651024 359.411591 301.053925 121.736145 360.047424 301.053925 121.838211 361.519440 "
							            />
						</IndexedFaceSet>
					</Shape>
				</Group>
			</Transform>
		</Transform>
	</Scene>
</X3D>