<?xml version="1.0" encoding="UTF-8"?>
<!DOCTYPE X3D PUBLIC "ISO//Web3D//DTD X3D 3.0//EN" "http://www.web3d.org/specifications/x3d-3.0.dtd">
<X3D version="3.0" profile="Immersive" xmlns:xsd="http://www.w3.org/2001/XMLSchema-instance" xsd:noNamespaceSchemaLocation="http://www.web3d.org/specifications/x3d-3.0.xsd">
	<head>
		<meta name="filename" content="OMLV4_Packing - For Xander - FuselageTank1-1.x3d" />
		<meta name="created" content="2026-04-19 20:21:17" />
		<meta name="generator" content="Blender 4.3.2" />
		<meta name="translator" content="Web3D X3D/VRML2 format v2.5.1" />
	</head>
	<Scene>
		<NavigationInfo headlight="true"
		                visibilityLimit="0.0"
		                type='"EXAMINE", "ANY"'
		                avatarSize="0.25, 1.75, 0.75"
		                />
		<Background DEF="WO_World"
		            groundColor="0.051 0.051 0.051"
		            skyColor="0.051 0.051 0.051"
		            />
		<Transform DEF="OMLV4_Packing_-_For_Xander_-_FuselageTank1-1_TRANSFORM"
		           translation="0.000000 0.000000 0.000000"
		           scale="1.000000 1.000000 1.000000"
		           rotation="-1.000000 0.000000 0.000000 1.570796"
		           >
			<Transform DEF="OMLV4_Packing_-_For_Xander_-_FuselageTank1-1_ifs_TRANSFORM"
			           translation="0.000000 0.000000 0.000000"
			           scale="1.000000 1.000000 1.000000"
			           rotation="0.000000 1.000000 0.000000 0.000000"
			           >
				<Group DEF="group_ME_OMLV4_Packing_-_For_Xander_-_FuselageTank1-1">
					<Shape>
						<Appearance>
						</Appearance>
						<IndexedFaceSet solid="false"
						                coordIndex="0 1 2 -1 3 4 5 -1 6 7 8 -1 9 10 11 -1 12 13 14 -1 15 16 17 -1 18 19 20 -1 21 22 23 -1 24 25 26 -1 27 28 29 -1 30 31 32 -1 33 34 35 -1 36 37 38 -1 39 40 41 -1 42 43 14 -1 44 45 46 -1 47 48 49 -1 49 48 50 -1 51 52 53 -1 53 52 54 -1 51 53 55 -1 55 53 4 -1 55 4 56 -1 56 4 57 -1 57 4 3 -1 57 3 58 -1 59 60 61 -1 62 63 64 -1 64 63 65 -1 64 65 66 -1 66 65 67 -1 66 67 68 -1 68 67 69 -1 68 69 46 -1 46 69 70 -1 46 70 44 -1 71 72 73 -1 73 72 74 -1 74 72 75 -1 74 75 76 -1 76 75 77 -1 76 77 78 -1 79 80 81 -1 81 80 16 -1 81 16 82 -1 82 16 15 -1 82 15 83 -1 84 85 86 -1 86 85 87 -1 88 89 90 -1 85 88 87 -1 87 88 90 -1 87 90 91 -1 91 90 92 -1 91 92 93 -1 94 95 96 -1 97 98 42 -1 99 100 101 -1 102 103 100 -1 104 105 103 -1 106 107 108 -1 108 107 109 -1 110 111 106 -1 106 111 112 -1 106 112 107 -1 113 114 115 -1 115 114 116 -1 115 116 117 -1 117 116 118 -1 117 118 110 -1 110 118 119 -1 110 119 111 -1 120 121 122 -1 122 121 123 -1 124 125 126 -1 126 125 127 -1 128 129 130 -1 130 129 131 -1 132 133 134 -1 134 133 135 -1 134 135 136 -1 136 135 137 -1 136 137 138 -1 138 137 139 -1 138 139 140 -1 140 139 141 -1 140 141 142 -1 142 141 38 -1 142 38 143 -1 143 38 37 -1 143 37 144 -1 145 146 33 -1 33 146 147 -1 33 147 34 -1 148 149 145 -1 145 149 150 -1 145 150 146 -1 151 152 148 -1 148 152 153 -1 148 153 149 -1 27 154 28 -1 28 154 155 -1 28 155 32 -1 32 155 156 -1 32 156 30 -1 24 26 157 -1 157 26 158 -1 157 158 159 -1 160 161 162 -1 162 161 163 -1 162 163 164 -1 17 16 165 -1 165 16 80 -1 165 80 166 -1 12 167 168 -1 168 167 169 -1 96 93 94 -1 94 93 92 -1 94 92 170 -1 170 92 90 -1 170 90 171 -1 171 90 89 -1 171 89 172 -1 172 169 171 -1 171 169 167 -1 171 167 170 -1 170 167 12 -1 170 12 94 -1 94 12 14 -1 94 14 95 -1 95 14 43 -1 173 174 175 -1 175 174 99 -1 175 99 97 -1 97 99 101 -1 97 101 98 -1 42 14 97 -1 97 14 13 -1 97 13 175 -1 175 13 176 -1 175 176 173 -1 9 11 177 -1 8 7 11 -1 11 7 178 -1 11 178 177 -1 179 115 180 -1 180 115 117 -1 180 117 181 -1 181 117 110 -1 181 110 182 -1 182 110 106 -1 182 106 183 -1 183 106 108 -1 183 177 182 -1 182 177 178 -1 182 178 181 -1 181 178 7 -1 181 7 180 -1 180 7 6 -1 180 6 179 -1 25 27 26 -1 26 27 29 -1 26 29 158 -1 158 29 184 -1 158 184 185 -1 30 152 31 -1 31 152 151 -1 31 151 32 -1 32 151 186 -1 32 186 28 -1 28 186 187 -1 28 187 29 -1 29 187 188 -1 29 188 184 -1 8 189 6 -1 6 189 190 -1 6 190 179 -1 179 190 191 -1 179 191 115 -1 115 191 122 -1 115 122 113 -1 113 122 123 -1 35 36 33 -1 33 36 38 -1 33 38 145 -1 145 38 141 -1 145 141 148 -1 148 141 139 -1 148 139 151 -1 151 139 137 -1 151 137 186 -1 186 137 135 -1 186 135 187 -1 187 135 133 -1 187 133 188 -1 47 20 48 -1 48 20 19 -1 48 19 23 -1 23 19 18 -1 23 18 21 -1 192 193 194 -1 194 193 195 -1 194 195 196 -1 196 195 197 -1 196 197 198 -1 198 197 199 -1 198 199 200 -1 200 199 201 -1 200 201 130 -1 130 201 41 -1 130 41 128 -1 128 41 40 -1 21 164 22 -1 22 164 163 -1 22 163 23 -1 23 163 202 -1 160 159 161 -1 161 159 158 -1 161 158 163 -1 163 158 185 -1 163 185 202 -1 65 203 67 -1 67 203 204 -1 67 204 69 -1 69 204 205 -1 69 205 70 -1 73 206 71 -1 71 206 207 -1 71 207 208 -1 208 207 209 -1 208 209 210 -1 5 4 211 -1 211 4 53 -1 211 53 212 -1 213 214 215 -1 215 214 216 -1 215 216 217 -1 217 216 218 -1 217 218 219 -1 217 220 215 -1 215 220 221 -1 215 221 213 -1 213 221 222 -1 213 222 223 -1 223 222 224 -1 223 224 225 -1 225 224 226 -1 225 226 166 -1 166 226 227 -1 166 227 165 -1 165 227 228 -1 165 228 17 -1 79 78 80 -1 80 78 77 -1 80 77 166 -1 166 77 75 -1 166 75 225 -1 225 75 72 -1 225 72 223 -1 223 72 71 -1 223 71 213 -1 213 71 208 -1 213 208 214 -1 214 208 210 -1 214 210 216 -1 219 229 217 -1 217 229 230 -1 217 230 220 -1 220 230 231 -1 220 231 221 -1 221 231 232 -1 221 232 222 -1 222 232 233 -1 222 233 224 -1 224 233 234 -1 224 234 226 -1 226 234 235 -1 226 235 227 -1 227 235 236 -1 227 236 228 -1 229 237 230 -1 230 237 0 -1 230 0 231 -1 231 0 2 -1 231 2 232 -1 232 2 238 -1 232 238 233 -1 233 238 239 -1 233 239 234 -1 234 239 240 -1 234 240 235 -1 235 240 241 -1 235 241 236 -1 236 241 242 -1 236 242 228 -1 228 242 243 -1 228 243 17 -1 17 243 244 -1 17 244 15 -1 15 244 245 -1 15 245 83 -1 83 245 246 -1 60 58 61 -1 61 58 3 -1 61 3 247 -1 247 3 5 -1 247 5 248 -1 248 5 211 -1 248 211 249 -1 212 250 211 -1 211 250 251 -1 211 251 249 -1 249 1 248 -1 248 1 0 -1 248 0 247 -1 247 0 237 -1 247 237 61 -1 61 237 229 -1 61 229 59 -1 59 229 219 -1 59 219 62 -1 62 219 218 -1 62 218 63 -1 63 218 216 -1 63 216 65 -1 65 216 210 -1 65 210 203 -1 203 210 209 -1 203 209 204 -1 204 209 207 -1 204 207 205 -1 100 99 102 -1 102 99 174 -1 102 174 252 -1 252 174 173 -1 252 173 253 -1 253 173 254 -1 253 254 255 -1 255 254 256 -1 255 256 257 -1 257 256 258 -1 257 258 259 -1 103 102 104 -1 104 102 252 -1 104 252 260 -1 260 252 253 -1 260 253 261 -1 261 253 255 -1 261 255 262 -1 262 255 257 -1 262 257 263 -1 263 257 259 -1 263 259 264 -1 105 104 265 -1 265 104 260 -1 265 260 266 -1 266 260 261 -1 266 261 267 -1 267 261 262 -1 267 262 268 -1 268 262 263 -1 268 263 269 -1 269 263 264 -1 269 264 270 -1 131 124 130 -1 130 124 126 -1 130 126 200 -1 200 126 271 -1 200 271 198 -1 198 271 272 -1 198 272 196 -1 196 272 273 -1 196 273 194 -1 194 273 274 -1 194 274 192 -1 132 39 133 -1 133 39 41 -1 133 41 188 -1 188 41 201 -1 188 201 184 -1 184 201 199 -1 184 199 185 -1 185 199 197 -1 185 197 202 -1 202 197 195 -1 202 195 23 -1 23 195 193 -1 23 193 48 -1 48 193 192 -1 172 246 169 -1 169 246 245 -1 169 245 168 -1 168 245 244 -1 168 244 12 -1 12 244 243 -1 12 243 13 -1 13 243 242 -1 13 242 176 -1 176 242 241 -1 176 241 173 -1 173 241 240 -1 173 240 254 -1 254 240 239 -1 254 239 256 -1 256 239 238 -1 256 238 258 -1 258 238 2 -1 258 2 259 -1 259 2 1 -1 259 1 264 -1 264 1 249 -1 264 249 270 -1 270 249 251 -1 270 251 275 -1 275 251 250 -1 275 250 274 -1 274 250 212 -1 274 212 192 -1 192 212 53 -1 192 53 48 -1 48 53 54 -1 48 54 50 -1 127 120 126 -1 126 120 122 -1 126 122 271 -1 271 122 191 -1 271 191 272 -1 272 191 190 -1 272 190 273 -1 273 190 189 -1 273 189 274 -1 274 189 8 -1 274 8 275 -1 275 8 11 -1 275 11 270 -1 270 11 10 -1 270 10 269 -1 269 10 9 -1 269 9 268 -1 268 9 177 -1 268 177 267 -1 267 177 183 -1 267 183 266 -1 266 183 108 -1 266 108 265 -1 265 108 109 -1 265 109 105 -1 276 277 278 -1 279 280 281 -1 282 283 284 -1 284 283 285 -1 286 287 288 -1 289 290 291 -1 292 293 294 -1 295 296 297 -1 298 299 300 -1 301 144 37 -1 36 35 302 -1 302 35 303 -1 301 37 304 -1 304 37 305 -1 304 305 306 -1 306 305 307 -1 306 307 308 -1 308 307 309 -1 309 307 310 -1 309 310 311 -1 311 310 312 -1 312 310 313 -1 312 313 314 -1 314 313 315 -1 314 315 316 -1 316 315 317 -1 317 315 318 -1 317 318 319 -1 320 321 318 -1 318 321 322 -1 318 322 319 -1 323 324 320 -1 320 324 325 -1 320 325 321 -1 326 327 328 -1 328 327 329 -1 328 329 323 -1 323 329 330 -1 323 330 324 -1 326 328 331 -1 331 328 332 -1 331 332 333 -1 334 335 336 -1 336 335 337 -1 336 337 332 -1 332 337 338 -1 332 338 333 -1 336 339 334 -1 334 339 340 -1 334 340 341 -1 341 340 342 -1 341 342 343 -1 344 345 346 -1 346 345 347 -1 346 347 342 -1 342 347 348 -1 342 348 343 -1 279 349 350 -1 351 352 350 -1 353 354 355 -1 355 354 356 -1 355 356 357 -1 357 356 358 -1 359 360 361 -1 361 360 362 -1 361 362 363 -1 363 362 364 -1 363 364 365 -1 366 367 365 -1 368 369 370 -1 370 369 371 -1 370 371 372 -1 372 371 373 -1 372 373 374 -1 374 373 375 -1 374 375 376 -1 376 375 367 -1 377 378 379 -1 300 299 380 -1 380 299 381 -1 380 381 382 -1 381 383 384 -1 382 381 385 -1 385 381 384 -1 385 384 386 -1 387 388 389 -1 389 388 390 -1 389 390 391 -1 391 390 392 -1 393 394 392 -1 392 394 395 -1 392 395 391 -1 396 397 398 -1 398 397 399 -1 399 400 401 -1 297 296 396 -1 396 296 402 -1 396 402 397 -1 403 404 277 -1 277 404 405 -1 403 277 406 -1 406 277 276 -1 406 276 407 -1 408 409 410 -1 410 409 411 -1 410 411 412 -1 412 411 413 -1 412 413 407 -1 414 415 416 -1 416 415 417 -1 416 417 418 -1 293 419 294 -1 294 419 420 -1 294 420 421 -1 422 423 424 -1 424 423 425 -1 424 425 426 -1 426 425 427 -1 426 427 428 -1 428 427 429 -1 430 431 432 -1 303 433 302 -1 302 433 434 -1 302 434 435 -1 435 434 436 -1 436 437 435 -1 435 437 438 -1 435 438 431 -1 431 438 439 -1 431 439 432 -1 422 440 423 -1 423 440 292 -1 423 292 441 -1 441 292 294 -1 441 294 442 -1 442 294 421 -1 442 421 443 -1 291 290 444 -1 444 290 445 -1 444 445 446 -1 446 445 447 -1 446 447 448 -1 432 429 430 -1 430 429 427 -1 430 427 449 -1 449 427 425 -1 449 425 450 -1 450 425 423 -1 450 423 451 -1 451 423 441 -1 451 441 452 -1 452 441 442 -1 452 442 453 -1 453 442 443 -1 453 443 454 -1 37 36 305 -1 305 36 302 -1 305 302 307 -1 307 302 435 -1 307 435 310 -1 310 435 431 -1 310 431 313 -1 313 431 430 -1 313 430 315 -1 315 430 449 -1 315 449 318 -1 318 449 450 -1 318 450 320 -1 320 450 451 -1 320 451 323 -1 323 451 452 -1 323 452 328 -1 328 452 453 -1 328 453 332 -1 332 453 454 -1 332 454 336 -1 288 287 289 -1 289 287 455 -1 289 455 290 -1 290 455 456 -1 290 456 445 -1 445 456 457 -1 445 457 447 -1 458 459 460 -1 460 459 461 -1 460 461 462 -1 462 461 463 -1 462 463 464 -1 464 463 465 -1 466 467 468 -1 468 467 285 -1 468 285 469 -1 469 285 283 -1 469 283 470 -1 470 283 282 -1 470 282 471 -1 365 364 366 -1 366 364 472 -1 366 472 473 -1 281 465 474 -1 474 465 463 -1 474 463 475 -1 475 463 461 -1 475 461 476 -1 476 461 459 -1 476 459 477 -1 477 459 458 -1 477 458 478 -1 360 479 362 -1 362 479 480 -1 362 480 364 -1 364 480 481 -1 364 481 472 -1 482 483 471 -1 471 483 478 -1 471 478 470 -1 470 478 458 -1 470 458 469 -1 469 458 460 -1 469 460 468 -1 468 460 462 -1 468 462 466 -1 466 462 464 -1 421 448 443 -1 443 448 447 -1 443 447 454 -1 454 447 457 -1 454 457 336 -1 336 457 456 -1 336 456 339 -1 339 456 455 -1 339 455 340 -1 340 455 287 -1 340 287 342 -1 342 287 286 -1 342 286 346 -1 281 280 465 -1 465 280 484 -1 465 484 464 -1 464 484 485 -1 464 485 466 -1 466 485 486 -1 466 486 467 -1 467 486 487 -1 467 487 285 -1 285 487 488 -1 285 488 284 -1 349 489 350 -1 350 489 353 -1 350 353 351 -1 351 353 355 -1 401 490 491 -1 492 278 493 -1 493 278 277 -1 493 277 297 -1 297 277 405 -1 297 405 295 -1 494 495 496 -1 496 495 497 -1 490 498 491 -1 491 498 499 -1 491 499 500 -1 501 494 499 -1 499 494 496 -1 499 496 500 -1 500 496 497 -1 500 497 502 -1 399 401 398 -1 398 401 491 -1 398 491 396 -1 396 491 500 -1 396 500 297 -1 297 500 502 -1 297 502 493 -1 493 502 497 -1 493 497 492 -1 492 497 495 -1 492 495 503 -1 503 495 494 -1 503 494 504 -1 504 494 501 -1 504 501 505 -1 506 392 507 -1 507 392 390 -1 507 390 508 -1 508 390 388 -1 509 383 510 -1 510 383 381 -1 510 381 511 -1 511 381 299 -1 511 299 512 -1 512 299 298 -1 512 298 513 -1 387 509 388 -1 388 509 510 -1 388 510 508 -1 508 510 511 -1 508 511 507 -1 507 511 512 -1 507 512 514 -1 514 512 513 -1 514 513 515 -1 516 517 518 -1 518 517 519 -1 518 519 520 -1 520 519 521 -1 506 507 522 -1 522 507 514 -1 522 514 523 -1 523 514 515 -1 523 515 516 -1 516 515 524 -1 516 524 517 -1 525 521 526 -1 526 521 519 -1 526 519 527 -1 527 519 517 -1 527 517 528 -1 528 517 524 -1 300 377 298 -1 298 377 379 -1 298 379 513 -1 513 379 529 -1 513 529 515 -1 515 529 530 -1 515 530 524 -1 524 530 531 -1 524 531 528 -1 528 531 532 -1 528 532 527 -1 527 532 533 -1 527 533 526 -1 526 533 534 -1 526 534 525 -1 525 534 535 -1 367 366 376 -1 376 366 473 -1 376 473 374 -1 374 473 536 -1 374 536 372 -1 372 536 537 -1 372 537 370 -1 479 535 480 -1 480 535 534 -1 480 534 481 -1 481 534 533 -1 481 533 472 -1 472 533 532 -1 472 532 473 -1 473 532 531 -1 473 531 536 -1 536 531 530 -1 536 530 537 -1 537 530 529 -1 537 529 370 -1 370 529 379 -1 370 379 368 -1 368 379 378 -1 400 393 401 -1 401 393 392 -1 401 392 490 -1 490 392 506 -1 490 506 498 -1 498 506 522 -1 498 522 499 -1 499 522 523 -1 499 523 501 -1 501 523 516 -1 501 516 505 -1 505 516 518 -1 505 518 538 -1 538 518 520 -1 538 520 539 -1 539 520 521 -1 539 521 540 -1 540 521 525 -1 540 525 541 -1 541 525 535 -1 541 535 542 -1 542 535 479 -1 542 479 543 -1 543 479 360 -1 543 360 544 -1 544 360 359 -1 544 359 545 -1 417 408 418 -1 418 408 410 -1 418 410 546 -1 546 410 412 -1 546 412 547 -1 407 276 412 -1 412 276 278 -1 412 278 547 -1 547 278 492 -1 547 492 482 -1 482 492 503 -1 482 503 483 -1 483 503 504 -1 483 504 478 -1 478 504 505 -1 478 505 477 -1 477 505 538 -1 477 538 476 -1 476 538 539 -1 476 539 475 -1 475 539 540 -1 475 540 474 -1 474 540 541 -1 474 541 281 -1 281 541 542 -1 281 542 279 -1 279 542 543 -1 279 543 349 -1 349 543 544 -1 349 544 489 -1 489 544 545 -1 489 545 353 -1 353 545 548 -1 353 548 354 -1 420 414 421 -1 421 414 416 -1 421 416 448 -1 448 416 418 -1 448 418 446 -1 446 418 546 -1 446 546 444 -1 444 546 547 -1 444 547 291 -1 291 547 482 -1 291 482 289 -1 289 482 471 -1 289 471 288 -1 288 471 282 -1 288 282 286 -1 286 282 284 -1 286 284 346 -1 346 284 488 -1 346 488 344 -1 344 488 487 -1 344 487 549 -1 549 487 486 -1 549 486 550 -1 550 486 485 -1 550 485 551 -1 551 485 484 -1 551 484 552 -1 552 484 280 -1 552 280 553 -1 553 280 279 -1 553 279 554 -1 554 279 350 -1 554 350 555 -1 555 350 352 -1 556 557 558 -1 559 560 561 -1 561 560 88 -1 561 88 85 -1 562 563 564 -1 564 563 565 -1 564 565 559 -1 559 565 566 -1 559 566 560 -1 562 564 567 -1 567 564 568 -1 567 568 569 -1 569 568 570 -1 569 570 571 -1 571 570 572 -1 572 570 573 -1 572 573 574 -1 574 573 575 -1 575 573 557 -1 575 557 576 -1 576 557 556 -1 576 556 577 -1 577 556 578 -1 578 556 579 -1 578 579 580 -1 581 582 583 -1 583 582 584 -1 583 584 585 -1 585 584 586 -1 585 586 587 -1 587 586 588 -1 587 588 589 -1 589 588 590 -1 589 590 591 -1 591 590 592 -1 591 592 580 -1 580 592 593 -1 580 593 578 -1 583 594 581 -1 581 594 595 -1 581 595 596 -1 596 595 597 -1 596 597 598 -1 597 599 598 -1 598 599 600 -1 598 600 601 -1 601 600 602 -1 601 602 603 -1 603 602 604 -1 603 604 605 -1 605 604 606 -1 605 606 607 -1 607 606 608 -1 607 608 609 -1 609 608 610 -1 609 610 611 -1 611 610 612 -1 610 613 612 -1 612 613 614 -1 612 614 615 -1 615 614 616 -1 615 616 617 -1 617 616 618 -1 619 620 621 -1 621 620 622 -1 621 622 618 -1 618 622 623 -1 618 623 617 -1 621 624 619 -1 619 624 625 -1 619 625 626 -1 625 627 626 -1 626 627 628 -1 626 628 629 -1 629 628 630 -1 629 630 631 -1 631 630 632 -1 631 632 633 -1 633 632 634 -1 633 634 635 -1 635 634 636 -1 635 636 637 -1 637 636 638 -1 637 638 639 -1 639 638 640 -1 639 640 641 -1 641 640 642 -1 641 642 643 -1 642 644 643 -1 643 644 645 -1 643 645 646 -1 646 645 647 -1 647 645 648 -1 647 648 649 -1 648 650 649 -1 649 650 651 -1 649 651 652 -1 652 651 653 -1 652 653 654 -1 654 653 655 -1 656 657 658 -1 653 659 655 -1 655 659 660 -1 655 660 661 -1 661 660 662 -1 661 662 658 -1 658 662 663 -1 658 663 656 -1 656 663 664 -1 663 665 664 -1 664 665 666 -1 664 666 667 -1 667 666 668 -1 667 668 669 -1 669 668 670 -1 669 670 671 -1 672 673 674 -1 674 673 675 -1 674 675 676 -1 676 675 677 -1 676 677 678 -1 678 677 679 -1 678 679 671 -1 672 674 680 -1 680 674 681 -1 680 681 682 -1 682 681 683 -1 682 683 684 -1 684 683 685 -1 684 685 686 -1 686 685 687 -1 687 685 688 -1 687 688 354 -1 689 358 356 -1 683 690 685 -1 685 690 689 -1 685 689 688 -1 688 689 356 -1 688 356 354 -1 674 691 692 -1 692 693 674 -1 674 693 694 -1 674 694 681 -1 681 694 695 -1 681 695 683 -1 683 695 696 -1 683 696 690 -1 671 670 678 -1 678 670 697 -1 678 697 698 -1 698 699 678 -1 678 699 700 -1 678 700 676 -1 676 700 701 -1 676 701 674 -1 674 701 702 -1 674 702 691 -1 558 557 703 -1 703 557 573 -1 703 573 704 -1 704 573 570 -1 704 570 705 -1 705 570 706 -1 706 570 568 -1 706 568 707 -1 707 568 564 -1 707 564 708 -1 708 564 709 -1 709 564 559 -1 709 559 710 -1 85 84 561 -1 561 84 711 -1 561 711 559 -1 559 711 712 -1 559 712 710 -1 713 714 715 -1 713 716 717 -1 718 719 720 -1 721 722 723 -1 724 725 726 -1 727 728 729 -1 729 728 730 -1 731 732 733 -1 734 735 736 -1 76 737 738 -1 563 562 719 -1 567 569 739 -1 740 588 586 -1 584 582 741 -1 611 612 742 -1 545 359 743 -1 744 745 746 -1 747 748 749 -1 750 751 752 -1 753 754 755 -1 756 757 758 -1 759 760 761 -1 761 760 762 -1 761 762 763 -1 763 762 764 -1 763 764 765 -1 765 764 766 -1 755 754 767 -1 767 754 768 -1 767 768 769 -1 753 755 770 -1 770 755 771 -1 770 771 772 -1 773 774 775 -1 775 774 776 -1 775 776 771 -1 771 776 777 -1 771 777 772 -1 778 779 773 -1 773 779 780 -1 773 780 774 -1 781 782 783 -1 783 782 750 -1 784 785 781 -1 781 785 786 -1 781 786 782 -1 787 788 784 -1 784 788 789 -1 784 789 785 -1 790 791 792 -1 792 791 793 -1 792 793 787 -1 787 793 794 -1 787 794 788 -1 795 796 790 -1 790 796 797 -1 790 797 791 -1 798 799 800 -1 800 799 801 -1 802 803 804 -1 804 803 805 -1 804 805 798 -1 802 804 806 -1 806 804 807 -1 806 807 808 -1 809 810 811 -1 811 810 808 -1 300 380 812 -1 812 380 382 -1 812 382 813 -1 813 382 385 -1 813 385 386 -1 300 812 377 -1 377 812 814 -1 377 814 378 -1 378 814 368 -1 368 814 815 -1 368 815 369 -1 369 815 816 -1 369 816 371 -1 371 816 817 -1 371 817 373 -1 361 363 818 -1 818 363 365 -1 818 365 819 -1 819 365 367 -1 819 367 820 -1 820 367 375 -1 687 354 548 -1 821 686 822 -1 822 686 687 -1 822 687 823 -1 823 687 548 -1 677 675 824 -1 824 675 673 -1 824 673 825 -1 825 673 672 -1 825 672 680 -1 826 671 827 -1 827 671 679 -1 827 679 828 -1 664 667 826 -1 826 667 669 -1 826 669 671 -1 829 830 656 -1 831 658 830 -1 830 658 657 -1 830 657 656 -1 832 655 661 -1 655 832 654 -1 654 832 833 -1 654 833 652 -1 834 647 835 -1 835 647 649 -1 835 649 836 -1 836 649 652 -1 836 652 837 -1 837 652 833 -1 838 643 834 -1 834 643 646 -1 834 646 647 -1 839 637 840 -1 840 637 639 -1 840 639 838 -1 838 639 641 -1 838 641 643 -1 841 633 839 -1 839 633 635 -1 839 635 637 -1 842 619 843 -1 843 619 626 -1 843 626 844 -1 844 626 629 -1 844 629 841 -1 841 629 631 -1 841 631 633 -1 617 623 845 -1 845 623 622 -1 845 622 842 -1 842 622 620 -1 842 620 619 -1 742 612 845 -1 845 612 615 -1 845 615 617 -1 596 598 846 -1 846 598 601 -1 846 601 847 -1 847 601 603 -1 847 603 848 -1 848 603 605 -1 848 605 849 -1 849 605 607 -1 596 846 581 -1 581 846 850 -1 581 850 851 -1 578 593 852 -1 852 593 592 -1 852 592 740 -1 740 592 590 -1 740 590 588 -1 576 577 853 -1 853 577 578 -1 853 578 854 -1 854 578 852 -1 576 853 575 -1 575 853 855 -1 575 855 574 -1 574 855 856 -1 574 856 572 -1 857 858 859 -1 859 858 739 -1 859 739 571 -1 571 739 569 -1 88 560 89 -1 89 560 860 -1 82 83 861 -1 861 83 246 -1 861 246 860 -1 860 246 172 -1 860 172 89 -1 862 78 863 -1 863 78 79 -1 863 79 864 -1 864 79 81 -1 864 81 82 -1 737 76 865 -1 866 207 867 -1 867 207 206 -1 867 206 868 -1 868 206 73 -1 868 73 738 -1 738 73 74 -1 738 74 76 -1 45 44 869 -1 869 44 70 -1 869 70 866 -1 866 70 205 -1 866 205 207 -1 870 871 872 -1 873 874 875 -1 876 877 878 -1 879 880 881 -1 882 883 884 -1 884 885 882 -1 882 885 886 -1 882 886 879 -1 879 886 887 -1 879 887 880 -1 888 889 890 -1 890 889 891 -1 890 891 883 -1 883 891 892 -1 883 892 884 -1 893 894 895 -1 895 894 896 -1 895 896 897 -1 897 896 898 -1 898 896 899 -1 898 899 900 -1 900 899 901 -1 900 901 902 -1 902 901 903 -1 903 901 904 -1 903 904 905 -1 906 907 904 -1 904 907 908 -1 904 908 905 -1 373 817 375 -1 375 817 909 -1 375 909 820 -1 820 909 736 -1 820 736 819 -1 819 736 735 -1 819 735 818 -1 910 911 734 -1 912 913 914 -1 914 913 915 -1 914 915 916 -1 732 917 733 -1 733 917 918 -1 733 918 919 -1 920 921 922 -1 922 921 923 -1 922 923 916 -1 725 724 924 -1 924 724 925 -1 924 925 920 -1 920 925 926 -1 920 926 921 -1 927 821 928 -1 928 821 822 -1 928 822 743 -1 743 822 823 -1 743 823 545 -1 545 823 548 -1 684 929 930 -1 930 929 931 -1 930 931 932 -1 929 727 931 -1 931 727 729 -1 931 729 932 -1 932 729 730 -1 932 730 933 -1 933 730 934 -1 933 934 731 -1 731 733 933 -1 933 733 919 -1 933 919 932 -1 932 919 935 -1 932 935 930 -1 930 935 682 -1 930 682 684 -1 934 912 731 -1 731 912 914 -1 731 914 732 -1 732 914 916 -1 732 916 917 -1 917 916 923 -1 917 923 918 -1 918 923 936 -1 918 936 919 -1 919 936 937 -1 919 937 935 -1 679 677 828 -1 828 677 824 -1 828 824 938 -1 938 824 825 -1 938 825 939 -1 939 825 680 -1 656 664 829 -1 829 664 826 -1 829 826 940 -1 940 826 827 -1 940 827 941 -1 941 827 828 -1 941 828 942 -1 942 828 938 -1 942 938 943 -1 943 938 939 -1 726 831 724 -1 724 831 830 -1 724 830 925 -1 925 830 829 -1 925 829 926 -1 926 829 940 -1 926 940 921 -1 921 940 941 -1 921 941 923 -1 923 941 942 -1 923 942 936 -1 936 942 943 -1 936 943 937 -1 937 943 939 -1 937 939 935 -1 935 939 680 -1 935 680 682 -1 758 757 944 -1 944 757 945 -1 944 945 742 -1 832 946 833 -1 833 946 947 -1 833 947 837 -1 837 947 948 -1 837 948 836 -1 836 948 949 -1 836 949 835 -1 835 949 950 -1 835 950 834 -1 834 950 951 -1 834 951 838 -1 838 951 952 -1 838 952 840 -1 840 952 953 -1 840 953 839 -1 839 953 954 -1 839 954 841 -1 841 954 955 -1 841 955 844 -1 844 955 956 -1 844 956 843 -1 843 956 766 -1 843 766 842 -1 842 766 764 -1 842 764 845 -1 845 764 762 -1 845 762 742 -1 742 762 760 -1 742 760 944 -1 944 760 759 -1 944 759 758 -1 957 851 958 -1 958 851 850 -1 958 850 959 -1 959 850 846 -1 959 846 960 -1 960 846 847 -1 960 847 961 -1 961 847 848 -1 961 848 962 -1 962 848 849 -1 963 964 965 -1 965 964 966 -1 965 966 967 -1 967 966 968 -1 864 969 863 -1 863 969 865 -1 863 865 862 -1 862 865 76 -1 862 76 78 -1 964 970 966 -1 966 970 971 -1 966 971 968 -1 968 971 972 -1 973 974 975 -1 963 976 964 -1 964 976 977 -1 964 977 970 -1 970 977 978 -1 970 978 971 -1 722 721 979 -1 979 721 980 -1 979 980 981 -1 981 980 982 -1 981 982 983 -1 983 982 984 -1 983 984 985 -1 723 986 721 -1 721 986 987 -1 721 987 980 -1 980 987 988 -1 980 988 982 -1 982 988 989 -1 982 989 984 -1 972 971 857 -1 857 971 978 -1 857 978 858 -1 858 978 990 -1 858 990 739 -1 991 861 992 -1 992 861 860 -1 992 860 993 -1 993 860 560 -1 993 560 566 -1 994 991 995 -1 995 991 992 -1 995 992 996 -1 996 992 993 -1 996 993 997 -1 997 993 566 -1 997 566 565 -1 975 974 720 -1 720 974 998 -1 720 998 718 -1 976 973 977 -1 977 973 975 -1 977 975 978 -1 978 975 720 -1 978 720 990 -1 990 720 719 -1 990 719 739 -1 739 719 562 -1 739 562 567 -1 586 723 740 -1 740 723 722 -1 740 722 852 -1 852 722 979 -1 852 979 854 -1 854 979 981 -1 854 981 853 -1 853 981 983 -1 853 983 855 -1 855 983 985 -1 855 985 856 -1 999 1000 1001 -1 1001 1000 1002 -1 1001 1002 1003 -1 1004 906 1005 -1 1005 906 904 -1 1005 904 1006 -1 1006 904 901 -1 1006 901 1007 -1 1007 901 899 -1 1007 899 1008 -1 1008 899 896 -1 1008 896 1009 -1 1009 896 894 -1 1009 894 1010 -1 1011 957 1012 -1 1012 957 958 -1 1012 958 1013 -1 1013 958 959 -1 1013 959 1014 -1 1014 959 960 -1 1014 960 1015 -1 1015 960 961 -1 1015 961 756 -1 756 961 962 -1 756 962 757 -1 757 962 849 -1 757 849 945 -1 945 849 607 -1 945 607 742 -1 742 607 609 -1 742 609 611 -1 714 713 1016 -1 1016 713 717 -1 1016 717 1011 -1 1011 717 1017 -1 1011 1017 957 -1 957 1017 741 -1 957 741 851 -1 851 741 582 -1 851 582 581 -1 893 1018 894 -1 894 1018 999 -1 894 999 1010 -1 1010 999 1001 -1 1010 1001 1019 -1 1019 1001 1003 -1 1002 1020 1003 -1 1003 1020 1021 -1 1003 1021 1022 -1 1018 888 999 -1 999 888 890 -1 999 890 1000 -1 1000 890 883 -1 1000 883 1002 -1 1002 883 882 -1 1002 882 1020 -1 1020 882 879 -1 1020 879 1021 -1 1021 879 1023 -1 1021 1023 1022 -1 1022 1023 1024 -1 716 713 1025 -1 1025 713 715 -1 1025 715 1026 -1 758 1004 756 -1 756 1004 1005 -1 756 1005 1015 -1 1015 1005 1006 -1 1015 1006 1014 -1 1014 1006 1007 -1 1014 1007 1013 -1 1013 1007 1008 -1 1013 1008 1012 -1 1012 1008 1009 -1 1012 1009 1011 -1 1011 1009 1010 -1 1011 1010 1016 -1 1016 1010 1019 -1 1016 1019 714 -1 714 1019 1003 -1 714 1003 715 -1 715 1003 1022 -1 715 1022 1026 -1 1026 1022 1024 -1 1027 1028 1029 -1 1029 1028 1030 -1 1029 1030 1031 -1 1031 1030 1032 -1 1031 1032 1033 -1 1033 1032 876 -1 1033 876 873 -1 873 876 878 -1 873 878 874 -1 969 1034 865 -1 865 1034 1035 -1 865 1035 737 -1 737 1035 1036 -1 737 1036 738 -1 738 1036 1037 -1 738 1037 868 -1 868 1037 1038 -1 868 1038 867 -1 867 1038 870 -1 867 870 866 -1 866 870 872 -1 866 872 869 -1 1034 1027 1035 -1 1035 1027 1029 -1 1035 1029 1036 -1 1036 1029 1031 -1 1036 1031 1037 -1 1037 1031 1033 -1 1037 1033 1038 -1 1038 1033 873 -1 1038 873 870 -1 870 873 875 -1 870 875 871 -1 82 861 864 -1 864 861 991 -1 864 991 969 -1 969 991 994 -1 969 994 1034 -1 1034 994 1039 -1 1034 1039 1027 -1 1027 1039 1040 -1 1027 1040 1028 -1 1028 1040 1024 -1 1028 1024 1030 -1 1030 1024 1023 -1 1030 1023 1032 -1 1032 1023 879 -1 1032 879 876 -1 876 879 881 -1 876 881 877 -1 571 572 859 -1 859 572 856 -1 859 856 857 -1 857 856 985 -1 857 985 972 -1 972 985 984 -1 972 984 968 -1 968 984 989 -1 968 989 967 -1 967 989 1041 -1 967 1041 965 -1 965 1041 1042 -1 965 1042 963 -1 563 719 565 -1 565 719 718 -1 565 718 997 -1 997 718 998 -1 997 998 996 -1 996 998 974 -1 996 974 995 -1 995 974 973 -1 995 973 994 -1 994 973 976 -1 994 976 1039 -1 1039 976 963 -1 1039 963 1040 -1 1040 963 1042 -1 1040 1042 1024 -1 1024 1042 1041 -1 1024 1041 1026 -1 1026 1041 989 -1 1026 989 1025 -1 1025 989 988 -1 1025 988 716 -1 716 988 987 -1 716 987 717 -1 717 987 986 -1 717 986 1017 -1 1017 986 723 -1 1017 723 741 -1 741 723 586 -1 741 586 584 -1 801 1043 800 -1 800 1043 1044 -1 800 1044 1045 -1 1045 1044 1046 -1 783 1047 781 -1 781 1047 1048 -1 781 1048 784 -1 784 1048 1049 -1 784 1049 787 -1 787 1049 1050 -1 787 1050 792 -1 792 1050 1051 -1 792 1051 790 -1 790 1051 1052 -1 790 1052 795 -1 1052 1053 795 -1 795 1053 1054 -1 795 1054 1055 -1 1055 1054 1056 -1 748 796 749 -1 749 796 795 -1 749 795 1057 -1 1057 795 1055 -1 1057 1055 1058 -1 1058 1055 1056 -1 1058 1056 1059 -1 1060 1061 1059 -1 1059 1061 1046 -1 1059 1046 1058 -1 1058 1046 1044 -1 1058 1044 1057 -1 1057 1044 1043 -1 1057 1043 749 -1 749 1043 801 -1 749 801 747 -1 808 807 811 -1 811 807 1062 -1 811 1062 1063 -1 1063 1062 1064 -1 1063 1064 1065 -1 1065 1064 1066 -1 1065 1066 1067 -1 1067 1066 1068 -1 1067 1068 1069 -1 734 736 910 -1 910 736 909 -1 910 909 1070 -1 1070 909 817 -1 1070 817 1071 -1 1071 817 816 -1 1071 816 1072 -1 1072 816 815 -1 1072 815 1073 -1 1073 815 814 -1 1073 814 1074 -1 1074 814 812 -1 1074 812 746 -1 746 812 813 -1 746 813 744 -1 359 361 743 -1 743 361 818 -1 743 818 928 -1 928 818 735 -1 928 735 927 -1 927 735 734 -1 927 734 1075 -1 1075 734 911 -1 1075 911 1076 -1 1076 911 910 -1 1076 910 1077 -1 1077 910 1070 -1 1077 1070 1078 -1 1078 1070 1071 -1 1078 1071 1069 -1 1069 1071 1072 -1 1069 1072 1067 -1 1067 1072 1073 -1 1067 1073 1065 -1 1065 1073 1074 -1 1065 1074 1063 -1 1063 1074 746 -1 1063 746 811 -1 811 746 745 -1 811 745 809 -1 798 800 804 -1 804 800 1045 -1 804 1045 807 -1 807 1045 1046 -1 807 1046 1062 -1 1062 1046 1061 -1 1062 1061 1064 -1 1064 1061 1060 -1 1064 1060 1066 -1 1066 1060 1079 -1 1066 1079 1068 -1 750 752 783 -1 783 752 779 -1 783 779 1047 -1 1047 779 778 -1 1047 778 1048 -1 1048 778 1080 -1 1048 1080 1049 -1 1049 1080 1081 -1 1049 1081 1050 -1 1050 1081 1082 -1 1050 1082 1051 -1 1051 1082 1083 -1 1051 1083 1052 -1 1052 1083 1084 -1 1052 1084 1053 -1 1053 1084 1085 -1 1053 1085 1054 -1 1054 1085 1086 -1 1054 1086 1056 -1 1056 1086 1087 -1 1056 1087 1059 -1 1059 1087 1088 -1 1059 1088 1060 -1 1060 1088 1089 -1 1060 1089 1079 -1 1085 726 1086 -1 1086 726 725 -1 1086 725 1087 -1 1087 725 924 -1 1087 924 1088 -1 1088 924 920 -1 1088 920 1089 -1 1089 920 922 -1 1089 922 1079 -1 1079 922 916 -1 1079 916 1068 -1 1068 916 915 -1 1068 915 1069 -1 1069 915 913 -1 1069 913 1078 -1 1078 913 912 -1 1078 912 1077 -1 1077 912 934 -1 1077 934 1076 -1 1076 934 730 -1 1076 730 1075 -1 1075 730 728 -1 1075 728 927 -1 927 728 727 -1 927 727 821 -1 821 727 929 -1 821 929 686 -1 686 929 684 -1 769 765 767 -1 767 765 766 -1 767 766 755 -1 755 766 956 -1 755 956 771 -1 771 956 955 -1 771 955 775 -1 775 955 954 -1 775 954 773 -1 773 954 953 -1 773 953 778 -1 778 953 952 -1 778 952 1080 -1 1080 952 951 -1 1080 951 1081 -1 1081 951 950 -1 1081 950 1082 -1 1082 950 949 -1 1082 949 1083 -1 1083 949 948 -1 1083 948 1084 -1 1084 948 947 -1 1084 947 1085 -1 1085 947 946 -1 1085 946 726 -1 726 946 832 -1 726 832 831 -1 831 832 661 -1 831 661 658 -1 881 880 1090 -1 1090 880 887 -1 68 46 1090 -1 54 52 1090 -1 1090 52 51 -1 1090 51 55 -1 796 748 1091 -1 887 886 1090 -1 1090 886 885 -1 1090 885 884 -1 402 296 1091 -1 1091 296 295 -1 1091 295 1090 -1 748 747 1091 -1 1091 747 801 -1 1091 801 799 -1 799 798 1091 -1 1091 798 805 -1 1091 805 803 -1 55 56 1090 -1 1090 56 57 -1 1090 57 58 -1 874 878 1090 -1 1090 878 877 -1 1090 877 881 -1 50 54 404 -1 404 54 1090 -1 404 1090 405 -1 405 1090 295 -1 872 871 1090 -1 1090 871 875 -1 1090 875 874 -1 58 60 1090 -1 1090 60 59 -1 1090 59 62 -1 46 45 1090 -1 1090 45 869 -1 1090 869 872 -1 884 892 1090 -1 1090 892 891 -1 1090 891 889 -1 751 750 1091 -1 1091 750 782 -1 789 788 1091 -1 1091 788 794 -1 1091 794 793 -1 793 791 1091 -1 1091 791 797 -1 1091 797 796 -1 391 395 1091 -1 782 786 1091 -1 1091 786 785 -1 1091 785 789 -1 803 802 1091 -1 1091 802 806 -1 1091 806 808 -1 395 394 1091 -1 1091 394 393 -1 1091 393 400 -1 400 399 1091 -1 1091 399 397 -1 1091 397 402 -1 62 64 1090 -1 1090 64 66 -1 1090 66 68 -1 808 810 1091 -1 1091 810 809 -1 1091 809 745 -1 889 888 1090 -1 1090 888 1018 -1 1090 1018 893 -1 893 895 1090 -1 1090 895 897 -1 1090 897 898 -1 903 905 1090 -1 1090 905 908 -1 1090 908 907 -1 384 383 1091 -1 1091 383 509 -1 386 384 813 -1 813 384 1091 -1 813 1091 744 -1 744 1091 745 -1 509 387 1091 -1 1091 387 389 -1 1091 389 391 -1 898 900 1090 -1 1090 900 902 -1 1090 902 903 -1 625 624 86 -1 695 694 86 -1 701 86 702 -1 702 86 691 -1 352 351 87 -1 701 700 86 -1 86 700 699 -1 86 699 698 -1 694 693 86 -1 86 693 692 -1 86 692 691 -1 624 704 705 -1 708 709 624 -1 624 709 710 -1 556 558 610 -1 610 558 703 -1 610 703 613 -1 351 355 87 -1 87 355 357 -1 87 357 86 -1 86 357 358 -1 86 358 689 -1 689 690 86 -1 86 690 696 -1 86 696 695 -1 632 630 86 -1 618 616 703 -1 703 616 614 -1 703 614 613 -1 705 706 624 -1 624 706 707 -1 624 707 708 -1 84 86 711 -1 711 86 624 -1 711 624 712 -1 712 624 710 -1 317 319 87 -1 87 319 322 -1 698 697 86 -1 86 697 670 -1 86 670 668 -1 630 628 86 -1 86 628 627 -1 86 627 625 -1 704 624 703 -1 703 624 621 -1 703 621 618 -1 589 591 610 -1 91 93 123 -1 123 93 96 -1 42 98 123 -1 123 98 101 -1 123 101 113 -1 113 101 100 -1 113 100 114 -1 124 131 87 -1 87 131 129 -1 87 129 128 -1 132 134 87 -1 87 134 136 -1 87 136 138 -1 309 311 87 -1 87 311 312 -1 668 666 86 -1 86 666 665 -1 86 665 663 -1 597 610 599 -1 599 610 608 -1 599 608 600 -1 96 95 123 -1 123 95 43 -1 123 43 42 -1 128 40 87 -1 87 40 39 -1 87 39 132 -1 312 314 87 -1 87 314 316 -1 87 316 317 -1 322 321 87 -1 87 321 325 -1 87 325 324 -1 663 662 86 -1 86 662 660 -1 86 660 659 -1 659 653 86 -1 86 653 651 -1 86 651 650 -1 650 648 86 -1 86 648 645 -1 86 645 644 -1 597 595 610 -1 610 595 594 -1 610 594 583 -1 591 580 610 -1 610 580 579 -1 610 579 556 -1 120 127 87 -1 87 127 125 -1 87 125 124 -1 91 123 87 -1 87 123 121 -1 87 121 120 -1 324 330 87 -1 87 330 329 -1 87 329 327 -1 327 326 87 -1 87 326 331 -1 87 331 333 -1 553 554 87 -1 87 554 555 -1 87 555 352 -1 644 642 86 -1 86 642 640 -1 86 640 638 -1 638 636 86 -1 86 636 634 -1 86 634 632 -1 600 608 602 -1 602 608 606 -1 602 606 604 -1 583 585 610 -1 610 585 587 -1 610 587 589 -1 119 118 100 -1 100 118 116 -1 100 116 114 -1 333 338 87 -1 87 338 337 -1 87 337 335 -1 119 100 111 -1 111 100 103 -1 111 103 105 -1 105 109 111 -1 111 109 107 -1 111 107 112 -1 304 306 87 -1 87 306 308 -1 87 308 309 -1 343 348 87 -1 87 348 347 -1 87 347 345 -1 138 140 87 -1 87 140 142 -1 87 142 143 -1 345 344 87 -1 87 344 549 -1 87 549 550 -1 143 144 87 -1 87 144 301 -1 87 301 304 -1 335 334 87 -1 87 334 341 -1 87 341 343 -1 550 551 87 -1 87 551 552 -1 87 552 553 -1 1004 1092 906 -1 906 1092 1090 -1 906 1090 907 -1 1092 1093 1090 -1 1090 1093 1091 -1 751 1091 752 -1 752 1091 1093 -1 752 1093 779 -1 761 763 1092 -1 1092 763 765 -1 1092 765 1093 -1 1093 765 769 -1 1093 769 768 -1 768 754 1093 -1 1093 754 753 -1 1093 753 770 -1 770 772 1093 -1 1093 772 777 -1 1093 777 776 -1 1004 758 1092 -1 1092 758 759 -1 1092 759 761 -1 776 774 1093 -1 1093 774 780 -1 1093 780 779 -1 403 47 404 -1 404 47 49 -1 404 49 50 -1 411 409 27 -1 27 409 408 -1 27 408 417 -1 403 406 47 -1 47 406 407 -1 47 407 413 -1 292 440 27 -1 27 440 422 -1 27 422 424 -1 424 426 27 -1 27 426 428 -1 27 428 429 -1 417 415 27 -1 27 415 414 -1 27 414 420 -1 155 154 439 -1 439 154 27 -1 439 27 432 -1 432 27 429 -1 149 438 437 -1 420 419 27 -1 27 419 293 -1 27 293 292 -1 152 30 439 -1 439 30 156 -1 439 156 155 -1 21 18 413 -1 413 18 20 -1 413 20 47 -1 437 436 149 -1 149 436 434 -1 149 434 433 -1 438 149 439 -1 439 149 153 -1 439 153 152 -1 160 162 413 -1 413 162 164 -1 413 164 21 -1 303 35 34 -1 34 147 303 -1 303 147 146 -1 303 146 433 -1 433 146 150 -1 433 150 149 -1 24 157 413 -1 413 157 159 -1 413 159 160 -1 411 27 413 -1 413 27 25 -1 413 25 24 -1 "
						                >
							<Coordinate DEF="coords_ME_OMLV4_Packing_-_For_Xander_-_FuselageTank1-1"
							            point="182.190292 104.246323 329.668152 186.007553 104.496895 329.521637 185.997406 101.517685 327.819336 170.754715 104.767029 331.397308 170.762909 106.085617 332.392181 178.386246 106.742691 331.835419 201.264297 112.603409 334.830536 201.262589 111.227173 333.636292 193.649002 110.696205 333.563019 197.451736 108.132988 331.393219 193.642990 107.891129 331.359406 193.646210 109.310150 332.426086 208.829041 97.369064 326.908417 208.832687 99.086029 327.395996 216.401718 99.223145 328.232330 205.026169 92.008545 325.339172 201.225235 91.975082 324.927460 201.230515 95.504051 325.724030 173.363754 114.776680 340.432983 170.806274 113.626488 339.552948 170.492325 113.505211 339.473236 176.153625 116.012039 341.464661 178.426941 116.781593 342.063446 178.417847 114.453674 339.156982 191.291855 122.715271 349.212952 193.561157 123.720116 350.776794 193.656921 122.401611 348.240021 194.764252 124.252846 351.661072 201.261139 124.780724 351.703400 201.262421 123.014496 348.286255 200.842697 126.944389 356.907837 201.259460 126.996643 356.962860 201.259995 126.318184 355.195190 208.860428 128.858536 361.386810 204.547440 128.584854 361.709991 204.565231 128.592743 361.884430 211.232620 129.055237 361.884430 217.386795 129.392349 361.884430 216.465118 129.302216 361.396393 223.553940 125.526558 351.179352 223.553940 124.457741 349.211395 216.459641 123.921867 348.566071 223.553940 100.138321 329.319916 223.553940 99.312134 329.132538 163.609985 88.663895 324.737579 163.553940 88.662338 324.743713 163.553940 91.260483 325.584351 167.537476 112.196808 338.585083 170.792633 111.187172 336.937469 166.330643 111.662415 338.249542 163.553940 110.432884 337.533997 163.553940 107.368904 334.688049 163.553940 107.925232 335.180695 170.778473 108.660110 334.555603 163.553940 108.904968 336.075562 163.553940 105.808205 333.374908 163.553940 105.431351 333.073486 163.553940 104.208672 332.138184 163.553940 102.866699 331.184784 163.553940 101.126175 330.056244 163.553940 102.561569 330.978333 170.746323 103.423752 330.460297 163.553940 99.320694 329.005707 170.710999 97.775299 327.267517 163.553940 97.450005 328.037445 170.701767 96.287941 326.606323 163.553940 95.479767 327.142151 166.881958 94.654213 326.382935 163.553940 93.620071 326.406342 166.860947 91.561203 325.298035 167.349533 88.663292 324.324768 182.140686 91.766510 324.241516 185.965775 91.813179 324.180481 184.398010 88.667160 323.331818 186.777557 88.667618 323.332825 189.788086 91.857567 324.215668 190.358826 88.668251 323.410339 193.605469 91.899460 324.354309 193.884995 88.668808 323.581390 197.466522 88.669289 323.849304 197.418030 91.938683 324.595276 201.056198 88.669701 324.203522 204.667038 88.670052 324.636414 208.311356 88.670334 325.140900 223.553940 88.671036 327.751312 223.508270 88.671028 327.742767 223.553940 89.563866 327.864471 223.553940 91.821190 328.092865 223.462738 88.671028 327.734283 216.756638 88.670799 326.513062 220.154205 92.110733 327.548065 223.553940 94.762886 328.387207 220.165222 95.749413 328.008606 223.553940 95.774170 328.513428 216.396561 97.482368 327.815399 223.553940 98.154060 328.897888 223.553940 96.892830 328.678192 216.407089 100.936661 328.718414 223.553940 101.043129 329.544830 216.412567 102.622375 329.274048 223.553940 102.748260 330.027008 223.553940 102.077072 329.827881 216.418167 104.278603 329.900208 223.553940 103.961838 330.419373 216.423798 105.903053 330.600159 223.553940 105.780296 331.092285 216.440094 110.563133 333.179749 223.553940 109.056770 332.605286 216.434875 109.048080 332.235809 223.553940 107.531044 331.848297 216.444855 112.034187 334.215637 223.553940 111.923111 334.331146 223.553940 110.535713 333.440094 223.553940 116.556114 338.423706 223.553940 115.386612 337.235199 216.451035 114.791077 336.599731 223.553940 114.213081 336.124786 216.448883 113.445190 335.351624 223.553940 113.187752 335.259125 223.553940 112.294891 334.590759 223.553940 118.231110 340.279694 223.553940 117.627533 339.588989 216.453690 117.358795 339.301788 223.553940 116.803627 338.686218 223.553940 120.900314 343.665039 223.553940 120.010834 342.472961 216.455994 119.743782 342.220886 223.553940 119.596275 341.940063 223.553940 123.330315 347.302185 223.553940 122.199844 345.535706 216.457962 121.934044 345.321655 223.553940 122.144676 345.452942 223.553940 125.970169 352.048157 216.461060 125.702065 351.916931 223.553940 126.534874 353.205261 216.462402 127.261833 355.338806 223.553940 127.476456 355.289429 216.462997 127.956146 357.070129 223.553940 128.070084 356.723816 216.463791 128.572327 358.801514 223.553940 128.745682 358.524078 216.464325 129.105972 360.557892 223.553940 129.370926 360.504578 223.553940 129.570709 361.290497 223.553940 129.637711 361.884430 208.860092 128.666824 360.537231 204.359894 128.501816 361.184021 204.494308 128.561325 361.500183 208.860703 128.143555 358.760193 203.560181 128.147690 360.027283 204.153183 128.410278 360.833832 208.861069 127.535355 357.007996 201.968948 127.443092 358.081146 202.632050 127.736717 358.850067 195.550323 124.600922 352.261536 197.418549 125.428177 353.770599 199.164520 126.201294 355.305115 188.953033 121.679634 347.730804 193.656174 120.430107 344.927490 186.541290 120.611717 346.326630 184.056198 119.511314 344.998932 186.045670 119.726448 344.989288 181.497238 118.378204 343.746582 186.041275 117.561584 341.847198 178.863617 117.212029 342.568756 197.423920 95.433640 325.447418 193.612457 95.356346 325.256317 212.612427 95.672958 326.957794 208.825607 95.623802 326.490143 212.605591 92.066185 326.354340 216.391617 95.714851 327.467438 216.382950 92.090141 326.934509 215.739349 88.670753 326.335785 201.243759 102.185364 328.055450 208.840363 102.432861 328.577820 208.836472 100.774162 327.952576 205.041275 100.673668 327.633942 201.257248 108.355247 331.482025 201.260147 109.809708 332.520874 208.865677 114.410927 336.306366 208.864914 113.068977 335.041077 208.862610 111.673386 333.871765 208.859558 110.227470 332.791138 208.856033 108.740929 331.794342 201.263550 121.036598 344.980499 193.655243 118.257301 341.766541 208.861740 126.847870 355.255585 208.862961 125.297836 351.792969 208.864151 123.523628 348.402985 193.651093 112.049553 334.770538 201.264771 113.936745 336.106873 208.865829 115.713051 337.641937 178.403564 110.696564 335.231537 178.408401 111.979797 336.478485 186.031586 112.713364 336.173828 186.034164 113.983353 337.505188 193.653152 114.653740 337.391907 193.653961 115.897896 338.795410 201.264786 116.484238 338.854126 201.264374 118.855972 341.823669 208.865677 119.352753 341.987030 208.865082 121.539734 345.121857 186.036636 115.216698 338.897308 170.692337 94.767799 326.000916 170.672958 91.614899 324.927063 171.848755 88.664391 323.911316 180.353088 88.666321 323.416321 176.175949 88.665398 323.609100 178.315247 91.717766 324.391296 174.491882 91.667160 324.622314 174.509186 94.877960 325.680847 178.392410 108.082146 332.907410 178.398224 109.397957 334.039948 182.153397 95.085564 325.254791 178.330292 94.984077 325.429779 178.345062 98.108368 326.675659 174.526016 97.944931 326.939697 174.542252 100.885826 328.428070 170.720078 99.231270 327.983856 170.729004 100.657242 328.754730 178.359344 101.106369 328.159393 182.166046 98.264587 326.481873 185.981598 96.813026 325.731750 185.976227 95.181831 325.162872 189.801071 96.927437 325.713196 189.796585 95.272278 325.161133 193.616302 97.033531 325.787994 197.427322 97.130844 325.955109 201.233658 97.219254 326.204559 170.737747 102.054306 329.579865 178.366318 102.559502 328.988617 182.178360 101.317459 327.954529 185.986923 98.412605 326.364807 189.805588 98.551414 326.330994 193.620193 98.680016 326.386688 197.430817 98.797867 326.530823 201.236954 98.904854 326.753845 178.373154 103.982765 329.876892 189.810074 100.144173 327.013489 193.624115 100.295586 327.051361 197.434357 100.434341 327.173645 201.240326 100.560387 327.371063 205.037827 99.000923 327.045624 205.034500 97.298683 326.525848 205.031357 95.567474 326.075226 208.819931 92.038948 325.818695 211.999161 88.670570 325.709869 178.379791 105.376900 330.825409 182.201538 107.053528 331.630127 186.017105 107.349876 331.479462 186.025482 110.082397 333.699219 186.021500 108.730385 332.556854 208.844315 104.060646 329.272095 201.247238 103.778587 328.806885 197.437927 102.039894 327.882629 197.441513 103.613510 328.657471 193.628036 101.879974 327.781067 193.631927 103.432404 328.575317 189.814514 101.705650 327.759644 189.818924 103.235321 328.568909 208.848312 105.655693 330.037781 201.250687 105.338737 329.627075 197.445038 105.154144 329.499634 193.635742 104.952126 329.435394 189.823242 104.732735 329.442383 216.429398 107.493591 331.377502 208.852249 107.216331 330.877594 201.254044 106.864662 330.518097 197.448471 106.660912 330.410950 193.639465 106.438545 330.362885 189.831421 107.629738 331.387787 208.865891 116.972031 339.036774 201.264847 115.231361 337.450562 193.652237 113.369987 336.048737 186.028870 111.409744 334.905609 189.838379 110.399200 333.603729 170.806244 113.623383 384.219421 170.792618 111.183754 386.834686 178.408401 111.976349 387.293793 216.396545 97.477638 395.954468 216.401718 99.218513 395.537750 208.832657 99.081512 396.374237 201.260147 109.805740 391.250946 201.257248 108.351196 392.289551 208.856018 108.736847 391.977112 208.852219 107.212166 392.893616 208.859543 110.223488 390.980560 208.862610 111.669487 389.900238 201.262589 111.223312 390.135773 201.264282 112.599701 388.941711 201.264771 113.933243 387.665497 193.652237 113.366493 387.723602 194.071854 123.946251 372.623322 193.822769 123.835953 372.805206 193.656906 122.400337 375.530823 163.553940 108.401329 388.157227 163.553940 107.921608 388.591309 170.778442 108.656433 389.216461 174.491852 91.663284 399.147705 170.672928 91.611153 398.842926 170.655807 88.664093 399.757263 223.553940 129.627762 362.074341 208.860428 128.859406 362.383759 204.547150 128.584732 362.063232 223.553940 129.591919 362.364838 216.465118 129.303024 362.374115 223.553940 129.539276 362.639771 216.464325 129.109695 363.212097 223.553940 129.380219 363.245972 223.553940 129.176437 363.913391 216.463745 128.570465 364.966248 223.553940 128.941040 364.652496 223.553940 128.712219 365.333008 216.463028 127.956772 366.701630 223.553940 128.037170 367.134918 216.462341 127.262749 368.429962 223.553940 127.265167 368.963989 223.553940 126.402321 370.838440 216.461075 125.701050 371.854309 223.553940 125.969131 371.723114 216.459610 123.920517 375.204956 223.553940 124.861473 373.835114 223.553940 125.449997 372.738190 216.457962 121.931831 378.449982 223.553940 123.667892 375.910431 223.553940 124.186455 375.031342 223.553940 119.696838 381.700989 223.553940 120.008736 381.298798 216.455994 119.741646 381.550934 223.553940 121.078308 379.857025 223.553940 122.401375 377.927551 223.553940 118.255905 383.460388 216.453690 117.355965 384.470398 223.553940 117.624748 384.183105 223.553940 113.544235 388.222290 223.553940 114.643677 387.246124 216.451035 114.787590 387.172607 223.553940 115.193893 386.721649 223.553940 116.754974 385.134674 216.448883 113.441429 388.420593 216.444839 112.030251 389.556274 223.553940 112.402336 389.101288 216.440079 110.559113 390.591827 223.553940 111.159050 389.942627 223.553940 106.979065 392.171234 223.553940 108.425171 391.488831 216.434860 109.043961 391.535461 223.553940 109.261353 391.054413 223.553940 109.820343 390.746124 216.391602 95.710037 396.302246 220.165222 95.744545 395.760956 223.553940 92.793129 395.585358 223.553940 94.772469 395.380493 220.154190 92.105766 396.221344 223.462738 88.671051 396.034546 223.553940 92.121338 395.648193 223.508270 88.671051 396.026031 223.553940 90.765419 395.776123 223.553940 88.671051 396.017487 207.886978 88.670319 398.689819 208.819916 92.034157 397.950958 203.542526 88.669960 399.274841 205.026169 92.003822 398.430542 201.222214 88.669724 399.546997 201.225235 91.970436 398.842316 199.542236 88.669540 399.724518 197.418030 91.934120 399.174561 195.797913 88.669075 400.055573 180.326797 88.666313 400.351593 183.912903 88.667053 400.432495 182.140671 91.762383 399.528473 187.458130 88.667740 400.428436 185.965744 91.808929 399.589478 190.964661 88.668350 400.335938 189.788071 91.853203 399.554260 192.255676 88.668556 400.278381 193.605453 91.894997 399.415588 173.025238 88.664665 399.949402 176.698120 88.665512 400.189362 178.315231 91.713760 399.378693 169.306335 88.663765 399.635559 166.860916 91.557602 398.471924 168.215988 88.663498 399.531006 163.553940 92.574638 397.737854 163.553940 90.637703 398.389557 163.609818 88.662346 399.031708 163.553940 88.662331 399.025116 163.553940 96.304070 396.267090 166.902069 97.597008 396.117889 163.553940 98.096222 395.410248 170.720047 99.227570 395.786835 163.553940 99.852539 394.465790 170.728958 100.653427 395.016205 163.553940 102.862778 392.586670 163.553940 101.572182 393.434570 163.553940 100.205658 394.262848 170.762878 106.081612 391.379730 163.553940 105.427361 390.698425 170.754700 104.763016 392.374390 163.553940 104.796875 391.188751 163.553940 103.253777 392.316650 170.746307 103.419777 393.311157 163.553940 106.571228 389.764832 166.156143 111.585152 385.566498 163.553940 110.432884 386.234772 163.553940 110.138275 386.524261 168.716293 112.718788 384.840973 171.233765 113.833527 384.057190 180.862320 118.097054 380.316132 178.523132 117.061264 381.344696 178.426910 116.779236 381.708618 176.138000 116.005119 382.310272 178.417831 114.450615 384.615387 173.707916 114.929085 383.214050 187.588974 121.075623 376.845459 185.397278 120.105141 378.066620 186.045670 119.724182 378.782349 183.154266 119.111931 379.223633 186.041260 117.559280 381.924835 191.804733 122.942375 374.215637 189.726028 122.021912 375.561584 193.656174 120.427826 378.844177 197.797592 125.596016 369.671295 201.261169 124.779808 372.067719 198.765961 126.024803 368.825958 201.259949 126.319290 368.573242 200.129333 126.628510 367.567566 201.259506 126.997551 366.808838 201.382965 127.183624 366.311279 201.616196 127.286896 366.063354 208.861130 127.536140 366.763763 208.860657 128.141663 365.007416 202.695435 127.764786 364.837097 204.499115 128.563461 362.259705 204.471298 128.551132 362.341614 208.860092 128.670761 363.232788 204.332703 128.489777 362.647705 204.099548 128.386520 363.030060 203.910461 128.302795 363.296722 203.250763 128.010681 364.152069 195.964523 124.784332 371.180084 201.262405 123.013184 375.484680 201.263550 121.034325 378.791199 201.264359 118.853760 381.948273 193.653152 114.650482 386.380463 201.264832 115.228127 386.321777 193.653961 115.894928 384.976929 201.264786 116.481308 384.918182 193.655243 118.255043 382.005463 208.861679 126.848900 368.513031 208.862976 125.296860 371.978241 208.864120 123.522293 375.368011 208.865082 121.537476 378.649811 208.865677 119.350578 381.784851 208.865891 116.969154 384.735474 208.864914 113.065231 388.731171 208.865662 114.407425 387.465973 208.865829 115.709846 386.130402 197.448471 106.656792 393.360504 197.445038 105.149971 394.271576 201.250671 105.334541 394.144073 201.247223 103.774338 394.964081 205.048401 103.923347 394.756165 205.044785 102.312019 395.480408 208.840347 102.428482 395.192810 208.836456 100.769714 395.817841 208.844299 104.056335 394.498718 208.848297 105.651443 393.733246 205.051987 105.501694 393.961823 201.254028 106.860527 393.253296 197.451721 108.128944 392.378448 197.457199 110.968407 390.196045 197.423904 95.429245 398.322632 193.612427 95.352051 398.513763 205.041260 100.669273 396.136566 201.243744 102.181068 395.715302 197.441498 103.609299 395.113556 193.635727 104.947975 394.335876 193.642975 107.887093 392.412323 208.825592 95.619133 397.279724 205.031326 95.562881 397.694702 201.230484 95.499557 398.045959 193.651062 112.045891 389.001678 193.648987 110.692383 390.209076 216.407074 100.932137 395.051849 216.412552 102.617943 394.496429 216.418152 104.274246 393.870422 216.423782 105.898766 393.170654 216.429367 107.489388 392.393555 216.382935 92.085228 396.834961 174.557892 103.703979 393.628815 178.379776 105.372856 392.946259 186.028870 111.406136 388.866577 178.403549 110.693024 388.540588 186.017090 107.345863 392.292358 186.025482 110.078629 390.072906 182.201508 107.049515 392.141724 182.211639 109.744186 389.926239 178.373138 103.978729 393.894562 182.190247 104.242249 394.103241 178.386215 106.738686 391.936462 186.007538 104.492798 394.249756 178.398224 109.394234 389.732117 189.838364 110.395401 390.168365 189.831390 107.625710 392.383972 189.823227 104.728615 394.328949 174.542236 100.881943 395.342865 174.526001 97.941216 396.830811 170.710983 97.771698 396.502960 163.553940 94.473251 397.037292 166.881912 94.650856 397.387146 170.692291 94.764297 397.769196 174.509171 94.874313 398.089294 178.330276 94.980293 398.340363 178.345032 98.104538 397.094849 182.166031 98.260651 397.288666 185.997375 101.513603 395.951599 189.810059 100.140030 396.757202 189.814499 101.701508 396.011261 193.624084 100.291367 396.719269 193.628021 101.875771 395.989777 197.434341 100.430061 396.596985 178.359329 101.102417 395.611542 182.178345 101.313438 395.816406 185.986908 98.408562 397.405701 201.236923 98.900459 397.016510 197.430786 98.793549 397.239594 193.620163 98.675789 397.383789 189.805557 98.547272 397.439484 182.153366 95.081642 398.515350 185.981567 96.808990 398.038574 189.801056 96.923286 398.057129 193.616287 97.029282 397.982300 197.427307 97.126488 397.815125 201.233643 97.214813 397.565613 205.034485 97.294159 397.244263 189.796570 95.268105 398.608978 185.976212 95.177773 398.607239 193.631897 103.428230 395.195740 197.437912 102.035645 395.888184 201.240311 100.556046 396.399506 205.037811 98.996468 396.724701 208.829025 97.364464 396.861633 212.612411 95.668213 396.811981 212.605576 92.061325 397.415222 213.271393 88.670654 397.850983 186.036621 115.213676 384.875061 186.031570 112.709892 387.598480 219.458755 88.670914 396.773193 223.553940 105.481041 392.794800 223.553940 104.130676 393.291504 223.553940 102.335899 393.865692 223.553940 100.498665 394.361908 223.553940 98.623802 394.779663 223.553940 96.714508 395.118774 223.553940 95.769249 395.256073 223.553940 75.024376 336.013062 223.524078 76.136772 335.172150 223.553940 76.985672 334.550262 223.523529 87.800018 327.937073 223.463654 88.475502 327.761688 223.509598 88.372101 327.788544 223.479462 86.119148 328.647827 223.476883 86.608215 328.412323 223.520325 86.607933 328.419952 223.474472 87.011040 328.229340 223.468246 87.836861 327.915527 223.480606 85.904266 328.755341 223.526367 85.052902 329.212158 223.488220 84.490997 329.523438 223.528839 82.796837 330.567078 223.496796 82.728378 330.606506 223.505005 80.752953 331.907593 223.520126 80.399040 332.148590 223.507294 80.176636 332.298309 223.517761 77.440552 334.217377 223.522476 76.113129 335.189606 223.525757 75.136810 335.925110 223.531952 73.112587 337.521942 223.553940 73.163872 337.481323 223.553940 71.403488 338.968933 223.545975 65.154610 345.789185 223.545151 66.095581 344.484741 223.553940 65.888077 344.758728 223.544159 66.958427 343.415833 223.553940 66.835098 343.562683 223.543900 67.159081 343.181305 223.553940 67.859352 342.397217 223.542191 68.347664 341.876892 223.553940 68.956848 341.254700 223.539871 69.711075 340.516815 223.553940 70.123573 340.127441 223.538055 70.639297 339.651123 223.536606 71.296989 339.061829 223.553940 65.471405 345.331238 223.553940 65.021584 345.988373 223.546661 64.301941 347.145203 223.553940 64.297752 347.152588 223.546768 64.162506 347.387939 223.553940 64.162376 347.388397 223.553940 63.637451 348.368622 223.547165 63.592106 348.458344 223.553940 63.054195 349.595856 223.547531 62.972080 349.782349 223.553940 62.546734 350.836823 223.548538 62.459454 351.078033 223.553940 62.139908 352.075592 223.549835 62.033237 352.460205 223.553940 61.863476 353.150085 223.550385 61.863483 353.149933 223.553940 61.813957 353.374390 223.550873 61.731274 353.779602 223.550995 61.700089 353.944397 223.553940 61.687744 354.011810 223.553940 61.508083 355.172546 223.551743 61.503960 355.204407 223.553940 61.469948 355.480988 223.552292 61.360126 356.598541 223.553940 61.317093 357.195831 223.552795 61.206528 361.439880 223.552689 61.245766 358.727356 223.553940 61.225376 359.531982 223.552490 61.301304 357.455780 223.552338 61.342182 356.831299 223.553940 61.206100 361.771545 223.553940 61.218655 363.850006 223.552719 61.234921 364.658142 223.553940 61.237999 364.774902 223.553940 61.273632 365.771973 223.552383 61.334858 366.835663 223.553940 61.394169 367.563782 223.552124 61.405121 367.679932 223.553940 61.419716 367.827698 223.551819 61.481705 368.385620 223.553940 61.603176 369.258087 223.551010 61.695812 369.800690 223.553940 61.862038 370.611816 223.549957 61.989815 371.141602 223.553940 62.151337 371.731873 223.549454 62.151356 371.732086 223.553940 62.207417 371.920624 223.548752 62.382244 372.466522 223.553940 62.653122 373.211548 223.547760 62.803658 373.587677 223.553940 62.803608 373.587341 223.553940 63.234615 374.568207 223.547684 62.850883 373.701355 223.547195 63.505451 375.134460 223.553940 63.782547 375.680206 223.546692 64.238983 376.512787 223.553940 63.896351 375.895233 223.553940 64.685753 377.256775 223.546036 65.103088 377.901367 223.553940 65.583191 378.592987 223.545151 66.106697 379.297516 223.544830 66.401077 379.673767 223.539764 69.767487 383.305023 223.542191 68.348419 381.892029 223.542633 68.044594 381.570953 223.553940 66.400795 379.673157 223.553940 66.593277 379.912262 223.543915 67.146454 380.572235 223.553940 67.729034 381.228668 223.553940 68.995743 382.552246 223.538666 70.346390 383.848175 223.553940 70.345779 383.846985 223.553940 70.524834 384.011658 223.536316 71.420395 384.814606 223.553940 72.423248 385.673950 223.531494 73.280113 386.382507 223.553940 74.536903 387.379059 223.524857 75.405235 388.047272 223.492554 83.640015 393.735657 223.493805 83.379494 393.574158 223.532150 83.639442 393.729584 223.504105 80.973549 392.008789 223.553070 80.360222 391.589264 223.515808 77.965958 389.927887 223.524368 76.007385 388.499786 223.522903 75.983673 388.482208 223.486359 84.836159 394.442047 223.549026 85.898384 394.998779 223.478439 86.313423 395.215820 223.512970 87.344307 395.671051 223.471863 87.373367 395.689758 223.511414 88.057945 395.908600 223.466751 88.029083 395.909119 223.462921 88.607811 396.026764 223.508881 88.518150 396.005463 223.553940 88.559242 396.003143 223.553940 87.943474 395.869354 223.553940 83.865639 393.864380 223.553940 84.152512 394.036438 223.553940 85.312935 394.693085 223.553940 85.872993 394.985138 223.553940 86.413383 395.251007 223.553940 87.313217 395.651459 223.553940 76.931679 389.178650 223.553940 77.887405 389.868256 223.553940 80.039238 391.370697 223.553940 80.350662 391.582703 223.553940 82.051247 392.716003 223.553940 83.639114 393.726196 223.553940 79.047073 333.081787 223.553940 81.205521 331.610199 223.553940 82.774567 330.584778 223.553940 84.580399 329.482025 223.553940 85.992622 328.723145 223.553940 86.607689 328.425842 223.553940 87.151047 328.183502 223.553940 87.284592 328.128693 223.553940 88.009552 327.880920 223.553940 87.781578 327.948456 182.101807 70.105797 338.733856 178.302017 70.253906 338.571259 178.295578 72.612335 336.549316 185.902802 69.959663 338.920959 185.902573 67.705177 341.119812 216.310028 87.568420 326.753662 216.313568 86.175385 327.448364 208.740372 86.237175 326.307648 201.111343 69.398277 339.899536 208.714554 69.126259 340.482666 208.711899 68.054092 341.614746 201.111313 69.400879 383.871735 193.506607 69.676643 384.403351 193.504776 68.560783 383.285889 212.528839 87.585365 397.636719 208.738998 87.603149 398.213104 208.740387 86.236153 397.460388 204.941879 86.268501 397.955719 201.136337 85.011826 397.488647 201.135834 83.753136 396.524597 204.940659 83.689072 396.132355 201.133972 87.975945 399.335632 201.132965 88.313446 399.461273 197.320496 88.324356 399.835052 189.678970 88.345726 323.485992 185.850494 88.355812 323.424591 216.315536 84.826683 328.243958 216.313583 68.852692 341.080414 208.709244 67.030121 342.776306 208.702972 61.727859 353.288086 208.503067 88.414307 398.543243 163.553940 87.954750 398.740356 163.553940 87.840401 398.679413 170.540100 87.802345 399.381470 163.553940 69.415649 384.515747 163.553940 68.426727 383.742188 166.925491 68.312416 383.623505 163.553940 62.769829 375.931244 163.553940 62.524132 374.884399 169.972168 62.491337 374.884399 178.553940 61.504608 366.632965 178.553940 61.470993 364.983124 185.934586 61.369862 365.211304 185.916718 62.600449 348.940399 193.508804 62.116428 350.960785 178.553940 62.198105 350.205688 178.553940 61.928959 351.693573 193.513626 61.575600 354.025879 178.553940 61.720432 353.401184 193.515045 61.430080 355.585510 178.553940 61.571247 355.453156 193.516327 61.293755 358.730255 178.553940 61.482464 358.079987 193.516556 61.267170 361.892334 185.935242 61.344589 361.892731 178.553940 61.456356 363.264160 178.553940 61.453960 362.249054 178.553940 61.566109 368.216644 185.931961 61.500710 368.500305 178.553940 61.599106 368.807861 185.921783 62.172100 373.298950 178.553940 62.012810 372.597504 185.926117 61.858727 371.726776 178.553940 61.810055 371.196381 178.553940 61.664650 369.736908 185.916718 62.600502 374.828735 178.553940 62.526848 374.884399 178.553940 62.282570 373.941620 170.748566 63.314121 377.395813 163.553940 63.069073 376.927490 170.758133 62.759487 375.870483 170.739212 64.036438 378.813995 163.553940 63.855194 378.760590 163.553940 63.428177 377.871185 170.731827 64.924736 380.119415 163.553940 64.499069 379.804443 163.553940 63.962467 378.954529 170.721298 67.032547 382.423584 163.553940 66.082466 381.682770 170.726059 65.935120 381.316010 163.553940 65.223160 380.746124 163.553940 65.062965 380.552521 170.717117 68.186577 383.468903 163.553940 67.717484 383.165497 163.553940 67.102867 382.640106 163.553940 78.729530 391.501770 163.553940 75.629852 389.116150 166.882278 75.471931 389.175507 163.553940 71.827728 386.318085 163.553940 83.423325 395.333252 163.553940 82.100067 394.238342 166.835831 80.039291 392.832733 163.553940 80.158775 392.647522 163.553940 84.906342 396.555481 170.585999 84.363663 396.813202 163.553940 86.225418 397.591003 163.553940 87.372360 398.397949 163.553940 86.750145 397.973969 170.555054 86.624893 398.606079 170.533630 88.392853 399.658539 163.553940 88.293434 398.898041 178.187561 88.374825 400.171967 182.019165 88.365349 400.304626 185.850494 88.355568 400.344177 189.678970 88.345474 400.282745 201.201996 88.594406 399.532410 197.073532 88.416527 399.885651 193.727554 88.431038 400.131348 216.308456 87.917549 397.147308 216.306931 88.268837 397.252930 216.305832 88.623108 397.327301 220.101730 80.831032 392.314819 220.097244 83.449730 394.099487 216.317703 73.441467 386.938568 216.318390 75.878578 388.946960 216.318405 78.375679 390.902344 208.719910 71.382042 385.485321 208.714539 69.129189 383.288757 208.711884 68.056992 382.156921 208.709244 67.033028 380.995514 208.706696 66.066948 379.799774 208.700836 62.992588 374.653015 208.701385 63.630829 375.992493 208.702652 64.356575 377.299774 208.704422 65.170715 378.568146 208.701462 62.459736 373.289581 208.702972 61.728500 370.483978 208.702271 62.041489 371.896881 208.703522 61.362907 367.627045 208.703278 61.224625 359.019165 208.703033 61.197380 361.891602 208.703278 61.224880 364.759766 208.703522 61.362385 356.148132 208.702682 64.354240 346.471252 208.701401 63.629398 347.777771 208.700851 62.992256 349.115784 208.701462 62.459686 350.478943 208.704422 65.167900 345.203339 208.706696 66.064011 343.971985 216.316071 71.085106 338.913116 216.318390 75.877563 334.822266 216.317703 73.439445 336.831268 216.318420 78.375687 332.865997 216.317993 80.919037 330.957611 208.736389 81.095818 330.035065 208.739548 83.628479 328.084534 216.317047 83.509125 329.111389 216.305832 88.623138 326.441498 208.553925 88.467979 325.219574 193.666245 88.506981 323.610718 197.319611 88.660248 323.838593 201.072006 88.604874 324.219666 193.502335 88.335312 323.655975 170.533630 88.393036 324.110229 178.187576 88.375038 323.596802 182.019165 88.365585 323.464111 163.553940 88.408318 324.825897 170.540100 87.802727 324.387177 163.553940 87.790497 325.117096 163.553940 88.127312 324.943634 170.555054 86.625557 325.162231 163.553940 86.706451 325.825867 163.553940 86.992615 325.625275 170.585999 84.364662 326.954803 163.553940 84.517395 327.531128 163.553940 85.767479 326.527466 170.640106 79.900589 330.760712 163.553940 80.068733 331.194519 163.553940 84.087234 327.885834 166.882278 75.472305 334.593231 166.914108 70.707504 338.233002 163.553940 70.778458 338.225098 163.553940 73.964813 335.885956 163.553940 75.617188 334.662354 163.553940 77.184708 333.472839 163.553940 67.239098 341.010162 163.553940 67.697594 340.620514 166.925491 68.312187 340.146210 163.553940 68.615089 339.877777 163.553940 69.585175 339.123749 163.553940 66.044846 342.124298 170.726059 65.934219 342.453918 163.553940 65.321373 342.907349 170.731827 64.923874 343.650269 163.553940 65.062561 343.216675 163.553940 64.673279 343.720398 170.739212 64.035881 344.955383 163.553940 64.093925 344.588989 170.748581 63.314060 346.373047 163.553940 63.587185 345.541748 163.553940 63.157349 346.588379 170.758133 62.759430 347.898834 163.553940 62.877007 347.453033 172.136810 62.492226 348.884399 163.553940 62.524220 348.884399 163.553940 62.795086 347.743958 193.502335 88.335052 400.112762 197.322662 87.658806 399.548370 201.134995 87.639824 399.181122 197.324692 86.337173 398.737762 193.507751 86.373894 399.001099 197.325867 83.819771 396.848999 193.511566 83.889412 397.094879 193.513336 81.473648 395.038605 201.133148 81.278328 394.501343 204.937210 81.185410 394.141022 208.739548 83.627144 395.683075 193.512497 74.328537 388.719391 201.126221 76.418640 390.339081 193.514145 79.083244 392.945526 201.129959 78.837715 392.433105 193.509995 71.977333 386.582855 201.116837 71.676376 386.075348 201.121872 74.026199 388.224426 208.737915 87.946434 398.358093 208.736832 88.291237 398.475037 216.310028 87.567879 397.014862 216.313568 86.174423 396.319672 212.531021 86.204865 396.911194 208.740204 84.915703 396.606628 204.941498 84.962860 397.078339 201.136337 86.302109 398.385406 216.315536 84.825493 395.523773 208.736389 81.094841 393.732544 212.531754 83.566910 395.187500 216.317993 80.918274 392.809998 216.317032 83.507919 394.656219 208.724792 73.732712 387.613159 208.729050 76.146568 389.688873 208.732880 78.603828 391.728851 212.530060 81.006004 393.285645 193.511551 61.797714 352.482086 208.702286 62.041096 351.873199 193.502869 67.478737 382.140045 193.501083 66.442039 380.959198 193.499863 65.469170 379.735504 193.499557 64.578857 378.460144 193.500244 63.786541 377.125549 193.502350 63.104473 375.735077 193.505600 62.547523 374.295502 193.508804 62.116837 372.809845 193.511551 61.798367 371.290649 193.515045 61.430599 368.190765 193.516327 61.293999 365.050201 193.501114 66.439667 342.812225 193.499893 65.466812 344.035736 193.499557 64.576859 345.310699 193.500259 63.785301 346.644684 193.502350 63.104210 348.033936 193.505600 62.547466 349.473450 193.511566 83.890808 326.672821 197.325882 83.821182 326.918671 193.513336 81.474861 328.729065 197.324966 81.375381 328.963837 193.514145 79.083954 330.822784 197.323349 78.959290 331.050659 197.320496 88.324615 323.933685 201.135834 83.754532 327.243042 201.133148 81.279457 329.266266 201.129959 78.838242 331.335205 201.134964 87.640411 324.587433 204.940735 87.621872 325.036560 204.941879 86.269539 325.812347 197.324692 86.338211 325.030304 201.136337 86.303154 325.382660 204.940659 83.690453 327.635254 208.719910 71.379456 338.285309 201.116852 71.674141 337.695160 208.724808 73.731041 336.156616 201.121887 74.024887 335.545258 208.729065 76.145897 334.080322 201.126221 76.418274 333.430084 208.732895 78.604118 332.039459 193.504776 68.558586 340.485413 193.506607 69.674446 339.367676 193.509995 71.975502 337.187469 193.512497 74.327591 335.050171 208.740204 84.916985 327.161102 201.132965 88.313705 324.307434 208.736832 88.291489 325.293701 216.306931 88.269066 326.515778 197.322662 87.659386 324.220184 201.133972 87.976379 324.432983 208.737915 87.946854 325.410522 216.308441 87.917946 326.621338 208.738998 87.603729 325.555420 170.721298 67.031799 341.346466 170.717117 68.186012 340.301147 174.510895 68.062424 340.477173 170.707718 70.555023 338.320587 174.503830 70.403740 338.433441 178.553940 62.526924 348.884399 178.334549 62.668018 348.408630 178.326935 63.228085 346.906525 178.319931 63.940048 345.491394 178.314819 64.797783 344.167786 178.311172 65.769058 342.934601 178.308594 66.825745 341.776489 185.902390 66.629570 342.269562 185.902802 65.615196 343.467468 185.904205 64.684731 344.727692 185.906937 63.859653 346.061432 185.911331 63.161385 347.467224 182.103912 67.822189 340.887726 193.502869 67.476479 341.631378 163.553940 66.838715 341.365112 178.306595 67.941208 340.673126 170.680679 75.305962 334.545441 174.482452 75.139183 334.532196 178.286774 74.972801 334.555420 178.260986 79.620590 330.553436 185.889267 79.345924 330.563293 185.902008 72.288803 336.802734 185.899643 74.644508 334.718719 189.686188 86.413414 324.603790 185.871689 84.040009 326.448364 185.860092 86.453629 324.541626 182.048096 84.118813 326.464813 182.031662 86.495262 324.573547 178.224640 84.199608 326.558838 178.203125 86.537994 324.692383 193.504700 87.678833 323.946991 189.681702 87.698761 323.779358 185.853790 87.719109 323.718140 182.023193 87.739792 323.755951 178.192398 87.760696 323.885132 193.507751 86.374908 324.766998 189.693466 83.963806 326.515686 189.702789 79.212906 330.659851 189.698746 81.578415 328.571136 166.914108 70.707680 385.536469 170.680679 75.305763 389.223450 170.640106 79.899635 393.007599 178.260986 79.619667 393.214874 178.334549 62.668076 375.360596 178.326935 63.228226 376.862457 178.319931 63.940876 378.278351 178.314819 64.799080 379.602386 178.311172 65.770523 380.835846 178.308594 66.827110 381.994110 178.306580 67.942406 383.097473 178.302002 70.255020 385.198975 174.503830 70.404549 385.336578 178.295563 72.613190 387.220367 170.707718 70.555519 385.449158 174.482452 75.139175 389.236816 178.286774 74.972984 389.213745 185.889267 79.345085 393.205017 182.074890 79.481239 393.239136 178.224640 84.198418 397.209045 178.203125 86.537178 399.075836 182.048096 84.117546 397.303009 182.031662 86.494377 399.194641 185.871689 84.038681 397.319397 185.860092 86.452690 399.226532 189.693466 83.962433 397.252045 189.686188 86.412430 399.164337 193.504700 87.678261 399.821564 189.681702 87.698204 399.989197 185.853790 87.718582 400.050415 182.023193 87.739288 400.012634 178.192398 87.760231 399.883453 204.940735 87.621292 398.731964 201.136230 86.969162 398.806580 197.324142 86.996117 399.166565 193.506592 87.024185 399.434906 189.698746 81.577194 395.196564 185.911331 63.161594 376.301788 185.906921 63.860714 377.708618 185.904205 64.686424 379.042877 185.902786 65.617149 380.303436 185.902390 66.631485 381.501495 185.902557 67.706947 382.651276 185.902802 69.961357 384.849731 185.901993 72.290161 386.967285 185.899643 74.645073 389.050690 189.702759 79.212120 393.108459 163.553940 89.419861 348.884399 163.553940 89.419861 374.884399 178.553940 89.419861 348.884399 178.553940 89.419861 374.884399 "
							            />
						</IndexedFaceSet>
					</Shape>
				</Group>
			</Transform>
		</Transform>
	</Scene>
</X3D>