<?xml version="1.0" encoding="UTF-8"?>
<!DOCTYPE X3D PUBLIC "ISO//Web3D//DTD X3D 3.0//EN" "http://www.web3d.org/specifications/x3d-3.0.dtd">
<X3D version="3.0" profile="Immersive" xmlns:xsd="http://www.w3.org/2001/XMLSchema-instance" xsd:noNamespaceSchemaLocation="http://www.web3d.org/specifications/x3d-3.0.xsd">
	<head>
		<meta name="filename" content="OMLV4_Packing - For Xander - AIM-120_LAU176_Pylon_Assy-3 LAU179_Pylon_LinkBroken-1.x3d" />
		<meta name="created" content="2026-04-19 20:21:16" />
		<meta name="generator" content="Blender 4.3.2" />
		<meta name="translator" content="Web3D X3D/VRML2 format v2.5.1" />
	</head>
	<Scene>
		<NavigationInfo headlight="true"
		                visibilityLimit="0.0"
		                type='"EXAMINE", "ANY"'
		                avatarSize="0.25, 1.75, 0.75"
		                />
		<Background DEF="WO_World"
		            groundColor="0.051 0.051 0.051"
		            skyColor="0.051 0.051 0.051"
		            />
		<Transform DEF="OMLV4_Packing_-_For_Xander_-_AIM-120_LAU176_Pylon_Assy-3_LAU179_TRANSFORM"
		           translation="0.000000 0.000000 0.000000"
		           scale="1.000000 1.000000 1.000000"
		           rotation="-1.000000 0.000000 0.000000 1.570796"
		           >
			<Transform DEF="OMLV4_Packing_-_For_Xander_-_AIM-120_LAU176_Pylon_Assy-3_LAU179_ifs_TRANSFORM"
			           translation="0.000000 0.000000 0.000000"
			           scale="1.000000 1.000000 1.000000"
			           rotation="0.000000 1.000000 0.000000 0.000000"
			           >
				<Group DEF="group_ME_OMLV4_Packing_-_For_Xander_-_AIM-120_LAU176_Pylon_Assy-3_LAU179">
					<Shape>
						<Appearance>
						</Appearance>
						<IndexedFaceSet solid="false"
						                coordIndex="0 1 2 -1 3 4 5 -1 5 4 6 -1 7 8 6 -1 6 8 9 -1 9 10 6 -1 6 10 11 -1 6 11 12 -1 12 11 13 -1 12 13 14 -1 12 15 6 -1 6 15 0 -1 6 0 5 -1 5 0 2 -1 7 16 8 -1 8 16 17 -1 8 17 18 -1 17 19 18 -1 18 19 20 -1 18 20 21 -1 21 20 22 -1 21 22 23 -1 23 22 24 -1 23 24 25 -1 23 26 27 -1 27 26 28 -1 25 29 23 -1 23 29 30 -1 23 30 26 -1 31 32 26 -1 26 32 33 -1 26 33 28 -1 34 35 36 -1 34 36 26 -1 26 36 37 -1 26 37 31 -1 38 39 40 -1 40 39 41 -1 3 42 4 -1 4 42 43 -1 44 45 4 -1 46 43 47 -1 47 43 48 -1 47 48 49 -1 46 50 43 -1 43 50 51 -1 43 51 52 -1 52 53 43 -1 43 53 38 -1 43 38 4 -1 4 38 40 -1 4 40 44 -1 45 54 4 -1 4 54 55 -1 4 55 56 -1 56 57 4 -1 4 57 58 -1 4 58 59 -1 60 42 5 -1 5 42 3 -1 61 62 60 -1 60 5 63 -1 63 5 2 -1 63 64 65 -1 60 63 61 -1 61 63 65 -1 61 65 66 -1 67 68 0 -1 0 68 1 -1 69 67 15 -1 15 67 0 -1 70 69 12 -1 12 69 15 -1 12 71 70 -1 70 71 72 -1 70 73 74 -1 75 12 76 -1 76 12 14 -1 77 78 79 -1 75 80 12 -1 12 80 81 -1 12 81 82 -1 14 83 76 -1 76 83 79 -1 76 79 84 -1 84 79 78 -1 82 85 12 -1 12 85 86 -1 12 86 71 -1 72 87 70 -1 70 87 88 -1 70 88 89 -1 89 90 70 -1 70 90 91 -1 70 91 73 -1 92 93 94 -1 79 95 96 -1 96 97 79 -1 79 97 98 -1 79 98 77 -1 74 99 70 -1 70 99 100 -1 70 100 101 -1 101 102 70 -1 70 102 103 -1 70 103 94 -1 94 103 104 -1 94 104 92 -1 105 106 107 -1 62 68 60 -1 60 68 67 -1 69 70 67 -1 67 70 108 -1 67 108 60 -1 60 108 43 -1 60 43 42 -1 70 94 109 -1 110 111 108 -1 70 109 108 -1 108 109 112 -1 108 112 110 -1 113 114 115 -1 115 114 106 -1 106 114 116 -1 106 116 107 -1 115 117 113 -1 113 117 118 -1 113 118 119 -1 119 118 120 -1 119 120 111 -1 111 120 121 -1 111 121 108 -1 122 123 107 -1 123 124 107 -1 107 124 125 -1 107 125 105 -1 126 107 127 -1 126 128 107 -1 107 128 129 -1 107 129 122 -1 130 127 131 -1 131 127 132 -1 130 133 127 -1 127 133 134 -1 127 134 126 -1 135 136 137 -1 137 136 138 -1 137 138 139 -1 139 138 140 -1 139 140 141 -1 141 140 142 -1 141 142 143 -1 143 142 144 -1 143 144 145 -1 145 144 146 -1 145 146 147 -1 147 146 148 -1 147 148 149 -1 149 148 150 -1 149 150 151 -1 151 150 152 -1 151 152 153 -1 153 152 154 -1 153 154 155 -1 155 154 156 -1 155 156 157 -1 157 156 158 -1 157 158 159 -1 159 158 160 -1 160 158 161 -1 160 161 162 -1 162 161 163 -1 162 163 164 -1 164 163 165 -1 164 165 166 -1 166 165 167 -1 166 167 168 -1 168 167 169 -1 168 169 170 -1 169 171 170 -1 170 171 172 -1 170 172 173 -1 173 172 174 -1 173 174 175 -1 175 174 176 -1 176 174 177 -1 176 177 178 -1 179 180 181 -1 181 180 182 -1 181 182 183 -1 183 182 184 -1 183 184 185 -1 185 184 178 -1 185 178 186 -1 186 178 177 -1 187 188 189 -1 189 188 190 -1 189 190 191 -1 191 190 192 -1 191 192 193 -1 193 192 194 -1 193 194 195 -1 195 194 196 -1 195 196 197 -1 197 196 198 -1 197 198 199 -1 199 198 200 -1 199 200 179 -1 179 200 201 -1 179 201 180 -1 72 71 202 -1 202 71 203 -1 202 203 187 -1 187 203 204 -1 187 204 188 -1 205 206 207 -1 208 114 113 -1 209 72 210 -1 211 212 213 -1 214 215 216 -1 99 74 217 -1 88 87 218 -1 218 87 72 -1 212 214 219 -1 220 221 222 -1 223 211 224 -1 72 225 218 -1 218 225 226 -1 218 226 88 -1 88 226 89 -1 72 227 225 -1 225 227 228 -1 225 228 226 -1 226 228 229 -1 226 229 89 -1 89 229 90 -1 72 230 227 -1 227 230 231 -1 227 231 228 -1 228 231 232 -1 228 232 229 -1 229 232 233 -1 229 233 90 -1 90 233 91 -1 234 235 236 -1 72 237 230 -1 230 237 238 -1 230 238 231 -1 231 238 239 -1 231 239 232 -1 232 239 240 -1 232 240 233 -1 233 240 241 -1 233 241 91 -1 91 241 73 -1 242 235 243 -1 243 235 234 -1 243 234 244 -1 72 245 237 -1 237 245 246 -1 237 246 238 -1 238 246 247 -1 238 247 239 -1 239 247 248 -1 239 248 240 -1 240 248 249 -1 240 249 241 -1 241 249 217 -1 241 217 73 -1 73 217 74 -1 250 242 251 -1 251 242 243 -1 251 243 252 -1 252 243 244 -1 252 244 253 -1 254 250 255 -1 255 250 251 -1 255 251 256 -1 256 251 252 -1 256 252 257 -1 257 252 253 -1 257 253 258 -1 72 209 259 -1 259 209 260 -1 259 260 261 -1 261 260 262 -1 261 262 263 -1 263 262 264 -1 263 264 265 -1 265 264 266 -1 265 266 267 -1 267 266 268 -1 267 268 269 -1 269 268 270 -1 269 270 271 -1 272 210 72 -1 273 254 274 -1 274 254 255 -1 274 255 275 -1 275 255 256 -1 275 256 276 -1 276 256 257 -1 276 257 277 -1 277 257 258 -1 277 258 278 -1 220 222 279 -1 279 222 280 -1 279 280 281 -1 281 280 282 -1 281 282 283 -1 283 282 284 -1 283 284 285 -1 285 284 286 -1 285 286 287 -1 287 286 288 -1 287 288 289 -1 289 288 290 -1 289 290 291 -1 291 290 292 -1 291 292 293 -1 294 273 295 -1 295 273 274 -1 295 274 296 -1 296 274 275 -1 296 275 297 -1 297 275 276 -1 297 276 298 -1 298 276 277 -1 298 277 299 -1 299 277 278 -1 214 216 219 -1 219 216 300 -1 219 300 301 -1 301 300 302 -1 301 302 303 -1 303 302 304 -1 303 304 305 -1 305 304 306 -1 305 306 307 -1 307 306 308 -1 307 308 309 -1 309 308 310 -1 309 310 311 -1 311 310 207 -1 311 207 312 -1 312 207 206 -1 312 206 313 -1 211 213 224 -1 224 213 314 -1 224 314 315 -1 315 314 316 -1 315 316 317 -1 317 316 318 -1 317 318 319 -1 319 318 320 -1 319 320 321 -1 321 320 322 -1 321 322 323 -1 323 322 324 -1 323 324 325 -1 325 324 326 -1 325 326 327 -1 327 326 328 -1 327 328 329 -1 212 219 213 -1 213 219 301 -1 213 301 314 -1 314 301 303 -1 314 303 316 -1 316 303 305 -1 316 305 318 -1 318 305 307 -1 318 307 320 -1 320 307 309 -1 320 309 322 -1 322 309 311 -1 322 311 324 -1 324 311 312 -1 324 312 326 -1 326 312 313 -1 326 313 328 -1 330 293 331 -1 331 293 292 -1 331 292 332 -1 332 292 290 -1 332 290 333 -1 333 290 288 -1 333 288 334 -1 334 288 286 -1 334 286 335 -1 335 286 284 -1 335 284 336 -1 336 284 282 -1 336 282 337 -1 337 282 280 -1 337 280 338 -1 338 280 222 -1 338 222 339 -1 339 222 221 -1 339 221 223 -1 223 224 339 -1 339 224 315 -1 339 315 338 -1 338 315 317 -1 338 317 337 -1 337 317 319 -1 337 319 336 -1 336 319 321 -1 336 321 335 -1 335 321 323 -1 335 323 334 -1 334 323 325 -1 334 325 333 -1 333 325 327 -1 333 327 332 -1 332 327 329 -1 332 329 331 -1 272 340 210 -1 210 340 299 -1 210 299 209 -1 209 299 278 -1 209 278 260 -1 260 278 258 -1 260 258 262 -1 262 258 253 -1 262 253 264 -1 264 253 244 -1 264 244 266 -1 266 244 234 -1 266 234 268 -1 268 234 236 -1 268 236 270 -1 341 294 342 -1 342 294 295 -1 342 295 343 -1 343 295 296 -1 343 296 344 -1 344 296 297 -1 344 297 345 -1 345 297 298 -1 345 298 346 -1 346 298 299 -1 346 299 347 -1 347 299 340 -1 94 93 348 -1 100 99 271 -1 271 99 217 -1 271 217 269 -1 269 217 249 -1 269 249 267 -1 267 249 248 -1 267 248 265 -1 265 248 247 -1 265 247 263 -1 263 247 246 -1 263 246 261 -1 261 246 245 -1 261 245 259 -1 259 245 72 -1 94 348 109 -1 109 348 349 -1 109 349 112 -1 349 350 112 -1 112 350 351 -1 112 351 110 -1 110 351 352 -1 110 352 111 -1 111 352 353 -1 111 353 119 -1 119 353 354 -1 119 354 113 -1 113 354 355 -1 113 355 208 -1 116 114 330 -1 330 114 208 -1 330 208 293 -1 293 208 355 -1 293 355 291 -1 291 355 354 -1 291 354 289 -1 289 354 353 -1 289 353 287 -1 287 353 352 -1 287 352 285 -1 285 352 351 -1 285 351 283 -1 283 351 350 -1 283 350 281 -1 281 350 349 -1 281 349 279 -1 279 349 348 -1 279 348 220 -1 220 348 93 -1 220 93 221 -1 221 93 92 -1 221 92 223 -1 223 92 104 -1 223 104 211 -1 211 104 103 -1 211 103 212 -1 212 103 102 -1 212 102 214 -1 214 102 101 -1 214 101 215 -1 215 101 100 -1 100 271 215 -1 215 271 270 -1 215 270 216 -1 216 270 236 -1 216 236 300 -1 300 236 235 -1 300 235 302 -1 302 235 242 -1 302 242 304 -1 304 242 250 -1 304 250 306 -1 306 250 254 -1 306 254 308 -1 308 254 273 -1 308 273 310 -1 310 273 294 -1 310 294 207 -1 207 294 341 -1 207 341 205 -1 356 11 357 -1 358 18 359 -1 360 71 361 -1 362 363 364 -1 365 366 367 -1 367 366 368 -1 368 366 369 -1 368 369 370 -1 371 372 373 -1 373 372 374 -1 373 374 375 -1 375 374 71 -1 360 361 376 -1 71 377 361 -1 361 377 378 -1 361 378 376 -1 376 378 379 -1 376 379 380 -1 380 379 364 -1 380 364 381 -1 381 364 363 -1 381 371 380 -1 380 371 373 -1 380 373 376 -1 376 373 375 -1 376 375 360 -1 360 375 71 -1 71 382 377 -1 377 382 383 -1 377 383 378 -1 378 383 384 -1 378 384 379 -1 379 384 385 -1 379 385 364 -1 364 385 386 -1 364 386 362 -1 362 386 387 -1 82 81 388 -1 388 81 80 -1 388 80 389 -1 389 80 390 -1 71 86 391 -1 391 86 85 -1 391 85 392 -1 392 85 82 -1 392 82 393 -1 393 82 388 -1 21 23 394 -1 394 23 395 -1 394 395 396 -1 396 395 365 -1 396 365 397 -1 397 365 367 -1 369 398 370 -1 370 398 399 -1 370 399 400 -1 400 399 401 -1 400 401 402 -1 402 401 403 -1 402 403 404 -1 404 403 405 -1 404 405 406 -1 18 21 359 -1 359 21 394 -1 359 394 407 -1 407 394 396 -1 407 396 408 -1 408 396 397 -1 408 397 409 -1 409 397 367 -1 409 367 410 -1 410 367 368 -1 410 368 411 -1 411 368 370 -1 411 370 412 -1 412 370 400 -1 412 400 413 -1 413 400 402 -1 413 402 414 -1 414 402 404 -1 414 404 415 -1 415 404 406 -1 415 406 416 -1 358 359 417 -1 417 359 407 -1 417 407 418 -1 418 407 408 -1 418 408 419 -1 419 408 409 -1 419 409 420 -1 420 409 410 -1 420 410 421 -1 421 410 411 -1 421 411 422 -1 422 411 412 -1 422 412 423 -1 423 412 413 -1 423 413 424 -1 424 413 414 -1 424 414 425 -1 425 414 415 -1 425 415 426 -1 426 415 416 -1 426 416 427 -1 8 18 428 -1 428 18 358 -1 428 358 429 -1 429 358 417 -1 429 417 430 -1 430 417 418 -1 430 418 431 -1 431 418 419 -1 431 419 432 -1 432 419 420 -1 432 420 433 -1 433 420 421 -1 433 421 434 -1 434 421 422 -1 434 422 435 -1 435 422 423 -1 435 423 436 -1 436 423 424 -1 436 424 437 -1 437 424 425 -1 437 425 438 -1 438 425 426 -1 438 426 439 -1 439 426 427 -1 439 427 440 -1 9 8 441 -1 441 8 428 -1 441 428 442 -1 442 428 429 -1 442 429 443 -1 443 429 430 -1 443 430 444 -1 444 430 431 -1 444 431 445 -1 445 431 432 -1 445 432 446 -1 446 432 433 -1 446 433 447 -1 447 433 434 -1 447 434 448 -1 448 434 435 -1 448 435 449 -1 449 435 436 -1 449 436 450 -1 450 436 437 -1 450 437 451 -1 451 437 438 -1 451 438 452 -1 452 438 439 -1 452 439 453 -1 453 439 440 -1 453 440 454 -1 10 9 455 -1 455 9 441 -1 455 441 456 -1 456 441 442 -1 456 442 457 -1 457 442 443 -1 457 443 458 -1 458 443 444 -1 458 444 459 -1 459 444 445 -1 459 445 460 -1 460 445 446 -1 460 446 461 -1 461 446 447 -1 461 447 462 -1 462 447 448 -1 462 448 463 -1 463 448 449 -1 463 449 464 -1 464 449 450 -1 464 450 465 -1 465 450 451 -1 465 451 466 -1 466 451 452 -1 466 452 467 -1 467 452 453 -1 467 453 468 -1 468 453 454 -1 468 454 469 -1 11 10 357 -1 357 10 455 -1 357 455 470 -1 470 455 456 -1 470 456 471 -1 471 456 457 -1 471 457 472 -1 472 457 458 -1 472 458 473 -1 473 458 459 -1 473 459 474 -1 474 459 460 -1 474 460 475 -1 475 460 461 -1 475 461 476 -1 476 461 462 -1 476 462 477 -1 477 462 463 -1 477 463 478 -1 478 463 464 -1 478 464 479 -1 479 464 465 -1 479 465 480 -1 480 465 466 -1 480 466 481 -1 481 466 467 -1 481 467 482 -1 482 467 468 -1 482 468 483 -1 483 468 469 -1 356 357 484 -1 484 357 470 -1 484 470 485 -1 485 470 471 -1 485 471 486 -1 486 471 472 -1 486 472 487 -1 487 472 473 -1 487 473 488 -1 488 473 474 -1 488 474 489 -1 489 474 475 -1 489 475 490 -1 490 475 476 -1 490 476 491 -1 491 476 477 -1 491 477 492 -1 492 477 478 -1 492 478 493 -1 493 478 479 -1 493 479 494 -1 494 479 480 -1 494 480 495 -1 495 480 481 -1 495 481 496 -1 496 481 482 -1 496 482 497 -1 497 482 483 -1 497 483 71 -1 469 71 483 -1 405 387 406 -1 406 387 386 -1 406 386 416 -1 416 386 385 -1 416 385 427 -1 427 385 384 -1 427 384 440 -1 440 384 383 -1 440 383 454 -1 454 383 382 -1 454 382 469 -1 469 382 71 -1 13 11 498 -1 498 11 356 -1 498 356 499 -1 499 356 484 -1 499 484 500 -1 500 484 485 -1 500 485 501 -1 501 485 486 -1 501 486 502 -1 502 486 487 -1 502 487 503 -1 503 487 488 -1 503 488 504 -1 504 488 489 -1 504 489 505 -1 505 489 490 -1 505 490 506 -1 506 490 491 -1 506 491 390 -1 390 491 492 -1 390 492 389 -1 389 492 493 -1 389 493 388 -1 388 493 494 -1 388 494 393 -1 393 494 495 -1 393 495 392 -1 392 495 496 -1 392 496 391 -1 391 496 497 -1 391 497 71 -1 14 13 83 -1 83 13 498 -1 83 498 79 -1 79 498 499 -1 79 499 95 -1 95 499 500 -1 95 500 96 -1 96 500 501 -1 96 501 97 -1 97 501 502 -1 97 502 98 -1 98 502 503 -1 98 503 77 -1 77 503 504 -1 77 504 78 -1 78 504 505 -1 78 505 84 -1 84 505 506 -1 84 506 76 -1 76 506 390 -1 76 390 75 -1 75 390 80 -1 507 508 509 -1 510 202 187 -1 511 512 513 -1 514 161 158 -1 515 144 142 -1 516 517 518 -1 138 136 519 -1 519 136 520 -1 138 519 140 -1 140 519 521 -1 140 521 142 -1 142 521 522 -1 142 522 515 -1 508 523 524 -1 148 525 526 -1 148 526 150 -1 150 526 527 -1 150 527 152 -1 508 524 509 -1 509 524 528 -1 509 528 529 -1 529 528 530 -1 529 530 531 -1 531 530 532 -1 531 532 533 -1 533 532 534 -1 533 534 535 -1 535 534 536 -1 535 536 537 -1 152 527 154 -1 154 527 538 -1 154 538 156 -1 156 538 539 -1 156 539 158 -1 158 539 540 -1 158 540 514 -1 541 542 543 -1 543 542 544 -1 545 167 546 -1 546 167 165 -1 546 165 514 -1 514 165 163 -1 514 163 161 -1 512 511 547 -1 547 511 548 -1 547 548 549 -1 550 174 551 -1 551 174 172 -1 551 172 552 -1 552 172 171 -1 552 171 545 -1 545 171 169 -1 545 169 167 -1 183 185 553 -1 553 185 186 -1 553 186 550 -1 550 186 177 -1 550 177 174 -1 554 555 556 -1 556 555 557 -1 556 557 558 -1 72 202 272 -1 272 202 510 -1 272 510 340 -1 340 510 347 -1 559 108 560 -1 560 108 121 -1 561 562 563 -1 562 561 564 -1 564 561 565 -1 564 565 566 -1 566 565 567 -1 567 565 568 -1 567 568 569 -1 569 568 570 -1 569 570 571 -1 571 570 572 -1 572 570 573 -1 572 573 574 -1 574 573 575 -1 574 575 576 -1 576 575 577 -1 576 577 578 -1 579 580 581 -1 582 577 583 -1 583 577 575 -1 583 575 584 -1 584 575 573 -1 584 573 585 -1 585 573 570 -1 585 570 586 -1 586 570 568 -1 586 568 587 -1 587 568 565 -1 587 565 588 -1 588 565 561 -1 588 561 589 -1 589 561 563 -1 589 563 590 -1 591 592 593 -1 594 582 595 -1 595 582 583 -1 595 583 596 -1 596 583 584 -1 596 584 597 -1 597 584 585 -1 597 585 598 -1 598 585 586 -1 598 586 599 -1 599 586 587 -1 599 587 600 -1 600 587 588 -1 600 588 601 -1 601 588 589 -1 601 589 602 -1 602 589 590 -1 602 590 603 -1 604 593 605 -1 605 593 592 -1 605 592 606 -1 607 594 608 -1 608 594 595 -1 608 595 609 -1 609 595 596 -1 609 596 610 -1 610 596 597 -1 610 597 611 -1 611 597 598 -1 611 598 612 -1 612 598 599 -1 612 599 613 -1 613 599 600 -1 613 600 614 -1 614 600 601 -1 614 601 615 -1 615 601 602 -1 615 602 560 -1 560 602 603 -1 560 603 559 -1 146 144 616 -1 616 144 515 -1 616 515 617 -1 617 515 522 -1 617 522 618 -1 618 522 521 -1 618 521 619 -1 619 521 519 -1 619 519 620 -1 620 519 520 -1 620 520 621 -1 591 120 592 -1 592 120 118 -1 592 118 606 -1 606 118 117 -1 606 117 115 -1 148 146 525 -1 525 146 616 -1 525 616 622 -1 622 616 617 -1 622 617 623 -1 623 617 618 -1 623 618 624 -1 624 618 619 -1 624 619 625 -1 625 619 620 -1 625 620 579 -1 579 620 621 -1 579 621 580 -1 626 627 628 -1 628 627 629 -1 628 629 630 -1 630 629 631 -1 630 631 632 -1 632 631 633 -1 632 633 634 -1 635 626 636 -1 636 626 628 -1 636 628 637 -1 637 628 630 -1 637 630 638 -1 638 630 632 -1 638 632 639 -1 639 632 634 -1 639 634 640 -1 641 635 642 -1 642 635 636 -1 642 636 643 -1 643 636 637 -1 643 637 644 -1 644 637 638 -1 644 638 645 -1 645 638 639 -1 645 639 646 -1 646 639 640 -1 646 640 647 -1 647 648 646 -1 646 648 649 -1 646 649 645 -1 645 649 650 -1 645 650 644 -1 644 650 651 -1 644 651 643 -1 643 651 652 -1 643 652 642 -1 642 652 653 -1 642 653 641 -1 641 653 654 -1 648 655 649 -1 649 655 656 -1 649 656 650 -1 650 656 657 -1 650 657 651 -1 651 657 658 -1 651 658 652 -1 652 658 659 -1 652 659 653 -1 653 659 660 -1 653 660 654 -1 654 660 661 -1 633 604 634 -1 634 604 605 -1 634 605 640 -1 640 605 606 -1 640 606 647 -1 647 606 115 -1 647 115 648 -1 648 115 106 -1 648 106 655 -1 655 106 662 -1 655 662 656 -1 656 662 663 -1 656 663 657 -1 657 663 664 -1 657 664 658 -1 658 664 665 -1 658 665 659 -1 659 665 666 -1 659 666 660 -1 660 666 667 -1 660 667 661 -1 661 667 544 -1 668 536 669 -1 669 536 534 -1 669 534 670 -1 670 534 532 -1 670 532 671 -1 671 532 530 -1 671 530 672 -1 672 530 528 -1 672 528 673 -1 673 528 524 -1 673 524 674 -1 674 524 523 -1 674 523 675 -1 106 105 662 -1 662 105 676 -1 662 676 663 -1 663 676 677 -1 663 677 664 -1 664 677 678 -1 664 678 665 -1 665 678 679 -1 665 679 666 -1 666 679 680 -1 666 680 667 -1 667 680 681 -1 667 681 544 -1 544 681 682 -1 544 682 543 -1 541 668 542 -1 542 668 669 -1 542 669 544 -1 544 669 670 -1 544 670 661 -1 661 670 671 -1 661 671 654 -1 654 671 672 -1 654 672 641 -1 641 672 673 -1 641 673 635 -1 635 673 674 -1 635 674 626 -1 626 674 675 -1 626 675 627 -1 105 125 676 -1 676 125 683 -1 676 683 677 -1 677 683 684 -1 677 684 678 -1 678 684 685 -1 678 685 679 -1 679 685 686 -1 679 686 680 -1 680 686 687 -1 680 687 681 -1 681 687 688 -1 681 688 682 -1 682 688 689 -1 682 689 543 -1 543 689 690 -1 543 690 541 -1 537 536 691 -1 691 536 668 -1 691 668 513 -1 513 668 541 -1 513 541 511 -1 511 541 690 -1 511 690 548 -1 548 690 692 -1 548 692 549 -1 549 692 693 -1 549 693 694 -1 694 693 695 -1 694 695 696 -1 124 123 697 -1 697 123 698 -1 697 698 699 -1 699 698 700 -1 699 700 701 -1 701 700 702 -1 701 702 703 -1 703 702 704 -1 703 704 705 -1 705 704 706 -1 705 706 707 -1 707 706 708 -1 707 708 709 -1 709 708 710 -1 709 710 711 -1 711 710 712 -1 181 183 713 -1 713 183 553 -1 713 553 714 -1 714 553 550 -1 714 550 715 -1 715 550 551 -1 715 551 716 -1 716 551 552 -1 716 552 717 -1 717 552 545 -1 717 545 718 -1 718 545 546 -1 718 546 719 -1 719 546 514 -1 719 514 720 -1 720 514 540 -1 720 540 721 -1 721 540 539 -1 721 539 722 -1 722 539 538 -1 722 538 723 -1 723 538 527 -1 723 527 724 -1 724 527 526 -1 724 526 725 -1 725 526 525 -1 725 525 726 -1 726 525 622 -1 726 622 727 -1 727 622 623 -1 727 623 728 -1 728 623 624 -1 728 624 729 -1 729 624 625 -1 729 625 730 -1 730 625 579 -1 730 579 516 -1 516 579 581 -1 516 581 517 -1 123 122 698 -1 698 122 731 -1 698 731 700 -1 700 731 732 -1 700 732 702 -1 702 732 733 -1 702 733 704 -1 704 733 734 -1 704 734 706 -1 706 734 735 -1 706 735 708 -1 708 735 736 -1 708 736 710 -1 710 736 737 -1 710 737 712 -1 712 737 738 -1 125 124 683 -1 683 124 697 -1 683 697 684 -1 684 697 699 -1 684 699 685 -1 685 699 701 -1 685 701 686 -1 686 701 703 -1 686 703 687 -1 687 703 705 -1 687 705 688 -1 688 705 707 -1 688 707 689 -1 689 707 709 -1 689 709 690 -1 690 709 711 -1 690 711 692 -1 692 711 712 -1 692 712 693 -1 693 712 738 -1 693 738 695 -1 507 509 739 -1 739 509 529 -1 739 529 740 -1 740 529 531 -1 740 531 741 -1 741 531 533 -1 741 533 742 -1 742 533 535 -1 742 535 743 -1 743 535 537 -1 743 537 744 -1 744 537 691 -1 744 691 745 -1 745 691 513 -1 745 513 746 -1 746 513 512 -1 746 512 747 -1 747 512 547 -1 747 547 748 -1 748 547 549 -1 748 549 749 -1 749 549 694 -1 749 694 557 -1 557 694 696 -1 557 696 558 -1 121 120 560 -1 560 120 591 -1 560 591 615 -1 615 591 593 -1 615 593 614 -1 614 593 604 -1 614 604 613 -1 613 604 633 -1 613 633 612 -1 612 633 631 -1 612 631 611 -1 611 631 629 -1 611 629 610 -1 610 629 627 -1 610 627 609 -1 609 627 675 -1 609 675 608 -1 608 675 523 -1 608 523 607 -1 607 523 508 -1 607 508 750 -1 750 508 507 -1 750 507 751 -1 751 507 739 -1 751 739 752 -1 752 739 740 -1 752 740 753 -1 753 740 741 -1 753 741 754 -1 754 741 742 -1 754 742 755 -1 755 742 743 -1 755 743 756 -1 756 743 744 -1 756 744 757 -1 757 744 745 -1 757 745 758 -1 758 745 746 -1 758 746 759 -1 759 746 747 -1 759 747 760 -1 760 747 748 -1 760 748 761 -1 761 748 749 -1 761 749 762 -1 762 749 557 -1 762 557 763 -1 763 557 555 -1 763 555 764 -1 764 555 554 -1 764 554 765 -1 193 195 766 -1 766 195 197 -1 766 197 767 -1 767 197 199 -1 767 199 768 -1 768 199 179 -1 768 179 769 -1 769 179 181 -1 769 181 770 -1 770 181 713 -1 770 713 771 -1 771 713 714 -1 771 714 772 -1 772 714 715 -1 772 715 773 -1 773 715 716 -1 773 716 774 -1 774 716 717 -1 774 717 775 -1 775 717 718 -1 775 718 776 -1 776 718 719 -1 776 719 777 -1 777 719 720 -1 777 720 778 -1 778 720 721 -1 778 721 779 -1 779 721 722 -1 779 722 780 -1 780 722 723 -1 780 723 781 -1 781 723 724 -1 781 724 782 -1 782 724 725 -1 782 725 783 -1 783 725 726 -1 783 726 784 -1 784 726 727 -1 784 727 785 -1 785 727 728 -1 785 728 786 -1 786 728 729 -1 786 729 787 -1 787 729 730 -1 787 730 788 -1 788 730 516 -1 788 516 789 -1 789 516 518 -1 789 518 790 -1 122 129 731 -1 731 129 791 -1 731 791 732 -1 732 791 792 -1 732 792 733 -1 733 792 793 -1 733 793 734 -1 734 793 794 -1 734 794 735 -1 735 794 795 -1 735 795 736 -1 736 795 796 -1 736 796 737 -1 737 796 797 -1 737 797 738 -1 738 797 798 -1 738 798 695 -1 695 798 799 -1 695 799 696 -1 696 799 800 -1 696 800 558 -1 558 800 801 -1 558 801 556 -1 556 801 802 -1 556 802 554 -1 554 802 803 -1 554 803 765 -1 765 803 804 -1 129 128 791 -1 791 128 805 -1 791 805 792 -1 792 805 806 -1 792 806 793 -1 793 806 807 -1 793 807 794 -1 794 807 808 -1 794 808 795 -1 795 808 809 -1 795 809 796 -1 796 809 810 -1 796 810 797 -1 797 810 811 -1 797 811 798 -1 798 811 812 -1 798 812 799 -1 799 812 813 -1 799 813 800 -1 800 813 814 -1 800 814 801 -1 801 814 815 -1 801 815 802 -1 802 815 816 -1 802 816 803 -1 803 816 817 -1 803 817 804 -1 804 817 818 -1 128 126 805 -1 805 126 819 -1 805 819 806 -1 806 819 820 -1 806 820 807 -1 807 820 821 -1 807 821 808 -1 808 821 822 -1 808 822 809 -1 809 822 823 -1 809 823 810 -1 810 823 824 -1 810 824 811 -1 811 824 825 -1 811 825 812 -1 812 825 826 -1 812 826 813 -1 813 826 827 -1 813 827 814 -1 814 827 828 -1 814 828 815 -1 815 828 829 -1 815 829 816 -1 816 829 830 -1 816 830 817 -1 817 830 831 -1 817 831 818 -1 818 831 832 -1 126 134 819 -1 819 134 833 -1 819 833 820 -1 820 833 834 -1 820 834 821 -1 821 834 835 -1 821 835 822 -1 822 835 836 -1 822 836 823 -1 823 836 837 -1 823 837 824 -1 824 837 838 -1 824 838 825 -1 825 838 839 -1 825 839 826 -1 826 839 840 -1 826 840 827 -1 827 840 841 -1 827 841 828 -1 828 841 842 -1 828 842 829 -1 829 842 843 -1 829 843 830 -1 830 843 844 -1 830 844 831 -1 831 844 845 -1 831 845 832 -1 832 845 846 -1 191 193 847 -1 847 193 766 -1 847 766 846 -1 846 766 767 -1 846 767 832 -1 832 767 768 -1 832 768 818 -1 818 768 769 -1 818 769 804 -1 804 769 770 -1 804 770 765 -1 765 770 771 -1 765 771 764 -1 764 771 772 -1 764 772 763 -1 763 772 773 -1 763 773 762 -1 762 773 774 -1 762 774 761 -1 761 774 775 -1 761 775 760 -1 760 775 776 -1 760 776 759 -1 759 776 777 -1 759 777 758 -1 758 777 778 -1 758 778 757 -1 757 778 779 -1 757 779 756 -1 756 779 780 -1 756 780 755 -1 755 780 781 -1 755 781 754 -1 754 781 782 -1 754 782 753 -1 753 782 783 -1 753 783 752 -1 752 783 784 -1 752 784 751 -1 751 784 785 -1 751 785 750 -1 750 785 786 -1 750 786 607 -1 607 786 787 -1 607 787 594 -1 594 787 788 -1 594 788 582 -1 582 788 789 -1 582 789 577 -1 577 789 790 -1 577 790 578 -1 848 849 850 -1 850 849 851 -1 850 851 852 -1 852 851 853 -1 852 853 854 -1 854 853 855 -1 854 855 856 -1 856 855 857 -1 856 857 858 -1 858 857 859 -1 858 859 860 -1 860 859 861 -1 860 861 862 -1 862 861 863 -1 862 863 864 -1 864 863 865 -1 864 865 866 -1 866 865 867 -1 866 867 868 -1 868 867 869 -1 868 869 870 -1 870 869 871 -1 870 871 872 -1 872 871 873 -1 872 873 874 -1 874 873 875 -1 874 875 876 -1 876 875 877 -1 132 127 878 -1 849 879 851 -1 851 879 880 -1 851 880 853 -1 853 880 881 -1 853 881 855 -1 855 881 882 -1 855 882 857 -1 857 882 883 -1 857 883 859 -1 859 883 884 -1 859 884 861 -1 861 884 885 -1 861 885 863 -1 863 885 886 -1 863 886 865 -1 865 886 887 -1 865 887 867 -1 867 887 888 -1 867 888 869 -1 869 888 889 -1 869 889 871 -1 871 889 890 -1 871 890 873 -1 873 890 891 -1 873 891 875 -1 875 891 892 -1 875 892 877 -1 877 892 893 -1 879 894 880 -1 880 894 895 -1 880 895 881 -1 881 895 896 -1 881 896 882 -1 882 896 897 -1 882 897 883 -1 883 897 898 -1 883 898 884 -1 884 898 899 -1 884 899 885 -1 885 899 900 -1 885 900 886 -1 886 900 901 -1 886 901 887 -1 887 901 902 -1 887 902 888 -1 888 902 903 -1 888 903 889 -1 889 903 904 -1 889 904 890 -1 890 904 905 -1 890 905 891 -1 891 905 906 -1 891 906 892 -1 892 906 907 -1 892 907 893 -1 893 907 908 -1 331 909 910 -1 910 909 911 -1 910 911 912 -1 912 911 878 -1 848 133 849 -1 849 133 130 -1 849 130 879 -1 879 130 131 -1 879 131 894 -1 894 131 913 -1 894 913 895 -1 895 913 914 -1 895 914 896 -1 896 914 915 -1 896 915 897 -1 897 915 916 -1 897 916 898 -1 898 916 917 -1 898 917 899 -1 899 917 918 -1 899 918 900 -1 900 918 919 -1 900 919 901 -1 901 919 920 -1 901 920 902 -1 902 920 921 -1 902 921 903 -1 903 921 922 -1 903 922 904 -1 904 922 923 -1 904 923 905 -1 905 923 924 -1 905 924 906 -1 906 924 925 -1 906 925 907 -1 907 925 926 -1 907 926 908 -1 116 330 107 -1 107 330 927 -1 107 927 127 -1 878 127 912 -1 912 127 927 -1 912 927 910 -1 910 927 330 -1 910 330 331 -1 131 132 913 -1 913 132 878 -1 913 878 914 -1 914 878 911 -1 914 911 915 -1 915 911 909 -1 915 909 916 -1 916 909 331 -1 916 331 917 -1 917 331 329 -1 917 329 918 -1 918 329 328 -1 918 328 919 -1 919 328 313 -1 919 313 920 -1 920 313 206 -1 920 206 921 -1 206 205 921 -1 921 205 341 -1 921 341 922 -1 922 341 342 -1 922 342 923 -1 923 342 343 -1 923 343 924 -1 924 343 344 -1 924 344 925 -1 925 344 345 -1 925 345 926 -1 926 345 346 -1 346 347 926 -1 926 347 510 -1 926 510 908 -1 908 510 187 -1 908 187 893 -1 893 187 189 -1 893 189 877 -1 877 189 191 -1 877 191 876 -1 876 191 847 -1 876 847 874 -1 874 847 846 -1 874 846 872 -1 872 846 845 -1 872 845 870 -1 870 845 844 -1 870 844 868 -1 868 844 843 -1 868 843 866 -1 866 843 842 -1 866 842 864 -1 864 842 841 -1 864 841 862 -1 862 841 840 -1 862 840 860 -1 860 840 839 -1 860 839 858 -1 858 839 838 -1 858 838 856 -1 856 838 837 -1 856 837 854 -1 854 837 836 -1 854 836 852 -1 852 836 835 -1 852 835 850 -1 850 835 834 -1 850 834 848 -1 848 834 833 -1 848 833 133 -1 133 833 134 -1 928 39 38 -1 928 38 929 -1 929 38 53 -1 929 53 930 -1 930 53 931 -1 931 53 52 -1 931 52 932 -1 932 52 933 -1 933 52 51 -1 933 51 934 -1 934 51 935 -1 935 51 50 -1 935 50 936 -1 936 50 46 -1 936 46 937 -1 937 46 938 -1 938 46 47 -1 938 47 939 -1 939 47 940 -1 940 47 49 -1 940 49 941 -1 941 49 942 -1 942 49 48 -1 942 48 943 -1 943 48 43 -1 943 43 108 -1 944 27 945 -1 945 27 28 -1 946 31 37 -1 175 176 947 -1 948 949 950 -1 951 952 953 -1 954 955 956 -1 957 958 959 -1 960 961 962 -1 955 963 964 -1 964 963 957 -1 965 966 954 -1 967 968 969 -1 6 968 970 -1 971 972 973 -1 6 970 7 -1 7 970 974 -1 7 974 16 -1 16 974 17 -1 17 974 975 -1 17 975 19 -1 976 977 978 -1 978 977 979 -1 978 979 980 -1 19 975 20 -1 20 975 981 -1 20 981 22 -1 982 24 983 -1 983 24 22 -1 983 22 984 -1 984 22 981 -1 971 973 985 -1 985 973 986 -1 985 986 987 -1 987 986 988 -1 987 988 989 -1 989 988 990 -1 989 990 991 -1 991 990 992 -1 991 992 993 -1 993 992 994 -1 993 994 995 -1 995 994 996 -1 995 996 997 -1 997 996 998 -1 997 998 999 -1 999 998 1000 -1 999 1000 1001 -1 1001 1000 1002 -1 1001 1002 1003 -1 1003 1002 1004 -1 1003 1004 1005 -1 1005 1004 1006 -1 1005 1006 1007 -1 1008 1009 1010 -1 982 1011 24 -1 24 1011 1012 -1 24 1012 25 -1 25 1012 1013 -1 25 1013 29 -1 29 1013 1014 -1 29 1014 30 -1 30 1014 1015 -1 30 1015 26 -1 26 1015 1016 -1 26 1016 34 -1 34 1016 1017 -1 34 1017 35 -1 35 1017 1018 -1 35 1018 36 -1 36 1018 1019 -1 36 1019 37 -1 37 1019 1020 -1 37 1020 946 -1 946 1021 31 -1 31 1021 1022 -1 31 1022 32 -1 32 1022 1023 -1 32 1023 33 -1 33 1023 1024 -1 33 1024 28 -1 28 1024 1025 -1 28 1025 945 -1 1008 1010 1026 -1 1026 1010 1027 -1 1026 1027 1028 -1 1028 1027 1029 -1 1028 1029 1030 -1 1030 1029 1031 -1 1030 1031 1032 -1 1032 1031 1033 -1 1032 1033 1034 -1 1034 1033 1035 -1 1034 1035 1036 -1 1036 1035 1037 -1 1036 1037 1038 -1 1038 1037 1039 -1 1038 1039 1040 -1 1040 1039 1041 -1 1040 1041 1042 -1 1042 1041 362 -1 1042 362 387 -1 1043 405 403 -1 1044 401 399 -1 957 959 964 -1 964 959 1045 -1 964 1045 1046 -1 1046 1045 1047 -1 1046 1047 1048 -1 1048 1047 1049 -1 1048 1049 1050 -1 1050 1049 1051 -1 1050 1051 1052 -1 1052 1051 1053 -1 1052 1053 1054 -1 1054 1053 1055 -1 1054 1055 1056 -1 1056 1055 1057 -1 1056 1057 1058 -1 1058 1057 1059 -1 1058 1059 1060 -1 1060 1059 1061 -1 1060 1061 1062 -1 1062 1061 1063 -1 1062 1063 1064 -1 1064 1063 1065 -1 1064 1065 1066 -1 1066 1065 1067 -1 1066 1067 1068 -1 1068 1067 1069 -1 1068 1069 1070 -1 1070 1069 1071 -1 1070 1071 1072 -1 1072 1071 1073 -1 1072 1073 1074 -1 1074 1073 1075 -1 1074 1075 1076 -1 1076 1075 1077 -1 1076 1077 1078 -1 1078 1077 1079 -1 1078 1079 1080 -1 1080 1079 1081 -1 1080 1081 1082 -1 1082 1081 1083 -1 1082 1083 1084 -1 1084 1083 1085 -1 1084 1085 1086 -1 1086 1085 1087 -1 1086 1087 1088 -1 1088 1087 1089 -1 1088 1089 1090 -1 1090 1089 1044 -1 1090 1044 1091 -1 1091 1044 399 -1 1091 399 398 -1 954 956 965 -1 965 956 1092 -1 965 1092 1093 -1 1093 1092 1094 -1 1093 1094 1095 -1 1095 1094 1096 -1 1095 1096 1097 -1 1097 1096 1098 -1 1097 1098 1099 -1 1099 1098 1100 -1 1099 1100 1101 -1 1101 1100 1102 -1 1101 1102 1103 -1 1103 1102 1104 -1 1103 1104 1105 -1 1105 1104 1106 -1 1105 1106 1107 -1 1107 1106 1108 -1 1107 1108 1109 -1 1109 1108 1110 -1 1109 1110 1111 -1 1111 1110 1112 -1 1111 1112 1113 -1 1113 1112 1114 -1 1113 1114 1115 -1 1115 1114 1116 -1 1115 1116 1117 -1 1117 1116 1118 -1 1117 1118 1119 -1 1119 1118 1120 -1 1119 1120 1121 -1 1121 1120 1122 -1 1121 1122 1123 -1 1123 1122 1124 -1 1123 1124 1125 -1 1125 1124 1126 -1 1125 1126 1127 -1 1127 1126 1128 -1 1127 1128 1129 -1 1129 1128 1130 -1 1129 1130 1131 -1 1131 1130 1132 -1 1131 1132 1133 -1 1133 1132 1134 -1 1133 1134 1135 -1 1135 1134 1136 -1 1135 1136 1137 -1 1137 1136 1138 -1 1137 1138 1139 -1 1139 1138 369 -1 1139 369 366 -1 135 137 1140 -1 1140 137 1141 -1 1140 1141 1142 -1 962 1143 960 -1 960 1143 1144 -1 960 1144 1145 -1 1145 1144 1146 -1 1145 1146 1147 -1 971 1148 972 -1 972 1148 1149 -1 972 1149 1150 -1 1151 961 1152 -1 1152 961 960 -1 1152 960 1153 -1 1153 960 1145 -1 1153 1145 1154 -1 1154 1145 1147 -1 1154 1147 1155 -1 1156 1157 1158 -1 977 1151 979 -1 979 1151 1152 -1 979 1152 980 -1 980 1152 1153 -1 980 1153 1159 -1 1159 1153 1154 -1 1159 1154 1160 -1 1160 1154 1155 -1 1160 1155 1161 -1 1158 1162 951 -1 948 950 1163 -1 1163 950 1164 -1 1163 1164 1165 -1 1165 1164 1166 -1 1165 1166 1167 -1 1167 1166 1168 -1 1167 1168 1169 -1 1169 1168 1170 -1 1169 1170 1171 -1 1171 1170 1172 -1 1171 1172 1173 -1 1173 1172 1174 -1 1173 1174 1175 -1 1175 1174 1176 -1 1175 1176 1177 -1 1177 1176 976 -1 1177 976 1178 -1 1178 976 978 -1 1178 978 1179 -1 1179 978 980 -1 1179 980 1180 -1 1180 980 1159 -1 1180 1159 1181 -1 1181 1159 1160 -1 1181 1160 1141 -1 1141 1160 1161 -1 1141 1161 1142 -1 139 141 1156 -1 1156 141 143 -1 1156 143 1157 -1 1157 143 145 -1 1157 145 1182 -1 1182 145 147 -1 1182 147 1183 -1 1183 147 149 -1 1183 149 1184 -1 1184 149 151 -1 1184 151 1185 -1 1158 1157 1162 -1 1162 1157 1182 -1 1162 1182 1186 -1 1186 1182 1183 -1 1186 1183 1187 -1 1187 1183 1184 -1 1187 1184 1188 -1 1188 1184 1185 -1 1188 1185 1189 -1 951 1162 952 -1 952 1162 1186 -1 952 1186 1190 -1 1190 1186 1187 -1 1190 1187 1191 -1 1191 1187 1188 -1 1191 1188 1192 -1 1192 1188 1189 -1 1192 1189 1193 -1 1194 1195 1196 -1 1194 153 1195 -1 1195 153 155 -1 1195 155 1197 -1 1197 155 157 -1 1197 157 1198 -1 1198 157 159 -1 1198 159 1199 -1 1199 159 160 -1 1196 1195 1200 -1 1200 1195 1197 -1 1200 1197 1201 -1 1201 1197 1198 -1 1201 1198 1202 -1 1202 1198 1199 -1 1202 1199 1203 -1 151 153 1185 -1 1185 153 1194 -1 1185 1194 1189 -1 1189 1194 1196 -1 1189 1196 1193 -1 1193 1196 1200 -1 1193 1200 1204 -1 1204 1200 1201 -1 1204 1201 1205 -1 1205 1201 1202 -1 1205 1202 1206 -1 1206 1202 1203 -1 1206 1203 1207 -1 164 166 1208 -1 953 952 1209 -1 1209 952 1190 -1 1209 1190 1210 -1 1210 1190 1191 -1 1210 1191 1211 -1 1211 1191 1192 -1 1211 1192 1212 -1 1212 1192 1193 -1 1212 1193 1213 -1 1213 1193 1204 -1 1213 1204 1214 -1 1214 1204 1205 -1 1214 1205 1215 -1 1215 1205 1206 -1 1215 1206 1216 -1 1216 1206 1207 -1 1216 1207 1217 -1 137 139 1141 -1 1141 139 1156 -1 1141 1156 1181 -1 1181 1156 1158 -1 1181 1158 1180 -1 1180 1158 951 -1 1180 951 1179 -1 1179 951 953 -1 1179 953 1178 -1 1178 953 1209 -1 1178 1209 1177 -1 1177 1209 1210 -1 1177 1210 1175 -1 1175 1210 1211 -1 1175 1211 1173 -1 1173 1211 1212 -1 1173 1212 1171 -1 1171 1212 1213 -1 1171 1213 1169 -1 1169 1213 1214 -1 1169 1214 1167 -1 1167 1214 1215 -1 1167 1215 1165 -1 1165 1215 1216 -1 1165 1216 1163 -1 1163 1216 1217 -1 1163 1217 948 -1 1218 1007 1219 -1 1219 1007 1006 -1 1219 1006 949 -1 949 1006 1004 -1 949 1004 950 -1 950 1004 1002 -1 950 1002 1164 -1 1164 1002 1000 -1 1164 1000 1166 -1 1166 1000 998 -1 1166 998 1168 -1 1168 998 996 -1 1168 996 1170 -1 1170 996 994 -1 1170 994 1172 -1 1172 994 992 -1 1172 992 1174 -1 1174 992 990 -1 1174 990 1176 -1 1176 990 988 -1 1176 988 976 -1 976 988 986 -1 976 986 977 -1 977 986 973 -1 977 973 1151 -1 1151 973 972 -1 1151 972 961 -1 961 972 1150 -1 961 1150 962 -1 170 173 1220 -1 160 162 1199 -1 1199 162 1221 -1 1199 1221 1203 -1 1203 1221 1222 -1 1203 1222 1207 -1 1207 1222 1223 -1 1207 1223 1217 -1 1217 1223 1224 -1 1217 1224 948 -1 948 1224 1225 -1 948 1225 949 -1 949 1225 1226 -1 949 1226 1219 -1 1219 1226 1227 -1 1219 1227 1218 -1 1218 1227 1228 -1 1218 1228 1229 -1 1229 1228 1230 -1 1229 1230 1231 -1 1231 1230 1232 -1 1231 1232 1233 -1 1233 1232 1234 -1 1233 1234 1235 -1 1235 1234 1236 -1 1235 1236 1237 -1 1237 1236 1238 -1 1237 1238 1239 -1 1239 1238 1240 -1 1239 1240 1241 -1 1241 1240 1242 -1 1241 1242 1243 -1 1243 1242 1244 -1 1243 1244 1245 -1 1245 1244 1246 -1 1245 1246 1247 -1 1247 1246 1043 -1 1247 1043 1248 -1 1248 1043 403 -1 1248 403 401 -1 947 1249 1250 -1 166 168 1208 -1 1208 168 1251 -1 1208 1251 1252 -1 1252 1251 1253 -1 1252 1253 1254 -1 1254 1253 1255 -1 1254 1255 1256 -1 1256 1255 1257 -1 1256 1257 1258 -1 1258 1257 1259 -1 1258 1259 1260 -1 1260 1259 1261 -1 947 176 1249 -1 1249 176 178 -1 1249 178 1262 -1 1262 178 184 -1 1262 184 1263 -1 1263 184 182 -1 1263 182 1264 -1 168 170 1251 -1 1251 170 1220 -1 1251 1220 1253 -1 1253 1220 1265 -1 1253 1265 1255 -1 1255 1265 1266 -1 1255 1266 1257 -1 1257 1266 1267 -1 1257 1267 1259 -1 1259 1267 1009 -1 1259 1009 1261 -1 1261 1009 1008 -1 182 180 1264 -1 1264 180 201 -1 1264 201 1268 -1 1268 201 200 -1 1268 200 1269 -1 1269 200 198 -1 1269 198 1270 -1 1250 1249 1271 -1 1271 1249 1262 -1 1271 1262 1272 -1 1272 1262 1263 -1 1272 1263 1273 -1 1273 1263 1264 -1 1273 1264 1274 -1 1274 1264 1268 -1 1274 1268 1275 -1 1275 1268 1269 -1 1275 1269 1276 -1 1276 1269 1270 -1 1276 1270 1277 -1 203 1278 204 -1 204 1278 1279 -1 204 1279 188 -1 188 1279 1280 -1 188 1280 190 -1 190 1280 1281 -1 190 1281 192 -1 192 1281 1282 -1 192 1282 194 -1 194 1282 1283 -1 194 1283 196 -1 198 196 1270 -1 1270 196 1283 -1 1270 1283 1277 -1 1277 1283 1282 -1 1277 1282 1284 -1 1284 1282 1281 -1 1284 1281 1285 -1 1285 1281 1280 -1 1285 1280 1286 -1 1286 1280 1279 -1 1286 1279 1287 -1 1287 1279 1278 -1 1287 1288 1286 -1 1286 1288 1289 -1 1286 1289 1285 -1 1285 1289 1290 -1 1285 1290 1284 -1 1284 1290 1291 -1 1284 1291 1277 -1 1277 1291 1292 -1 1277 1292 1276 -1 1276 1292 1293 -1 1276 1293 1275 -1 1275 1293 1294 -1 1275 1294 1274 -1 1274 1294 1295 -1 1274 1295 1273 -1 1273 1295 1296 -1 1273 1296 1272 -1 1272 1296 1297 -1 1272 1297 1271 -1 1271 1297 1298 -1 1271 1298 1250 -1 1288 1299 1289 -1 1289 1299 1300 -1 1289 1300 1290 -1 1290 1300 1301 -1 1290 1301 1291 -1 1291 1301 1302 -1 1291 1302 1292 -1 1292 1302 1303 -1 1292 1303 1293 -1 1293 1303 1304 -1 1293 1304 1294 -1 1294 1304 1305 -1 1294 1305 1295 -1 1295 1305 1306 -1 1295 1306 1296 -1 1296 1306 1307 -1 1296 1307 1297 -1 1297 1307 1308 -1 1297 1308 1298 -1 401 1044 1248 -1 1248 1044 1089 -1 1248 1089 1247 -1 1247 1089 1087 -1 1247 1087 1245 -1 1245 1087 1085 -1 1245 1085 1243 -1 1243 1085 1083 -1 1243 1083 1241 -1 1241 1083 1081 -1 1241 1081 1239 -1 1239 1081 1079 -1 1239 1079 1237 -1 1237 1079 1077 -1 1237 1077 1235 -1 1235 1077 1075 -1 1235 1075 1233 -1 1233 1075 1073 -1 1233 1073 1231 -1 1231 1073 1071 -1 1231 1071 1229 -1 1229 1071 1069 -1 1229 1069 1218 -1 1218 1069 1067 -1 1218 1067 1007 -1 1007 1067 1065 -1 1007 1065 1005 -1 1005 1065 1063 -1 1005 1063 1003 -1 1003 1063 1061 -1 1003 1061 1001 -1 1001 1061 1059 -1 1001 1059 999 -1 999 1059 1057 -1 999 1057 997 -1 997 1057 1055 -1 997 1055 995 -1 995 1055 1053 -1 995 1053 993 -1 993 1053 1051 -1 993 1051 991 -1 991 1051 1049 -1 991 1049 989 -1 989 1049 1047 -1 989 1047 987 -1 987 1047 1045 -1 987 1045 985 -1 985 1045 959 -1 985 959 971 -1 971 959 958 -1 971 958 1148 -1 968 967 970 -1 970 967 1309 -1 970 1309 974 -1 974 1309 1310 -1 974 1310 975 -1 975 1310 1311 -1 975 1311 981 -1 981 1311 1312 -1 981 1312 984 -1 984 1312 1313 -1 984 1313 983 -1 983 1313 1314 -1 983 1314 982 -1 982 1314 1315 -1 982 1315 1011 -1 1011 1315 1316 -1 1011 1316 1012 -1 1012 1316 1317 -1 1012 1317 1013 -1 1013 1317 1318 -1 1013 1318 1014 -1 1014 1318 1319 -1 1014 1319 1015 -1 1015 1319 1320 -1 1015 1320 1016 -1 1016 1320 1321 -1 1016 1321 1017 -1 1017 1321 1322 -1 1017 1322 1018 -1 1018 1322 1323 -1 1018 1323 1019 -1 1019 1323 1324 -1 1019 1324 1020 -1 1020 1324 1325 -1 1020 1325 946 -1 946 1325 1326 -1 946 1326 1021 -1 1021 1326 1327 -1 1021 1327 1022 -1 1022 1327 1328 -1 1022 1328 1023 -1 1023 1328 1329 -1 1023 1329 1024 -1 1024 1329 1330 -1 1024 1330 1025 -1 1025 1330 1331 -1 1025 1331 945 -1 945 1331 1332 -1 945 1332 944 -1 363 1299 381 -1 381 1299 1288 -1 381 1288 371 -1 371 1288 1287 -1 371 1287 372 -1 372 1287 1278 -1 372 1278 374 -1 374 1278 203 -1 374 203 71 -1 173 175 1220 -1 1220 175 947 -1 1220 947 1265 -1 1265 947 1250 -1 1265 1250 1266 -1 1266 1250 1298 -1 1266 1298 1267 -1 1267 1298 1308 -1 1267 1308 1009 -1 1009 1308 1307 -1 1009 1307 1010 -1 1010 1307 1306 -1 1010 1306 1027 -1 1027 1306 1305 -1 1027 1305 1029 -1 1029 1305 1304 -1 1029 1304 1031 -1 1031 1304 1303 -1 1031 1303 1033 -1 1033 1303 1302 -1 1033 1302 1035 -1 1035 1302 1301 -1 1035 1301 1037 -1 1037 1301 1300 -1 1037 1300 1039 -1 1039 1300 1299 -1 1039 1299 1041 -1 1041 1299 363 -1 1041 363 362 -1 162 164 1221 -1 1221 164 1208 -1 1221 1208 1222 -1 1222 1208 1252 -1 1222 1252 1223 -1 1223 1252 1254 -1 1223 1254 1224 -1 1224 1254 1256 -1 1224 1256 1225 -1 1225 1256 1258 -1 1225 1258 1226 -1 1226 1258 1260 -1 1226 1260 1227 -1 1227 1260 1261 -1 1227 1261 1228 -1 1228 1261 1008 -1 1228 1008 1230 -1 1230 1008 1026 -1 1230 1026 1232 -1 1232 1026 1028 -1 1232 1028 1234 -1 1234 1028 1030 -1 1234 1030 1236 -1 1236 1030 1032 -1 1236 1032 1238 -1 1238 1032 1034 -1 1238 1034 1240 -1 1240 1034 1036 -1 1240 1036 1242 -1 1242 1036 1038 -1 1242 1038 1244 -1 1244 1038 1040 -1 1244 1040 1246 -1 1246 1040 1042 -1 1246 1042 1043 -1 1043 1042 387 -1 1043 387 405 -1 955 964 956 -1 956 964 1046 -1 956 1046 1092 -1 1092 1046 1048 -1 1092 1048 1094 -1 1094 1048 1050 -1 1094 1050 1096 -1 1096 1050 1052 -1 1096 1052 1098 -1 1098 1052 1054 -1 1098 1054 1100 -1 1100 1054 1056 -1 1100 1056 1102 -1 1102 1056 1058 -1 1102 1058 1104 -1 1104 1058 1060 -1 1104 1060 1106 -1 1106 1060 1062 -1 1106 1062 1108 -1 1108 1062 1064 -1 1108 1064 1110 -1 1110 1064 1066 -1 1110 1066 1112 -1 1112 1066 1068 -1 1112 1068 1114 -1 1114 1068 1070 -1 1114 1070 1116 -1 1116 1070 1072 -1 1116 1072 1118 -1 1118 1072 1074 -1 1118 1074 1120 -1 1120 1074 1076 -1 1120 1076 1122 -1 1122 1076 1078 -1 1122 1078 1124 -1 1124 1078 1080 -1 1124 1080 1126 -1 1126 1080 1082 -1 1126 1082 1128 -1 1128 1082 1084 -1 1128 1084 1130 -1 1130 1084 1086 -1 1130 1086 1132 -1 1132 1086 1088 -1 1132 1088 1134 -1 1134 1088 1090 -1 1134 1090 1136 -1 1136 1090 1091 -1 1136 1091 1138 -1 1138 1091 398 -1 1138 398 369 -1 966 965 1333 -1 1333 965 1093 -1 1333 1093 1334 -1 1334 1093 1095 -1 1334 1095 1335 -1 1335 1095 1097 -1 1335 1097 1336 -1 1336 1097 1099 -1 1336 1099 1337 -1 1337 1099 1101 -1 1337 1101 1338 -1 1338 1101 1103 -1 1338 1103 1339 -1 1339 1103 1105 -1 1339 1105 1340 -1 1340 1105 1107 -1 1340 1107 1341 -1 1341 1107 1109 -1 1341 1109 1342 -1 1342 1109 1111 -1 1342 1111 1343 -1 1343 1111 1113 -1 1343 1113 1344 -1 1344 1113 1115 -1 1344 1115 1345 -1 1345 1115 1117 -1 1345 1117 1346 -1 1346 1117 1119 -1 1346 1119 1347 -1 1347 1119 1121 -1 1347 1121 1348 -1 1348 1121 1123 -1 1348 1123 1349 -1 1349 1123 1125 -1 1349 1125 1350 -1 1350 1125 1127 -1 1350 1127 1351 -1 1351 1127 1129 -1 1351 1129 1352 -1 1352 1129 1131 -1 1352 1131 1353 -1 1353 1131 1133 -1 1353 1133 1354 -1 1354 1133 1135 -1 1354 1135 1355 -1 1355 1135 1137 -1 1355 1137 1356 -1 1356 1137 1139 -1 1356 1139 1357 -1 1357 1139 366 -1 1357 366 365 -1 23 27 395 -1 395 27 944 -1 395 944 365 -1 365 944 1332 -1 365 1332 1357 -1 1357 1332 1331 -1 1357 1331 1356 -1 1356 1331 1330 -1 1356 1330 1355 -1 1355 1330 1329 -1 1355 1329 1354 -1 1354 1329 1328 -1 1354 1328 1353 -1 1353 1328 1327 -1 1353 1327 1352 -1 1352 1327 1326 -1 1352 1326 1351 -1 1351 1326 1325 -1 1351 1325 1350 -1 1350 1325 1324 -1 1350 1324 1349 -1 1349 1324 1323 -1 1349 1323 1348 -1 1348 1323 1322 -1 1348 1322 1347 -1 1347 1322 1321 -1 1347 1321 1346 -1 1346 1321 1320 -1 1346 1320 1345 -1 1345 1320 1319 -1 1345 1319 1344 -1 1344 1319 1318 -1 1344 1318 1343 -1 1343 1318 1317 -1 1343 1317 1342 -1 1342 1317 1316 -1 1342 1316 1341 -1 1341 1316 1315 -1 1341 1315 1340 -1 1340 1315 1314 -1 1340 1314 1339 -1 1339 1314 1313 -1 1339 1313 1338 -1 1338 1313 1312 -1 1338 1312 1337 -1 1337 1312 1311 -1 1337 1311 1336 -1 1336 1311 1310 -1 1336 1310 1335 -1 1335 1310 1309 -1 1335 1309 1334 -1 1334 1309 967 -1 1334 967 1333 -1 1333 967 969 -1 1333 969 966 -1 41 39 1358 -1 41 1358 1359 -1 1359 1358 136 -1 1359 136 135 -1 1360 1361 59 -1 59 1361 6 -1 59 6 4 -1 1360 59 1362 -1 1362 59 58 -1 1362 58 1363 -1 1363 58 1364 -1 1364 58 57 -1 1364 57 1365 -1 1365 57 1366 -1 1366 57 56 -1 1366 56 1367 -1 1367 56 1368 -1 1368 56 55 -1 1368 55 1369 -1 1369 55 54 -1 1369 54 1370 -1 1370 54 1371 -1 1371 54 45 -1 1371 45 1372 -1 1372 45 1373 -1 1373 45 44 -1 1373 44 1374 -1 1374 44 1375 -1 1375 44 40 -1 1375 40 41 -1 1375 41 1140 -1 1140 41 1359 -1 1140 1359 135 -1 1140 1142 1375 -1 1375 1142 1161 -1 1375 1161 1374 -1 1374 1161 1155 -1 1374 1155 1373 -1 1373 1155 1147 -1 1373 1147 1372 -1 1372 1147 1146 -1 1372 1146 1371 -1 1146 1144 1371 -1 1371 1144 1143 -1 1371 1143 1370 -1 1370 1143 962 -1 1370 962 1369 -1 1369 962 1150 -1 1369 1150 1368 -1 1368 1150 1149 -1 1368 1149 1367 -1 1367 1149 1148 -1 1367 1148 1366 -1 1366 1148 958 -1 1366 958 1365 -1 958 957 1365 -1 1365 957 963 -1 1365 963 1364 -1 1364 963 955 -1 1364 955 1363 -1 1363 955 954 -1 1363 954 1362 -1 1362 954 966 -1 1362 966 1360 -1 6 1361 968 -1 968 1361 1360 -1 968 1360 969 -1 969 1360 966 -1 943 108 559 -1 559 603 943 -1 943 603 590 -1 943 590 942 -1 942 590 563 -1 942 563 941 -1 941 563 562 -1 941 562 940 -1 562 564 940 -1 940 564 566 -1 940 566 939 -1 939 566 567 -1 939 567 938 -1 938 567 569 -1 938 569 937 -1 937 569 571 -1 937 571 936 -1 936 571 572 -1 936 572 935 -1 935 572 574 -1 935 574 934 -1 574 576 934 -1 934 576 578 -1 934 578 933 -1 933 578 790 -1 933 790 932 -1 932 790 518 -1 932 518 931 -1 136 1358 520 -1 520 1358 621 -1 518 517 931 -1 931 517 581 -1 931 581 930 -1 930 581 580 -1 930 580 929 -1 929 580 621 -1 929 621 928 -1 928 621 1358 -1 928 1358 39 -1 63 2 1376 -1 1376 2 1 -1 1376 1 1377 -1 1377 1 68 -1 1377 68 61 -1 61 68 62 -1 1377 1378 1376 -1 1376 1378 1379 -1 1376 1379 1380 -1 1378 1377 66 -1 66 1377 61 -1 64 1380 65 -1 65 1380 1379 -1 65 1379 66 -1 66 1379 1378 -1 1376 1380 63 -1 63 1380 64 -1 "
						                >
							<Coordinate DEF="coords_ME_OMLV4_Packing_-_For_Xander_-_AIM-120_LAU176_Pylon_Assy-3_LAU179"
							            point="351.707367 82.892075 166.884415 352.406616 82.193130 166.884415 440.290985 82.193130 166.884415 441.166412 82.734825 166.884415 441.166412 87.891579 166.884415 440.290985 82.734825 166.884415 341.051819 87.891579 166.884415 339.795197 87.773834 166.884415 336.527618 84.276970 166.884415 336.613708 84.181679 166.884415 336.683197 84.073662 166.884415 336.734161 83.955788 166.884415 337.498749 83.703201 166.884415 336.765320 83.831200 166.884415 336.775787 83.703201 166.884415 337.498749 82.892075 166.884415 339.264191 87.665527 166.884415 338.657898 87.490082 166.884415 336.427185 84.357002 166.884415 338.403137 87.396957 166.884415 337.869720 87.155525 166.884415 336.315063 84.419632 166.884415 337.171478 86.717514 166.884415 336.194244 84.463211 166.884415 336.358917 86.008812 166.884415 335.992096 85.591141 166.884415 335.728577 85.067856 166.884415 335.996887 84.531631 166.884415 335.896332 84.584045 166.884415 335.834412 85.345642 166.884415 335.756836 85.168602 166.884415 335.767242 84.701401 166.884415 335.796295 84.664330 166.884415 335.836365 84.626556 166.884415 335.712280 84.949944 166.884415 335.714386 84.859756 166.884415 335.727142 84.791237 166.884415 335.743164 84.745720 166.884415 441.166412 88.678986 162.671814 341.051819 88.678986 162.671814 441.166412 88.678986 166.097015 341.051819 88.678986 166.097015 441.166412 82.734825 161.884415 441.166412 87.891579 161.884415 441.166412 88.667023 166.233734 441.166412 88.631500 166.366318 441.166412 88.397713 162.068634 441.166412 88.285286 161.989899 441.166412 88.028313 161.896378 441.166412 88.160889 161.931900 441.166412 88.494766 162.165680 441.166412 88.573494 162.278107 441.166412 88.631500 162.402512 441.166412 88.667023 162.535080 441.166412 88.573494 166.490707 441.166412 88.494766 166.603134 441.166412 88.397713 166.700195 441.166412 88.285286 166.778915 441.166412 88.160889 166.836929 441.166412 88.028313 166.872452 440.290985 82.734825 161.884415 440.290985 82.193130 163.459213 440.290985 82.193130 161.884415 440.290985 82.193130 165.309601 440.290985 80.773064 165.309601 440.290985 80.834480 164.384415 440.290985 80.773064 163.459213 351.707367 82.892075 161.884415 352.406616 82.193130 161.884415 337.498749 82.892075 161.884415 337.498749 83.703201 161.884415 335.988373 83.703201 166.097015 335.988373 83.703201 162.671814 336.093872 83.703201 162.278107 336.116730 83.703201 162.240936 336.093872 83.703201 166.490707 336.116730 83.703201 166.527878 336.269653 83.703201 166.700195 336.218994 83.703201 166.653778 336.632507 83.703201 166.871262 336.076355 83.703201 166.458664 336.035858 83.703201 166.366318 336.018768 83.703201 166.313675 336.639038 83.703201 166.872452 336.172607 83.703201 166.603134 336.000336 83.703201 166.233734 335.991547 83.703201 166.167755 335.991547 83.703201 162.601059 336.000336 83.703201 162.535080 336.018768 83.703201 162.455154 336.035858 83.703201 162.402512 336.076355 83.703201 162.310165 336.559113 83.703201 161.914810 336.639038 83.703201 161.896378 336.775787 83.703201 161.884415 336.506470 83.703201 166.836929 336.485931 83.703201 166.829132 336.382080 83.703201 166.778915 336.344910 83.703201 166.756058 336.172607 83.703201 162.165680 336.218994 83.703201 162.115036 336.269653 83.703201 162.068634 336.382080 83.703201 161.989899 336.414124 83.703201 161.972382 336.506470 83.703201 161.931900 336.261597 85.908157 161.884415 337.004303 86.588829 161.884415 336.141357 84.478447 161.884415 341.051819 87.891579 161.884415 336.765320 83.831200 161.884415 336.683197 84.073662 161.884415 336.613708 84.181679 161.884415 336.734161 83.955788 161.884415 336.427185 84.357002 161.884415 336.315063 84.419632 161.884415 337.768341 87.101456 161.884415 336.194244 84.463211 161.884415 338.403076 87.396889 161.884415 338.541382 87.449059 161.884415 336.527618 84.276970 161.884415 339.539886 87.726639 161.884415 340.151764 87.825592 161.884415 335.734497 85.093262 161.884415 335.783112 85.237602 161.884415 335.868073 85.405907 161.884415 336.057587 85.675659 161.884415 335.720795 84.818024 161.884415 335.968872 84.544563 161.884415 335.712128 84.888260 161.884415 335.714508 84.979424 161.884415 335.780212 84.683350 161.884415 335.813721 84.646553 161.884415 335.871216 84.600410 161.884415 335.755157 84.721321 161.884415 335.735687 84.764381 161.884415 341.031525 88.678719 166.097015 341.031525 88.678719 162.671814 340.055115 88.607048 166.097015 340.055115 88.607056 162.671814 339.522827 88.525261 166.097015 339.522827 88.525261 162.671814 339.079468 88.431053 166.097015 338.422485 88.241737 162.671814 338.422485 88.241737 166.097015 338.116150 88.130127 162.671814 337.645081 87.923950 166.097015 337.423920 87.810455 162.671814 337.423920 87.810455 166.097015 337.187500 87.675591 162.671814 336.753876 87.387779 166.097015 336.555511 87.237762 162.671814 336.555511 87.237762 166.097015 336.354034 87.073814 162.671814 335.983826 86.743057 166.097015 335.647888 86.404541 162.671814 335.647888 86.404541 166.097015 335.627502 86.382355 162.671814 335.449554 86.176010 166.097015 335.277863 85.945084 162.671814 335.277863 85.945084 166.097015 335.105896 85.650070 166.097015 335.105896 85.650040 162.671814 335.086151 85.608528 166.097015 335.086151 85.608528 162.671814 335.031799 85.479080 166.097015 335.031830 85.479172 162.671814 334.988892 85.351364 166.097015 334.988892 85.351364 162.671814 334.970734 85.284576 166.097015 334.970795 85.284821 162.671814 334.935028 85.093964 166.097015 334.935028 85.093964 162.671814 334.931427 85.061783 162.671814 334.924164 84.937553 166.097015 334.924622 84.876732 162.671814 334.924622 84.876732 166.097015 334.928986 84.801476 166.097015 334.928986 84.801445 162.671814 334.945374 84.680710 166.097015 335.065125 84.342018 162.671814 335.041382 84.387756 166.097015 335.001556 84.479576 162.671814 334.992615 84.503891 166.097015 334.992615 84.503891 162.671814 334.972198 84.567375 166.097015 334.951477 84.650009 162.671814 334.945374 84.680710 162.671814 335.643799 83.827286 162.671814 335.555420 83.871887 166.097015 335.437286 83.943298 162.671814 335.437286 83.943298 166.097015 335.338898 84.016197 162.671814 335.338898 84.016190 166.097015 335.282227 84.065514 162.671814 335.282227 84.065514 166.097015 335.214966 84.133232 162.671814 335.214966 84.133232 166.097015 335.162323 84.195274 162.671814 335.162323 84.195274 166.097015 335.092194 84.295647 162.671814 335.092163 84.295654 166.097015 335.065125 84.342018 166.097015 335.826691 83.753098 162.671814 335.826691 83.753098 166.097015 335.643799 83.827286 166.097015 336.041534 83.899467 162.143814 336.048676 83.925766 162.115097 336.077148 83.916054 162.115036 336.264252 84.364616 161.887589 335.989960 83.705956 162.601059 335.989929 83.705940 162.601456 336.410492 83.758659 161.972382 336.341858 83.749641 162.012756 336.332794 83.795288 162.012756 336.277008 83.741119 162.060516 336.217041 83.733238 162.115036 336.211182 83.762772 162.115036 336.115631 83.719917 162.240936 335.991547 83.703613 162.601059 336.269592 83.778389 162.060516 336.627014 83.787102 161.897552 336.554260 83.777542 161.914810 336.539764 83.850616 161.914810 336.481689 83.768013 161.939697 336.399689 83.813171 161.972382 335.991455 83.704025 162.601059 336.001404 83.704910 162.528534 335.991333 83.704414 162.601059 336.001068 83.706596 162.528534 336.018524 83.707161 162.455154 335.991150 83.704788 162.601059 336.000519 83.708221 162.528534 336.017731 83.711052 162.455154 336.043182 83.710403 162.381973 336.099609 83.767250 162.240936 336.140991 83.791084 162.175507 336.151123 83.770454 162.175507 335.990906 83.705139 162.601059 335.999756 83.709763 162.528534 336.016479 83.714806 162.455154 336.041779 83.717484 162.381973 336.075592 83.714661 162.310165 336.128235 83.810211 162.175507 336.090302 83.781197 162.240936 336.058228 83.756653 162.310165 335.990631 83.705452 162.601059 335.998810 83.711189 162.528534 336.014709 83.718369 162.455154 336.039459 83.724312 162.381973 336.073364 83.725922 162.310165 336.113098 83.827515 162.175507 336.079285 83.793808 162.240936 336.050690 83.765297 162.310165 336.027527 83.742226 162.381973 336.095856 83.842705 162.175507 336.066711 83.804878 162.240936 336.042053 83.772888 162.310165 336.022125 83.746994 162.381973 336.006927 83.727280 162.455154 335.990326 83.705727 162.601059 335.996399 83.713615 162.528534 335.997681 83.712479 162.528534 336.009918 83.724655 162.455154 336.012512 83.721672 162.455154 336.032288 83.736794 162.381973 336.036285 83.730789 162.381973 336.064606 83.747101 162.310165 336.069672 83.736794 162.310165 336.106995 83.752220 162.240936 336.112366 83.736351 162.240936 336.158508 83.748688 162.175507 336.162964 83.726135 162.175507 335.988922 83.705200 162.615097 336.076752 83.855515 162.175507 336.052795 83.814217 162.240936 336.032532 83.779282 162.310165 336.016113 83.751015 162.381973 336.003632 83.729492 162.455154 335.994965 83.714569 162.528534 336.610657 83.869568 161.897552 336.515839 83.921181 161.914810 336.583679 83.949203 161.897552 336.482971 83.988029 161.914810 336.546570 84.024651 161.897552 336.441650 84.050026 161.914810 336.499939 84.094620 161.897552 336.392609 84.106110 161.914810 336.444580 84.157913 161.897552 336.336700 84.155334 161.914810 336.381470 84.213463 161.897552 336.274841 84.196846 161.914810 336.311676 84.260323 161.897552 336.208099 84.229958 161.914810 336.236328 84.297684 161.897552 336.056183 83.865730 162.175507 336.037781 83.821655 162.240936 336.022247 83.784386 162.310165 336.009674 83.754227 162.381973 336.000092 83.731255 162.455154 335.993439 83.715332 162.528534 336.201508 83.791283 162.115036 336.257416 83.814377 162.060516 336.188232 83.818291 162.115036 336.240631 83.848473 162.060516 336.171539 83.843346 162.115036 336.219574 83.880096 162.060516 336.151733 83.866005 162.115036 336.194550 83.908707 162.060516 336.129120 83.885895 162.115036 336.166046 83.933807 162.060516 336.104126 83.902672 162.115036 336.134491 83.954987 162.060516 336.100433 83.971870 162.060516 336.066132 83.990242 162.055420 336.317871 83.839363 162.012756 336.381866 83.865807 161.972382 336.297333 83.881126 162.012756 336.357330 83.915672 161.972382 336.271515 83.919853 162.012756 336.326508 83.961922 161.972382 336.240906 83.954887 162.012756 336.289917 84.003754 161.972382 336.205963 83.985634 162.012756 336.248199 84.040474 161.972382 336.167328 84.011574 162.012756 336.202057 84.071442 161.972382 336.125641 84.032249 162.012756 336.152283 84.096138 161.972382 336.081604 84.047340 162.012741 336.094696 84.095711 161.982620 336.158630 84.331665 161.896255 336.125580 84.209732 161.929504 336.179932 84.162415 161.939697 336.238098 84.133553 161.939697 336.292023 84.097359 161.939697 336.340790 84.054451 161.939697 336.383545 84.005554 161.939697 336.419556 83.951508 161.939697 336.448212 83.893234 161.939697 336.469055 83.831718 161.939697 335.989380 83.706902 162.594635 336.034424 83.873230 162.175552 336.020935 83.823364 162.246994 336.011383 83.788109 162.310196 336.004883 83.764091 162.363052 335.996338 83.732597 162.455261 335.994232 83.724770 162.485947 335.991821 83.715973 162.528549 336.698914 83.796547 161.887589 336.680695 83.888306 161.887589 336.650696 83.976906 161.887589 336.609406 84.060844 161.887589 336.557526 84.138687 161.887589 336.495972 84.209114 161.887589 336.425751 84.270920 161.887589 336.348053 84.323051 161.887589 336.680695 83.888306 166.881226 336.650696 83.976906 166.881226 336.425751 84.270920 166.881226 336.348053 84.323051 166.881226 335.989960 83.705956 166.167755 335.990326 83.705727 166.167755 336.014069 83.797997 166.477753 336.002838 83.756592 166.386841 336.009674 83.754227 166.386841 336.145660 84.283806 166.862061 336.113525 84.165184 166.821320 336.179932 84.162415 166.829132 336.152283 84.096138 166.796448 336.097198 84.104942 166.791412 336.125641 84.032249 166.756058 335.997223 83.735909 166.325577 335.991486 83.714630 166.233292 335.994293 83.714668 166.238998 335.989349 83.706841 166.174194 335.989929 83.706017 166.168137 335.994965 83.714569 166.240280 335.990631 83.705452 166.167755 335.996399 83.713615 166.240280 336.003632 83.729492 166.313675 336.000092 83.731255 166.313675 336.000153 83.746727 166.359619 335.990906 83.705139 166.167755 335.997681 83.712479 166.240280 336.006927 83.727280 166.313675 336.016113 83.751015 166.386841 336.022247 83.784386 166.458664 336.023071 83.831276 166.534470 336.043182 83.710403 166.386841 336.075592 83.714661 166.458664 336.115631 83.719917 166.527878 335.991547 83.703613 166.167755 336.001404 83.704910 166.240280 336.018524 83.707161 166.313675 336.264252 84.364616 166.881226 336.179413 84.408463 166.882339 336.236328 84.297684 166.871262 336.208099 84.229958 166.854019 336.083191 84.053177 166.759918 336.081604 84.047356 166.756012 336.100433 83.971870 166.708313 336.056213 83.953575 166.681076 336.077148 83.916054 166.653778 336.048676 83.925819 166.653778 336.056183 83.865730 166.593307 336.033081 83.868256 166.587036 336.037781 83.821655 166.527878 336.311676 84.260323 166.871262 336.274841 84.196846 166.854019 336.238098 84.133553 166.829132 336.202057 84.071442 166.796448 336.167328 84.011574 166.756058 336.134491 83.954987 166.708313 336.104126 83.902672 166.653778 336.076752 83.855515 166.593307 336.052795 83.814217 166.527878 336.032532 83.779282 166.458664 336.381470 84.213463 166.871262 336.336700 84.155334 166.854019 336.292023 84.097359 166.829132 336.248199 84.040474 166.796448 336.205963 83.985634 166.756058 336.166046 83.933807 166.708313 336.129120 83.885895 166.653778 336.095856 83.842705 166.593307 336.066711 83.804878 166.527878 336.042053 83.772888 166.458664 336.022125 83.746994 166.386841 336.495972 84.209114 166.881226 336.444580 84.157913 166.871262 336.392609 84.106110 166.854019 336.340790 84.054451 166.829132 336.289917 84.003754 166.796448 336.240906 83.954887 166.756058 336.194550 83.908707 166.708313 336.151733 83.866005 166.653778 336.113098 83.827515 166.593307 336.079285 83.793808 166.527878 336.050690 83.765297 166.458664 336.027527 83.742226 166.386841 336.009918 83.724655 166.313675 336.557526 84.138687 166.881226 336.499939 84.094620 166.871262 336.441650 84.050026 166.854019 336.383545 84.005554 166.829132 336.326508 83.961922 166.796448 336.271515 83.919853 166.756058 336.219574 83.880096 166.708313 336.171539 83.843346 166.653778 336.128235 83.810211 166.593307 336.090302 83.781197 166.527878 336.058228 83.756653 166.458664 336.032288 83.736794 166.386841 336.012512 83.721672 166.313675 335.998810 83.711189 166.240280 336.609406 84.060844 166.881226 336.546570 84.024651 166.871262 336.482971 83.988029 166.854019 336.419556 83.951508 166.829132 336.357330 83.915672 166.796448 336.297333 83.881126 166.756058 336.240631 83.848473 166.708313 336.188232 83.818291 166.653778 336.140991 83.791084 166.593307 336.099609 83.767250 166.527878 336.064606 83.747101 166.458664 336.036285 83.730789 166.386841 336.014709 83.718369 166.313675 335.999756 83.709763 166.240280 335.991150 83.704788 166.167755 336.583679 83.949203 166.871262 336.515839 83.921181 166.854019 336.448212 83.893234 166.829132 336.381866 83.865807 166.796448 336.317871 83.839363 166.756058 336.257416 83.814377 166.708313 336.201508 83.791283 166.653778 336.151123 83.770454 166.593307 336.106995 83.752220 166.527878 336.069672 83.736794 166.458664 336.039459 83.724312 166.386841 336.016479 83.714806 166.313675 336.000519 83.708221 166.240280 335.991333 83.704414 166.167755 336.610657 83.869568 166.871262 336.539764 83.850616 166.854019 336.469055 83.831718 166.829132 336.399689 83.813171 166.796448 336.332794 83.795288 166.756058 336.269592 83.778389 166.708313 336.211182 83.762772 166.653778 336.158508 83.748688 166.593307 336.112366 83.736351 166.527878 336.073364 83.725922 166.458664 336.041779 83.717484 166.386841 336.017731 83.711052 166.313675 336.001068 83.706596 166.240280 335.991455 83.704025 166.167755 336.698914 83.796547 166.881226 336.627014 83.787102 166.871262 336.554260 83.777542 166.854019 336.481689 83.768013 166.829132 336.410492 83.758659 166.796448 336.341858 83.749641 166.756058 336.277008 83.741119 166.708313 336.217041 83.733238 166.653778 336.162964 83.726135 166.593307 337.235413 87.595940 162.300629 337.255920 87.561874 162.234375 336.831940 87.280418 162.234375 335.827972 83.756752 162.594635 335.109375 85.043755 162.172302 335.063568 85.048393 162.234375 335.099365 85.252563 162.234375 335.109344 85.648346 162.594635 338.117523 88.126572 162.594635 340.062469 88.547508 162.370468 341.033081 88.618767 162.370468 341.033691 88.594269 162.317017 340.055603 88.603226 162.594635 341.031616 88.674889 162.594635 339.080414 88.427338 162.594635 338.596436 88.294113 162.594635 337.279663 87.522423 162.172302 336.859039 87.243179 162.172302 337.189453 87.672340 162.594635 336.756134 87.384689 162.594635 336.356537 87.070869 162.594635 336.469238 86.937019 162.172302 336.439575 86.972244 162.234375 335.759583 86.261826 162.172302 335.725555 86.292870 162.234375 335.588593 86.063629 162.172302 335.552795 86.092598 162.234375 335.421631 85.838333 162.172302 335.383392 85.863983 162.234375 335.266541 85.571526 162.172302 335.225189 85.591743 162.234375 335.630310 86.379784 162.594635 335.452576 86.173706 162.594635 335.276337 85.935822 162.594635 335.144043 85.241356 162.172302 335.247803 85.397591 162.115021 335.194366 85.228737 162.115021 335.364532 85.523643 162.063095 334.974274 85.283936 162.594635 335.035645 85.477745 162.594635 335.056763 84.935509 162.234375 335.102814 84.934837 162.172302 335.061188 84.812950 162.234375 334.932739 84.801773 162.594635 334.927826 84.937370 162.594635 334.935303 85.061401 162.594635 334.955292 84.650833 162.594635 335.033325 84.491684 162.443237 335.029816 84.584076 162.370468 335.057617 84.500931 162.370468 335.042480 84.669395 162.300629 335.088470 84.512688 162.300629 341.050323 87.949593 161.886536 340.142303 87.902191 161.888184 340.114777 88.124611 161.944382 341.043793 88.202705 161.948578 341.045654 88.130600 161.921585 341.042664 88.246284 161.968933 340.106201 88.193939 161.977417 341.042267 88.262611 161.977417 341.040863 88.316742 162.009155 340.098083 88.259735 162.017090 341.039917 88.353081 162.033905 340.090454 88.321335 162.063095 341.038177 88.420578 162.088715 341.037476 88.448128 162.115021 340.083435 88.378105 162.115021 341.035889 88.509766 162.184494 340.077057 88.429573 162.172302 341.035370 88.529213 162.210251 340.071411 88.475273 162.234375 341.034943 88.545998 162.234375 340.059296 88.573296 162.443237 341.032410 88.644745 162.443237 341.032654 88.634659 162.412231 339.110626 88.302002 162.234375 339.121429 88.257240 162.172302 339.133606 88.206825 162.115021 339.147003 88.151207 162.063095 339.161560 88.090874 162.017090 339.177094 88.026421 161.977417 339.193481 87.958511 161.944382 340.123718 88.052422 161.918289 341.046997 88.078362 161.906860 339.246033 87.740646 161.888184 338.806122 87.619576 161.888184 338.783417 87.692566 161.899490 338.634705 88.170998 162.234375 338.648376 88.127029 162.172302 338.663757 88.077499 162.115021 338.680756 88.022873 162.063095 338.699158 87.963608 162.017090 338.718842 87.900291 161.977417 338.739594 87.833588 161.944382 339.210541 87.887802 161.918289 340.132904 87.978050 161.899490 341.048798 88.008865 161.893158 338.319794 87.609734 161.918289 338.347107 87.539948 161.899490 338.374969 87.468765 161.888184 338.164520 88.006508 162.234375 338.181305 87.963631 162.172302 338.200195 87.915337 162.115021 338.221039 87.862061 162.063095 338.243652 87.804260 162.017090 338.267822 87.742523 161.977417 338.293274 87.677467 161.944382 338.761169 87.764130 161.918289 339.228119 87.814949 161.899490 337.646790 87.920494 162.594635 338.121674 88.115967 162.518204 338.599823 88.283241 162.518204 339.083069 88.416267 162.518204 340.056976 88.591927 162.518204 341.031830 88.667206 162.538101 337.651794 87.910263 162.518204 338.128510 88.098488 162.443237 338.605377 88.265320 162.443237 339.087463 88.398026 162.443237 336.923187 87.154968 162.063095 337.335907 87.428970 162.063095 336.959686 87.104767 162.017090 337.367920 87.375793 162.017090 336.998688 87.051147 161.977417 337.402100 87.318985 161.977417 337.039764 86.994652 161.944382 337.438141 87.259132 161.944382 337.475647 87.196808 161.918289 336.539490 86.853592 162.063095 336.579468 86.806114 162.017090 336.622162 86.755402 161.977417 336.667145 86.701965 161.944382 337.082550 86.935829 161.918289 337.514282 87.132599 161.899490 335.840118 86.188301 162.063095 335.885986 86.146461 162.017090 335.934937 86.101768 161.977417 335.986542 86.054672 161.944382 336.713989 86.646324 161.918289 337.126617 86.875221 161.899490 337.553711 87.067108 161.888184 337.171570 86.813400 161.888184 336.762268 86.589005 161.899490 336.040283 86.005638 161.918289 335.827454 85.870300 161.944382 335.773163 85.914253 161.977417 335.721619 85.955963 162.017090 335.673370 85.995010 162.063095 336.811493 86.530533 161.888184 336.095612 85.955124 161.899490 335.884003 85.824539 161.918289 335.676788 85.667130 161.944382 335.618805 85.706047 161.977417 335.563751 85.742989 162.017090 335.512207 85.777565 162.063095 336.152069 85.903595 161.888184 335.942261 85.777397 161.899490 335.737213 85.626602 161.918289 335.542633 85.436615 161.944382 335.479858 85.467285 161.977417 335.420319 85.496391 162.017090 335.199280 85.415916 162.172302 335.313141 85.548759 162.115021 335.464691 85.809441 162.115021 335.628906 86.030998 162.115021 335.797882 86.226868 162.115021 336.502625 86.897354 162.115021 336.889526 87.201233 162.115021 337.306427 87.477982 162.115021 336.001678 85.729309 161.888184 335.799438 85.584854 161.899490 335.607971 85.404686 161.918289 335.442200 85.166580 161.944382 335.374420 85.183578 161.977417 335.310089 85.199715 162.017090 335.249878 85.214813 162.063095 335.862885 85.542267 161.888184 335.675293 85.371780 161.899490 335.512756 85.148880 161.918289 335.415070 85.012756 161.944382 335.345581 85.019798 161.977417 335.279633 85.026489 162.017090 335.217865 85.032753 162.063095 335.160980 85.038521 162.115021 335.156219 85.432190 162.234375 335.107056 84.816940 162.172302 335.126404 84.687248 162.172302 335.081390 84.677666 162.234375 335.168671 84.543221 162.172302 335.125641 84.526833 162.234375 335.743988 85.338226 161.888184 335.659637 85.112038 161.888184 335.585480 85.130638 161.899490 335.561981 84.997856 161.899490 335.487427 85.005417 161.918289 335.485687 84.849869 161.918289 335.413239 84.843567 161.944382 335.426971 84.751205 161.944382 335.343628 84.837517 161.977417 335.358643 84.736671 161.977417 335.277588 84.831772 162.017090 335.293793 84.722870 162.017090 335.215729 84.826393 162.063095 335.233093 84.709953 162.063095 335.158752 84.821434 162.115021 335.177124 84.698044 162.115021 334.975891 84.568451 162.594635 334.966431 84.653206 162.518204 334.944092 84.802765 162.518204 334.939209 84.937210 162.518204 334.946625 85.060257 162.518204 334.985321 85.281174 162.518204 335.046295 85.473724 162.518204 335.119568 85.643349 162.518204 335.285797 85.929474 162.518204 335.461426 86.166542 162.518204 335.638733 86.372108 162.518204 336.363861 87.062157 162.518204 336.762817 87.375481 162.518204 337.195312 87.662582 162.518204 337.660004 87.893387 162.443237 338.138000 88.074295 162.370468 338.613098 88.240509 162.370468 339.093567 88.372765 162.370468 335.638031 84.990150 161.888184 335.560364 84.856369 161.899490 335.498108 84.766342 161.918289 335.455841 84.652580 161.944382 335.390564 84.627716 161.977417 335.328583 84.604126 162.017090 335.270599 84.582039 162.063095 335.217133 84.561676 162.115021 336.808563 87.312576 162.300629 336.413971 87.002663 162.300629 335.696198 86.319672 162.300629 335.521881 86.117615 162.300629 335.350372 85.886139 162.300629 335.189453 85.609200 162.300629 335.119049 85.446236 162.300629 335.060791 85.262238 162.300629 335.024017 85.052406 162.300629 335.016998 84.936081 162.300629 335.021576 84.809502 162.300629 337.685852 87.840340 162.300629 337.218384 87.624237 162.370468 336.789154 87.339287 162.370468 336.392700 87.027924 162.370468 335.671783 86.341942 162.370468 335.496216 86.138390 162.370468 335.322968 85.904541 162.370468 335.159790 85.623695 162.370468 335.088135 85.457909 162.370468 335.028748 85.270279 162.370468 334.991150 85.055740 162.370468 334.983978 84.936562 162.370468 334.988678 84.806648 162.370468 335.010193 84.662521 162.370468 335.004852 84.576843 162.443237 335.015778 84.485008 162.518204 335.217834 84.135834 162.594635 335.154663 84.211456 162.594635 335.095459 84.297661 162.594635 335.044861 84.389450 162.594635 335.005157 84.480949 162.594635 334.986816 84.571625 162.518204 334.984772 84.657112 162.443237 334.962769 84.804398 162.443237 334.957977 84.936935 162.443237 334.965302 85.058365 162.443237 335.003540 85.276604 162.443237 335.063843 85.467087 162.443237 335.136444 85.635109 162.443237 335.301392 85.919022 162.443237 335.476013 86.154739 162.443237 335.652588 86.359459 162.443237 336.375946 87.047798 162.443237 336.773865 87.360306 162.443237 337.204987 87.646500 162.443237 337.671387 87.870026 162.370468 338.150024 88.043541 162.300629 338.622894 88.208969 162.300629 339.101318 88.340660 162.300629 340.066528 88.514732 162.300629 341.034027 88.581268 162.292358 335.636536 84.862991 161.888184 335.571381 84.781944 161.899490 335.523804 84.678459 161.918289 335.477997 84.601456 161.944382 335.415253 84.570747 161.977417 335.355713 84.541603 162.017090 335.299957 84.514320 162.063095 335.248596 84.489166 162.115021 335.201996 84.466370 162.172302 335.160645 84.446129 162.234375 335.124939 84.428650 162.300629 335.095276 84.414131 162.370468 335.071930 84.402710 162.443237 335.055084 84.394455 162.518204 335.646149 84.797852 161.888184 335.593842 84.705132 161.899490 335.543335 84.633430 161.918289 335.505829 84.550957 161.944382 335.446411 84.514267 161.977417 335.389984 84.479446 162.017090 335.337158 84.446846 162.063095 335.288483 84.416801 162.115021 335.244354 84.389565 162.172302 335.205170 84.365379 162.234375 335.171326 84.344498 162.300629 335.143219 84.327148 162.370468 335.121124 84.313499 162.443237 335.105133 84.303642 162.518204 335.665283 84.732330 161.888184 335.610657 84.666374 161.899490 335.567749 84.589157 161.918289 335.538452 84.503510 161.944382 335.482849 84.461205 161.977417 335.430084 84.421059 162.017090 335.380707 84.383469 162.063095 335.335175 84.348824 162.115021 335.293884 84.317421 162.172302 335.257263 84.289536 162.234375 335.225616 84.265457 162.300629 335.199341 84.245453 162.370468 335.178650 84.229721 162.443237 335.163727 84.218353 162.518204 335.679291 84.699974 161.888184 335.631500 84.628517 161.899490 335.596313 84.547554 161.918289 335.573853 84.461113 161.944382 335.522278 84.413994 161.977417 335.473328 84.369278 162.017090 335.427521 84.327415 162.063095 335.385284 84.288826 162.115021 335.346985 84.253845 162.172302 335.313019 84.222794 162.234375 335.283661 84.195969 162.300629 335.259277 84.173691 162.370468 335.240082 84.156166 162.443237 335.226227 84.143509 162.518204 335.280579 84.072235 162.594635 335.696564 84.668663 161.888184 335.716797 84.639229 161.888184 335.655945 84.592934 161.899490 335.682892 84.560715 161.899490 335.627563 84.510170 161.918289 335.692688 84.448807 161.918289 335.646637 84.392502 161.944382 335.718109 84.340324 161.944382 335.602417 84.338425 161.977417 335.679901 84.281845 161.977417 335.560455 84.287102 162.017090 335.643646 84.226341 162.017090 335.521149 84.239059 162.063095 335.609680 84.174385 162.063095 335.484955 84.194771 162.115021 335.578400 84.126495 162.115021 335.452118 84.154625 162.172302 335.550018 84.083084 162.172302 335.422974 84.118980 162.234375 335.524841 84.044533 162.234375 335.397797 84.088196 162.300629 335.503082 84.011246 162.300629 335.376892 84.062630 162.370468 335.485016 83.983597 162.370468 335.360443 84.042511 162.443237 335.470795 83.961845 162.443237 335.348572 84.027985 162.518204 335.460541 83.946129 162.518204 335.341339 84.019173 162.594635 335.454285 83.936600 162.594635 335.894562 84.495911 161.888184 335.739319 84.612267 161.888184 335.740112 84.506821 161.899490 335.757904 84.401215 161.918289 335.787537 84.298996 161.944382 335.754181 84.237625 161.977417 335.722534 84.179367 162.017090 335.692902 84.124840 162.063095 335.665588 84.074577 162.115021 335.640808 84.029007 162.172302 335.618835 83.988548 162.234375 335.599854 83.953613 162.300629 335.584076 83.924599 162.370468 335.571655 83.901764 162.443237 335.562714 83.885277 162.518204 335.557251 83.875275 162.594635 335.788513 84.565994 161.888184 335.798889 84.463951 161.899490 335.822266 84.362907 161.918289 335.855316 84.264992 161.944382 335.825989 84.201591 161.977417 335.798126 84.141418 162.017090 335.772064 84.085083 162.063095 335.748047 84.033165 162.115021 335.726257 83.986099 162.172302 335.706940 83.944305 162.234375 335.690216 83.908218 162.300629 335.676361 83.878242 162.370468 335.665436 83.854660 162.443237 335.657562 83.837624 162.518204 335.652771 83.827293 162.594635 336.011078 84.280655 161.918289 336.035797 84.351395 161.899490 335.917328 84.399017 161.899490 335.949432 84.468391 161.888184 335.840698 84.527939 161.888184 335.858063 84.428749 161.899490 335.885864 84.331001 161.918289 335.987091 84.211998 161.944382 335.964050 84.146049 161.977417 335.942169 84.083466 162.017090 335.921692 84.024879 162.063095 335.902802 83.970879 162.115021 335.885681 83.921928 162.172302 335.870514 83.878464 162.234375 335.857391 83.840927 162.300629 335.846497 83.809746 162.370468 335.837921 83.785217 162.443237 335.831726 83.767502 162.518204 336.061035 84.423546 161.888184 341.051819 88.670197 162.554535 341.051819 88.667023 162.535080 341.051819 88.641815 162.432755 341.051819 88.631500 162.402512 341.051819 88.594513 162.317017 341.051819 88.573494 162.278107 341.051819 88.529488 162.210205 341.051819 88.494766 162.165680 341.051819 88.448372 162.115051 341.051819 88.397713 162.068634 341.051819 88.353218 162.033936 341.051819 88.285286 161.989899 341.051819 88.246422 161.968903 341.051819 88.160889 161.931900 341.051819 88.130676 161.921585 341.051819 88.028313 161.896378 336.061035 84.423553 166.880585 335.949432 84.468399 166.880585 335.696564 84.668671 166.880585 334.932678 84.801788 166.174194 335.024048 85.052498 166.468170 335.063507 85.048485 166.534470 335.099426 85.252357 166.534470 337.659943 87.893463 166.325577 337.204956 87.646553 166.325577 337.218414 87.624207 166.398315 341.042664 88.246300 166.799911 341.042053 88.270927 166.786911 340.106110 88.194122 166.791412 341.039917 88.353027 166.734833 341.039246 88.378746 166.715393 340.090393 88.321487 166.705597 340.066498 88.514931 166.468170 340.071350 88.475548 166.534470 341.034729 88.554031 166.522308 341.040558 88.328873 166.751648 340.097992 88.259888 166.751648 340.114685 88.124802 166.824432 341.045135 88.151093 166.840332 340.132782 87.978165 166.869186 341.048370 88.025261 166.872894 341.045654 88.130577 166.847168 340.142151 87.902298 166.880585 340.083344 88.378357 166.653748 340.076996 88.429893 166.596527 339.121429 88.257217 166.596527 339.246094 87.740547 166.880585 338.375000 87.468834 166.880585 337.255890 87.561897 166.534470 338.164490 88.006699 166.534470 337.685852 87.840309 166.468170 338.150055 88.043655 166.468170 338.138000 88.074425 166.398315 337.553741 87.067085 166.880585 336.472015 86.227196 166.880585 336.811523 86.530548 166.880585 337.171570 86.813370 166.880585 339.133606 88.206741 166.653748 338.181274 87.963867 166.596527 338.200195 87.915504 166.653748 337.279633 87.522491 166.596527 337.306396 87.478004 166.653748 336.858948 87.243256 166.596527 336.889496 87.201263 166.653748 336.469147 86.937149 166.596527 336.502594 86.897430 166.653748 336.106659 86.613251 166.596527 336.142365 86.575539 166.653748 335.759369 86.262077 166.596527 335.797699 86.227058 166.653748 335.421417 85.838509 166.596527 335.464539 85.809570 166.653748 335.266479 85.571587 166.596527 335.313110 85.548790 166.653748 335.198944 85.415962 166.596527 335.247528 85.397614 166.653748 335.144043 85.241180 166.596527 335.194397 85.228569 166.653748 335.109253 85.043839 166.596527 335.160919 85.038589 166.653748 335.125549 84.526817 166.534470 335.088470 84.512695 166.468170 335.124939 84.428650 166.468170 336.151917 85.903625 166.880585 335.862854 85.542282 166.880585 335.743988 85.338203 166.880585 335.696228 85.228165 166.880585 335.659668 85.112083 166.880585 335.638031 84.990128 166.880585 335.636536 84.862991 166.880585 335.646149 84.797859 166.880585 335.665283 84.732338 166.880585 335.679321 84.699982 166.880585 335.716797 84.639229 166.880585 335.739319 84.612274 166.880585 335.788513 84.566002 166.880585 335.840729 84.527946 166.880585 335.894562 84.495918 166.880585 335.160583 84.446098 166.534470 335.171326 84.344513 166.468170 335.205109 84.365356 166.534470 335.225616 84.265450 166.468170 335.257202 84.289482 166.534470 335.283661 84.195976 166.468170 335.312958 84.222740 166.534470 335.397797 84.088203 166.468170 335.422913 84.118919 166.534470 335.503082 84.011253 166.468170 335.524780 84.044472 166.534470 335.599854 83.953621 166.468170 335.618805 83.988487 166.534470 335.690247 83.908226 166.468170 335.706909 83.944237 166.534470 335.857391 83.840935 166.468170 335.870483 83.878387 166.534470 335.885651 83.921806 166.596527 335.921692 84.024902 166.705597 339.147034 88.151054 166.705597 339.161591 88.090729 166.751648 338.221069 87.862152 166.705597 338.243683 87.804352 166.751648 337.335938 87.428925 166.705597 337.367950 87.375740 166.751648 336.923187 87.154930 166.705597 336.959686 87.104736 166.751648 336.539490 86.853607 166.705597 336.579468 86.806129 166.751648 336.181732 86.533928 166.705597 336.224396 86.488853 166.751648 335.840027 86.188431 166.705597 335.885864 86.146568 166.751648 335.512115 85.777641 166.705597 335.563660 85.743057 166.751648 335.364594 85.523636 166.705597 335.420349 85.496384 166.751648 335.301117 85.377373 166.705597 335.359192 85.355446 166.751648 335.249969 85.214661 166.705597 335.310181 85.199585 166.751648 335.217896 85.032806 166.705597 335.279663 85.026535 166.751648 335.215759 84.826408 166.705597 335.277588 84.831779 166.751648 335.233124 84.709946 166.705597 335.293823 84.722862 166.751648 335.270599 84.582047 166.705597 335.328613 84.604134 166.751648 335.299988 84.514328 166.705597 335.355743 84.541611 166.751648 335.337189 84.446869 166.705597 335.389984 84.479462 166.751648 335.380707 84.383476 166.705597 335.430115 84.421059 166.751648 335.427521 84.327423 166.705597 335.473358 84.369286 166.751648 335.521179 84.239067 166.705597 335.560455 84.287117 166.751648 335.609680 84.174400 166.705597 335.643646 84.226357 166.751648 335.692902 84.124855 166.705597 335.722534 84.179390 166.751648 335.772064 84.085106 166.705597 335.798157 84.141434 166.751648 335.942169 84.083488 166.751648 339.177124 88.026329 166.791412 339.193512 87.958435 166.824432 338.267853 87.742645 166.791412 338.293304 87.677597 166.824432 337.402130 87.318977 166.791412 337.438141 87.259140 166.824432 336.998657 87.051155 166.791412 337.039734 86.994667 166.824432 336.622162 86.755447 166.791412 336.667145 86.702019 166.824432 336.269928 86.440735 166.791412 336.317932 86.390007 166.824432 335.934784 86.101891 166.791412 335.986389 86.054794 166.824432 335.618683 85.706131 166.791412 335.676666 85.667206 166.824432 335.479858 85.467293 166.791412 335.542603 85.436630 166.824432 335.421173 85.332039 166.791412 335.486511 85.307365 166.824432 335.374451 85.183495 166.791412 335.442230 85.166527 166.824432 335.345551 85.019836 166.791412 335.415039 85.012779 166.824432 335.343597 84.837524 166.791412 335.413177 84.843575 166.824432 335.358612 84.736656 166.791412 335.426910 84.751198 166.824432 335.390533 84.627716 166.791412 335.455811 84.652565 166.824432 335.415222 84.570732 166.791412 335.477966 84.601440 166.824432 335.446381 84.514259 166.791412 335.505798 84.550941 166.824432 335.482819 84.461182 166.791412 335.538391 84.503479 166.824432 335.522278 84.413971 166.791412 335.573822 84.461082 166.824432 335.602386 84.338402 166.791412 335.646606 84.392471 166.824432 335.679871 84.281822 166.791412 335.718079 84.340286 166.824432 335.754181 84.237595 166.791412 335.787537 84.298958 166.824432 335.825958 84.201561 166.791412 335.855286 84.264946 166.824432 335.964020 84.146027 166.791412 335.987061 84.211952 166.824432 341.031586 88.676590 166.155029 340.055542 88.603500 166.174194 341.031616 88.674950 166.174194 341.033936 88.585747 166.468170 341.033691 88.594246 166.451782 340.062439 88.547729 166.398315 341.033173 88.614586 166.408234 341.032410 88.644852 166.325577 341.037476 88.448189 166.653748 341.036804 88.474487 166.626175 341.035370 88.529305 166.558624 339.110626 88.301926 166.534470 339.101318 88.340492 166.468170 339.093567 88.372612 166.398315 340.059235 88.573616 166.325577 341.032104 88.656288 166.283844 339.080414 88.427231 166.174194 338.117523 88.126762 166.174194 338.121643 88.116234 166.250626 339.087463 88.397964 166.325577 340.056946 88.592278 166.250626 341.031769 88.669975 166.214294 337.651703 87.910362 166.250626 335.060913 85.261993 166.468170 335.155914 85.432213 166.534470 335.118805 85.446228 166.468170 335.225159 85.591789 166.534470 335.189484 85.609207 166.468170 335.383209 85.864143 166.534470 335.350250 85.886253 166.468170 335.725403 86.293098 166.534470 335.696075 86.319855 166.468170 336.075043 86.646660 166.534470 336.047791 86.675476 166.468170 336.439514 86.972328 166.534470 336.413971 87.002686 166.468170 336.831909 87.280457 166.534470 336.808563 87.312546 166.468170 337.235443 87.595894 166.468170 337.671356 87.870010 166.398315 338.128479 88.098717 166.325577 339.083038 88.416237 166.250626 337.646759 87.920525 166.174194 337.189423 87.672348 166.174194 336.756104 87.384720 166.174194 336.356506 87.070946 166.174194 337.195251 87.662666 166.250626 336.762756 87.375572 166.250626 336.363770 87.062294 166.250626 335.994202 86.732079 166.250626 336.773804 87.360367 166.325577 336.375885 87.047913 166.325577 336.007141 86.718414 166.325577 335.652435 86.359726 166.325577 335.986450 86.740288 166.174194 335.630188 86.380028 166.174194 335.638550 86.372406 166.250626 335.452637 86.173515 166.174194 335.276154 85.935982 166.174194 335.109344 85.648392 166.174194 335.461426 86.166405 166.250626 335.285553 85.929680 166.250626 335.119476 85.643425 166.250626 335.045898 85.473763 166.250626 335.301147 85.919205 166.325577 335.136383 85.635170 166.325577 335.063477 85.467117 166.325577 335.003571 85.276352 166.325577 334.974365 85.283661 166.174194 336.789154 87.339272 166.398315 336.392700 87.027962 166.398315 336.025055 86.699478 166.398315 335.671692 86.342140 166.398315 335.322815 85.904671 166.398315 335.159821 85.623718 166.398315 335.087891 85.457901 166.398315 335.028870 85.270020 166.398315 334.991150 85.055832 166.398315 335.158661 84.821442 166.653748 335.102661 84.934937 166.596527 334.927734 84.937500 166.174194 335.035309 85.477753 166.174194 334.985321 85.280914 166.250626 334.965210 85.058472 166.325577 334.983948 84.936684 166.398315 335.016998 84.936195 166.468170 335.056671 84.935616 166.534470 335.106934 84.816940 166.596527 335.126282 84.687210 166.596527 335.177094 84.698013 166.653748 335.168549 84.543182 166.596527 335.217072 84.561661 166.653748 335.201904 84.466316 166.596527 335.248535 84.489143 166.653748 335.244232 84.389511 166.596527 335.288422 84.416779 166.653748 335.293793 84.317337 166.596527 335.335114 84.348778 166.653748 335.346893 84.253761 166.596527 335.385223 84.288788 166.653748 335.452026 84.154526 166.596527 335.484894 84.194725 166.653748 335.549957 84.082977 166.596527 335.578339 84.126442 166.653748 335.640747 84.028900 166.596527 335.665558 84.074516 166.653748 335.726227 83.985985 166.596527 335.748016 84.033104 166.653748 335.902771 83.970818 166.653748 334.955231 84.650795 166.174194 334.966278 84.653152 166.250626 334.935272 85.061508 166.174194 334.946503 85.060371 166.250626 334.939056 84.937340 166.250626 334.957855 84.937065 166.325577 334.962677 84.804398 166.325577 334.988647 84.806664 166.398315 335.010193 84.662498 166.398315 335.021576 84.809525 166.468170 335.042511 84.669373 166.468170 335.061096 84.812958 166.534470 335.081299 84.677635 166.534470 334.975830 84.568428 166.174194 335.005096 84.480942 166.174194 335.044800 84.389420 166.174194 334.943939 84.802773 166.250626 334.984680 84.657066 166.325577 335.029785 84.584076 166.398315 335.095398 84.297646 166.174194 335.154602 84.211418 166.174194 335.217773 84.135796 166.174194 334.986694 84.571579 166.250626 335.015656 84.484962 166.250626 335.054962 84.394394 166.250626 335.105011 84.303589 166.250626 335.163605 84.218262 166.250626 335.226135 84.143425 166.250626 335.348480 84.027885 166.250626 335.827942 83.756699 166.174194 335.652740 83.827240 166.174194 335.557220 83.875221 166.174194 335.454254 83.936554 166.174194 335.341309 84.019127 166.174194 335.280548 84.072205 166.174194 335.460449 83.946022 166.250626 335.562622 83.885155 166.250626 335.657501 83.837502 166.250626 335.831665 83.767372 166.250626 335.837860 83.785126 166.325577 335.665405 83.854568 166.325577 335.571625 83.901680 166.325577 335.470734 83.961761 166.325577 335.360382 84.042435 166.325577 335.239990 84.156105 166.325577 335.178558 84.229645 166.325577 335.121033 84.313461 166.325577 335.071838 84.402664 166.325577 335.033234 84.491661 166.325577 335.004761 84.576813 166.325577 335.846466 83.809746 166.398315 335.676361 83.878235 166.398315 335.584076 83.924591 166.398315 335.485016 83.983589 166.398315 335.376892 84.062622 166.398315 335.259247 84.173691 166.398315 335.199341 84.245445 166.398315 335.143219 84.327164 166.398315 335.095276 84.414124 166.398315 335.057617 84.500938 166.398315 339.228149 87.814842 166.869186 338.347137 87.540016 166.869186 337.514343 87.132568 166.869186 337.126617 86.875191 166.869186 336.762299 86.589012 166.869186 336.419495 86.282715 166.869186 336.095490 85.955170 166.869186 335.799377 85.584877 166.869186 335.675323 85.371758 166.869186 335.624725 85.255173 166.869186 335.585541 85.130646 166.869186 335.561981 84.997856 166.869186 335.560364 84.856369 166.869186 335.571411 84.781944 166.869186 335.593842 84.705139 166.869186 335.610657 84.666382 166.869186 335.631531 84.628532 166.869186 335.655975 84.592941 166.869186 335.682892 84.560722 166.869186 335.740143 84.506828 166.869186 335.798889 84.463959 166.869186 335.858063 84.428757 166.869186 335.917328 84.399025 166.869186 336.035828 84.351402 166.869186 340.123596 88.052574 166.850418 339.210571 87.887711 166.850418 338.319824 87.609833 166.850418 337.475677 87.196800 166.850418 337.082550 86.935814 166.850418 336.714020 86.646362 166.850418 336.367950 86.337158 166.850418 336.040131 86.005722 166.850418 335.737122 85.626656 166.850418 335.607971 85.404678 166.850418 335.554596 85.281654 166.850418 335.512817 85.148857 166.850418 335.487427 85.005432 166.850418 335.485687 84.849876 166.850418 335.498077 84.766342 166.850418 335.523804 84.678459 166.850418 335.543335 84.633423 166.850418 335.567719 84.589157 166.850418 335.596313 84.547546 166.850418 335.627533 84.510162 166.850418 335.692688 84.448799 166.850418 335.757904 84.401207 166.850418 335.822266 84.362892 166.850418 335.885864 84.330994 166.850418 336.011078 84.280640 166.850418 341.041656 88.678917 162.671814 341.041656 88.678917 166.097015 341.051819 88.130676 166.847229 341.051819 88.028313 166.872452 341.051819 88.160889 166.836929 341.051819 88.246422 166.799927 341.051819 88.285286 166.778915 341.051819 88.353218 166.734894 341.051819 88.397713 166.700195 341.051819 88.448372 166.653763 341.051819 88.494766 166.603134 341.051819 88.529488 166.558609 341.051819 88.573494 166.490707 341.051819 88.594513 166.451813 341.051819 88.631500 166.366318 341.051819 88.641815 166.336060 341.051819 88.667023 166.233734 341.051819 88.670197 166.214294 352.889404 82.193130 165.309601 352.889404 82.193130 163.459213 352.889404 80.773064 163.459213 352.889404 80.834480 164.384415 352.889404 80.773064 165.309601 "
							            />
						</IndexedFaceSet>
					</Shape>
				</Group>
			</Transform>
		</Transform>
	</Scene>
</X3D>