<?xml version="1.0" encoding="UTF-8"?>
<!DOCTYPE X3D PUBLIC "ISO//Web3D//DTD X3D 3.0//EN" "http://www.web3d.org/specifications/x3d-3.0.dtd">
<X3D version="3.0" profile="Immersive" xmlns:xsd="http://www.w3.org/2001/XMLSchema-instance" xsd:noNamespaceSchemaLocation="http://www.web3d.org/specifications/x3d-3.0.xsd">
	<head>
		<meta name="filename" content="OMLV4_Packing - For Xander - Hydraulic Actuator-11.x3d" />
		<meta name="created" content="2026-04-19 20:21:17" />
		<meta name="generator" content="Blender 4.3.2" />
		<meta name="translator" content="Web3D X3D/VRML2 format v2.5.1" />
	</head>
	<Scene>
		<NavigationInfo headlight="true"
		                visibilityLimit="0.0"
		                type='"EXAMINE", "ANY"'
		                avatarSize="0.25, 1.75, 0.75"
		                />
		<Background DEF="WO_World"
		            groundColor="0.051 0.051 0.051"
		            skyColor="0.051 0.051 0.051"
		            />
		<Transform DEF="OMLV4_Packing_-_For_Xander_-_Hydraulic_Actuator-11_TRANSFORM"
		           translation="0.000000 0.000000 0.000000"
		           scale="1.000000 1.000000 1.000000"
		           rotation="-1.000000 0.000000 0.000000 1.570796"
		           >
			<Transform DEF="OMLV4_Packing_-_For_Xander_-_Hydraulic_Actuator-11_ifs_TRANSFORM"
			           translation="0.000000 0.000000 0.000000"
			           scale="1.000000 1.000000 1.000000"
			           rotation="0.000000 1.000000 0.000000 0.000000"
			           >
				<Group DEF="group_ME_OMLV4_Packing_-_For_Xander_-_Hydraulic_Actuator-11">
					<Shape>
						<Appearance>
						</Appearance>
						<IndexedFaceSet solid="false"
						                coordIndex="0 1 2 -1 2 1 3 -1 2 3 4 -1 4 3 5 -1 4 5 6 -1 6 5 7 -1 6 7 8 -1 8 7 9 -1 8 9 10 -1 10 9 11 -1 10 11 12 -1 12 11 13 -1 12 13 14 -1 14 13 15 -1 14 15 16 -1 16 15 17 -1 16 17 18 -1 18 17 19 -1 18 19 20 -1 20 19 21 -1 20 21 22 -1 22 21 23 -1 22 23 24 -1 24 23 25 -1 24 25 26 -1 26 25 27 -1 26 27 28 -1 28 27 29 -1 28 29 30 -1 30 29 31 -1 30 31 32 -1 32 31 33 -1 32 33 34 -1 34 33 35 -1 34 35 36 -1 36 35 37 -1 36 37 38 -1 38 37 39 -1 38 39 40 -1 40 39 41 -1 40 41 42 -1 42 41 43 -1 42 43 44 -1 44 43 45 -1 44 45 46 -1 46 45 47 -1 46 47 48 -1 48 47 49 -1 48 49 50 -1 50 49 51 -1 50 51 52 -1 52 51 53 -1 52 53 54 -1 54 53 55 -1 54 55 56 -1 56 55 57 -1 56 57 58 -1 58 57 59 -1 58 59 60 -1 60 59 61 -1 60 61 62 -1 62 61 63 -1 62 63 64 -1 64 63 65 -1 64 65 66 -1 66 65 67 -1 66 67 68 -1 68 67 69 -1 68 69 70 -1 70 69 71 -1 70 71 0 -1 0 71 1 -1 39 37 72 -1 72 37 35 -1 72 35 33 -1 45 43 72 -1 72 43 41 -1 72 41 39 -1 51 49 72 -1 72 49 47 -1 72 47 45 -1 57 55 72 -1 72 55 53 -1 72 53 51 -1 63 61 72 -1 72 61 59 -1 72 59 57 -1 69 67 72 -1 72 67 65 -1 72 65 63 -1 3 1 72 -1 72 1 71 -1 72 71 69 -1 9 7 72 -1 72 7 5 -1 72 5 3 -1 15 13 72 -1 72 13 11 -1 72 11 9 -1 21 19 72 -1 72 19 17 -1 72 17 15 -1 27 25 72 -1 72 25 23 -1 72 23 21 -1 33 31 72 -1 72 31 29 -1 72 29 27 -1 32 34 73 -1 73 34 36 -1 73 36 38 -1 26 28 73 -1 73 28 30 -1 73 30 32 -1 20 22 73 -1 73 22 24 -1 73 24 26 -1 14 16 73 -1 73 16 18 -1 73 18 20 -1 8 10 73 -1 73 10 12 -1 73 12 14 -1 2 4 73 -1 73 4 6 -1 73 6 8 -1 68 70 73 -1 73 70 0 -1 73 0 2 -1 62 64 73 -1 73 64 66 -1 73 66 68 -1 56 58 73 -1 73 58 60 -1 73 60 62 -1 50 52 73 -1 73 52 54 -1 73 54 56 -1 44 46 73 -1 73 46 48 -1 73 48 50 -1 38 40 73 -1 73 40 42 -1 73 42 44 -1 "
						                >
							<Coordinate DEF="coords_ME_OMLV4_Packing_-_For_Xander_-_Hydraulic_Actuator-11"
							            point="567.488037 110.217293 321.622955 555.489990 110.409409 321.342865 567.489746 110.372452 321.412506 555.491577 110.598747 321.162567 567.491333 110.561790 321.232178 555.493103 110.816521 321.017883 567.492859 110.779564 321.087494 555.494446 111.056114 320.913177 567.494202 111.019157 320.982819 555.495605 111.310249 320.851715 567.495361 111.273293 320.921326 555.496521 111.571198 320.835297 567.496216 111.534241 320.904907 555.497131 111.831039 320.864441 567.496887 111.794083 320.934052 555.497498 112.081863 320.938263 567.497192 112.044907 321.007874 555.497498 112.316071 321.054504 567.497253 112.279114 321.124115 555.497253 112.526527 321.209656 567.497009 112.489571 321.279266 555.496704 112.706841 321.398987 567.496460 112.669884 321.468597 555.495911 112.851540 321.616760 567.495667 112.814583 321.686401 555.494812 112.956230 321.856354 567.494568 112.919273 321.925995 555.493530 113.017715 322.110504 567.493286 112.980759 322.180115 555.492065 113.034142 322.371429 567.491821 112.997185 322.441071 555.490479 113.005005 322.631287 567.490234 112.968048 322.700897 555.488831 112.931190 322.882111 567.488525 112.894234 322.951721 555.487122 112.814941 323.116302 567.486816 112.777985 323.185913 555.485413 112.659790 323.326752 567.485168 112.622833 323.396362 555.483765 112.470444 323.507050 567.483521 112.433487 323.576691 555.482239 112.252670 323.651764 567.481995 112.215714 323.721375 555.480896 112.013077 323.756439 567.480652 111.976120 323.826050 555.479797 111.758942 323.817932 567.479492 111.721985 323.887543 555.478882 111.497993 323.834351 567.478638 111.461037 323.903961 555.478271 111.238159 323.805206 567.477966 111.201202 323.874817 555.477905 110.987328 323.731384 567.477661 110.950371 323.800995 555.477844 110.753128 323.615143 567.477600 110.716171 323.684753 555.478088 110.542671 323.459961 567.477844 110.505714 323.529602 555.478638 110.362350 323.270630 567.478394 110.325394 323.340240 555.479492 110.217651 323.052856 567.479187 110.180695 323.122467 555.480530 110.112968 322.813263 567.480286 110.076012 322.882874 555.481812 110.051476 322.559143 567.481567 110.014519 322.628754 555.483276 110.035049 322.298187 567.483032 109.998093 322.367798 555.484863 110.064186 322.038361 567.484619 110.027229 322.107971 555.486572 110.138000 321.787537 567.486328 110.101044 321.857147 555.488281 110.254250 321.553345 555.487671 111.534599 322.334808 567.487427 111.497643 322.404419 "
							            />
						</IndexedFaceSet>
					</Shape>
				</Group>
			</Transform>
		</Transform>
	</Scene>
</X3D>