<?xml version="1.0" encoding="UTF-8"?>
<!DOCTYPE X3D PUBLIC "ISO//Web3D//DTD X3D 3.0//EN" "http://www.web3d.org/specifications/x3d-3.0.dtd">
<X3D version="3.0" profile="Immersive" xmlns:xsd="http://www.w3.org/2001/XMLSchema-instance" xsd:noNamespaceSchemaLocation="http://www.web3d.org/specifications/x3d-3.0.xsd">
	<head>
		<meta name="filename" content="OMLV4_Packing - For Xander - AIM-9X_Pylon_Assy-2 LAU179_Pylon_LinkBroken-1.x3d" />
		<meta name="created" content="2026-04-19 20:21:16" />
		<meta name="generator" content="Blender 4.3.2" />
		<meta name="translator" content="Web3D X3D/VRML2 format v2.5.1" />
	</head>
	<Scene>
		<NavigationInfo headlight="true"
		                visibilityLimit="0.0"
		                type='"EXAMINE", "ANY"'
		                avatarSize="0.25, 1.75, 0.75"
		                />
		<Background DEF="WO_World"
		            groundColor="0.051 0.051 0.051"
		            skyColor="0.051 0.051 0.051"
		            />
		<Transform DEF="OMLV4_Packing_-_For_Xander_-_AIM-9X_Pylon_Assy-2_LAU179_Pylon_L_TRANSFORM"
		           translation="0.000000 0.000000 0.000000"
		           scale="1.000000 1.000000 1.000000"
		           rotation="-1.000000 0.000000 0.000000 1.570796"
		           >
			<Transform DEF="OMLV4_Packing_-_For_Xander_-_AIM-9X_Pylon_Assy-2_LAU179_Pylon_L_ifs_TRANSFORM"
			           translation="0.000000 0.000000 0.000000"
			           scale="1.000000 1.000000 1.000000"
			           rotation="0.000000 1.000000 0.000000 0.000000"
			           >
				<Group DEF="group_ME_OMLV4_Packing_-_For_Xander_-_AIM-9X_Pylon_Assy-2_LAU179_Pylon_L">
					<Shape>
						<Appearance>
						</Appearance>
						<IndexedFaceSet solid="false"
						                coordIndex="0 1 2 -1 3 4 5 -1 5 4 6 -1 7 8 6 -1 6 8 9 -1 9 10 6 -1 6 10 11 -1 6 11 12 -1 12 11 13 -1 12 13 14 -1 12 15 6 -1 6 15 0 -1 6 0 5 -1 5 0 2 -1 7 16 8 -1 8 16 17 -1 8 17 18 -1 17 19 18 -1 18 19 20 -1 18 20 21 -1 21 20 22 -1 21 22 23 -1 23 22 24 -1 23 24 25 -1 23 26 27 -1 27 26 28 -1 25 29 23 -1 23 29 30 -1 23 30 26 -1 31 32 26 -1 26 32 33 -1 26 33 28 -1 34 35 36 -1 34 36 26 -1 26 36 37 -1 26 37 31 -1 38 39 40 -1 40 39 41 -1 3 42 4 -1 4 42 43 -1 44 45 4 -1 46 43 47 -1 47 43 48 -1 47 48 49 -1 46 50 43 -1 43 50 51 -1 43 51 52 -1 52 53 43 -1 43 53 38 -1 43 38 4 -1 4 38 40 -1 4 40 44 -1 45 54 4 -1 4 54 55 -1 4 55 56 -1 56 57 4 -1 4 57 58 -1 4 58 59 -1 60 42 5 -1 5 42 3 -1 61 62 60 -1 60 5 63 -1 63 5 2 -1 63 64 65 -1 60 63 61 -1 61 63 65 -1 61 65 66 -1 67 68 0 -1 0 68 1 -1 69 67 15 -1 15 67 0 -1 70 69 12 -1 12 69 15 -1 12 71 70 -1 70 71 72 -1 70 73 74 -1 75 12 76 -1 76 12 14 -1 77 78 79 -1 75 80 12 -1 12 80 81 -1 12 81 82 -1 14 83 76 -1 76 83 79 -1 76 79 84 -1 84 79 78 -1 82 85 12 -1 12 85 86 -1 12 86 71 -1 72 87 70 -1 70 87 88 -1 70 88 89 -1 89 90 70 -1 70 90 91 -1 70 91 73 -1 92 93 94 -1 79 95 96 -1 96 97 79 -1 79 97 98 -1 79 98 77 -1 74 99 70 -1 70 99 100 -1 70 100 101 -1 101 102 70 -1 70 102 103 -1 70 103 94 -1 94 103 104 -1 94 104 92 -1 105 106 107 -1 62 68 60 -1 60 68 67 -1 69 70 67 -1 67 70 108 -1 67 108 60 -1 60 108 43 -1 60 43 42 -1 70 94 109 -1 110 111 108 -1 70 109 108 -1 108 109 112 -1 108 112 110 -1 113 114 115 -1 115 114 106 -1 106 114 116 -1 106 116 107 -1 115 117 113 -1 113 117 118 -1 113 118 119 -1 119 118 120 -1 119 120 111 -1 111 120 121 -1 111 121 108 -1 122 123 107 -1 123 124 107 -1 107 124 125 -1 107 125 105 -1 126 107 127 -1 126 128 107 -1 107 128 129 -1 107 129 122 -1 130 127 131 -1 131 127 132 -1 130 133 127 -1 127 133 134 -1 127 134 126 -1 135 136 137 -1 137 136 138 -1 137 138 139 -1 139 138 140 -1 139 140 141 -1 141 140 142 -1 141 142 143 -1 143 142 144 -1 143 144 145 -1 145 144 146 -1 145 146 147 -1 147 146 148 -1 147 148 149 -1 149 148 150 -1 149 150 151 -1 151 150 152 -1 151 152 153 -1 153 152 154 -1 153 154 155 -1 155 154 156 -1 155 156 157 -1 157 156 158 -1 157 158 159 -1 159 158 160 -1 160 158 161 -1 160 161 162 -1 162 161 163 -1 162 163 164 -1 164 163 165 -1 164 165 166 -1 166 165 167 -1 166 167 168 -1 168 167 169 -1 168 169 170 -1 169 171 170 -1 170 171 172 -1 170 172 173 -1 173 172 174 -1 173 174 175 -1 175 174 176 -1 176 174 177 -1 176 177 178 -1 179 180 181 -1 181 180 182 -1 181 182 183 -1 183 182 184 -1 183 184 185 -1 185 184 178 -1 185 178 186 -1 186 178 177 -1 187 188 189 -1 189 188 190 -1 189 190 191 -1 191 190 192 -1 191 192 193 -1 193 192 194 -1 193 194 195 -1 195 194 196 -1 195 196 197 -1 197 196 198 -1 197 198 199 -1 199 198 200 -1 199 200 179 -1 179 200 201 -1 179 201 180 -1 72 71 202 -1 202 71 203 -1 202 203 187 -1 187 203 204 -1 187 204 188 -1 205 206 207 -1 208 114 113 -1 209 72 210 -1 211 212 213 -1 214 215 216 -1 99 74 217 -1 88 87 218 -1 218 87 72 -1 212 214 219 -1 220 221 222 -1 223 211 224 -1 72 225 218 -1 218 225 226 -1 218 226 88 -1 88 226 89 -1 72 227 225 -1 225 227 228 -1 225 228 226 -1 226 228 229 -1 226 229 89 -1 89 229 90 -1 72 230 227 -1 227 230 231 -1 227 231 228 -1 228 231 232 -1 228 232 229 -1 229 232 233 -1 229 233 90 -1 90 233 91 -1 234 235 236 -1 72 237 230 -1 230 237 238 -1 230 238 231 -1 231 238 239 -1 231 239 232 -1 232 239 240 -1 232 240 233 -1 233 240 241 -1 233 241 91 -1 91 241 73 -1 242 235 243 -1 243 235 234 -1 243 234 244 -1 72 245 237 -1 237 245 246 -1 237 246 238 -1 238 246 247 -1 238 247 239 -1 239 247 248 -1 239 248 240 -1 240 248 249 -1 240 249 241 -1 241 249 217 -1 241 217 73 -1 73 217 74 -1 250 242 251 -1 251 242 243 -1 251 243 252 -1 252 243 244 -1 252 244 253 -1 254 250 255 -1 255 250 251 -1 255 251 256 -1 256 251 252 -1 256 252 257 -1 257 252 253 -1 257 253 258 -1 72 209 259 -1 259 209 260 -1 259 260 261 -1 261 260 262 -1 261 262 263 -1 263 262 264 -1 263 264 265 -1 265 264 266 -1 265 266 267 -1 267 266 268 -1 267 268 269 -1 269 268 270 -1 269 270 271 -1 272 210 72 -1 273 254 274 -1 274 254 255 -1 274 255 275 -1 275 255 256 -1 275 256 276 -1 276 256 257 -1 276 257 277 -1 277 257 258 -1 277 258 278 -1 220 222 279 -1 279 222 280 -1 279 280 281 -1 281 280 282 -1 281 282 283 -1 283 282 284 -1 283 284 285 -1 285 284 286 -1 285 286 287 -1 287 286 288 -1 287 288 289 -1 289 288 290 -1 289 290 291 -1 291 290 292 -1 291 292 293 -1 294 273 295 -1 295 273 274 -1 295 274 296 -1 296 274 275 -1 296 275 297 -1 297 275 276 -1 297 276 298 -1 298 276 277 -1 298 277 299 -1 299 277 278 -1 214 216 219 -1 219 216 300 -1 219 300 301 -1 301 300 302 -1 301 302 303 -1 303 302 304 -1 303 304 305 -1 305 304 306 -1 305 306 307 -1 307 306 308 -1 307 308 309 -1 309 308 310 -1 309 310 311 -1 311 310 207 -1 311 207 312 -1 312 207 206 -1 312 206 313 -1 211 213 224 -1 224 213 314 -1 224 314 315 -1 315 314 316 -1 315 316 317 -1 317 316 318 -1 317 318 319 -1 319 318 320 -1 319 320 321 -1 321 320 322 -1 321 322 323 -1 323 322 324 -1 323 324 325 -1 325 324 326 -1 325 326 327 -1 327 326 328 -1 327 328 329 -1 212 219 213 -1 213 219 301 -1 213 301 314 -1 314 301 303 -1 314 303 316 -1 316 303 305 -1 316 305 318 -1 318 305 307 -1 318 307 320 -1 320 307 309 -1 320 309 322 -1 322 309 311 -1 322 311 324 -1 324 311 312 -1 324 312 326 -1 326 312 313 -1 326 313 328 -1 330 293 331 -1 331 293 292 -1 331 292 332 -1 332 292 290 -1 332 290 333 -1 333 290 288 -1 333 288 334 -1 334 288 286 -1 334 286 335 -1 335 286 284 -1 335 284 336 -1 336 284 282 -1 336 282 337 -1 337 282 280 -1 337 280 338 -1 338 280 222 -1 338 222 339 -1 339 222 221 -1 339 221 223 -1 223 224 339 -1 339 224 315 -1 339 315 338 -1 338 315 317 -1 338 317 337 -1 337 317 319 -1 337 319 336 -1 336 319 321 -1 336 321 335 -1 335 321 323 -1 335 323 334 -1 334 323 325 -1 334 325 333 -1 333 325 327 -1 333 327 332 -1 332 327 329 -1 332 329 331 -1 272 340 210 -1 210 340 299 -1 210 299 209 -1 209 299 278 -1 209 278 260 -1 260 278 258 -1 260 258 262 -1 262 258 253 -1 262 253 264 -1 264 253 244 -1 264 244 266 -1 266 244 234 -1 266 234 268 -1 268 234 236 -1 268 236 270 -1 341 294 342 -1 342 294 295 -1 342 295 343 -1 343 295 296 -1 343 296 344 -1 344 296 297 -1 344 297 345 -1 345 297 298 -1 345 298 346 -1 346 298 299 -1 346 299 347 -1 347 299 340 -1 94 93 348 -1 100 99 271 -1 271 99 217 -1 271 217 269 -1 269 217 249 -1 269 249 267 -1 267 249 248 -1 267 248 265 -1 265 248 247 -1 265 247 263 -1 263 247 246 -1 263 246 261 -1 261 246 245 -1 261 245 259 -1 259 245 72 -1 94 348 109 -1 109 348 349 -1 109 349 112 -1 349 350 112 -1 112 350 351 -1 112 351 110 -1 110 351 352 -1 110 352 111 -1 111 352 353 -1 111 353 119 -1 119 353 354 -1 119 354 113 -1 113 354 355 -1 113 355 208 -1 116 114 330 -1 330 114 208 -1 330 208 293 -1 293 208 355 -1 293 355 291 -1 291 355 354 -1 291 354 289 -1 289 354 353 -1 289 353 287 -1 287 353 352 -1 287 352 285 -1 285 352 351 -1 285 351 283 -1 283 351 350 -1 283 350 281 -1 281 350 349 -1 281 349 279 -1 279 349 348 -1 279 348 220 -1 220 348 93 -1 220 93 221 -1 221 93 92 -1 221 92 223 -1 223 92 104 -1 223 104 211 -1 211 104 103 -1 211 103 212 -1 212 103 102 -1 212 102 214 -1 214 102 101 -1 214 101 215 -1 215 101 100 -1 100 271 215 -1 215 271 270 -1 215 270 216 -1 216 270 236 -1 216 236 300 -1 300 236 235 -1 300 235 302 -1 302 235 242 -1 302 242 304 -1 304 242 250 -1 304 250 306 -1 306 250 254 -1 306 254 308 -1 308 254 273 -1 308 273 310 -1 310 273 294 -1 310 294 207 -1 207 294 341 -1 207 341 205 -1 356 11 357 -1 358 18 359 -1 360 71 361 -1 362 363 364 -1 365 366 367 -1 367 366 368 -1 368 366 369 -1 368 369 370 -1 371 372 373 -1 373 372 374 -1 373 374 375 -1 375 374 71 -1 360 361 376 -1 71 377 361 -1 361 377 378 -1 361 378 376 -1 376 378 379 -1 376 379 380 -1 380 379 364 -1 380 364 381 -1 381 364 363 -1 381 371 380 -1 380 371 373 -1 380 373 376 -1 376 373 375 -1 376 375 360 -1 360 375 71 -1 71 382 377 -1 377 382 383 -1 377 383 378 -1 378 383 384 -1 378 384 379 -1 379 384 385 -1 379 385 364 -1 364 385 386 -1 364 386 362 -1 362 386 387 -1 82 81 388 -1 388 81 80 -1 388 80 389 -1 389 80 390 -1 71 86 391 -1 391 86 85 -1 391 85 392 -1 392 85 82 -1 392 82 393 -1 393 82 388 -1 21 23 394 -1 394 23 395 -1 394 395 396 -1 396 395 365 -1 396 365 397 -1 397 365 367 -1 369 398 370 -1 370 398 399 -1 370 399 400 -1 400 399 401 -1 400 401 402 -1 402 401 403 -1 402 403 404 -1 404 403 405 -1 404 405 406 -1 18 21 359 -1 359 21 394 -1 359 394 407 -1 407 394 396 -1 407 396 408 -1 408 396 397 -1 408 397 409 -1 409 397 367 -1 409 367 410 -1 410 367 368 -1 410 368 411 -1 411 368 370 -1 411 370 412 -1 412 370 400 -1 412 400 413 -1 413 400 402 -1 413 402 414 -1 414 402 404 -1 414 404 415 -1 415 404 406 -1 415 406 416 -1 358 359 417 -1 417 359 407 -1 417 407 418 -1 418 407 408 -1 418 408 419 -1 419 408 409 -1 419 409 420 -1 420 409 410 -1 420 410 421 -1 421 410 411 -1 421 411 422 -1 422 411 412 -1 422 412 423 -1 423 412 413 -1 423 413 424 -1 424 413 414 -1 424 414 425 -1 425 414 415 -1 425 415 426 -1 426 415 416 -1 426 416 427 -1 8 18 428 -1 428 18 358 -1 428 358 429 -1 429 358 417 -1 429 417 430 -1 430 417 418 -1 430 418 431 -1 431 418 419 -1 431 419 432 -1 432 419 420 -1 432 420 433 -1 433 420 421 -1 433 421 434 -1 434 421 422 -1 434 422 435 -1 435 422 423 -1 435 423 436 -1 436 423 424 -1 436 424 437 -1 437 424 425 -1 437 425 438 -1 438 425 426 -1 438 426 439 -1 439 426 427 -1 439 427 440 -1 9 8 441 -1 441 8 428 -1 441 428 442 -1 442 428 429 -1 442 429 443 -1 443 429 430 -1 443 430 444 -1 444 430 431 -1 444 431 445 -1 445 431 432 -1 445 432 446 -1 446 432 433 -1 446 433 447 -1 447 433 434 -1 447 434 448 -1 448 434 435 -1 448 435 449 -1 449 435 436 -1 449 436 450 -1 450 436 437 -1 450 437 451 -1 451 437 438 -1 451 438 452 -1 452 438 439 -1 452 439 453 -1 453 439 440 -1 453 440 454 -1 10 9 455 -1 455 9 441 -1 455 441 456 -1 456 441 442 -1 456 442 457 -1 457 442 443 -1 457 443 458 -1 458 443 444 -1 458 444 459 -1 459 444 445 -1 459 445 460 -1 460 445 446 -1 460 446 461 -1 461 446 447 -1 461 447 462 -1 462 447 448 -1 462 448 463 -1 463 448 449 -1 463 449 464 -1 464 449 450 -1 464 450 465 -1 465 450 451 -1 465 451 466 -1 466 451 452 -1 466 452 467 -1 467 452 453 -1 467 453 468 -1 468 453 454 -1 468 454 469 -1 11 10 357 -1 357 10 455 -1 357 455 470 -1 470 455 456 -1 470 456 471 -1 471 456 457 -1 471 457 472 -1 472 457 458 -1 472 458 473 -1 473 458 459 -1 473 459 474 -1 474 459 460 -1 474 460 475 -1 475 460 461 -1 475 461 476 -1 476 461 462 -1 476 462 477 -1 477 462 463 -1 477 463 478 -1 478 463 464 -1 478 464 479 -1 479 464 465 -1 479 465 480 -1 480 465 466 -1 480 466 481 -1 481 466 467 -1 481 467 482 -1 482 467 468 -1 482 468 483 -1 483 468 469 -1 356 357 484 -1 484 357 470 -1 484 470 485 -1 485 470 471 -1 485 471 486 -1 486 471 472 -1 486 472 487 -1 487 472 473 -1 487 473 488 -1 488 473 474 -1 488 474 489 -1 489 474 475 -1 489 475 490 -1 490 475 476 -1 490 476 491 -1 491 476 477 -1 491 477 492 -1 492 477 478 -1 492 478 493 -1 493 478 479 -1 493 479 494 -1 494 479 480 -1 494 480 495 -1 495 480 481 -1 495 481 496 -1 496 481 482 -1 496 482 497 -1 497 482 483 -1 497 483 71 -1 469 71 483 -1 405 387 406 -1 406 387 386 -1 406 386 416 -1 416 386 385 -1 416 385 427 -1 427 385 384 -1 427 384 440 -1 440 384 383 -1 440 383 454 -1 454 383 382 -1 454 382 469 -1 469 382 71 -1 13 11 498 -1 498 11 356 -1 498 356 499 -1 499 356 484 -1 499 484 500 -1 500 484 485 -1 500 485 501 -1 501 485 486 -1 501 486 502 -1 502 486 487 -1 502 487 503 -1 503 487 488 -1 503 488 504 -1 504 488 489 -1 504 489 505 -1 505 489 490 -1 505 490 506 -1 506 490 491 -1 506 491 390 -1 390 491 492 -1 390 492 389 -1 389 492 493 -1 389 493 388 -1 388 493 494 -1 388 494 393 -1 393 494 495 -1 393 495 392 -1 392 495 496 -1 392 496 391 -1 391 496 497 -1 391 497 71 -1 14 13 83 -1 83 13 498 -1 83 498 79 -1 79 498 499 -1 79 499 95 -1 95 499 500 -1 95 500 96 -1 96 500 501 -1 96 501 97 -1 97 501 502 -1 97 502 98 -1 98 502 503 -1 98 503 77 -1 77 503 504 -1 77 504 78 -1 78 504 505 -1 78 505 84 -1 84 505 506 -1 84 506 76 -1 76 506 390 -1 76 390 75 -1 75 390 80 -1 507 508 509 -1 510 202 187 -1 511 512 513 -1 514 161 158 -1 515 144 142 -1 516 517 518 -1 138 136 519 -1 519 136 520 -1 138 519 140 -1 140 519 521 -1 140 521 142 -1 142 521 522 -1 142 522 515 -1 508 523 524 -1 148 525 526 -1 148 526 150 -1 150 526 527 -1 150 527 152 -1 508 524 509 -1 509 524 528 -1 509 528 529 -1 529 528 530 -1 529 530 531 -1 531 530 532 -1 531 532 533 -1 533 532 534 -1 533 534 535 -1 535 534 536 -1 535 536 537 -1 152 527 154 -1 154 527 538 -1 154 538 156 -1 156 538 539 -1 156 539 158 -1 158 539 540 -1 158 540 514 -1 541 542 543 -1 543 542 544 -1 545 167 546 -1 546 167 165 -1 546 165 514 -1 514 165 163 -1 514 163 161 -1 512 511 547 -1 547 511 548 -1 547 548 549 -1 550 174 551 -1 551 174 172 -1 551 172 552 -1 552 172 171 -1 552 171 545 -1 545 171 169 -1 545 169 167 -1 183 185 553 -1 553 185 186 -1 553 186 550 -1 550 186 177 -1 550 177 174 -1 554 555 556 -1 556 555 557 -1 556 557 558 -1 72 202 272 -1 272 202 510 -1 272 510 340 -1 340 510 347 -1 559 108 560 -1 560 108 121 -1 561 562 563 -1 562 561 564 -1 564 561 565 -1 564 565 566 -1 566 565 567 -1 567 565 568 -1 567 568 569 -1 569 568 570 -1 569 570 571 -1 571 570 572 -1 572 570 573 -1 572 573 574 -1 574 573 575 -1 574 575 576 -1 576 575 577 -1 576 577 578 -1 579 580 581 -1 582 577 583 -1 583 577 575 -1 583 575 584 -1 584 575 573 -1 584 573 585 -1 585 573 570 -1 585 570 586 -1 586 570 568 -1 586 568 587 -1 587 568 565 -1 587 565 588 -1 588 565 561 -1 588 561 589 -1 589 561 563 -1 589 563 590 -1 591 592 593 -1 594 582 595 -1 595 582 583 -1 595 583 596 -1 596 583 584 -1 596 584 597 -1 597 584 585 -1 597 585 598 -1 598 585 586 -1 598 586 599 -1 599 586 587 -1 599 587 600 -1 600 587 588 -1 600 588 601 -1 601 588 589 -1 601 589 602 -1 602 589 590 -1 602 590 603 -1 604 593 605 -1 605 593 592 -1 605 592 606 -1 607 594 608 -1 608 594 595 -1 608 595 609 -1 609 595 596 -1 609 596 610 -1 610 596 597 -1 610 597 611 -1 611 597 598 -1 611 598 612 -1 612 598 599 -1 612 599 613 -1 613 599 600 -1 613 600 614 -1 614 600 601 -1 614 601 615 -1 615 601 602 -1 615 602 560 -1 560 602 603 -1 560 603 559 -1 146 144 616 -1 616 144 515 -1 616 515 617 -1 617 515 522 -1 617 522 618 -1 618 522 521 -1 618 521 619 -1 619 521 519 -1 619 519 620 -1 620 519 520 -1 620 520 621 -1 591 120 592 -1 592 120 118 -1 592 118 606 -1 606 118 117 -1 606 117 115 -1 148 146 525 -1 525 146 616 -1 525 616 622 -1 622 616 617 -1 622 617 623 -1 623 617 618 -1 623 618 624 -1 624 618 619 -1 624 619 625 -1 625 619 620 -1 625 620 579 -1 579 620 621 -1 579 621 580 -1 626 627 628 -1 628 627 629 -1 628 629 630 -1 630 629 631 -1 630 631 632 -1 632 631 633 -1 632 633 634 -1 635 626 636 -1 636 626 628 -1 636 628 637 -1 637 628 630 -1 637 630 638 -1 638 630 632 -1 638 632 639 -1 639 632 634 -1 639 634 640 -1 641 635 642 -1 642 635 636 -1 642 636 643 -1 643 636 637 -1 643 637 644 -1 644 637 638 -1 644 638 645 -1 645 638 639 -1 645 639 646 -1 646 639 640 -1 646 640 647 -1 647 648 646 -1 646 648 649 -1 646 649 645 -1 645 649 650 -1 645 650 644 -1 644 650 651 -1 644 651 643 -1 643 651 652 -1 643 652 642 -1 642 652 653 -1 642 653 641 -1 641 653 654 -1 648 655 649 -1 649 655 656 -1 649 656 650 -1 650 656 657 -1 650 657 651 -1 651 657 658 -1 651 658 652 -1 652 658 659 -1 652 659 653 -1 653 659 660 -1 653 660 654 -1 654 660 661 -1 633 604 634 -1 634 604 605 -1 634 605 640 -1 640 605 606 -1 640 606 647 -1 647 606 115 -1 647 115 648 -1 648 115 106 -1 648 106 655 -1 655 106 662 -1 655 662 656 -1 656 662 663 -1 656 663 657 -1 657 663 664 -1 657 664 658 -1 658 664 665 -1 658 665 659 -1 659 665 666 -1 659 666 660 -1 660 666 667 -1 660 667 661 -1 661 667 544 -1 668 536 669 -1 669 536 534 -1 669 534 670 -1 670 534 532 -1 670 532 671 -1 671 532 530 -1 671 530 672 -1 672 530 528 -1 672 528 673 -1 673 528 524 -1 673 524 674 -1 674 524 523 -1 674 523 675 -1 106 105 662 -1 662 105 676 -1 662 676 663 -1 663 676 677 -1 663 677 664 -1 664 677 678 -1 664 678 665 -1 665 678 679 -1 665 679 666 -1 666 679 680 -1 666 680 667 -1 667 680 681 -1 667 681 544 -1 544 681 682 -1 544 682 543 -1 541 668 542 -1 542 668 669 -1 542 669 544 -1 544 669 670 -1 544 670 661 -1 661 670 671 -1 661 671 654 -1 654 671 672 -1 654 672 641 -1 641 672 673 -1 641 673 635 -1 635 673 674 -1 635 674 626 -1 626 674 675 -1 626 675 627 -1 105 125 676 -1 676 125 683 -1 676 683 677 -1 677 683 684 -1 677 684 678 -1 678 684 685 -1 678 685 679 -1 679 685 686 -1 679 686 680 -1 680 686 687 -1 680 687 681 -1 681 687 688 -1 681 688 682 -1 682 688 689 -1 682 689 543 -1 543 689 690 -1 543 690 541 -1 537 536 691 -1 691 536 668 -1 691 668 513 -1 513 668 541 -1 513 541 511 -1 511 541 690 -1 511 690 548 -1 548 690 692 -1 548 692 549 -1 549 692 693 -1 549 693 694 -1 694 693 695 -1 694 695 696 -1 124 123 697 -1 697 123 698 -1 697 698 699 -1 699 698 700 -1 699 700 701 -1 701 700 702 -1 701 702 703 -1 703 702 704 -1 703 704 705 -1 705 704 706 -1 705 706 707 -1 707 706 708 -1 707 708 709 -1 709 708 710 -1 709 710 711 -1 711 710 712 -1 181 183 713 -1 713 183 553 -1 713 553 714 -1 714 553 550 -1 714 550 715 -1 715 550 551 -1 715 551 716 -1 716 551 552 -1 716 552 717 -1 717 552 545 -1 717 545 718 -1 718 545 546 -1 718 546 719 -1 719 546 514 -1 719 514 720 -1 720 514 540 -1 720 540 721 -1 721 540 539 -1 721 539 722 -1 722 539 538 -1 722 538 723 -1 723 538 527 -1 723 527 724 -1 724 527 526 -1 724 526 725 -1 725 526 525 -1 725 525 726 -1 726 525 622 -1 726 622 727 -1 727 622 623 -1 727 623 728 -1 728 623 624 -1 728 624 729 -1 729 624 625 -1 729 625 730 -1 730 625 579 -1 730 579 516 -1 516 579 581 -1 516 581 517 -1 123 122 698 -1 698 122 731 -1 698 731 700 -1 700 731 732 -1 700 732 702 -1 702 732 733 -1 702 733 704 -1 704 733 734 -1 704 734 706 -1 706 734 735 -1 706 735 708 -1 708 735 736 -1 708 736 710 -1 710 736 737 -1 710 737 712 -1 712 737 738 -1 125 124 683 -1 683 124 697 -1 683 697 684 -1 684 697 699 -1 684 699 685 -1 685 699 701 -1 685 701 686 -1 686 701 703 -1 686 703 687 -1 687 703 705 -1 687 705 688 -1 688 705 707 -1 688 707 689 -1 689 707 709 -1 689 709 690 -1 690 709 711 -1 690 711 692 -1 692 711 712 -1 692 712 693 -1 693 712 738 -1 693 738 695 -1 507 509 739 -1 739 509 529 -1 739 529 740 -1 740 529 531 -1 740 531 741 -1 741 531 533 -1 741 533 742 -1 742 533 535 -1 742 535 743 -1 743 535 537 -1 743 537 744 -1 744 537 691 -1 744 691 745 -1 745 691 513 -1 745 513 746 -1 746 513 512 -1 746 512 747 -1 747 512 547 -1 747 547 748 -1 748 547 549 -1 748 549 749 -1 749 549 694 -1 749 694 557 -1 557 694 696 -1 557 696 558 -1 121 120 560 -1 560 120 591 -1 560 591 615 -1 615 591 593 -1 615 593 614 -1 614 593 604 -1 614 604 613 -1 613 604 633 -1 613 633 612 -1 612 633 631 -1 612 631 611 -1 611 631 629 -1 611 629 610 -1 610 629 627 -1 610 627 609 -1 609 627 675 -1 609 675 608 -1 608 675 523 -1 608 523 607 -1 607 523 508 -1 607 508 750 -1 750 508 507 -1 750 507 751 -1 751 507 739 -1 751 739 752 -1 752 739 740 -1 752 740 753 -1 753 740 741 -1 753 741 754 -1 754 741 742 -1 754 742 755 -1 755 742 743 -1 755 743 756 -1 756 743 744 -1 756 744 757 -1 757 744 745 -1 757 745 758 -1 758 745 746 -1 758 746 759 -1 759 746 747 -1 759 747 760 -1 760 747 748 -1 760 748 761 -1 761 748 749 -1 761 749 762 -1 762 749 557 -1 762 557 763 -1 763 557 555 -1 763 555 764 -1 764 555 554 -1 764 554 765 -1 193 195 766 -1 766 195 197 -1 766 197 767 -1 767 197 199 -1 767 199 768 -1 768 199 179 -1 768 179 769 -1 769 179 181 -1 769 181 770 -1 770 181 713 -1 770 713 771 -1 771 713 714 -1 771 714 772 -1 772 714 715 -1 772 715 773 -1 773 715 716 -1 773 716 774 -1 774 716 717 -1 774 717 775 -1 775 717 718 -1 775 718 776 -1 776 718 719 -1 776 719 777 -1 777 719 720 -1 777 720 778 -1 778 720 721 -1 778 721 779 -1 779 721 722 -1 779 722 780 -1 780 722 723 -1 780 723 781 -1 781 723 724 -1 781 724 782 -1 782 724 725 -1 782 725 783 -1 783 725 726 -1 783 726 784 -1 784 726 727 -1 784 727 785 -1 785 727 728 -1 785 728 786 -1 786 728 729 -1 786 729 787 -1 787 729 730 -1 787 730 788 -1 788 730 516 -1 788 516 789 -1 789 516 518 -1 789 518 790 -1 122 129 731 -1 731 129 791 -1 731 791 732 -1 732 791 792 -1 732 792 733 -1 733 792 793 -1 733 793 734 -1 734 793 794 -1 734 794 735 -1 735 794 795 -1 735 795 736 -1 736 795 796 -1 736 796 737 -1 737 796 797 -1 737 797 738 -1 738 797 798 -1 738 798 695 -1 695 798 799 -1 695 799 696 -1 696 799 800 -1 696 800 558 -1 558 800 801 -1 558 801 556 -1 556 801 802 -1 556 802 554 -1 554 802 803 -1 554 803 765 -1 765 803 804 -1 129 128 791 -1 791 128 805 -1 791 805 792 -1 792 805 806 -1 792 806 793 -1 793 806 807 -1 793 807 794 -1 794 807 808 -1 794 808 795 -1 795 808 809 -1 795 809 796 -1 796 809 810 -1 796 810 797 -1 797 810 811 -1 797 811 798 -1 798 811 812 -1 798 812 799 -1 799 812 813 -1 799 813 800 -1 800 813 814 -1 800 814 801 -1 801 814 815 -1 801 815 802 -1 802 815 816 -1 802 816 803 -1 803 816 817 -1 803 817 804 -1 804 817 818 -1 128 126 805 -1 805 126 819 -1 805 819 806 -1 806 819 820 -1 806 820 807 -1 807 820 821 -1 807 821 808 -1 808 821 822 -1 808 822 809 -1 809 822 823 -1 809 823 810 -1 810 823 824 -1 810 824 811 -1 811 824 825 -1 811 825 812 -1 812 825 826 -1 812 826 813 -1 813 826 827 -1 813 827 814 -1 814 827 828 -1 814 828 815 -1 815 828 829 -1 815 829 816 -1 816 829 830 -1 816 830 817 -1 817 830 831 -1 817 831 818 -1 818 831 832 -1 126 134 819 -1 819 134 833 -1 819 833 820 -1 820 833 834 -1 820 834 821 -1 821 834 835 -1 821 835 822 -1 822 835 836 -1 822 836 823 -1 823 836 837 -1 823 837 824 -1 824 837 838 -1 824 838 825 -1 825 838 839 -1 825 839 826 -1 826 839 840 -1 826 840 827 -1 827 840 841 -1 827 841 828 -1 828 841 842 -1 828 842 829 -1 829 842 843 -1 829 843 830 -1 830 843 844 -1 830 844 831 -1 831 844 845 -1 831 845 832 -1 832 845 846 -1 191 193 847 -1 847 193 766 -1 847 766 846 -1 846 766 767 -1 846 767 832 -1 832 767 768 -1 832 768 818 -1 818 768 769 -1 818 769 804 -1 804 769 770 -1 804 770 765 -1 765 770 771 -1 765 771 764 -1 764 771 772 -1 764 772 763 -1 763 772 773 -1 763 773 762 -1 762 773 774 -1 762 774 761 -1 761 774 775 -1 761 775 760 -1 760 775 776 -1 760 776 759 -1 759 776 777 -1 759 777 758 -1 758 777 778 -1 758 778 757 -1 757 778 779 -1 757 779 756 -1 756 779 780 -1 756 780 755 -1 755 780 781 -1 755 781 754 -1 754 781 782 -1 754 782 753 -1 753 782 783 -1 753 783 752 -1 752 783 784 -1 752 784 751 -1 751 784 785 -1 751 785 750 -1 750 785 786 -1 750 786 607 -1 607 786 787 -1 607 787 594 -1 594 787 788 -1 594 788 582 -1 582 788 789 -1 582 789 577 -1 577 789 790 -1 577 790 578 -1 848 849 850 -1 850 849 851 -1 850 851 852 -1 852 851 853 -1 852 853 854 -1 854 853 855 -1 854 855 856 -1 856 855 857 -1 856 857 858 -1 858 857 859 -1 858 859 860 -1 860 859 861 -1 860 861 862 -1 862 861 863 -1 862 863 864 -1 864 863 865 -1 864 865 866 -1 866 865 867 -1 866 867 868 -1 868 867 869 -1 868 869 870 -1 870 869 871 -1 870 871 872 -1 872 871 873 -1 872 873 874 -1 874 873 875 -1 874 875 876 -1 876 875 877 -1 132 127 878 -1 849 879 851 -1 851 879 880 -1 851 880 853 -1 853 880 881 -1 853 881 855 -1 855 881 882 -1 855 882 857 -1 857 882 883 -1 857 883 859 -1 859 883 884 -1 859 884 861 -1 861 884 885 -1 861 885 863 -1 863 885 886 -1 863 886 865 -1 865 886 887 -1 865 887 867 -1 867 887 888 -1 867 888 869 -1 869 888 889 -1 869 889 871 -1 871 889 890 -1 871 890 873 -1 873 890 891 -1 873 891 875 -1 875 891 892 -1 875 892 877 -1 877 892 893 -1 879 894 880 -1 880 894 895 -1 880 895 881 -1 881 895 896 -1 881 896 882 -1 882 896 897 -1 882 897 883 -1 883 897 898 -1 883 898 884 -1 884 898 899 -1 884 899 885 -1 885 899 900 -1 885 900 886 -1 886 900 901 -1 886 901 887 -1 887 901 902 -1 887 902 888 -1 888 902 903 -1 888 903 889 -1 889 903 904 -1 889 904 890 -1 890 904 905 -1 890 905 891 -1 891 905 906 -1 891 906 892 -1 892 906 907 -1 892 907 893 -1 893 907 908 -1 331 909 910 -1 910 909 911 -1 910 911 912 -1 912 911 878 -1 848 133 849 -1 849 133 130 -1 849 130 879 -1 879 130 131 -1 879 131 894 -1 894 131 913 -1 894 913 895 -1 895 913 914 -1 895 914 896 -1 896 914 915 -1 896 915 897 -1 897 915 916 -1 897 916 898 -1 898 916 917 -1 898 917 899 -1 899 917 918 -1 899 918 900 -1 900 918 919 -1 900 919 901 -1 901 919 920 -1 901 920 902 -1 902 920 921 -1 902 921 903 -1 903 921 922 -1 903 922 904 -1 904 922 923 -1 904 923 905 -1 905 923 924 -1 905 924 906 -1 906 924 925 -1 906 925 907 -1 907 925 926 -1 907 926 908 -1 116 330 107 -1 107 330 927 -1 107 927 127 -1 878 127 912 -1 912 127 927 -1 912 927 910 -1 910 927 330 -1 910 330 331 -1 131 132 913 -1 913 132 878 -1 913 878 914 -1 914 878 911 -1 914 911 915 -1 915 911 909 -1 915 909 916 -1 916 909 331 -1 916 331 917 -1 917 331 329 -1 917 329 918 -1 918 329 328 -1 918 328 919 -1 919 328 313 -1 919 313 920 -1 920 313 206 -1 920 206 921 -1 206 205 921 -1 921 205 341 -1 921 341 922 -1 922 341 342 -1 922 342 923 -1 923 342 343 -1 923 343 924 -1 924 343 344 -1 924 344 925 -1 925 344 345 -1 925 345 926 -1 926 345 346 -1 346 347 926 -1 926 347 510 -1 926 510 908 -1 908 510 187 -1 908 187 893 -1 893 187 189 -1 893 189 877 -1 877 189 191 -1 877 191 876 -1 876 191 847 -1 876 847 874 -1 874 847 846 -1 874 846 872 -1 872 846 845 -1 872 845 870 -1 870 845 844 -1 870 844 868 -1 868 844 843 -1 868 843 866 -1 866 843 842 -1 866 842 864 -1 864 842 841 -1 864 841 862 -1 862 841 840 -1 862 840 860 -1 860 840 839 -1 860 839 858 -1 858 839 838 -1 858 838 856 -1 856 838 837 -1 856 837 854 -1 854 837 836 -1 854 836 852 -1 852 836 835 -1 852 835 850 -1 850 835 834 -1 850 834 848 -1 848 834 833 -1 848 833 133 -1 133 833 134 -1 928 39 38 -1 928 38 929 -1 929 38 53 -1 929 53 930 -1 930 53 931 -1 931 53 52 -1 931 52 932 -1 932 52 933 -1 933 52 51 -1 933 51 934 -1 934 51 935 -1 935 51 50 -1 935 50 936 -1 936 50 46 -1 936 46 937 -1 937 46 938 -1 938 46 47 -1 938 47 939 -1 939 47 940 -1 940 47 49 -1 940 49 941 -1 941 49 942 -1 942 49 48 -1 942 48 943 -1 943 48 43 -1 943 43 108 -1 944 27 945 -1 945 27 28 -1 946 31 37 -1 175 176 947 -1 948 949 950 -1 951 952 953 -1 954 955 956 -1 957 958 959 -1 960 961 962 -1 955 963 964 -1 964 963 957 -1 965 966 954 -1 967 968 969 -1 6 968 970 -1 971 972 973 -1 6 970 7 -1 7 970 974 -1 7 974 16 -1 16 974 17 -1 17 974 975 -1 17 975 19 -1 976 977 978 -1 978 977 979 -1 978 979 980 -1 19 975 20 -1 20 975 981 -1 20 981 22 -1 982 24 983 -1 983 24 22 -1 983 22 984 -1 984 22 981 -1 971 973 985 -1 985 973 986 -1 985 986 987 -1 987 986 988 -1 987 988 989 -1 989 988 990 -1 989 990 991 -1 991 990 992 -1 991 992 993 -1 993 992 994 -1 993 994 995 -1 995 994 996 -1 995 996 997 -1 997 996 998 -1 997 998 999 -1 999 998 1000 -1 999 1000 1001 -1 1001 1000 1002 -1 1001 1002 1003 -1 1003 1002 1004 -1 1003 1004 1005 -1 1005 1004 1006 -1 1005 1006 1007 -1 1008 1009 1010 -1 982 1011 24 -1 24 1011 1012 -1 24 1012 25 -1 25 1012 1013 -1 25 1013 29 -1 29 1013 1014 -1 29 1014 30 -1 30 1014 1015 -1 30 1015 26 -1 26 1015 1016 -1 26 1016 34 -1 34 1016 1017 -1 34 1017 35 -1 35 1017 1018 -1 35 1018 36 -1 36 1018 1019 -1 36 1019 37 -1 37 1019 1020 -1 37 1020 946 -1 946 1021 31 -1 31 1021 1022 -1 31 1022 32 -1 32 1022 1023 -1 32 1023 33 -1 33 1023 1024 -1 33 1024 28 -1 28 1024 1025 -1 28 1025 945 -1 1008 1010 1026 -1 1026 1010 1027 -1 1026 1027 1028 -1 1028 1027 1029 -1 1028 1029 1030 -1 1030 1029 1031 -1 1030 1031 1032 -1 1032 1031 1033 -1 1032 1033 1034 -1 1034 1033 1035 -1 1034 1035 1036 -1 1036 1035 1037 -1 1036 1037 1038 -1 1038 1037 1039 -1 1038 1039 1040 -1 1040 1039 1041 -1 1040 1041 1042 -1 1042 1041 362 -1 1042 362 387 -1 1043 405 403 -1 1044 401 399 -1 957 959 964 -1 964 959 1045 -1 964 1045 1046 -1 1046 1045 1047 -1 1046 1047 1048 -1 1048 1047 1049 -1 1048 1049 1050 -1 1050 1049 1051 -1 1050 1051 1052 -1 1052 1051 1053 -1 1052 1053 1054 -1 1054 1053 1055 -1 1054 1055 1056 -1 1056 1055 1057 -1 1056 1057 1058 -1 1058 1057 1059 -1 1058 1059 1060 -1 1060 1059 1061 -1 1060 1061 1062 -1 1062 1061 1063 -1 1062 1063 1064 -1 1064 1063 1065 -1 1064 1065 1066 -1 1066 1065 1067 -1 1066 1067 1068 -1 1068 1067 1069 -1 1068 1069 1070 -1 1070 1069 1071 -1 1070 1071 1072 -1 1072 1071 1073 -1 1072 1073 1074 -1 1074 1073 1075 -1 1074 1075 1076 -1 1076 1075 1077 -1 1076 1077 1078 -1 1078 1077 1079 -1 1078 1079 1080 -1 1080 1079 1081 -1 1080 1081 1082 -1 1082 1081 1083 -1 1082 1083 1084 -1 1084 1083 1085 -1 1084 1085 1086 -1 1086 1085 1087 -1 1086 1087 1088 -1 1088 1087 1089 -1 1088 1089 1090 -1 1090 1089 1044 -1 1090 1044 1091 -1 1091 1044 399 -1 1091 399 398 -1 954 956 965 -1 965 956 1092 -1 965 1092 1093 -1 1093 1092 1094 -1 1093 1094 1095 -1 1095 1094 1096 -1 1095 1096 1097 -1 1097 1096 1098 -1 1097 1098 1099 -1 1099 1098 1100 -1 1099 1100 1101 -1 1101 1100 1102 -1 1101 1102 1103 -1 1103 1102 1104 -1 1103 1104 1105 -1 1105 1104 1106 -1 1105 1106 1107 -1 1107 1106 1108 -1 1107 1108 1109 -1 1109 1108 1110 -1 1109 1110 1111 -1 1111 1110 1112 -1 1111 1112 1113 -1 1113 1112 1114 -1 1113 1114 1115 -1 1115 1114 1116 -1 1115 1116 1117 -1 1117 1116 1118 -1 1117 1118 1119 -1 1119 1118 1120 -1 1119 1120 1121 -1 1121 1120 1122 -1 1121 1122 1123 -1 1123 1122 1124 -1 1123 1124 1125 -1 1125 1124 1126 -1 1125 1126 1127 -1 1127 1126 1128 -1 1127 1128 1129 -1 1129 1128 1130 -1 1129 1130 1131 -1 1131 1130 1132 -1 1131 1132 1133 -1 1133 1132 1134 -1 1133 1134 1135 -1 1135 1134 1136 -1 1135 1136 1137 -1 1137 1136 1138 -1 1137 1138 1139 -1 1139 1138 369 -1 1139 369 366 -1 135 137 1140 -1 1140 137 1141 -1 1140 1141 1142 -1 962 1143 960 -1 960 1143 1144 -1 960 1144 1145 -1 1145 1144 1146 -1 1145 1146 1147 -1 971 1148 972 -1 972 1148 1149 -1 972 1149 1150 -1 1151 961 1152 -1 1152 961 960 -1 1152 960 1153 -1 1153 960 1145 -1 1153 1145 1154 -1 1154 1145 1147 -1 1154 1147 1155 -1 1156 1157 1158 -1 977 1151 979 -1 979 1151 1152 -1 979 1152 980 -1 980 1152 1153 -1 980 1153 1159 -1 1159 1153 1154 -1 1159 1154 1160 -1 1160 1154 1155 -1 1160 1155 1161 -1 1158 1162 951 -1 948 950 1163 -1 1163 950 1164 -1 1163 1164 1165 -1 1165 1164 1166 -1 1165 1166 1167 -1 1167 1166 1168 -1 1167 1168 1169 -1 1169 1168 1170 -1 1169 1170 1171 -1 1171 1170 1172 -1 1171 1172 1173 -1 1173 1172 1174 -1 1173 1174 1175 -1 1175 1174 1176 -1 1175 1176 1177 -1 1177 1176 976 -1 1177 976 1178 -1 1178 976 978 -1 1178 978 1179 -1 1179 978 980 -1 1179 980 1180 -1 1180 980 1159 -1 1180 1159 1181 -1 1181 1159 1160 -1 1181 1160 1141 -1 1141 1160 1161 -1 1141 1161 1142 -1 139 141 1156 -1 1156 141 143 -1 1156 143 1157 -1 1157 143 145 -1 1157 145 1182 -1 1182 145 147 -1 1182 147 1183 -1 1183 147 149 -1 1183 149 1184 -1 1184 149 151 -1 1184 151 1185 -1 1158 1157 1162 -1 1162 1157 1182 -1 1162 1182 1186 -1 1186 1182 1183 -1 1186 1183 1187 -1 1187 1183 1184 -1 1187 1184 1188 -1 1188 1184 1185 -1 1188 1185 1189 -1 951 1162 952 -1 952 1162 1186 -1 952 1186 1190 -1 1190 1186 1187 -1 1190 1187 1191 -1 1191 1187 1188 -1 1191 1188 1192 -1 1192 1188 1189 -1 1192 1189 1193 -1 1194 1195 1196 -1 1194 153 1195 -1 1195 153 155 -1 1195 155 1197 -1 1197 155 157 -1 1197 157 1198 -1 1198 157 159 -1 1198 159 1199 -1 1199 159 160 -1 1196 1195 1200 -1 1200 1195 1197 -1 1200 1197 1201 -1 1201 1197 1198 -1 1201 1198 1202 -1 1202 1198 1199 -1 1202 1199 1203 -1 151 153 1185 -1 1185 153 1194 -1 1185 1194 1189 -1 1189 1194 1196 -1 1189 1196 1193 -1 1193 1196 1200 -1 1193 1200 1204 -1 1204 1200 1201 -1 1204 1201 1205 -1 1205 1201 1202 -1 1205 1202 1206 -1 1206 1202 1203 -1 1206 1203 1207 -1 164 166 1208 -1 953 952 1209 -1 1209 952 1190 -1 1209 1190 1210 -1 1210 1190 1191 -1 1210 1191 1211 -1 1211 1191 1192 -1 1211 1192 1212 -1 1212 1192 1193 -1 1212 1193 1213 -1 1213 1193 1204 -1 1213 1204 1214 -1 1214 1204 1205 -1 1214 1205 1215 -1 1215 1205 1206 -1 1215 1206 1216 -1 1216 1206 1207 -1 1216 1207 1217 -1 137 139 1141 -1 1141 139 1156 -1 1141 1156 1181 -1 1181 1156 1158 -1 1181 1158 1180 -1 1180 1158 951 -1 1180 951 1179 -1 1179 951 953 -1 1179 953 1178 -1 1178 953 1209 -1 1178 1209 1177 -1 1177 1209 1210 -1 1177 1210 1175 -1 1175 1210 1211 -1 1175 1211 1173 -1 1173 1211 1212 -1 1173 1212 1171 -1 1171 1212 1213 -1 1171 1213 1169 -1 1169 1213 1214 -1 1169 1214 1167 -1 1167 1214 1215 -1 1167 1215 1165 -1 1165 1215 1216 -1 1165 1216 1163 -1 1163 1216 1217 -1 1163 1217 948 -1 1218 1007 1219 -1 1219 1007 1006 -1 1219 1006 949 -1 949 1006 1004 -1 949 1004 950 -1 950 1004 1002 -1 950 1002 1164 -1 1164 1002 1000 -1 1164 1000 1166 -1 1166 1000 998 -1 1166 998 1168 -1 1168 998 996 -1 1168 996 1170 -1 1170 996 994 -1 1170 994 1172 -1 1172 994 992 -1 1172 992 1174 -1 1174 992 990 -1 1174 990 1176 -1 1176 990 988 -1 1176 988 976 -1 976 988 986 -1 976 986 977 -1 977 986 973 -1 977 973 1151 -1 1151 973 972 -1 1151 972 961 -1 961 972 1150 -1 961 1150 962 -1 170 173 1220 -1 160 162 1199 -1 1199 162 1221 -1 1199 1221 1203 -1 1203 1221 1222 -1 1203 1222 1207 -1 1207 1222 1223 -1 1207 1223 1217 -1 1217 1223 1224 -1 1217 1224 948 -1 948 1224 1225 -1 948 1225 949 -1 949 1225 1226 -1 949 1226 1219 -1 1219 1226 1227 -1 1219 1227 1218 -1 1218 1227 1228 -1 1218 1228 1229 -1 1229 1228 1230 -1 1229 1230 1231 -1 1231 1230 1232 -1 1231 1232 1233 -1 1233 1232 1234 -1 1233 1234 1235 -1 1235 1234 1236 -1 1235 1236 1237 -1 1237 1236 1238 -1 1237 1238 1239 -1 1239 1238 1240 -1 1239 1240 1241 -1 1241 1240 1242 -1 1241 1242 1243 -1 1243 1242 1244 -1 1243 1244 1245 -1 1245 1244 1246 -1 1245 1246 1247 -1 1247 1246 1043 -1 1247 1043 1248 -1 1248 1043 403 -1 1248 403 401 -1 947 1249 1250 -1 166 168 1208 -1 1208 168 1251 -1 1208 1251 1252 -1 1252 1251 1253 -1 1252 1253 1254 -1 1254 1253 1255 -1 1254 1255 1256 -1 1256 1255 1257 -1 1256 1257 1258 -1 1258 1257 1259 -1 1258 1259 1260 -1 1260 1259 1261 -1 947 176 1249 -1 1249 176 178 -1 1249 178 1262 -1 1262 178 184 -1 1262 184 1263 -1 1263 184 182 -1 1263 182 1264 -1 168 170 1251 -1 1251 170 1220 -1 1251 1220 1253 -1 1253 1220 1265 -1 1253 1265 1255 -1 1255 1265 1266 -1 1255 1266 1257 -1 1257 1266 1267 -1 1257 1267 1259 -1 1259 1267 1009 -1 1259 1009 1261 -1 1261 1009 1008 -1 182 180 1264 -1 1264 180 201 -1 1264 201 1268 -1 1268 201 200 -1 1268 200 1269 -1 1269 200 198 -1 1269 198 1270 -1 1250 1249 1271 -1 1271 1249 1262 -1 1271 1262 1272 -1 1272 1262 1263 -1 1272 1263 1273 -1 1273 1263 1264 -1 1273 1264 1274 -1 1274 1264 1268 -1 1274 1268 1275 -1 1275 1268 1269 -1 1275 1269 1276 -1 1276 1269 1270 -1 1276 1270 1277 -1 203 1278 204 -1 204 1278 1279 -1 204 1279 188 -1 188 1279 1280 -1 188 1280 190 -1 190 1280 1281 -1 190 1281 192 -1 192 1281 1282 -1 192 1282 194 -1 194 1282 1283 -1 194 1283 196 -1 198 196 1270 -1 1270 196 1283 -1 1270 1283 1277 -1 1277 1283 1282 -1 1277 1282 1284 -1 1284 1282 1281 -1 1284 1281 1285 -1 1285 1281 1280 -1 1285 1280 1286 -1 1286 1280 1279 -1 1286 1279 1287 -1 1287 1279 1278 -1 1287 1288 1286 -1 1286 1288 1289 -1 1286 1289 1285 -1 1285 1289 1290 -1 1285 1290 1284 -1 1284 1290 1291 -1 1284 1291 1277 -1 1277 1291 1292 -1 1277 1292 1276 -1 1276 1292 1293 -1 1276 1293 1275 -1 1275 1293 1294 -1 1275 1294 1274 -1 1274 1294 1295 -1 1274 1295 1273 -1 1273 1295 1296 -1 1273 1296 1272 -1 1272 1296 1297 -1 1272 1297 1271 -1 1271 1297 1298 -1 1271 1298 1250 -1 1288 1299 1289 -1 1289 1299 1300 -1 1289 1300 1290 -1 1290 1300 1301 -1 1290 1301 1291 -1 1291 1301 1302 -1 1291 1302 1292 -1 1292 1302 1303 -1 1292 1303 1293 -1 1293 1303 1304 -1 1293 1304 1294 -1 1294 1304 1305 -1 1294 1305 1295 -1 1295 1305 1306 -1 1295 1306 1296 -1 1296 1306 1307 -1 1296 1307 1297 -1 1297 1307 1308 -1 1297 1308 1298 -1 401 1044 1248 -1 1248 1044 1089 -1 1248 1089 1247 -1 1247 1089 1087 -1 1247 1087 1245 -1 1245 1087 1085 -1 1245 1085 1243 -1 1243 1085 1083 -1 1243 1083 1241 -1 1241 1083 1081 -1 1241 1081 1239 -1 1239 1081 1079 -1 1239 1079 1237 -1 1237 1079 1077 -1 1237 1077 1235 -1 1235 1077 1075 -1 1235 1075 1233 -1 1233 1075 1073 -1 1233 1073 1231 -1 1231 1073 1071 -1 1231 1071 1229 -1 1229 1071 1069 -1 1229 1069 1218 -1 1218 1069 1067 -1 1218 1067 1007 -1 1007 1067 1065 -1 1007 1065 1005 -1 1005 1065 1063 -1 1005 1063 1003 -1 1003 1063 1061 -1 1003 1061 1001 -1 1001 1061 1059 -1 1001 1059 999 -1 999 1059 1057 -1 999 1057 997 -1 997 1057 1055 -1 997 1055 995 -1 995 1055 1053 -1 995 1053 993 -1 993 1053 1051 -1 993 1051 991 -1 991 1051 1049 -1 991 1049 989 -1 989 1049 1047 -1 989 1047 987 -1 987 1047 1045 -1 987 1045 985 -1 985 1045 959 -1 985 959 971 -1 971 959 958 -1 971 958 1148 -1 968 967 970 -1 970 967 1309 -1 970 1309 974 -1 974 1309 1310 -1 974 1310 975 -1 975 1310 1311 -1 975 1311 981 -1 981 1311 1312 -1 981 1312 984 -1 984 1312 1313 -1 984 1313 983 -1 983 1313 1314 -1 983 1314 982 -1 982 1314 1315 -1 982 1315 1011 -1 1011 1315 1316 -1 1011 1316 1012 -1 1012 1316 1317 -1 1012 1317 1013 -1 1013 1317 1318 -1 1013 1318 1014 -1 1014 1318 1319 -1 1014 1319 1015 -1 1015 1319 1320 -1 1015 1320 1016 -1 1016 1320 1321 -1 1016 1321 1017 -1 1017 1321 1322 -1 1017 1322 1018 -1 1018 1322 1323 -1 1018 1323 1019 -1 1019 1323 1324 -1 1019 1324 1020 -1 1020 1324 1325 -1 1020 1325 946 -1 946 1325 1326 -1 946 1326 1021 -1 1021 1326 1327 -1 1021 1327 1022 -1 1022 1327 1328 -1 1022 1328 1023 -1 1023 1328 1329 -1 1023 1329 1024 -1 1024 1329 1330 -1 1024 1330 1025 -1 1025 1330 1331 -1 1025 1331 945 -1 945 1331 1332 -1 945 1332 944 -1 363 1299 381 -1 381 1299 1288 -1 381 1288 371 -1 371 1288 1287 -1 371 1287 372 -1 372 1287 1278 -1 372 1278 374 -1 374 1278 203 -1 374 203 71 -1 173 175 1220 -1 1220 175 947 -1 1220 947 1265 -1 1265 947 1250 -1 1265 1250 1266 -1 1266 1250 1298 -1 1266 1298 1267 -1 1267 1298 1308 -1 1267 1308 1009 -1 1009 1308 1307 -1 1009 1307 1010 -1 1010 1307 1306 -1 1010 1306 1027 -1 1027 1306 1305 -1 1027 1305 1029 -1 1029 1305 1304 -1 1029 1304 1031 -1 1031 1304 1303 -1 1031 1303 1033 -1 1033 1303 1302 -1 1033 1302 1035 -1 1035 1302 1301 -1 1035 1301 1037 -1 1037 1301 1300 -1 1037 1300 1039 -1 1039 1300 1299 -1 1039 1299 1041 -1 1041 1299 363 -1 1041 363 362 -1 162 164 1221 -1 1221 164 1208 -1 1221 1208 1222 -1 1222 1208 1252 -1 1222 1252 1223 -1 1223 1252 1254 -1 1223 1254 1224 -1 1224 1254 1256 -1 1224 1256 1225 -1 1225 1256 1258 -1 1225 1258 1226 -1 1226 1258 1260 -1 1226 1260 1227 -1 1227 1260 1261 -1 1227 1261 1228 -1 1228 1261 1008 -1 1228 1008 1230 -1 1230 1008 1026 -1 1230 1026 1232 -1 1232 1026 1028 -1 1232 1028 1234 -1 1234 1028 1030 -1 1234 1030 1236 -1 1236 1030 1032 -1 1236 1032 1238 -1 1238 1032 1034 -1 1238 1034 1240 -1 1240 1034 1036 -1 1240 1036 1242 -1 1242 1036 1038 -1 1242 1038 1244 -1 1244 1038 1040 -1 1244 1040 1246 -1 1246 1040 1042 -1 1246 1042 1043 -1 1043 1042 387 -1 1043 387 405 -1 955 964 956 -1 956 964 1046 -1 956 1046 1092 -1 1092 1046 1048 -1 1092 1048 1094 -1 1094 1048 1050 -1 1094 1050 1096 -1 1096 1050 1052 -1 1096 1052 1098 -1 1098 1052 1054 -1 1098 1054 1100 -1 1100 1054 1056 -1 1100 1056 1102 -1 1102 1056 1058 -1 1102 1058 1104 -1 1104 1058 1060 -1 1104 1060 1106 -1 1106 1060 1062 -1 1106 1062 1108 -1 1108 1062 1064 -1 1108 1064 1110 -1 1110 1064 1066 -1 1110 1066 1112 -1 1112 1066 1068 -1 1112 1068 1114 -1 1114 1068 1070 -1 1114 1070 1116 -1 1116 1070 1072 -1 1116 1072 1118 -1 1118 1072 1074 -1 1118 1074 1120 -1 1120 1074 1076 -1 1120 1076 1122 -1 1122 1076 1078 -1 1122 1078 1124 -1 1124 1078 1080 -1 1124 1080 1126 -1 1126 1080 1082 -1 1126 1082 1128 -1 1128 1082 1084 -1 1128 1084 1130 -1 1130 1084 1086 -1 1130 1086 1132 -1 1132 1086 1088 -1 1132 1088 1134 -1 1134 1088 1090 -1 1134 1090 1136 -1 1136 1090 1091 -1 1136 1091 1138 -1 1138 1091 398 -1 1138 398 369 -1 966 965 1333 -1 1333 965 1093 -1 1333 1093 1334 -1 1334 1093 1095 -1 1334 1095 1335 -1 1335 1095 1097 -1 1335 1097 1336 -1 1336 1097 1099 -1 1336 1099 1337 -1 1337 1099 1101 -1 1337 1101 1338 -1 1338 1101 1103 -1 1338 1103 1339 -1 1339 1103 1105 -1 1339 1105 1340 -1 1340 1105 1107 -1 1340 1107 1341 -1 1341 1107 1109 -1 1341 1109 1342 -1 1342 1109 1111 -1 1342 1111 1343 -1 1343 1111 1113 -1 1343 1113 1344 -1 1344 1113 1115 -1 1344 1115 1345 -1 1345 1115 1117 -1 1345 1117 1346 -1 1346 1117 1119 -1 1346 1119 1347 -1 1347 1119 1121 -1 1347 1121 1348 -1 1348 1121 1123 -1 1348 1123 1349 -1 1349 1123 1125 -1 1349 1125 1350 -1 1350 1125 1127 -1 1350 1127 1351 -1 1351 1127 1129 -1 1351 1129 1352 -1 1352 1129 1131 -1 1352 1131 1353 -1 1353 1131 1133 -1 1353 1133 1354 -1 1354 1133 1135 -1 1354 1135 1355 -1 1355 1135 1137 -1 1355 1137 1356 -1 1356 1137 1139 -1 1356 1139 1357 -1 1357 1139 366 -1 1357 366 365 -1 23 27 395 -1 395 27 944 -1 395 944 365 -1 365 944 1332 -1 365 1332 1357 -1 1357 1332 1331 -1 1357 1331 1356 -1 1356 1331 1330 -1 1356 1330 1355 -1 1355 1330 1329 -1 1355 1329 1354 -1 1354 1329 1328 -1 1354 1328 1353 -1 1353 1328 1327 -1 1353 1327 1352 -1 1352 1327 1326 -1 1352 1326 1351 -1 1351 1326 1325 -1 1351 1325 1350 -1 1350 1325 1324 -1 1350 1324 1349 -1 1349 1324 1323 -1 1349 1323 1348 -1 1348 1323 1322 -1 1348 1322 1347 -1 1347 1322 1321 -1 1347 1321 1346 -1 1346 1321 1320 -1 1346 1320 1345 -1 1345 1320 1319 -1 1345 1319 1344 -1 1344 1319 1318 -1 1344 1318 1343 -1 1343 1318 1317 -1 1343 1317 1342 -1 1342 1317 1316 -1 1342 1316 1341 -1 1341 1316 1315 -1 1341 1315 1340 -1 1340 1315 1314 -1 1340 1314 1339 -1 1339 1314 1313 -1 1339 1313 1338 -1 1338 1313 1312 -1 1338 1312 1337 -1 1337 1312 1311 -1 1337 1311 1336 -1 1336 1311 1310 -1 1336 1310 1335 -1 1335 1310 1309 -1 1335 1309 1334 -1 1334 1309 967 -1 1334 967 1333 -1 1333 967 969 -1 1333 969 966 -1 41 39 1358 -1 41 1358 1359 -1 1359 1358 136 -1 1359 136 135 -1 1360 1361 59 -1 59 1361 6 -1 59 6 4 -1 1360 59 1362 -1 1362 59 58 -1 1362 58 1363 -1 1363 58 1364 -1 1364 58 57 -1 1364 57 1365 -1 1365 57 1366 -1 1366 57 56 -1 1366 56 1367 -1 1367 56 1368 -1 1368 56 55 -1 1368 55 1369 -1 1369 55 54 -1 1369 54 1370 -1 1370 54 1371 -1 1371 54 45 -1 1371 45 1372 -1 1372 45 1373 -1 1373 45 44 -1 1373 44 1374 -1 1374 44 1375 -1 1375 44 40 -1 1375 40 41 -1 1375 41 1140 -1 1140 41 1359 -1 1140 1359 135 -1 1140 1142 1375 -1 1375 1142 1161 -1 1375 1161 1374 -1 1374 1161 1155 -1 1374 1155 1373 -1 1373 1155 1147 -1 1373 1147 1372 -1 1372 1147 1146 -1 1372 1146 1371 -1 1146 1144 1371 -1 1371 1144 1143 -1 1371 1143 1370 -1 1370 1143 962 -1 1370 962 1369 -1 1369 962 1150 -1 1369 1150 1368 -1 1368 1150 1149 -1 1368 1149 1367 -1 1367 1149 1148 -1 1367 1148 1366 -1 1366 1148 958 -1 1366 958 1365 -1 958 957 1365 -1 1365 957 963 -1 1365 963 1364 -1 1364 963 955 -1 1364 955 1363 -1 1363 955 954 -1 1363 954 1362 -1 1362 954 966 -1 1362 966 1360 -1 6 1361 968 -1 968 1361 1360 -1 968 1360 969 -1 969 1360 966 -1 943 108 559 -1 559 603 943 -1 943 603 590 -1 943 590 942 -1 942 590 563 -1 942 563 941 -1 941 563 562 -1 941 562 940 -1 562 564 940 -1 940 564 566 -1 940 566 939 -1 939 566 567 -1 939 567 938 -1 938 567 569 -1 938 569 937 -1 937 569 571 -1 937 571 936 -1 936 571 572 -1 936 572 935 -1 935 572 574 -1 935 574 934 -1 574 576 934 -1 934 576 578 -1 934 578 933 -1 933 578 790 -1 933 790 932 -1 932 790 518 -1 932 518 931 -1 136 1358 520 -1 520 1358 621 -1 518 517 931 -1 931 517 581 -1 931 581 930 -1 930 581 580 -1 930 580 929 -1 929 580 621 -1 929 621 928 -1 928 621 1358 -1 928 1358 39 -1 63 2 1376 -1 1376 2 1 -1 1376 1 1377 -1 1377 1 68 -1 1377 68 61 -1 61 68 62 -1 1377 1378 1376 -1 1376 1378 1379 -1 1376 1379 1380 -1 1378 1377 66 -1 66 1377 61 -1 64 1380 65 -1 65 1380 1379 -1 65 1379 66 -1 66 1379 1378 -1 1376 1380 63 -1 63 1380 64 -1 "
						                >
							<Coordinate DEF="coords_ME_OMLV4_Packing_-_For_Xander_-_AIM-9X_Pylon_Assy-2_LAU179_Pylon_L"
							            point="332.831238 62.396881 436.279633 333.530487 61.902653 436.773834 421.414856 61.902653 436.773834 422.290283 62.285683 436.390808 422.290283 65.932060 432.744446 421.414856 62.285683 436.390808 322.175690 65.932060 432.744446 320.919067 65.848808 432.827698 317.651489 63.376148 435.300354 317.737610 63.308769 435.367737 317.807068 63.232388 435.444122 317.858032 63.149040 435.527466 318.622620 62.970432 435.706055 317.889191 63.060940 435.615570 317.899658 62.970432 435.706055 318.622620 62.396881 436.279633 320.388062 65.772217 432.904266 319.781769 65.648163 433.028351 317.551056 63.432735 435.243774 319.527008 65.582314 433.094177 318.993622 65.411591 433.264893 317.438934 63.477024 435.199463 318.295349 65.101875 433.574615 317.318146 63.507839 435.168671 317.482788 64.600746 434.075745 317.115967 64.305405 434.371094 316.852448 63.935387 434.741119 317.120758 63.556217 435.120270 317.020203 63.593281 435.083221 316.958282 64.131813 434.544678 316.880707 64.006622 434.669861 316.891113 63.676262 435.000244 316.920166 63.650047 435.026459 316.960266 63.623341 435.053162 316.836151 63.852009 434.824493 316.838257 63.788239 434.888245 316.851044 63.739788 434.936707 316.867035 63.707603 434.968903 422.290283 63.510082 429.208893 322.175690 63.510082 429.208893 422.290283 65.932060 431.630890 322.175690 65.932060 431.630890 422.290283 58.750149 432.855286 422.290283 62.396530 429.208893 422.290283 66.020287 431.736023 422.290283 66.088913 431.854889 422.290283 62.884678 428.981262 422.290283 62.749512 429.005096 422.290283 62.501671 429.120667 422.290283 62.620537 429.052063 422.290283 63.021935 428.981262 422.290283 63.157101 429.005096 422.290283 63.286076 429.052063 422.290283 63.404942 429.120667 422.290283 66.135857 431.983856 422.290283 66.159691 432.119019 422.290283 66.159691 432.256287 422.290283 66.135857 432.391449 422.290283 66.088913 432.520416 422.290283 66.020287 432.639282 421.414856 58.750149 432.855286 421.414856 59.480671 434.351868 421.414856 58.367119 433.238312 421.414856 60.789097 435.660278 421.414856 59.784958 436.664429 421.414856 59.174171 435.966797 421.414856 58.476532 435.356018 332.831238 58.861347 432.744080 333.530487 58.367119 433.238312 318.622620 58.861347 432.744080 318.622620 59.434898 432.170532 317.112244 62.413654 435.149292 317.112244 59.991673 432.727325 317.217743 59.713284 432.448914 317.240601 59.687000 432.422638 317.217743 62.692043 435.427673 317.240601 62.718327 435.453949 317.393524 62.840168 435.575806 317.342865 62.807354 435.542999 317.756378 62.961136 435.696777 317.200226 62.669380 435.405029 317.159729 62.604084 435.339722 317.142639 62.566856 435.302490 317.762939 62.961971 435.697601 317.296478 62.771542 435.507172 317.124207 62.510338 435.245972 317.115448 62.463684 435.199310 317.115448 59.941647 432.677277 317.124207 59.894989 432.630615 317.142639 59.838470 432.574097 317.159729 59.801247 432.536896 317.200226 59.735950 432.471588 317.682983 59.456390 432.192017 317.762939 59.443356 432.178986 317.899658 59.434898 432.170532 317.630341 62.936852 435.672485 317.609833 62.931339 435.666962 317.505951 62.895836 435.631470 317.468781 62.879673 435.615295 317.296478 59.633785 432.369415 317.342865 59.597973 432.333618 317.393524 59.565159 432.300781 317.505951 59.509491 432.245117 317.537994 59.497097 432.232727 317.630341 59.468475 432.204102 317.385468 60.994038 430.611389 318.128204 61.475342 430.130096 317.265259 59.983078 431.622345 322.175690 62.396530 429.208893 317.889191 59.525406 432.080017 317.807068 59.696854 431.908569 317.737610 59.773235 431.832184 317.858032 59.613506 431.991913 317.551056 59.897202 431.708221 317.438934 59.941490 431.663940 318.892242 61.837826 429.767609 317.318146 59.972305 431.633118 319.526947 62.046726 429.558716 319.665253 62.083618 429.521820 317.651489 59.840614 431.764801 320.663757 62.279896 429.325531 321.275665 62.349869 429.255554 316.858398 60.417816 431.187622 316.906982 60.519882 431.085541 316.991943 60.638889 430.966553 317.181458 60.829636 430.775787 316.844666 60.223194 431.382233 317.092773 60.029831 431.575592 316.835999 60.272861 431.332581 316.838379 60.337322 431.268097 316.904083 60.127968 431.477478 316.937592 60.101948 431.503479 316.995087 60.069321 431.536102 316.879028 60.154816 431.450623 316.859589 60.185265 431.420166 322.155396 65.931877 431.631073 322.155396 63.509899 429.209076 321.178986 65.881203 431.681732 321.178986 63.459221 429.259766 320.646729 65.823364 431.739563 320.646729 63.401386 429.317596 320.203369 65.756744 431.806183 319.546387 63.200905 429.518066 319.546387 65.622887 431.940063 319.240021 63.121986 429.596985 318.768982 65.398178 432.164764 318.547821 62.895943 429.823029 318.547821 65.317924 432.245026 318.311371 62.800579 429.918396 317.877747 65.019043 432.543884 317.679382 62.490990 430.227997 317.679382 64.912971 432.649963 317.477936 62.375057 430.343933 317.107697 64.563156 432.999786 316.771759 61.901806 430.817169 316.771759 64.323784 433.239166 316.751404 61.886120 430.832855 316.573425 64.162193 433.400757 316.401764 61.576923 431.142059 316.401764 63.998905 433.564026 316.229767 63.790298 433.772644 316.229767 61.368298 431.350677 316.210022 63.760921 433.802032 316.210022 61.338940 431.380035 316.155701 63.669388 433.893555 316.155731 61.247478 431.471497 316.112793 63.579079 433.983856 316.112793 61.157101 431.561890 316.094604 63.531853 434.031097 316.094666 61.110050 431.608948 316.058899 63.397072 434.165863 316.058899 60.975090 431.743896 316.055298 60.952335 431.766632 316.048035 63.286472 434.276459 316.048492 60.821487 431.897491 316.048492 63.243465 434.319489 316.052856 63.190250 434.372681 316.052856 60.768250 431.950745 316.069244 63.104858 434.458099 316.189026 60.443386 432.275604 316.165253 62.897709 434.665222 316.125427 60.540653 432.178345 316.116486 62.979828 434.583130 316.116486 60.557846 432.161133 316.096069 63.024719 434.538239 316.075348 60.661171 432.057800 316.069244 60.682877 432.036102 316.767670 60.079414 432.639557 316.679291 62.532928 435.029999 316.561157 60.161446 432.557526 316.561157 62.583427 434.979523 316.462799 60.212994 432.505981 316.462799 62.634972 434.927979 316.406128 60.247871 432.471100 316.406128 62.669849 434.893097 316.338837 60.295750 432.423248 316.338837 62.717728 434.845215 316.286194 60.339622 432.379364 316.286194 62.761604 434.801331 316.216064 60.410595 432.308380 316.216064 62.832584 434.730347 316.189026 62.865368 434.697571 316.950562 60.026958 432.692017 316.950562 62.448936 435.114014 316.767670 62.501392 435.061554 317.165436 59.757099 432.215179 317.172546 59.755398 432.176270 317.201050 59.748482 432.183105 317.388153 59.904842 431.705078 317.113861 59.943592 432.675323 317.113800 59.943859 432.675629 317.534393 59.536312 432.193512 317.465759 59.558491 432.228455 317.456696 59.590771 432.196167 317.400879 59.586231 432.268250 317.340912 59.619213 432.312378 317.335052 59.640095 432.291504 317.239502 59.698822 432.410828 317.115417 59.941936 432.677002 317.393494 59.612583 432.241882 317.750885 59.503517 432.120514 317.678131 59.508957 432.139465 317.663635 59.560627 432.087799 317.605591 59.519817 432.163788 317.523560 59.574856 432.154968 317.115326 59.942226 432.676697 317.125275 59.891571 432.624786 317.115204 59.942505 432.676422 317.124939 59.892761 432.623596 317.142395 59.841270 432.571320 317.115021 59.942768 432.676147 317.124390 59.893909 432.622437 317.141632 59.844025 432.568542 317.167084 59.791821 432.517273 317.223480 59.732292 432.377350 317.264862 59.702881 432.314240 317.274994 59.688297 432.328827 317.114777 59.943012 432.675903 317.123657 59.895000 432.621368 317.140350 59.846680 432.565887 317.165649 59.796825 432.512268 317.199463 59.744053 432.463470 317.252106 59.716408 432.300720 317.214203 59.742149 432.367493 317.182129 59.773746 432.433777 317.114502 59.943233 432.675690 317.122681 59.896008 432.620361 317.138580 59.849197 432.563385 317.163361 59.801659 432.507446 317.197235 59.752014 432.455505 317.236969 59.728642 432.288483 317.203156 59.751068 432.358582 317.174561 59.779858 432.427673 317.151398 59.814323 432.494781 317.219727 59.739380 432.277740 317.190582 59.758896 432.350739 317.165924 59.785225 432.422302 317.145996 59.817696 432.491394 317.130798 59.855499 432.557068 317.114197 59.943428 432.675507 317.120270 59.897724 432.618622 317.121552 59.896923 432.619446 317.133789 59.853645 432.558929 317.136383 59.851532 432.561035 317.156158 59.810482 432.498596 317.160156 59.806236 432.502869 317.188477 59.766991 432.440552 317.193542 59.759705 432.447815 317.230865 59.721661 432.387970 317.236237 59.710442 432.399200 317.282379 59.672901 432.344208 317.286865 59.656956 432.360168 317.112793 59.952984 432.685791 317.200653 59.748440 432.268677 317.176666 59.765499 432.344147 317.156403 59.789749 432.417786 317.140015 59.820538 432.488556 317.127502 59.857059 432.555511 317.118866 59.898399 432.617950 317.734528 59.561832 432.062195 317.639740 59.610523 432.037903 317.707550 59.618145 432.005890 317.606842 59.657791 431.990631 317.670441 59.671490 431.952515 317.565521 59.701630 431.946777 317.623810 59.720963 431.903046 317.516479 59.741291 431.907135 317.568481 59.765724 431.858307 317.460571 59.776093 431.872314 317.505341 59.805000 431.819031 317.398712 59.805450 431.842957 317.435547 59.838135 431.785889 317.331970 59.828861 431.819550 317.360229 59.864555 431.759460 317.180054 59.755661 432.261444 317.161652 59.770763 432.338867 317.146118 59.793358 432.414185 317.133545 59.822807 432.486298 317.123962 59.858307 432.554260 317.117310 59.898941 432.617432 317.325409 59.660255 432.271332 317.381287 59.638035 432.216431 317.312103 59.679356 432.252228 317.364532 59.662144 432.192322 317.295410 59.697071 432.234528 317.343445 59.684502 432.169983 317.275604 59.713097 432.218475 317.318420 59.704731 432.149750 317.252991 59.727158 432.204437 317.289917 59.722481 432.131989 317.227997 59.739021 432.192566 317.258362 59.737457 432.117004 317.224335 59.749397 432.105072 317.190002 59.758781 432.088470 317.441742 59.621937 432.165009 317.505737 59.612076 432.117767 317.421204 59.651466 432.135468 317.481201 59.647339 432.082489 317.395416 59.678848 432.108093 317.450378 59.680038 432.049805 317.364777 59.703625 432.083313 317.413788 59.709621 432.020203 317.329834 59.725365 432.061584 317.372070 59.735584 431.994232 317.291199 59.743706 432.043243 317.325928 59.757484 431.972351 317.249512 59.758327 432.028625 317.276154 59.774948 431.954895 317.205475 59.768986 432.017944 317.218597 59.781891 431.962433 317.282501 59.887661 431.734497 317.249481 59.824959 431.844238 317.303802 59.798706 431.884918 317.361969 59.778297 431.905304 317.415924 59.752701 431.930908 317.464661 59.722359 431.961243 317.507416 59.687786 431.995819 317.543427 59.649570 432.034058 317.572113 59.608360 432.075256 317.592926 59.564861 432.118744 317.113251 59.939720 432.670135 317.158325 59.761002 432.256165 317.144806 59.776253 432.341949 317.135254 59.796009 432.411560 317.128754 59.816402 432.465912 317.120209 59.859333 432.553406 317.118103 59.875500 432.580627 317.115723 59.899399 432.616974 317.822784 59.503155 432.106781 317.804596 59.568035 432.041901 317.774567 59.630688 431.979248 317.733276 59.690041 431.919891 317.681396 59.745087 431.864838 317.619843 59.794884 431.815063 317.549622 59.838585 431.771362 317.471954 59.875450 431.734497 317.804596 63.099064 435.572937 317.774567 63.161716 435.510284 317.549622 63.369614 435.302368 317.471954 63.406479 435.265503 317.113861 62.465630 435.197357 317.114197 62.465466 435.197540 317.137939 62.749912 435.351471 317.126709 62.656342 435.316467 317.133545 62.654678 435.318146 317.269531 63.365181 435.279724 317.237396 63.252495 435.334778 317.303802 63.256054 435.342255 317.276154 63.186081 435.366028 317.221069 63.188744 435.356232 317.249512 63.112347 435.382629 317.121124 62.598400 435.287781 317.115356 62.518101 435.237579 317.118164 62.522160 435.241577 317.113251 62.470806 435.201294 317.113831 62.465942 435.197601 317.118866 62.523006 435.242554 317.114502 62.465271 435.197723 317.120270 62.522331 435.243225 317.127502 62.585445 435.283905 317.123962 62.586693 435.282654 317.124054 62.630127 435.304199 317.114777 62.465050 435.197937 317.121552 62.521530 435.244049 317.130798 62.583881 435.285461 317.140015 62.652412 435.320435 317.146118 62.726784 435.347595 317.146942 62.813545 435.368073 317.167084 62.623692 435.349152 317.199463 62.677479 435.396912 317.239502 62.730148 435.442139 317.115417 62.463974 435.199036 317.125275 62.516178 435.249390 317.142395 62.569656 435.299683 317.388153 63.435871 435.236115 317.303314 63.467659 435.205902 317.360229 63.381496 435.276398 317.331970 63.321411 435.312103 317.207062 63.129875 435.370575 317.205475 63.122997 435.371918 317.224335 63.035889 435.391571 317.180084 63.003693 435.385254 317.201050 62.957863 435.392487 317.172546 62.964756 435.385559 317.180054 62.879513 435.385315 317.156952 62.876862 435.379089 317.161652 62.802090 435.370209 317.435547 63.355080 435.302826 317.398712 63.298000 435.335510 317.361969 63.235645 435.362671 317.325928 63.168617 435.383484 317.291199 63.097725 435.397247 317.258362 63.023945 435.403503 317.227997 62.948402 435.401947 317.200653 62.872292 435.392517 317.176666 62.796825 435.375458 317.156403 62.723179 435.351227 317.505341 63.321945 435.335968 317.460571 63.268642 435.364868 317.415924 63.210052 435.388275 317.372070 63.146717 435.405365 317.329834 63.079384 435.415588 317.289917 63.008972 435.418488 317.252991 62.936539 435.413818 317.219727 62.863232 435.401581 317.190582 62.790222 435.382080 317.165924 62.718651 435.355743 317.145996 62.649567 435.323273 317.619843 63.325912 435.346069 317.568481 63.282665 435.375244 317.516479 63.233837 435.399689 317.464661 63.179710 435.418610 317.413788 63.120754 435.431335 317.364777 63.057644 435.437347 317.318420 62.991222 435.436249 317.275604 62.922478 435.427856 317.236969 62.852493 435.412323 317.203156 62.782398 435.389893 317.174561 62.713287 435.361115 317.151398 62.646198 435.326630 317.133789 62.582027 435.287323 317.681396 63.276115 435.395874 317.623810 63.237907 435.420013 317.565521 63.194180 435.439331 317.507416 63.145134 435.453186 317.450378 63.091171 435.460938 317.395416 63.032871 435.462128 317.343445 62.970993 435.456451 317.295410 62.906452 435.443909 317.252106 62.840256 435.424561 317.214203 62.773479 435.398804 317.182129 62.707176 435.367218 317.156158 62.642357 435.330475 317.136383 62.579914 435.289429 317.122681 62.520615 435.244965 317.733276 63.221069 435.450928 317.670441 63.188435 435.469482 317.606842 63.150341 435.483185 317.543427 63.106918 435.491394 317.481201 63.058468 435.493622 317.421204 63.005486 435.489502 317.364532 62.948635 435.478821 317.312103 62.888737 435.461609 317.264862 62.826733 435.438080 317.223480 62.763618 435.408661 317.188477 62.700420 435.373962 317.160156 62.638107 435.334717 317.138580 62.577579 435.291779 317.123657 62.519604 435.245972 317.115021 62.464806 435.198181 317.707550 63.135086 435.522827 317.639740 63.103073 435.530426 317.572113 63.065712 435.532593 317.505737 63.023209 435.528900 317.441742 62.975956 435.519012 317.381287 62.924526 435.502930 317.325409 62.869637 435.480713 317.274994 62.812145 435.452667 317.230865 62.752991 435.419312 317.193542 62.693134 435.381256 317.163361 62.633530 435.339294 317.140350 62.575066 435.294281 317.124390 62.518517 435.247040 317.115204 62.464542 435.198456 317.734528 63.078777 435.579132 317.663635 63.053177 435.580322 317.592926 63.022213 435.576111 317.523560 62.985989 435.566101 317.456696 62.944790 435.550201 317.393494 62.899075 435.528381 317.335052 62.849476 435.500885 317.282379 62.796753 435.468048 317.236237 62.741768 435.430511 317.197235 62.685444 435.388947 317.165649 62.628696 435.344147 317.141632 62.572407 435.296936 317.124939 62.517368 435.248199 317.115326 62.464264 435.198730 317.822784 63.034184 435.637817 317.750885 63.020462 435.637451 317.678131 63.001507 435.632019 317.605591 62.977165 435.621155 317.534393 62.947445 435.604645 317.465759 62.912510 435.582458 317.400879 62.872723 435.554749 317.340912 62.828594 435.521759 317.286865 62.780807 435.484009 318.359314 62.481792 429.712250 318.379822 62.410851 429.689514 317.955841 62.211834 429.888519 316.951843 59.974972 432.634857 316.233246 60.586384 431.426208 316.187439 60.633556 431.466797 316.223267 60.777924 431.322418 316.233215 61.312527 431.297302 319.241394 63.064899 429.544952 321.186371 63.204037 429.088776 322.156952 63.254425 429.038391 322.157593 63.199303 429.017914 321.179474 63.401943 429.207886 322.155518 63.452618 429.157227 320.204285 63.277573 429.332275 319.720306 63.183369 429.426483 318.403564 62.339066 429.673523 317.982910 62.141613 429.870972 318.313324 62.743710 429.866119 317.880005 62.540310 430.069519 317.480408 62.318401 430.291443 317.593109 61.925129 430.087463 317.563446 61.993923 430.106445 316.883453 61.447693 430.564880 316.849426 61.513531 430.586823 316.712463 61.307545 430.705048 316.676666 61.371918 430.728424 316.545532 61.148239 430.864349 316.507294 61.210266 430.890076 316.390442 60.959576 431.053009 316.349060 61.017757 431.082611 316.754211 61.829735 430.780121 316.576447 61.684017 430.925812 316.400238 61.515800 431.094025 316.267944 60.726112 431.286469 316.371674 60.796078 431.135468 316.318237 60.676678 431.254883 316.488434 60.848492 431.009644 316.098175 61.054852 431.554993 316.159515 61.191895 431.417938 316.180664 60.553730 431.546631 316.226715 60.509373 431.503204 316.185059 60.467072 431.633270 316.056610 60.713913 431.895935 316.051697 60.809792 431.800049 316.059174 60.897495 431.712341 316.079163 60.607182 432.002655 316.157196 60.387592 432.008148 316.153687 60.401466 431.891357 316.181488 60.342674 431.950134 316.166382 60.412407 431.781647 316.212341 60.301598 431.892456 322.174194 62.439056 429.169373 321.266174 62.406700 429.204071 321.238678 62.603710 429.086517 322.167664 62.661900 429.034271 322.169525 62.591824 429.066162 322.166565 62.707111 429.017853 321.230103 62.676094 429.060883 322.166138 62.724655 429.012299 322.164734 62.785366 428.996460 321.221954 62.750679 429.042389 322.163788 62.828571 428.988281 321.214325 62.826756 429.031372 322.162048 62.915054 428.979309 322.161346 62.953129 428.978424 321.207306 62.903618 429.027954 322.159760 63.045849 428.983978 321.200958 62.980522 429.032043 322.159271 63.077808 428.988434 321.195282 63.056725 429.043640 322.158813 63.106735 428.993622 321.183167 63.273727 429.122009 322.156281 63.324245 429.071472 322.156555 63.295193 429.056702 320.234497 62.934204 429.166168 320.245300 62.858662 429.153931 320.257477 62.782501 429.149048 320.270874 62.706463 429.151672 320.285431 62.631275 429.161804 320.300995 62.557644 429.179321 320.317352 62.486259 429.203979 321.247589 62.534222 429.119141 322.170868 62.544476 429.092682 320.369934 62.292469 429.318298 319.929993 62.206856 429.403900 319.907288 62.266468 429.360291 319.758575 62.841568 429.258789 319.772247 62.766586 429.246002 319.787659 62.691059 429.240509 319.804626 62.615715 429.242401 319.823059 62.541283 429.251801 319.842743 62.468456 429.268494 319.863464 62.397923 429.292328 320.334412 62.417816 429.235535 321.256805 62.468338 429.158417 322.172668 62.485649 429.132172 319.443665 62.221191 429.432159 319.470978 62.158546 429.468201 319.498840 62.100220 429.510559 319.288391 62.725258 429.375092 319.305176 62.651047 429.361542 319.324066 62.576389 429.355164 319.344910 62.502003 429.356110 319.367554 62.428608 429.364471 319.391693 62.356892 429.380066 319.417145 62.287529 429.402710 319.885071 62.330364 429.322998 320.351990 62.353008 429.273743 318.770691 62.919178 429.690674 319.245544 63.003353 429.498383 319.723694 63.121635 429.380127 320.206940 63.215698 429.286041 321.180878 63.339909 429.161835 322.155701 63.407207 429.122681 318.775665 62.857895 429.643860 319.252380 62.937988 429.457733 319.729279 63.055954 429.339783 320.211365 63.149788 429.245941 318.047058 62.002010 429.856110 318.459808 62.195759 429.662354 318.083557 61.933994 429.859070 318.491791 62.125633 429.667450 318.122559 61.868019 429.868958 318.526001 62.057407 429.679565 318.163635 61.804707 429.885529 318.562012 61.991722 429.698517 318.599518 61.929211 429.724152 317.663361 61.788906 430.069214 317.703339 61.722813 430.070251 317.746033 61.658894 430.078064 317.791046 61.597748 430.092499 318.206421 61.744667 429.908691 318.638184 61.870514 429.756256 316.964020 61.318478 430.539642 317.009857 61.256367 430.536713 317.058838 61.196705 430.540253 317.110413 61.140045 430.550201 317.837891 61.539959 430.113403 318.250519 61.688515 429.938232 318.677582 61.816208 429.794556 318.295471 61.636806 429.973969 317.886139 61.486130 430.140625 317.164154 61.086929 430.566437 316.951355 61.009674 430.680573 316.897034 61.064114 430.672852 316.845490 61.121662 430.671417 316.797241 61.181797 430.676331 317.935394 61.436790 430.173981 317.219513 61.037910 430.588837 317.007904 60.958874 430.694489 316.800690 60.866005 430.824219 316.742676 60.916889 430.820068 316.687622 60.971066 430.822021 316.636078 61.028042 430.830078 317.275970 60.993477 430.617279 317.066132 60.912239 430.714508 316.861084 60.818909 430.834442 316.666504 60.703011 430.987213 316.603760 60.748062 430.988892 316.544189 60.796700 430.996368 316.323181 60.849545 431.163025 316.437012 60.902966 431.028595 316.588593 61.087296 430.844269 316.752777 61.243961 430.687592 316.921753 61.382462 430.549103 317.626495 61.856567 430.074982 318.013428 62.071445 429.860107 318.430298 62.267136 429.664429 317.125580 60.870239 430.740540 316.923309 60.776089 430.850677 316.731842 60.661987 430.991364 316.566071 60.512062 431.178162 316.498291 60.547447 431.189514 316.433960 60.586914 431.206177 316.373749 60.630119 431.227997 316.986786 60.737980 430.872772 316.799194 60.625427 431.001343 316.636627 60.481106 431.172241 316.538940 60.403294 431.286957 316.469452 60.431641 431.305328 316.403503 60.464428 431.328644 316.341766 60.501377 431.356750 316.284851 60.542175 431.389374 316.280121 60.904938 431.195404 316.230957 60.426003 431.586578 316.250305 60.334301 431.678284 316.205261 60.371410 431.728943 316.292542 60.232456 431.780121 316.249512 60.264755 431.835602 316.867859 60.593700 431.017059 316.783508 60.433765 431.177002 316.709351 60.454914 431.171844 316.685852 60.361023 431.265747 316.611298 60.379662 431.273682 316.609589 60.269676 431.383667 316.537109 60.283661 431.406586 316.550842 60.218353 431.471893 316.467499 60.302746 431.434204 316.482513 60.231434 431.505524 316.401459 60.326740 431.466339 316.417664 60.249737 431.543335 316.339630 60.355461 431.502655 316.356964 60.273125 431.584991 316.282623 60.388672 431.542877 316.301025 60.301422 431.630127 316.099762 60.548927 432.060913 316.090302 60.554813 431.946930 316.067963 60.660568 431.841187 316.063080 60.755630 431.746124 316.070526 60.842640 431.659119 316.109222 60.998848 431.502899 316.170166 61.135002 431.366760 316.243469 61.254948 431.246796 316.409668 61.457272 431.044464 316.585297 61.624905 430.876831 316.762604 61.770260 430.731476 317.487732 62.258198 430.243561 317.886688 62.479752 430.022003 318.319183 62.682762 429.818970 318.783875 62.792957 429.602783 319.261871 62.869423 429.423401 319.736969 62.986954 429.305878 320.217438 63.080471 429.212341 316.761902 60.347572 431.263184 316.684235 60.260971 431.365784 316.621979 60.210613 431.442749 316.579712 60.148609 431.541626 316.514435 60.154396 431.582581 316.452484 60.165768 431.627319 316.394470 60.182674 431.675446 316.341003 60.204994 431.726562 317.932434 62.281422 429.912628 317.537842 62.062279 430.131775 316.820068 61.579334 430.614716 316.645752 61.436455 430.757599 316.474274 61.272778 430.921265 316.313324 61.076950 431.117096 316.242920 60.961720 431.232330 316.184662 60.831615 431.362427 316.147888 60.683239 431.510803 316.140869 60.600986 431.593079 316.145447 60.511482 431.682556 318.809753 62.654606 429.539459 318.342285 62.551186 429.741638 317.913025 62.349693 429.943115 317.516571 62.129528 430.163300 316.795654 61.644463 430.648346 316.620087 61.500530 430.792297 316.446838 61.335175 430.957642 316.283661 61.136589 431.156219 316.212036 61.019360 431.273468 316.152618 60.886684 431.406128 316.115021 60.734985 431.557831 316.107849 60.650711 431.642120 316.112549 60.558846 431.733978 316.134064 60.456936 431.835876 316.128723 60.447807 431.947937 316.139679 60.435875 432.065887 316.341705 60.243019 432.366821 316.278534 60.296497 432.313354 316.219330 60.357452 432.252380 316.168732 60.422356 432.187500 316.129028 60.487057 432.122772 316.110687 60.497124 432.004639 316.108643 60.504566 431.891174 316.086670 60.608707 431.787018 316.081879 60.702431 431.693298 316.089172 60.788292 431.607452 316.127411 60.942612 431.453125 316.187714 61.077305 431.318420 316.260315 61.196110 431.199615 316.425262 61.396866 430.998871 316.599884 61.563545 430.832184 316.776489 61.708302 430.687439 317.499817 62.195038 430.200684 317.897736 62.416008 429.979736 318.328857 62.618382 429.777344 318.795258 62.724987 429.567841 319.273895 62.798290 429.395752 319.746796 62.915264 429.278778 320.225189 63.008385 429.185669 321.190399 63.131477 429.062561 322.157928 63.172672 429.009674 316.760406 60.257660 431.353119 316.695282 60.208347 431.418427 316.647705 60.148472 431.504883 316.601898 60.112461 431.577759 316.539154 60.114113 431.622864 316.479584 60.121559 431.671509 316.423859 60.134792 431.723328 316.372467 60.153725 431.777832 316.325897 60.178116 431.834473 316.284515 60.207687 431.892670 316.248810 60.242176 431.951874 316.219147 60.281296 432.011536 316.195801 60.324673 432.071045 316.178955 60.371849 432.129913 316.770020 60.211601 431.399170 316.717712 60.154030 431.472717 316.667206 60.116631 431.536713 316.629730 60.076756 431.613495 316.570282 60.074177 431.662781 316.513855 60.077610 431.715454 316.461029 60.087082 431.771057 316.412354 60.102554 431.829010 316.368225 60.123802 431.888763 316.329041 60.150589 431.949768 316.295197 60.182671 432.011383 316.267090 60.219791 432.073029 316.244995 60.261597 432.134125 316.229004 60.307632 432.194122 316.789154 60.165272 431.445496 316.734528 60.126629 431.500122 316.691620 60.085323 431.568024 316.662323 60.043201 431.647034 316.606720 60.036652 431.700317 316.553955 60.036320 431.756744 316.504578 60.042267 431.815857 316.459045 60.054485 431.877075 316.417786 60.072792 431.939789 316.381134 60.096962 432.003387 316.349487 60.126781 432.067261 316.323212 60.162025 432.130798 316.302521 60.202351 432.193390 316.287598 60.247322 432.254425 316.803192 60.142391 431.468384 316.755402 60.099861 431.526886 316.720184 60.055904 431.597443 316.697723 60.013222 431.677002 316.646179 60.003269 431.733704 316.597229 59.999706 431.793365 316.551392 60.002628 431.855499 316.509155 60.012062 431.919495 316.470886 60.027840 431.984741 316.436890 60.049767 432.050598 316.407532 60.077648 432.116394 316.383148 60.111282 432.181549 316.363953 60.150345 432.245392 316.350098 60.194401 432.307343 316.404480 60.198051 432.411804 316.820435 60.120251 431.490509 316.840668 60.099434 431.511322 316.779846 60.074699 431.552063 316.806763 60.051914 431.574829 316.751434 60.029469 431.623871 316.816559 59.986084 431.667267 316.770508 59.964710 431.725525 316.841980 59.927814 431.762421 316.726288 59.949837 431.787140 316.803772 59.909828 431.827148 316.684326 59.941601 431.851471 316.767517 59.898640 431.894440 316.645050 59.940151 431.917969 316.733551 59.894424 431.963715 316.608826 59.945553 431.985992 316.702271 59.897274 432.034271 316.575989 59.957676 432.054901 316.673889 59.907085 432.105499 316.546844 59.976360 432.123993 316.648712 59.923717 432.176636 316.521667 60.001442 432.192596 316.626953 59.947025 432.247009 316.500763 60.032749 432.260071 316.608887 59.976864 432.315948 316.484314 60.069977 432.325745 316.594666 60.012936 432.382782 316.472443 60.112713 432.389038 316.584412 60.054832 432.446930 316.465240 60.160530 432.449310 316.578186 60.102142 432.507690 317.018433 59.998093 431.612671 316.863190 60.080372 431.530396 316.864014 60.013805 431.612946 316.881775 59.952427 431.700928 316.911438 59.898594 431.791656 316.878082 59.878555 431.858398 316.846405 59.865421 431.927643 316.816772 59.859386 431.998749 316.789459 59.860561 432.070984 316.764709 59.868851 432.143738 316.742706 59.884132 432.216217 316.723724 59.906277 432.287781 316.707947 59.935143 432.357666 316.695557 59.970455 432.425293 316.686584 60.011799 432.489960 316.681152 60.058777 432.551056 316.912384 60.047653 431.563110 316.922760 59.983490 431.643280 316.946167 59.925339 431.727997 316.979187 59.874546 431.815704 316.949860 59.853077 431.883881 316.922028 59.838585 431.954498 316.895935 59.831276 432.026855 316.871918 59.831280 432.100281 316.850159 59.838509 432.174072 316.830811 59.852848 432.247498 316.814117 59.874176 432.319885 316.800232 59.902367 432.390472 316.789337 59.937145 432.458588 316.781433 59.978107 432.523651 316.776672 60.024849 432.584991 317.134979 59.867180 431.786163 317.159698 59.903904 431.722870 317.041199 59.937576 431.689178 317.073303 59.978638 431.632141 316.964600 60.020741 431.590027 316.981934 59.958599 431.668152 317.009735 59.902782 431.750580 317.110962 59.837070 431.853180 317.087921 59.813808 431.923157 317.066040 59.797611 431.995453 317.045563 59.788708 432.069427 317.026672 59.787239 432.144318 317.009583 59.793133 432.219452 316.994385 59.806286 432.294067 316.981262 59.826591 432.367462 316.970367 59.853935 432.438904 316.961792 59.888046 432.507690 316.955597 59.928524 432.573212 317.184906 59.946926 431.663849 322.175690 63.420944 429.132172 322.175690 63.404942 429.120667 322.175690 63.314766 429.066132 322.175690 63.286076 429.052063 322.175690 63.199474 429.017731 322.175690 63.157101 429.005096 322.175690 63.077972 428.988220 322.175690 63.021935 428.981262 322.175690 62.953327 428.978271 322.175690 62.884678 428.981262 322.175690 62.828682 428.988190 322.175690 62.749512 429.005096 322.175690 62.707180 429.017731 322.175690 62.620537 429.052063 322.175690 62.591885 429.066132 322.175690 62.501671 429.120667 317.184906 63.477089 435.194000 317.073303 63.508797 435.162292 316.820435 63.650414 435.020660 316.056549 63.245049 434.427063 316.147919 63.630196 434.457642 316.187378 63.674244 434.507355 316.223297 63.818401 434.363190 318.783813 65.538231 432.347961 318.328827 65.363640 432.522552 318.342285 65.399277 432.589783 322.166565 66.123138 432.433868 322.165924 66.131363 432.407257 321.229980 66.080238 432.464752 322.163788 66.152580 432.312378 322.163147 66.157028 432.280457 321.214264 66.109619 432.313995 321.190369 66.078506 432.009338 321.195221 66.097542 432.084076 322.158630 66.144432 432.019958 322.164429 66.147400 432.341339 321.221863 66.098618 432.390137 321.238556 66.054565 432.537109 322.169006 66.084389 432.529755 321.256653 65.982529 432.672455 322.172241 66.018448 432.641754 322.169525 66.074722 432.549103 321.266022 65.936935 432.734131 321.207245 66.113159 432.237122 321.200867 66.109146 432.160217 320.245300 65.987045 432.282318 320.369965 65.822556 432.848511 319.498871 65.630424 433.040649 318.379791 65.451492 432.730103 319.288391 65.766022 432.415588 318.809723 65.601479 432.486359 319.273926 65.745270 432.342560 319.261871 65.717628 432.271423 318.677643 65.346344 433.324738 317.595917 64.752457 433.918610 317.935394 64.966957 433.704132 318.295471 65.166946 433.504120 320.257477 65.991806 432.358459 319.305145 65.779617 432.489777 319.324066 65.785873 432.564423 318.403503 65.467522 432.801849 318.430298 65.476517 432.873779 317.982849 65.270073 432.999298 318.013367 65.280830 433.069458 317.593048 65.053619 433.215759 317.626465 65.065987 433.284302 317.230560 64.824585 433.444794 317.266235 64.838371 433.511902 316.883240 64.576271 433.693115 316.921600 64.591965 433.758331 316.545288 64.276764 433.992615 316.588409 64.296753 434.053528 316.390350 64.088020 434.181366 316.436981 64.112350 434.237946 316.322815 63.977974 434.291412 316.371399 64.005455 434.344818 316.267914 63.854389 434.414978 316.318268 63.885925 434.464355 316.233154 63.714844 434.554535 316.284790 63.751587 434.598694 316.249451 63.305367 434.876221 316.212372 63.248501 434.839325 316.248810 63.189072 434.898773 317.275818 64.523651 434.147430 316.986725 64.268150 434.402924 316.867859 64.123840 434.547241 316.820099 64.046036 434.625031 316.783569 63.963951 434.707123 316.761902 63.877716 434.793365 316.760406 63.787815 434.883270 316.770050 63.741760 434.929321 316.789154 63.695427 434.975647 316.803192 63.672550 434.998535 316.840668 63.629593 435.041473 316.863190 63.610531 435.060547 316.912384 63.577812 435.093262 316.964600 63.550903 435.120178 317.018433 63.528255 435.142822 316.284454 63.248287 434.933319 316.295227 63.129578 434.958252 316.328979 63.191196 434.990417 316.349487 63.073673 435.014160 316.381073 63.137547 435.044067 316.407532 63.024548 435.063293 316.436829 63.090355 435.091248 316.521667 62.948341 435.139496 316.546783 63.016941 435.164673 316.626953 62.893925 435.193909 316.648651 62.964294 435.217316 316.723724 62.853176 435.234650 316.742676 62.924709 435.256897 316.814117 62.821075 435.266754 316.830780 62.893421 435.288177 316.981262 62.773495 435.314331 316.994354 62.846859 435.334747 317.009521 62.921448 435.347931 317.045563 63.071468 435.352142 320.270905 65.989105 432.434509 320.285461 65.979004 432.509735 319.344940 65.784821 432.638794 319.367584 65.776505 432.712250 318.459839 65.478477 432.945160 318.491852 65.473434 433.015320 318.047089 65.284737 433.138885 318.083588 65.281799 433.206940 317.663391 65.071663 433.351959 317.703369 65.070656 433.418091 317.305603 64.845627 433.578003 317.348267 64.846306 433.642426 316.963898 64.601318 433.822296 317.009735 64.604279 433.884460 316.635986 64.310844 434.112793 316.687531 64.318947 434.169800 316.488464 64.131233 434.292389 316.544220 64.144524 434.344208 316.425018 64.027817 434.395813 316.483063 64.044868 434.443878 316.373871 63.912754 434.510864 316.434082 63.934658 434.554077 316.341797 63.784164 434.639465 316.403534 63.812290 434.676453 316.339630 63.638218 434.785400 316.401459 63.674583 434.814178 316.356995 63.555870 434.867767 316.417694 63.597565 434.891174 316.394501 63.465435 434.958191 316.452484 63.513611 434.975128 316.423859 63.417545 435.006073 316.479614 63.469398 435.019348 316.461060 63.369846 435.053772 316.513885 63.425457 435.063293 316.504578 63.325020 435.098602 316.553986 63.384159 435.104584 316.551422 63.285389 435.138245 316.597229 63.347549 435.141205 316.645050 63.222912 435.200714 316.684326 63.289444 435.199310 316.733582 63.177181 435.246429 316.767517 63.246483 435.242249 316.816772 63.142151 435.281464 316.846405 63.213268 435.275482 316.895966 63.114040 435.309601 316.922028 63.186432 435.302307 317.066040 63.145458 435.343292 320.301025 65.961586 432.583405 320.317383 65.936935 432.654755 319.391724 65.760994 432.783997 319.417175 65.738350 432.853333 318.526001 65.461418 433.083557 318.562042 65.442451 433.149231 318.122528 65.272034 433.272949 318.163605 65.255440 433.336243 317.746033 65.062935 433.482056 317.791016 65.048508 433.543182 317.393829 64.840401 433.704590 317.441833 64.827881 433.763794 317.058685 64.600807 433.944183 317.110260 64.590851 434.000824 316.742554 64.320961 434.224030 316.800568 64.316788 434.274902 316.603729 64.152077 434.392914 316.666473 64.153740 434.437958 316.545044 64.056435 434.488556 316.610382 64.062340 434.529358 316.498352 63.951397 434.593597 316.566101 63.962753 434.628937 316.469421 63.835674 434.709320 316.538910 63.854038 434.737640 316.467468 63.706760 434.838226 316.537048 63.734390 434.857300 316.482483 63.635437 434.909546 316.550812 63.669067 434.922607 316.514404 63.558399 434.986572 316.579681 63.599327 434.992371 316.539124 63.518112 435.026855 316.601837 63.563175 435.028503 316.570251 63.478180 435.066803 316.629700 63.527470 435.064209 316.606689 63.440647 435.104340 316.662292 63.493904 435.097778 316.646149 63.407265 435.137726 316.697693 63.463928 435.127747 316.726288 63.353828 435.191162 316.770477 63.415409 435.176270 316.803772 63.313816 435.231171 316.841980 63.378513 435.213165 316.878052 63.282547 435.262421 316.911407 63.349289 435.242401 316.949860 63.257065 435.287903 316.979187 63.325241 435.266449 317.087891 63.217796 435.327179 317.110962 63.287769 435.303925 322.155457 65.971397 431.673584 321.179413 65.933266 431.738831 322.155518 65.983788 431.688324 322.157806 66.128578 431.959259 322.157593 66.123009 431.941681 321.186310 66.052299 431.936737 322.157074 66.106590 431.896484 322.156281 66.069542 431.816650 322.161346 66.162537 432.187744 322.160675 66.161644 432.149658 322.159271 66.152634 432.063141 320.234528 65.974770 432.206818 320.225220 65.955162 432.132690 320.217468 65.928474 432.060577 321.183105 66.019173 431.867004 322.155975 66.048126 431.779053 320.204285 65.808624 431.863464 319.241394 65.596161 432.075928 319.245514 65.642761 432.137421 320.211334 65.894966 431.991211 321.180817 65.979378 431.800812 322.155640 66.008629 431.720184 318.775604 65.497192 432.282990 316.184784 63.778332 434.309509 316.279785 63.945576 434.236023 316.242676 63.908607 434.179230 316.349030 64.058411 434.123199 316.313385 64.023849 434.063995 316.507080 64.250999 433.930603 316.474121 64.219757 433.868073 316.849274 64.554314 433.627289 316.819977 64.526352 433.561493 317.198944 64.804321 433.377289 317.171661 64.777817 433.310028 317.563416 65.034607 433.147003 317.537842 65.009186 433.078644 317.955780 65.252487 432.929108 317.932465 65.228294 432.859558 318.359314 65.428650 432.659180 318.795258 65.573090 432.415955 319.252380 65.683372 432.202820 320.206940 65.854904 431.925293 318.770630 65.450333 432.221771 318.313293 65.274841 432.397247 317.879974 65.071457 432.600647 317.480377 64.849586 432.822510 318.319122 65.322044 432.458160 317.886627 65.119041 432.661163 317.487671 64.897522 432.882690 317.118103 64.664017 433.116180 317.897675 65.161278 432.724915 317.499756 64.940338 432.945831 317.131012 64.707352 433.178833 316.776306 64.453720 433.432465 317.110321 64.615776 433.056335 316.754059 64.361038 433.311066 316.762421 64.409691 433.370514 316.576508 64.215012 433.457092 316.400024 64.047050 433.625061 316.233215 63.843685 433.828400 316.585297 64.264030 433.516174 316.409424 64.096642 433.683563 316.243378 63.894226 433.885986 316.169769 63.774254 434.005951 316.425049 64.142220 433.743958 316.260254 63.941380 433.944794 316.187347 63.822548 434.063629 316.127441 63.687656 434.198517 316.098236 63.585785 434.086304 317.913025 65.197792 432.791260 317.516571 64.977661 433.011383 317.148956 64.745392 433.243652 316.795563 64.492714 433.496338 316.446686 64.183380 433.805664 316.283691 63.984715 434.004333 316.211761 63.867466 434.121582 316.152740 63.734612 434.254425 316.115051 63.583160 434.405884 316.282562 63.598038 434.752258 316.226562 63.637840 434.631531 316.051636 63.341011 434.331085 316.159180 63.723030 433.949066 316.109192 63.637894 434.142303 316.089111 63.533592 434.352600 316.107819 63.498909 434.490143 316.140869 63.547962 434.539886 316.180542 63.594429 434.587158 316.230804 63.554405 434.714966 316.250183 63.462669 434.806702 316.300964 63.510765 434.839508 316.292419 63.360828 434.908539 316.340942 63.414345 434.935944 316.325775 63.306473 434.962891 316.372406 63.363068 434.987213 316.368134 63.252163 435.017212 316.412292 63.311901 435.038391 316.417694 63.201130 435.068237 316.458984 63.263817 435.086456 316.470795 63.156178 435.113190 316.509125 63.221394 435.128876 316.575928 63.086006 435.183380 316.608795 63.154881 435.195404 316.673828 63.035412 435.233978 316.702240 63.106598 435.243683 316.764618 62.997173 435.272217 316.789429 63.069885 435.280396 316.850098 62.966827 435.302551 316.871887 63.040604 435.309692 317.026672 62.996559 435.353729 316.079102 63.138279 434.533813 316.090179 63.193996 434.586212 316.059143 63.428699 434.243408 316.070404 63.481941 434.298248 316.062927 63.394947 434.385254 316.081726 63.447746 434.438446 316.086548 63.353939 434.532257 316.112518 63.406967 434.582092 316.134064 63.305031 434.684021 316.145447 63.458389 434.629456 316.166382 63.359291 434.728546 316.184998 63.507702 434.673889 316.205200 63.412010 434.769592 316.099701 63.080036 434.592072 316.128967 63.018173 434.653931 316.168671 62.953465 434.718628 316.067810 63.299793 434.480408 316.108551 63.249756 434.636414 316.153687 63.249577 434.739471 316.219269 62.888569 434.783539 316.278503 62.827591 434.844513 316.341644 62.774120 434.897980 316.110565 63.136314 434.643890 316.139526 63.075073 434.705139 316.178833 63.011028 434.769165 316.228912 62.946819 434.833374 316.287476 62.886482 434.893707 316.350006 62.833565 434.946625 316.472351 62.751865 435.028320 316.951813 62.506062 435.166046 316.776642 62.555939 435.116150 316.681122 62.589870 435.082214 316.578156 62.633236 435.038849 316.465179 62.691628 434.980469 316.404419 62.729156 434.942932 316.584320 62.693977 435.086212 316.686523 62.650944 435.129242 316.781372 62.617245 435.162964 316.955536 62.567657 435.212524 316.961761 62.633202 435.252991 316.789276 62.682301 435.203888 316.695496 62.715614 435.170563 316.594604 62.758099 435.128082 316.484253 62.815147 435.071045 316.363892 62.895519 434.990662 316.302460 62.947525 434.938660 316.244904 63.006790 434.879395 316.195709 63.069866 434.816315 316.157104 63.132793 434.753387 316.128632 63.193008 434.693176 316.970367 62.702042 435.287018 316.800232 62.750473 435.238586 316.707947 62.783253 435.205780 316.608887 62.824970 435.164062 316.500763 62.880856 435.108185 316.383148 62.959393 435.029663 316.323212 63.010128 434.978912 316.267090 63.067909 434.921143 316.219147 63.129406 434.859650 316.181488 63.190792 434.798248 320.352051 65.867035 432.787933 319.471008 65.672707 432.982269 318.638214 65.384598 433.270386 318.250488 65.202606 433.452362 317.886169 65.000252 433.654724 317.543365 64.783661 433.871307 317.219360 64.552048 434.102936 316.923248 64.290215 434.364746 316.799194 64.139519 434.515442 316.748596 64.057076 434.597900 316.709412 63.969028 434.685944 316.685883 63.875126 434.779846 316.684265 63.775082 434.879883 316.695282 63.722458 434.932526 316.717743 63.668144 434.986816 316.734528 63.640739 435.014221 316.755402 63.613976 435.040985 316.779846 63.588810 435.066162 316.806763 63.566029 435.088959 316.864014 63.527924 435.127045 316.922791 63.497608 435.157379 316.981934 63.472717 435.182251 317.041229 63.451694 435.203278 317.159698 63.418018 435.236969 321.247467 66.021866 432.606567 320.334442 65.905289 432.723145 319.443695 65.708801 432.919617 318.599548 65.416740 433.211700 318.206421 65.232201 433.396240 317.837891 65.027527 433.600922 317.491852 64.808884 433.819550 317.164001 64.574524 434.053894 316.860992 64.306488 434.321960 316.731873 64.149521 434.478912 316.678467 64.062531 434.565887 316.636688 63.968632 434.659790 316.611298 63.867210 434.761230 316.609558 63.757217 434.871216 316.621979 63.698151 434.930267 316.647675 63.636009 434.992432 316.667206 63.604168 435.024261 316.691620 63.572865 435.055573 316.720184 63.543438 435.084991 316.751434 63.517006 435.111420 316.816559 63.473618 435.154816 316.881775 63.439960 435.188477 316.946136 63.412872 435.215546 317.009735 63.390312 435.238129 317.134949 63.354710 435.273712 322.165558 63.510036 429.208954 322.165558 65.932014 431.630920 322.175690 66.074837 432.549072 322.175690 66.020287 432.639282 322.175690 66.088913 432.520416 322.175690 66.123230 432.433777 322.175690 66.135857 432.391449 322.175690 66.152763 432.312286 322.175690 66.159691 432.256287 322.175690 66.162689 432.187622 322.175690 66.159691 432.119019 322.175690 66.152756 432.062988 322.175690 66.135857 431.983856 322.175690 66.123222 431.941498 322.175690 66.088913 431.854889 322.175690 66.074821 431.826202 322.175690 66.020287 431.736023 322.175690 66.008781 431.720032 334.013275 60.789097 435.660278 334.013275 59.480671 434.351868 334.013275 58.476532 435.356018 334.013275 59.174171 435.966797 334.013275 59.784958 436.664429 "
							            />
						</IndexedFaceSet>
					</Shape>
				</Group>
			</Transform>
		</Transform>
	</Scene>
</X3D>