<?xml version="1.0" encoding="UTF-8"?>
<!DOCTYPE X3D PUBLIC "ISO//Web3D//DTD X3D 3.0//EN" "http://www.web3d.org/specifications/x3d-3.0.dtd">
<X3D version="3.0" profile="Immersive" xmlns:xsd="http://www.w3.org/2001/XMLSchema-instance" xsd:noNamespaceSchemaLocation="http://www.web3d.org/specifications/x3d-3.0.xsd">
	<head>
		<meta name="filename" content="OMLV4_Packing - For Xander - FuselageTank2-1.x3d" />
		<meta name="created" content="2026-04-19 20:21:17" />
		<meta name="generator" content="Blender 4.3.2" />
		<meta name="translator" content="Web3D X3D/VRML2 format v2.5.1" />
	</head>
	<Scene>
		<NavigationInfo headlight="true"
		                visibilityLimit="0.0"
		                type='"EXAMINE", "ANY"'
		                avatarSize="0.25, 1.75, 0.75"
		                />
		<Background DEF="WO_World"
		            groundColor="0.051 0.051 0.051"
		            skyColor="0.051 0.051 0.051"
		            />
		<Transform DEF="OMLV4_Packing_-_For_Xander_-_FuselageTank2-1_TRANSFORM"
		           translation="0.000000 0.000000 0.000000"
		           scale="1.000000 1.000000 1.000000"
		           rotation="-1.000000 0.000000 0.000000 1.570796"
		           >
			<Transform DEF="OMLV4_Packing_-_For_Xander_-_FuselageTank2-1_ifs_TRANSFORM"
			           translation="0.000000 0.000000 0.000000"
			           scale="1.000000 1.000000 1.000000"
			           rotation="0.000000 1.000000 0.000000 0.000000"
			           >
				<Group DEF="group_ME_OMLV4_Packing_-_For_Xander_-_FuselageTank2-1">
					<Shape>
						<Appearance>
						</Appearance>
						<IndexedFaceSet solid="false"
						                coordIndex="0 1 2 -1 2 1 3 -1 2 3 4 -1 5 6 7 -1 7 6 1 -1 7 1 8 -1 9 10 11 -1 12 13 14 -1 14 13 1 -1 14 1 15 -1 15 1 0 -1 4 3 11 -1 11 3 16 -1 11 16 9 -1 17 18 11 -1 19 20 21 -1 21 20 22 -1 23 24 7 -1 7 24 25 -1 7 25 5 -1 18 26 11 -1 11 26 21 -1 11 21 27 -1 27 21 22 -1 13 28 1 -1 1 28 29 -1 1 29 30 -1 31 32 1 -1 1 32 33 -1 1 33 8 -1 10 34 11 -1 11 34 35 -1 11 35 36 -1 21 37 19 -1 19 37 38 -1 19 38 39 -1 39 38 40 -1 41 42 11 -1 11 42 43 -1 11 43 17 -1 44 45 40 -1 40 45 46 -1 40 46 39 -1 30 47 1 -1 1 47 48 -1 1 48 49 -1 50 51 52 -1 52 51 53 -1 53 51 40 -1 40 51 54 -1 40 54 44 -1 49 55 1 -1 1 55 56 -1 1 56 31 -1 36 57 11 -1 11 57 58 -1 11 58 59 -1 59 60 11 -1 11 60 61 -1 11 61 41 -1 62 63 64 -1 64 63 65 -1 65 63 66 -1 66 63 67 -1 66 67 68 -1 69 70 67 -1 71 72 62 -1 73 74 62 -1 69 67 75 -1 73 62 76 -1 74 77 62 -1 62 77 78 -1 62 78 63 -1 79 80 81 -1 70 82 67 -1 67 82 83 -1 67 83 68 -1 84 71 85 -1 85 71 86 -1 62 87 71 -1 71 87 88 -1 71 88 86 -1 81 89 79 -1 79 89 90 -1 79 90 91 -1 80 79 67 -1 67 79 92 -1 67 92 93 -1 72 94 62 -1 62 94 95 -1 62 95 96 -1 97 98 67 -1 67 98 99 -1 67 99 75 -1 100 101 62 -1 62 101 102 -1 62 102 76 -1 84 85 103 -1 103 85 104 -1 103 104 105 -1 105 104 106 -1 105 106 107 -1 93 108 67 -1 67 108 109 -1 67 109 110 -1 107 111 105 -1 105 111 112 -1 105 112 113 -1 114 115 113 -1 113 115 116 -1 113 116 105 -1 110 117 67 -1 67 117 118 -1 67 118 97 -1 96 119 62 -1 62 119 120 -1 62 120 121 -1 121 122 62 -1 62 122 123 -1 62 123 100 -1 60 122 121 -1 60 121 61 -1 61 121 120 -1 61 120 41 -1 41 120 119 -1 41 119 42 -1 42 119 96 -1 42 96 43 -1 43 96 95 -1 43 95 17 -1 17 95 94 -1 17 94 18 -1 18 94 72 -1 18 72 26 -1 26 72 71 -1 26 71 21 -1 21 71 84 -1 21 84 37 -1 37 84 103 -1 37 103 38 -1 38 103 105 -1 38 105 40 -1 40 105 116 -1 40 116 53 -1 53 116 115 -1 53 115 52 -1 52 115 114 -1 52 114 50 -1 50 114 113 -1 50 113 51 -1 23 91 90 -1 23 90 24 -1 24 90 89 -1 24 89 25 -1 25 89 81 -1 25 81 5 -1 5 81 80 -1 5 80 6 -1 6 80 67 -1 6 67 1 -1 1 67 63 -1 1 63 3 -1 3 63 78 -1 3 78 16 -1 16 78 77 -1 16 77 9 -1 9 77 74 -1 9 74 10 -1 10 74 73 -1 10 73 34 -1 34 73 76 -1 34 76 35 -1 35 76 102 -1 35 102 36 -1 36 102 101 -1 36 101 57 -1 57 101 100 -1 57 100 58 -1 58 100 123 -1 58 123 59 -1 59 123 122 -1 59 122 60 -1 12 82 70 -1 12 70 13 -1 13 70 69 -1 13 69 28 -1 28 69 75 -1 28 75 29 -1 29 75 99 -1 29 99 30 -1 30 99 98 -1 30 98 47 -1 47 98 97 -1 47 97 48 -1 48 97 118 -1 48 118 49 -1 49 118 117 -1 49 117 55 -1 55 117 110 -1 55 110 56 -1 56 110 109 -1 56 109 31 -1 31 109 108 -1 31 108 32 -1 32 108 93 -1 32 93 33 -1 33 93 92 -1 33 92 8 -1 8 92 79 -1 8 79 7 -1 7 79 91 -1 7 91 23 -1 51 113 112 -1 51 112 54 -1 54 112 111 -1 54 111 44 -1 44 111 107 -1 44 107 45 -1 45 107 106 -1 45 106 46 -1 46 106 104 -1 46 104 39 -1 39 104 85 -1 39 85 19 -1 19 85 86 -1 19 86 20 -1 20 86 88 -1 20 88 22 -1 22 88 87 -1 22 87 27 -1 27 87 62 -1 27 62 11 -1 11 62 64 -1 11 64 4 -1 4 64 65 -1 4 65 2 -1 2 65 66 -1 2 66 0 -1 0 66 68 -1 0 68 15 -1 15 68 83 -1 15 83 14 -1 14 83 82 -1 14 82 12 -1 "
						                >
							<Coordinate DEF="coords_ME_OMLV4_Packing_-_For_Xander_-_FuselageTank2-1"
							            point="228.553940 102.790794 388.328888 228.553940 95.529663 336.192169 228.553940 98.234680 387.903687 228.553940 91.645630 336.683716 228.553940 92.860855 387.223541 228.553940 103.949036 335.374817 228.553940 100.905388 335.591919 228.553940 114.540398 342.766388 228.553940 117.505615 347.524841 228.553940 85.838989 336.994263 228.553940 82.814125 337.396454 228.553940 90.189598 386.967468 228.553940 109.774475 388.054932 228.553940 113.099449 382.828217 228.553940 107.926582 388.341949 228.553940 105.937241 388.434326 228.553940 88.600006 336.846893 228.553940 63.373791 354.126953 228.553940 63.001713 357.847046 228.553940 76.455276 384.995117 228.553940 79.850151 385.820221 228.553940 62.869354 361.910004 228.553940 83.806473 386.525452 228.553940 109.807205 335.721313 228.553940 108.394150 335.477356 228.553940 106.456535 335.342682 228.553940 62.869396 361.807617 228.553940 86.773468 386.852844 228.553940 116.781715 376.714905 228.553940 119.152039 372.367126 228.553940 120.699898 369.074768 228.553940 121.815392 356.477325 228.553940 120.930702 354.097656 228.553940 119.539444 351.165771 228.553940 79.202370 338.088959 228.553940 75.702957 338.989563 228.553940 73.008553 339.899780 228.553940 62.999268 365.884735 228.553940 63.369507 369.610321 228.553940 73.783096 384.157349 228.553940 63.936928 372.888794 228.553940 65.375526 346.198547 228.553940 64.628799 348.217743 228.553940 63.937622 350.876801 228.553940 68.226707 381.189880 228.553940 69.914581 382.372772 228.553940 71.676521 383.305054 228.553940 121.653664 366.558777 228.553940 122.260353 364.325256 228.553940 122.552711 362.332458 228.553940 66.165558 379.058502 228.553940 66.610748 379.650787 228.553940 65.418556 377.666840 228.553940 64.641396 375.591278 228.553940 66.949944 380.019836 228.553940 122.575226 360.438782 228.553940 122.339371 358.540802 228.553940 71.078438 340.752075 228.553940 69.352348 341.753479 228.553940 67.889076 342.860352 228.553940 66.610748 344.118011 228.553940 66.101379 344.809967 296.053925 90.189598 386.967468 296.053925 91.645630 336.683716 296.053925 92.860855 387.223541 296.053925 98.234680 387.903687 296.053925 102.790794 388.328888 296.053925 95.529663 336.192169 296.053925 105.937241 388.434326 296.053925 116.781715 376.714905 296.053925 113.099449 382.828217 296.053925 62.869354 361.910004 296.053925 62.869396 361.807617 296.053925 79.202370 338.088959 296.053925 82.814125 337.396454 296.053925 119.152039 372.367126 296.053925 75.702957 338.989563 296.053925 85.838989 336.994263 296.053925 88.600006 336.846893 296.053925 114.540398 342.766388 296.053925 100.905388 335.591919 296.053925 103.949036 335.374817 296.053925 109.774475 388.054932 296.053925 107.926582 388.341949 296.053925 62.999268 365.884735 296.053925 76.455276 384.995117 296.053925 79.850151 385.820221 296.053925 86.773468 386.852844 296.053925 83.806473 386.525452 296.053925 106.456535 335.342682 296.053925 108.394150 335.477356 296.053925 109.807205 335.721313 296.053925 117.505615 347.524841 296.053925 119.539444 351.165771 296.053925 63.001713 357.847046 296.053925 63.373791 354.126953 296.053925 63.937622 350.876801 296.053925 122.260353 364.325256 296.053925 121.653664 366.558777 296.053925 120.699898 369.074768 296.053925 69.352348 341.753479 296.053925 71.078438 340.752075 296.053925 73.008553 339.899780 296.053925 63.369507 369.610321 296.053925 73.783096 384.157349 296.053925 63.936928 372.888794 296.053925 71.676521 383.305054 296.053925 69.914581 382.372772 296.053925 120.930702 354.097656 296.053925 121.815392 356.477325 296.053925 122.339371 358.540802 296.053925 68.226707 381.189880 296.053925 66.949944 380.019836 296.053925 66.610748 379.650787 296.053925 66.165558 379.058502 296.053925 65.418556 377.666840 296.053925 64.641396 375.591278 296.053925 122.575226 360.438782 296.053925 122.552711 362.332458 296.053925 64.628799 348.217743 296.053925 65.375526 346.198547 296.053925 66.101379 344.809967 296.053925 66.610748 344.118011 296.053925 67.889076 342.860352 "
							            />
						</IndexedFaceSet>
					</Shape>
				</Group>
			</Transform>
		</Transform>
	</Scene>
</X3D>