<?xml version="1.0" encoding="UTF-8"?>
<!DOCTYPE X3D PUBLIC "ISO//Web3D//DTD X3D 3.0//EN" "http://www.web3d.org/specifications/x3d-3.0.dtd">
<X3D version="3.0" profile="Immersive" xmlns:xsd="http://www.w3.org/2001/XMLSchema-instance" xsd:noNamespaceSchemaLocation="http://www.web3d.org/specifications/x3d-3.0.xsd">
	<head>
		<meta name="filename" content="OMLV4_Packing - For Xander - Martin-Baker Ejection Seat_Final-1.x3d" />
		<meta name="created" content="2026-04-19 20:21:18" />
		<meta name="generator" content="Blender 4.3.2" />
		<meta name="translator" content="Web3D X3D/VRML2 format v2.5.1" />
	</head>
	<Scene>
		<NavigationInfo headlight="true"
		                visibilityLimit="0.0"
		                type='"EXAMINE", "ANY"'
		                avatarSize="0.25, 1.75, 0.75"
		                />
		<Background DEF="WO_World"
		            groundColor="0.051 0.051 0.051"
		            skyColor="0.051 0.051 0.051"
		            />
		<Transform DEF="OMLV4_Packing_-_For_Xander_-_Martin-Baker_Ejection_Seat_Final-1_TRANSFORM"
		           translation="0.000000 0.000000 0.000000"
		           scale="1.000000 1.000000 1.000000"
		           rotation="-1.000000 0.000000 0.000000 1.570796"
		           >
			<Transform DEF="OMLV4_Packing_-_For_Xander_-_Martin-Baker_Ejection_Seat_Final-1_ifs_TRANSFORM"
			           translation="0.000000 0.000000 0.000000"
			           scale="1.000000 1.000000 1.000000"
			           rotation="0.000000 1.000000 0.000000 0.000000"
			           >
				<Group DEF="group_ME_OMLV4_Packing_-_For_Xander_-_Martin-Baker_Ejection_Seat_Final-1">
					<Shape>
						<Appearance>
						</Appearance>
						<IndexedFaceSet solid="false"
						                coordIndex="0 1 2 -1 2 1 3 -1 4 0 5 -1 5 0 2 -1 4 5 6 -1 6 5 7 -1 6 7 8 -1 8 7 9 -1 8 9 10 -1 10 9 11 -1 10 11 12 -1 12 11 13 -1 14 15 16 -1 16 15 17 -1 16 17 13 -1 13 17 12 -1 18 19 14 -1 14 19 15 -1 18 20 21 -1 20 18 22 -1 22 18 23 -1 22 23 24 -1 24 23 25 -1 24 25 26 -1 27 28 19 -1 28 29 19 -1 19 29 30 -1 19 30 31 -1 31 30 32 -1 31 32 33 -1 33 32 34 -1 21 35 18 -1 18 35 36 -1 18 36 37 -1 38 39 19 -1 19 39 40 -1 19 40 27 -1 37 41 18 -1 18 41 42 -1 18 42 19 -1 19 42 43 -1 19 43 38 -1 44 45 42 -1 42 45 43 -1 46 47 44 -1 44 47 45 -1 48 49 47 -1 46 50 51 -1 48 47 52 -1 53 54 46 -1 46 54 55 -1 46 55 50 -1 51 56 46 -1 46 56 57 -1 46 57 47 -1 47 57 58 -1 47 58 52 -1 49 59 47 -1 47 59 60 -1 47 60 61 -1 62 63 46 -1 46 63 64 -1 46 64 53 -1 61 65 47 -1 47 65 66 -1 47 66 67 -1 58 57 68 -1 68 57 69 -1 70 71 72 -1 72 71 68 -1 72 68 73 -1 73 68 69 -1 70 72 74 -1 74 72 75 -1 74 75 76 -1 76 75 77 -1 76 77 78 -1 77 79 78 -1 78 79 80 -1 78 80 81 -1 81 80 82 -1 81 82 83 -1 83 82 84 -1 83 84 85 -1 85 84 86 -1 86 84 87 -1 86 87 88 -1 87 89 88 -1 88 89 90 -1 88 90 91 -1 91 90 92 -1 91 92 93 -1 93 92 94 -1 93 94 95 -1 95 94 96 -1 95 96 97 -1 98 97 99 -1 99 97 96 -1 100 98 101 -1 101 98 99 -1 102 100 103 -1 103 100 101 -1 104 102 105 -1 105 102 103 -1 106 104 107 -1 107 104 105 -1 106 107 108 -1 106 108 109 -1 109 108 110 -1 109 110 111 -1 111 110 112 -1 111 112 113 -1 113 112 114 -1 113 114 115 -1 115 114 116 -1 115 116 117 -1 117 116 118 -1 117 118 119 -1 119 118 120 -1 119 120 121 -1 122 121 123 -1 123 121 120 -1 124 122 125 -1 125 122 123 -1 126 124 127 -1 127 124 125 -1 128 126 129 -1 129 126 127 -1 1 128 3 -1 3 128 129 -1 128 1 0 -1 95 97 6 -1 0 4 128 -1 128 4 6 -1 128 6 98 -1 98 6 97 -1 98 100 102 -1 106 109 128 -1 86 88 130 -1 130 88 91 -1 130 91 6 -1 6 91 93 -1 6 93 95 -1 98 102 128 -1 128 102 104 -1 128 104 106 -1 122 124 121 -1 121 124 126 -1 121 126 119 -1 119 126 128 -1 119 128 117 -1 117 128 115 -1 109 111 128 -1 128 111 113 -1 128 113 115 -1 89 87 131 -1 103 101 99 -1 2 3 5 -1 5 3 129 -1 5 129 7 -1 107 105 129 -1 96 7 99 -1 99 7 129 -1 99 129 103 -1 103 129 105 -1 125 123 127 -1 127 123 120 -1 127 120 129 -1 129 120 118 -1 96 94 7 -1 7 94 92 -1 7 92 131 -1 131 92 90 -1 131 90 89 -1 118 116 129 -1 129 116 114 -1 129 114 112 -1 112 110 129 -1 129 110 108 -1 129 108 107 -1 132 14 133 -1 133 14 16 -1 133 16 131 -1 131 16 13 -1 131 13 7 -1 7 13 11 -1 7 11 9 -1 134 26 135 -1 135 26 25 -1 135 25 136 -1 136 25 23 -1 136 23 132 -1 132 23 18 -1 132 18 14 -1 44 42 137 -1 137 42 41 -1 137 41 138 -1 138 41 37 -1 138 37 139 -1 139 37 36 -1 139 36 140 -1 140 36 35 -1 140 35 141 -1 141 35 21 -1 141 21 142 -1 142 21 20 -1 142 20 143 -1 143 20 22 -1 143 22 134 -1 134 22 24 -1 134 24 26 -1 75 72 132 -1 69 57 56 -1 46 44 62 -1 62 44 137 -1 62 137 63 -1 135 51 134 -1 134 51 50 -1 134 50 143 -1 143 50 55 -1 143 55 142 -1 142 55 54 -1 142 54 141 -1 141 54 53 -1 141 53 140 -1 140 53 64 -1 140 64 139 -1 139 64 63 -1 139 63 138 -1 138 63 137 -1 132 72 136 -1 72 73 136 -1 136 73 69 -1 136 69 135 -1 135 69 56 -1 135 56 51 -1 131 87 133 -1 133 87 84 -1 133 84 82 -1 82 80 133 -1 133 80 79 -1 133 79 132 -1 132 79 77 -1 132 77 75 -1 8 10 6 -1 6 10 12 -1 15 144 17 -1 17 144 145 -1 17 145 12 -1 12 145 130 -1 12 130 6 -1 27 146 28 -1 28 146 147 -1 28 147 29 -1 29 147 148 -1 29 148 30 -1 30 148 149 -1 30 149 32 -1 32 149 150 -1 32 150 34 -1 34 150 151 -1 34 151 33 -1 33 151 144 -1 33 144 31 -1 31 144 15 -1 31 15 19 -1 43 45 38 -1 38 45 152 -1 38 152 39 -1 39 152 153 -1 39 153 40 -1 40 153 154 -1 40 154 27 -1 27 154 155 -1 27 155 146 -1 145 78 81 -1 86 130 85 -1 85 130 145 -1 85 145 83 -1 83 145 81 -1 78 145 76 -1 76 145 144 -1 76 144 74 -1 52 58 68 -1 149 52 150 -1 150 52 68 -1 150 68 151 -1 151 68 71 -1 151 71 144 -1 144 71 70 -1 144 70 74 -1 45 47 152 -1 152 47 67 -1 152 67 153 -1 153 67 66 -1 153 66 154 -1 154 66 65 -1 154 65 155 -1 155 65 61 -1 155 61 146 -1 146 61 60 -1 146 60 147 -1 147 60 59 -1 147 59 148 -1 148 59 49 -1 148 49 149 -1 149 49 48 -1 149 48 52 -1 "
						                >
							<Coordinate DEF="coords_ME_OMLV4_Packing_-_For_Xander_-_Martin-Baker_Ejection_Seat_Final-1"
							            point="154.805084 81.274429 370.884399 151.889633 81.710442 370.884399 154.805084 81.274429 352.884399 151.889633 81.710442 352.884399 157.245377 82.947067 370.884399 157.245377 82.947067 352.884399 163.906433 129.953979 370.884399 163.906433 129.953979 352.884399 163.996933 130.592636 370.850189 163.996933 130.592636 352.918640 163.947647 130.599609 370.850861 160.520462 131.085251 352.887726 160.470932 131.092270 370.881317 160.470932 131.092270 352.887512 160.661545 132.181549 353.025635 160.661545 132.181549 370.743195 160.617889 131.932053 352.975555 160.617889 131.932053 370.793243 162.236618 132.181549 353.132935 162.236618 132.181549 370.635864 162.319199 135.773834 355.884399 162.324921 136.022812 356.348694 162.312546 135.484116 355.442963 162.244751 132.535004 353.246246 162.304993 135.155853 355.027679 162.267197 133.511459 353.688263 162.287476 134.394028 354.288147 162.329666 136.229156 366.936523 162.324921 136.022812 367.420105 162.319199 135.773834 367.884399 162.312546 135.484116 368.325867 162.244751 132.535004 370.522552 162.304993 135.155853 368.741150 162.267197 133.511459 370.080566 162.287476 134.394028 369.480682 162.329666 136.229156 356.832275 162.333405 136.391312 357.331482 162.336075 136.508011 357.842529 162.337692 136.578400 365.407349 162.336075 136.508011 365.926300 162.333405 136.391312 366.437317 162.337692 136.578400 358.361481 162.338242 136.601913 358.884399 162.338242 136.601913 364.884399 159.775131 137.301849 358.884399 159.775131 137.301849 364.884399 151.614151 135.706970 358.884399 151.614151 135.706970 364.884399 151.416580 134.238068 368.741150 151.461426 134.571503 368.325867 151.461426 134.571503 355.442963 151.416580 134.238068 355.027679 151.312485 133.464203 369.480682 151.563217 135.328323 356.832275 151.535034 135.118713 356.348694 151.501007 134.865799 355.884399 151.312485 133.464203 354.288147 151.246857 132.976166 353.934113 151.246857 132.976166 369.834717 151.501007 134.865799 367.884399 151.535034 135.118713 367.420105 151.563217 135.328323 366.936523 151.610931 135.683075 358.361481 151.601318 135.611588 357.842529 151.585373 135.493027 357.331482 151.585373 135.493027 366.437317 151.601318 135.611588 365.926300 151.610931 135.683075 365.407349 151.856064 132.695496 370.081696 151.856079 132.695496 353.687134 153.261002 132.007767 370.522034 152.372971 132.450516 370.263306 153.261002 132.007767 353.246796 152.374405 132.449829 353.505035 153.511093 131.875961 370.583496 153.511093 131.875961 353.185333 154.155701 131.514099 370.719391 154.153793 131.515228 353.049774 154.594894 131.241119 370.792633 154.594879 131.241135 352.976166 154.780685 131.116364 352.950378 154.780685 131.116364 370.818451 155.199203 130.807083 352.905579 155.198334 130.807770 370.863190 155.594742 130.463730 352.885101 155.594818 130.463654 370.883728 155.673950 130.386856 370.884399 155.673950 130.386856 352.884399 156.169800 129.818817 370.884399 156.169800 129.818817 352.884399 156.673141 129.024338 352.884399 156.673141 129.024338 370.884399 157.237854 127.775063 352.884399 157.237854 127.775063 370.884399 157.884003 125.900734 352.884399 157.884003 125.900734 370.884399 158.135956 125.077255 352.884399 158.135956 125.077255 370.884399 157.754974 122.075890 370.884399 157.754974 122.075890 352.884399 153.416229 122.626640 370.884399 153.416229 122.626640 352.884399 152.750488 111.955841 370.884399 152.750488 111.955841 352.884399 148.315643 93.058205 370.884399 148.315643 93.058205 352.884399 132.032394 93.058205 370.884399 132.032394 93.058205 352.884399 130.133484 92.712494 352.884399 130.133484 92.712494 370.884399 129.152618 92.407486 352.884399 129.152618 92.407486 370.884399 128.676346 92.164024 352.884399 128.676346 92.164024 370.884399 128.293976 91.881859 352.884399 128.293976 91.881859 370.884399 127.894379 91.476379 352.884399 127.894379 91.476379 370.884399 127.209290 90.528954 352.884399 127.209290 90.528954 370.884399 126.751122 89.776649 352.884399 126.751122 89.776649 370.884399 125.512787 89.776649 370.884399 125.512787 89.776649 352.884399 125.409485 86.908150 370.884399 125.409485 86.908150 352.884399 129.839493 82.920944 370.884399 129.839493 82.920944 352.884399 152.429108 84.131454 370.884399 152.429108 84.131454 352.884399 159.548462 131.144043 370.884399 159.548462 131.144043 352.884399 159.625992 133.250137 353.246246 159.587830 132.213333 352.975555 159.722107 135.861191 355.027679 159.694168 135.102203 354.288147 159.661804 134.222946 353.688263 159.774277 137.278412 358.361481 159.771683 137.208298 357.842529 159.767410 137.092026 357.331482 159.761459 136.930496 356.832275 159.753891 136.724915 356.348694 159.744766 136.476868 355.884399 159.734146 136.188217 355.442963 159.625992 133.250137 370.522552 159.587830 132.213333 370.793243 159.753891 136.724915 367.420105 159.744766 136.476868 367.884399 159.734146 136.188217 368.325867 159.722107 135.861191 368.741150 159.694168 135.102203 369.480682 159.661804 134.222946 370.080566 159.774277 137.278412 365.407349 159.771683 137.208298 365.926300 159.767410 137.092026 366.437317 159.761459 136.930496 366.936523 "
							            />
						</IndexedFaceSet>
					</Shape>
				</Group>
			</Transform>
		</Transform>
	</Scene>
</X3D>