<?xml version="1.0" encoding="UTF-8"?>
<!DOCTYPE X3D PUBLIC "ISO//Web3D//DTD X3D 3.0//EN" "http://www.web3d.org/specifications/x3d-3.0.dtd">
<X3D version="3.0" profile="Immersive" xmlns:xsd="http://www.w3.org/2001/XMLSchema-instance" xsd:noNamespaceSchemaLocation="http://www.web3d.org/specifications/x3d-3.0.xsd">
	<head>
		<meta name="filename" content="OMLV4_Packing - For Xander - AIM-120_LAU176_Pylon_Assy-1 AIM-120D AMRAAM-1.x3d" />
		<meta name="created" content="2026-04-19 20:21:16" />
		<meta name="generator" content="Blender 4.3.2" />
		<meta name="translator" content="Web3D X3D/VRML2 format v2.5.1" />
	</head>
	<Scene>
		<NavigationInfo headlight="true"
		                visibilityLimit="0.0"
		                type='"EXAMINE", "ANY"'
		                avatarSize="0.25, 1.75, 0.75"
		                />
		<Background DEF="WO_World"
		            groundColor="0.051 0.051 0.051"
		            skyColor="0.051 0.051 0.051"
		            />
		<Transform DEF="OMLV4_Packing_-_For_Xander_-_AIM-120_LAU176_Pylon_Assy-1_AIM-12_TRANSFORM"
		           translation="0.000000 0.000000 0.000000"
		           scale="1.000000 1.000000 1.000000"
		           rotation="-1.000000 0.000000 0.000000 1.570796"
		           >
			<Transform DEF="OMLV4_Packing_-_For_Xander_-_AIM-120_LAU176_Pylon_Assy-1_AIM-12_ifs_TRANSFORM"
			           translation="0.000000 0.000000 0.000000"
			           scale="1.000000 1.000000 1.000000"
			           rotation="0.000000 1.000000 0.000000 0.000000"
			           >
				<Group DEF="group_ME_OMLV4_Packing_-_For_Xander_-_AIM-120_LAU176_Pylon_Assy-1_AIM-12">
					<Shape>
						<Appearance>
						</Appearance>
						<IndexedFaceSet solid="false"
						                coordIndex="0 1 2 -1 3 4 5 -1 6 7 8 -1 9 10 11 -1 12 13 14 -1 12 14 15 -1 16 17 18 -1 18 17 19 -1 18 19 20 -1 20 19 21 -1 20 21 22 -1 15 14 23 -1 23 14 24 -1 23 24 22 -1 22 24 9 -1 22 9 20 -1 25 26 27 -1 28 29 30 -1 27 26 30 -1 30 26 31 -1 30 31 28 -1 32 33 34 -1 34 33 35 -1 34 35 36 -1 36 35 37 -1 36 37 25 -1 38 39 40 -1 38 40 41 -1 42 43 44 -1 44 43 45 -1 44 45 46 -1 46 45 47 -1 46 47 48 -1 41 40 49 -1 49 40 50 -1 49 50 48 -1 48 50 3 -1 48 3 46 -1 51 52 53 -1 54 55 56 -1 53 52 56 -1 56 52 57 -1 56 57 54 -1 58 59 60 -1 60 59 61 -1 60 61 62 -1 62 61 63 -1 62 63 51 -1 9 11 20 -1 20 11 64 -1 20 64 65 -1 65 64 66 -1 65 66 67 -1 67 66 68 -1 67 68 69 -1 69 68 70 -1 69 70 71 -1 71 70 72 -1 71 72 73 -1 73 72 74 -1 73 74 75 -1 75 74 38 -1 75 38 42 -1 42 38 41 -1 42 41 43 -1 27 6 25 -1 25 6 8 -1 25 8 36 -1 36 8 76 -1 36 76 77 -1 77 76 78 -1 77 78 79 -1 79 78 80 -1 79 80 81 -1 81 80 82 -1 81 82 83 -1 83 82 84 -1 83 84 85 -1 85 84 86 -1 85 86 87 -1 87 86 12 -1 87 12 16 -1 16 12 15 -1 16 15 17 -1 53 0 51 -1 51 0 2 -1 51 2 62 -1 62 2 88 -1 62 88 89 -1 89 88 90 -1 89 90 91 -1 91 90 92 -1 91 92 93 -1 93 92 94 -1 93 94 95 -1 95 94 96 -1 95 96 97 -1 97 96 98 -1 97 98 99 -1 99 98 28 -1 99 28 32 -1 32 28 31 -1 32 31 33 -1 3 5 46 -1 46 5 100 -1 46 100 101 -1 101 100 102 -1 101 102 103 -1 103 102 104 -1 103 104 105 -1 105 104 106 -1 105 106 107 -1 107 106 108 -1 107 108 109 -1 109 108 110 -1 109 110 111 -1 111 110 54 -1 111 54 58 -1 58 54 57 -1 58 57 59 -1 112 113 114 -1 115 113 112 -1 112 116 117 -1 118 116 112 -1 114 118 112 -1 112 119 120 -1 121 119 112 -1 117 121 112 -1 112 122 123 -1 124 122 112 -1 120 124 112 -1 112 125 126 -1 127 125 112 -1 123 127 112 -1 112 128 129 -1 130 128 112 -1 126 130 112 -1 112 131 132 -1 133 131 112 -1 129 133 112 -1 112 134 135 -1 136 134 112 -1 132 136 112 -1 112 137 138 -1 139 137 112 -1 135 139 112 -1 112 140 141 -1 142 140 112 -1 138 142 112 -1 112 143 144 -1 145 143 112 -1 141 145 112 -1 112 146 147 -1 148 146 112 -1 144 148 112 -1 147 115 112 -1 149 62 150 -1 150 62 89 -1 150 89 151 -1 151 89 91 -1 151 91 152 -1 152 91 93 -1 152 93 153 -1 153 93 95 -1 153 95 154 -1 154 95 97 -1 154 97 155 -1 155 97 99 -1 155 99 156 -1 156 99 32 -1 156 32 157 -1 157 32 34 -1 157 34 158 -1 158 34 36 -1 158 36 159 -1 159 36 77 -1 159 77 160 -1 160 77 79 -1 160 79 161 -1 161 79 81 -1 161 81 162 -1 162 81 83 -1 162 83 163 -1 163 83 85 -1 163 85 164 -1 164 85 87 -1 164 87 165 -1 165 87 16 -1 165 16 166 -1 166 16 18 -1 166 18 167 -1 167 18 20 -1 167 20 168 -1 168 20 65 -1 168 65 169 -1 169 65 67 -1 169 67 170 -1 170 67 69 -1 170 69 171 -1 171 69 71 -1 171 71 172 -1 172 71 73 -1 172 73 173 -1 173 73 75 -1 173 75 174 -1 174 75 42 -1 174 42 175 -1 175 42 44 -1 175 44 176 -1 176 44 46 -1 176 46 177 -1 177 46 101 -1 177 101 178 -1 178 101 103 -1 178 103 179 -1 179 103 105 -1 179 105 180 -1 180 105 107 -1 180 107 181 -1 181 107 109 -1 181 109 182 -1 182 109 111 -1 182 111 183 -1 183 111 58 -1 183 58 184 -1 184 58 60 -1 184 60 149 -1 149 60 62 -1 149 185 184 -1 184 185 186 -1 184 186 183 -1 183 186 187 -1 183 187 182 -1 182 187 188 -1 182 188 181 -1 181 188 189 -1 181 189 180 -1 180 189 190 -1 180 190 179 -1 179 190 191 -1 179 191 178 -1 178 191 192 -1 178 192 177 -1 177 192 193 -1 177 193 176 -1 176 193 194 -1 176 194 175 -1 175 194 195 -1 175 195 174 -1 174 195 196 -1 174 196 173 -1 173 196 197 -1 173 197 172 -1 172 197 198 -1 172 198 171 -1 171 198 199 -1 171 199 170 -1 170 199 200 -1 170 200 169 -1 169 200 201 -1 169 201 168 -1 168 201 202 -1 168 202 167 -1 167 202 203 -1 167 203 166 -1 166 203 204 -1 166 204 165 -1 165 204 205 -1 165 205 164 -1 164 205 206 -1 164 206 163 -1 163 206 207 -1 163 207 162 -1 162 207 208 -1 162 208 161 -1 161 208 209 -1 161 209 160 -1 160 209 210 -1 160 210 159 -1 159 210 211 -1 159 211 158 -1 158 211 212 -1 158 212 157 -1 157 212 213 -1 157 213 156 -1 156 213 214 -1 156 214 155 -1 155 214 215 -1 155 215 154 -1 154 215 216 -1 154 216 153 -1 153 216 217 -1 153 217 152 -1 152 217 218 -1 152 218 151 -1 151 218 219 -1 151 219 150 -1 150 219 220 -1 150 220 149 -1 149 220 185 -1 220 221 185 -1 185 221 222 -1 185 222 186 -1 186 222 223 -1 186 223 187 -1 187 223 224 -1 187 224 188 -1 188 224 225 -1 188 225 189 -1 189 225 226 -1 189 226 190 -1 190 226 227 -1 190 227 191 -1 191 227 228 -1 191 228 192 -1 192 228 229 -1 192 229 193 -1 193 229 230 -1 193 230 194 -1 194 230 231 -1 194 231 195 -1 195 231 232 -1 195 232 196 -1 196 232 233 -1 196 233 197 -1 197 233 234 -1 197 234 198 -1 198 234 235 -1 198 235 199 -1 199 235 236 -1 199 236 200 -1 200 236 237 -1 200 237 201 -1 201 237 238 -1 201 238 202 -1 202 238 239 -1 202 239 203 -1 203 239 240 -1 203 240 204 -1 204 240 241 -1 204 241 205 -1 205 241 242 -1 205 242 206 -1 206 242 243 -1 206 243 207 -1 207 243 244 -1 207 244 208 -1 208 244 245 -1 208 245 209 -1 209 245 246 -1 209 246 210 -1 210 246 247 -1 210 247 211 -1 211 247 248 -1 211 248 212 -1 212 248 249 -1 212 249 213 -1 213 249 250 -1 213 250 214 -1 214 250 251 -1 214 251 215 -1 215 251 252 -1 215 252 216 -1 216 252 253 -1 216 253 217 -1 217 253 254 -1 217 254 218 -1 218 254 255 -1 218 255 219 -1 219 255 256 -1 219 256 220 -1 220 256 221 -1 256 257 221 -1 221 257 258 -1 221 258 222 -1 222 258 259 -1 222 259 223 -1 223 259 260 -1 223 260 224 -1 224 260 261 -1 224 261 225 -1 225 261 262 -1 225 262 226 -1 226 262 263 -1 226 263 227 -1 227 263 264 -1 227 264 228 -1 228 264 265 -1 228 265 229 -1 229 265 266 -1 229 266 230 -1 230 266 267 -1 230 267 231 -1 231 267 268 -1 231 268 232 -1 232 268 269 -1 232 269 233 -1 233 269 270 -1 233 270 234 -1 234 270 271 -1 234 271 235 -1 235 271 272 -1 235 272 236 -1 236 272 273 -1 236 273 237 -1 237 273 274 -1 237 274 238 -1 238 274 275 -1 238 275 239 -1 239 275 276 -1 239 276 240 -1 240 276 277 -1 240 277 241 -1 241 277 278 -1 241 278 242 -1 242 278 279 -1 242 279 243 -1 243 279 280 -1 243 280 244 -1 244 280 281 -1 244 281 245 -1 245 281 282 -1 245 282 246 -1 246 282 283 -1 246 283 247 -1 247 283 284 -1 247 284 248 -1 248 284 285 -1 248 285 249 -1 249 285 286 -1 249 286 250 -1 250 286 287 -1 250 287 251 -1 251 287 288 -1 251 288 252 -1 252 288 289 -1 252 289 253 -1 253 289 290 -1 253 290 254 -1 254 290 291 -1 254 291 255 -1 255 291 292 -1 255 292 256 -1 256 292 257 -1 292 293 257 -1 257 293 294 -1 257 294 258 -1 258 294 295 -1 258 295 259 -1 259 295 296 -1 259 296 260 -1 260 296 297 -1 260 297 261 -1 261 297 298 -1 261 298 262 -1 262 298 299 -1 262 299 263 -1 263 299 300 -1 263 300 264 -1 264 300 301 -1 264 301 265 -1 265 301 302 -1 265 302 266 -1 266 302 303 -1 266 303 267 -1 267 303 304 -1 267 304 268 -1 268 304 305 -1 268 305 269 -1 269 305 306 -1 269 306 270 -1 270 306 307 -1 270 307 271 -1 271 307 308 -1 271 308 272 -1 272 308 309 -1 272 309 273 -1 273 309 310 -1 273 310 274 -1 274 310 311 -1 274 311 275 -1 275 311 312 -1 275 312 276 -1 276 312 313 -1 276 313 277 -1 277 313 314 -1 277 314 278 -1 278 314 315 -1 278 315 279 -1 279 315 316 -1 279 316 280 -1 280 316 317 -1 280 317 281 -1 281 317 318 -1 281 318 282 -1 282 318 319 -1 282 319 283 -1 283 319 320 -1 283 320 284 -1 284 320 321 -1 284 321 285 -1 285 321 322 -1 285 322 286 -1 286 322 323 -1 286 323 287 -1 287 323 324 -1 287 324 288 -1 288 324 325 -1 288 325 289 -1 289 325 326 -1 289 326 290 -1 290 326 327 -1 290 327 291 -1 291 327 328 -1 291 328 292 -1 292 328 293 -1 328 115 293 -1 293 115 147 -1 293 147 294 -1 294 147 146 -1 294 146 295 -1 295 146 148 -1 295 148 296 -1 296 148 144 -1 296 144 297 -1 297 144 143 -1 297 143 298 -1 298 143 145 -1 298 145 299 -1 299 145 141 -1 299 141 300 -1 300 141 140 -1 300 140 301 -1 301 140 142 -1 301 142 302 -1 302 142 138 -1 302 138 303 -1 303 138 137 -1 303 137 304 -1 304 137 139 -1 304 139 305 -1 305 139 135 -1 305 135 306 -1 306 135 134 -1 306 134 307 -1 307 134 136 -1 307 136 308 -1 308 136 132 -1 308 132 309 -1 309 132 131 -1 309 131 310 -1 310 131 133 -1 310 133 311 -1 311 133 129 -1 311 129 312 -1 312 129 128 -1 312 128 313 -1 313 128 130 -1 313 130 314 -1 314 130 126 -1 314 126 315 -1 315 126 125 -1 315 125 316 -1 316 125 127 -1 316 127 317 -1 317 127 123 -1 317 123 318 -1 318 123 122 -1 318 122 319 -1 319 122 124 -1 319 124 320 -1 320 124 120 -1 320 120 321 -1 321 120 119 -1 321 119 322 -1 322 119 121 -1 322 121 323 -1 323 121 117 -1 323 117 324 -1 324 117 116 -1 324 116 325 -1 325 116 118 -1 325 118 326 -1 326 118 114 -1 326 114 327 -1 327 114 113 -1 327 113 328 -1 328 113 115 -1 11 10 29 -1 7 13 12 -1 329 330 10 -1 10 330 13 -1 10 13 29 -1 29 13 7 -1 29 7 331 -1 331 7 332 -1 333 334 1 -1 1 334 55 -1 335 336 4 -1 4 336 39 -1 12 86 84 -1 55 29 1 -1 1 29 28 -1 1 28 2 -1 2 28 88 -1 84 82 12 -1 12 82 80 -1 12 80 78 -1 78 76 12 -1 12 76 8 -1 12 8 7 -1 96 94 92 -1 100 5 54 -1 54 5 4 -1 54 4 55 -1 55 4 39 -1 55 39 29 -1 29 39 38 -1 29 38 74 -1 96 92 98 -1 108 106 104 -1 68 66 29 -1 29 66 64 -1 29 64 11 -1 98 92 28 -1 28 92 90 -1 28 90 88 -1 108 104 110 -1 74 72 29 -1 29 72 70 -1 29 70 68 -1 110 104 54 -1 54 104 102 -1 54 102 100 -1 47 45 337 -1 338 43 339 -1 339 43 41 -1 339 41 340 -1 341 48 342 -1 342 48 47 -1 342 47 337 -1 45 43 338 -1 340 41 341 -1 341 41 49 -1 341 49 48 -1 339 340 342 -1 342 340 341 -1 338 339 45 -1 45 339 342 -1 45 342 337 -1 9 24 343 -1 330 344 345 -1 14 13 346 -1 346 13 330 -1 346 330 347 -1 347 330 345 -1 348 349 350 -1 350 349 329 -1 350 329 343 -1 343 329 10 -1 343 10 9 -1 344 330 349 -1 349 330 329 -1 345 344 348 -1 348 344 349 -1 347 345 350 -1 350 345 348 -1 346 347 24 -1 24 347 350 -1 24 350 343 -1 24 14 346 -1 27 30 351 -1 331 352 353 -1 30 29 351 -1 351 29 331 -1 351 331 354 -1 354 331 353 -1 355 356 357 -1 357 356 332 -1 357 332 358 -1 358 332 7 -1 358 7 6 -1 352 331 356 -1 356 331 332 -1 353 352 355 -1 355 352 356 -1 354 353 357 -1 357 353 355 -1 351 354 27 -1 27 354 357 -1 27 357 358 -1 6 27 358 -1 3 50 359 -1 336 360 361 -1 40 39 362 -1 362 39 336 -1 362 336 363 -1 363 336 361 -1 364 365 366 -1 366 365 335 -1 366 335 359 -1 359 335 4 -1 359 4 3 -1 360 336 365 -1 365 336 335 -1 361 360 364 -1 364 360 365 -1 363 361 366 -1 366 361 364 -1 362 363 50 -1 50 363 366 -1 50 366 359 -1 50 40 362 -1 63 61 367 -1 368 59 369 -1 369 59 57 -1 369 57 370 -1 371 51 372 -1 372 51 63 -1 372 63 367 -1 61 59 368 -1 51 371 52 -1 52 371 370 -1 52 370 57 -1 369 370 372 -1 372 370 371 -1 368 369 61 -1 61 369 372 -1 61 372 367 -1 35 33 373 -1 373 33 374 -1 374 33 31 -1 374 31 375 -1 376 25 377 -1 377 25 37 -1 377 37 378 -1 37 35 378 -1 375 31 376 -1 376 31 26 -1 376 26 25 -1 374 375 377 -1 377 375 376 -1 373 374 35 -1 35 374 377 -1 35 377 378 -1 21 19 379 -1 380 17 381 -1 381 17 15 -1 381 15 382 -1 383 22 384 -1 384 22 21 -1 384 21 379 -1 19 17 380 -1 382 15 383 -1 383 15 23 -1 383 23 22 -1 381 382 384 -1 384 382 383 -1 380 381 19 -1 19 381 384 -1 19 384 379 -1 0 53 385 -1 334 386 387 -1 56 55 388 -1 388 55 334 -1 388 334 389 -1 389 334 387 -1 390 391 392 -1 392 391 333 -1 392 333 385 -1 385 333 1 -1 385 1 0 -1 386 334 391 -1 391 334 333 -1 387 386 390 -1 390 386 391 -1 389 387 392 -1 392 387 390 -1 388 389 53 -1 53 389 392 -1 53 392 385 -1 53 56 388 -1 "
						                >
							<Coordinate DEF="coords_ME_OMLV4_Packing_-_For_Xander_-_AIM-120_LAU176_Pylon_Assy-1_AIM-12"
							            point="410.401581 80.534676 246.769165 423.313538 80.534676 246.769165 423.313538 80.855133 246.376083 410.401581 75.625977 246.908356 423.313538 75.625977 246.908356 423.313538 76.019066 247.228806 410.401581 80.395485 241.860458 423.313538 80.395485 241.860458 423.313538 80.002403 241.540009 410.401581 75.486786 241.999664 423.313538 75.486786 241.999664 423.313538 75.166336 242.392746 423.313538 76.019066 241.540009 423.313538 75.625977 241.860458 410.401581 75.625977 241.860458 357.984833 75.625977 241.860458 293.453674 76.019066 241.540009 344.675446 75.625977 241.860458 293.453674 75.555397 241.929077 344.675446 75.555397 241.929077 293.453674 75.166336 242.392746 344.675446 75.486786 241.999664 357.984833 75.486786 241.999664 357.984833 75.555397 241.929077 410.401581 75.555397 241.929077 357.984833 80.395485 241.860458 357.984833 80.466064 241.929077 410.401581 80.466064 241.929077 423.313538 80.855133 242.392746 423.313538 80.534676 241.999664 410.401581 80.534676 241.999664 357.984833 80.534676 241.999664 293.453674 80.855133 242.392746 344.675446 80.534676 241.999664 293.453674 80.466064 241.929077 344.675446 80.466064 241.929077 293.453674 80.002403 241.540009 344.675446 80.395485 241.860458 423.313538 75.166336 246.376083 423.313538 75.486786 246.769165 410.401581 75.486786 246.769165 357.984833 75.486786 246.769165 293.453674 75.166336 246.376083 344.675446 75.486786 246.769165 293.453674 75.555397 246.839752 344.675446 75.555397 246.839752 293.453674 76.019066 247.228806 344.675446 75.625977 246.908356 357.984833 75.625977 246.908356 357.984833 75.555397 246.839752 410.401581 75.555397 246.839752 357.984833 80.534676 246.769165 357.984833 80.466064 246.839752 410.401581 80.466064 246.839752 423.313538 80.002403 247.228806 423.313538 80.395485 246.908356 410.401581 80.395485 246.908356 357.984833 80.395485 246.908356 293.453674 80.002403 247.228806 344.675446 80.395485 246.908356 293.453674 80.466064 246.839752 344.675446 80.466064 246.839752 293.453674 80.855133 246.376083 344.675446 80.534676 246.769165 423.313538 74.863693 242.916931 293.453674 74.863693 242.916931 423.313538 74.656685 243.485703 293.453674 74.656685 243.485703 423.313538 74.551575 244.081772 293.453674 74.551575 244.081772 423.313538 74.551575 244.687042 293.453674 74.551575 244.687042 423.313538 74.656685 245.283127 293.453674 74.656685 245.283127 423.313538 74.863693 245.851898 293.453674 74.863693 245.851898 423.313538 79.478218 241.237381 293.453674 79.478218 241.237381 423.313538 78.909447 241.030365 293.453674 78.909447 241.030365 423.313538 78.313370 240.925247 293.453674 78.313370 240.925247 423.313538 77.708092 240.925247 293.453674 77.708092 240.925247 423.313538 77.112015 241.030365 293.453674 77.112015 241.030365 423.313538 76.543243 241.237381 293.453674 76.543243 241.237381 423.313538 81.157768 245.851898 293.453674 81.157768 245.851898 423.313538 81.364784 245.283127 293.453674 81.364784 245.283127 423.313538 81.469887 244.687042 293.453674 81.469887 244.687042 423.313538 81.469887 244.081772 293.453674 81.469887 244.081772 423.313538 81.364784 243.485703 293.453674 81.364784 243.485703 423.313538 81.157768 242.916931 293.453674 81.157768 242.916931 423.313538 76.543243 247.531448 293.453674 76.543243 247.531448 423.313538 77.112015 247.738464 293.453674 77.112015 247.738464 423.313538 77.708092 247.843567 293.453674 77.708092 247.843567 423.313538 78.313370 247.843567 293.453674 78.313370 247.843567 423.313538 78.909447 247.738464 293.453674 78.909447 247.738464 423.313538 79.478218 247.531448 293.453674 79.478218 247.531448 279.307953 78.010735 244.384415 279.934296 78.318428 244.599854 279.934296 78.351166 244.543152 279.934296 78.276337 244.650024 279.934296 78.384926 244.417145 279.934296 78.384926 244.351669 279.934296 78.373558 244.481628 279.934296 78.351166 244.225662 279.934296 78.318428 244.168961 279.934296 78.373558 244.287186 279.934296 78.226181 244.076721 279.934296 78.169479 244.043976 279.934296 78.276337 244.118805 279.934296 78.043472 244.010208 279.934296 77.977997 244.010208 279.934296 78.107948 244.021576 279.934296 77.851982 244.043976 279.934296 77.795280 244.076721 279.934296 77.913513 244.021576 279.934296 77.703041 244.168961 279.934296 77.670296 244.225662 279.934296 77.745125 244.118805 279.934296 77.636536 244.351669 279.934296 77.636536 244.417145 279.934296 77.647903 244.287186 279.934296 77.670296 244.543152 279.934296 77.703041 244.599854 279.934296 77.647903 244.481628 279.934296 77.795280 244.692108 279.934296 77.851982 244.724838 279.934296 77.745125 244.650024 279.934296 77.977997 244.758606 279.934296 78.043472 244.758606 279.934296 77.913513 244.747238 279.934296 78.169479 244.724838 279.934296 78.226181 244.692108 279.934296 78.107948 244.747238 291.270294 80.775375 246.320236 291.270294 81.069527 245.810745 291.270294 81.270744 245.257919 291.270294 81.372902 244.678558 291.270294 81.372902 244.090256 291.270294 81.270744 243.510895 291.270294 81.069527 242.958069 291.270294 80.775375 242.448578 291.270294 80.397224 241.997925 291.270294 79.946556 241.619766 291.270294 79.437073 241.325607 291.270294 78.884247 241.124405 291.270294 78.304886 241.022247 291.270294 77.716583 241.022247 291.270294 77.137215 241.124405 291.270294 76.584389 241.325607 291.270294 76.074905 241.619766 291.270294 75.624237 241.997925 291.270294 75.246086 242.448578 291.270294 74.951935 242.958069 291.270294 74.750725 243.510895 291.270294 74.648567 244.090256 291.270294 74.648567 244.678558 291.270294 74.750725 245.257919 291.270294 74.951935 245.810745 291.270294 75.246086 246.320236 291.270294 75.624237 246.770905 291.270294 76.074905 247.149063 291.270294 76.584389 247.443207 291.270294 77.137215 247.644424 291.270294 77.716583 247.746582 291.270294 78.304886 247.746582 291.270294 78.884247 247.644424 291.270294 79.437073 247.443207 291.270294 79.946556 247.149063 291.270294 80.397224 246.770905 288.731049 80.177048 246.550735 288.731049 79.767960 246.893997 288.731049 79.305481 247.161011 288.731049 78.803658 247.343658 288.731049 78.277748 247.436386 288.731049 77.743721 247.436386 288.731049 77.217804 247.343658 288.731049 76.715981 247.161011 288.731049 76.253502 246.893997 288.731049 75.844414 246.550735 288.731049 75.501144 246.141632 288.731049 75.234131 245.679153 288.731049 75.051483 245.177338 288.731049 74.958755 244.651428 288.731049 74.958755 244.117401 288.731049 75.051483 243.591476 288.731049 75.234131 243.089661 288.731049 75.501144 242.627182 288.731049 75.844414 242.218094 288.731049 76.253502 241.874832 288.731049 76.715981 241.607819 288.731049 77.217804 241.425171 288.731049 77.743721 241.332428 288.731049 78.277748 241.332428 288.731049 78.803658 241.425171 288.731049 79.305481 241.607819 288.731049 79.767960 241.874832 288.731049 80.177048 242.218094 288.731049 80.520317 242.627182 288.731049 80.787331 243.089661 288.731049 80.969978 243.591476 288.731049 81.062714 244.117401 288.731049 81.062714 244.651428 288.731049 80.969978 245.177338 288.731049 80.787331 245.679153 288.731049 80.520317 246.141632 286.082764 79.810608 246.184280 286.082764 79.470718 246.469482 286.082764 79.086464 246.691330 286.082764 78.669533 246.843079 286.082764 78.232582 246.920135 286.082764 77.788887 246.920135 286.082764 77.351929 246.843079 286.082764 76.934998 246.691330 286.082764 76.550743 246.469482 286.082764 76.210861 246.184280 286.082764 75.925659 245.844391 286.082764 75.703812 245.460144 286.082764 75.552055 245.043213 286.082764 75.475014 244.606262 286.082764 75.475014 244.162567 286.082764 75.552055 243.725616 286.082764 75.703812 243.308670 286.082764 75.925659 242.924423 286.082764 76.210861 242.584534 286.082764 76.550743 242.299332 286.082764 76.934998 242.077484 286.082764 77.351929 241.925735 286.082764 77.788887 241.848694 286.082764 78.232582 241.848694 286.082764 78.669533 241.925735 286.082764 79.086464 242.077484 286.082764 79.470718 242.299332 286.082764 79.810608 242.584534 286.082764 80.095810 242.924423 286.082764 80.317650 243.308670 286.082764 80.469406 243.725616 286.082764 80.546455 244.162567 286.082764 80.546455 244.606262 286.082764 80.469406 245.043213 286.082764 80.317650 245.460144 286.082764 80.095810 245.844391 283.593231 79.332687 245.706360 283.593231 79.083046 245.915833 283.593231 78.800827 246.078781 283.593231 78.494598 246.190231 283.593231 78.173668 246.246826 283.593231 77.847794 246.246826 283.593231 77.526863 246.190231 283.593231 77.220634 246.078781 283.593231 76.938416 245.915833 283.593231 76.688774 245.706360 283.593231 76.479309 245.456726 283.593231 76.316368 245.174500 283.593231 76.204910 244.868286 283.593231 76.148323 244.547348 283.593231 76.148323 244.221466 283.593231 76.204910 243.900543 283.593231 76.316368 243.594315 283.593231 76.479309 243.312088 283.593231 76.688774 243.062454 283.593231 76.938416 242.852982 283.593231 77.220634 242.690048 283.593231 77.526863 242.578583 283.593231 77.847794 242.522003 283.593231 78.173668 242.522003 283.593231 78.494598 242.578583 283.593231 78.800827 242.690048 283.593231 79.083046 242.852982 283.593231 79.332687 243.062454 283.593231 79.542160 243.312088 283.593231 79.705101 243.594315 283.593231 79.816559 243.900543 283.593231 79.873146 244.221466 283.593231 79.873146 244.547348 283.593231 79.816559 244.868286 283.593231 79.705101 245.174500 283.593231 79.542160 245.456726 281.499420 78.800629 245.174301 281.499420 78.651466 245.299469 281.499420 78.482834 245.396835 281.499420 78.299858 245.463425 281.499420 78.108093 245.497238 281.499420 77.913368 245.497238 281.499420 77.721611 245.463425 281.499420 77.538628 245.396835 281.499420 77.369995 245.299469 281.499420 77.220833 245.174301 281.499420 77.095673 245.025146 281.499420 76.998306 244.856506 281.499420 76.931709 244.673538 281.499420 76.897896 244.481766 281.499420 76.897896 244.287048 281.499420 76.931709 244.095291 281.499420 76.998306 243.912308 281.499420 77.095673 243.743683 281.499420 77.220833 243.594513 281.499420 77.369995 243.469345 281.499420 77.538628 243.371994 281.499420 77.721611 243.305389 281.499420 77.913368 243.271576 281.499420 78.108093 243.271576 281.499420 78.299858 243.305389 281.499420 78.482834 243.371994 281.499420 78.651466 243.469345 281.499420 78.800629 243.594513 281.499420 78.925797 243.743683 281.499420 79.023155 243.912308 281.499420 79.089752 244.095291 281.499420 79.123566 244.287048 281.499420 79.123566 244.481766 281.499420 79.089752 244.673538 281.499420 79.023155 244.856506 281.499420 78.925797 245.025146 423.313538 74.544601 241.057480 423.313538 74.683800 240.918289 423.313538 81.476860 241.057480 423.313538 81.337662 240.918289 423.313538 81.476860 247.711349 423.313538 81.337662 247.850540 423.313538 74.683800 247.850540 423.313538 74.544601 247.711349 344.675446 75.624992 246.909348 344.675446 75.485802 246.770142 356.706207 70.720001 251.535950 357.984833 70.720001 251.535950 357.984833 70.859192 251.675140 356.706207 70.859192 251.675140 410.401581 75.485802 241.998672 425.284302 69.912270 236.146759 422.044922 69.912270 236.146759 410.401581 75.624992 241.859482 410.820465 73.916046 240.150528 422.044922 69.773079 236.285950 425.284302 69.773079 236.285950 410.820465 73.776855 240.289719 410.401581 80.535667 241.998672 425.284302 86.248390 236.285950 422.044922 86.248390 236.285950 410.820465 82.244614 240.289719 422.044922 86.109192 236.146759 425.284302 86.109192 236.146759 410.820465 82.105415 240.150528 410.401581 80.396469 241.859482 410.401581 75.624992 246.909348 425.284302 69.773079 252.482880 422.044922 69.773079 252.482880 410.401581 75.485802 246.770142 410.820465 73.776855 248.479095 422.044922 69.912270 252.622070 425.284302 69.912270 252.622070 410.820465 73.916046 248.618286 344.675446 80.535667 246.770142 344.675446 80.396469 246.909348 356.706207 85.162270 251.675140 357.984833 85.162270 251.675140 357.984833 85.301460 251.535950 356.706207 85.301460 251.535950 344.675446 80.535667 241.998672 356.706207 85.301460 237.232880 357.984833 85.301460 237.232880 357.984833 85.162270 237.093674 356.706207 85.162270 237.093674 344.675446 80.396469 241.859482 344.675446 75.485802 241.998672 344.675446 75.624992 241.859482 356.706207 70.859192 237.093674 357.984833 70.859192 237.093674 357.984833 70.720001 237.232880 356.706207 70.720001 237.232880 410.401581 80.535667 246.770142 425.284302 86.109192 252.622070 422.044922 86.109192 252.622070 410.401581 80.396469 246.909348 410.820465 82.105415 248.618286 422.044922 86.248390 252.482880 425.284302 86.248390 252.482880 410.820465 82.244614 248.479095 "
							            />
						</IndexedFaceSet>
					</Shape>
				</Group>
			</Transform>
		</Transform>
	</Scene>
</X3D>