<?xml version="1.0" encoding="UTF-8"?>
<!DOCTYPE X3D PUBLIC "ISO//Web3D//DTD X3D 3.0//EN" "http://www.web3d.org/specifications/x3d-3.0.dtd">
<X3D version="3.0" profile="Immersive" xmlns:xsd="http://www.w3.org/2001/XMLSchema-instance" xsd:noNamespaceSchemaLocation="http://www.web3d.org/specifications/x3d-3.0.xsd">
	<head>
		<meta name="filename" content="OMLV4_Packing - For Xander - AIM-9X_Pylon_Assy-2 AIM-9X Advanced-1.x3d" />
		<meta name="created" content="2026-04-19 20:21:16" />
		<meta name="generator" content="Blender 4.3.2" />
		<meta name="translator" content="Web3D X3D/VRML2 format v2.5.1" />
	</head>
	<Scene>
		<NavigationInfo headlight="true"
		                visibilityLimit="0.0"
		                type='"EXAMINE", "ANY"'
		                avatarSize="0.25, 1.75, 0.75"
		                />
		<Background DEF="WO_World"
		            groundColor="0.051 0.051 0.051"
		            skyColor="0.051 0.051 0.051"
		            />
		<Transform DEF="OMLV4_Packing_-_For_Xander_-_AIM-9X_Pylon_Assy-2_AIM-9X_Advance_TRANSFORM"
		           translation="0.000000 0.000000 0.000000"
		           scale="1.000000 1.000000 1.000000"
		           rotation="-1.000000 0.000000 0.000000 1.570796"
		           >
			<Transform DEF="OMLV4_Packing_-_For_Xander_-_AIM-9X_Pylon_Assy-2_AIM-9X_Advance_ifs_TRANSFORM"
			           translation="0.000000 0.000000 0.000000"
			           scale="1.000000 1.000000 1.000000"
			           rotation="0.000000 1.000000 0.000000 0.000000"
			           >
				<Group DEF="group_ME_OMLV4_Packing_-_For_Xander_-_AIM-9X_Pylon_Assy-2_AIM-9X_Advance">
					<Shape>
						<Appearance>
						</Appearance>
						<IndexedFaceSet solid="false"
						                coordIndex="0 1 2 -1 0 3 4 -1 4 3 5 -1 5 3 6 -1 5 6 7 -1 7 6 8 -1 7 8 9 -1 0 2 10 -1 10 2 11 -1 10 11 9 -1 9 11 12 -1 9 12 7 -1 13 14 15 -1 15 14 16 -1 15 16 1 -1 1 16 17 -1 1 17 2 -1 18 19 20 -1 18 21 22 -1 22 21 23 -1 23 21 24 -1 23 24 25 -1 25 24 26 -1 25 26 27 -1 18 20 28 -1 28 20 29 -1 28 29 27 -1 27 29 30 -1 27 30 25 -1 31 32 33 -1 33 32 34 -1 33 34 19 -1 19 34 35 -1 19 35 20 -1 36 37 38 -1 36 39 40 -1 40 39 41 -1 41 39 42 -1 41 42 43 -1 43 42 44 -1 43 44 45 -1 36 38 46 -1 46 38 47 -1 46 47 45 -1 45 47 48 -1 45 48 43 -1 49 50 51 -1 51 50 52 -1 51 52 37 -1 37 52 53 -1 37 53 38 -1 54 55 56 -1 54 56 57 -1 58 59 60 -1 60 59 61 -1 60 61 62 -1 62 61 63 -1 62 63 64 -1 57 56 65 -1 65 56 66 -1 65 66 64 -1 64 66 67 -1 64 67 62 -1 55 54 68 -1 68 54 69 -1 68 69 70 -1 70 69 71 -1 70 71 67 -1 36 40 37 -1 37 40 72 -1 37 72 73 -1 73 72 74 -1 73 74 75 -1 75 74 76 -1 75 76 77 -1 77 76 78 -1 77 78 79 -1 79 78 80 -1 79 80 81 -1 81 80 82 -1 81 82 83 -1 83 82 25 -1 83 25 31 -1 31 25 30 -1 31 30 32 -1 67 71 62 -1 62 71 84 -1 62 84 85 -1 85 84 86 -1 85 86 87 -1 87 86 88 -1 87 88 89 -1 89 88 90 -1 89 90 91 -1 91 90 92 -1 91 92 93 -1 93 92 94 -1 93 94 95 -1 95 94 43 -1 95 43 49 -1 49 43 48 -1 49 48 50 -1 0 4 1 -1 1 4 96 -1 1 96 97 -1 97 96 98 -1 97 98 99 -1 99 98 100 -1 99 100 101 -1 101 100 102 -1 101 102 103 -1 103 102 104 -1 103 104 105 -1 105 104 106 -1 105 106 107 -1 107 106 54 -1 107 54 58 -1 58 54 57 -1 58 57 59 -1 18 22 19 -1 19 22 108 -1 19 108 109 -1 109 108 110 -1 109 110 111 -1 111 110 112 -1 111 112 113 -1 113 112 114 -1 113 114 115 -1 115 114 116 -1 115 116 117 -1 117 116 118 -1 117 118 119 -1 119 118 7 -1 119 7 13 -1 13 7 12 -1 13 12 14 -1 120 121 122 -1 123 121 120 -1 120 124 125 -1 126 124 120 -1 122 126 120 -1 120 127 128 -1 129 127 120 -1 125 129 120 -1 120 130 131 -1 132 130 120 -1 128 132 120 -1 120 133 134 -1 135 133 120 -1 131 135 120 -1 120 136 137 -1 138 136 120 -1 134 138 120 -1 120 139 140 -1 141 139 120 -1 137 141 120 -1 120 142 143 -1 144 142 120 -1 140 144 120 -1 120 145 146 -1 147 145 120 -1 143 147 120 -1 120 148 149 -1 150 148 120 -1 146 150 120 -1 120 151 152 -1 153 151 120 -1 149 153 120 -1 120 154 155 -1 156 154 120 -1 152 156 120 -1 155 123 120 -1 157 158 159 -1 159 158 160 -1 159 160 161 -1 161 160 162 -1 161 162 163 -1 163 162 164 -1 163 164 165 -1 165 164 166 -1 165 166 167 -1 167 166 168 -1 167 168 169 -1 169 168 170 -1 169 170 171 -1 171 170 172 -1 171 172 173 -1 173 172 174 -1 173 174 175 -1 175 174 176 -1 175 176 177 -1 177 176 178 -1 177 178 179 -1 179 178 180 -1 179 180 181 -1 181 180 182 -1 181 182 183 -1 183 182 184 -1 183 184 185 -1 185 184 186 -1 185 186 187 -1 187 186 188 -1 187 188 189 -1 189 188 190 -1 189 190 191 -1 191 190 192 -1 191 192 193 -1 193 192 194 -1 193 194 195 -1 195 194 196 -1 195 196 197 -1 197 196 198 -1 197 198 199 -1 199 198 200 -1 199 200 201 -1 201 200 202 -1 201 202 203 -1 203 202 204 -1 203 204 205 -1 205 204 206 -1 205 206 207 -1 207 206 208 -1 207 208 209 -1 209 208 210 -1 209 210 211 -1 211 210 212 -1 211 212 213 -1 213 212 214 -1 213 214 215 -1 215 214 216 -1 215 216 217 -1 217 216 218 -1 217 218 219 -1 219 218 220 -1 219 220 221 -1 221 220 222 -1 221 222 223 -1 223 222 224 -1 223 224 225 -1 225 224 226 -1 225 226 227 -1 227 226 228 -1 227 228 157 -1 157 228 158 -1 157 229 227 -1 227 229 230 -1 227 230 225 -1 225 230 231 -1 225 231 223 -1 223 231 232 -1 223 232 221 -1 221 232 233 -1 221 233 219 -1 219 233 234 -1 219 234 217 -1 217 234 235 -1 217 235 215 -1 215 235 236 -1 215 236 213 -1 213 236 237 -1 213 237 211 -1 211 237 238 -1 211 238 209 -1 209 238 239 -1 209 239 207 -1 207 239 240 -1 207 240 205 -1 205 240 241 -1 205 241 203 -1 203 241 242 -1 203 242 201 -1 201 242 243 -1 201 243 199 -1 199 243 244 -1 199 244 197 -1 197 244 245 -1 197 245 195 -1 195 245 246 -1 195 246 193 -1 193 246 247 -1 193 247 191 -1 191 247 248 -1 191 248 189 -1 189 248 249 -1 189 249 187 -1 187 249 250 -1 187 250 185 -1 185 250 251 -1 185 251 183 -1 183 251 252 -1 183 252 181 -1 181 252 253 -1 181 253 179 -1 179 253 254 -1 179 254 177 -1 177 254 255 -1 177 255 175 -1 175 255 256 -1 175 256 173 -1 173 256 257 -1 173 257 171 -1 171 257 258 -1 171 258 169 -1 169 258 259 -1 169 259 167 -1 167 259 260 -1 167 260 165 -1 165 260 261 -1 165 261 163 -1 163 261 262 -1 163 262 161 -1 161 262 263 -1 161 263 159 -1 159 263 264 -1 159 264 157 -1 157 264 229 -1 264 265 229 -1 229 265 266 -1 229 266 230 -1 230 266 267 -1 230 267 231 -1 231 267 268 -1 231 268 232 -1 232 268 269 -1 232 269 233 -1 233 269 270 -1 233 270 234 -1 234 270 271 -1 234 271 235 -1 235 271 272 -1 235 272 236 -1 236 272 273 -1 236 273 237 -1 237 273 274 -1 237 274 238 -1 238 274 275 -1 238 275 239 -1 239 275 276 -1 239 276 240 -1 240 276 277 -1 240 277 241 -1 241 277 278 -1 241 278 242 -1 242 278 279 -1 242 279 243 -1 243 279 280 -1 243 280 244 -1 244 280 281 -1 244 281 245 -1 245 281 282 -1 245 282 246 -1 246 282 283 -1 246 283 247 -1 247 283 284 -1 247 284 248 -1 248 284 285 -1 248 285 249 -1 249 285 286 -1 249 286 250 -1 250 286 287 -1 250 287 251 -1 251 287 288 -1 251 288 252 -1 252 288 289 -1 252 289 253 -1 253 289 290 -1 253 290 254 -1 254 290 291 -1 254 291 255 -1 255 291 292 -1 255 292 256 -1 256 292 293 -1 256 293 257 -1 257 293 294 -1 257 294 258 -1 258 294 295 -1 258 295 259 -1 259 295 296 -1 259 296 260 -1 260 296 297 -1 260 297 261 -1 261 297 298 -1 261 298 262 -1 262 298 299 -1 262 299 263 -1 263 299 300 -1 263 300 264 -1 264 300 265 -1 300 301 265 -1 265 301 302 -1 265 302 266 -1 266 302 303 -1 266 303 267 -1 267 303 304 -1 267 304 268 -1 268 304 305 -1 268 305 269 -1 269 305 306 -1 269 306 270 -1 270 306 307 -1 270 307 271 -1 271 307 308 -1 271 308 272 -1 272 308 309 -1 272 309 273 -1 273 309 310 -1 273 310 274 -1 274 310 311 -1 274 311 275 -1 275 311 312 -1 275 312 276 -1 276 312 313 -1 276 313 277 -1 277 313 314 -1 277 314 278 -1 278 314 315 -1 278 315 279 -1 279 315 316 -1 279 316 280 -1 280 316 317 -1 280 317 281 -1 281 317 318 -1 281 318 282 -1 282 318 319 -1 282 319 283 -1 283 319 320 -1 283 320 284 -1 284 320 321 -1 284 321 285 -1 285 321 322 -1 285 322 286 -1 286 322 323 -1 286 323 287 -1 287 323 324 -1 287 324 288 -1 288 324 325 -1 288 325 289 -1 289 325 326 -1 289 326 290 -1 290 326 327 -1 290 327 291 -1 291 327 328 -1 291 328 292 -1 292 328 329 -1 292 329 293 -1 293 329 330 -1 293 330 294 -1 294 330 331 -1 294 331 295 -1 295 331 332 -1 295 332 296 -1 296 332 333 -1 296 333 297 -1 297 333 334 -1 297 334 298 -1 298 334 335 -1 298 335 299 -1 299 335 336 -1 299 336 300 -1 300 336 301 -1 336 337 301 -1 301 337 338 -1 301 338 302 -1 302 338 339 -1 302 339 303 -1 303 339 340 -1 303 340 304 -1 304 340 341 -1 304 341 305 -1 305 341 342 -1 305 342 306 -1 306 342 343 -1 306 343 307 -1 307 343 344 -1 307 344 308 -1 308 344 345 -1 308 345 309 -1 309 345 346 -1 309 346 310 -1 310 346 347 -1 310 347 311 -1 311 347 348 -1 311 348 312 -1 312 348 349 -1 312 349 313 -1 313 349 350 -1 313 350 314 -1 314 350 351 -1 314 351 315 -1 315 351 352 -1 315 352 316 -1 316 352 353 -1 316 353 317 -1 317 353 354 -1 317 354 318 -1 318 354 355 -1 318 355 319 -1 319 355 356 -1 319 356 320 -1 320 356 357 -1 320 357 321 -1 321 357 358 -1 321 358 322 -1 322 358 359 -1 322 359 323 -1 323 359 360 -1 323 360 324 -1 324 360 361 -1 324 361 325 -1 325 361 362 -1 325 362 326 -1 326 362 363 -1 326 363 327 -1 327 363 364 -1 327 364 328 -1 328 364 365 -1 328 365 329 -1 329 365 366 -1 329 366 330 -1 330 366 367 -1 330 367 331 -1 331 367 368 -1 331 368 332 -1 332 368 369 -1 332 369 333 -1 333 369 370 -1 333 370 334 -1 334 370 371 -1 334 371 335 -1 335 371 372 -1 335 372 336 -1 336 372 337 -1 372 123 337 -1 337 123 155 -1 337 155 338 -1 338 155 154 -1 338 154 339 -1 339 154 156 -1 339 156 340 -1 340 156 152 -1 340 152 341 -1 341 152 151 -1 341 151 342 -1 342 151 153 -1 342 153 343 -1 343 153 149 -1 343 149 344 -1 344 149 148 -1 344 148 345 -1 345 148 150 -1 345 150 346 -1 346 150 146 -1 346 146 347 -1 347 146 145 -1 347 145 348 -1 348 145 147 -1 348 147 349 -1 349 147 143 -1 349 143 350 -1 350 143 142 -1 350 142 351 -1 351 142 144 -1 351 144 352 -1 352 144 140 -1 352 140 353 -1 353 140 139 -1 353 139 354 -1 354 139 141 -1 354 141 355 -1 355 141 137 -1 355 137 356 -1 356 137 136 -1 356 136 357 -1 357 136 138 -1 357 138 358 -1 358 138 134 -1 358 134 359 -1 359 134 133 -1 359 133 360 -1 360 133 135 -1 360 135 361 -1 361 135 131 -1 361 131 362 -1 362 131 130 -1 362 130 363 -1 363 130 132 -1 363 132 364 -1 364 132 128 -1 364 128 365 -1 365 128 127 -1 365 127 366 -1 366 127 129 -1 366 129 367 -1 367 129 125 -1 367 125 368 -1 368 125 124 -1 368 124 369 -1 369 124 126 -1 369 126 370 -1 370 126 122 -1 370 122 371 -1 371 122 121 -1 371 121 372 -1 372 121 123 -1 108 22 373 -1 373 22 23 -1 373 23 25 -1 114 112 373 -1 373 112 110 -1 373 110 108 -1 7 118 373 -1 373 118 116 -1 373 116 114 -1 96 4 373 -1 373 4 5 -1 373 5 7 -1 102 100 373 -1 373 100 98 -1 373 98 96 -1 54 106 373 -1 373 106 104 -1 373 104 102 -1 84 71 373 -1 373 71 69 -1 373 69 54 -1 90 88 373 -1 373 88 86 -1 373 86 84 -1 43 94 373 -1 373 94 92 -1 373 92 90 -1 72 40 373 -1 373 40 41 -1 373 41 43 -1 78 76 373 -1 373 76 74 -1 373 74 72 -1 25 82 373 -1 373 82 80 -1 373 80 78 -1 374 1 375 -1 375 1 97 -1 375 97 376 -1 376 97 99 -1 376 99 377 -1 377 99 101 -1 377 101 378 -1 378 101 103 -1 378 103 379 -1 379 103 105 -1 379 105 380 -1 380 105 107 -1 380 107 381 -1 381 107 58 -1 381 58 382 -1 382 58 60 -1 382 60 383 -1 383 60 62 -1 383 62 384 -1 384 62 85 -1 384 85 385 -1 385 85 87 -1 385 87 386 -1 386 87 89 -1 386 89 387 -1 387 89 91 -1 387 91 388 -1 388 91 93 -1 388 93 389 -1 389 93 95 -1 389 95 390 -1 390 95 49 -1 390 49 391 -1 391 49 51 -1 391 51 392 -1 392 51 37 -1 392 37 393 -1 393 37 73 -1 393 73 394 -1 394 73 75 -1 394 75 395 -1 395 75 77 -1 395 77 396 -1 396 77 79 -1 396 79 397 -1 397 79 81 -1 397 81 398 -1 398 81 83 -1 398 83 399 -1 399 83 31 -1 399 31 400 -1 400 31 33 -1 400 33 401 -1 401 33 19 -1 401 19 402 -1 402 19 109 -1 402 109 403 -1 403 109 111 -1 403 111 404 -1 404 111 113 -1 404 113 405 -1 405 113 115 -1 405 115 406 -1 406 115 117 -1 406 117 407 -1 407 117 119 -1 407 119 408 -1 408 119 13 -1 408 13 409 -1 409 13 15 -1 409 15 374 -1 374 15 1 -1 374 410 409 -1 409 410 411 -1 409 411 408 -1 408 411 412 -1 408 412 407 -1 407 412 413 -1 407 413 406 -1 406 413 414 -1 406 414 405 -1 405 414 415 -1 405 415 404 -1 404 415 416 -1 404 416 403 -1 403 416 417 -1 403 417 402 -1 402 417 418 -1 402 418 401 -1 401 418 419 -1 401 419 400 -1 400 419 420 -1 400 420 399 -1 399 420 421 -1 399 421 398 -1 398 421 422 -1 398 422 397 -1 397 422 423 -1 397 423 396 -1 396 423 424 -1 396 424 395 -1 395 424 425 -1 395 425 394 -1 394 425 426 -1 394 426 393 -1 393 426 427 -1 393 427 392 -1 392 427 428 -1 392 428 391 -1 391 428 429 -1 391 429 390 -1 390 429 430 -1 390 430 389 -1 389 430 431 -1 389 431 388 -1 388 431 432 -1 388 432 387 -1 387 432 433 -1 387 433 386 -1 386 433 434 -1 386 434 385 -1 385 434 435 -1 385 435 384 -1 384 435 436 -1 384 436 383 -1 383 436 437 -1 383 437 382 -1 382 437 438 -1 382 438 381 -1 381 438 439 -1 381 439 380 -1 380 439 440 -1 380 440 379 -1 379 440 441 -1 379 441 378 -1 378 441 442 -1 378 442 377 -1 377 442 443 -1 377 443 376 -1 376 443 444 -1 376 444 375 -1 375 444 445 -1 375 445 374 -1 374 445 410 -1 445 446 410 -1 410 446 447 -1 410 447 411 -1 411 447 448 -1 411 448 412 -1 412 448 449 -1 412 449 413 -1 413 449 450 -1 413 450 414 -1 414 450 451 -1 414 451 415 -1 415 451 452 -1 415 452 416 -1 416 452 453 -1 416 453 417 -1 417 453 454 -1 417 454 418 -1 418 454 455 -1 418 455 419 -1 419 455 456 -1 419 456 420 -1 420 456 457 -1 420 457 421 -1 421 457 458 -1 421 458 422 -1 422 458 459 -1 422 459 423 -1 423 459 460 -1 423 460 424 -1 424 460 461 -1 424 461 425 -1 425 461 462 -1 425 462 426 -1 426 462 463 -1 426 463 427 -1 427 463 464 -1 427 464 428 -1 428 464 465 -1 428 465 429 -1 429 465 466 -1 429 466 430 -1 430 466 467 -1 430 467 431 -1 431 467 468 -1 431 468 432 -1 432 468 469 -1 432 469 433 -1 433 469 470 -1 433 470 434 -1 434 470 471 -1 434 471 435 -1 435 471 472 -1 435 472 436 -1 436 472 473 -1 436 473 437 -1 437 473 474 -1 437 474 438 -1 438 474 475 -1 438 475 439 -1 439 475 476 -1 439 476 440 -1 440 476 477 -1 440 477 441 -1 441 477 478 -1 441 478 442 -1 442 478 479 -1 442 479 443 -1 443 479 480 -1 443 480 444 -1 444 480 481 -1 444 481 445 -1 445 481 446 -1 158 481 160 -1 160 481 480 -1 160 480 162 -1 162 480 479 -1 162 479 164 -1 164 479 478 -1 164 478 166 -1 166 478 477 -1 166 477 168 -1 168 477 476 -1 168 476 170 -1 170 476 475 -1 170 475 172 -1 172 475 474 -1 172 474 174 -1 174 474 473 -1 174 473 176 -1 176 473 472 -1 176 472 178 -1 178 472 471 -1 178 471 180 -1 180 471 470 -1 180 470 182 -1 182 470 469 -1 182 469 184 -1 184 469 468 -1 184 468 186 -1 186 468 467 -1 186 467 188 -1 188 467 466 -1 188 466 190 -1 190 466 465 -1 190 465 192 -1 192 465 464 -1 192 464 194 -1 194 464 463 -1 194 463 196 -1 196 463 462 -1 196 462 198 -1 198 462 461 -1 198 461 200 -1 200 461 460 -1 200 460 202 -1 202 460 459 -1 202 459 204 -1 204 459 458 -1 204 458 206 -1 206 458 457 -1 206 457 208 -1 208 457 456 -1 208 456 210 -1 210 456 455 -1 210 455 212 -1 212 455 454 -1 212 454 214 -1 214 454 453 -1 214 453 216 -1 216 453 452 -1 216 452 218 -1 218 452 451 -1 218 451 220 -1 220 451 450 -1 220 450 222 -1 222 450 449 -1 222 449 224 -1 224 449 448 -1 224 448 226 -1 226 448 447 -1 226 447 228 -1 228 447 446 -1 228 446 158 -1 158 446 481 -1 36 46 482 -1 483 484 485 -1 485 484 44 -1 484 486 44 -1 44 486 487 -1 44 487 488 -1 489 45 490 -1 490 45 44 -1 491 492 485 -1 485 492 493 -1 485 493 483 -1 488 494 44 -1 44 494 495 -1 44 495 490 -1 496 497 498 -1 498 497 499 -1 498 499 500 -1 500 499 501 -1 501 499 502 -1 502 499 39 -1 502 39 503 -1 36 482 39 -1 39 482 504 -1 39 504 505 -1 505 506 39 -1 39 506 507 -1 39 507 503 -1 492 491 496 -1 496 491 497 -1 492 496 498 -1 504 482 46 -1 492 498 493 -1 493 498 500 -1 493 500 483 -1 483 500 501 -1 483 501 484 -1 484 501 502 -1 484 502 486 -1 486 502 503 -1 486 503 487 -1 487 503 507 -1 487 507 488 -1 488 507 506 -1 488 506 494 -1 494 506 505 -1 494 505 495 -1 495 505 504 -1 495 504 490 -1 490 504 46 -1 490 46 489 -1 46 45 489 -1 39 499 42 -1 42 499 485 -1 42 485 44 -1 491 485 497 -1 497 485 499 -1 27 508 28 -1 509 510 511 -1 511 510 26 -1 510 512 26 -1 26 512 513 -1 26 513 514 -1 508 27 515 -1 515 27 26 -1 516 517 511 -1 511 517 518 -1 511 518 509 -1 514 519 26 -1 26 519 520 -1 26 520 515 -1 521 522 523 -1 523 522 524 -1 523 524 525 -1 525 524 526 -1 526 524 527 -1 527 524 21 -1 527 21 528 -1 18 529 21 -1 21 529 530 -1 21 530 531 -1 531 532 21 -1 21 532 533 -1 21 533 528 -1 517 516 521 -1 521 516 522 -1 517 521 523 -1 530 529 28 -1 517 523 518 -1 518 523 525 -1 518 525 509 -1 509 525 526 -1 509 526 510 -1 510 526 527 -1 510 527 512 -1 512 527 528 -1 512 528 513 -1 513 528 533 -1 513 533 514 -1 514 533 532 -1 514 532 519 -1 519 532 531 -1 519 531 520 -1 520 531 530 -1 520 530 515 -1 515 530 28 -1 515 28 508 -1 28 529 18 -1 511 26 524 -1 524 26 24 -1 524 24 21 -1 516 511 522 -1 522 511 524 -1 66 534 67 -1 535 536 537 -1 537 536 55 -1 536 538 55 -1 55 538 539 -1 55 539 540 -1 541 56 542 -1 542 56 55 -1 543 544 537 -1 537 544 545 -1 537 545 535 -1 540 546 55 -1 55 546 547 -1 55 547 542 -1 548 549 550 -1 550 549 551 -1 550 551 552 -1 552 551 553 -1 553 551 554 -1 554 551 70 -1 554 70 555 -1 67 534 70 -1 70 534 556 -1 70 556 557 -1 557 558 70 -1 70 558 559 -1 70 559 555 -1 544 543 548 -1 548 543 549 -1 544 548 550 -1 556 534 66 -1 544 550 545 -1 545 550 552 -1 545 552 535 -1 535 552 553 -1 535 553 536 -1 536 553 554 -1 536 554 538 -1 538 554 555 -1 538 555 539 -1 539 555 559 -1 539 559 540 -1 540 559 558 -1 540 558 546 -1 546 558 557 -1 546 557 547 -1 547 557 556 -1 547 556 542 -1 542 556 66 -1 542 66 541 -1 56 541 66 -1 537 55 551 -1 551 55 68 -1 551 68 70 -1 543 537 549 -1 549 537 551 -1 9 560 10 -1 561 562 563 -1 563 562 8 -1 562 564 8 -1 8 564 565 -1 8 565 566 -1 560 9 567 -1 567 9 8 -1 568 569 563 -1 563 569 570 -1 563 570 561 -1 566 571 8 -1 8 571 572 -1 8 572 567 -1 573 574 575 -1 575 574 576 -1 575 576 577 -1 577 576 578 -1 578 576 579 -1 579 576 3 -1 579 3 580 -1 0 581 3 -1 3 581 582 -1 3 582 583 -1 583 584 3 -1 3 584 585 -1 3 585 580 -1 569 568 573 -1 573 568 574 -1 569 573 575 -1 582 581 10 -1 569 575 570 -1 570 575 577 -1 570 577 561 -1 561 577 578 -1 561 578 562 -1 562 578 579 -1 562 579 564 -1 564 579 580 -1 564 580 565 -1 565 580 585 -1 565 585 566 -1 566 585 584 -1 566 584 571 -1 571 584 583 -1 571 583 572 -1 572 583 582 -1 572 582 567 -1 567 582 10 -1 567 10 560 -1 10 581 0 -1 3 576 6 -1 6 576 563 -1 6 563 8 -1 568 563 574 -1 574 563 576 -1 61 586 63 -1 587 588 57 -1 57 588 59 -1 63 586 64 -1 64 586 589 -1 587 57 589 -1 589 57 65 -1 589 65 64 -1 588 587 61 -1 61 587 589 -1 61 589 586 -1 59 588 61 -1 50 590 52 -1 591 590 48 -1 48 590 50 -1 53 592 38 -1 38 592 593 -1 38 593 47 -1 47 593 591 -1 47 591 48 -1 590 591 52 -1 52 591 593 -1 52 593 592 -1 52 592 53 -1 32 594 34 -1 595 594 30 -1 30 594 32 -1 35 596 20 -1 20 596 597 -1 595 30 597 -1 597 30 29 -1 597 29 20 -1 594 595 34 -1 34 595 597 -1 34 597 596 -1 34 596 35 -1 14 598 16 -1 599 598 12 -1 12 598 14 -1 17 600 2 -1 2 600 601 -1 2 601 11 -1 11 601 599 -1 11 599 12 -1 598 599 16 -1 16 599 601 -1 16 601 600 -1 16 600 17 -1 "
						                >
							<Coordinate DEF="coords_ME_OMLV4_Packing_-_For_Xander_-_AIM-9X_Pylon_Assy-2_AIM-9X_Advance"
							            point="415.375763 57.884640 434.826874 317.304138 57.577923 434.860229 332.978363 57.884640 434.826874 428.062103 57.884640 434.826874 430.490295 57.577923 434.860229 430.490295 57.983063 434.824799 428.062103 57.983063 434.824799 430.490295 58.388203 434.860229 428.062103 58.081490 434.826874 415.375763 58.081490 434.826874 415.375763 57.983063 434.824799 332.978363 57.983063 434.824799 332.978363 58.081490 434.826874 317.304138 58.388203 434.860229 324.490662 58.081490 434.826874 317.304138 57.983063 434.824799 324.490662 57.983063 434.824799 324.490662 57.884640 434.826874 415.375763 60.314087 437.059479 317.304138 60.280720 436.752777 332.978363 60.314087 437.059479 428.062103 60.314087 437.059479 430.490295 60.280720 436.752777 430.490295 60.316166 437.157898 428.062103 60.316166 437.157898 430.490295 60.280720 437.563049 428.062103 60.314087 437.256317 415.375763 60.314087 437.256317 415.375763 60.316166 437.157898 332.978363 60.316166 437.157898 332.978363 60.314087 437.256317 317.304138 60.280720 437.563049 324.490662 60.314087 437.256317 317.304138 60.316166 437.157898 324.490662 60.316166 437.157898 324.490662 60.314087 437.059479 415.375763 58.081490 439.488922 317.304138 58.388203 439.455566 332.978363 58.081490 439.488922 428.062103 58.081490 439.488922 430.490295 58.388203 439.455566 430.490295 57.983063 439.490997 428.062103 57.983063 439.490997 430.490295 57.577923 439.455566 428.062103 57.884640 439.488922 415.375763 57.884640 439.488922 415.375763 57.983063 439.490997 332.978363 57.983063 439.490997 332.978363 57.884640 439.488922 317.304138 57.577923 439.455566 324.490662 57.884640 439.488922 317.304138 57.983063 439.490997 324.490662 57.983063 439.490997 324.490662 58.081490 439.488922 430.490295 55.685406 436.752777 428.062103 55.652039 437.059479 415.375763 55.652039 437.059479 332.978363 55.652039 437.059479 317.304138 55.685406 436.752777 324.490662 55.652039 437.059479 317.304138 55.649960 437.157898 324.490662 55.649960 437.157898 317.304138 55.685406 437.563049 324.490662 55.652039 437.256317 332.978363 55.652039 437.256317 332.978363 55.649960 437.157898 415.375763 55.649960 437.157898 415.375763 55.652039 437.256317 428.062103 55.649960 437.157898 430.490295 55.649960 437.157898 428.062103 55.652039 437.256317 430.490295 55.685406 437.563049 430.490295 58.781033 439.350311 317.304138 58.781033 439.350311 430.490295 59.149612 439.178436 317.304138 59.149612 439.178436 430.490295 59.482754 438.945160 317.304138 59.482754 438.945160 430.490295 59.770325 438.657593 317.304138 59.770325 438.657593 430.490295 60.003590 438.324463 317.304138 60.003590 438.324463 430.490295 60.175461 437.955872 317.304138 60.175461 437.955872 430.490295 55.790665 437.955872 317.304138 55.790665 437.955872 430.490295 55.962536 438.324463 317.304138 55.962536 438.324463 430.490295 56.195805 438.657593 317.304138 56.195805 438.657593 430.490295 56.483376 438.945160 317.304138 56.483376 438.945160 430.490295 56.816513 439.178436 317.304138 56.816513 439.178436 430.490295 57.185097 439.350311 317.304138 57.185097 439.350311 430.490295 57.185097 434.965515 317.304138 57.185097 434.965515 430.490295 56.816513 435.137390 317.304138 56.816513 435.137390 430.490295 56.483376 435.370636 317.304138 56.483376 435.370636 430.490295 56.195805 435.658203 317.304138 56.195805 435.658203 430.490295 55.962536 435.991364 317.304138 55.962536 435.991364 430.490295 55.790665 436.359924 317.304138 55.790665 436.359924 430.490295 60.175461 436.359924 317.304138 60.175461 436.359924 430.490295 60.003590 435.991364 317.304138 60.003590 435.991364 430.490295 59.770325 435.658203 317.304138 59.770325 435.658203 430.490295 59.482754 435.370636 317.304138 59.482754 435.370636 430.490295 59.149612 435.137390 317.304138 59.149612 435.137390 430.490295 58.781033 434.965515 317.304138 58.781033 434.965515 311.657349 57.983063 437.157898 311.697906 57.953140 436.988220 311.697906 57.924129 436.995972 311.697906 57.983063 436.985596 311.697906 57.872303 437.025909 311.697906 57.851067 437.047150 311.697906 57.896908 437.008667 311.697906 57.821144 437.098969 311.697906 57.813370 437.127991 311.697906 57.833839 437.071747 311.697906 57.813370 437.187836 311.697906 57.821144 437.216827 311.697906 57.810753 437.157898 311.697906 57.851067 437.268646 311.697906 57.872303 437.289886 311.697906 57.833839 437.244049 311.697906 57.924129 437.319824 311.697906 57.953140 437.327606 311.697906 57.896908 437.307129 311.697906 58.012985 437.327606 311.697906 58.041996 437.319824 311.697906 57.983063 437.330200 311.697906 58.093822 437.289886 311.697906 58.115059 437.268646 311.697906 58.069218 437.307129 311.697906 58.144981 437.216827 311.697906 58.152756 437.187836 311.697906 58.132286 437.244049 311.697906 58.152756 437.127991 311.697906 58.144981 437.098969 311.697906 58.155373 437.157898 311.697906 58.115059 437.047150 311.697906 58.093822 437.025909 311.697906 58.132286 437.071747 311.697906 58.041996 436.995972 311.697906 58.012985 436.988220 311.697906 58.069218 437.008667 312.292816 57.825302 436.263184 313.174774 57.757656 435.879547 312.292816 57.672333 436.304169 313.174774 57.539097 435.938110 312.292816 57.528805 436.371094 313.174774 57.334026 436.033752 312.292816 57.399082 436.461945 313.174774 57.148678 436.163513 312.292816 57.287102 436.573914 313.174774 56.988682 436.323517 312.292816 57.196266 436.703644 313.174774 56.858902 436.508881 312.292816 57.129337 436.847168 313.174774 56.763275 436.713928 312.292816 57.088352 437.000153 313.174774 56.704712 436.932495 312.292816 57.074547 437.157898 313.174774 56.684994 437.157898 312.292816 57.088352 437.315674 313.174774 56.704712 437.383301 312.292816 57.129337 437.468628 313.174774 56.763275 437.601868 312.292816 57.196266 437.612152 313.174774 56.858902 437.806946 312.292816 57.287102 437.741882 313.174774 56.988682 437.992279 312.292816 57.399082 437.853851 313.174774 57.148678 438.152283 312.292816 57.528805 437.944702 313.174774 57.334026 438.282074 312.292816 57.672333 438.011627 313.174774 57.539097 438.377686 312.292816 57.825302 438.052612 313.174774 57.757656 438.436249 312.292816 57.983063 438.066406 313.174774 57.983063 438.455963 312.292816 58.140823 438.052612 313.174774 58.208469 438.436249 312.292816 58.293793 438.011627 313.174774 58.427029 438.377686 312.292816 58.437321 437.944702 313.174774 58.632099 438.282074 312.292816 58.567047 437.853851 313.174774 58.817448 438.152283 312.292816 58.679028 437.741882 313.174774 58.977444 437.992279 312.292816 58.769859 437.612152 313.174774 59.107224 437.806946 312.292816 58.836788 437.468628 313.174774 59.202850 437.601868 312.292816 58.877777 437.315674 313.174774 59.261414 437.383301 312.292816 58.891579 437.157898 313.174774 59.281132 437.157898 312.292816 58.877777 437.000153 313.174774 59.261414 436.932495 312.292816 58.836788 436.847168 313.174774 59.202850 436.713928 312.292816 58.769859 436.703644 313.174774 59.107224 436.508881 312.292816 58.679028 436.573914 313.174774 58.977444 436.323517 312.292816 58.567047 436.461945 313.174774 58.817448 436.163513 312.292816 58.437321 436.371094 313.174774 58.632099 436.033752 312.292816 58.293793 436.304169 313.174774 58.427029 435.938110 312.292816 58.140823 436.263184 313.174774 58.208469 435.879547 312.292816 57.983063 436.249390 313.174774 57.983063 435.859833 312.071716 57.983063 436.395874 312.071716 58.115387 436.407440 312.071716 58.243690 436.441833 312.071716 58.364075 436.497955 312.071716 58.472881 436.574158 312.071716 58.566807 436.668091 312.071716 58.642994 436.776886 312.071716 58.699131 436.897278 312.071716 58.733509 437.025574 312.071716 58.745087 437.157898 312.071716 58.733509 437.290222 312.071716 58.699131 437.418518 312.071716 58.642994 437.538910 312.071716 58.566807 437.647705 312.071716 58.472881 437.741638 312.071716 58.364075 437.817841 312.071716 58.243690 437.873962 312.071716 58.115387 437.908356 312.071716 57.983063 437.919922 312.071716 57.850739 437.908356 312.071716 57.722435 437.873962 312.071716 57.602051 437.817841 312.071716 57.493244 437.741638 312.071716 57.399319 437.647705 312.071716 57.323132 437.538910 312.071716 57.266994 437.418518 312.071716 57.232616 437.290222 312.071716 57.221039 437.157898 312.071716 57.232616 437.025574 312.071716 57.266994 436.897278 312.071716 57.323132 436.776886 312.071716 57.399319 436.668091 312.071716 57.493244 436.574158 312.071716 57.602051 436.497955 312.071716 57.722435 436.441833 312.071716 57.850739 436.407440 311.936279 57.983063 436.521820 311.936279 58.093517 436.531494 311.936279 58.200615 436.560181 311.936279 58.301102 436.607025 311.936279 58.391930 436.670624 311.936279 58.470329 436.749023 311.936279 58.533924 436.839874 311.936279 58.580784 436.940338 311.936279 58.609482 437.047455 311.936279 58.619144 437.157898 311.936279 58.609482 437.268341 311.936279 58.580784 437.375458 311.936279 58.533924 437.475952 311.936279 58.470329 437.566772 311.936279 58.391930 437.645172 311.936279 58.301102 437.708771 311.936279 58.200615 437.755615 311.936279 58.093517 437.784332 311.936279 57.983063 437.793976 311.936279 57.872608 437.784332 311.936279 57.765511 437.755615 311.936279 57.665024 437.708771 311.936279 57.574200 437.645172 311.936279 57.495796 437.566772 311.936279 57.432201 437.475952 311.936279 57.385342 437.375458 311.936279 57.356647 437.268341 311.936279 57.346981 437.157898 311.936279 57.356647 437.047455 311.936279 57.385342 436.940338 311.936279 57.432201 436.839874 311.936279 57.495796 436.749023 311.936279 57.574200 436.670624 311.936279 57.665024 436.607025 311.936279 57.765511 436.560181 311.936279 57.872608 436.531494 311.846832 57.983063 436.638336 311.846832 58.073284 436.646240 311.846832 58.160763 436.669678 311.846832 58.242844 436.707947 311.846832 58.317032 436.759888 311.846832 58.381073 436.823944 311.846832 58.433018 436.898132 311.846832 58.471294 436.980194 311.846832 58.494736 437.067688 311.846832 58.502628 437.157898 311.846832 58.494736 437.248108 311.846832 58.471294 437.335602 311.846832 58.433018 437.417694 311.846832 58.381073 437.491882 311.846832 58.317032 437.555908 311.846832 58.242844 437.607849 311.846832 58.160763 437.646118 311.846832 58.073284 437.669586 311.846832 57.983063 437.677460 311.846832 57.892841 437.669586 311.846832 57.805363 437.646118 311.846832 57.723282 437.607849 311.846832 57.649094 437.555908 311.846832 57.585052 437.491882 311.846832 57.533108 437.417694 311.846832 57.494831 437.335602 311.846832 57.471394 437.248108 311.846832 57.463497 437.157898 311.846832 57.471394 437.067688 311.846832 57.494831 436.980194 311.846832 57.533108 436.898132 311.846832 57.585052 436.823944 311.846832 57.649094 436.759888 311.846832 57.723282 436.707947 311.846832 57.805363 436.669678 311.846832 57.892841 436.646240 311.767303 57.983063 436.786896 311.767303 58.047485 436.792542 311.767303 58.109955 436.809265 311.767303 58.168564 436.836609 311.767303 58.221539 436.873688 311.767303 58.267269 436.919434 311.767303 58.304359 436.972412 311.767303 58.331692 437.031006 311.767303 58.348431 437.093475 311.767303 58.354065 437.157898 311.767303 58.348431 437.222321 311.767303 58.331692 437.284790 311.767303 58.304359 437.343414 311.767303 58.267269 437.396362 311.767303 58.221539 437.442108 311.767303 58.168564 437.479187 311.767303 58.109955 437.506531 311.767303 58.047485 437.523254 311.767303 57.983063 437.528900 311.767303 57.918640 437.523254 311.767303 57.856174 437.506531 311.767303 57.797562 437.479187 311.767303 57.744587 437.442108 311.767303 57.698860 437.396362 311.767303 57.661766 437.343414 311.767303 57.634434 437.284790 311.767303 57.617699 437.222321 311.767303 57.612061 437.157898 311.767303 57.617699 437.093475 311.767303 57.634434 437.031006 311.767303 57.661766 436.972412 311.767303 57.698860 436.919434 311.767303 57.744587 436.873688 311.767303 57.797562 436.836609 311.767303 57.856174 436.809265 311.767303 57.918640 436.792542 430.490295 57.983063 437.157898 316.672394 57.588005 434.917419 316.672394 57.204952 435.020050 316.672394 56.845539 435.187653 316.672394 56.520691 435.415100 316.672394 56.240276 435.695526 316.672394 56.012814 436.020386 316.672394 55.845219 436.379791 316.672394 55.742580 436.762848 316.672394 55.708015 437.157898 316.672394 55.742580 437.552948 316.672394 55.845219 437.936005 316.672394 56.012814 438.295410 316.672394 56.240276 438.620270 316.672394 56.520691 438.900696 316.672394 56.845539 439.128143 316.672394 57.204952 439.295746 316.672394 57.588005 439.398376 316.672394 57.983063 439.432953 316.672394 58.378120 439.398376 316.672394 58.761173 439.295746 316.672394 59.120586 439.128143 316.672394 59.445435 438.900696 316.672394 59.725849 438.620270 316.672394 59.953312 438.295410 316.672394 60.120907 437.936005 316.672394 60.223545 437.552948 316.672394 60.258110 437.157898 316.672394 60.223545 436.762848 316.672394 60.120907 436.379791 316.672394 59.953312 436.020386 316.672394 59.725849 435.695526 316.672394 59.445435 435.415100 316.672394 59.120586 435.187653 316.672394 58.761173 435.020050 316.672394 58.378120 434.917419 316.672394 57.983063 434.882843 315.302765 57.983063 435.177765 315.302765 58.326912 435.207855 315.302765 58.660313 435.297180 315.302765 58.973133 435.443054 315.302765 59.255875 435.641022 315.302765 59.499939 435.885101 315.302765 59.697918 436.167816 315.302765 59.843788 436.480652 315.302765 59.933121 436.814056 315.302765 59.963203 437.157898 315.302765 59.933121 437.501740 315.302765 59.843788 437.835144 315.302765 59.697918 438.147980 315.302765 59.499939 438.430725 315.302765 59.255875 438.674774 315.302765 58.973133 438.872742 315.302765 58.660313 439.018616 315.302765 58.326912 439.107971 315.302765 57.983063 439.138031 315.302765 57.639214 439.107971 315.302765 57.305813 439.018616 315.302765 56.992992 438.872742 315.302765 56.710251 438.674774 315.302765 56.466187 438.430725 315.302765 56.268211 438.147980 315.302765 56.122337 437.835144 315.302765 56.033005 437.501740 315.302765 56.002922 437.157898 315.302765 56.033005 436.814056 315.302765 56.122337 436.480652 315.302765 56.268211 436.167816 315.302765 56.466187 435.885101 315.302765 56.710251 435.641022 315.302765 56.992992 435.443054 315.302765 57.305813 435.297180 315.302765 57.639214 435.207855 313.734619 57.983063 435.656403 313.734619 58.243793 435.679230 313.734619 58.496601 435.746979 313.734619 58.733807 435.857574 313.734619 58.948200 436.007690 313.734619 59.133270 436.192749 313.734619 59.283390 436.407166 313.734619 59.394001 436.644348 313.734619 59.461739 436.897156 313.734619 59.484550 437.157898 313.734619 59.461739 437.418640 313.734619 59.394001 437.671448 313.734619 59.283390 437.908630 313.734619 59.133270 438.123047 313.734619 58.948200 438.308105 313.734619 58.733807 438.458221 313.734619 58.496601 438.568848 313.734619 58.243793 438.636566 313.734619 57.983063 438.659393 313.734619 57.722332 438.636566 313.734619 57.469524 438.568848 313.734619 57.232319 438.458221 313.734619 57.017925 438.308105 313.734619 56.832855 438.123047 313.734619 56.682735 437.908630 313.734619 56.572128 437.671448 313.734619 56.504387 437.418640 313.734619 56.481575 437.157898 313.734619 56.504387 436.897156 313.734619 56.572128 436.644348 313.734619 56.682735 436.407166 313.734619 56.832855 436.192749 313.734619 57.017925 436.007690 313.734619 57.232319 435.857574 313.734619 57.469524 435.746979 313.734619 57.722332 435.679230 415.375763 58.081490 439.490997 423.506805 57.884640 442.887970 421.845978 57.884640 441.801239 428.062103 57.884640 440.627441 420.252319 57.884640 441.007751 419.296478 57.884640 440.697540 418.144409 57.884640 440.555237 415.375763 57.884640 439.490997 416.318665 57.884640 439.979462 429.355408 57.884640 445.447571 426.196503 57.884640 445.447571 425.333649 57.884640 444.478424 417.451996 57.884640 440.454010 416.963928 57.884640 440.297333 426.196503 58.081490 445.447571 429.355408 58.081490 445.447571 425.333649 58.081490 444.478424 428.062103 58.081490 440.627441 423.506805 58.081490 442.887970 421.845978 58.081490 441.801239 420.252319 58.081490 441.007751 419.296478 58.081490 440.697540 416.318665 58.081490 439.979462 416.963928 58.081490 440.297333 417.451996 58.081490 440.454010 418.144409 58.081490 440.555237 415.375763 60.316166 437.256317 423.506805 63.713127 437.256317 421.845978 62.626415 437.256317 428.062103 61.452614 437.256317 420.252319 61.832905 437.256317 419.296478 61.522701 437.256317 418.144409 61.380409 437.256317 416.318665 60.804634 437.256317 429.355408 66.272720 437.256317 426.196503 66.272720 437.256317 425.333649 65.303581 437.256317 417.451996 61.279167 437.256317 416.963928 61.122498 437.256317 426.196503 66.272720 437.059479 429.355408 66.272720 437.059479 425.333649 65.303581 437.059479 428.062103 61.452614 437.059479 423.506805 63.713127 437.059479 421.845978 62.626415 437.059479 420.252319 61.832905 437.059479 419.296478 61.522701 437.059479 415.375763 60.316166 437.059479 416.318665 60.804634 437.059479 416.963928 61.122498 437.059479 417.451996 61.279167 437.059479 418.144409 61.380409 437.059479 415.375763 55.649960 437.256317 423.506805 52.253002 437.059479 421.845978 53.339710 437.059479 428.062103 54.513512 437.059479 420.252319 54.133221 437.059479 419.296478 54.443424 437.059479 418.144409 54.585716 437.059479 415.375763 55.649960 437.059479 416.318665 55.161491 437.059479 429.355408 49.693405 437.059479 426.196503 49.693405 437.059479 425.333649 50.662544 437.059479 417.451996 54.686958 437.059479 416.963928 54.843632 437.059479 426.196503 49.693405 437.256317 429.355408 49.693405 437.256317 425.333649 50.662544 437.256317 428.062103 54.513512 437.256317 423.506805 52.253002 437.256317 421.845978 53.339710 437.256317 420.252319 54.133221 437.256317 419.296478 54.443424 437.256317 416.318665 55.161491 437.256317 416.963928 54.843632 437.256317 417.451996 54.686958 437.256317 418.144409 54.585716 437.256317 415.375763 58.081490 434.824799 423.506805 58.081490 431.427826 421.845978 58.081490 432.514557 428.062103 58.081490 433.688354 420.252319 58.081490 433.308044 419.296478 58.081490 433.618256 418.144409 58.081490 433.760559 416.318665 58.081490 434.336334 429.355408 58.081490 428.868256 426.196503 58.081490 428.868256 425.333649 58.081490 429.837372 417.451996 58.081490 433.861786 416.963928 58.081490 434.018463 426.196503 57.884640 428.868256 429.355408 57.884640 428.868256 425.333649 57.884640 429.837372 428.062103 57.884640 433.688354 423.506805 57.884640 431.427826 421.845978 57.884640 432.514557 420.252319 57.884640 433.308044 419.296478 57.884640 433.618256 415.375763 57.884640 434.824799 416.318665 57.884640 434.336334 416.963928 57.884640 434.018463 417.451996 57.884640 433.861786 418.144409 57.884640 433.760559 324.490662 55.649960 437.256317 332.978363 52.005489 437.059479 324.490662 55.649960 437.059479 332.978363 52.005489 437.256317 324.490662 57.884640 439.490997 332.978363 57.884640 443.135468 324.490662 58.081490 439.490997 332.978363 58.081490 443.135468 324.490662 60.316166 437.256317 332.978363 63.960636 437.256317 324.490662 60.316166 437.059479 332.978363 63.960636 437.059479 324.490662 58.081490 434.824799 332.978363 58.081490 431.180328 324.490662 57.884640 434.824799 332.978363 57.884640 431.180328 "
							            />
						</IndexedFaceSet>
					</Shape>
				</Group>
			</Transform>
		</Transform>
	</Scene>
</X3D>