<?xml version="1.0" encoding="UTF-8"?>
<!DOCTYPE X3D PUBLIC "ISO//Web3D//DTD X3D 3.0//EN" "http://www.web3d.org/specifications/x3d-3.0.dtd">
<X3D version="3.0" profile="Immersive" xmlns:xsd="http://www.w3.org/2001/XMLSchema-instance" xsd:noNamespaceSchemaLocation="http://www.web3d.org/specifications/x3d-3.0.xsd">
	<head>
		<meta name="filename" content="OMLV4_Packing - For Xander - AIM-9X_Pylon_Assy-1 LAU179_Pylon_LinkBroken-1.x3d" />
		<meta name="created" content="2026-04-19 20:21:16" />
		<meta name="generator" content="Blender 4.3.2" />
		<meta name="translator" content="Web3D X3D/VRML2 format v2.5.1" />
	</head>
	<Scene>
		<NavigationInfo headlight="true"
		                visibilityLimit="0.0"
		                type='"EXAMINE", "ANY"'
		                avatarSize="0.25, 1.75, 0.75"
		                />
		<Background DEF="WO_World"
		            groundColor="0.051 0.051 0.051"
		            skyColor="0.051 0.051 0.051"
		            />
		<Transform DEF="OMLV4_Packing_-_For_Xander_-_AIM-9X_Pylon_Assy-1_LAU179_Pylon_L_TRANSFORM"
		           translation="0.000000 0.000000 0.000000"
		           scale="1.000000 1.000000 1.000000"
		           rotation="-1.000000 0.000000 0.000000 1.570796"
		           >
			<Transform DEF="OMLV4_Packing_-_For_Xander_-_AIM-9X_Pylon_Assy-1_LAU179_Pylon_L_ifs_TRANSFORM"
			           translation="0.000000 0.000000 0.000000"
			           scale="1.000000 1.000000 1.000000"
			           rotation="0.000000 1.000000 0.000000 0.000000"
			           >
				<Group DEF="group_ME_OMLV4_Packing_-_For_Xander_-_AIM-9X_Pylon_Assy-1_LAU179_Pylon_L">
					<Shape>
						<Appearance>
						</Appearance>
						<IndexedFaceSet solid="false"
						                coordIndex="0 1 2 -1 3 4 5 -1 5 4 6 -1 7 8 6 -1 6 8 9 -1 9 10 6 -1 6 10 11 -1 6 11 12 -1 12 11 13 -1 12 13 14 -1 12 15 6 -1 6 15 0 -1 6 0 5 -1 5 0 2 -1 7 16 8 -1 8 16 17 -1 8 17 18 -1 17 19 18 -1 18 19 20 -1 18 20 21 -1 21 20 22 -1 21 22 23 -1 23 22 24 -1 23 24 25 -1 23 26 27 -1 27 26 28 -1 25 29 23 -1 23 29 30 -1 23 30 26 -1 31 32 26 -1 26 32 33 -1 26 33 28 -1 34 35 36 -1 34 36 26 -1 26 36 37 -1 26 37 31 -1 38 39 40 -1 40 39 41 -1 3 42 4 -1 4 42 43 -1 44 45 4 -1 46 43 47 -1 47 43 48 -1 47 48 49 -1 46 50 43 -1 43 50 51 -1 43 51 52 -1 52 53 43 -1 43 53 38 -1 43 38 4 -1 4 38 40 -1 4 40 44 -1 45 54 4 -1 4 54 55 -1 4 55 56 -1 56 57 4 -1 4 57 58 -1 4 58 59 -1 60 42 5 -1 5 42 3 -1 61 62 60 -1 60 5 63 -1 63 5 2 -1 63 64 65 -1 60 63 61 -1 61 63 65 -1 61 65 66 -1 67 68 0 -1 0 68 1 -1 69 67 15 -1 15 67 0 -1 70 69 12 -1 12 69 15 -1 12 71 70 -1 70 71 72 -1 70 73 74 -1 75 12 76 -1 76 12 14 -1 77 78 79 -1 75 80 12 -1 12 80 81 -1 12 81 82 -1 14 83 76 -1 76 83 79 -1 76 79 84 -1 84 79 78 -1 82 85 12 -1 12 85 86 -1 12 86 71 -1 72 87 70 -1 70 87 88 -1 70 88 89 -1 89 90 70 -1 70 90 91 -1 70 91 73 -1 92 93 94 -1 79 95 96 -1 96 97 79 -1 79 97 98 -1 79 98 77 -1 74 99 70 -1 70 99 100 -1 70 100 101 -1 101 102 70 -1 70 102 103 -1 70 103 94 -1 94 103 104 -1 94 104 92 -1 105 106 107 -1 62 68 60 -1 60 68 67 -1 69 70 67 -1 67 70 108 -1 67 108 60 -1 60 108 43 -1 60 43 42 -1 70 94 109 -1 110 111 108 -1 70 109 108 -1 108 109 112 -1 108 112 110 -1 113 114 115 -1 115 114 106 -1 106 114 116 -1 106 116 107 -1 115 117 113 -1 113 117 118 -1 113 118 119 -1 119 118 120 -1 119 120 111 -1 111 120 121 -1 111 121 108 -1 122 123 107 -1 123 124 107 -1 107 124 125 -1 107 125 105 -1 126 107 127 -1 126 128 107 -1 107 128 129 -1 107 129 122 -1 130 127 131 -1 131 127 132 -1 130 133 127 -1 127 133 134 -1 127 134 126 -1 135 136 137 -1 137 136 138 -1 137 138 139 -1 139 138 140 -1 139 140 141 -1 141 140 142 -1 141 142 143 -1 143 142 144 -1 143 144 145 -1 145 144 146 -1 145 146 147 -1 147 146 148 -1 147 148 149 -1 149 148 150 -1 149 150 151 -1 151 150 152 -1 151 152 153 -1 153 152 154 -1 153 154 155 -1 155 154 156 -1 155 156 157 -1 157 156 158 -1 157 158 159 -1 159 158 160 -1 160 158 161 -1 160 161 162 -1 162 161 163 -1 162 163 164 -1 164 163 165 -1 164 165 166 -1 166 165 167 -1 166 167 168 -1 168 167 169 -1 168 169 170 -1 169 171 170 -1 170 171 172 -1 170 172 173 -1 173 172 174 -1 173 174 175 -1 175 174 176 -1 176 174 177 -1 176 177 178 -1 179 180 181 -1 181 180 182 -1 181 182 183 -1 183 182 184 -1 183 184 185 -1 185 184 178 -1 185 178 186 -1 186 178 177 -1 187 188 189 -1 189 188 190 -1 189 190 191 -1 191 190 192 -1 191 192 193 -1 193 192 194 -1 193 194 195 -1 195 194 196 -1 195 196 197 -1 197 196 198 -1 197 198 199 -1 199 198 200 -1 199 200 179 -1 179 200 201 -1 179 201 180 -1 72 71 202 -1 202 71 203 -1 202 203 187 -1 187 203 204 -1 187 204 188 -1 205 206 207 -1 208 114 113 -1 209 72 210 -1 211 212 213 -1 214 215 216 -1 99 74 217 -1 88 87 218 -1 218 87 72 -1 212 214 219 -1 220 221 222 -1 223 211 224 -1 72 225 218 -1 218 225 226 -1 218 226 88 -1 88 226 89 -1 72 227 225 -1 225 227 228 -1 225 228 226 -1 226 228 229 -1 226 229 89 -1 89 229 90 -1 72 230 227 -1 227 230 231 -1 227 231 228 -1 228 231 232 -1 228 232 229 -1 229 232 233 -1 229 233 90 -1 90 233 91 -1 234 235 236 -1 72 237 230 -1 230 237 238 -1 230 238 231 -1 231 238 239 -1 231 239 232 -1 232 239 240 -1 232 240 233 -1 233 240 241 -1 233 241 91 -1 91 241 73 -1 242 235 243 -1 243 235 234 -1 243 234 244 -1 72 245 237 -1 237 245 246 -1 237 246 238 -1 238 246 247 -1 238 247 239 -1 239 247 248 -1 239 248 240 -1 240 248 249 -1 240 249 241 -1 241 249 217 -1 241 217 73 -1 73 217 74 -1 250 242 251 -1 251 242 243 -1 251 243 252 -1 252 243 244 -1 252 244 253 -1 254 250 255 -1 255 250 251 -1 255 251 256 -1 256 251 252 -1 256 252 257 -1 257 252 253 -1 257 253 258 -1 72 209 259 -1 259 209 260 -1 259 260 261 -1 261 260 262 -1 261 262 263 -1 263 262 264 -1 263 264 265 -1 265 264 266 -1 265 266 267 -1 267 266 268 -1 267 268 269 -1 269 268 270 -1 269 270 271 -1 272 210 72 -1 273 254 274 -1 274 254 255 -1 274 255 275 -1 275 255 256 -1 275 256 276 -1 276 256 257 -1 276 257 277 -1 277 257 258 -1 277 258 278 -1 220 222 279 -1 279 222 280 -1 279 280 281 -1 281 280 282 -1 281 282 283 -1 283 282 284 -1 283 284 285 -1 285 284 286 -1 285 286 287 -1 287 286 288 -1 287 288 289 -1 289 288 290 -1 289 290 291 -1 291 290 292 -1 291 292 293 -1 294 273 295 -1 295 273 274 -1 295 274 296 -1 296 274 275 -1 296 275 297 -1 297 275 276 -1 297 276 298 -1 298 276 277 -1 298 277 299 -1 299 277 278 -1 214 216 219 -1 219 216 300 -1 219 300 301 -1 301 300 302 -1 301 302 303 -1 303 302 304 -1 303 304 305 -1 305 304 306 -1 305 306 307 -1 307 306 308 -1 307 308 309 -1 309 308 310 -1 309 310 311 -1 311 310 207 -1 311 207 312 -1 312 207 206 -1 312 206 313 -1 211 213 224 -1 224 213 314 -1 224 314 315 -1 315 314 316 -1 315 316 317 -1 317 316 318 -1 317 318 319 -1 319 318 320 -1 319 320 321 -1 321 320 322 -1 321 322 323 -1 323 322 324 -1 323 324 325 -1 325 324 326 -1 325 326 327 -1 327 326 328 -1 327 328 329 -1 212 219 213 -1 213 219 301 -1 213 301 314 -1 314 301 303 -1 314 303 316 -1 316 303 305 -1 316 305 318 -1 318 305 307 -1 318 307 320 -1 320 307 309 -1 320 309 322 -1 322 309 311 -1 322 311 324 -1 324 311 312 -1 324 312 326 -1 326 312 313 -1 326 313 328 -1 330 293 331 -1 331 293 292 -1 331 292 332 -1 332 292 290 -1 332 290 333 -1 333 290 288 -1 333 288 334 -1 334 288 286 -1 334 286 335 -1 335 286 284 -1 335 284 336 -1 336 284 282 -1 336 282 337 -1 337 282 280 -1 337 280 338 -1 338 280 222 -1 338 222 339 -1 339 222 221 -1 339 221 223 -1 223 224 339 -1 339 224 315 -1 339 315 338 -1 338 315 317 -1 338 317 337 -1 337 317 319 -1 337 319 336 -1 336 319 321 -1 336 321 335 -1 335 321 323 -1 335 323 334 -1 334 323 325 -1 334 325 333 -1 333 325 327 -1 333 327 332 -1 332 327 329 -1 332 329 331 -1 272 340 210 -1 210 340 299 -1 210 299 209 -1 209 299 278 -1 209 278 260 -1 260 278 258 -1 260 258 262 -1 262 258 253 -1 262 253 264 -1 264 253 244 -1 264 244 266 -1 266 244 234 -1 266 234 268 -1 268 234 236 -1 268 236 270 -1 341 294 342 -1 342 294 295 -1 342 295 343 -1 343 295 296 -1 343 296 344 -1 344 296 297 -1 344 297 345 -1 345 297 298 -1 345 298 346 -1 346 298 299 -1 346 299 347 -1 347 299 340 -1 94 93 348 -1 100 99 271 -1 271 99 217 -1 271 217 269 -1 269 217 249 -1 269 249 267 -1 267 249 248 -1 267 248 265 -1 265 248 247 -1 265 247 263 -1 263 247 246 -1 263 246 261 -1 261 246 245 -1 261 245 259 -1 259 245 72 -1 94 348 109 -1 109 348 349 -1 109 349 112 -1 349 350 112 -1 112 350 351 -1 112 351 110 -1 110 351 352 -1 110 352 111 -1 111 352 353 -1 111 353 119 -1 119 353 354 -1 119 354 113 -1 113 354 355 -1 113 355 208 -1 116 114 330 -1 330 114 208 -1 330 208 293 -1 293 208 355 -1 293 355 291 -1 291 355 354 -1 291 354 289 -1 289 354 353 -1 289 353 287 -1 287 353 352 -1 287 352 285 -1 285 352 351 -1 285 351 283 -1 283 351 350 -1 283 350 281 -1 281 350 349 -1 281 349 279 -1 279 349 348 -1 279 348 220 -1 220 348 93 -1 220 93 221 -1 221 93 92 -1 221 92 223 -1 223 92 104 -1 223 104 211 -1 211 104 103 -1 211 103 212 -1 212 103 102 -1 212 102 214 -1 214 102 101 -1 214 101 215 -1 215 101 100 -1 100 271 215 -1 215 271 270 -1 215 270 216 -1 216 270 236 -1 216 236 300 -1 300 236 235 -1 300 235 302 -1 302 235 242 -1 302 242 304 -1 304 242 250 -1 304 250 306 -1 306 250 254 -1 306 254 308 -1 308 254 273 -1 308 273 310 -1 310 273 294 -1 310 294 207 -1 207 294 341 -1 207 341 205 -1 356 11 357 -1 358 18 359 -1 360 71 361 -1 362 363 364 -1 365 366 367 -1 367 366 368 -1 368 366 369 -1 368 369 370 -1 371 372 373 -1 373 372 374 -1 373 374 375 -1 375 374 71 -1 360 361 376 -1 71 377 361 -1 361 377 378 -1 361 378 376 -1 376 378 379 -1 376 379 380 -1 380 379 364 -1 380 364 381 -1 381 364 363 -1 381 371 380 -1 380 371 373 -1 380 373 376 -1 376 373 375 -1 376 375 360 -1 360 375 71 -1 71 382 377 -1 377 382 383 -1 377 383 378 -1 378 383 384 -1 378 384 379 -1 379 384 385 -1 379 385 364 -1 364 385 386 -1 364 386 362 -1 362 386 387 -1 82 81 388 -1 388 81 80 -1 388 80 389 -1 389 80 390 -1 71 86 391 -1 391 86 85 -1 391 85 392 -1 392 85 82 -1 392 82 393 -1 393 82 388 -1 21 23 394 -1 394 23 395 -1 394 395 396 -1 396 395 365 -1 396 365 397 -1 397 365 367 -1 369 398 370 -1 370 398 399 -1 370 399 400 -1 400 399 401 -1 400 401 402 -1 402 401 403 -1 402 403 404 -1 404 403 405 -1 404 405 406 -1 18 21 359 -1 359 21 394 -1 359 394 407 -1 407 394 396 -1 407 396 408 -1 408 396 397 -1 408 397 409 -1 409 397 367 -1 409 367 410 -1 410 367 368 -1 410 368 411 -1 411 368 370 -1 411 370 412 -1 412 370 400 -1 412 400 413 -1 413 400 402 -1 413 402 414 -1 414 402 404 -1 414 404 415 -1 415 404 406 -1 415 406 416 -1 358 359 417 -1 417 359 407 -1 417 407 418 -1 418 407 408 -1 418 408 419 -1 419 408 409 -1 419 409 420 -1 420 409 410 -1 420 410 421 -1 421 410 411 -1 421 411 422 -1 422 411 412 -1 422 412 423 -1 423 412 413 -1 423 413 424 -1 424 413 414 -1 424 414 425 -1 425 414 415 -1 425 415 426 -1 426 415 416 -1 426 416 427 -1 8 18 428 -1 428 18 358 -1 428 358 429 -1 429 358 417 -1 429 417 430 -1 430 417 418 -1 430 418 431 -1 431 418 419 -1 431 419 432 -1 432 419 420 -1 432 420 433 -1 433 420 421 -1 433 421 434 -1 434 421 422 -1 434 422 435 -1 435 422 423 -1 435 423 436 -1 436 423 424 -1 436 424 437 -1 437 424 425 -1 437 425 438 -1 438 425 426 -1 438 426 439 -1 439 426 427 -1 439 427 440 -1 9 8 441 -1 441 8 428 -1 441 428 442 -1 442 428 429 -1 442 429 443 -1 443 429 430 -1 443 430 444 -1 444 430 431 -1 444 431 445 -1 445 431 432 -1 445 432 446 -1 446 432 433 -1 446 433 447 -1 447 433 434 -1 447 434 448 -1 448 434 435 -1 448 435 449 -1 449 435 436 -1 449 436 450 -1 450 436 437 -1 450 437 451 -1 451 437 438 -1 451 438 452 -1 452 438 439 -1 452 439 453 -1 453 439 440 -1 453 440 454 -1 10 9 455 -1 455 9 441 -1 455 441 456 -1 456 441 442 -1 456 442 457 -1 457 442 443 -1 457 443 458 -1 458 443 444 -1 458 444 459 -1 459 444 445 -1 459 445 460 -1 460 445 446 -1 460 446 461 -1 461 446 447 -1 461 447 462 -1 462 447 448 -1 462 448 463 -1 463 448 449 -1 463 449 464 -1 464 449 450 -1 464 450 465 -1 465 450 451 -1 465 451 466 -1 466 451 452 -1 466 452 467 -1 467 452 453 -1 467 453 468 -1 468 453 454 -1 468 454 469 -1 11 10 357 -1 357 10 455 -1 357 455 470 -1 470 455 456 -1 470 456 471 -1 471 456 457 -1 471 457 472 -1 472 457 458 -1 472 458 473 -1 473 458 459 -1 473 459 474 -1 474 459 460 -1 474 460 475 -1 475 460 461 -1 475 461 476 -1 476 461 462 -1 476 462 477 -1 477 462 463 -1 477 463 478 -1 478 463 464 -1 478 464 479 -1 479 464 465 -1 479 465 480 -1 480 465 466 -1 480 466 481 -1 481 466 467 -1 481 467 482 -1 482 467 468 -1 482 468 483 -1 483 468 469 -1 356 357 484 -1 484 357 470 -1 484 470 485 -1 485 470 471 -1 485 471 486 -1 486 471 472 -1 486 472 487 -1 487 472 473 -1 487 473 488 -1 488 473 474 -1 488 474 489 -1 489 474 475 -1 489 475 490 -1 490 475 476 -1 490 476 491 -1 491 476 477 -1 491 477 492 -1 492 477 478 -1 492 478 493 -1 493 478 479 -1 493 479 494 -1 494 479 480 -1 494 480 495 -1 495 480 481 -1 495 481 496 -1 496 481 482 -1 496 482 497 -1 497 482 483 -1 497 483 71 -1 469 71 483 -1 405 387 406 -1 406 387 386 -1 406 386 416 -1 416 386 385 -1 416 385 427 -1 427 385 384 -1 427 384 440 -1 440 384 383 -1 440 383 454 -1 454 383 382 -1 454 382 469 -1 469 382 71 -1 13 11 498 -1 498 11 356 -1 498 356 499 -1 499 356 484 -1 499 484 500 -1 500 484 485 -1 500 485 501 -1 501 485 486 -1 501 486 502 -1 502 486 487 -1 502 487 503 -1 503 487 488 -1 503 488 504 -1 504 488 489 -1 504 489 505 -1 505 489 490 -1 505 490 506 -1 506 490 491 -1 506 491 390 -1 390 491 492 -1 390 492 389 -1 389 492 493 -1 389 493 388 -1 388 493 494 -1 388 494 393 -1 393 494 495 -1 393 495 392 -1 392 495 496 -1 392 496 391 -1 391 496 497 -1 391 497 71 -1 14 13 83 -1 83 13 498 -1 83 498 79 -1 79 498 499 -1 79 499 95 -1 95 499 500 -1 95 500 96 -1 96 500 501 -1 96 501 97 -1 97 501 502 -1 97 502 98 -1 98 502 503 -1 98 503 77 -1 77 503 504 -1 77 504 78 -1 78 504 505 -1 78 505 84 -1 84 505 506 -1 84 506 76 -1 76 506 390 -1 76 390 75 -1 75 390 80 -1 507 508 509 -1 510 202 187 -1 511 512 513 -1 514 161 158 -1 515 144 142 -1 516 517 518 -1 138 136 519 -1 519 136 520 -1 138 519 140 -1 140 519 521 -1 140 521 142 -1 142 521 522 -1 142 522 515 -1 508 523 524 -1 148 525 526 -1 148 526 150 -1 150 526 527 -1 150 527 152 -1 508 524 509 -1 509 524 528 -1 509 528 529 -1 529 528 530 -1 529 530 531 -1 531 530 532 -1 531 532 533 -1 533 532 534 -1 533 534 535 -1 535 534 536 -1 535 536 537 -1 152 527 154 -1 154 527 538 -1 154 538 156 -1 156 538 539 -1 156 539 158 -1 158 539 540 -1 158 540 514 -1 541 542 543 -1 543 542 544 -1 545 167 546 -1 546 167 165 -1 546 165 514 -1 514 165 163 -1 514 163 161 -1 512 511 547 -1 547 511 548 -1 547 548 549 -1 550 174 551 -1 551 174 172 -1 551 172 552 -1 552 172 171 -1 552 171 545 -1 545 171 169 -1 545 169 167 -1 183 185 553 -1 553 185 186 -1 553 186 550 -1 550 186 177 -1 550 177 174 -1 554 555 556 -1 556 555 557 -1 556 557 558 -1 72 202 272 -1 272 202 510 -1 272 510 340 -1 340 510 347 -1 559 108 560 -1 560 108 121 -1 561 562 563 -1 562 561 564 -1 564 561 565 -1 564 565 566 -1 566 565 567 -1 567 565 568 -1 567 568 569 -1 569 568 570 -1 569 570 571 -1 571 570 572 -1 572 570 573 -1 572 573 574 -1 574 573 575 -1 574 575 576 -1 576 575 577 -1 576 577 578 -1 579 580 581 -1 582 577 583 -1 583 577 575 -1 583 575 584 -1 584 575 573 -1 584 573 585 -1 585 573 570 -1 585 570 586 -1 586 570 568 -1 586 568 587 -1 587 568 565 -1 587 565 588 -1 588 565 561 -1 588 561 589 -1 589 561 563 -1 589 563 590 -1 591 592 593 -1 594 582 595 -1 595 582 583 -1 595 583 596 -1 596 583 584 -1 596 584 597 -1 597 584 585 -1 597 585 598 -1 598 585 586 -1 598 586 599 -1 599 586 587 -1 599 587 600 -1 600 587 588 -1 600 588 601 -1 601 588 589 -1 601 589 602 -1 602 589 590 -1 602 590 603 -1 604 593 605 -1 605 593 592 -1 605 592 606 -1 607 594 608 -1 608 594 595 -1 608 595 609 -1 609 595 596 -1 609 596 610 -1 610 596 597 -1 610 597 611 -1 611 597 598 -1 611 598 612 -1 612 598 599 -1 612 599 613 -1 613 599 600 -1 613 600 614 -1 614 600 601 -1 614 601 615 -1 615 601 602 -1 615 602 560 -1 560 602 603 -1 560 603 559 -1 146 144 616 -1 616 144 515 -1 616 515 617 -1 617 515 522 -1 617 522 618 -1 618 522 521 -1 618 521 619 -1 619 521 519 -1 619 519 620 -1 620 519 520 -1 620 520 621 -1 591 120 592 -1 592 120 118 -1 592 118 606 -1 606 118 117 -1 606 117 115 -1 148 146 525 -1 525 146 616 -1 525 616 622 -1 622 616 617 -1 622 617 623 -1 623 617 618 -1 623 618 624 -1 624 618 619 -1 624 619 625 -1 625 619 620 -1 625 620 579 -1 579 620 621 -1 579 621 580 -1 626 627 628 -1 628 627 629 -1 628 629 630 -1 630 629 631 -1 630 631 632 -1 632 631 633 -1 632 633 634 -1 635 626 636 -1 636 626 628 -1 636 628 637 -1 637 628 630 -1 637 630 638 -1 638 630 632 -1 638 632 639 -1 639 632 634 -1 639 634 640 -1 641 635 642 -1 642 635 636 -1 642 636 643 -1 643 636 637 -1 643 637 644 -1 644 637 638 -1 644 638 645 -1 645 638 639 -1 645 639 646 -1 646 639 640 -1 646 640 647 -1 647 648 646 -1 646 648 649 -1 646 649 645 -1 645 649 650 -1 645 650 644 -1 644 650 651 -1 644 651 643 -1 643 651 652 -1 643 652 642 -1 642 652 653 -1 642 653 641 -1 641 653 654 -1 648 655 649 -1 649 655 656 -1 649 656 650 -1 650 656 657 -1 650 657 651 -1 651 657 658 -1 651 658 652 -1 652 658 659 -1 652 659 653 -1 653 659 660 -1 653 660 654 -1 654 660 661 -1 633 604 634 -1 634 604 605 -1 634 605 640 -1 640 605 606 -1 640 606 647 -1 647 606 115 -1 647 115 648 -1 648 115 106 -1 648 106 655 -1 655 106 662 -1 655 662 656 -1 656 662 663 -1 656 663 657 -1 657 663 664 -1 657 664 658 -1 658 664 665 -1 658 665 659 -1 659 665 666 -1 659 666 660 -1 660 666 667 -1 660 667 661 -1 661 667 544 -1 668 536 669 -1 669 536 534 -1 669 534 670 -1 670 534 532 -1 670 532 671 -1 671 532 530 -1 671 530 672 -1 672 530 528 -1 672 528 673 -1 673 528 524 -1 673 524 674 -1 674 524 523 -1 674 523 675 -1 106 105 662 -1 662 105 676 -1 662 676 663 -1 663 676 677 -1 663 677 664 -1 664 677 678 -1 664 678 665 -1 665 678 679 -1 665 679 666 -1 666 679 680 -1 666 680 667 -1 667 680 681 -1 667 681 544 -1 544 681 682 -1 544 682 543 -1 541 668 542 -1 542 668 669 -1 542 669 544 -1 544 669 670 -1 544 670 661 -1 661 670 671 -1 661 671 654 -1 654 671 672 -1 654 672 641 -1 641 672 673 -1 641 673 635 -1 635 673 674 -1 635 674 626 -1 626 674 675 -1 626 675 627 -1 105 125 676 -1 676 125 683 -1 676 683 677 -1 677 683 684 -1 677 684 678 -1 678 684 685 -1 678 685 679 -1 679 685 686 -1 679 686 680 -1 680 686 687 -1 680 687 681 -1 681 687 688 -1 681 688 682 -1 682 688 689 -1 682 689 543 -1 543 689 690 -1 543 690 541 -1 537 536 691 -1 691 536 668 -1 691 668 513 -1 513 668 541 -1 513 541 511 -1 511 541 690 -1 511 690 548 -1 548 690 692 -1 548 692 549 -1 549 692 693 -1 549 693 694 -1 694 693 695 -1 694 695 696 -1 124 123 697 -1 697 123 698 -1 697 698 699 -1 699 698 700 -1 699 700 701 -1 701 700 702 -1 701 702 703 -1 703 702 704 -1 703 704 705 -1 705 704 706 -1 705 706 707 -1 707 706 708 -1 707 708 709 -1 709 708 710 -1 709 710 711 -1 711 710 712 -1 181 183 713 -1 713 183 553 -1 713 553 714 -1 714 553 550 -1 714 550 715 -1 715 550 551 -1 715 551 716 -1 716 551 552 -1 716 552 717 -1 717 552 545 -1 717 545 718 -1 718 545 546 -1 718 546 719 -1 719 546 514 -1 719 514 720 -1 720 514 540 -1 720 540 721 -1 721 540 539 -1 721 539 722 -1 722 539 538 -1 722 538 723 -1 723 538 527 -1 723 527 724 -1 724 527 526 -1 724 526 725 -1 725 526 525 -1 725 525 726 -1 726 525 622 -1 726 622 727 -1 727 622 623 -1 727 623 728 -1 728 623 624 -1 728 624 729 -1 729 624 625 -1 729 625 730 -1 730 625 579 -1 730 579 516 -1 516 579 581 -1 516 581 517 -1 123 122 698 -1 698 122 731 -1 698 731 700 -1 700 731 732 -1 700 732 702 -1 702 732 733 -1 702 733 704 -1 704 733 734 -1 704 734 706 -1 706 734 735 -1 706 735 708 -1 708 735 736 -1 708 736 710 -1 710 736 737 -1 710 737 712 -1 712 737 738 -1 125 124 683 -1 683 124 697 -1 683 697 684 -1 684 697 699 -1 684 699 685 -1 685 699 701 -1 685 701 686 -1 686 701 703 -1 686 703 687 -1 687 703 705 -1 687 705 688 -1 688 705 707 -1 688 707 689 -1 689 707 709 -1 689 709 690 -1 690 709 711 -1 690 711 692 -1 692 711 712 -1 692 712 693 -1 693 712 738 -1 693 738 695 -1 507 509 739 -1 739 509 529 -1 739 529 740 -1 740 529 531 -1 740 531 741 -1 741 531 533 -1 741 533 742 -1 742 533 535 -1 742 535 743 -1 743 535 537 -1 743 537 744 -1 744 537 691 -1 744 691 745 -1 745 691 513 -1 745 513 746 -1 746 513 512 -1 746 512 747 -1 747 512 547 -1 747 547 748 -1 748 547 549 -1 748 549 749 -1 749 549 694 -1 749 694 557 -1 557 694 696 -1 557 696 558 -1 121 120 560 -1 560 120 591 -1 560 591 615 -1 615 591 593 -1 615 593 614 -1 614 593 604 -1 614 604 613 -1 613 604 633 -1 613 633 612 -1 612 633 631 -1 612 631 611 -1 611 631 629 -1 611 629 610 -1 610 629 627 -1 610 627 609 -1 609 627 675 -1 609 675 608 -1 608 675 523 -1 608 523 607 -1 607 523 508 -1 607 508 750 -1 750 508 507 -1 750 507 751 -1 751 507 739 -1 751 739 752 -1 752 739 740 -1 752 740 753 -1 753 740 741 -1 753 741 754 -1 754 741 742 -1 754 742 755 -1 755 742 743 -1 755 743 756 -1 756 743 744 -1 756 744 757 -1 757 744 745 -1 757 745 758 -1 758 745 746 -1 758 746 759 -1 759 746 747 -1 759 747 760 -1 760 747 748 -1 760 748 761 -1 761 748 749 -1 761 749 762 -1 762 749 557 -1 762 557 763 -1 763 557 555 -1 763 555 764 -1 764 555 554 -1 764 554 765 -1 193 195 766 -1 766 195 197 -1 766 197 767 -1 767 197 199 -1 767 199 768 -1 768 199 179 -1 768 179 769 -1 769 179 181 -1 769 181 770 -1 770 181 713 -1 770 713 771 -1 771 713 714 -1 771 714 772 -1 772 714 715 -1 772 715 773 -1 773 715 716 -1 773 716 774 -1 774 716 717 -1 774 717 775 -1 775 717 718 -1 775 718 776 -1 776 718 719 -1 776 719 777 -1 777 719 720 -1 777 720 778 -1 778 720 721 -1 778 721 779 -1 779 721 722 -1 779 722 780 -1 780 722 723 -1 780 723 781 -1 781 723 724 -1 781 724 782 -1 782 724 725 -1 782 725 783 -1 783 725 726 -1 783 726 784 -1 784 726 727 -1 784 727 785 -1 785 727 728 -1 785 728 786 -1 786 728 729 -1 786 729 787 -1 787 729 730 -1 787 730 788 -1 788 730 516 -1 788 516 789 -1 789 516 518 -1 789 518 790 -1 122 129 731 -1 731 129 791 -1 731 791 732 -1 732 791 792 -1 732 792 733 -1 733 792 793 -1 733 793 734 -1 734 793 794 -1 734 794 735 -1 735 794 795 -1 735 795 736 -1 736 795 796 -1 736 796 737 -1 737 796 797 -1 737 797 738 -1 738 797 798 -1 738 798 695 -1 695 798 799 -1 695 799 696 -1 696 799 800 -1 696 800 558 -1 558 800 801 -1 558 801 556 -1 556 801 802 -1 556 802 554 -1 554 802 803 -1 554 803 765 -1 765 803 804 -1 129 128 791 -1 791 128 805 -1 791 805 792 -1 792 805 806 -1 792 806 793 -1 793 806 807 -1 793 807 794 -1 794 807 808 -1 794 808 795 -1 795 808 809 -1 795 809 796 -1 796 809 810 -1 796 810 797 -1 797 810 811 -1 797 811 798 -1 798 811 812 -1 798 812 799 -1 799 812 813 -1 799 813 800 -1 800 813 814 -1 800 814 801 -1 801 814 815 -1 801 815 802 -1 802 815 816 -1 802 816 803 -1 803 816 817 -1 803 817 804 -1 804 817 818 -1 128 126 805 -1 805 126 819 -1 805 819 806 -1 806 819 820 -1 806 820 807 -1 807 820 821 -1 807 821 808 -1 808 821 822 -1 808 822 809 -1 809 822 823 -1 809 823 810 -1 810 823 824 -1 810 824 811 -1 811 824 825 -1 811 825 812 -1 812 825 826 -1 812 826 813 -1 813 826 827 -1 813 827 814 -1 814 827 828 -1 814 828 815 -1 815 828 829 -1 815 829 816 -1 816 829 830 -1 816 830 817 -1 817 830 831 -1 817 831 818 -1 818 831 832 -1 126 134 819 -1 819 134 833 -1 819 833 820 -1 820 833 834 -1 820 834 821 -1 821 834 835 -1 821 835 822 -1 822 835 836 -1 822 836 823 -1 823 836 837 -1 823 837 824 -1 824 837 838 -1 824 838 825 -1 825 838 839 -1 825 839 826 -1 826 839 840 -1 826 840 827 -1 827 840 841 -1 827 841 828 -1 828 841 842 -1 828 842 829 -1 829 842 843 -1 829 843 830 -1 830 843 844 -1 830 844 831 -1 831 844 845 -1 831 845 832 -1 832 845 846 -1 191 193 847 -1 847 193 766 -1 847 766 846 -1 846 766 767 -1 846 767 832 -1 832 767 768 -1 832 768 818 -1 818 768 769 -1 818 769 804 -1 804 769 770 -1 804 770 765 -1 765 770 771 -1 765 771 764 -1 764 771 772 -1 764 772 763 -1 763 772 773 -1 763 773 762 -1 762 773 774 -1 762 774 761 -1 761 774 775 -1 761 775 760 -1 760 775 776 -1 760 776 759 -1 759 776 777 -1 759 777 758 -1 758 777 778 -1 758 778 757 -1 757 778 779 -1 757 779 756 -1 756 779 780 -1 756 780 755 -1 755 780 781 -1 755 781 754 -1 754 781 782 -1 754 782 753 -1 753 782 783 -1 753 783 752 -1 752 783 784 -1 752 784 751 -1 751 784 785 -1 751 785 750 -1 750 785 786 -1 750 786 607 -1 607 786 787 -1 607 787 594 -1 594 787 788 -1 594 788 582 -1 582 788 789 -1 582 789 577 -1 577 789 790 -1 577 790 578 -1 848 849 850 -1 850 849 851 -1 850 851 852 -1 852 851 853 -1 852 853 854 -1 854 853 855 -1 854 855 856 -1 856 855 857 -1 856 857 858 -1 858 857 859 -1 858 859 860 -1 860 859 861 -1 860 861 862 -1 862 861 863 -1 862 863 864 -1 864 863 865 -1 864 865 866 -1 866 865 867 -1 866 867 868 -1 868 867 869 -1 868 869 870 -1 870 869 871 -1 870 871 872 -1 872 871 873 -1 872 873 874 -1 874 873 875 -1 874 875 876 -1 876 875 877 -1 132 127 878 -1 849 879 851 -1 851 879 880 -1 851 880 853 -1 853 880 881 -1 853 881 855 -1 855 881 882 -1 855 882 857 -1 857 882 883 -1 857 883 859 -1 859 883 884 -1 859 884 861 -1 861 884 885 -1 861 885 863 -1 863 885 886 -1 863 886 865 -1 865 886 887 -1 865 887 867 -1 867 887 888 -1 867 888 869 -1 869 888 889 -1 869 889 871 -1 871 889 890 -1 871 890 873 -1 873 890 891 -1 873 891 875 -1 875 891 892 -1 875 892 877 -1 877 892 893 -1 879 894 880 -1 880 894 895 -1 880 895 881 -1 881 895 896 -1 881 896 882 -1 882 896 897 -1 882 897 883 -1 883 897 898 -1 883 898 884 -1 884 898 899 -1 884 899 885 -1 885 899 900 -1 885 900 886 -1 886 900 901 -1 886 901 887 -1 887 901 902 -1 887 902 888 -1 888 902 903 -1 888 903 889 -1 889 903 904 -1 889 904 890 -1 890 904 905 -1 890 905 891 -1 891 905 906 -1 891 906 892 -1 892 906 907 -1 892 907 893 -1 893 907 908 -1 331 909 910 -1 910 909 911 -1 910 911 912 -1 912 911 878 -1 848 133 849 -1 849 133 130 -1 849 130 879 -1 879 130 131 -1 879 131 894 -1 894 131 913 -1 894 913 895 -1 895 913 914 -1 895 914 896 -1 896 914 915 -1 896 915 897 -1 897 915 916 -1 897 916 898 -1 898 916 917 -1 898 917 899 -1 899 917 918 -1 899 918 900 -1 900 918 919 -1 900 919 901 -1 901 919 920 -1 901 920 902 -1 902 920 921 -1 902 921 903 -1 903 921 922 -1 903 922 904 -1 904 922 923 -1 904 923 905 -1 905 923 924 -1 905 924 906 -1 906 924 925 -1 906 925 907 -1 907 925 926 -1 907 926 908 -1 116 330 107 -1 107 330 927 -1 107 927 127 -1 878 127 912 -1 912 127 927 -1 912 927 910 -1 910 927 330 -1 910 330 331 -1 131 132 913 -1 913 132 878 -1 913 878 914 -1 914 878 911 -1 914 911 915 -1 915 911 909 -1 915 909 916 -1 916 909 331 -1 916 331 917 -1 917 331 329 -1 917 329 918 -1 918 329 328 -1 918 328 919 -1 919 328 313 -1 919 313 920 -1 920 313 206 -1 920 206 921 -1 206 205 921 -1 921 205 341 -1 921 341 922 -1 922 341 342 -1 922 342 923 -1 923 342 343 -1 923 343 924 -1 924 343 344 -1 924 344 925 -1 925 344 345 -1 925 345 926 -1 926 345 346 -1 346 347 926 -1 926 347 510 -1 926 510 908 -1 908 510 187 -1 908 187 893 -1 893 187 189 -1 893 189 877 -1 877 189 191 -1 877 191 876 -1 876 191 847 -1 876 847 874 -1 874 847 846 -1 874 846 872 -1 872 846 845 -1 872 845 870 -1 870 845 844 -1 870 844 868 -1 868 844 843 -1 868 843 866 -1 866 843 842 -1 866 842 864 -1 864 842 841 -1 864 841 862 -1 862 841 840 -1 862 840 860 -1 860 840 839 -1 860 839 858 -1 858 839 838 -1 858 838 856 -1 856 838 837 -1 856 837 854 -1 854 837 836 -1 854 836 852 -1 852 836 835 -1 852 835 850 -1 850 835 834 -1 850 834 848 -1 848 834 833 -1 848 833 133 -1 133 833 134 -1 928 39 38 -1 928 38 929 -1 929 38 53 -1 929 53 930 -1 930 53 931 -1 931 53 52 -1 931 52 932 -1 932 52 933 -1 933 52 51 -1 933 51 934 -1 934 51 935 -1 935 51 50 -1 935 50 936 -1 936 50 46 -1 936 46 937 -1 937 46 938 -1 938 46 47 -1 938 47 939 -1 939 47 940 -1 940 47 49 -1 940 49 941 -1 941 49 942 -1 942 49 48 -1 942 48 943 -1 943 48 43 -1 943 43 108 -1 944 27 945 -1 945 27 28 -1 946 31 37 -1 175 176 947 -1 948 949 950 -1 951 952 953 -1 954 955 956 -1 957 958 959 -1 960 961 962 -1 955 963 964 -1 964 963 957 -1 965 966 954 -1 967 968 969 -1 6 968 970 -1 971 972 973 -1 6 970 7 -1 7 970 974 -1 7 974 16 -1 16 974 17 -1 17 974 975 -1 17 975 19 -1 976 977 978 -1 978 977 979 -1 978 979 980 -1 19 975 20 -1 20 975 981 -1 20 981 22 -1 982 24 983 -1 983 24 22 -1 983 22 984 -1 984 22 981 -1 971 973 985 -1 985 973 986 -1 985 986 987 -1 987 986 988 -1 987 988 989 -1 989 988 990 -1 989 990 991 -1 991 990 992 -1 991 992 993 -1 993 992 994 -1 993 994 995 -1 995 994 996 -1 995 996 997 -1 997 996 998 -1 997 998 999 -1 999 998 1000 -1 999 1000 1001 -1 1001 1000 1002 -1 1001 1002 1003 -1 1003 1002 1004 -1 1003 1004 1005 -1 1005 1004 1006 -1 1005 1006 1007 -1 1008 1009 1010 -1 982 1011 24 -1 24 1011 1012 -1 24 1012 25 -1 25 1012 1013 -1 25 1013 29 -1 29 1013 1014 -1 29 1014 30 -1 30 1014 1015 -1 30 1015 26 -1 26 1015 1016 -1 26 1016 34 -1 34 1016 1017 -1 34 1017 35 -1 35 1017 1018 -1 35 1018 36 -1 36 1018 1019 -1 36 1019 37 -1 37 1019 1020 -1 37 1020 946 -1 946 1021 31 -1 31 1021 1022 -1 31 1022 32 -1 32 1022 1023 -1 32 1023 33 -1 33 1023 1024 -1 33 1024 28 -1 28 1024 1025 -1 28 1025 945 -1 1008 1010 1026 -1 1026 1010 1027 -1 1026 1027 1028 -1 1028 1027 1029 -1 1028 1029 1030 -1 1030 1029 1031 -1 1030 1031 1032 -1 1032 1031 1033 -1 1032 1033 1034 -1 1034 1033 1035 -1 1034 1035 1036 -1 1036 1035 1037 -1 1036 1037 1038 -1 1038 1037 1039 -1 1038 1039 1040 -1 1040 1039 1041 -1 1040 1041 1042 -1 1042 1041 362 -1 1042 362 387 -1 1043 405 403 -1 1044 401 399 -1 957 959 964 -1 964 959 1045 -1 964 1045 1046 -1 1046 1045 1047 -1 1046 1047 1048 -1 1048 1047 1049 -1 1048 1049 1050 -1 1050 1049 1051 -1 1050 1051 1052 -1 1052 1051 1053 -1 1052 1053 1054 -1 1054 1053 1055 -1 1054 1055 1056 -1 1056 1055 1057 -1 1056 1057 1058 -1 1058 1057 1059 -1 1058 1059 1060 -1 1060 1059 1061 -1 1060 1061 1062 -1 1062 1061 1063 -1 1062 1063 1064 -1 1064 1063 1065 -1 1064 1065 1066 -1 1066 1065 1067 -1 1066 1067 1068 -1 1068 1067 1069 -1 1068 1069 1070 -1 1070 1069 1071 -1 1070 1071 1072 -1 1072 1071 1073 -1 1072 1073 1074 -1 1074 1073 1075 -1 1074 1075 1076 -1 1076 1075 1077 -1 1076 1077 1078 -1 1078 1077 1079 -1 1078 1079 1080 -1 1080 1079 1081 -1 1080 1081 1082 -1 1082 1081 1083 -1 1082 1083 1084 -1 1084 1083 1085 -1 1084 1085 1086 -1 1086 1085 1087 -1 1086 1087 1088 -1 1088 1087 1089 -1 1088 1089 1090 -1 1090 1089 1044 -1 1090 1044 1091 -1 1091 1044 399 -1 1091 399 398 -1 954 956 965 -1 965 956 1092 -1 965 1092 1093 -1 1093 1092 1094 -1 1093 1094 1095 -1 1095 1094 1096 -1 1095 1096 1097 -1 1097 1096 1098 -1 1097 1098 1099 -1 1099 1098 1100 -1 1099 1100 1101 -1 1101 1100 1102 -1 1101 1102 1103 -1 1103 1102 1104 -1 1103 1104 1105 -1 1105 1104 1106 -1 1105 1106 1107 -1 1107 1106 1108 -1 1107 1108 1109 -1 1109 1108 1110 -1 1109 1110 1111 -1 1111 1110 1112 -1 1111 1112 1113 -1 1113 1112 1114 -1 1113 1114 1115 -1 1115 1114 1116 -1 1115 1116 1117 -1 1117 1116 1118 -1 1117 1118 1119 -1 1119 1118 1120 -1 1119 1120 1121 -1 1121 1120 1122 -1 1121 1122 1123 -1 1123 1122 1124 -1 1123 1124 1125 -1 1125 1124 1126 -1 1125 1126 1127 -1 1127 1126 1128 -1 1127 1128 1129 -1 1129 1128 1130 -1 1129 1130 1131 -1 1131 1130 1132 -1 1131 1132 1133 -1 1133 1132 1134 -1 1133 1134 1135 -1 1135 1134 1136 -1 1135 1136 1137 -1 1137 1136 1138 -1 1137 1138 1139 -1 1139 1138 369 -1 1139 369 366 -1 135 137 1140 -1 1140 137 1141 -1 1140 1141 1142 -1 962 1143 960 -1 960 1143 1144 -1 960 1144 1145 -1 1145 1144 1146 -1 1145 1146 1147 -1 971 1148 972 -1 972 1148 1149 -1 972 1149 1150 -1 1151 961 1152 -1 1152 961 960 -1 1152 960 1153 -1 1153 960 1145 -1 1153 1145 1154 -1 1154 1145 1147 -1 1154 1147 1155 -1 1156 1157 1158 -1 977 1151 979 -1 979 1151 1152 -1 979 1152 980 -1 980 1152 1153 -1 980 1153 1159 -1 1159 1153 1154 -1 1159 1154 1160 -1 1160 1154 1155 -1 1160 1155 1161 -1 1158 1162 951 -1 948 950 1163 -1 1163 950 1164 -1 1163 1164 1165 -1 1165 1164 1166 -1 1165 1166 1167 -1 1167 1166 1168 -1 1167 1168 1169 -1 1169 1168 1170 -1 1169 1170 1171 -1 1171 1170 1172 -1 1171 1172 1173 -1 1173 1172 1174 -1 1173 1174 1175 -1 1175 1174 1176 -1 1175 1176 1177 -1 1177 1176 976 -1 1177 976 1178 -1 1178 976 978 -1 1178 978 1179 -1 1179 978 980 -1 1179 980 1180 -1 1180 980 1159 -1 1180 1159 1181 -1 1181 1159 1160 -1 1181 1160 1141 -1 1141 1160 1161 -1 1141 1161 1142 -1 139 141 1156 -1 1156 141 143 -1 1156 143 1157 -1 1157 143 145 -1 1157 145 1182 -1 1182 145 147 -1 1182 147 1183 -1 1183 147 149 -1 1183 149 1184 -1 1184 149 151 -1 1184 151 1185 -1 1158 1157 1162 -1 1162 1157 1182 -1 1162 1182 1186 -1 1186 1182 1183 -1 1186 1183 1187 -1 1187 1183 1184 -1 1187 1184 1188 -1 1188 1184 1185 -1 1188 1185 1189 -1 951 1162 952 -1 952 1162 1186 -1 952 1186 1190 -1 1190 1186 1187 -1 1190 1187 1191 -1 1191 1187 1188 -1 1191 1188 1192 -1 1192 1188 1189 -1 1192 1189 1193 -1 1194 1195 1196 -1 1194 153 1195 -1 1195 153 155 -1 1195 155 1197 -1 1197 155 157 -1 1197 157 1198 -1 1198 157 159 -1 1198 159 1199 -1 1199 159 160 -1 1196 1195 1200 -1 1200 1195 1197 -1 1200 1197 1201 -1 1201 1197 1198 -1 1201 1198 1202 -1 1202 1198 1199 -1 1202 1199 1203 -1 151 153 1185 -1 1185 153 1194 -1 1185 1194 1189 -1 1189 1194 1196 -1 1189 1196 1193 -1 1193 1196 1200 -1 1193 1200 1204 -1 1204 1200 1201 -1 1204 1201 1205 -1 1205 1201 1202 -1 1205 1202 1206 -1 1206 1202 1203 -1 1206 1203 1207 -1 164 166 1208 -1 953 952 1209 -1 1209 952 1190 -1 1209 1190 1210 -1 1210 1190 1191 -1 1210 1191 1211 -1 1211 1191 1192 -1 1211 1192 1212 -1 1212 1192 1193 -1 1212 1193 1213 -1 1213 1193 1204 -1 1213 1204 1214 -1 1214 1204 1205 -1 1214 1205 1215 -1 1215 1205 1206 -1 1215 1206 1216 -1 1216 1206 1207 -1 1216 1207 1217 -1 137 139 1141 -1 1141 139 1156 -1 1141 1156 1181 -1 1181 1156 1158 -1 1181 1158 1180 -1 1180 1158 951 -1 1180 951 1179 -1 1179 951 953 -1 1179 953 1178 -1 1178 953 1209 -1 1178 1209 1177 -1 1177 1209 1210 -1 1177 1210 1175 -1 1175 1210 1211 -1 1175 1211 1173 -1 1173 1211 1212 -1 1173 1212 1171 -1 1171 1212 1213 -1 1171 1213 1169 -1 1169 1213 1214 -1 1169 1214 1167 -1 1167 1214 1215 -1 1167 1215 1165 -1 1165 1215 1216 -1 1165 1216 1163 -1 1163 1216 1217 -1 1163 1217 948 -1 1218 1007 1219 -1 1219 1007 1006 -1 1219 1006 949 -1 949 1006 1004 -1 949 1004 950 -1 950 1004 1002 -1 950 1002 1164 -1 1164 1002 1000 -1 1164 1000 1166 -1 1166 1000 998 -1 1166 998 1168 -1 1168 998 996 -1 1168 996 1170 -1 1170 996 994 -1 1170 994 1172 -1 1172 994 992 -1 1172 992 1174 -1 1174 992 990 -1 1174 990 1176 -1 1176 990 988 -1 1176 988 976 -1 976 988 986 -1 976 986 977 -1 977 986 973 -1 977 973 1151 -1 1151 973 972 -1 1151 972 961 -1 961 972 1150 -1 961 1150 962 -1 170 173 1220 -1 160 162 1199 -1 1199 162 1221 -1 1199 1221 1203 -1 1203 1221 1222 -1 1203 1222 1207 -1 1207 1222 1223 -1 1207 1223 1217 -1 1217 1223 1224 -1 1217 1224 948 -1 948 1224 1225 -1 948 1225 949 -1 949 1225 1226 -1 949 1226 1219 -1 1219 1226 1227 -1 1219 1227 1218 -1 1218 1227 1228 -1 1218 1228 1229 -1 1229 1228 1230 -1 1229 1230 1231 -1 1231 1230 1232 -1 1231 1232 1233 -1 1233 1232 1234 -1 1233 1234 1235 -1 1235 1234 1236 -1 1235 1236 1237 -1 1237 1236 1238 -1 1237 1238 1239 -1 1239 1238 1240 -1 1239 1240 1241 -1 1241 1240 1242 -1 1241 1242 1243 -1 1243 1242 1244 -1 1243 1244 1245 -1 1245 1244 1246 -1 1245 1246 1247 -1 1247 1246 1043 -1 1247 1043 1248 -1 1248 1043 403 -1 1248 403 401 -1 947 1249 1250 -1 166 168 1208 -1 1208 168 1251 -1 1208 1251 1252 -1 1252 1251 1253 -1 1252 1253 1254 -1 1254 1253 1255 -1 1254 1255 1256 -1 1256 1255 1257 -1 1256 1257 1258 -1 1258 1257 1259 -1 1258 1259 1260 -1 1260 1259 1261 -1 947 176 1249 -1 1249 176 178 -1 1249 178 1262 -1 1262 178 184 -1 1262 184 1263 -1 1263 184 182 -1 1263 182 1264 -1 168 170 1251 -1 1251 170 1220 -1 1251 1220 1253 -1 1253 1220 1265 -1 1253 1265 1255 -1 1255 1265 1266 -1 1255 1266 1257 -1 1257 1266 1267 -1 1257 1267 1259 -1 1259 1267 1009 -1 1259 1009 1261 -1 1261 1009 1008 -1 182 180 1264 -1 1264 180 201 -1 1264 201 1268 -1 1268 201 200 -1 1268 200 1269 -1 1269 200 198 -1 1269 198 1270 -1 1250 1249 1271 -1 1271 1249 1262 -1 1271 1262 1272 -1 1272 1262 1263 -1 1272 1263 1273 -1 1273 1263 1264 -1 1273 1264 1274 -1 1274 1264 1268 -1 1274 1268 1275 -1 1275 1268 1269 -1 1275 1269 1276 -1 1276 1269 1270 -1 1276 1270 1277 -1 203 1278 204 -1 204 1278 1279 -1 204 1279 188 -1 188 1279 1280 -1 188 1280 190 -1 190 1280 1281 -1 190 1281 192 -1 192 1281 1282 -1 192 1282 194 -1 194 1282 1283 -1 194 1283 196 -1 198 196 1270 -1 1270 196 1283 -1 1270 1283 1277 -1 1277 1283 1282 -1 1277 1282 1284 -1 1284 1282 1281 -1 1284 1281 1285 -1 1285 1281 1280 -1 1285 1280 1286 -1 1286 1280 1279 -1 1286 1279 1287 -1 1287 1279 1278 -1 1287 1288 1286 -1 1286 1288 1289 -1 1286 1289 1285 -1 1285 1289 1290 -1 1285 1290 1284 -1 1284 1290 1291 -1 1284 1291 1277 -1 1277 1291 1292 -1 1277 1292 1276 -1 1276 1292 1293 -1 1276 1293 1275 -1 1275 1293 1294 -1 1275 1294 1274 -1 1274 1294 1295 -1 1274 1295 1273 -1 1273 1295 1296 -1 1273 1296 1272 -1 1272 1296 1297 -1 1272 1297 1271 -1 1271 1297 1298 -1 1271 1298 1250 -1 1288 1299 1289 -1 1289 1299 1300 -1 1289 1300 1290 -1 1290 1300 1301 -1 1290 1301 1291 -1 1291 1301 1302 -1 1291 1302 1292 -1 1292 1302 1303 -1 1292 1303 1293 -1 1293 1303 1304 -1 1293 1304 1294 -1 1294 1304 1305 -1 1294 1305 1295 -1 1295 1305 1306 -1 1295 1306 1296 -1 1296 1306 1307 -1 1296 1307 1297 -1 1297 1307 1308 -1 1297 1308 1298 -1 401 1044 1248 -1 1248 1044 1089 -1 1248 1089 1247 -1 1247 1089 1087 -1 1247 1087 1245 -1 1245 1087 1085 -1 1245 1085 1243 -1 1243 1085 1083 -1 1243 1083 1241 -1 1241 1083 1081 -1 1241 1081 1239 -1 1239 1081 1079 -1 1239 1079 1237 -1 1237 1079 1077 -1 1237 1077 1235 -1 1235 1077 1075 -1 1235 1075 1233 -1 1233 1075 1073 -1 1233 1073 1231 -1 1231 1073 1071 -1 1231 1071 1229 -1 1229 1071 1069 -1 1229 1069 1218 -1 1218 1069 1067 -1 1218 1067 1007 -1 1007 1067 1065 -1 1007 1065 1005 -1 1005 1065 1063 -1 1005 1063 1003 -1 1003 1063 1061 -1 1003 1061 1001 -1 1001 1061 1059 -1 1001 1059 999 -1 999 1059 1057 -1 999 1057 997 -1 997 1057 1055 -1 997 1055 995 -1 995 1055 1053 -1 995 1053 993 -1 993 1053 1051 -1 993 1051 991 -1 991 1051 1049 -1 991 1049 989 -1 989 1049 1047 -1 989 1047 987 -1 987 1047 1045 -1 987 1045 985 -1 985 1045 959 -1 985 959 971 -1 971 959 958 -1 971 958 1148 -1 968 967 970 -1 970 967 1309 -1 970 1309 974 -1 974 1309 1310 -1 974 1310 975 -1 975 1310 1311 -1 975 1311 981 -1 981 1311 1312 -1 981 1312 984 -1 984 1312 1313 -1 984 1313 983 -1 983 1313 1314 -1 983 1314 982 -1 982 1314 1315 -1 982 1315 1011 -1 1011 1315 1316 -1 1011 1316 1012 -1 1012 1316 1317 -1 1012 1317 1013 -1 1013 1317 1318 -1 1013 1318 1014 -1 1014 1318 1319 -1 1014 1319 1015 -1 1015 1319 1320 -1 1015 1320 1016 -1 1016 1320 1321 -1 1016 1321 1017 -1 1017 1321 1322 -1 1017 1322 1018 -1 1018 1322 1323 -1 1018 1323 1019 -1 1019 1323 1324 -1 1019 1324 1020 -1 1020 1324 1325 -1 1020 1325 946 -1 946 1325 1326 -1 946 1326 1021 -1 1021 1326 1327 -1 1021 1327 1022 -1 1022 1327 1328 -1 1022 1328 1023 -1 1023 1328 1329 -1 1023 1329 1024 -1 1024 1329 1330 -1 1024 1330 1025 -1 1025 1330 1331 -1 1025 1331 945 -1 945 1331 1332 -1 945 1332 944 -1 363 1299 381 -1 381 1299 1288 -1 381 1288 371 -1 371 1288 1287 -1 371 1287 372 -1 372 1287 1278 -1 372 1278 374 -1 374 1278 203 -1 374 203 71 -1 173 175 1220 -1 1220 175 947 -1 1220 947 1265 -1 1265 947 1250 -1 1265 1250 1266 -1 1266 1250 1298 -1 1266 1298 1267 -1 1267 1298 1308 -1 1267 1308 1009 -1 1009 1308 1307 -1 1009 1307 1010 -1 1010 1307 1306 -1 1010 1306 1027 -1 1027 1306 1305 -1 1027 1305 1029 -1 1029 1305 1304 -1 1029 1304 1031 -1 1031 1304 1303 -1 1031 1303 1033 -1 1033 1303 1302 -1 1033 1302 1035 -1 1035 1302 1301 -1 1035 1301 1037 -1 1037 1301 1300 -1 1037 1300 1039 -1 1039 1300 1299 -1 1039 1299 1041 -1 1041 1299 363 -1 1041 363 362 -1 162 164 1221 -1 1221 164 1208 -1 1221 1208 1222 -1 1222 1208 1252 -1 1222 1252 1223 -1 1223 1252 1254 -1 1223 1254 1224 -1 1224 1254 1256 -1 1224 1256 1225 -1 1225 1256 1258 -1 1225 1258 1226 -1 1226 1258 1260 -1 1226 1260 1227 -1 1227 1260 1261 -1 1227 1261 1228 -1 1228 1261 1008 -1 1228 1008 1230 -1 1230 1008 1026 -1 1230 1026 1232 -1 1232 1026 1028 -1 1232 1028 1234 -1 1234 1028 1030 -1 1234 1030 1236 -1 1236 1030 1032 -1 1236 1032 1238 -1 1238 1032 1034 -1 1238 1034 1240 -1 1240 1034 1036 -1 1240 1036 1242 -1 1242 1036 1038 -1 1242 1038 1244 -1 1244 1038 1040 -1 1244 1040 1246 -1 1246 1040 1042 -1 1246 1042 1043 -1 1043 1042 387 -1 1043 387 405 -1 955 964 956 -1 956 964 1046 -1 956 1046 1092 -1 1092 1046 1048 -1 1092 1048 1094 -1 1094 1048 1050 -1 1094 1050 1096 -1 1096 1050 1052 -1 1096 1052 1098 -1 1098 1052 1054 -1 1098 1054 1100 -1 1100 1054 1056 -1 1100 1056 1102 -1 1102 1056 1058 -1 1102 1058 1104 -1 1104 1058 1060 -1 1104 1060 1106 -1 1106 1060 1062 -1 1106 1062 1108 -1 1108 1062 1064 -1 1108 1064 1110 -1 1110 1064 1066 -1 1110 1066 1112 -1 1112 1066 1068 -1 1112 1068 1114 -1 1114 1068 1070 -1 1114 1070 1116 -1 1116 1070 1072 -1 1116 1072 1118 -1 1118 1072 1074 -1 1118 1074 1120 -1 1120 1074 1076 -1 1120 1076 1122 -1 1122 1076 1078 -1 1122 1078 1124 -1 1124 1078 1080 -1 1124 1080 1126 -1 1126 1080 1082 -1 1126 1082 1128 -1 1128 1082 1084 -1 1128 1084 1130 -1 1130 1084 1086 -1 1130 1086 1132 -1 1132 1086 1088 -1 1132 1088 1134 -1 1134 1088 1090 -1 1134 1090 1136 -1 1136 1090 1091 -1 1136 1091 1138 -1 1138 1091 398 -1 1138 398 369 -1 966 965 1333 -1 1333 965 1093 -1 1333 1093 1334 -1 1334 1093 1095 -1 1334 1095 1335 -1 1335 1095 1097 -1 1335 1097 1336 -1 1336 1097 1099 -1 1336 1099 1337 -1 1337 1099 1101 -1 1337 1101 1338 -1 1338 1101 1103 -1 1338 1103 1339 -1 1339 1103 1105 -1 1339 1105 1340 -1 1340 1105 1107 -1 1340 1107 1341 -1 1341 1107 1109 -1 1341 1109 1342 -1 1342 1109 1111 -1 1342 1111 1343 -1 1343 1111 1113 -1 1343 1113 1344 -1 1344 1113 1115 -1 1344 1115 1345 -1 1345 1115 1117 -1 1345 1117 1346 -1 1346 1117 1119 -1 1346 1119 1347 -1 1347 1119 1121 -1 1347 1121 1348 -1 1348 1121 1123 -1 1348 1123 1349 -1 1349 1123 1125 -1 1349 1125 1350 -1 1350 1125 1127 -1 1350 1127 1351 -1 1351 1127 1129 -1 1351 1129 1352 -1 1352 1129 1131 -1 1352 1131 1353 -1 1353 1131 1133 -1 1353 1133 1354 -1 1354 1133 1135 -1 1354 1135 1355 -1 1355 1135 1137 -1 1355 1137 1356 -1 1356 1137 1139 -1 1356 1139 1357 -1 1357 1139 366 -1 1357 366 365 -1 23 27 395 -1 395 27 944 -1 395 944 365 -1 365 944 1332 -1 365 1332 1357 -1 1357 1332 1331 -1 1357 1331 1356 -1 1356 1331 1330 -1 1356 1330 1355 -1 1355 1330 1329 -1 1355 1329 1354 -1 1354 1329 1328 -1 1354 1328 1353 -1 1353 1328 1327 -1 1353 1327 1352 -1 1352 1327 1326 -1 1352 1326 1351 -1 1351 1326 1325 -1 1351 1325 1350 -1 1350 1325 1324 -1 1350 1324 1349 -1 1349 1324 1323 -1 1349 1323 1348 -1 1348 1323 1322 -1 1348 1322 1347 -1 1347 1322 1321 -1 1347 1321 1346 -1 1346 1321 1320 -1 1346 1320 1345 -1 1345 1320 1319 -1 1345 1319 1344 -1 1344 1319 1318 -1 1344 1318 1343 -1 1343 1318 1317 -1 1343 1317 1342 -1 1342 1317 1316 -1 1342 1316 1341 -1 1341 1316 1315 -1 1341 1315 1340 -1 1340 1315 1314 -1 1340 1314 1339 -1 1339 1314 1313 -1 1339 1313 1338 -1 1338 1313 1312 -1 1338 1312 1337 -1 1337 1312 1311 -1 1337 1311 1336 -1 1336 1311 1310 -1 1336 1310 1335 -1 1335 1310 1309 -1 1335 1309 1334 -1 1334 1309 967 -1 1334 967 1333 -1 1333 967 969 -1 1333 969 966 -1 41 39 1358 -1 41 1358 1359 -1 1359 1358 136 -1 1359 136 135 -1 1360 1361 59 -1 59 1361 6 -1 59 6 4 -1 1360 59 1362 -1 1362 59 58 -1 1362 58 1363 -1 1363 58 1364 -1 1364 58 57 -1 1364 57 1365 -1 1365 57 1366 -1 1366 57 56 -1 1366 56 1367 -1 1367 56 1368 -1 1368 56 55 -1 1368 55 1369 -1 1369 55 54 -1 1369 54 1370 -1 1370 54 1371 -1 1371 54 45 -1 1371 45 1372 -1 1372 45 1373 -1 1373 45 44 -1 1373 44 1374 -1 1374 44 1375 -1 1375 44 40 -1 1375 40 41 -1 1375 41 1140 -1 1140 41 1359 -1 1140 1359 135 -1 1140 1142 1375 -1 1375 1142 1161 -1 1375 1161 1374 -1 1374 1161 1155 -1 1374 1155 1373 -1 1373 1155 1147 -1 1373 1147 1372 -1 1372 1147 1146 -1 1372 1146 1371 -1 1146 1144 1371 -1 1371 1144 1143 -1 1371 1143 1370 -1 1370 1143 962 -1 1370 962 1369 -1 1369 962 1150 -1 1369 1150 1368 -1 1368 1150 1149 -1 1368 1149 1367 -1 1367 1149 1148 -1 1367 1148 1366 -1 1366 1148 958 -1 1366 958 1365 -1 958 957 1365 -1 1365 957 963 -1 1365 963 1364 -1 1364 963 955 -1 1364 955 1363 -1 1363 955 954 -1 1363 954 1362 -1 1362 954 966 -1 1362 966 1360 -1 6 1361 968 -1 968 1361 1360 -1 968 1360 969 -1 969 1360 966 -1 943 108 559 -1 559 603 943 -1 943 603 590 -1 943 590 942 -1 942 590 563 -1 942 563 941 -1 941 563 562 -1 941 562 940 -1 562 564 940 -1 940 564 566 -1 940 566 939 -1 939 566 567 -1 939 567 938 -1 938 567 569 -1 938 569 937 -1 937 569 571 -1 937 571 936 -1 936 571 572 -1 936 572 935 -1 935 572 574 -1 935 574 934 -1 574 576 934 -1 934 576 578 -1 934 578 933 -1 933 578 790 -1 933 790 932 -1 932 790 518 -1 932 518 931 -1 136 1358 520 -1 520 1358 621 -1 518 517 931 -1 931 517 581 -1 931 581 930 -1 930 581 580 -1 930 580 929 -1 929 580 621 -1 929 621 928 -1 928 621 1358 -1 928 1358 39 -1 63 2 1376 -1 1376 2 1 -1 1376 1 1377 -1 1377 1 68 -1 1377 68 61 -1 61 68 62 -1 1377 1378 1376 -1 1376 1378 1379 -1 1376 1379 1380 -1 1378 1377 66 -1 66 1377 61 -1 64 1380 65 -1 65 1380 1379 -1 65 1379 66 -1 66 1379 1378 -1 1376 1380 63 -1 63 1380 64 -1 "
						                >
							<Coordinate DEF="coords_ME_OMLV4_Packing_-_For_Xander_-_AIM-9X_Pylon_Assy-1_LAU179_Pylon_L"
							            point="332.831238 58.861347 291.024750 333.530487 58.367119 290.530518 421.414856 58.367119 290.530518 422.290283 58.750149 290.913544 422.290283 62.396530 294.559906 421.414856 58.750149 290.913544 322.175690 62.396530 294.559906 320.919067 62.313271 294.476654 317.651489 59.840614 292.003998 317.737610 59.773235 291.936615 317.807068 59.696854 291.860229 317.858032 59.613506 291.776886 318.622620 59.434898 291.598297 317.889191 59.525406 291.688782 317.899658 59.434898 291.598297 318.622620 58.861347 291.024750 320.388062 62.236687 294.400085 319.781769 62.112629 294.276031 317.551056 59.897202 292.060577 319.527008 62.046776 294.210175 318.993622 61.876060 294.039459 317.438934 59.941490 292.104889 318.295349 61.566338 293.729736 317.318146 59.972305 292.135681 317.482788 61.065212 293.228607 317.115967 60.769871 292.933258 316.852448 60.399853 292.563232 317.120758 60.020683 292.184082 317.020203 60.057747 292.221130 316.958282 60.596279 292.759674 316.880707 60.471092 292.634491 316.891113 60.140728 292.304108 316.920166 60.114513 292.277893 316.960266 60.087807 292.251190 316.836151 60.316475 292.479858 316.838257 60.252705 292.416107 316.851044 60.204254 292.367645 316.867035 60.172070 292.335449 422.290283 65.932060 292.137939 322.175690 65.932060 292.137939 422.290283 63.510082 294.559906 322.175690 63.510082 294.559906 422.290283 62.285683 287.378021 422.290283 65.932060 291.024384 422.290283 63.404942 294.648132 422.290283 63.286076 294.716766 422.290283 66.159691 291.512543 422.290283 66.135857 291.377380 422.290283 66.020287 291.129517 422.290283 66.088913 291.248383 422.290283 66.159691 291.649780 422.290283 66.135857 291.784943 422.290283 66.088913 291.913940 422.290283 66.020287 292.032806 422.290283 63.157101 294.763702 422.290283 63.021935 294.787537 422.290283 62.884678 294.787537 422.290283 62.749512 294.763702 422.290283 62.620537 294.716766 422.290283 62.501671 294.648132 421.414856 62.285683 287.378021 421.414856 60.789097 288.108521 421.414856 61.902653 286.994965 421.414856 59.480671 289.416962 421.414856 58.476532 288.412811 421.414856 59.174171 287.802032 421.414856 59.784958 287.104401 332.831238 62.396881 287.489197 333.530487 61.902653 286.994965 318.622620 62.396881 287.489197 318.622620 62.970432 288.062744 317.112244 59.991673 291.041504 317.112244 62.413654 288.619537 317.217743 62.692043 288.341156 317.240601 62.718327 288.314850 317.217743 59.713284 291.319885 317.240601 59.687000 291.346191 317.393524 59.565159 291.468018 317.342865 59.597973 291.435211 317.756378 59.444191 291.588989 317.200226 59.735950 291.297241 317.159729 59.801247 291.231934 317.142639 59.838470 291.194702 317.762939 59.443356 291.589813 317.296478 59.633785 291.399414 317.124207 59.894989 291.138184 317.115448 59.941647 291.091553 317.115448 62.463684 288.569489 317.124207 62.510338 288.522858 317.142639 62.566856 288.466339 317.159729 62.604084 288.429108 317.200226 62.669376 288.363800 317.682983 62.948936 288.084259 317.762939 62.961971 288.071198 317.899658 62.970432 288.062744 317.630341 59.468475 291.564697 317.609833 59.473988 291.559204 317.505951 59.509491 291.523682 317.468781 59.525654 291.507538 317.296478 62.771542 288.261627 317.342865 62.807354 288.225830 317.393524 62.840168 288.193024 317.505951 62.895836 288.137360 317.537994 62.908230 288.124939 317.630341 62.936852 288.096344 317.385468 64.529572 289.621887 318.128204 65.010880 290.103210 317.265259 63.518612 288.610931 322.175690 65.932060 291.024384 317.889191 63.060940 288.153259 317.807068 63.232388 288.324707 317.737610 63.308769 288.401093 317.858032 63.149040 288.241364 317.551056 63.432735 288.525055 317.438934 63.477024 288.569336 318.892242 65.373360 290.465668 317.318146 63.507839 288.600159 319.526947 65.582260 290.674591 319.665253 65.619156 290.711487 317.651489 63.376148 288.468475 320.663757 65.815430 290.907745 321.275665 65.885406 290.977722 316.858398 63.953350 289.045685 316.906982 64.055412 289.147736 316.991943 64.174423 289.266754 317.181458 64.365173 289.457489 316.844666 63.758732 288.851044 317.092773 63.565365 288.657684 316.835999 63.808395 288.900726 316.838379 63.872856 288.965179 316.904083 63.663502 288.755829 316.937592 63.637482 288.729797 316.995087 63.604855 288.697174 316.879028 63.690350 288.782684 316.859589 63.720798 288.813110 322.155396 63.509899 294.559723 322.155396 65.931877 292.137756 321.178986 63.459221 294.509064 321.178986 65.881203 292.087067 320.646729 63.401386 294.451233 320.646729 65.823364 292.029236 320.203369 63.334766 294.384613 319.546387 65.622887 291.828766 319.546387 63.200905 294.250732 319.240021 65.543968 291.749847 318.768982 62.976196 294.026031 318.547821 65.317924 291.523804 318.547821 62.895943 293.945770 318.311371 65.222557 291.428436 317.877747 62.597065 293.646912 317.679382 64.912971 291.118835 317.679382 62.490990 293.540833 317.477936 64.797035 291.002899 317.107697 62.141178 293.191010 316.771759 64.323784 290.529663 316.771759 61.901806 292.951630 316.751404 64.308098 290.513977 316.573425 61.740211 292.790039 316.401764 63.998905 290.204773 316.401764 61.576923 292.626770 316.229767 61.368320 292.418152 316.229767 63.790279 289.996155 316.210022 61.338940 292.388763 316.210022 63.760921 289.966797 316.155701 61.247410 292.297241 316.155731 63.669456 289.875336 316.112793 61.157101 292.206940 316.112793 63.579079 289.784943 316.094604 61.109875 292.159698 316.094666 63.532028 289.737915 316.058899 60.975090 292.024933 316.058899 63.397072 289.602936 316.055298 63.374317 289.580200 316.048035 60.864491 291.914337 316.048492 63.243465 289.449341 316.048492 60.821487 291.871307 316.052856 60.768269 291.818115 316.052856 63.190228 289.396118 316.069244 60.682877 291.732727 316.189026 62.865368 289.071228 316.165253 60.475727 291.525574 316.125427 62.962631 289.168518 316.116486 60.557846 291.607697 316.116486 62.979828 289.185699 316.096069 60.602741 291.652588 316.075348 63.083149 289.289032 316.069244 63.104858 289.310730 316.767670 62.501392 288.707275 316.679291 60.110950 291.160797 316.561157 62.583427 288.789307 316.561157 60.161446 291.211273 316.462799 62.634975 288.840851 316.462799 60.212990 291.262817 316.406128 62.669849 288.875732 316.406128 60.247871 291.297699 316.338837 62.717731 288.923615 316.338837 60.295750 291.345581 316.286194 62.761604 288.967468 316.286194 60.339622 291.389465 316.216064 62.832573 289.038452 316.216064 60.410603 291.460449 316.189026 60.443386 291.493225 316.950562 62.448936 288.654816 316.950562 60.026958 291.076782 316.767670 60.079414 291.129242 317.165436 62.925789 288.384949 317.172546 62.964687 288.383240 317.201050 62.957863 288.376343 317.388153 63.435871 288.532684 317.113861 62.465630 288.571442 317.113800 62.465336 288.571716 317.534393 62.947441 288.164154 317.465759 62.912510 288.186340 317.456696 62.944790 288.218628 317.400879 62.872723 288.214081 317.340912 62.828594 288.247070 317.335052 62.849476 288.267944 317.239502 62.730148 288.326691 317.115417 62.463978 288.569794 317.393494 62.899075 288.240448 317.750885 63.020462 288.131378 317.678131 63.001507 288.136810 317.663635 63.053177 288.188477 317.605591 62.977165 288.147675 317.523560 62.985989 288.202698 317.115326 62.464264 288.570068 317.125275 62.516178 288.519440 317.115204 62.464542 288.570374 317.124939 62.517368 288.520630 317.142395 62.569656 288.469116 317.115021 62.464806 288.570618 317.124390 62.518517 288.521759 317.141632 62.572407 288.471893 317.167084 62.623692 288.419678 317.223480 62.763618 288.360138 317.264862 62.826733 288.330750 317.274994 62.812145 288.316162 317.114777 62.465050 288.570862 317.123657 62.519604 288.522858 317.140350 62.575066 288.474548 317.165649 62.628696 288.424683 317.199463 62.677479 288.371918 317.252106 62.840256 288.344269 317.214203 62.773479 288.369995 317.182129 62.707176 288.401611 317.114502 62.465271 288.571106 317.122681 62.520615 288.523865 317.138580 62.577579 288.477051 317.163361 62.633530 288.429504 317.197235 62.685444 288.379883 317.236969 62.852493 288.356506 317.203156 62.782398 288.378937 317.174561 62.713287 288.407715 317.151398 62.646198 288.442169 317.219727 62.863232 288.367249 317.190582 62.790222 288.386749 317.165924 62.718651 288.413086 317.145996 62.649570 288.445557 317.130798 62.583881 288.483368 317.114197 62.465466 288.571289 317.120270 62.522331 288.525574 317.121552 62.521530 288.524780 317.133789 62.582027 288.481506 317.136383 62.579914 288.479401 317.156158 62.642357 288.438324 317.160156 62.638111 288.434082 317.188477 62.700420 288.394836 317.193542 62.693134 288.387573 317.230865 62.752991 288.349518 317.236237 62.741768 288.338287 317.282379 62.796753 288.300751 317.286865 62.780807 288.284821 317.112793 62.455170 288.580841 317.200653 62.872292 288.376282 317.176666 62.796825 288.393341 317.156403 62.723179 288.417603 317.140015 62.652412 288.448395 317.127502 62.585445 288.484924 317.118866 62.523006 288.526245 317.734528 63.078777 288.189697 317.639740 63.103073 288.238373 317.707550 63.135086 288.246002 317.606842 63.150341 288.285645 317.670441 63.188435 288.299347 317.565521 63.194180 288.329498 317.623810 63.237907 288.348816 317.516479 63.233837 288.369141 317.568481 63.282665 288.393585 317.460571 63.268642 288.403961 317.505341 63.321945 288.432861 317.398712 63.298000 288.433319 317.435547 63.355080 288.466003 317.331970 63.321411 288.456726 317.360229 63.381496 288.492401 317.180054 62.879513 288.383514 317.161652 62.802090 288.398621 317.146118 62.726784 288.421204 317.133545 62.654678 288.450653 317.123962 62.586693 288.486176 317.117310 62.523544 288.526794 317.325409 62.869637 288.288116 317.381287 62.924526 288.265900 317.312103 62.888737 288.307220 317.364532 62.948635 288.290009 317.295410 62.906452 288.324921 317.343445 62.970993 288.312347 317.275604 62.922478 288.340942 317.318420 62.991222 288.332581 317.252991 62.936539 288.355011 317.289917 63.008972 288.350342 317.227997 62.948402 288.366882 317.258362 63.023945 288.365326 317.224335 63.035885 288.377258 317.190002 63.052479 288.386627 317.441742 62.975956 288.249786 317.505737 63.023209 288.239929 317.421204 63.005486 288.279327 317.481201 63.058468 288.275208 317.395416 63.032871 288.306702 317.450378 63.091171 288.307892 317.364777 63.057644 288.331482 317.413788 63.120754 288.337494 317.329834 63.079384 288.353210 317.372070 63.146717 288.363434 317.291199 63.097725 288.371552 317.325928 63.168617 288.385345 317.249512 63.112347 288.386169 317.276154 63.186081 288.402802 317.205475 63.123032 288.396851 317.218597 63.178532 288.409760 317.282501 63.406452 288.515503 317.249481 63.296715 288.452820 317.303802 63.256054 288.426575 317.361969 63.235645 288.406158 317.415924 63.210052 288.380554 317.464661 63.179710 288.350220 317.507416 63.145134 288.315643 317.543427 63.106918 288.277435 317.572113 63.065712 288.236206 317.592926 63.022213 288.192719 317.113251 62.470840 288.567566 317.158325 62.884789 288.388855 317.144806 62.799007 288.404114 317.135254 62.729397 288.423859 317.128754 62.675041 288.444244 317.120209 62.587566 288.487183 317.118103 62.560329 288.503357 317.115723 62.523987 288.527252 317.822784 63.034184 288.131012 317.804596 63.099064 288.195892 317.774567 63.161716 288.258545 317.733276 63.221069 288.317902 317.681396 63.276115 288.372955 317.619843 63.325912 288.422729 317.549622 63.369614 288.466431 317.471954 63.406479 288.503296 317.804596 59.568035 291.726929 317.774567 59.630688 291.789581 317.549622 59.838585 291.997467 317.471954 59.875446 292.034332 317.113861 59.943592 291.093475 317.114197 59.943428 291.093323 317.137939 59.789478 291.377777 317.126709 59.824490 291.284210 317.133545 59.822807 291.282532 317.269531 59.861248 291.993042 317.237396 59.806179 291.880341 317.303802 59.798702 291.883911 317.276154 59.774948 291.813934 317.221069 59.784725 291.816589 317.249512 59.758327 291.740204 317.121124 59.853184 291.226257 317.115356 59.903389 291.145966 317.118164 59.899387 291.150024 317.113251 59.939671 291.098663 317.113831 59.943363 291.093811 317.118866 59.898399 291.150848 317.114502 59.943233 291.093140 317.120270 59.897724 291.150177 317.127502 59.857059 291.213287 317.123962 59.858307 291.214539 317.124054 59.836758 291.257996 317.114777 59.943012 291.092896 317.121552 59.896923 291.149384 317.130798 59.855499 291.211731 317.140015 59.820538 291.280273 317.146118 59.793358 291.354645 317.146942 59.772903 291.441406 317.167084 59.791821 291.251556 317.199463 59.744053 291.305328 317.239502 59.698822 291.358002 317.115417 59.941936 291.091827 317.125275 59.891571 291.144043 317.142395 59.841270 291.197510 317.388153 59.904842 292.063721 317.303314 59.935055 292.095520 317.360229 59.864555 292.009338 317.331970 59.828861 291.949280 317.207062 59.770393 291.757721 317.205475 59.769043 291.750854 317.224335 59.749397 291.663757 317.180084 59.755718 291.631561 317.201050 59.748482 291.585724 317.172546 59.755394 291.592621 317.180054 59.755661 291.507355 317.156952 59.761887 291.504730 317.161652 59.770763 291.429932 317.435547 59.838135 291.982941 317.398712 59.805450 291.925842 317.361969 59.778297 291.863495 317.325928 59.757484 291.796478 317.291199 59.743706 291.725586 317.258362 59.737457 291.651794 317.227997 59.739021 291.576263 317.200653 59.748440 291.500153 317.176666 59.765499 291.424683 317.156403 59.789749 291.351044 317.505341 59.805004 291.949799 317.460571 59.776093 291.896484 317.415924 59.752701 291.837921 317.372070 59.735584 291.774567 317.329834 59.725365 291.707245 317.289917 59.722481 291.636841 317.252991 59.727158 291.564392 317.219727 59.739380 291.491089 317.190582 59.758896 291.418091 317.165924 59.785225 291.346497 317.145996 59.817696 291.277435 317.619843 59.794884 291.953766 317.568481 59.765724 291.910522 317.516479 59.741291 291.861694 317.464661 59.722359 291.807556 317.413788 59.709621 291.748596 317.364777 59.703625 291.685486 317.318420 59.704731 291.619080 317.275604 59.713097 291.550323 317.236969 59.728642 291.480347 317.203156 59.751068 291.410248 317.174561 59.779858 291.341156 317.151398 59.814323 291.274048 317.133789 59.853645 291.209869 317.681396 59.745087 291.903961 317.623810 59.720966 291.865753 317.565521 59.701630 291.822021 317.507416 59.687786 291.772980 317.450378 59.680038 291.719025 317.395416 59.678848 291.660736 317.343445 59.684502 291.598846 317.295410 59.697071 291.534302 317.252106 59.716408 291.468109 317.214203 59.742149 291.401337 317.182129 59.773746 291.335022 317.156158 59.810482 291.270203 317.136383 59.851532 291.207764 317.122681 59.896008 291.148468 317.733276 59.690041 291.848938 317.670441 59.671490 291.816284 317.606842 59.657791 291.778198 317.543427 59.649570 291.734772 317.481201 59.647339 291.686340 317.421204 59.651466 291.633331 317.364532 59.662144 291.576477 317.312103 59.679356 291.516602 317.264862 59.702881 291.454590 317.223480 59.732292 291.391479 317.188477 59.766991 291.328278 317.160156 59.806236 291.265961 317.138580 59.849197 291.205444 317.123657 59.895000 291.147461 317.115021 59.942768 291.092651 317.707550 59.618145 291.762939 317.639740 59.610523 291.730927 317.572113 59.608360 291.693573 317.505737 59.612076 291.651062 317.441742 59.621937 291.603821 317.381287 59.638035 291.552368 317.325409 59.660255 291.497498 317.274994 59.688297 291.440002 317.230865 59.721661 291.380859 317.193542 59.759705 291.320984 317.163361 59.801659 291.261383 317.140350 59.846680 291.202911 317.124390 59.893909 291.146362 317.115204 59.942505 291.092407 317.734528 59.561832 291.706635 317.663635 59.560627 291.681030 317.592926 59.564861 291.650055 317.523560 59.574856 291.613831 317.456696 59.590771 291.572632 317.393494 59.612583 291.526917 317.335052 59.640095 291.477325 317.282379 59.672901 291.424622 317.236237 59.710442 291.369629 317.197235 59.752014 291.313293 317.165649 59.796825 291.256561 317.141632 59.844025 291.200256 317.124939 59.892761 291.145233 317.115326 59.942226 291.092133 317.822784 59.503155 291.662048 317.750885 59.503517 291.648315 317.678131 59.508957 291.629364 317.605591 59.519817 291.605011 317.534393 59.536312 291.575287 317.465759 59.558491 291.540375 317.400879 59.586231 291.500580 317.340912 59.619213 291.456451 317.286865 59.656956 291.408661 318.359314 65.428703 291.109650 318.379822 65.451462 291.038696 317.955841 65.252441 290.839691 316.951843 62.506092 288.602814 316.233246 63.714767 289.214233 316.187439 63.674164 289.261414 316.223267 63.818531 289.405792 316.233215 63.843651 289.940369 319.241394 65.596024 291.692749 321.186371 66.052177 291.831909 322.156952 66.102562 291.882294 322.157593 66.123039 291.827148 321.179474 65.933067 292.029785 322.155518 65.983742 292.080475 320.204285 65.808693 291.905426 319.720306 65.714493 291.811218 318.403564 65.467453 290.966919 317.982910 65.269997 290.769470 318.313324 65.274834 291.371552 317.880005 65.071434 291.168152 317.480408 64.849525 290.946259 317.593109 65.053513 290.552979 317.563446 65.034531 290.621765 316.883453 64.576080 290.075562 316.849426 64.554138 290.141388 316.712463 64.435928 289.935394 316.676666 64.412521 289.999786 316.545532 64.276619 289.776093 316.507294 64.250877 289.838135 316.390442 64.087959 289.587433 316.349060 64.058365 289.645630 316.754211 64.360855 290.457581 316.576447 64.215134 290.311859 316.400238 64.046921 290.143646 316.267944 63.854496 289.353973 316.371674 64.005486 289.423920 316.318237 63.886086 289.304535 316.488434 64.131332 289.476349 316.098175 63.585976 289.682709 316.159515 63.723015 289.819763 316.180664 63.594341 289.181580 316.226715 63.637756 289.137238 316.185059 63.507679 289.094940 316.056610 63.245037 289.341766 316.051697 63.340912 289.437653 316.059174 63.428619 289.525360 316.079163 63.138302 289.235046 316.157196 63.132824 289.015442 316.153687 63.249607 289.029327 316.181488 63.190815 288.970520 316.166382 63.359322 289.040253 316.212341 63.248512 288.929443 322.174194 65.971581 291.066925 321.266174 65.936897 291.034546 321.238678 66.054436 291.231567 322.167664 66.106689 291.289764 322.169525 66.074791 291.219666 322.166565 66.123108 291.334961 321.230103 66.080093 291.303955 322.166138 66.128654 291.352509 322.164734 66.144493 291.413239 321.221954 66.098564 291.378540 322.163788 66.152687 291.456421 321.214325 66.109596 291.454620 322.162048 66.161652 291.542908 322.161346 66.162537 291.580994 321.207306 66.113022 291.531464 322.159760 66.156990 291.673706 321.200958 66.108910 291.608368 322.159271 66.152534 291.705658 321.195282 66.097328 291.684570 322.158813 66.147346 291.734589 321.183167 66.018959 291.901581 322.156281 66.069481 291.952087 322.156555 66.084267 291.923035 320.234497 65.974808 291.562073 320.245300 65.987045 291.486511 320.257477 65.991905 291.410370 320.270874 65.989304 291.334320 320.285431 65.979156 291.259125 320.300995 65.961639 291.185486 320.317352 65.936989 291.114105 321.247589 66.021835 291.162079 322.170868 66.048271 291.172333 320.369934 65.822662 290.920319 319.929993 65.737053 290.834717 319.907288 65.780670 290.894318 319.758575 65.882179 291.469421 319.772247 65.894974 291.394440 319.787659 65.900467 291.318909 319.804626 65.898552 291.243561 319.823059 65.889168 291.169128 319.842743 65.872459 291.096313 319.863464 65.848648 291.025787 320.334412 65.905434 291.045685 321.256805 65.982544 291.096191 322.172668 66.008804 291.113495 319.443665 65.708801 290.849060 319.470978 65.672752 290.786407 319.498840 65.630417 290.728088 319.288391 65.765869 291.353119 319.305176 65.779434 291.278900 319.324066 65.785797 291.204254 319.344910 65.784836 291.129852 319.367554 65.776497 291.056458 319.391693 65.760895 290.984741 319.417145 65.738258 290.915375 319.885071 65.817978 290.958221 320.351990 65.867210 290.980865 318.770691 65.450302 291.547028 319.245544 65.642570 291.631226 319.723694 65.760849 291.749481 320.206940 65.854912 291.843567 321.180878 65.979126 291.967773 322.155701 66.018288 292.035065 318.775665 65.497108 291.485748 319.252380 65.683220 291.565857 319.729279 65.801186 291.683807 320.211365 65.895020 291.777649 318.047058 65.284851 290.629883 318.459808 65.478600 290.823608 318.083557 65.281876 290.561859 318.491791 65.473518 290.753479 318.122559 65.272018 290.495880 318.526001 65.461411 290.685272 318.163635 65.255432 290.432556 318.562012 65.442451 290.619568 318.599518 65.416824 290.557068 317.663361 65.071747 290.416779 317.703339 65.070702 290.350677 317.746033 65.062897 290.286743 317.791046 65.048477 290.225616 318.206421 65.232285 290.372528 318.638184 65.384720 290.498383 316.964020 64.601318 289.946320 317.009857 64.604256 289.884216 317.058838 64.600708 289.824554 317.110413 64.590775 289.767914 317.837891 65.027573 290.167816 318.250519 65.202721 290.316376 318.677582 65.346405 290.444061 318.295471 65.167007 290.264648 317.886139 65.000336 290.113983 317.164154 64.574539 289.714783 316.951355 64.460403 289.637543 316.897034 64.468109 289.691956 316.845490 64.469551 289.749512 316.797241 64.464638 289.809662 317.935394 64.966988 290.064636 317.219513 64.552116 289.665771 317.007904 64.446487 289.586731 316.800690 64.316734 289.493866 316.742676 64.320892 289.544739 316.687622 64.318954 289.598938 316.636078 64.310883 289.655884 317.275970 64.523674 289.621338 317.066132 64.426445 289.540100 316.861084 64.306519 289.446777 316.666504 64.153740 289.330872 316.603760 64.152061 289.375916 316.544189 64.144585 289.424561 316.323181 63.977928 289.477386 316.437012 64.112373 289.530823 316.588593 64.296700 289.715149 316.752777 64.453369 289.871826 316.921753 64.591866 290.010315 317.626495 65.065971 290.484436 318.013428 65.280853 290.699310 318.430298 65.476540 290.894989 317.125580 64.400436 289.498108 316.923309 64.290298 289.403931 316.731842 64.149597 289.289856 316.566071 63.962791 289.139923 316.498291 63.951450 289.175293 316.433960 63.934799 289.214783 316.373749 63.912956 289.257965 316.986786 64.268181 289.365845 316.799194 64.139633 289.253296 316.636627 63.968719 289.108948 316.538940 63.854023 289.031158 316.469452 63.835640 289.059509 316.403503 63.812313 289.092285 316.341766 63.784214 289.129242 316.284851 63.751579 289.170044 316.280121 63.945545 289.532806 316.230957 63.554390 289.053864 316.250305 63.462685 288.962158 316.205261 63.412022 288.999268 316.292542 63.360840 288.860321 316.249512 63.305367 288.892609 316.867859 64.123901 289.221558 316.783508 63.963963 289.061615 316.709351 63.969120 289.082764 316.685852 63.875229 288.988892 316.611298 63.867275 289.007507 316.609589 63.757290 288.897522 316.537109 63.734390 288.911530 316.550842 63.669079 288.846222 316.467499 63.706745 288.930603 316.482513 63.635437 288.859283 316.401459 63.674625 288.954590 316.417664 63.597622 288.877594 316.339630 63.638298 288.983307 316.356964 63.555962 288.900970 316.282623 63.598076 289.016541 316.301025 63.510826 288.929291 316.099762 63.080048 289.176788 316.090302 63.194027 289.182678 316.067963 63.299782 289.288422 316.063080 63.394848 289.383484 316.070526 63.481853 289.470490 316.109222 63.638065 289.626709 316.170166 63.774220 289.762848 316.243469 63.894161 289.882812 316.409668 64.096489 290.085114 316.585297 64.264122 290.252747 316.762604 64.409477 290.398102 317.487732 64.897415 290.886047 317.886688 65.118965 291.107605 318.319183 65.321976 291.310608 318.783875 65.538185 291.420807 319.261871 65.717560 291.497284 319.736969 65.835091 291.614807 320.217438 65.928612 291.708344 316.761902 63.877773 288.975433 316.684235 63.775177 288.888824 316.621979 63.698227 288.838470 316.579712 63.599339 288.776459 316.514435 63.558395 288.782257 316.452484 63.513653 288.793610 316.394470 63.465511 288.810516 316.341003 63.414402 288.832855 317.932434 65.228333 290.909271 317.537842 65.009193 290.690125 316.820068 64.526245 290.207184 316.645752 64.383369 290.064301 316.474274 64.219696 289.900635 316.313324 64.023865 289.704803 316.242920 63.908634 289.589569 316.184662 63.778530 289.459473 316.147888 63.630154 289.311096 316.140869 63.547897 289.228851 316.145447 63.458397 289.139343 318.809753 65.601517 291.282471 318.342285 65.399330 291.179047 317.913025 65.197838 290.977539 317.516571 64.977669 290.757385 316.795654 64.492607 290.272308 316.620087 64.348671 290.128387 316.446838 64.183319 289.963043 316.283661 63.984730 289.764435 316.212036 63.867500 289.647217 316.152618 63.734825 289.514526 316.115021 63.583126 289.362854 316.107849 63.498852 289.278564 316.112549 63.406986 289.186707 316.134064 63.305077 289.084778 316.128723 63.193039 289.075653 316.139679 63.075092 289.063721 316.341705 62.774139 288.870880 316.278534 62.827618 288.924347 316.219330 62.888573 288.985321 316.168732 62.953476 289.050201 316.129028 63.018177 289.114899 316.110687 63.136337 289.124969 316.108643 63.249798 289.132416 316.086670 63.353943 289.236572 316.081879 63.447662 289.330292 316.089172 63.533524 289.416138 316.127411 63.687843 289.570465 316.187714 63.822536 289.705170 316.260315 63.941345 289.823975 316.425262 64.142097 290.024719 316.599884 64.308777 290.191406 316.776489 64.453537 290.336151 317.499817 64.940269 290.822906 317.897736 65.161240 291.043854 318.328857 65.363617 291.246246 318.795258 65.573128 291.352844 319.273895 65.745201 291.426147 319.746796 65.862183 291.543121 320.225189 65.955299 291.636230 321.190399 66.078392 291.759338 322.157928 66.131279 291.800537 316.760406 63.787857 288.885529 316.695282 63.722553 288.836212 316.647705 63.636086 288.776337 316.601898 63.563190 288.740326 316.539154 63.518112 288.741974 316.479584 63.469444 288.749420 316.423859 63.417629 288.762634 316.372467 63.363129 288.781586 316.325897 63.306499 288.805969 316.284515 63.248299 288.835541 316.248810 63.189091 288.870026 316.219147 63.129436 288.909149 316.195801 63.069908 288.952545 316.178955 63.011063 288.999695 316.770020 63.741798 288.839447 316.717712 63.668236 288.781891 316.667206 63.604244 288.744476 316.629730 63.527481 288.704620 316.570282 63.478176 288.702026 316.513855 63.425495 288.705475 316.461029 63.369923 288.714935 316.412354 63.311958 288.730408 316.368225 63.252190 288.751648 316.329041 63.191200 288.778442 316.295197 63.129585 288.810516 316.267090 63.067932 288.847656 316.244995 63.006828 288.889465 316.229004 62.946850 288.935486 316.789154 63.695469 288.793121 316.734528 63.640835 288.754486 316.691620 63.572937 288.713196 316.662323 63.493931 288.671051 316.606720 63.440655 288.664520 316.553955 63.384205 288.664185 316.504578 63.325104 288.670135 316.459045 63.263893 288.682343 316.417786 63.201176 288.700653 316.381134 63.137569 288.724823 316.349487 63.073696 288.754639 316.323212 63.010166 288.789886 316.302521 62.947586 288.830200 316.287598 62.886539 288.875183 316.803192 63.672588 288.770233 316.755402 63.614067 288.727722 316.720184 63.543518 288.683777 316.697723 63.463951 288.641083 316.646179 63.407269 288.631134 316.597229 63.347591 288.627563 316.551392 63.285469 288.630493 316.509155 63.221466 288.639923 316.470886 63.156223 288.655701 316.436890 63.090374 288.677612 316.407532 63.024563 288.705505 316.383148 62.959423 288.739136 316.363953 62.895576 288.778198 316.350098 62.833614 288.822266 316.404480 62.729172 288.825897 316.820435 63.650452 288.748108 316.840668 63.629631 288.727295 316.779846 63.588905 288.702545 316.806763 63.566120 288.679779 316.751434 63.517082 288.657318 316.816559 63.473698 288.613953 316.770508 63.415440 288.592560 316.841980 63.378544 288.555664 316.726288 63.353836 288.577698 316.803772 63.313828 288.537689 316.684326 63.289486 288.569458 316.767517 63.246525 288.526489 316.645050 63.222988 288.567993 316.733551 63.177261 288.522278 316.608826 63.154961 288.573395 316.702271 63.106682 288.525116 316.575989 63.086060 288.585541 316.673889 63.035473 288.534943 316.546844 63.016968 288.604218 316.648712 62.964329 288.551575 316.521667 62.948353 288.629303 316.626953 62.893940 288.574890 316.500763 62.880890 288.660614 316.608887 62.825005 288.604706 316.484314 62.815212 288.697845 316.594666 62.758167 288.640778 316.472443 62.751930 288.740570 316.584412 62.694050 288.682678 316.465240 62.691650 288.788391 316.578186 62.633263 288.730011 317.018433 63.528290 288.625946 316.863190 63.610573 288.708221 316.864014 63.528011 288.641663 316.881775 63.440041 288.580292 316.911438 63.349319 288.526459 316.878082 63.282555 288.506409 316.846405 63.213310 288.493286 316.816772 63.142223 288.487244 316.789459 63.069965 288.488403 316.764709 62.997238 288.496704 316.742706 62.924740 288.511993 316.723724 62.853188 288.534119 316.707947 62.783283 288.562988 316.695557 62.715687 288.598297 316.686584 62.651016 288.639648 316.681152 62.589897 288.686646 316.912384 63.577850 288.675507 316.922760 63.497696 288.611359 316.946167 63.412952 288.553192 316.979187 63.325272 288.502411 316.949860 63.257076 288.480927 316.922028 63.186470 288.466431 316.895935 63.114117 288.459137 316.871918 63.040688 288.459137 316.850159 62.966892 288.466370 316.830811 62.893456 288.480713 316.814117 62.821087 288.502045 316.800232 62.750507 288.530212 316.789337 62.682377 288.565002 316.781433 62.617321 288.605957 316.776672 62.555969 288.652710 317.134979 63.354794 288.495026 317.159698 63.418110 288.531769 317.041199 63.451782 288.565430 317.073303 63.508835 288.606506 316.964600 63.550941 288.648590 316.981934 63.472805 288.586456 317.009735 63.390396 288.530640 317.110962 63.287800 288.464935 317.087921 63.217808 288.441650 317.066040 63.145496 288.425476 317.045563 63.071545 288.416565 317.026672 62.996643 288.415100 317.009583 62.921516 288.420990 316.994385 62.846897 288.434143 316.981262 62.773506 288.454437 316.970367 62.702076 288.481781 316.961792 62.633278 288.515900 316.955597 62.567741 288.556366 317.184906 63.477123 288.574768 322.175690 66.008781 292.048798 322.175690 66.020287 292.032806 322.175690 66.074821 291.942627 322.175690 66.088913 291.913940 322.175690 66.123222 291.827332 322.175690 66.135857 291.784943 322.175690 66.152756 291.705841 322.175690 66.159691 291.649780 322.175690 66.162689 291.581177 322.175690 66.159691 291.512543 322.175690 66.152763 291.456543 322.175690 66.135857 291.377380 322.175690 66.123230 291.335022 322.175690 66.088913 291.248383 322.175690 66.074837 291.219727 322.175690 66.020287 291.129517 317.184906 59.946976 292.104950 317.073303 59.978683 292.136658 316.820435 60.120296 292.278259 316.056549 60.713913 291.872894 316.147919 60.683323 292.258057 316.187378 60.633606 292.302094 316.223297 60.777760 292.446259 318.783813 62.793015 294.166077 318.328827 62.618427 293.991486 318.342285 62.551193 294.027130 322.166565 62.707100 294.751007 322.165924 62.733704 294.759216 321.229980 62.676216 294.708099 322.163788 62.828590 294.780426 322.163147 62.860516 294.784882 321.214264 62.826958 294.737488 321.190369 63.131634 294.706360 321.195221 63.056904 294.725403 322.158630 63.120998 294.772278 322.164429 62.799618 294.775269 321.221863 62.750835 294.726471 321.238556 62.603848 294.682434 322.169006 62.611202 294.712250 321.256653 62.468513 294.610382 322.172241 62.499203 294.646301 322.169525 62.591862 294.702576 321.266022 62.406818 294.564789 321.207245 62.903835 294.740997 321.200867 62.980732 294.737000 320.245300 62.858631 294.614899 320.369965 62.292442 294.450409 319.498871 62.100311 294.258270 318.379791 62.410858 294.079346 319.288391 62.725380 294.393860 318.809723 62.654606 294.229340 319.273926 62.798389 294.373108 319.261871 62.869545 294.345490 318.677643 61.816231 293.974213 317.595917 61.222343 293.380310 317.935394 61.436844 293.594818 318.295471 61.636829 293.794800 320.257477 62.782490 294.619659 319.305145 62.651203 294.407471 319.324066 62.576553 294.413727 318.403503 62.339104 294.095367 318.430298 62.267193 294.104370 317.982849 62.141655 293.897919 318.013367 62.071510 293.908691 317.593048 61.925201 293.681458 317.626465 61.856663 293.693848 317.230560 61.696175 293.452454 317.266235 61.629055 293.466217 316.883240 61.447857 293.204132 316.921600 61.382645 293.219818 316.545288 61.148346 292.904602 316.588409 61.087433 292.924622 316.390350 60.959606 292.715881 316.436981 60.903034 292.740204 316.322815 60.849560 292.605835 316.371399 60.796135 292.633301 316.267914 60.725975 292.482239 316.318268 60.676605 292.513794 316.233154 60.586430 292.342712 316.284790 60.542267 292.379456 316.249451 60.264729 291.933228 316.212372 60.301628 291.876343 316.248810 60.242199 291.816925 317.275818 60.993542 293.151520 316.986725 60.738033 292.895996 316.867859 60.593727 292.751709 316.820099 60.515919 292.673889 316.783569 60.433838 292.591797 316.761902 60.347603 292.505585 316.760406 60.257702 292.415680 316.770050 60.211647 292.369629 316.789154 60.165314 292.323273 316.803192 60.142437 292.300415 316.840668 60.099480 292.257446 316.863190 60.080418 292.238403 316.912384 60.047699 292.205658 316.964600 60.020790 292.178772 317.018433 59.998138 292.156097 316.284454 60.207649 291.876129 316.295227 60.182701 291.757446 316.328979 60.150558 291.819061 316.349487 60.126797 291.701538 316.381073 60.096909 291.765411 316.407532 60.077671 291.652405 316.436829 60.049717 291.718201 316.521667 60.001465 291.576202 316.546783 59.976303 291.644806 316.626953 59.947052 291.521790 316.648651 59.923656 291.592163 316.723724 59.906303 291.481018 316.742676 59.884071 291.552551 316.814117 59.874199 291.448944 316.830780 59.852783 291.521271 316.981262 59.826618 291.401337 316.994354 59.806221 291.474701 317.009521 59.793034 291.549316 317.045563 59.788807 291.699341 320.270905 62.706440 294.616974 320.285461 62.631222 294.606873 319.344940 62.502155 294.412659 319.367584 62.428722 294.404358 318.459839 62.195816 294.106323 318.491852 62.125652 294.101288 318.047089 62.002075 293.912598 318.083588 61.934021 293.909668 317.663391 61.789005 293.699524 317.703369 61.722874 293.698517 317.305603 61.562962 293.473480 317.348267 61.498528 293.474152 316.963898 61.318653 293.229156 317.009735 61.256496 293.232147 316.635986 61.028187 292.938690 316.687531 60.971169 292.946808 316.488464 60.848576 292.759094 316.544220 60.796745 292.772369 316.425018 60.745152 292.655670 316.483063 60.697086 292.672729 316.373871 60.630093 292.540619 316.434082 60.586876 292.562500 316.341797 60.501503 292.412018 316.403534 60.464508 292.440155 316.339630 60.355556 292.266083 316.401459 60.326801 292.302429 316.356995 60.273209 292.183716 316.417694 60.249783 292.225433 316.394501 60.182774 292.093292 316.452484 60.165829 292.141479 316.423859 60.134884 292.045410 316.479614 60.121616 292.097260 316.461060 60.087185 291.997711 316.513885 60.077675 292.053314 316.504578 60.042358 291.952881 316.553986 60.036377 292.012024 316.551422 60.002728 291.913239 316.597229 59.999767 291.975403 316.645050 59.940250 291.850769 316.684326 59.941662 291.917297 316.733582 59.894520 291.805054 316.767517 59.898701 291.874329 316.816772 59.859486 291.770020 316.846405 59.865486 291.841125 316.895966 59.831379 291.741882 316.922028 59.838650 291.814301 317.066040 59.797676 291.773315 320.301025 62.557568 294.589447 320.317383 62.486210 294.564789 319.391724 62.356976 294.388855 319.417175 62.287628 294.366211 318.526001 62.057396 294.089264 318.562042 61.991734 294.070312 318.122528 61.868015 293.899872 318.163605 61.804722 293.883301 317.746033 61.658920 293.690796 317.791016 61.597790 293.676361 317.393829 61.436382 293.468262 317.441833 61.377163 293.455750 317.058685 61.196785 293.228668 317.110260 61.140129 293.218719 316.742554 60.916943 292.948822 316.800568 60.866066 292.944641 316.603729 60.748058 292.779938 316.666473 60.703022 292.781586 316.545044 60.652416 292.684296 316.610382 60.611618 292.690186 316.498352 60.547379 292.579254 316.566101 60.512032 292.590607 316.469421 60.431660 292.463531 316.538910 60.403316 292.481903 316.467468 60.302742 292.334625 316.537048 60.283669 292.362244 316.482483 60.231419 292.263306 316.550812 60.218346 292.296936 316.514404 60.154385 292.186249 316.579681 60.148605 292.227173 316.539124 60.114094 292.145966 316.601837 60.112453 292.191040 316.570251 60.074162 292.106049 316.629700 60.076748 292.155334 316.606689 60.036629 292.068512 316.662292 60.043182 292.121765 316.646149 60.003246 292.035126 316.697693 60.013203 292.091797 316.726288 59.949810 291.981689 316.770477 59.964687 292.043274 316.803772 59.909801 291.941681 316.841980 59.927792 292.006378 316.878052 59.878529 291.910400 316.911407 59.898567 291.977142 316.949860 59.853050 291.884918 316.979187 59.874519 291.953094 317.087891 59.813782 291.845642 317.110962 59.837048 291.915619 322.155457 63.467365 294.599243 321.179413 63.402134 294.561127 322.155518 63.452656 294.611633 322.157806 63.181705 294.756439 322.157593 63.199295 294.750854 321.186310 63.204220 294.680145 322.157074 63.244480 294.734436 322.156281 63.324329 294.697388 322.161346 62.953220 294.790405 322.160675 62.991306 294.789490 322.159271 63.077827 294.780487 320.234528 62.934132 294.602631 320.225220 63.008286 294.583008 320.217468 63.080391 294.556335 321.183105 63.273960 294.647034 322.155975 63.361927 294.675995 320.204285 63.277489 294.436493 319.241394 63.065025 294.224030 319.245514 63.003529 294.270630 320.211334 63.149754 294.522827 321.180817 63.340145 294.607239 322.155640 63.420784 294.636475 318.775604 62.857960 294.125061 316.184784 60.831459 292.406189 316.279785 60.904938 292.573425 316.242676 60.961731 292.536469 316.349030 61.017776 292.686279 316.313385 61.076977 292.651703 316.507080 61.210361 292.878845 316.474121 61.272877 292.847595 316.849274 61.513676 293.182159 316.819977 61.579479 293.154205 317.198944 61.763683 293.432190 317.171661 61.830944 293.405670 317.563416 61.993969 293.662476 317.537842 62.062313 293.637054 317.955780 62.211845 293.880341 317.932465 62.281422 293.856140 318.359314 62.481777 294.056519 318.795258 62.725006 294.200928 319.252380 62.938156 294.311218 320.206940 63.215668 294.482758 318.770630 62.919197 294.078186 318.313293 62.743710 293.902710 317.879974 62.540321 293.699310 317.480377 62.318451 293.477448 318.319122 62.682808 293.949890 317.886627 62.479805 293.746887 317.487671 62.258286 293.525360 317.118103 62.024784 293.291870 317.897675 62.416061 293.789124 317.499756 62.195122 293.568207 317.131012 61.962135 293.335205 316.776306 61.708504 293.081573 317.110321 62.084641 293.243622 316.754059 61.829903 292.988892 316.762421 61.770458 293.037537 316.576508 61.683876 292.842865 316.400024 61.515911 292.674896 316.233215 61.312553 292.471527 316.585297 61.624798 292.891876 316.409424 61.457409 292.724487 316.243378 61.254993 292.522095 316.169769 61.135021 292.402100 316.425049 61.397007 292.770081 316.260254 61.196163 292.569244 316.187347 61.077332 292.450409 316.127441 60.942440 292.315521 316.098236 61.054653 292.213654 317.913025 62.349712 293.825653 317.516571 62.129581 293.605530 317.148956 61.897308 293.373260 316.795563 61.644630 293.120575 316.446686 61.335297 292.811218 316.283691 61.136631 292.612579 316.211761 61.019382 292.495331 316.152740 60.886528 292.362457 316.115051 60.735081 292.211029 316.282562 60.388718 292.225891 316.226562 60.509426 292.265686 316.051636 60.809879 291.968872 316.159180 61.191895 292.350891 316.109192 60.998661 292.265747 316.089111 60.788376 292.161438 316.107819 60.650826 292.126770 316.140869 60.601086 292.175812 316.180542 60.553791 292.222290 316.230804 60.425991 292.182251 316.250183 60.334255 292.090515 316.300964 60.301445 292.138611 316.292419 60.232414 291.988678 316.340942 60.205029 292.042206 316.325775 60.178059 291.934326 316.372406 60.153748 291.990936 316.368134 60.123749 291.880035 316.412292 60.102581 291.939758 316.417694 60.072716 291.828979 316.458984 60.054497 291.891663 316.470795 60.027763 291.784027 316.509125 60.012077 291.849243 316.575928 59.957592 291.713867 316.608795 59.945560 291.782745 316.673828 59.906998 291.663269 316.702240 59.897282 291.734467 316.764618 59.868759 291.625031 316.789429 59.860565 291.697754 316.850098 59.838413 291.594696 316.871887 59.831284 291.668457 317.026672 59.787239 291.624420 316.079102 60.607147 291.766144 316.090179 60.554764 291.821838 316.059143 60.897568 292.056549 316.070404 60.842709 292.109802 316.062927 60.755714 292.022797 316.081726 60.702530 292.075592 316.086548 60.608723 291.981781 316.112518 60.558887 292.034821 316.134064 60.456947 291.932892 316.145447 60.511513 292.086243 316.166382 60.412415 291.987152 316.184998 60.467064 292.135559 316.205200 60.371372 292.039856 316.099701 60.548904 291.707886 316.128967 60.487041 291.646027 316.168671 60.422329 291.581329 316.067810 60.660557 291.927643 316.108551 60.504539 291.877625 316.153687 60.401493 291.877441 316.219269 60.357433 291.516418 316.278503 60.296459 291.455444 316.341644 60.242989 291.401978 316.110565 60.497082 291.764160 316.139526 60.435837 291.702942 316.178833 60.371796 291.638885 316.228912 60.307583 291.574677 316.287476 60.247250 291.514343 316.350006 60.194328 291.461426 316.472351 60.112629 291.379730 316.951813 59.974926 291.133911 316.776642 60.024807 291.183807 316.681122 60.058735 291.217712 316.578156 60.102104 291.261078 316.465179 60.160492 291.319489 316.404419 60.198025 291.357025 316.584320 60.054745 291.321838 316.686523 60.011711 291.278809 316.781372 59.978012 291.245087 316.955536 59.928425 291.195526 316.961761 59.887985 291.261047 316.789276 59.937088 291.310150 316.695496 59.970398 291.343475 316.594604 60.012882 291.385956 316.484253 60.069931 291.442993 316.363892 60.150307 291.523376 316.302460 60.202309 291.575378 316.244904 60.261578 291.634644 316.195709 60.324650 291.697723 316.157104 60.387581 291.760651 316.128632 60.447792 291.820862 316.970367 59.853962 291.329895 316.800232 59.902393 291.378326 316.707947 59.935169 291.411102 316.608887 59.976891 291.452820 316.500763 60.032776 291.508698 316.383148 60.111309 291.587250 316.323212 60.162045 291.637970 316.267090 60.219830 291.695770 316.219147 60.281322 291.757263 316.181488 60.342709 291.818634 320.352051 62.353027 294.494904 319.471008 62.158695 294.300568 318.638214 61.870586 294.012451 318.250488 61.688591 293.830444 317.886169 61.486237 293.628113 317.543365 61.269650 293.411530 317.219360 61.038040 293.179901 316.923248 60.776203 292.918060 316.799194 60.625507 292.767365 316.748596 60.543064 292.684937 316.709412 60.455017 292.596893 316.685883 60.361115 292.502991 316.684265 60.261070 292.402924 316.695282 60.208447 292.350311 316.717743 60.154133 292.295990 316.734528 60.126728 292.268585 316.755402 60.099964 292.241821 316.779846 60.074799 292.216675 316.806763 60.052017 292.193878 316.864014 60.013908 292.155792 316.922791 59.983593 292.125458 316.981934 59.958706 292.100586 317.041229 59.937683 292.079559 317.159698 59.904007 292.045868 321.247467 62.534401 294.649719 320.334442 62.417824 294.533142 319.443695 62.221333 294.336670 318.599548 61.929276 294.044586 318.206421 61.744732 293.860046 317.837891 61.540058 293.655396 317.491852 61.321419 293.436737 317.164001 61.087059 293.202393 316.860992 60.819016 292.934357 316.731873 60.662056 292.777374 316.678467 60.575066 292.690399 316.636688 60.481163 292.596497 316.611298 60.379742 292.495056 316.609558 60.269753 292.385071 316.621979 60.210682 292.326019 316.647675 60.148540 292.263855 316.667206 60.116699 292.232025 316.691620 60.085396 292.200714 316.720184 60.055969 292.171295 316.751434 60.029537 292.144867 316.816559 59.986149 292.101471 316.881775 59.952492 292.067810 316.946136 59.925404 292.040741 317.009735 59.902843 292.018158 317.134949 59.867241 291.982574 322.165558 65.932014 292.137878 322.165558 63.510036 294.559875 322.175690 62.591885 294.702698 322.175690 62.501671 294.648132 322.175690 62.620537 294.716766 322.175690 62.707180 294.751099 322.175690 62.749512 294.763702 322.175690 62.828682 294.780609 322.175690 62.884678 294.787537 322.175690 62.953327 294.790558 322.175690 63.021935 294.787537 322.175690 63.077972 294.780609 322.175690 63.157101 294.763702 322.175690 63.199474 294.751068 322.175690 63.286076 294.716766 322.175690 63.314766 294.702667 322.175690 63.404942 294.648132 322.175690 63.420944 294.636627 334.013275 59.480671 289.416962 334.013275 60.789097 288.108521 334.013275 59.784958 287.104401 334.013275 59.174171 287.802032 334.013275 58.476532 288.412811 "
							            />
						</IndexedFaceSet>
					</Shape>
				</Group>
			</Transform>
		</Transform>
	</Scene>
</X3D>