<?xml version="1.0" encoding="UTF-8"?>
<!DOCTYPE X3D PUBLIC "ISO//Web3D//DTD X3D 3.0//EN" "http://www.web3d.org/specifications/x3d-3.0.dtd">
<X3D version="3.0" profile="Immersive" xmlns:xsd="http://www.w3.org/2001/XMLSchema-instance" xsd:noNamespaceSchemaLocation="http://www.web3d.org/specifications/x3d-3.0.xsd">
	<head>
		<meta name="filename" content="OMLV4_Packing - For Xander - Main Landing Gear-1.x3d" />
		<meta name="created" content="2026-04-19 20:21:18" />
		<meta name="generator" content="Blender 4.3.2" />
		<meta name="translator" content="Web3D X3D/VRML2 format v2.5.1" />
	</head>
	<Scene>
		<NavigationInfo headlight="true"
		                visibilityLimit="0.0"
		                type='"EXAMINE", "ANY"'
		                avatarSize="0.25, 1.75, 0.75"
		                />
		<Background DEF="WO_World"
		            groundColor="0.051 0.051 0.051"
		            skyColor="0.051 0.051 0.051"
		            />
		<Transform DEF="OMLV4_Packing_-_For_Xander_-_Main_Landing_Gear-1_TRANSFORM"
		           translation="0.000000 0.000000 0.000000"
		           scale="1.000000 1.000000 1.000000"
		           rotation="-1.000000 0.000000 0.000000 1.570796"
		           >
			<Transform DEF="OMLV4_Packing_-_For_Xander_-_Main_Landing_Gear-1_ifs_TRANSFORM"
			           translation="0.000000 0.000000 0.000000"
			           scale="1.000000 1.000000 1.000000"
			           rotation="0.000000 1.000000 0.000000 0.000000"
			           >
				<Group DEF="group_ME_OMLV4_Packing_-_For_Xander_-_Main_Landing_Gear-1">
					<Shape>
						<Appearance>
						</Appearance>
						<IndexedFaceSet solid="false"
						                coordIndex="0 1 2 -1 2 1 3 -1 4 5 6 -1 6 5 7 -1 8 9 10 -1 10 9 11 -1 12 13 14 -1 14 13 15 -1 4 13 5 -1 5 13 12 -1 16 17 12 -1 18 19 20 -1 12 1 5 -1 5 1 0 -1 5 0 21 -1 4 10 13 -1 13 10 11 -1 13 11 22 -1 22 23 13 -1 13 23 24 -1 13 24 25 -1 25 26 13 -1 13 26 27 -1 13 27 28 -1 28 27 29 -1 17 30 12 -1 12 30 31 -1 12 31 1 -1 32 33 4 -1 4 33 34 -1 4 34 10 -1 18 20 12 -1 12 20 35 -1 12 35 16 -1 0 36 37 -1 38 39 0 -1 0 39 40 -1 0 40 36 -1 37 41 0 -1 0 41 42 -1 0 42 21 -1 43 44 45 -1 45 44 46 -1 45 46 4 -1 4 46 47 -1 4 47 32 -1 15 6 14 -1 14 6 7 -1 48 49 2 -1 15 50 9 -1 9 50 51 -1 51 52 9 -1 9 52 53 -1 9 53 54 -1 15 9 6 -1 6 9 8 -1 6 8 55 -1 54 56 9 -1 9 56 57 -1 9 57 58 -1 55 59 6 -1 6 59 60 -1 6 60 61 -1 49 62 2 -1 2 62 63 -1 2 63 64 -1 64 65 2 -1 2 65 66 -1 2 66 67 -1 68 69 3 -1 3 69 14 -1 3 14 2 -1 2 14 7 -1 2 7 48 -1 61 70 6 -1 6 70 71 -1 6 71 72 -1 72 71 73 -1 74 75 76 -1 76 75 77 -1 68 78 69 -1 69 78 75 -1 69 75 79 -1 79 75 74 -1 4 6 72 -1 4 72 45 -1 45 72 73 -1 45 73 43 -1 43 73 71 -1 43 71 44 -1 44 71 70 -1 44 70 46 -1 46 70 61 -1 46 61 47 -1 47 61 60 -1 47 60 32 -1 32 60 59 -1 32 59 33 -1 33 59 55 -1 33 55 34 -1 34 55 8 -1 34 8 10 -1 0 2 67 -1 0 67 38 -1 38 67 66 -1 38 66 39 -1 39 66 65 -1 39 65 40 -1 40 65 64 -1 40 64 36 -1 36 64 63 -1 36 63 37 -1 37 63 62 -1 37 62 41 -1 41 62 49 -1 41 49 42 -1 42 49 48 -1 42 48 21 -1 21 48 7 -1 21 7 5 -1 12 14 69 -1 12 69 18 -1 18 69 79 -1 18 79 19 -1 19 79 74 -1 19 74 20 -1 20 74 76 -1 20 76 35 -1 35 76 77 -1 35 77 16 -1 16 77 75 -1 16 75 17 -1 17 75 78 -1 17 78 30 -1 30 78 68 -1 30 68 31 -1 31 68 3 -1 31 3 1 -1 11 9 58 -1 11 58 22 -1 22 58 57 -1 22 57 23 -1 23 57 56 -1 23 56 24 -1 24 56 54 -1 24 54 25 -1 25 54 53 -1 25 53 26 -1 26 53 52 -1 26 52 27 -1 27 52 51 -1 27 51 29 -1 29 51 50 -1 29 50 28 -1 28 50 15 -1 28 15 13 -1 "
						                >
							<Coordinate DEF="coords_ME_OMLV4_Packing_-_For_Xander_-_Main_Landing_Gear-1"
							            point="550.396423 70.823219 425.606720 550.396423 96.823212 425.606720 478.396393 70.823219 425.606720 478.396393 96.823212 425.606720 550.396423 67.823219 413.606720 550.396423 67.823219 422.606720 478.396393 67.823219 413.606720 478.396393 67.823219 422.606720 478.396393 70.823219 410.606720 478.396393 96.823212 410.606720 550.396423 70.823219 410.606720 550.396423 96.823212 410.606720 550.396423 99.823219 422.606720 550.396423 99.823219 413.606720 478.396393 99.823219 422.606720 478.396393 99.823219 413.606720 550.396423 98.751579 424.904877 550.396423 98.323212 425.204803 550.396423 99.777641 423.127686 550.396423 99.642296 423.632782 550.396423 99.421295 424.106720 550.396423 67.868790 423.127686 550.396423 97.344162 410.652313 550.396423 97.849274 410.787659 550.396423 98.323212 411.008667 550.396423 98.751579 411.308594 550.396423 99.121346 411.678375 550.396423 99.421295 412.106720 550.396423 99.777641 413.085785 550.396423 99.642296 412.580658 550.396423 97.849274 425.425812 550.396423 97.344162 425.561157 550.396423 69.323219 411.008667 550.396423 69.797157 410.787659 550.396423 70.302269 410.652313 550.396423 99.121346 424.535095 550.396423 68.894852 424.904877 550.396423 68.525085 424.535095 550.396423 70.302269 425.561157 550.396423 69.797157 425.425812 550.396423 69.323219 425.204803 550.396423 68.225136 424.106720 550.396423 68.004135 423.632782 550.396423 68.004135 412.580658 550.396423 68.225136 412.106720 550.396423 67.868790 413.085785 550.396423 68.525085 411.678375 550.396423 68.894852 411.308594 478.396393 67.868790 423.127686 478.396393 68.004135 423.632782 478.396393 99.777641 413.085785 478.396393 99.642296 412.580658 478.396393 99.421295 412.106720 478.396393 99.121346 411.678375 478.396393 98.751579 411.308594 478.396393 70.302269 410.652313 478.396393 98.323212 411.008667 478.396393 97.849274 410.787659 478.396393 97.344162 410.652313 478.396393 69.797157 410.787659 478.396393 69.323219 411.008667 478.396393 68.894852 411.308594 478.396393 68.225136 424.106720 478.396393 68.525085 424.535095 478.396393 68.894852 424.904877 478.396393 69.323219 425.204803 478.396393 69.797157 425.425812 478.396393 70.302269 425.561157 478.396393 97.344162 425.561157 478.396393 99.777641 423.127686 478.396393 68.525085 411.678375 478.396393 68.225136 412.106720 478.396393 67.868790 413.085785 478.396393 68.004135 412.580658 478.396393 99.421295 424.106720 478.396393 98.323212 425.204803 478.396393 99.121346 424.535095 478.396393 98.751579 424.904877 478.396393 97.849274 425.425812 478.396393 99.642296 423.632782 "
							            />
						</IndexedFaceSet>
					</Shape>
				</Group>
			</Transform>
		</Transform>
	</Scene>
</X3D>