<?xml version="1.0" encoding="UTF-8"?>
<!DOCTYPE X3D PUBLIC "ISO//Web3D//DTD X3D 3.0//EN" "http://www.web3d.org/specifications/x3d-3.0.dtd">
<X3D version="3.0" profile="Immersive" xmlns:xsd="http://www.w3.org/2001/XMLSchema-instance" xsd:noNamespaceSchemaLocation="http://www.web3d.org/specifications/x3d-3.0.xsd">
	<head>
		<meta name="filename" content="OMLV4_Packing - For Xander - EOTS-1.x3d" />
		<meta name="created" content="2026-04-19 20:21:16" />
		<meta name="generator" content="Blender 4.3.2" />
		<meta name="translator" content="Web3D X3D/VRML2 format v2.5.1" />
	</head>
	<Scene>
		<NavigationInfo headlight="true"
		                visibilityLimit="0.0"
		                type='"EXAMINE", "ANY"'
		                avatarSize="0.25, 1.75, 0.75"
		                />
		<Background DEF="WO_World"
		            groundColor="0.051 0.051 0.051"
		            skyColor="0.051 0.051 0.051"
		            />
		<Transform DEF="OMLV4_Packing_-_For_Xander_-_EOTS-1_TRANSFORM"
		           translation="0.000000 0.000000 0.000000"
		           scale="1.000000 1.000000 1.000000"
		           rotation="-1.000000 0.000000 0.000000 1.570796"
		           >
			<Transform DEF="OMLV4_Packing_-_For_Xander_-_EOTS-1_ifs_TRANSFORM"
			           translation="0.000000 0.000000 0.000000"
			           scale="1.000000 1.000000 1.000000"
			           rotation="0.000000 1.000000 0.000000 0.000000"
			           >
				<Group DEF="group_ME_OMLV4_Packing_-_For_Xander_-_EOTS-1">
					<Shape>
						<Appearance>
						</Appearance>
						<IndexedFaceSet solid="false"
						                coordIndex="0 1 2 -1 2 1 3 -1 2 3 4 -1 5 6 7 -1 7 6 2 -1 7 2 8 -1 8 2 4 -1 9 5 7 -1 9 7 10 -1 10 7 8 -1 10 8 11 -1 11 8 4 -1 11 4 12 -1 12 4 13 -1 13 4 3 -1 13 3 14 -1 14 3 1 -1 14 1 15 -1 15 1 16 -1 16 1 0 -1 16 0 17 -1 18 2 19 -1 19 2 6 -1 20 21 22 -1 22 23 20 -1 20 23 24 -1 20 24 25 -1 25 26 20 -1 20 26 27 -1 20 27 28 -1 15 27 26 -1 27 15 28 -1 28 15 16 -1 28 16 17 -1 12 13 26 -1 26 13 14 -1 26 14 15 -1 26 25 12 -1 12 25 24 -1 12 24 11 -1 11 24 23 -1 11 23 10 -1 10 23 22 -1 10 22 9 -1 20 18 21 -1 21 18 19 -1 21 19 22 -1 22 19 6 -1 22 6 9 -1 9 6 5 -1 29 30 20 -1 20 30 18 -1 31 29 28 -1 28 29 20 -1 32 31 17 -1 17 31 28 -1 33 32 0 -1 0 32 17 -1 34 33 2 -1 2 33 0 -1 30 34 18 -1 18 34 2 -1 31 32 33 -1 29 31 30 -1 30 31 33 -1 30 33 34 -1 "
						                >
							<Coordinate DEF="coords_ME_OMLV4_Packing_-_For_Xander_-_EOTS-1"
							            point="88.821533 67.161736 371.448517 89.060280 66.517624 371.090576 101.183678 65.473137 370.683105 89.299019 65.873505 370.732635 89.776512 64.585281 370.016724 90.720100 62.039555 368.602020 90.803116 62.028214 368.596863 90.492752 62.652935 368.942902 90.254005 63.297050 369.300842 75.009834 64.185486 361.888336 73.817169 64.990013 361.888336 72.759491 65.735161 361.888336 70.941002 67.061684 361.888336 70.366325 67.484932 361.888336 69.150558 68.371887 361.888336 67.979698 69.201424 361.888336 66.829163 69.981903 361.888336 66.475349 70.214096 361.888336 105.786392 64.844437 361.888336 94.314011 61.548649 361.888336 101.183678 65.473137 353.093567 90.803116 62.028214 355.179810 90.720100 62.039555 355.174683 90.492752 62.652935 354.833801 90.254005 63.297050 354.475861 89.776512 64.585281 353.759949 89.299019 65.873505 353.044067 89.060280 66.517624 352.686127 88.821533 67.161736 352.328156 101.217514 65.720840 353.093567 105.820229 65.092133 361.888336 88.855362 67.409439 352.328156 66.509178 70.461800 361.888336 88.855362 67.409439 371.448517 101.217514 65.720840 370.683105 "
							            />
						</IndexedFaceSet>
					</Shape>
				</Group>
			</Transform>
		</Transform>
	</Scene>
</X3D>