<?xml version="1.0" encoding="UTF-8"?>
<!DOCTYPE X3D PUBLIC "ISO//Web3D//DTD X3D 3.0//EN" "http://www.web3d.org/specifications/x3d-3.0.dtd">
<X3D version="3.0" profile="Immersive" xmlns:xsd="http://www.w3.org/2001/XMLSchema-instance" xsd:noNamespaceSchemaLocation="http://www.web3d.org/specifications/x3d-3.0.xsd">
	<head>
		<meta name="filename" content="OMLV4_Packing - For Xander - Hydraulic Actuator-1.x3d" />
		<meta name="created" content="2026-04-19 20:21:17" />
		<meta name="generator" content="Blender 4.3.2" />
		<meta name="translator" content="Web3D X3D/VRML2 format v2.5.1" />
	</head>
	<Scene>
		<NavigationInfo headlight="true"
		                visibilityLimit="0.0"
		                type='"EXAMINE", "ANY"'
		                avatarSize="0.25, 1.75, 0.75"
		                />
		<Background DEF="WO_World"
		            groundColor="0.051 0.051 0.051"
		            skyColor="0.051 0.051 0.051"
		            />
		<Transform DEF="OMLV4_Packing_-_For_Xander_-_Hydraulic_Actuator-1_TRANSFORM"
		           translation="0.000000 0.000000 0.000000"
		           scale="1.000000 1.000000 1.000000"
		           rotation="-1.000000 0.000000 0.000000 1.570796"
		           >
			<Transform DEF="OMLV4_Packing_-_For_Xander_-_Hydraulic_Actuator-1_ifs_TRANSFORM"
			           translation="0.000000 0.000000 0.000000"
			           scale="1.000000 1.000000 1.000000"
			           rotation="0.000000 1.000000 0.000000 0.000000"
			           >
				<Group DEF="group_ME_OMLV4_Packing_-_For_Xander_-_Hydraulic_Actuator-1">
					<Shape>
						<Appearance>
						</Appearance>
						<IndexedFaceSet solid="false"
						                coordIndex="0 1 2 -1 2 1 3 -1 2 3 4 -1 4 3 5 -1 4 5 6 -1 6 5 7 -1 6 7 8 -1 8 7 9 -1 8 9 10 -1 10 9 11 -1 10 11 12 -1 12 11 13 -1 12 13 14 -1 14 13 15 -1 14 15 16 -1 16 15 17 -1 16 17 18 -1 18 17 19 -1 18 19 20 -1 20 19 21 -1 20 21 22 -1 22 21 23 -1 22 23 24 -1 24 23 25 -1 24 25 26 -1 26 25 27 -1 26 27 28 -1 28 27 29 -1 28 29 30 -1 30 29 31 -1 30 31 32 -1 32 31 33 -1 32 33 34 -1 34 33 35 -1 34 35 36 -1 36 35 37 -1 36 37 38 -1 38 37 39 -1 38 39 40 -1 40 39 41 -1 40 41 42 -1 42 41 43 -1 42 43 44 -1 44 43 45 -1 44 45 46 -1 46 45 47 -1 46 47 48 -1 48 47 49 -1 48 49 50 -1 50 49 51 -1 50 51 52 -1 52 51 53 -1 52 53 54 -1 54 53 55 -1 54 55 56 -1 56 55 57 -1 56 57 58 -1 58 57 59 -1 58 59 60 -1 60 59 61 -1 60 61 62 -1 62 61 63 -1 62 63 64 -1 64 63 65 -1 64 65 66 -1 66 65 67 -1 66 67 68 -1 68 67 69 -1 68 69 70 -1 70 69 71 -1 70 71 0 -1 0 71 1 -1 39 37 72 -1 72 37 35 -1 72 35 33 -1 45 43 72 -1 72 43 41 -1 72 41 39 -1 51 49 72 -1 72 49 47 -1 72 47 45 -1 57 55 72 -1 72 55 53 -1 72 53 51 -1 63 61 72 -1 72 61 59 -1 72 59 57 -1 69 67 72 -1 72 67 65 -1 72 65 63 -1 3 1 72 -1 72 1 71 -1 72 71 69 -1 9 7 72 -1 72 7 5 -1 72 5 3 -1 15 13 72 -1 72 13 11 -1 72 11 9 -1 21 19 72 -1 72 19 17 -1 72 17 15 -1 27 25 72 -1 72 25 23 -1 72 23 21 -1 33 31 72 -1 72 31 29 -1 72 29 27 -1 32 34 73 -1 73 34 36 -1 73 36 38 -1 26 28 73 -1 73 28 30 -1 73 30 32 -1 20 22 73 -1 73 22 24 -1 73 24 26 -1 14 16 73 -1 73 16 18 -1 73 18 20 -1 8 10 73 -1 73 10 12 -1 73 12 14 -1 2 4 73 -1 73 4 6 -1 73 6 8 -1 68 70 73 -1 73 70 0 -1 73 0 2 -1 62 64 73 -1 73 64 66 -1 73 66 68 -1 56 58 73 -1 73 58 60 -1 73 60 62 -1 50 52 73 -1 73 52 54 -1 73 54 56 -1 44 46 73 -1 73 46 48 -1 73 48 50 -1 38 40 73 -1 73 40 42 -1 73 42 44 -1 "
						                >
							<Coordinate DEF="coords_ME_OMLV4_Packing_-_For_Xander_-_Hydraulic_Actuator-1"
							            point="321.057617 87.550301 517.014893 315.463898 87.710632 506.396393 321.278412 87.619705 516.893188 315.670929 87.822754 506.282684 321.485443 87.731827 516.779480 315.857941 87.974190 506.180420 321.672455 87.883255 516.677246 316.019226 88.160332 506.092682 321.833740 88.069405 516.589478 316.149933 88.375534 506.022156 321.964447 88.284607 516.518982 316.246033 88.613251 505.970978 322.060547 88.522316 516.467773 316.304626 88.866257 505.940704 322.119141 88.775330 516.437500 316.323975 89.126869 505.932251 322.138489 89.035942 516.429077 316.303436 89.387177 505.945862 322.117920 89.296249 516.442688 316.243622 89.639252 505.981171 322.058136 89.548325 516.477966 316.146423 89.875450 506.037079 321.960938 89.784523 516.533875 316.014740 90.088593 506.111877 321.829254 89.997665 516.608704 315.852570 90.272202 506.203278 321.667084 90.181274 516.700073 315.664856 90.420692 506.308533 321.479370 90.329765 516.805359 315.457306 90.529564 506.424469 321.271820 90.438637 516.921265 315.236237 90.595497 506.547485 321.050720 90.504570 517.044312 315.008331 90.616493 506.673920 320.822815 90.525566 517.170715 314.780518 90.591919 506.799896 320.595032 90.500992 517.296692 314.559753 90.522514 506.921600 320.374268 90.431587 517.418396 314.352722 90.410393 507.035309 320.167236 90.319466 517.532104 314.165710 90.258965 507.137573 319.980225 90.168037 517.634399 314.004395 90.072815 507.225311 319.818909 89.981888 517.722107 313.873718 89.857620 507.295837 319.688232 89.766685 517.792664 313.777618 89.619904 507.347015 319.592133 89.528976 517.843811 313.718994 89.366890 507.377289 319.533508 89.275963 517.874084 313.699677 89.106277 507.385742 319.514191 89.015350 517.882568 313.720215 88.845978 507.372101 319.534729 88.755043 517.868896 313.779999 88.593895 507.336792 319.594513 88.502968 517.833618 313.877228 88.357697 507.280914 319.691742 88.266769 517.777710 314.008911 88.144554 507.206116 319.823425 88.053627 517.702942 314.171082 87.960953 507.114685 319.985596 87.870018 517.611511 314.358765 87.812454 507.009430 320.173279 87.721527 517.506226 314.566315 87.703590 506.893524 320.380829 87.612656 517.390320 314.787415 87.637650 506.770477 320.601929 87.546722 517.267273 315.015320 87.616653 506.644073 320.829834 87.525726 517.140869 315.243103 87.641228 506.518097 315.011810 89.116577 506.658997 320.826324 89.025642 517.155823 "
							            />
						</IndexedFaceSet>
					</Shape>
				</Group>
			</Transform>
		</Transform>
	</Scene>
</X3D>