<?xml version="1.0" encoding="UTF-8"?>
<!DOCTYPE X3D PUBLIC "ISO//Web3D//DTD X3D 3.0//EN" "http://www.web3d.org/specifications/x3d-3.0.dtd">
<X3D version="3.0" profile="Immersive" xmlns:xsd="http://www.w3.org/2001/XMLSchema-instance" xsd:noNamespaceSchemaLocation="http://www.web3d.org/specifications/x3d-3.0.xsd">
	<head>
		<meta name="filename" content="OMLV4_Packing - For Xander - AIM-120_LAU176_Pylon_Assy-5 LAU179_Pylon_LinkBroken-1.x3d" />
		<meta name="created" content="2026-04-19 20:21:16" />
		<meta name="generator" content="Blender 4.3.2" />
		<meta name="translator" content="Web3D X3D/VRML2 format v2.5.1" />
	</head>
	<Scene>
		<NavigationInfo headlight="true"
		                visibilityLimit="0.0"
		                type='"EXAMINE", "ANY"'
		                avatarSize="0.25, 1.75, 0.75"
		                />
		<Background DEF="WO_World"
		            groundColor="0.051 0.051 0.051"
		            skyColor="0.051 0.051 0.051"
		            />
		<Transform DEF="OMLV4_Packing_-_For_Xander_-_AIM-120_LAU176_Pylon_Assy-5_LAU179_TRANSFORM"
		           translation="0.000000 0.000000 0.000000"
		           scale="1.000000 1.000000 1.000000"
		           rotation="-1.000000 0.000000 0.000000 1.570796"
		           >
			<Transform DEF="OMLV4_Packing_-_For_Xander_-_AIM-120_LAU176_Pylon_Assy-5_LAU179_ifs_TRANSFORM"
			           translation="0.000000 0.000000 0.000000"
			           scale="1.000000 1.000000 1.000000"
			           rotation="0.000000 1.000000 0.000000 0.000000"
			           >
				<Group DEF="group_ME_OMLV4_Packing_-_For_Xander_-_AIM-120_LAU176_Pylon_Assy-5_LAU179">
					<Shape>
						<Appearance>
						</Appearance>
						<IndexedFaceSet solid="false"
						                coordIndex="0 1 2 -1 3 4 5 -1 5 4 6 -1 7 8 6 -1 6 8 9 -1 9 10 6 -1 6 10 11 -1 6 11 12 -1 12 11 13 -1 12 13 14 -1 12 15 6 -1 6 15 0 -1 6 0 5 -1 5 0 2 -1 7 16 8 -1 8 16 17 -1 8 17 18 -1 17 19 18 -1 18 19 20 -1 18 20 21 -1 21 20 22 -1 21 22 23 -1 23 22 24 -1 23 24 25 -1 23 26 27 -1 27 26 28 -1 25 29 23 -1 23 29 30 -1 23 30 26 -1 31 32 26 -1 26 32 33 -1 26 33 28 -1 34 35 36 -1 34 36 26 -1 26 36 37 -1 26 37 31 -1 38 39 40 -1 40 39 41 -1 3 42 4 -1 4 42 43 -1 44 45 4 -1 46 43 47 -1 47 43 48 -1 47 48 49 -1 46 50 43 -1 43 50 51 -1 43 51 52 -1 52 53 43 -1 43 53 38 -1 43 38 4 -1 4 38 40 -1 4 40 44 -1 45 54 4 -1 4 54 55 -1 4 55 56 -1 56 57 4 -1 4 57 58 -1 4 58 59 -1 60 42 5 -1 5 42 3 -1 61 62 60 -1 60 5 63 -1 63 5 2 -1 63 64 65 -1 60 63 61 -1 61 63 65 -1 61 65 66 -1 67 68 0 -1 0 68 1 -1 69 67 15 -1 15 67 0 -1 70 69 12 -1 12 69 15 -1 12 71 70 -1 70 71 72 -1 70 73 74 -1 75 12 76 -1 76 12 14 -1 77 78 79 -1 75 80 12 -1 12 80 81 -1 12 81 82 -1 14 83 76 -1 76 83 79 -1 76 79 84 -1 84 79 78 -1 82 85 12 -1 12 85 86 -1 12 86 71 -1 72 87 70 -1 70 87 88 -1 70 88 89 -1 89 90 70 -1 70 90 91 -1 70 91 73 -1 92 93 94 -1 79 95 96 -1 96 97 79 -1 79 97 98 -1 79 98 77 -1 74 99 70 -1 70 99 100 -1 70 100 101 -1 101 102 70 -1 70 102 103 -1 70 103 94 -1 94 103 104 -1 94 104 92 -1 105 106 107 -1 62 68 60 -1 60 68 67 -1 69 70 67 -1 67 70 108 -1 67 108 60 -1 60 108 43 -1 60 43 42 -1 70 94 109 -1 110 111 108 -1 70 109 108 -1 108 109 112 -1 108 112 110 -1 113 114 115 -1 115 114 106 -1 106 114 116 -1 106 116 107 -1 115 117 113 -1 113 117 118 -1 113 118 119 -1 119 118 120 -1 119 120 111 -1 111 120 121 -1 111 121 108 -1 122 123 107 -1 123 124 107 -1 107 124 125 -1 107 125 105 -1 126 107 127 -1 126 128 107 -1 107 128 129 -1 107 129 122 -1 130 127 131 -1 131 127 132 -1 130 133 127 -1 127 133 134 -1 127 134 126 -1 135 136 137 -1 137 136 138 -1 137 138 139 -1 139 138 140 -1 139 140 141 -1 141 140 142 -1 141 142 143 -1 143 142 144 -1 143 144 145 -1 145 144 146 -1 145 146 147 -1 147 146 148 -1 147 148 149 -1 149 148 150 -1 149 150 151 -1 151 150 152 -1 151 152 153 -1 153 152 154 -1 153 154 155 -1 155 154 156 -1 155 156 157 -1 157 156 158 -1 157 158 159 -1 159 158 160 -1 160 158 161 -1 160 161 162 -1 162 161 163 -1 162 163 164 -1 164 163 165 -1 164 165 166 -1 166 165 167 -1 166 167 168 -1 168 167 169 -1 168 169 170 -1 169 171 170 -1 170 171 172 -1 170 172 173 -1 173 172 174 -1 173 174 175 -1 175 174 176 -1 176 174 177 -1 176 177 178 -1 179 180 181 -1 181 180 182 -1 181 182 183 -1 183 182 184 -1 183 184 185 -1 185 184 178 -1 185 178 186 -1 186 178 177 -1 187 188 189 -1 189 188 190 -1 189 190 191 -1 191 190 192 -1 191 192 193 -1 193 192 194 -1 193 194 195 -1 195 194 196 -1 195 196 197 -1 197 196 198 -1 197 198 199 -1 199 198 200 -1 199 200 179 -1 179 200 201 -1 179 201 180 -1 72 71 202 -1 202 71 203 -1 202 203 187 -1 187 203 204 -1 187 204 188 -1 205 206 207 -1 208 114 113 -1 209 72 210 -1 211 212 213 -1 214 215 216 -1 99 74 217 -1 88 87 218 -1 218 87 72 -1 212 214 219 -1 220 221 222 -1 223 211 224 -1 72 225 218 -1 218 225 226 -1 218 226 88 -1 88 226 89 -1 72 227 225 -1 225 227 228 -1 225 228 226 -1 226 228 229 -1 226 229 89 -1 89 229 90 -1 72 230 227 -1 227 230 231 -1 227 231 228 -1 228 231 232 -1 228 232 229 -1 229 232 233 -1 229 233 90 -1 90 233 91 -1 234 235 236 -1 72 237 230 -1 230 237 238 -1 230 238 231 -1 231 238 239 -1 231 239 232 -1 232 239 240 -1 232 240 233 -1 233 240 241 -1 233 241 91 -1 91 241 73 -1 242 235 243 -1 243 235 234 -1 243 234 244 -1 72 245 237 -1 237 245 246 -1 237 246 238 -1 238 246 247 -1 238 247 239 -1 239 247 248 -1 239 248 240 -1 240 248 249 -1 240 249 241 -1 241 249 217 -1 241 217 73 -1 73 217 74 -1 250 242 251 -1 251 242 243 -1 251 243 252 -1 252 243 244 -1 252 244 253 -1 254 250 255 -1 255 250 251 -1 255 251 256 -1 256 251 252 -1 256 252 257 -1 257 252 253 -1 257 253 258 -1 72 209 259 -1 259 209 260 -1 259 260 261 -1 261 260 262 -1 261 262 263 -1 263 262 264 -1 263 264 265 -1 265 264 266 -1 265 266 267 -1 267 266 268 -1 267 268 269 -1 269 268 270 -1 269 270 271 -1 272 210 72 -1 273 254 274 -1 274 254 255 -1 274 255 275 -1 275 255 256 -1 275 256 276 -1 276 256 257 -1 276 257 277 -1 277 257 258 -1 277 258 278 -1 220 222 279 -1 279 222 280 -1 279 280 281 -1 281 280 282 -1 281 282 283 -1 283 282 284 -1 283 284 285 -1 285 284 286 -1 285 286 287 -1 287 286 288 -1 287 288 289 -1 289 288 290 -1 289 290 291 -1 291 290 292 -1 291 292 293 -1 294 273 295 -1 295 273 274 -1 295 274 296 -1 296 274 275 -1 296 275 297 -1 297 275 276 -1 297 276 298 -1 298 276 277 -1 298 277 299 -1 299 277 278 -1 214 216 219 -1 219 216 300 -1 219 300 301 -1 301 300 302 -1 301 302 303 -1 303 302 304 -1 303 304 305 -1 305 304 306 -1 305 306 307 -1 307 306 308 -1 307 308 309 -1 309 308 310 -1 309 310 311 -1 311 310 207 -1 311 207 312 -1 312 207 206 -1 312 206 313 -1 211 213 224 -1 224 213 314 -1 224 314 315 -1 315 314 316 -1 315 316 317 -1 317 316 318 -1 317 318 319 -1 319 318 320 -1 319 320 321 -1 321 320 322 -1 321 322 323 -1 323 322 324 -1 323 324 325 -1 325 324 326 -1 325 326 327 -1 327 326 328 -1 327 328 329 -1 212 219 213 -1 213 219 301 -1 213 301 314 -1 314 301 303 -1 314 303 316 -1 316 303 305 -1 316 305 318 -1 318 305 307 -1 318 307 320 -1 320 307 309 -1 320 309 322 -1 322 309 311 -1 322 311 324 -1 324 311 312 -1 324 312 326 -1 326 312 313 -1 326 313 328 -1 330 293 331 -1 331 293 292 -1 331 292 332 -1 332 292 290 -1 332 290 333 -1 333 290 288 -1 333 288 334 -1 334 288 286 -1 334 286 335 -1 335 286 284 -1 335 284 336 -1 336 284 282 -1 336 282 337 -1 337 282 280 -1 337 280 338 -1 338 280 222 -1 338 222 339 -1 339 222 221 -1 339 221 223 -1 223 224 339 -1 339 224 315 -1 339 315 338 -1 338 315 317 -1 338 317 337 -1 337 317 319 -1 337 319 336 -1 336 319 321 -1 336 321 335 -1 335 321 323 -1 335 323 334 -1 334 323 325 -1 334 325 333 -1 333 325 327 -1 333 327 332 -1 332 327 329 -1 332 329 331 -1 272 340 210 -1 210 340 299 -1 210 299 209 -1 209 299 278 -1 209 278 260 -1 260 278 258 -1 260 258 262 -1 262 258 253 -1 262 253 264 -1 264 253 244 -1 264 244 266 -1 266 244 234 -1 266 234 268 -1 268 234 236 -1 268 236 270 -1 341 294 342 -1 342 294 295 -1 342 295 343 -1 343 295 296 -1 343 296 344 -1 344 296 297 -1 344 297 345 -1 345 297 298 -1 345 298 346 -1 346 298 299 -1 346 299 347 -1 347 299 340 -1 94 93 348 -1 100 99 271 -1 271 99 217 -1 271 217 269 -1 269 217 249 -1 269 249 267 -1 267 249 248 -1 267 248 265 -1 265 248 247 -1 265 247 263 -1 263 247 246 -1 263 246 261 -1 261 246 245 -1 261 245 259 -1 259 245 72 -1 94 348 109 -1 109 348 349 -1 109 349 112 -1 349 350 112 -1 112 350 351 -1 112 351 110 -1 110 351 352 -1 110 352 111 -1 111 352 353 -1 111 353 119 -1 119 353 354 -1 119 354 113 -1 113 354 355 -1 113 355 208 -1 116 114 330 -1 330 114 208 -1 330 208 293 -1 293 208 355 -1 293 355 291 -1 291 355 354 -1 291 354 289 -1 289 354 353 -1 289 353 287 -1 287 353 352 -1 287 352 285 -1 285 352 351 -1 285 351 283 -1 283 351 350 -1 283 350 281 -1 281 350 349 -1 281 349 279 -1 279 349 348 -1 279 348 220 -1 220 348 93 -1 220 93 221 -1 221 93 92 -1 221 92 223 -1 223 92 104 -1 223 104 211 -1 211 104 103 -1 211 103 212 -1 212 103 102 -1 212 102 214 -1 214 102 101 -1 214 101 215 -1 215 101 100 -1 100 271 215 -1 215 271 270 -1 215 270 216 -1 216 270 236 -1 216 236 300 -1 300 236 235 -1 300 235 302 -1 302 235 242 -1 302 242 304 -1 304 242 250 -1 304 250 306 -1 306 250 254 -1 306 254 308 -1 308 254 273 -1 308 273 310 -1 310 273 294 -1 310 294 207 -1 207 294 341 -1 207 341 205 -1 356 11 357 -1 358 18 359 -1 360 71 361 -1 362 363 364 -1 365 366 367 -1 367 366 368 -1 368 366 369 -1 368 369 370 -1 371 372 373 -1 373 372 374 -1 373 374 375 -1 375 374 71 -1 360 361 376 -1 71 377 361 -1 361 377 378 -1 361 378 376 -1 376 378 379 -1 376 379 380 -1 380 379 364 -1 380 364 381 -1 381 364 363 -1 381 371 380 -1 380 371 373 -1 380 373 376 -1 376 373 375 -1 376 375 360 -1 360 375 71 -1 71 382 377 -1 377 382 383 -1 377 383 378 -1 378 383 384 -1 378 384 379 -1 379 384 385 -1 379 385 364 -1 364 385 386 -1 364 386 362 -1 362 386 387 -1 82 81 388 -1 388 81 80 -1 388 80 389 -1 389 80 390 -1 71 86 391 -1 391 86 85 -1 391 85 392 -1 392 85 82 -1 392 82 393 -1 393 82 388 -1 21 23 394 -1 394 23 395 -1 394 395 396 -1 396 395 365 -1 396 365 397 -1 397 365 367 -1 369 398 370 -1 370 398 399 -1 370 399 400 -1 400 399 401 -1 400 401 402 -1 402 401 403 -1 402 403 404 -1 404 403 405 -1 404 405 406 -1 18 21 359 -1 359 21 394 -1 359 394 407 -1 407 394 396 -1 407 396 408 -1 408 396 397 -1 408 397 409 -1 409 397 367 -1 409 367 410 -1 410 367 368 -1 410 368 411 -1 411 368 370 -1 411 370 412 -1 412 370 400 -1 412 400 413 -1 413 400 402 -1 413 402 414 -1 414 402 404 -1 414 404 415 -1 415 404 406 -1 415 406 416 -1 358 359 417 -1 417 359 407 -1 417 407 418 -1 418 407 408 -1 418 408 419 -1 419 408 409 -1 419 409 420 -1 420 409 410 -1 420 410 421 -1 421 410 411 -1 421 411 422 -1 422 411 412 -1 422 412 423 -1 423 412 413 -1 423 413 424 -1 424 413 414 -1 424 414 425 -1 425 414 415 -1 425 415 426 -1 426 415 416 -1 426 416 427 -1 8 18 428 -1 428 18 358 -1 428 358 429 -1 429 358 417 -1 429 417 430 -1 430 417 418 -1 430 418 431 -1 431 418 419 -1 431 419 432 -1 432 419 420 -1 432 420 433 -1 433 420 421 -1 433 421 434 -1 434 421 422 -1 434 422 435 -1 435 422 423 -1 435 423 436 -1 436 423 424 -1 436 424 437 -1 437 424 425 -1 437 425 438 -1 438 425 426 -1 438 426 439 -1 439 426 427 -1 439 427 440 -1 9 8 441 -1 441 8 428 -1 441 428 442 -1 442 428 429 -1 442 429 443 -1 443 429 430 -1 443 430 444 -1 444 430 431 -1 444 431 445 -1 445 431 432 -1 445 432 446 -1 446 432 433 -1 446 433 447 -1 447 433 434 -1 447 434 448 -1 448 434 435 -1 448 435 449 -1 449 435 436 -1 449 436 450 -1 450 436 437 -1 450 437 451 -1 451 437 438 -1 451 438 452 -1 452 438 439 -1 452 439 453 -1 453 439 440 -1 453 440 454 -1 10 9 455 -1 455 9 441 -1 455 441 456 -1 456 441 442 -1 456 442 457 -1 457 442 443 -1 457 443 458 -1 458 443 444 -1 458 444 459 -1 459 444 445 -1 459 445 460 -1 460 445 446 -1 460 446 461 -1 461 446 447 -1 461 447 462 -1 462 447 448 -1 462 448 463 -1 463 448 449 -1 463 449 464 -1 464 449 450 -1 464 450 465 -1 465 450 451 -1 465 451 466 -1 466 451 452 -1 466 452 467 -1 467 452 453 -1 467 453 468 -1 468 453 454 -1 468 454 469 -1 11 10 357 -1 357 10 455 -1 357 455 470 -1 470 455 456 -1 470 456 471 -1 471 456 457 -1 471 457 472 -1 472 457 458 -1 472 458 473 -1 473 458 459 -1 473 459 474 -1 474 459 460 -1 474 460 475 -1 475 460 461 -1 475 461 476 -1 476 461 462 -1 476 462 477 -1 477 462 463 -1 477 463 478 -1 478 463 464 -1 478 464 479 -1 479 464 465 -1 479 465 480 -1 480 465 466 -1 480 466 481 -1 481 466 467 -1 481 467 482 -1 482 467 468 -1 482 468 483 -1 483 468 469 -1 356 357 484 -1 484 357 470 -1 484 470 485 -1 485 470 471 -1 485 471 486 -1 486 471 472 -1 486 472 487 -1 487 472 473 -1 487 473 488 -1 488 473 474 -1 488 474 489 -1 489 474 475 -1 489 475 490 -1 490 475 476 -1 490 476 491 -1 491 476 477 -1 491 477 492 -1 492 477 478 -1 492 478 493 -1 493 478 479 -1 493 479 494 -1 494 479 480 -1 494 480 495 -1 495 480 481 -1 495 481 496 -1 496 481 482 -1 496 482 497 -1 497 482 483 -1 497 483 71 -1 469 71 483 -1 405 387 406 -1 406 387 386 -1 406 386 416 -1 416 386 385 -1 416 385 427 -1 427 385 384 -1 427 384 440 -1 440 384 383 -1 440 383 454 -1 454 383 382 -1 454 382 469 -1 469 382 71 -1 13 11 498 -1 498 11 356 -1 498 356 499 -1 499 356 484 -1 499 484 500 -1 500 484 485 -1 500 485 501 -1 501 485 486 -1 501 486 502 -1 502 486 487 -1 502 487 503 -1 503 487 488 -1 503 488 504 -1 504 488 489 -1 504 489 505 -1 505 489 490 -1 505 490 506 -1 506 490 491 -1 506 491 390 -1 390 491 492 -1 390 492 389 -1 389 492 493 -1 389 493 388 -1 388 493 494 -1 388 494 393 -1 393 494 495 -1 393 495 392 -1 392 495 496 -1 392 496 391 -1 391 496 497 -1 391 497 71 -1 14 13 83 -1 83 13 498 -1 83 498 79 -1 79 498 499 -1 79 499 95 -1 95 499 500 -1 95 500 96 -1 96 500 501 -1 96 501 97 -1 97 501 502 -1 97 502 98 -1 98 502 503 -1 98 503 77 -1 77 503 504 -1 77 504 78 -1 78 504 505 -1 78 505 84 -1 84 505 506 -1 84 506 76 -1 76 506 390 -1 76 390 75 -1 75 390 80 -1 507 508 509 -1 510 202 187 -1 511 512 513 -1 514 161 158 -1 515 144 142 -1 516 517 518 -1 138 136 519 -1 519 136 520 -1 138 519 140 -1 140 519 521 -1 140 521 142 -1 142 521 522 -1 142 522 515 -1 508 523 524 -1 148 525 526 -1 148 526 150 -1 150 526 527 -1 150 527 152 -1 508 524 509 -1 509 524 528 -1 509 528 529 -1 529 528 530 -1 529 530 531 -1 531 530 532 -1 531 532 533 -1 533 532 534 -1 533 534 535 -1 535 534 536 -1 535 536 537 -1 152 527 154 -1 154 527 538 -1 154 538 156 -1 156 538 539 -1 156 539 158 -1 158 539 540 -1 158 540 514 -1 541 542 543 -1 543 542 544 -1 545 167 546 -1 546 167 165 -1 546 165 514 -1 514 165 163 -1 514 163 161 -1 512 511 547 -1 547 511 548 -1 547 548 549 -1 550 174 551 -1 551 174 172 -1 551 172 552 -1 552 172 171 -1 552 171 545 -1 545 171 169 -1 545 169 167 -1 183 185 553 -1 553 185 186 -1 553 186 550 -1 550 186 177 -1 550 177 174 -1 554 555 556 -1 556 555 557 -1 556 557 558 -1 72 202 272 -1 272 202 510 -1 272 510 340 -1 340 510 347 -1 559 108 560 -1 560 108 121 -1 561 562 563 -1 562 561 564 -1 564 561 565 -1 564 565 566 -1 566 565 567 -1 567 565 568 -1 567 568 569 -1 569 568 570 -1 569 570 571 -1 571 570 572 -1 572 570 573 -1 572 573 574 -1 574 573 575 -1 574 575 576 -1 576 575 577 -1 576 577 578 -1 579 580 581 -1 582 577 583 -1 583 577 575 -1 583 575 584 -1 584 575 573 -1 584 573 585 -1 585 573 570 -1 585 570 586 -1 586 570 568 -1 586 568 587 -1 587 568 565 -1 587 565 588 -1 588 565 561 -1 588 561 589 -1 589 561 563 -1 589 563 590 -1 591 592 593 -1 594 582 595 -1 595 582 583 -1 595 583 596 -1 596 583 584 -1 596 584 597 -1 597 584 585 -1 597 585 598 -1 598 585 586 -1 598 586 599 -1 599 586 587 -1 599 587 600 -1 600 587 588 -1 600 588 601 -1 601 588 589 -1 601 589 602 -1 602 589 590 -1 602 590 603 -1 604 593 605 -1 605 593 592 -1 605 592 606 -1 607 594 608 -1 608 594 595 -1 608 595 609 -1 609 595 596 -1 609 596 610 -1 610 596 597 -1 610 597 611 -1 611 597 598 -1 611 598 612 -1 612 598 599 -1 612 599 613 -1 613 599 600 -1 613 600 614 -1 614 600 601 -1 614 601 615 -1 615 601 602 -1 615 602 560 -1 560 602 603 -1 560 603 559 -1 146 144 616 -1 616 144 515 -1 616 515 617 -1 617 515 522 -1 617 522 618 -1 618 522 521 -1 618 521 619 -1 619 521 519 -1 619 519 620 -1 620 519 520 -1 620 520 621 -1 591 120 592 -1 592 120 118 -1 592 118 606 -1 606 118 117 -1 606 117 115 -1 148 146 525 -1 525 146 616 -1 525 616 622 -1 622 616 617 -1 622 617 623 -1 623 617 618 -1 623 618 624 -1 624 618 619 -1 624 619 625 -1 625 619 620 -1 625 620 579 -1 579 620 621 -1 579 621 580 -1 626 627 628 -1 628 627 629 -1 628 629 630 -1 630 629 631 -1 630 631 632 -1 632 631 633 -1 632 633 634 -1 635 626 636 -1 636 626 628 -1 636 628 637 -1 637 628 630 -1 637 630 638 -1 638 630 632 -1 638 632 639 -1 639 632 634 -1 639 634 640 -1 641 635 642 -1 642 635 636 -1 642 636 643 -1 643 636 637 -1 643 637 644 -1 644 637 638 -1 644 638 645 -1 645 638 639 -1 645 639 646 -1 646 639 640 -1 646 640 647 -1 647 648 646 -1 646 648 649 -1 646 649 645 -1 645 649 650 -1 645 650 644 -1 644 650 651 -1 644 651 643 -1 643 651 652 -1 643 652 642 -1 642 652 653 -1 642 653 641 -1 641 653 654 -1 648 655 649 -1 649 655 656 -1 649 656 650 -1 650 656 657 -1 650 657 651 -1 651 657 658 -1 651 658 652 -1 652 658 659 -1 652 659 653 -1 653 659 660 -1 653 660 654 -1 654 660 661 -1 633 604 634 -1 634 604 605 -1 634 605 640 -1 640 605 606 -1 640 606 647 -1 647 606 115 -1 647 115 648 -1 648 115 106 -1 648 106 655 -1 655 106 662 -1 655 662 656 -1 656 662 663 -1 656 663 657 -1 657 663 664 -1 657 664 658 -1 658 664 665 -1 658 665 659 -1 659 665 666 -1 659 666 660 -1 660 666 667 -1 660 667 661 -1 661 667 544 -1 668 536 669 -1 669 536 534 -1 669 534 670 -1 670 534 532 -1 670 532 671 -1 671 532 530 -1 671 530 672 -1 672 530 528 -1 672 528 673 -1 673 528 524 -1 673 524 674 -1 674 524 523 -1 674 523 675 -1 106 105 662 -1 662 105 676 -1 662 676 663 -1 663 676 677 -1 663 677 664 -1 664 677 678 -1 664 678 665 -1 665 678 679 -1 665 679 666 -1 666 679 680 -1 666 680 667 -1 667 680 681 -1 667 681 544 -1 544 681 682 -1 544 682 543 -1 541 668 542 -1 542 668 669 -1 542 669 544 -1 544 669 670 -1 544 670 661 -1 661 670 671 -1 661 671 654 -1 654 671 672 -1 654 672 641 -1 641 672 673 -1 641 673 635 -1 635 673 674 -1 635 674 626 -1 626 674 675 -1 626 675 627 -1 105 125 676 -1 676 125 683 -1 676 683 677 -1 677 683 684 -1 677 684 678 -1 678 684 685 -1 678 685 679 -1 679 685 686 -1 679 686 680 -1 680 686 687 -1 680 687 681 -1 681 687 688 -1 681 688 682 -1 682 688 689 -1 682 689 543 -1 543 689 690 -1 543 690 541 -1 537 536 691 -1 691 536 668 -1 691 668 513 -1 513 668 541 -1 513 541 511 -1 511 541 690 -1 511 690 548 -1 548 690 692 -1 548 692 549 -1 549 692 693 -1 549 693 694 -1 694 693 695 -1 694 695 696 -1 124 123 697 -1 697 123 698 -1 697 698 699 -1 699 698 700 -1 699 700 701 -1 701 700 702 -1 701 702 703 -1 703 702 704 -1 703 704 705 -1 705 704 706 -1 705 706 707 -1 707 706 708 -1 707 708 709 -1 709 708 710 -1 709 710 711 -1 711 710 712 -1 181 183 713 -1 713 183 553 -1 713 553 714 -1 714 553 550 -1 714 550 715 -1 715 550 551 -1 715 551 716 -1 716 551 552 -1 716 552 717 -1 717 552 545 -1 717 545 718 -1 718 545 546 -1 718 546 719 -1 719 546 514 -1 719 514 720 -1 720 514 540 -1 720 540 721 -1 721 540 539 -1 721 539 722 -1 722 539 538 -1 722 538 723 -1 723 538 527 -1 723 527 724 -1 724 527 526 -1 724 526 725 -1 725 526 525 -1 725 525 726 -1 726 525 622 -1 726 622 727 -1 727 622 623 -1 727 623 728 -1 728 623 624 -1 728 624 729 -1 729 624 625 -1 729 625 730 -1 730 625 579 -1 730 579 516 -1 516 579 581 -1 516 581 517 -1 123 122 698 -1 698 122 731 -1 698 731 700 -1 700 731 732 -1 700 732 702 -1 702 732 733 -1 702 733 704 -1 704 733 734 -1 704 734 706 -1 706 734 735 -1 706 735 708 -1 708 735 736 -1 708 736 710 -1 710 736 737 -1 710 737 712 -1 712 737 738 -1 125 124 683 -1 683 124 697 -1 683 697 684 -1 684 697 699 -1 684 699 685 -1 685 699 701 -1 685 701 686 -1 686 701 703 -1 686 703 687 -1 687 703 705 -1 687 705 688 -1 688 705 707 -1 688 707 689 -1 689 707 709 -1 689 709 690 -1 690 709 711 -1 690 711 692 -1 692 711 712 -1 692 712 693 -1 693 712 738 -1 693 738 695 -1 507 509 739 -1 739 509 529 -1 739 529 740 -1 740 529 531 -1 740 531 741 -1 741 531 533 -1 741 533 742 -1 742 533 535 -1 742 535 743 -1 743 535 537 -1 743 537 744 -1 744 537 691 -1 744 691 745 -1 745 691 513 -1 745 513 746 -1 746 513 512 -1 746 512 747 -1 747 512 547 -1 747 547 748 -1 748 547 549 -1 748 549 749 -1 749 549 694 -1 749 694 557 -1 557 694 696 -1 557 696 558 -1 121 120 560 -1 560 120 591 -1 560 591 615 -1 615 591 593 -1 615 593 614 -1 614 593 604 -1 614 604 613 -1 613 604 633 -1 613 633 612 -1 612 633 631 -1 612 631 611 -1 611 631 629 -1 611 629 610 -1 610 629 627 -1 610 627 609 -1 609 627 675 -1 609 675 608 -1 608 675 523 -1 608 523 607 -1 607 523 508 -1 607 508 750 -1 750 508 507 -1 750 507 751 -1 751 507 739 -1 751 739 752 -1 752 739 740 -1 752 740 753 -1 753 740 741 -1 753 741 754 -1 754 741 742 -1 754 742 755 -1 755 742 743 -1 755 743 756 -1 756 743 744 -1 756 744 757 -1 757 744 745 -1 757 745 758 -1 758 745 746 -1 758 746 759 -1 759 746 747 -1 759 747 760 -1 760 747 748 -1 760 748 761 -1 761 748 749 -1 761 749 762 -1 762 749 557 -1 762 557 763 -1 763 557 555 -1 763 555 764 -1 764 555 554 -1 764 554 765 -1 193 195 766 -1 766 195 197 -1 766 197 767 -1 767 197 199 -1 767 199 768 -1 768 199 179 -1 768 179 769 -1 769 179 181 -1 769 181 770 -1 770 181 713 -1 770 713 771 -1 771 713 714 -1 771 714 772 -1 772 714 715 -1 772 715 773 -1 773 715 716 -1 773 716 774 -1 774 716 717 -1 774 717 775 -1 775 717 718 -1 775 718 776 -1 776 718 719 -1 776 719 777 -1 777 719 720 -1 777 720 778 -1 778 720 721 -1 778 721 779 -1 779 721 722 -1 779 722 780 -1 780 722 723 -1 780 723 781 -1 781 723 724 -1 781 724 782 -1 782 724 725 -1 782 725 783 -1 783 725 726 -1 783 726 784 -1 784 726 727 -1 784 727 785 -1 785 727 728 -1 785 728 786 -1 786 728 729 -1 786 729 787 -1 787 729 730 -1 787 730 788 -1 788 730 516 -1 788 516 789 -1 789 516 518 -1 789 518 790 -1 122 129 731 -1 731 129 791 -1 731 791 732 -1 732 791 792 -1 732 792 733 -1 733 792 793 -1 733 793 734 -1 734 793 794 -1 734 794 735 -1 735 794 795 -1 735 795 736 -1 736 795 796 -1 736 796 737 -1 737 796 797 -1 737 797 738 -1 738 797 798 -1 738 798 695 -1 695 798 799 -1 695 799 696 -1 696 799 800 -1 696 800 558 -1 558 800 801 -1 558 801 556 -1 556 801 802 -1 556 802 554 -1 554 802 803 -1 554 803 765 -1 765 803 804 -1 129 128 791 -1 791 128 805 -1 791 805 792 -1 792 805 806 -1 792 806 793 -1 793 806 807 -1 793 807 794 -1 794 807 808 -1 794 808 795 -1 795 808 809 -1 795 809 796 -1 796 809 810 -1 796 810 797 -1 797 810 811 -1 797 811 798 -1 798 811 812 -1 798 812 799 -1 799 812 813 -1 799 813 800 -1 800 813 814 -1 800 814 801 -1 801 814 815 -1 801 815 802 -1 802 815 816 -1 802 816 803 -1 803 816 817 -1 803 817 804 -1 804 817 818 -1 128 126 805 -1 805 126 819 -1 805 819 806 -1 806 819 820 -1 806 820 807 -1 807 820 821 -1 807 821 808 -1 808 821 822 -1 808 822 809 -1 809 822 823 -1 809 823 810 -1 810 823 824 -1 810 824 811 -1 811 824 825 -1 811 825 812 -1 812 825 826 -1 812 826 813 -1 813 826 827 -1 813 827 814 -1 814 827 828 -1 814 828 815 -1 815 828 829 -1 815 829 816 -1 816 829 830 -1 816 830 817 -1 817 830 831 -1 817 831 818 -1 818 831 832 -1 126 134 819 -1 819 134 833 -1 819 833 820 -1 820 833 834 -1 820 834 821 -1 821 834 835 -1 821 835 822 -1 822 835 836 -1 822 836 823 -1 823 836 837 -1 823 837 824 -1 824 837 838 -1 824 838 825 -1 825 838 839 -1 825 839 826 -1 826 839 840 -1 826 840 827 -1 827 840 841 -1 827 841 828 -1 828 841 842 -1 828 842 829 -1 829 842 843 -1 829 843 830 -1 830 843 844 -1 830 844 831 -1 831 844 845 -1 831 845 832 -1 832 845 846 -1 191 193 847 -1 847 193 766 -1 847 766 846 -1 846 766 767 -1 846 767 832 -1 832 767 768 -1 832 768 818 -1 818 768 769 -1 818 769 804 -1 804 769 770 -1 804 770 765 -1 765 770 771 -1 765 771 764 -1 764 771 772 -1 764 772 763 -1 763 772 773 -1 763 773 762 -1 762 773 774 -1 762 774 761 -1 761 774 775 -1 761 775 760 -1 760 775 776 -1 760 776 759 -1 759 776 777 -1 759 777 758 -1 758 777 778 -1 758 778 757 -1 757 778 779 -1 757 779 756 -1 756 779 780 -1 756 780 755 -1 755 780 781 -1 755 781 754 -1 754 781 782 -1 754 782 753 -1 753 782 783 -1 753 783 752 -1 752 783 784 -1 752 784 751 -1 751 784 785 -1 751 785 750 -1 750 785 786 -1 750 786 607 -1 607 786 787 -1 607 787 594 -1 594 787 788 -1 594 788 582 -1 582 788 789 -1 582 789 577 -1 577 789 790 -1 577 790 578 -1 848 849 850 -1 850 849 851 -1 850 851 852 -1 852 851 853 -1 852 853 854 -1 854 853 855 -1 854 855 856 -1 856 855 857 -1 856 857 858 -1 858 857 859 -1 858 859 860 -1 860 859 861 -1 860 861 862 -1 862 861 863 -1 862 863 864 -1 864 863 865 -1 864 865 866 -1 866 865 867 -1 866 867 868 -1 868 867 869 -1 868 869 870 -1 870 869 871 -1 870 871 872 -1 872 871 873 -1 872 873 874 -1 874 873 875 -1 874 875 876 -1 876 875 877 -1 132 127 878 -1 849 879 851 -1 851 879 880 -1 851 880 853 -1 853 880 881 -1 853 881 855 -1 855 881 882 -1 855 882 857 -1 857 882 883 -1 857 883 859 -1 859 883 884 -1 859 884 861 -1 861 884 885 -1 861 885 863 -1 863 885 886 -1 863 886 865 -1 865 886 887 -1 865 887 867 -1 867 887 888 -1 867 888 869 -1 869 888 889 -1 869 889 871 -1 871 889 890 -1 871 890 873 -1 873 890 891 -1 873 891 875 -1 875 891 892 -1 875 892 877 -1 877 892 893 -1 879 894 880 -1 880 894 895 -1 880 895 881 -1 881 895 896 -1 881 896 882 -1 882 896 897 -1 882 897 883 -1 883 897 898 -1 883 898 884 -1 884 898 899 -1 884 899 885 -1 885 899 900 -1 885 900 886 -1 886 900 901 -1 886 901 887 -1 887 901 902 -1 887 902 888 -1 888 902 903 -1 888 903 889 -1 889 903 904 -1 889 904 890 -1 890 904 905 -1 890 905 891 -1 891 905 906 -1 891 906 892 -1 892 906 907 -1 892 907 893 -1 893 907 908 -1 331 909 910 -1 910 909 911 -1 910 911 912 -1 912 911 878 -1 848 133 849 -1 849 133 130 -1 849 130 879 -1 879 130 131 -1 879 131 894 -1 894 131 913 -1 894 913 895 -1 895 913 914 -1 895 914 896 -1 896 914 915 -1 896 915 897 -1 897 915 916 -1 897 916 898 -1 898 916 917 -1 898 917 899 -1 899 917 918 -1 899 918 900 -1 900 918 919 -1 900 919 901 -1 901 919 920 -1 901 920 902 -1 902 920 921 -1 902 921 903 -1 903 921 922 -1 903 922 904 -1 904 922 923 -1 904 923 905 -1 905 923 924 -1 905 924 906 -1 906 924 925 -1 906 925 907 -1 907 925 926 -1 907 926 908 -1 116 330 107 -1 107 330 927 -1 107 927 127 -1 878 127 912 -1 912 127 927 -1 912 927 910 -1 910 927 330 -1 910 330 331 -1 131 132 913 -1 913 132 878 -1 913 878 914 -1 914 878 911 -1 914 911 915 -1 915 911 909 -1 915 909 916 -1 916 909 331 -1 916 331 917 -1 917 331 329 -1 917 329 918 -1 918 329 328 -1 918 328 919 -1 919 328 313 -1 919 313 920 -1 920 313 206 -1 920 206 921 -1 206 205 921 -1 921 205 341 -1 921 341 922 -1 922 341 342 -1 922 342 923 -1 923 342 343 -1 923 343 924 -1 924 343 344 -1 924 344 925 -1 925 344 345 -1 925 345 926 -1 926 345 346 -1 346 347 926 -1 926 347 510 -1 926 510 908 -1 908 510 187 -1 908 187 893 -1 893 187 189 -1 893 189 877 -1 877 189 191 -1 877 191 876 -1 876 191 847 -1 876 847 874 -1 874 847 846 -1 874 846 872 -1 872 846 845 -1 872 845 870 -1 870 845 844 -1 870 844 868 -1 868 844 843 -1 868 843 866 -1 866 843 842 -1 866 842 864 -1 864 842 841 -1 864 841 862 -1 862 841 840 -1 862 840 860 -1 860 840 839 -1 860 839 858 -1 858 839 838 -1 858 838 856 -1 856 838 837 -1 856 837 854 -1 854 837 836 -1 854 836 852 -1 852 836 835 -1 852 835 850 -1 850 835 834 -1 850 834 848 -1 848 834 833 -1 848 833 133 -1 133 833 134 -1 928 39 38 -1 928 38 929 -1 929 38 53 -1 929 53 930 -1 930 53 931 -1 931 53 52 -1 931 52 932 -1 932 52 933 -1 933 52 51 -1 933 51 934 -1 934 51 935 -1 935 51 50 -1 935 50 936 -1 936 50 46 -1 936 46 937 -1 937 46 938 -1 938 46 47 -1 938 47 939 -1 939 47 940 -1 940 47 49 -1 940 49 941 -1 941 49 942 -1 942 49 48 -1 942 48 943 -1 943 48 43 -1 943 43 108 -1 944 27 945 -1 945 27 28 -1 946 31 37 -1 175 176 947 -1 948 949 950 -1 951 952 953 -1 954 955 956 -1 957 958 959 -1 960 961 962 -1 955 963 964 -1 964 963 957 -1 965 966 954 -1 967 968 969 -1 6 968 970 -1 971 972 973 -1 6 970 7 -1 7 970 974 -1 7 974 16 -1 16 974 17 -1 17 974 975 -1 17 975 19 -1 976 977 978 -1 978 977 979 -1 978 979 980 -1 19 975 20 -1 20 975 981 -1 20 981 22 -1 982 24 983 -1 983 24 22 -1 983 22 984 -1 984 22 981 -1 971 973 985 -1 985 973 986 -1 985 986 987 -1 987 986 988 -1 987 988 989 -1 989 988 990 -1 989 990 991 -1 991 990 992 -1 991 992 993 -1 993 992 994 -1 993 994 995 -1 995 994 996 -1 995 996 997 -1 997 996 998 -1 997 998 999 -1 999 998 1000 -1 999 1000 1001 -1 1001 1000 1002 -1 1001 1002 1003 -1 1003 1002 1004 -1 1003 1004 1005 -1 1005 1004 1006 -1 1005 1006 1007 -1 1008 1009 1010 -1 982 1011 24 -1 24 1011 1012 -1 24 1012 25 -1 25 1012 1013 -1 25 1013 29 -1 29 1013 1014 -1 29 1014 30 -1 30 1014 1015 -1 30 1015 26 -1 26 1015 1016 -1 26 1016 34 -1 34 1016 1017 -1 34 1017 35 -1 35 1017 1018 -1 35 1018 36 -1 36 1018 1019 -1 36 1019 37 -1 37 1019 1020 -1 37 1020 946 -1 946 1021 31 -1 31 1021 1022 -1 31 1022 32 -1 32 1022 1023 -1 32 1023 33 -1 33 1023 1024 -1 33 1024 28 -1 28 1024 1025 -1 28 1025 945 -1 1008 1010 1026 -1 1026 1010 1027 -1 1026 1027 1028 -1 1028 1027 1029 -1 1028 1029 1030 -1 1030 1029 1031 -1 1030 1031 1032 -1 1032 1031 1033 -1 1032 1033 1034 -1 1034 1033 1035 -1 1034 1035 1036 -1 1036 1035 1037 -1 1036 1037 1038 -1 1038 1037 1039 -1 1038 1039 1040 -1 1040 1039 1041 -1 1040 1041 1042 -1 1042 1041 362 -1 1042 362 387 -1 1043 405 403 -1 1044 401 399 -1 957 959 964 -1 964 959 1045 -1 964 1045 1046 -1 1046 1045 1047 -1 1046 1047 1048 -1 1048 1047 1049 -1 1048 1049 1050 -1 1050 1049 1051 -1 1050 1051 1052 -1 1052 1051 1053 -1 1052 1053 1054 -1 1054 1053 1055 -1 1054 1055 1056 -1 1056 1055 1057 -1 1056 1057 1058 -1 1058 1057 1059 -1 1058 1059 1060 -1 1060 1059 1061 -1 1060 1061 1062 -1 1062 1061 1063 -1 1062 1063 1064 -1 1064 1063 1065 -1 1064 1065 1066 -1 1066 1065 1067 -1 1066 1067 1068 -1 1068 1067 1069 -1 1068 1069 1070 -1 1070 1069 1071 -1 1070 1071 1072 -1 1072 1071 1073 -1 1072 1073 1074 -1 1074 1073 1075 -1 1074 1075 1076 -1 1076 1075 1077 -1 1076 1077 1078 -1 1078 1077 1079 -1 1078 1079 1080 -1 1080 1079 1081 -1 1080 1081 1082 -1 1082 1081 1083 -1 1082 1083 1084 -1 1084 1083 1085 -1 1084 1085 1086 -1 1086 1085 1087 -1 1086 1087 1088 -1 1088 1087 1089 -1 1088 1089 1090 -1 1090 1089 1044 -1 1090 1044 1091 -1 1091 1044 399 -1 1091 399 398 -1 954 956 965 -1 965 956 1092 -1 965 1092 1093 -1 1093 1092 1094 -1 1093 1094 1095 -1 1095 1094 1096 -1 1095 1096 1097 -1 1097 1096 1098 -1 1097 1098 1099 -1 1099 1098 1100 -1 1099 1100 1101 -1 1101 1100 1102 -1 1101 1102 1103 -1 1103 1102 1104 -1 1103 1104 1105 -1 1105 1104 1106 -1 1105 1106 1107 -1 1107 1106 1108 -1 1107 1108 1109 -1 1109 1108 1110 -1 1109 1110 1111 -1 1111 1110 1112 -1 1111 1112 1113 -1 1113 1112 1114 -1 1113 1114 1115 -1 1115 1114 1116 -1 1115 1116 1117 -1 1117 1116 1118 -1 1117 1118 1119 -1 1119 1118 1120 -1 1119 1120 1121 -1 1121 1120 1122 -1 1121 1122 1123 -1 1123 1122 1124 -1 1123 1124 1125 -1 1125 1124 1126 -1 1125 1126 1127 -1 1127 1126 1128 -1 1127 1128 1129 -1 1129 1128 1130 -1 1129 1130 1131 -1 1131 1130 1132 -1 1131 1132 1133 -1 1133 1132 1134 -1 1133 1134 1135 -1 1135 1134 1136 -1 1135 1136 1137 -1 1137 1136 1138 -1 1137 1138 1139 -1 1139 1138 369 -1 1139 369 366 -1 135 137 1140 -1 1140 137 1141 -1 1140 1141 1142 -1 962 1143 960 -1 960 1143 1144 -1 960 1144 1145 -1 1145 1144 1146 -1 1145 1146 1147 -1 971 1148 972 -1 972 1148 1149 -1 972 1149 1150 -1 1151 961 1152 -1 1152 961 960 -1 1152 960 1153 -1 1153 960 1145 -1 1153 1145 1154 -1 1154 1145 1147 -1 1154 1147 1155 -1 1156 1157 1158 -1 977 1151 979 -1 979 1151 1152 -1 979 1152 980 -1 980 1152 1153 -1 980 1153 1159 -1 1159 1153 1154 -1 1159 1154 1160 -1 1160 1154 1155 -1 1160 1155 1161 -1 1158 1162 951 -1 948 950 1163 -1 1163 950 1164 -1 1163 1164 1165 -1 1165 1164 1166 -1 1165 1166 1167 -1 1167 1166 1168 -1 1167 1168 1169 -1 1169 1168 1170 -1 1169 1170 1171 -1 1171 1170 1172 -1 1171 1172 1173 -1 1173 1172 1174 -1 1173 1174 1175 -1 1175 1174 1176 -1 1175 1176 1177 -1 1177 1176 976 -1 1177 976 1178 -1 1178 976 978 -1 1178 978 1179 -1 1179 978 980 -1 1179 980 1180 -1 1180 980 1159 -1 1180 1159 1181 -1 1181 1159 1160 -1 1181 1160 1141 -1 1141 1160 1161 -1 1141 1161 1142 -1 139 141 1156 -1 1156 141 143 -1 1156 143 1157 -1 1157 143 145 -1 1157 145 1182 -1 1182 145 147 -1 1182 147 1183 -1 1183 147 149 -1 1183 149 1184 -1 1184 149 151 -1 1184 151 1185 -1 1158 1157 1162 -1 1162 1157 1182 -1 1162 1182 1186 -1 1186 1182 1183 -1 1186 1183 1187 -1 1187 1183 1184 -1 1187 1184 1188 -1 1188 1184 1185 -1 1188 1185 1189 -1 951 1162 952 -1 952 1162 1186 -1 952 1186 1190 -1 1190 1186 1187 -1 1190 1187 1191 -1 1191 1187 1188 -1 1191 1188 1192 -1 1192 1188 1189 -1 1192 1189 1193 -1 1194 1195 1196 -1 1194 153 1195 -1 1195 153 155 -1 1195 155 1197 -1 1197 155 157 -1 1197 157 1198 -1 1198 157 159 -1 1198 159 1199 -1 1199 159 160 -1 1196 1195 1200 -1 1200 1195 1197 -1 1200 1197 1201 -1 1201 1197 1198 -1 1201 1198 1202 -1 1202 1198 1199 -1 1202 1199 1203 -1 151 153 1185 -1 1185 153 1194 -1 1185 1194 1189 -1 1189 1194 1196 -1 1189 1196 1193 -1 1193 1196 1200 -1 1193 1200 1204 -1 1204 1200 1201 -1 1204 1201 1205 -1 1205 1201 1202 -1 1205 1202 1206 -1 1206 1202 1203 -1 1206 1203 1207 -1 164 166 1208 -1 953 952 1209 -1 1209 952 1190 -1 1209 1190 1210 -1 1210 1190 1191 -1 1210 1191 1211 -1 1211 1191 1192 -1 1211 1192 1212 -1 1212 1192 1193 -1 1212 1193 1213 -1 1213 1193 1204 -1 1213 1204 1214 -1 1214 1204 1205 -1 1214 1205 1215 -1 1215 1205 1206 -1 1215 1206 1216 -1 1216 1206 1207 -1 1216 1207 1217 -1 137 139 1141 -1 1141 139 1156 -1 1141 1156 1181 -1 1181 1156 1158 -1 1181 1158 1180 -1 1180 1158 951 -1 1180 951 1179 -1 1179 951 953 -1 1179 953 1178 -1 1178 953 1209 -1 1178 1209 1177 -1 1177 1209 1210 -1 1177 1210 1175 -1 1175 1210 1211 -1 1175 1211 1173 -1 1173 1211 1212 -1 1173 1212 1171 -1 1171 1212 1213 -1 1171 1213 1169 -1 1169 1213 1214 -1 1169 1214 1167 -1 1167 1214 1215 -1 1167 1215 1165 -1 1165 1215 1216 -1 1165 1216 1163 -1 1163 1216 1217 -1 1163 1217 948 -1 1218 1007 1219 -1 1219 1007 1006 -1 1219 1006 949 -1 949 1006 1004 -1 949 1004 950 -1 950 1004 1002 -1 950 1002 1164 -1 1164 1002 1000 -1 1164 1000 1166 -1 1166 1000 998 -1 1166 998 1168 -1 1168 998 996 -1 1168 996 1170 -1 1170 996 994 -1 1170 994 1172 -1 1172 994 992 -1 1172 992 1174 -1 1174 992 990 -1 1174 990 1176 -1 1176 990 988 -1 1176 988 976 -1 976 988 986 -1 976 986 977 -1 977 986 973 -1 977 973 1151 -1 1151 973 972 -1 1151 972 961 -1 961 972 1150 -1 961 1150 962 -1 170 173 1220 -1 160 162 1199 -1 1199 162 1221 -1 1199 1221 1203 -1 1203 1221 1222 -1 1203 1222 1207 -1 1207 1222 1223 -1 1207 1223 1217 -1 1217 1223 1224 -1 1217 1224 948 -1 948 1224 1225 -1 948 1225 949 -1 949 1225 1226 -1 949 1226 1219 -1 1219 1226 1227 -1 1219 1227 1218 -1 1218 1227 1228 -1 1218 1228 1229 -1 1229 1228 1230 -1 1229 1230 1231 -1 1231 1230 1232 -1 1231 1232 1233 -1 1233 1232 1234 -1 1233 1234 1235 -1 1235 1234 1236 -1 1235 1236 1237 -1 1237 1236 1238 -1 1237 1238 1239 -1 1239 1238 1240 -1 1239 1240 1241 -1 1241 1240 1242 -1 1241 1242 1243 -1 1243 1242 1244 -1 1243 1244 1245 -1 1245 1244 1246 -1 1245 1246 1247 -1 1247 1246 1043 -1 1247 1043 1248 -1 1248 1043 403 -1 1248 403 401 -1 947 1249 1250 -1 166 168 1208 -1 1208 168 1251 -1 1208 1251 1252 -1 1252 1251 1253 -1 1252 1253 1254 -1 1254 1253 1255 -1 1254 1255 1256 -1 1256 1255 1257 -1 1256 1257 1258 -1 1258 1257 1259 -1 1258 1259 1260 -1 1260 1259 1261 -1 947 176 1249 -1 1249 176 178 -1 1249 178 1262 -1 1262 178 184 -1 1262 184 1263 -1 1263 184 182 -1 1263 182 1264 -1 168 170 1251 -1 1251 170 1220 -1 1251 1220 1253 -1 1253 1220 1265 -1 1253 1265 1255 -1 1255 1265 1266 -1 1255 1266 1257 -1 1257 1266 1267 -1 1257 1267 1259 -1 1259 1267 1009 -1 1259 1009 1261 -1 1261 1009 1008 -1 182 180 1264 -1 1264 180 201 -1 1264 201 1268 -1 1268 201 200 -1 1268 200 1269 -1 1269 200 198 -1 1269 198 1270 -1 1250 1249 1271 -1 1271 1249 1262 -1 1271 1262 1272 -1 1272 1262 1263 -1 1272 1263 1273 -1 1273 1263 1264 -1 1273 1264 1274 -1 1274 1264 1268 -1 1274 1268 1275 -1 1275 1268 1269 -1 1275 1269 1276 -1 1276 1269 1270 -1 1276 1270 1277 -1 203 1278 204 -1 204 1278 1279 -1 204 1279 188 -1 188 1279 1280 -1 188 1280 190 -1 190 1280 1281 -1 190 1281 192 -1 192 1281 1282 -1 192 1282 194 -1 194 1282 1283 -1 194 1283 196 -1 198 196 1270 -1 1270 196 1283 -1 1270 1283 1277 -1 1277 1283 1282 -1 1277 1282 1284 -1 1284 1282 1281 -1 1284 1281 1285 -1 1285 1281 1280 -1 1285 1280 1286 -1 1286 1280 1279 -1 1286 1279 1287 -1 1287 1279 1278 -1 1287 1288 1286 -1 1286 1288 1289 -1 1286 1289 1285 -1 1285 1289 1290 -1 1285 1290 1284 -1 1284 1290 1291 -1 1284 1291 1277 -1 1277 1291 1292 -1 1277 1292 1276 -1 1276 1292 1293 -1 1276 1293 1275 -1 1275 1293 1294 -1 1275 1294 1274 -1 1274 1294 1295 -1 1274 1295 1273 -1 1273 1295 1296 -1 1273 1296 1272 -1 1272 1296 1297 -1 1272 1297 1271 -1 1271 1297 1298 -1 1271 1298 1250 -1 1288 1299 1289 -1 1289 1299 1300 -1 1289 1300 1290 -1 1290 1300 1301 -1 1290 1301 1291 -1 1291 1301 1302 -1 1291 1302 1292 -1 1292 1302 1303 -1 1292 1303 1293 -1 1293 1303 1304 -1 1293 1304 1294 -1 1294 1304 1305 -1 1294 1305 1295 -1 1295 1305 1306 -1 1295 1306 1296 -1 1296 1306 1307 -1 1296 1307 1297 -1 1297 1307 1308 -1 1297 1308 1298 -1 401 1044 1248 -1 1248 1044 1089 -1 1248 1089 1247 -1 1247 1089 1087 -1 1247 1087 1245 -1 1245 1087 1085 -1 1245 1085 1243 -1 1243 1085 1083 -1 1243 1083 1241 -1 1241 1083 1081 -1 1241 1081 1239 -1 1239 1081 1079 -1 1239 1079 1237 -1 1237 1079 1077 -1 1237 1077 1235 -1 1235 1077 1075 -1 1235 1075 1233 -1 1233 1075 1073 -1 1233 1073 1231 -1 1231 1073 1071 -1 1231 1071 1229 -1 1229 1071 1069 -1 1229 1069 1218 -1 1218 1069 1067 -1 1218 1067 1007 -1 1007 1067 1065 -1 1007 1065 1005 -1 1005 1065 1063 -1 1005 1063 1003 -1 1003 1063 1061 -1 1003 1061 1001 -1 1001 1061 1059 -1 1001 1059 999 -1 999 1059 1057 -1 999 1057 997 -1 997 1057 1055 -1 997 1055 995 -1 995 1055 1053 -1 995 1053 993 -1 993 1053 1051 -1 993 1051 991 -1 991 1051 1049 -1 991 1049 989 -1 989 1049 1047 -1 989 1047 987 -1 987 1047 1045 -1 987 1045 985 -1 985 1045 959 -1 985 959 971 -1 971 959 958 -1 971 958 1148 -1 968 967 970 -1 970 967 1309 -1 970 1309 974 -1 974 1309 1310 -1 974 1310 975 -1 975 1310 1311 -1 975 1311 981 -1 981 1311 1312 -1 981 1312 984 -1 984 1312 1313 -1 984 1313 983 -1 983 1313 1314 -1 983 1314 982 -1 982 1314 1315 -1 982 1315 1011 -1 1011 1315 1316 -1 1011 1316 1012 -1 1012 1316 1317 -1 1012 1317 1013 -1 1013 1317 1318 -1 1013 1318 1014 -1 1014 1318 1319 -1 1014 1319 1015 -1 1015 1319 1320 -1 1015 1320 1016 -1 1016 1320 1321 -1 1016 1321 1017 -1 1017 1321 1322 -1 1017 1322 1018 -1 1018 1322 1323 -1 1018 1323 1019 -1 1019 1323 1324 -1 1019 1324 1020 -1 1020 1324 1325 -1 1020 1325 946 -1 946 1325 1326 -1 946 1326 1021 -1 1021 1326 1327 -1 1021 1327 1022 -1 1022 1327 1328 -1 1022 1328 1023 -1 1023 1328 1329 -1 1023 1329 1024 -1 1024 1329 1330 -1 1024 1330 1025 -1 1025 1330 1331 -1 1025 1331 945 -1 945 1331 1332 -1 945 1332 944 -1 363 1299 381 -1 381 1299 1288 -1 381 1288 371 -1 371 1288 1287 -1 371 1287 372 -1 372 1287 1278 -1 372 1278 374 -1 374 1278 203 -1 374 203 71 -1 173 175 1220 -1 1220 175 947 -1 1220 947 1265 -1 1265 947 1250 -1 1265 1250 1266 -1 1266 1250 1298 -1 1266 1298 1267 -1 1267 1298 1308 -1 1267 1308 1009 -1 1009 1308 1307 -1 1009 1307 1010 -1 1010 1307 1306 -1 1010 1306 1027 -1 1027 1306 1305 -1 1027 1305 1029 -1 1029 1305 1304 -1 1029 1304 1031 -1 1031 1304 1303 -1 1031 1303 1033 -1 1033 1303 1302 -1 1033 1302 1035 -1 1035 1302 1301 -1 1035 1301 1037 -1 1037 1301 1300 -1 1037 1300 1039 -1 1039 1300 1299 -1 1039 1299 1041 -1 1041 1299 363 -1 1041 363 362 -1 162 164 1221 -1 1221 164 1208 -1 1221 1208 1222 -1 1222 1208 1252 -1 1222 1252 1223 -1 1223 1252 1254 -1 1223 1254 1224 -1 1224 1254 1256 -1 1224 1256 1225 -1 1225 1256 1258 -1 1225 1258 1226 -1 1226 1258 1260 -1 1226 1260 1227 -1 1227 1260 1261 -1 1227 1261 1228 -1 1228 1261 1008 -1 1228 1008 1230 -1 1230 1008 1026 -1 1230 1026 1232 -1 1232 1026 1028 -1 1232 1028 1234 -1 1234 1028 1030 -1 1234 1030 1236 -1 1236 1030 1032 -1 1236 1032 1238 -1 1238 1032 1034 -1 1238 1034 1240 -1 1240 1034 1036 -1 1240 1036 1242 -1 1242 1036 1038 -1 1242 1038 1244 -1 1244 1038 1040 -1 1244 1040 1246 -1 1246 1040 1042 -1 1246 1042 1043 -1 1043 1042 387 -1 1043 387 405 -1 955 964 956 -1 956 964 1046 -1 956 1046 1092 -1 1092 1046 1048 -1 1092 1048 1094 -1 1094 1048 1050 -1 1094 1050 1096 -1 1096 1050 1052 -1 1096 1052 1098 -1 1098 1052 1054 -1 1098 1054 1100 -1 1100 1054 1056 -1 1100 1056 1102 -1 1102 1056 1058 -1 1102 1058 1104 -1 1104 1058 1060 -1 1104 1060 1106 -1 1106 1060 1062 -1 1106 1062 1108 -1 1108 1062 1064 -1 1108 1064 1110 -1 1110 1064 1066 -1 1110 1066 1112 -1 1112 1066 1068 -1 1112 1068 1114 -1 1114 1068 1070 -1 1114 1070 1116 -1 1116 1070 1072 -1 1116 1072 1118 -1 1118 1072 1074 -1 1118 1074 1120 -1 1120 1074 1076 -1 1120 1076 1122 -1 1122 1076 1078 -1 1122 1078 1124 -1 1124 1078 1080 -1 1124 1080 1126 -1 1126 1080 1082 -1 1126 1082 1128 -1 1128 1082 1084 -1 1128 1084 1130 -1 1130 1084 1086 -1 1130 1086 1132 -1 1132 1086 1088 -1 1132 1088 1134 -1 1134 1088 1090 -1 1134 1090 1136 -1 1136 1090 1091 -1 1136 1091 1138 -1 1138 1091 398 -1 1138 398 369 -1 966 965 1333 -1 1333 965 1093 -1 1333 1093 1334 -1 1334 1093 1095 -1 1334 1095 1335 -1 1335 1095 1097 -1 1335 1097 1336 -1 1336 1097 1099 -1 1336 1099 1337 -1 1337 1099 1101 -1 1337 1101 1338 -1 1338 1101 1103 -1 1338 1103 1339 -1 1339 1103 1105 -1 1339 1105 1340 -1 1340 1105 1107 -1 1340 1107 1341 -1 1341 1107 1109 -1 1341 1109 1342 -1 1342 1109 1111 -1 1342 1111 1343 -1 1343 1111 1113 -1 1343 1113 1344 -1 1344 1113 1115 -1 1344 1115 1345 -1 1345 1115 1117 -1 1345 1117 1346 -1 1346 1117 1119 -1 1346 1119 1347 -1 1347 1119 1121 -1 1347 1121 1348 -1 1348 1121 1123 -1 1348 1123 1349 -1 1349 1123 1125 -1 1349 1125 1350 -1 1350 1125 1127 -1 1350 1127 1351 -1 1351 1127 1129 -1 1351 1129 1352 -1 1352 1129 1131 -1 1352 1131 1353 -1 1353 1131 1133 -1 1353 1133 1354 -1 1354 1133 1135 -1 1354 1135 1355 -1 1355 1135 1137 -1 1355 1137 1356 -1 1356 1137 1139 -1 1356 1139 1357 -1 1357 1139 366 -1 1357 366 365 -1 23 27 395 -1 395 27 944 -1 395 944 365 -1 365 944 1332 -1 365 1332 1357 -1 1357 1332 1331 -1 1357 1331 1356 -1 1356 1331 1330 -1 1356 1330 1355 -1 1355 1330 1329 -1 1355 1329 1354 -1 1354 1329 1328 -1 1354 1328 1353 -1 1353 1328 1327 -1 1353 1327 1352 -1 1352 1327 1326 -1 1352 1326 1351 -1 1351 1326 1325 -1 1351 1325 1350 -1 1350 1325 1324 -1 1350 1324 1349 -1 1349 1324 1323 -1 1349 1323 1348 -1 1348 1323 1322 -1 1348 1322 1347 -1 1347 1322 1321 -1 1347 1321 1346 -1 1346 1321 1320 -1 1346 1320 1345 -1 1345 1320 1319 -1 1345 1319 1344 -1 1344 1319 1318 -1 1344 1318 1343 -1 1343 1318 1317 -1 1343 1317 1342 -1 1342 1317 1316 -1 1342 1316 1341 -1 1341 1316 1315 -1 1341 1315 1340 -1 1340 1315 1314 -1 1340 1314 1339 -1 1339 1314 1313 -1 1339 1313 1338 -1 1338 1313 1312 -1 1338 1312 1337 -1 1337 1312 1311 -1 1337 1311 1336 -1 1336 1311 1310 -1 1336 1310 1335 -1 1335 1310 1309 -1 1335 1309 1334 -1 1334 1309 967 -1 1334 967 1333 -1 1333 967 969 -1 1333 969 966 -1 41 39 1358 -1 41 1358 1359 -1 1359 1358 136 -1 1359 136 135 -1 1360 1361 59 -1 59 1361 6 -1 59 6 4 -1 1360 59 1362 -1 1362 59 58 -1 1362 58 1363 -1 1363 58 1364 -1 1364 58 57 -1 1364 57 1365 -1 1365 57 1366 -1 1366 57 56 -1 1366 56 1367 -1 1367 56 1368 -1 1368 56 55 -1 1368 55 1369 -1 1369 55 54 -1 1369 54 1370 -1 1370 54 1371 -1 1371 54 45 -1 1371 45 1372 -1 1372 45 1373 -1 1373 45 44 -1 1373 44 1374 -1 1374 44 1375 -1 1375 44 40 -1 1375 40 41 -1 1375 41 1140 -1 1140 41 1359 -1 1140 1359 135 -1 1140 1142 1375 -1 1375 1142 1161 -1 1375 1161 1374 -1 1374 1161 1155 -1 1374 1155 1373 -1 1373 1155 1147 -1 1373 1147 1372 -1 1372 1147 1146 -1 1372 1146 1371 -1 1146 1144 1371 -1 1371 1144 1143 -1 1371 1143 1370 -1 1370 1143 962 -1 1370 962 1369 -1 1369 962 1150 -1 1369 1150 1368 -1 1368 1150 1149 -1 1368 1149 1367 -1 1367 1149 1148 -1 1367 1148 1366 -1 1366 1148 958 -1 1366 958 1365 -1 958 957 1365 -1 1365 957 963 -1 1365 963 1364 -1 1364 963 955 -1 1364 955 1363 -1 1363 955 954 -1 1363 954 1362 -1 1362 954 966 -1 1362 966 1360 -1 6 1361 968 -1 968 1361 1360 -1 968 1360 969 -1 969 1360 966 -1 943 108 559 -1 559 603 943 -1 943 603 590 -1 943 590 942 -1 942 590 563 -1 942 563 941 -1 941 563 562 -1 941 562 940 -1 562 564 940 -1 940 564 566 -1 940 566 939 -1 939 566 567 -1 939 567 938 -1 938 567 569 -1 938 569 937 -1 937 569 571 -1 937 571 936 -1 936 571 572 -1 936 572 935 -1 935 572 574 -1 935 574 934 -1 574 576 934 -1 934 576 578 -1 934 578 933 -1 933 578 790 -1 933 790 932 -1 932 790 518 -1 932 518 931 -1 136 1358 520 -1 520 1358 621 -1 518 517 931 -1 931 517 581 -1 931 581 930 -1 930 581 580 -1 930 580 929 -1 929 580 621 -1 929 621 928 -1 928 621 1358 -1 928 1358 39 -1 63 2 1376 -1 1376 2 1 -1 1376 1 1377 -1 1377 1 68 -1 1377 68 61 -1 61 68 62 -1 1377 1378 1376 -1 1376 1378 1379 -1 1376 1379 1380 -1 1378 1377 66 -1 66 1377 61 -1 64 1380 65 -1 65 1380 1379 -1 65 1379 66 -1 66 1379 1378 -1 1376 1380 63 -1 63 1380 64 -1 "
						                >
							<Coordinate DEF="coords_ME_OMLV4_Packing_-_For_Xander_-_AIM-120_LAU176_Pylon_Assy-5_LAU179"
							            point="338.680939 82.892075 521.884399 339.380188 82.193130 521.884399 427.264526 82.193130 521.884399 428.139984 82.734825 521.884399 428.139984 87.891579 521.884399 427.264526 82.734825 521.884399 328.025391 87.891579 521.884399 326.768768 87.773834 521.884399 323.501190 84.276970 521.884399 323.587280 84.181679 521.884399 323.656738 84.073662 521.884399 323.707733 83.955788 521.884399 324.472290 83.703201 521.884399 323.738861 83.831200 521.884399 323.749329 83.703201 521.884399 324.472290 82.892075 521.884399 326.237762 87.665527 521.884399 325.631439 87.490082 521.884399 323.400757 84.357002 521.884399 325.376678 87.396957 521.884399 324.843292 87.155525 521.884399 323.288635 84.419632 521.884399 324.145020 86.717514 521.884399 323.167816 84.463211 521.884399 323.332458 86.008812 521.884399 322.965668 85.591141 521.884399 322.702148 85.067856 521.884399 322.970428 84.531631 521.884399 322.869873 84.584045 521.884399 322.807953 85.345642 521.884399 322.730377 85.168602 521.884399 322.740784 84.701401 521.884399 322.769867 84.664330 521.884399 322.809937 84.626556 521.884399 322.685852 84.949944 521.884399 322.687958 84.859756 521.884399 322.700714 84.791237 521.884399 322.716705 84.745720 521.884399 428.139984 88.678986 517.671814 328.025391 88.678986 517.671814 428.139984 88.678986 521.096985 328.025391 88.678986 521.096985 428.139984 82.734825 516.884399 428.139984 87.891579 516.884399 428.139984 88.667023 521.233765 428.139984 88.631500 521.366333 428.139984 88.397713 517.068604 428.139984 88.285286 516.989929 428.139984 88.028313 516.896362 428.139984 88.160889 516.931885 428.139984 88.494766 517.165649 428.139984 88.573494 517.278137 428.139984 88.631500 517.402527 428.139984 88.667023 517.535095 428.139984 88.573494 521.490723 428.139984 88.494766 521.603149 428.139984 88.397713 521.700195 428.139984 88.285286 521.778931 428.139984 88.160889 521.836914 428.139984 88.028313 521.872437 427.264526 82.734825 516.884399 427.264526 82.193130 518.459229 427.264526 82.193130 516.884399 427.264526 82.193130 520.309631 427.264526 80.773064 520.309631 427.264526 80.834480 519.384399 427.264526 80.773064 518.459229 338.680939 82.892075 516.884399 339.380188 82.193130 516.884399 324.472290 82.892075 516.884399 324.472290 83.703201 516.884399 322.961945 83.703201 521.096985 322.961945 83.703201 517.671814 323.067444 83.703201 517.278137 323.090302 83.703201 517.240967 323.067444 83.703201 521.490723 323.090302 83.703201 521.527893 323.243195 83.703201 521.700195 323.192566 83.703201 521.653809 323.606049 83.703201 521.871277 323.049896 83.703201 521.458679 323.009430 83.703201 521.366333 322.992340 83.703201 521.313660 323.612610 83.703201 521.872437 323.146149 83.703201 521.603149 322.973907 83.703201 521.233765 322.965118 83.703201 521.167786 322.965118 83.703201 517.601074 322.973907 83.703201 517.535095 322.992340 83.703201 517.455139 323.009430 83.703201 517.402527 323.049896 83.703201 517.310181 323.532684 83.703201 516.914795 323.612610 83.703201 516.896362 323.749329 83.703201 516.884399 323.480042 83.703201 521.836914 323.459503 83.703201 521.829102 323.355652 83.703201 521.778931 323.318451 83.703201 521.756042 323.146149 83.703201 517.165649 323.192566 83.703201 517.115051 323.243195 83.703201 517.068604 323.355652 83.703201 516.989929 323.387695 83.703201 516.972351 323.480042 83.703201 516.931885 323.235138 85.908157 516.884399 323.977875 86.588829 516.884399 323.114929 84.478447 516.884399 328.025391 87.891579 516.884399 323.738861 83.831200 516.884399 323.656738 84.073662 516.884399 323.587280 84.181679 516.884399 323.707733 83.955788 516.884399 323.400757 84.357002 516.884399 323.288635 84.419632 516.884399 324.741913 87.101456 516.884399 323.167816 84.463211 516.884399 325.376648 87.396889 516.884399 325.514923 87.449059 516.884399 323.501190 84.276970 516.884399 326.513428 87.726639 516.884399 327.125336 87.825592 516.884399 322.708069 85.093262 516.884399 322.756653 85.237602 516.884399 322.841614 85.405907 516.884399 323.031128 85.675659 516.884399 322.694336 84.818024 516.884399 322.942444 84.544563 516.884399 322.685699 84.888260 516.884399 322.688080 84.979424 516.884399 322.753784 84.683350 516.884399 322.787292 84.646553 516.884399 322.844757 84.600410 516.884399 322.728729 84.721321 516.884399 322.709259 84.764381 516.884399 328.005096 88.678719 521.096985 328.005096 88.678719 517.671814 327.028656 88.607048 521.096985 327.028687 88.607056 517.671814 326.496399 88.525261 521.096985 326.496399 88.525261 517.671814 326.053040 88.431053 521.096985 325.396057 88.241737 517.671814 325.396057 88.241737 521.096985 325.089691 88.130127 517.671814 324.618652 87.923950 521.096985 324.397491 87.810455 517.671814 324.397491 87.810455 521.096985 324.161041 87.675591 517.671814 323.727417 87.387779 521.096985 323.529083 87.237762 517.671814 323.529083 87.237762 521.096985 323.327606 87.073814 517.671814 322.957367 86.743057 521.096985 322.621429 86.404541 517.671814 322.621429 86.404541 521.096985 322.601074 86.382355 517.671814 322.423126 86.176010 521.096985 322.251434 85.945084 517.671814 322.251434 85.945084 521.096985 322.079468 85.650070 521.096985 322.079437 85.650040 517.671814 322.059692 85.608528 521.096985 322.059692 85.608528 517.671814 322.005371 85.479080 521.096985 322.005402 85.479172 517.671814 321.962463 85.351364 521.096985 321.962463 85.351364 517.671814 321.944275 85.284576 521.096985 321.944336 85.284821 517.671814 321.908600 85.093964 521.096985 321.908600 85.093964 517.671814 321.904968 85.061783 517.671814 321.897705 84.937553 521.096985 321.898163 84.876732 517.671814 321.898163 84.876732 521.096985 321.902557 84.801476 521.096985 321.902557 84.801445 517.671814 321.918915 84.680710 521.096985 322.038696 84.342018 517.671814 322.014954 84.387756 521.096985 321.975128 84.479576 517.671814 321.966187 84.503891 521.096985 321.966187 84.503891 517.671814 321.945740 84.567375 521.096985 321.925049 84.650009 517.671814 321.918915 84.680710 517.671814 322.617340 83.827286 517.671814 322.528992 83.871887 521.096985 322.410828 83.943298 517.671814 322.410828 83.943298 521.096985 322.312469 84.016197 517.671814 322.312469 84.016190 521.096985 322.255798 84.065514 517.671814 322.255798 84.065514 521.096985 322.188538 84.133232 517.671814 322.188538 84.133232 521.096985 322.135895 84.195274 517.671814 322.135895 84.195274 521.096985 322.065735 84.295647 517.671814 322.065735 84.295654 521.096985 322.038696 84.342018 521.096985 322.800232 83.753098 517.671814 322.800232 83.753098 521.096985 322.617340 83.827286 521.096985 323.015106 83.899467 517.143799 323.022217 83.925766 517.115112 323.050720 83.916054 517.115051 323.237823 84.364616 516.887573 322.963531 83.705956 517.601074 322.963501 83.705940 517.601440 323.384064 83.758659 516.972351 323.315430 83.749641 517.012756 323.306366 83.795288 517.012756 323.250549 83.741119 517.060486 323.190582 83.733238 517.115051 323.184723 83.762772 517.115051 323.089203 83.719917 517.240967 322.965088 83.703613 517.601074 323.243164 83.778389 517.060486 323.600586 83.787102 516.897583 323.527802 83.777542 516.914795 323.513306 83.850616 516.914795 323.455261 83.768013 516.939697 323.373230 83.813171 516.972351 322.965027 83.704025 517.601074 322.974976 83.704910 517.528503 322.964874 83.704414 517.601074 322.974640 83.706596 517.528503 322.992065 83.707161 517.455139 322.964691 83.704788 517.601074 322.974091 83.708221 517.528503 322.991302 83.711052 517.455139 323.016754 83.710403 517.381958 323.073151 83.767250 517.240967 323.114532 83.791084 517.175537 323.124695 83.770454 517.175537 322.964478 83.705139 517.601074 322.973328 83.709763 517.528503 322.990021 83.714806 517.455139 323.015350 83.717484 517.381958 323.049164 83.714661 517.310181 323.101807 83.810211 517.175537 323.063873 83.781197 517.240967 323.031799 83.756653 517.310181 322.964203 83.705452 517.601074 322.972382 83.711189 517.528503 322.988281 83.718369 517.455139 323.013031 83.724312 517.381958 323.046906 83.725922 517.310181 323.086670 83.827515 517.175537 323.052856 83.793808 517.240967 323.024231 83.765297 517.310181 323.001099 83.742226 517.381958 323.069397 83.842705 517.175537 323.040253 83.804878 517.240967 323.015625 83.772888 517.310181 322.995667 83.746994 517.381958 322.980499 83.727280 517.455139 322.963867 83.705727 517.601074 322.969971 83.713615 517.528503 322.971252 83.712479 517.528503 322.983459 83.724655 517.455139 322.986084 83.721672 517.455139 323.005829 83.736794 517.381958 323.009857 83.730789 517.381958 323.038177 83.747101 517.310181 323.043243 83.736794 517.310181 323.080566 83.752220 517.240967 323.085938 83.736351 517.240967 323.132050 83.748688 517.175537 323.136536 83.726135 517.175537 322.962494 83.705200 517.615112 323.050323 83.855515 517.175537 323.026367 83.814217 517.240967 323.006073 83.779282 517.310181 322.989685 83.751015 517.381958 322.977203 83.729492 517.455139 322.968536 83.714569 517.528503 323.584198 83.869568 516.897583 323.489410 83.921181 516.914795 323.557220 83.949203 516.897583 323.456512 83.988029 516.914795 323.520111 84.024651 516.897583 323.415222 84.050026 516.914795 323.473480 84.094620 516.897583 323.366180 84.106110 516.914795 323.418152 84.157913 516.897583 323.310242 84.155334 516.914795 323.355042 84.213463 516.897583 323.248383 84.196846 516.914795 323.285217 84.260323 516.897583 323.181641 84.229958 516.914795 323.209900 84.297684 516.897583 323.029724 83.865730 517.175537 323.011353 83.821655 517.240967 322.995789 83.784386 517.310181 322.983215 83.754227 517.381958 322.973633 83.731255 517.455139 322.967010 83.715332 517.528503 323.175079 83.791283 517.115051 323.230988 83.814377 517.060486 323.161804 83.818291 517.115051 323.214203 83.848473 517.060486 323.145111 83.843346 517.115051 323.193115 83.880096 517.060486 323.125275 83.866005 517.115051 323.168121 83.908707 517.060486 323.102692 83.885895 517.115051 323.139587 83.933807 517.060486 323.077698 83.902672 517.115051 323.108032 83.954987 517.060486 323.074005 83.971870 517.060486 323.039703 83.990242 517.055420 323.291443 83.839363 517.012756 323.355408 83.865807 516.972351 323.270905 83.881126 517.012756 323.330872 83.915672 516.972351 323.245087 83.919853 517.012756 323.300079 83.961922 516.972351 323.214447 83.954887 517.012756 323.263489 84.003754 516.972351 323.179535 83.985634 517.012756 323.221771 84.040474 516.972351 323.140869 84.011574 517.012756 323.175629 84.071442 516.972351 323.099182 84.032249 517.012756 323.125824 84.096138 516.972351 323.055176 84.047340 517.012756 323.068268 84.095711 516.982605 323.132172 84.331665 516.896240 323.099152 84.209732 516.929504 323.153473 84.162415 516.939697 323.211670 84.133553 516.939697 323.265594 84.097359 516.939697 323.314362 84.054451 516.939697 323.357086 84.005554 516.939697 323.393127 83.951508 516.939697 323.421783 83.893234 516.939697 323.442627 83.831718 516.939697 322.962952 83.706902 517.594666 323.007996 83.873230 517.175537 322.994476 83.823364 517.247009 322.984924 83.788109 517.310181 322.978424 83.764091 517.363037 322.969910 83.732597 517.455261 322.967773 83.724770 517.485962 322.965393 83.715973 517.528564 323.672485 83.796547 516.887573 323.654266 83.888306 516.887573 323.624268 83.976906 516.887573 323.582977 84.060844 516.887573 323.531097 84.138687 516.887573 323.469513 84.209114 516.887573 323.399292 84.270920 516.887573 323.321625 84.323051 516.887573 323.654266 83.888306 521.881226 323.624268 83.976906 521.881226 323.399292 84.270920 521.881226 323.321625 84.323051 521.881226 322.963531 83.705956 521.167786 322.963867 83.705727 521.167786 322.987610 83.797997 521.477783 322.976410 83.756592 521.386841 322.983215 83.754227 521.386841 323.119232 84.283806 521.862061 323.087097 84.165184 521.821350 323.153473 84.162415 521.829102 323.125824 84.096138 521.796448 323.070770 84.104942 521.791443 323.099182 84.032249 521.756042 322.970795 83.735909 521.325562 322.965027 83.714630 521.233276 322.967865 83.714668 521.239014 322.962921 83.706841 521.174194 322.963501 83.706017 521.168152 322.968536 83.714569 521.240295 322.964203 83.705452 521.167786 322.969971 83.713615 521.240295 322.977203 83.729492 521.313660 322.973633 83.731255 521.313660 322.973724 83.746727 521.359619 322.964478 83.705139 521.167786 322.971252 83.712479 521.240295 322.980499 83.727280 521.313660 322.989685 83.751015 521.386841 322.995789 83.784386 521.458679 322.996643 83.831276 521.534485 323.016754 83.710403 521.386841 323.049164 83.714661 521.458679 323.089203 83.719917 521.527893 322.965088 83.703613 521.167786 322.974976 83.704910 521.240295 322.992065 83.707161 521.313660 323.237823 84.364616 521.881226 323.152985 84.408463 521.882324 323.209900 84.297684 521.871277 323.181641 84.229958 521.854004 323.056732 84.053177 521.759949 323.055176 84.047356 521.756042 323.074005 83.971870 521.708313 323.029755 83.953575 521.681091 323.050720 83.916054 521.653809 323.022247 83.925819 521.653748 323.029724 83.865730 521.593323 323.006653 83.868256 521.587036 323.011353 83.821655 521.527893 323.285217 84.260323 521.871277 323.248383 84.196846 521.854004 323.211670 84.133553 521.829102 323.175629 84.071442 521.796448 323.140869 84.011574 521.756042 323.108032 83.954987 521.708313 323.077698 83.902672 521.653809 323.050323 83.855515 521.593323 323.026367 83.814217 521.527893 323.006073 83.779282 521.458679 323.355042 84.213463 521.871277 323.310242 84.155334 521.854004 323.265594 84.097359 521.829102 323.221771 84.040474 521.796448 323.179535 83.985634 521.756042 323.139587 83.933807 521.708313 323.102692 83.885895 521.653809 323.069397 83.842705 521.593323 323.040253 83.804878 521.527893 323.015625 83.772888 521.458679 322.995667 83.746994 521.386841 323.469513 84.209114 521.881226 323.418152 84.157913 521.871277 323.366180 84.106110 521.854004 323.314362 84.054451 521.829102 323.263489 84.003754 521.796448 323.214447 83.954887 521.756042 323.168121 83.908707 521.708313 323.125275 83.866005 521.653809 323.086670 83.827515 521.593323 323.052856 83.793808 521.527893 323.024231 83.765297 521.458679 323.001099 83.742226 521.386841 322.983459 83.724655 521.313660 323.531097 84.138687 521.881226 323.473480 84.094620 521.871277 323.415222 84.050026 521.854004 323.357086 84.005554 521.829102 323.300079 83.961922 521.796448 323.245087 83.919853 521.756042 323.193115 83.880096 521.708313 323.145111 83.843346 521.653809 323.101807 83.810211 521.593323 323.063873 83.781197 521.527893 323.031799 83.756653 521.458679 323.005829 83.736794 521.386841 322.986084 83.721672 521.313660 322.972382 83.711189 521.240295 323.582977 84.060844 521.881226 323.520111 84.024651 521.871277 323.456512 83.988029 521.854004 323.393127 83.951508 521.829102 323.330872 83.915672 521.796448 323.270905 83.881126 521.756042 323.214203 83.848473 521.708313 323.161804 83.818291 521.653809 323.114532 83.791084 521.593323 323.073151 83.767250 521.527893 323.038177 83.747101 521.458679 323.009857 83.730789 521.386841 322.988281 83.718369 521.313660 322.973328 83.709763 521.240295 322.964691 83.704788 521.167786 323.557220 83.949203 521.871277 323.489410 83.921181 521.854004 323.421783 83.893234 521.829102 323.355408 83.865807 521.796448 323.291443 83.839363 521.756042 323.230988 83.814377 521.708313 323.175079 83.791283 521.653809 323.124695 83.770454 521.593323 323.080566 83.752220 521.527893 323.043243 83.736794 521.458679 323.013031 83.724312 521.386841 322.990021 83.714806 521.313660 322.974091 83.708221 521.240295 322.964874 83.704414 521.167786 323.584198 83.869568 521.871277 323.513306 83.850616 521.854004 323.442627 83.831718 521.829102 323.373230 83.813171 521.796448 323.306366 83.795288 521.756042 323.243164 83.778389 521.708313 323.184723 83.762772 521.653809 323.132050 83.748688 521.593323 323.085938 83.736351 521.527893 323.046906 83.725922 521.458679 323.015350 83.717484 521.386841 322.991302 83.711052 521.313660 322.974640 83.706596 521.240295 322.965027 83.704025 521.167786 323.672485 83.796547 521.881226 323.600586 83.787102 521.871277 323.527802 83.777542 521.854004 323.455261 83.768013 521.829102 323.384064 83.758659 521.796448 323.315430 83.749641 521.756042 323.250549 83.741119 521.708313 323.190582 83.733238 521.653809 323.136536 83.726135 521.593323 324.208984 87.595940 517.300598 324.229492 87.561874 517.234375 323.805511 87.280418 517.234375 322.801514 83.756752 517.594666 322.082947 85.043755 517.172302 322.037140 85.048393 517.234375 322.072937 85.252563 517.234375 322.082916 85.648346 517.594666 325.091095 88.126572 517.594666 327.036041 88.547508 517.370483 328.006622 88.618767 517.370483 328.007263 88.594269 517.317017 327.029144 88.603226 517.594666 328.005188 88.674889 517.594666 326.053955 88.427338 517.594666 325.570007 88.294113 517.594666 324.253235 87.522423 517.172302 323.832611 87.243179 517.172302 324.162994 87.672340 517.594666 323.729675 87.384689 517.594666 323.330078 87.070869 517.594666 323.442780 86.937019 517.172302 323.413116 86.972244 517.234375 322.733124 86.261826 517.172302 322.699127 86.292870 517.234375 322.562164 86.063629 517.172302 322.526367 86.092598 517.234375 322.395203 85.838333 517.172302 322.356964 85.863983 517.234375 322.240112 85.571526 517.172302 322.198761 85.591743 517.234375 322.603882 86.379784 517.594666 322.426117 86.173706 517.594666 322.249908 85.935822 517.594666 322.117615 85.241356 517.172302 322.221344 85.397591 517.114990 322.167938 85.228737 517.114990 322.338104 85.523643 517.063110 321.947845 85.283936 517.594666 322.009216 85.477745 517.594666 322.030334 84.935509 517.234375 322.076385 84.934837 517.172302 322.034760 84.812950 517.234375 321.906311 84.801773 517.594666 321.901398 84.937370 517.594666 321.908875 85.061401 517.594666 321.928833 84.650833 517.594666 322.006897 84.491684 517.443237 322.003357 84.584076 517.370483 322.031189 84.500931 517.370483 322.016052 84.669395 517.300598 322.062042 84.512688 517.300598 328.023895 87.949593 516.886536 327.115875 87.902191 516.888184 327.088348 88.124611 516.944397 328.017365 88.202705 516.948547 328.019226 88.130600 516.921570 328.016235 88.246284 516.968933 327.079773 88.193939 516.977417 328.015808 88.262611 516.977417 328.014435 88.316742 517.009155 327.071625 88.259735 517.017090 328.013489 88.353081 517.033936 327.064026 88.321335 517.063110 328.011749 88.420578 517.088745 328.011047 88.448128 517.114990 327.057007 88.378105 517.114990 328.009430 88.509766 517.184509 327.050629 88.429573 517.172302 328.008942 88.529213 517.210266 327.044983 88.475273 517.234375 328.008514 88.545998 517.234375 327.032867 88.573296 517.443237 328.005951 88.644745 517.443237 328.006226 88.634659 517.412231 326.084198 88.302002 517.234375 326.095001 88.257240 517.172302 326.107147 88.206825 517.114990 326.120575 88.151207 517.063110 326.135132 88.090874 517.017090 326.150665 88.026421 516.977417 326.167053 87.958511 516.944397 327.097290 88.052422 516.918274 328.020569 88.078362 516.906860 326.219604 87.740646 516.888184 325.779663 87.619576 516.888184 325.756989 87.692566 516.899475 325.608276 88.170998 517.234375 325.621948 88.127029 517.172302 325.637329 88.077499 517.114990 325.654297 88.022873 517.063110 325.672729 87.963608 517.017090 325.692413 87.900291 516.977417 325.713165 87.833588 516.944397 326.184113 87.887802 516.918274 327.106476 87.978050 516.899475 328.022369 88.008865 516.893188 325.293335 87.609734 516.918274 325.320648 87.539948 516.899475 325.348511 87.468765 516.888184 325.138062 88.006508 517.234375 325.154846 87.963631 517.172302 325.173767 87.915337 517.114990 325.194611 87.862061 517.063110 325.217224 87.804260 517.017090 325.241394 87.742523 516.977417 325.266846 87.677467 516.944397 325.734741 87.764130 516.918274 326.201691 87.814949 516.899475 324.620361 87.920494 517.594666 325.095245 88.115967 517.518188 325.573364 88.283241 517.518188 326.056641 88.416267 517.518188 327.030548 88.591927 517.518188 328.005402 88.667206 517.538086 324.625336 87.910263 517.518188 325.102081 88.098488 517.443237 325.578949 88.265320 517.443237 326.061035 88.398026 517.443237 323.896759 87.154968 517.063110 324.309479 87.428970 517.063110 323.933258 87.104767 517.017090 324.341492 87.375793 517.017090 323.972260 87.051147 516.977417 324.375671 87.318985 516.977417 324.013336 86.994652 516.944397 324.411713 87.259132 516.944397 324.449219 87.196808 516.918274 323.513031 86.853592 517.063110 323.553009 86.806114 517.017090 323.595734 86.755402 516.977417 323.640717 86.701965 516.944397 324.056122 86.935829 516.918274 324.487854 87.132599 516.899475 322.813690 86.188301 517.063110 322.859528 86.146461 517.017090 322.908508 86.101768 516.977417 322.960114 86.054672 516.944397 323.687561 86.646324 516.918274 324.100189 86.875221 516.899475 324.527283 87.067108 516.888184 324.145142 86.813400 516.888184 323.735840 86.589005 516.899475 323.013824 86.005638 516.918274 322.801025 85.870300 516.944397 322.746735 85.914253 516.977417 322.695190 85.955963 517.017090 322.646942 85.995010 517.063110 323.785065 86.530533 516.888184 323.069183 85.955124 516.899475 322.857574 85.824539 516.918274 322.650360 85.667130 516.944397 322.592346 85.706047 516.977417 322.537292 85.742989 517.017090 322.485779 85.777565 517.063110 323.125641 85.903595 516.888184 322.915833 85.777397 516.899475 322.710754 85.626602 516.918274 322.516205 85.436615 516.944397 322.453430 85.467285 516.977417 322.393860 85.496391 517.017090 322.172852 85.415916 517.172302 322.286713 85.548759 517.114990 322.438263 85.809441 517.114990 322.602478 86.030998 517.114990 322.771423 86.226868 517.114990 323.476196 86.897354 517.114990 323.863098 87.201233 517.114990 324.279968 87.477982 517.114990 322.975250 85.729309 516.888184 322.772980 85.584854 516.899475 322.581543 85.404686 516.918274 322.415741 85.166580 516.944397 322.347961 85.183578 516.977417 322.283661 85.199715 517.017090 322.223419 85.214813 517.063110 322.836456 85.542267 516.888184 322.648865 85.371780 516.899475 322.486328 85.148880 516.918274 322.388641 85.012756 516.944397 322.319153 85.019798 516.977417 322.253174 85.026489 517.017090 322.191437 85.032753 517.063110 322.134521 85.038521 517.114990 322.129791 85.432190 517.234375 322.080627 84.816940 517.172302 322.099976 84.687248 517.172302 322.054932 84.677666 517.234375 322.142242 84.543221 517.172302 322.099213 84.526833 517.234375 322.717529 85.338226 516.888184 322.633179 85.112038 516.888184 322.559021 85.130638 516.899475 322.535553 84.997856 516.899475 322.460999 85.005417 516.918274 322.459259 84.849869 516.918274 322.386780 84.843567 516.944397 322.400513 84.751205 516.944397 322.317200 84.837517 516.977417 322.332184 84.736671 516.977417 322.251129 84.831772 517.017090 322.267365 84.722870 517.017090 322.189301 84.826393 517.063110 322.206665 84.709953 517.063110 322.132294 84.821434 517.114990 322.150696 84.698044 517.114990 321.949432 84.568451 517.594666 321.939972 84.653206 517.518188 321.917633 84.802765 517.518188 321.912781 84.937210 517.518188 321.920197 85.060257 517.518188 321.958893 85.281174 517.518188 322.019836 85.473724 517.518188 322.093140 85.643349 517.518188 322.259369 85.929474 517.518188 322.434967 86.166542 517.518188 322.612305 86.372108 517.518188 323.337433 87.062157 517.518188 323.736389 87.375481 517.518188 324.168884 87.662582 517.518188 324.633575 87.893387 517.443237 325.111542 88.074295 517.370483 325.586670 88.240509 517.370483 326.067139 88.372765 517.370483 322.611572 84.990150 516.888184 322.533936 84.856369 516.899475 322.471649 84.766342 516.918274 322.429413 84.652580 516.944397 322.364105 84.627716 516.977417 322.302155 84.604126 517.017090 322.244171 84.582039 517.063110 322.190704 84.561676 517.114990 323.782135 87.312576 517.300598 323.387512 87.002663 517.300598 322.669739 86.319672 517.300598 322.495453 86.117615 517.300598 322.323944 85.886139 517.300598 322.163025 85.609200 517.300598 322.092590 85.446236 517.300598 322.034363 85.262238 517.300598 321.997559 85.052406 517.300598 321.990570 84.936081 517.300598 321.995148 84.809502 517.300598 324.659424 87.840340 517.300598 324.191956 87.624237 517.370483 323.762695 87.339287 517.370483 323.366241 87.027924 517.370483 322.645355 86.341942 517.370483 322.469757 86.138390 517.370483 322.296539 85.904541 517.370483 322.133362 85.623695 517.370483 322.061707 85.457909 517.370483 322.002319 85.270279 517.370483 321.964722 85.055740 517.370483 321.957550 84.936562 517.370483 321.962219 84.806648 517.370483 321.983765 84.662521 517.370483 321.978394 84.576843 517.443237 321.989349 84.485008 517.518188 322.191376 84.135834 517.594666 322.128204 84.211456 517.594666 322.069000 84.297661 517.594666 322.018402 84.389450 517.594666 321.978699 84.480949 517.594666 321.960388 84.571625 517.518188 321.958344 84.657112 517.443237 321.936340 84.804398 517.443237 321.931549 84.936935 517.443237 321.938873 85.058365 517.443237 321.977112 85.276604 517.443237 322.037415 85.467087 517.443237 322.110016 85.635109 517.443237 322.274963 85.919022 517.443237 322.449585 86.154739 517.443237 322.626160 86.359459 517.443237 323.349518 87.047798 517.443237 323.747406 87.360306 517.443237 324.178558 87.646500 517.443237 324.644958 87.870026 517.370483 325.123596 88.043541 517.300598 325.596466 88.208969 517.300598 326.074860 88.340660 517.300598 327.040100 88.514732 517.300598 328.007599 88.581268 517.292358 322.610077 84.862991 516.888184 322.544952 84.781944 516.899475 322.497375 84.678459 516.918274 322.451569 84.601456 516.944397 322.388824 84.570747 516.977417 322.329285 84.541603 517.017090 322.273529 84.514320 517.063110 322.222137 84.489166 517.114990 322.175568 84.466370 517.172302 322.134216 84.446129 517.234375 322.098480 84.428650 517.300598 322.068817 84.414131 517.370483 322.045502 84.402710 517.443237 322.028625 84.394455 517.518188 322.619720 84.797852 516.888184 322.567413 84.705132 516.899475 322.516907 84.633430 516.918274 322.479401 84.550957 516.944397 322.419952 84.514267 516.977417 322.363556 84.479446 517.017090 322.310730 84.446846 517.063110 322.262054 84.416801 517.114990 322.217926 84.389565 517.172302 322.178741 84.365379 517.234375 322.144897 84.344498 517.300598 322.116791 84.327148 517.370483 322.094666 84.313499 517.443237 322.078705 84.303642 517.518188 322.638824 84.732330 516.888184 322.584198 84.666374 516.899475 322.541290 84.589157 516.918274 322.511993 84.503510 516.944397 322.456421 84.461205 516.977417 322.403656 84.421059 517.017090 322.354248 84.383469 517.063110 322.308716 84.348824 517.114990 322.267456 84.317421 517.172302 322.230804 84.289536 517.234375 322.199188 84.265457 517.300598 322.172882 84.245453 517.370483 322.152222 84.229721 517.443237 322.137268 84.218353 517.518188 322.652863 84.699974 516.888184 322.605072 84.628517 516.899475 322.569885 84.547554 516.918274 322.547424 84.461113 516.944397 322.495850 84.413994 516.977417 322.446899 84.369278 517.017090 322.401093 84.327415 517.063110 322.358856 84.288826 517.114990 322.320557 84.253845 517.172302 322.286560 84.222794 517.234375 322.257202 84.195969 517.300598 322.232819 84.173691 517.370483 322.213654 84.156166 517.443237 322.199799 84.143509 517.518188 322.254150 84.072235 517.594666 322.670105 84.668663 516.888184 322.690338 84.639229 516.888184 322.629517 84.592934 516.899475 322.656433 84.560715 516.899475 322.601105 84.510170 516.918274 322.666229 84.448807 516.918274 322.620209 84.392502 516.944397 322.691681 84.340324 516.944397 322.575989 84.338425 516.977417 322.653473 84.281845 516.977417 322.533997 84.287102 517.017090 322.617188 84.226341 517.017090 322.494720 84.239059 517.063110 322.583252 84.174385 517.063110 322.458496 84.194771 517.114990 322.551941 84.126495 517.114990 322.425690 84.154625 517.172302 322.523590 84.083084 517.172302 322.396515 84.118980 517.234375 322.498383 84.044533 517.234375 322.371368 84.088196 517.300598 322.476624 84.011246 517.300598 322.350464 84.062630 517.370483 322.458557 83.983597 517.370483 322.334015 84.042511 517.443237 322.444366 83.961845 517.443237 322.322113 84.027985 517.518188 322.434082 83.946129 517.518188 322.314911 84.019173 517.594666 322.427856 83.936600 517.594666 322.868134 84.495911 516.888184 322.712860 84.612267 516.888184 322.713684 84.506821 516.899475 322.731476 84.401215 516.918274 322.761108 84.298996 516.944397 322.727753 84.237625 516.977417 322.696106 84.179367 517.017090 322.666443 84.124840 517.063110 322.639130 84.074577 517.114990 322.614380 84.029007 517.172302 322.592377 83.988548 517.234375 322.573395 83.953613 517.300598 322.557648 83.924599 517.370483 322.545227 83.901764 517.443237 322.536255 83.885277 517.518188 322.530823 83.875275 517.594666 322.762085 84.565994 516.888184 322.772461 84.463951 516.899475 322.795837 84.362907 516.918274 322.828888 84.264992 516.944397 322.799530 84.201591 516.977417 322.771698 84.141418 517.017090 322.745636 84.085083 517.063110 322.721619 84.033165 517.114990 322.699829 83.986099 517.172302 322.680481 83.944305 517.234375 322.663788 83.908218 517.300598 322.649933 83.878242 517.370483 322.639008 83.854660 517.443237 322.631134 83.837624 517.518188 322.626343 83.827293 517.594666 322.984650 84.280655 516.918274 323.009369 84.351395 516.899475 322.890900 84.399017 516.899475 322.923004 84.468391 516.888184 322.814270 84.527939 516.888184 322.831635 84.428749 516.899475 322.859436 84.331001 516.918274 322.960632 84.211998 516.944397 322.937592 84.146049 516.977417 322.915710 84.083466 517.017090 322.895233 84.024879 517.063110 322.876373 83.970879 517.114990 322.859253 83.921928 517.172302 322.844055 83.878464 517.234375 322.830933 83.840927 517.300598 322.820038 83.809746 517.370483 322.811462 83.785217 517.443237 322.805267 83.767502 517.518188 323.034607 84.423546 516.888184 328.025391 88.670197 517.554504 328.025391 88.667023 517.535095 328.025391 88.641815 517.432739 328.025391 88.631500 517.402527 328.025391 88.594513 517.317017 328.025391 88.573494 517.278137 328.025391 88.529488 517.210205 328.025391 88.494766 517.165649 328.025391 88.448372 517.115051 328.025391 88.397713 517.068604 328.025391 88.353218 517.033936 328.025391 88.285286 516.989929 328.025391 88.246422 516.968872 328.025391 88.160889 516.931885 328.025391 88.130676 516.921570 328.025391 88.028313 516.896362 323.034607 84.423553 521.880554 322.923004 84.468399 521.880554 322.670135 84.668671 521.880554 321.906219 84.801788 521.174194 321.997589 85.052498 521.468140 322.037079 85.048485 521.534485 322.072968 85.252357 521.534485 324.633514 87.893463 521.325562 324.178497 87.646553 521.325562 324.191956 87.624207 521.398315 328.016235 88.246300 521.799927 328.015594 88.270927 521.786926 327.079681 88.194122 521.791443 328.013489 88.353027 521.734802 328.012817 88.378746 521.715393 327.063934 88.321487 521.705627 327.040039 88.514931 521.468140 327.044922 88.475548 521.534485 328.008301 88.554031 521.522278 328.014099 88.328873 521.751648 327.071564 88.259888 521.751648 327.088226 88.124802 521.824463 328.018677 88.151093 521.840332 327.106354 87.978165 521.869202 328.021942 88.025261 521.872864 328.019226 88.130577 521.847168 327.115723 87.902298 521.880554 327.056915 88.378357 521.653748 327.050537 88.429893 521.596558 326.094971 88.257217 521.596558 326.219635 87.740547 521.880554 325.348541 87.468834 521.880554 324.229462 87.561897 521.534485 325.138062 88.006699 521.534485 324.659393 87.840309 521.468140 325.123596 88.043655 521.468140 325.111572 88.074425 521.398315 324.527313 87.067085 521.880554 323.445587 86.227196 521.880554 323.785095 86.530548 521.880554 324.145142 86.813370 521.880554 326.107147 88.206741 521.653748 325.154816 87.963867 521.596558 325.173737 87.915504 521.653748 324.253174 87.522491 521.596558 324.279968 87.478004 521.653748 323.832520 87.243256 521.596558 323.863068 87.201263 521.653748 323.442719 86.937149 521.596558 323.476166 86.897430 521.653748 323.080231 86.613251 521.596558 323.115906 86.575539 521.653748 322.732910 86.262077 521.596558 322.771271 86.227058 521.653748 322.394958 85.838509 521.596558 322.438080 85.809570 521.653748 322.240021 85.571587 521.596558 322.286682 85.548790 521.653748 322.172516 85.415962 521.596558 322.221100 85.397614 521.653748 322.117584 85.241180 521.596558 322.167969 85.228569 521.653748 322.082825 85.043839 521.596558 322.134491 85.038589 521.653748 322.099121 84.526817 521.534485 322.062042 84.512695 521.468140 322.098511 84.428650 521.468140 323.125488 85.903625 521.880554 322.836395 85.542282 521.880554 322.717560 85.338203 521.880554 322.669800 85.228165 521.880554 322.633240 85.112083 521.880554 322.611603 84.990128 521.880554 322.610077 84.862991 521.880554 322.619720 84.797859 521.880554 322.638855 84.732338 521.880554 322.652863 84.699982 521.880554 322.690338 84.639229 521.880554 322.712891 84.612274 521.880554 322.762085 84.566002 521.880554 322.814270 84.527946 521.880554 322.868134 84.495918 521.880554 322.134155 84.446098 521.534485 322.144897 84.344513 521.468140 322.178650 84.365356 521.534485 322.199188 84.265450 521.468140 322.230774 84.289482 521.534485 322.257202 84.195976 521.468140 322.286499 84.222740 521.534485 322.371368 84.088203 521.468140 322.396484 84.118919 521.534485 322.476654 84.011253 521.468140 322.498352 84.044472 521.534485 322.573395 83.953621 521.468140 322.592346 83.988487 521.534485 322.663788 83.908226 521.468140 322.680450 83.944237 521.534485 322.830933 83.840935 521.468140 322.844025 83.878387 521.534485 322.859222 83.921806 521.596558 322.895233 84.024902 521.705627 326.120605 88.151054 521.705627 326.135162 88.090729 521.751648 325.194641 87.862152 521.705627 325.217255 87.804352 521.751648 324.309509 87.428925 521.705627 324.341522 87.375740 521.751648 323.896759 87.154930 521.705627 323.933258 87.104736 521.751648 323.513062 86.853607 521.705627 323.553040 86.806129 521.751648 323.155304 86.533928 521.705627 323.197968 86.488853 521.751648 322.813599 86.188431 521.705627 322.859436 86.146568 521.751648 322.485657 85.777641 521.705627 322.537201 85.743057 521.751648 322.338135 85.523636 521.705627 322.393890 85.496384 521.751648 322.274689 85.377373 521.705627 322.332764 85.355446 521.751648 322.223541 85.214661 521.705627 322.283752 85.199585 521.751648 322.191467 85.032806 521.705627 322.253204 85.026535 521.751648 322.189301 84.826408 521.705627 322.251160 84.831779 521.751648 322.206665 84.709946 521.705627 322.267365 84.722862 521.751648 322.244171 84.582047 521.705627 322.302185 84.604134 521.751648 322.273560 84.514328 521.705627 322.329285 84.541611 521.751648 322.310730 84.446869 521.705627 322.363556 84.479462 521.751648 322.354279 84.383476 521.705627 322.403656 84.421059 521.751648 322.401093 84.327423 521.705627 322.446899 84.369286 521.751648 322.494720 84.239067 521.705627 322.534027 84.287117 521.751648 322.583252 84.174400 521.705627 322.617218 84.226357 521.751648 322.666473 84.124855 521.705627 322.696106 84.179390 521.751648 322.745636 84.085106 521.705627 322.771698 84.141434 521.751648 322.915741 84.083488 521.751648 326.150696 88.026329 521.791443 326.167084 87.958435 521.824463 325.241394 87.742645 521.791443 325.266846 87.677597 521.824463 324.375702 87.318977 521.791443 324.411713 87.259140 521.824463 323.972229 87.051155 521.791443 324.013306 86.994667 521.824463 323.595703 86.755447 521.791443 323.640686 86.702019 521.824463 323.243500 86.440735 521.791443 323.291504 86.390007 521.824463 322.908356 86.101891 521.791443 322.959930 86.054794 521.824463 322.592224 85.706131 521.791443 322.650238 85.667206 521.824463 322.453430 85.467293 521.791443 322.516174 85.436630 521.824463 322.394745 85.332039 521.791443 322.460083 85.307365 521.824463 322.348022 85.183495 521.791443 322.415771 85.166527 521.824463 322.319122 85.019836 521.791443 322.388611 85.012779 521.824463 322.317169 84.837524 521.791443 322.386749 84.843575 521.824463 322.332184 84.736656 521.791443 322.400482 84.751198 521.824463 322.364075 84.627716 521.791443 322.429352 84.652565 521.824463 322.388794 84.570732 521.791443 322.451538 84.601440 521.824463 322.419922 84.514259 521.791443 322.479370 84.550941 521.824463 322.456390 84.461182 521.791443 322.511963 84.503479 521.824463 322.495819 84.413971 521.791443 322.547394 84.461082 521.824463 322.575958 84.338402 521.791443 322.620178 84.392471 521.824463 322.653442 84.281822 521.791443 322.691650 84.340286 521.824463 322.727722 84.237595 521.791443 322.761078 84.298958 521.824463 322.799530 84.201561 521.791443 322.828857 84.264946 521.824463 322.937592 84.146027 521.791443 322.960632 84.211952 521.824463 328.005157 88.676590 521.155029 327.029114 88.603500 521.174194 328.005188 88.674950 521.174194 328.007477 88.585747 521.468140 328.007263 88.594246 521.451782 327.035980 88.547729 521.398315 328.006744 88.614586 521.408203 328.005951 88.644852 521.325562 328.011017 88.448189 521.653748 328.010345 88.474487 521.626160 328.008942 88.529305 521.558655 326.084198 88.301926 521.534485 326.074890 88.340492 521.468140 326.067139 88.372612 521.398315 327.032806 88.573616 521.325562 328.005676 88.656288 521.283813 326.053955 88.427231 521.174194 325.091064 88.126762 521.174194 325.095184 88.116234 521.250610 326.061035 88.397964 521.325562 327.030487 88.592278 521.250610 328.005310 88.669975 521.214294 324.625275 87.910362 521.250610 322.034485 85.261993 521.468140 322.129486 85.432213 521.534485 322.092346 85.446228 521.468140 322.198700 85.591789 521.534485 322.163055 85.609207 521.468140 322.356781 85.864143 521.534485 322.323822 85.886253 521.468140 322.698944 86.293098 521.534485 322.669647 86.319855 521.468140 323.048615 86.646660 521.534485 323.021332 86.675476 521.468140 323.413086 86.972328 521.534485 323.387543 87.002686 521.468140 323.805481 87.280457 521.534485 323.782135 87.312546 521.468140 324.209015 87.595894 521.468140 324.644928 87.870010 521.398315 325.102051 88.098717 521.325562 326.056610 88.416237 521.250610 324.620331 87.920525 521.174194 324.162994 87.672348 521.174194 323.729645 87.384720 521.174194 323.330048 87.070946 521.174194 324.168823 87.662666 521.250610 323.736298 87.375572 521.250610 323.337341 87.062294 521.250610 322.967773 86.732079 521.250610 323.747375 87.360367 521.325562 323.349457 87.047913 521.325562 322.980713 86.718414 521.325562 322.625977 86.359726 521.325562 322.959991 86.740288 521.174194 322.603760 86.380028 521.174194 322.612091 86.372406 521.250610 322.426208 86.173515 521.174194 322.249725 85.935982 521.174194 322.082886 85.648392 521.174194 322.434998 86.166405 521.250610 322.259094 85.929680 521.250610 322.093048 85.643425 521.250610 322.019440 85.473763 521.250610 322.274719 85.919205 521.325562 322.109955 85.635170 521.325562 322.037048 85.467117 521.325562 321.977112 85.276352 521.325562 321.947906 85.283661 521.174194 323.762695 87.339272 521.398315 323.366241 87.027962 521.398315 322.998627 86.699478 521.398315 322.645264 86.342140 521.398315 322.296387 85.904671 521.398315 322.133362 85.623718 521.398315 322.061432 85.457901 521.398315 322.002441 85.270020 521.398315 321.964722 85.055832 521.398315 322.132233 84.821442 521.653748 322.076233 84.934937 521.596558 321.901306 84.937500 521.174194 322.008881 85.477753 521.174194 321.958893 85.280914 521.250610 321.938782 85.058472 521.325562 321.957489 84.936684 521.398315 321.990540 84.936195 521.468140 322.030243 84.935616 521.534485 322.080505 84.816940 521.596558 322.099854 84.687210 521.596558 322.150635 84.698013 521.653748 322.142120 84.543182 521.596558 322.190643 84.561661 521.653748 322.175446 84.466316 521.596558 322.222076 84.489143 521.653748 322.217804 84.389511 521.596558 322.261993 84.416779 521.653748 322.267365 84.317337 521.596558 322.308685 84.348778 521.653748 322.320465 84.253761 521.596558 322.358795 84.288788 521.653748 322.425598 84.154526 521.596558 322.458466 84.194725 521.653748 322.523499 84.082977 521.596558 322.551910 84.126442 521.653748 322.614319 84.028900 521.596558 322.639099 84.074516 521.653748 322.699768 83.985985 521.596558 322.721588 84.033104 521.653748 322.876343 83.970818 521.653748 321.928802 84.650795 521.174194 321.939850 84.653152 521.250610 321.908813 85.061508 521.174194 321.920074 85.060371 521.250610 321.912598 84.937340 521.250610 321.931427 84.937065 521.325562 321.936218 84.804398 521.325562 321.962219 84.806664 521.398315 321.983734 84.662498 521.398315 321.995148 84.809525 521.468140 322.016052 84.669373 521.468140 322.034668 84.812958 521.534485 322.054871 84.677635 521.534485 321.949402 84.568428 521.174194 321.978668 84.480942 521.174194 322.018372 84.389420 521.174194 321.917480 84.802773 521.250610 321.958252 84.657066 521.325562 322.003357 84.584076 521.398315 322.068970 84.297646 521.174194 322.128174 84.211418 521.174194 322.191345 84.135796 521.174194 321.960266 84.571579 521.250610 321.989227 84.484962 521.250610 322.028503 84.394394 521.250610 322.078583 84.303589 521.250610 322.137177 84.218262 521.250610 322.199677 84.143425 521.250610 322.322021 84.027885 521.250610 322.801514 83.756699 521.174194 322.626312 83.827240 521.174194 322.530792 83.875221 521.174194 322.427826 83.936554 521.174194 322.314880 84.019127 521.174194 322.254089 84.072205 521.174194 322.434021 83.946022 521.250610 322.536194 83.885155 521.250610 322.631073 83.837502 521.250610 322.805237 83.767372 521.250610 322.811432 83.785126 521.325562 322.638977 83.854568 521.325562 322.545166 83.901680 521.325562 322.444305 83.961761 521.325562 322.333923 84.042435 521.325562 322.213562 84.156105 521.325562 322.152130 84.229645 521.325562 322.094574 84.313461 521.325562 322.045410 84.402664 521.325562 322.006775 84.491661 521.325562 321.978302 84.576813 521.325562 322.820038 83.809746 521.398315 322.649933 83.878235 521.398315 322.557617 83.924591 521.398315 322.458557 83.983589 521.398315 322.350433 84.062622 521.398315 322.232819 84.173691 521.398315 322.172882 84.245445 521.398315 322.116791 84.327164 521.398315 322.068817 84.414124 521.398315 322.031158 84.500938 521.398315 326.201721 87.814842 521.869202 325.320709 87.540016 521.869202 324.487885 87.132568 521.869202 324.100189 86.875191 521.869202 323.735840 86.589012 521.869202 323.393066 86.282715 521.869202 323.069031 85.955170 521.869202 322.772919 85.584877 521.869202 322.648895 85.371758 521.869202 322.598297 85.255173 521.869202 322.559082 85.130646 521.869202 322.535553 84.997856 521.869202 322.533936 84.856369 521.869202 322.544952 84.781944 521.869202 322.567413 84.705139 521.869202 322.584229 84.666382 521.869202 322.605072 84.628532 521.869202 322.629517 84.592941 521.869202 322.656464 84.560722 521.869202 322.713684 84.506828 521.869202 322.772461 84.463959 521.869202 322.831635 84.428757 521.869202 322.890900 84.399025 521.869202 323.009369 84.351402 521.869202 327.097168 88.052574 521.850403 326.184143 87.887711 521.850403 325.293365 87.609833 521.850403 324.449249 87.196800 521.850403 324.056091 86.935814 521.850403 323.687561 86.646362 521.850403 323.341522 86.337158 521.850403 323.013672 86.005722 521.850403 322.710663 85.626656 521.850403 322.581543 85.404678 521.850403 322.528168 85.281654 521.850403 322.486359 85.148857 521.850403 322.460999 85.005432 521.850403 322.459259 84.849876 521.850403 322.471649 84.766342 521.850403 322.497345 84.678459 521.850403 322.516876 84.633423 521.850403 322.541290 84.589157 521.850403 322.569885 84.547546 521.850403 322.601105 84.510162 521.850403 322.666229 84.448799 521.850403 322.731445 84.401207 521.850403 322.795837 84.362892 521.850403 322.859406 84.330994 521.850403 322.984650 84.280640 521.850403 328.015228 88.678917 517.671814 328.015228 88.678917 521.096985 328.025391 88.130676 521.847229 328.025391 88.028313 521.872437 328.025391 88.160889 521.836914 328.025391 88.246422 521.799927 328.025391 88.285286 521.778931 328.025391 88.353218 521.734863 328.025391 88.397713 521.700195 328.025391 88.448372 521.653748 328.025391 88.494766 521.603149 328.025391 88.529488 521.558594 328.025391 88.573494 521.490723 328.025391 88.594513 521.451782 328.025391 88.631500 521.366333 328.025391 88.641815 521.336060 328.025391 88.667023 521.233765 328.025391 88.670197 521.214294 339.862976 82.193130 520.309631 339.862976 82.193130 518.459229 339.862976 80.773064 518.459229 339.862976 80.834480 519.384399 339.862976 80.773064 520.309631 "
							            />
						</IndexedFaceSet>
					</Shape>
				</Group>
			</Transform>
		</Transform>
	</Scene>
</X3D>