<?xml version="1.0" encoding="UTF-8"?>
<!DOCTYPE X3D PUBLIC "ISO//Web3D//DTD X3D 3.0//EN" "http://www.web3d.org/specifications/x3d-3.0.dtd">
<X3D version="3.0" profile="Immersive" xmlns:xsd="http://www.w3.org/2001/XMLSchema-instance" xsd:noNamespaceSchemaLocation="http://www.web3d.org/specifications/x3d-3.0.xsd">
	<head>
		<meta name="filename" content="OMLV4_Packing - For Xander - Refuler-1 Refuler_Probe-1.x3d" />
		<meta name="created" content="2026-04-19 20:21:18" />
		<meta name="generator" content="Blender 4.3.2" />
		<meta name="translator" content="Web3D X3D/VRML2 format v2.5.1" />
	</head>
	<Scene>
		<NavigationInfo headlight="true"
		                visibilityLimit="0.0"
		                type='"EXAMINE", "ANY"'
		                avatarSize="0.25, 1.75, 0.75"
		                />
		<Background DEF="WO_World"
		            groundColor="0.051 0.051 0.051"
		            skyColor="0.051 0.051 0.051"
		            />
		<Transform DEF="OMLV4_Packing_-_For_Xander_-_Refuler-1_Refuler_Probe-1_TRANSFORM"
		           translation="0.000000 0.000000 0.000000"
		           scale="1.000000 1.000000 1.000000"
		           rotation="-1.000000 0.000000 0.000000 1.570796"
		           >
			<Transform DEF="OMLV4_Packing_-_For_Xander_-_Refuler-1_Refuler_Probe-1_ifs_TRANSFORM"
			           translation="0.000000 0.000000 0.000000"
			           scale="1.000000 1.000000 1.000000"
			           rotation="0.000000 1.000000 0.000000 0.000000"
			           >
				<Group DEF="group_ME_OMLV4_Packing_-_For_Xander_-_Refuler-1_Refuler_Probe-1">
					<Shape>
						<Appearance>
						</Appearance>
						<IndexedFaceSet solid="false"
						                coordIndex="0 1 2 -1 3 4 5 -1 5 4 6 -1 5 6 7 -1 8 2 9 -1 9 2 10 -1 3 11 4 -1 4 11 12 -1 4 12 13 -1 13 12 14 -1 13 14 15 -1 15 14 16 -1 15 16 17 -1 17 16 18 -1 17 18 19 -1 19 18 20 -1 19 20 21 -1 21 20 22 -1 21 22 23 -1 24 25 22 -1 22 25 26 -1 27 28 2 -1 2 28 29 -1 2 29 0 -1 8 30 2 -1 2 30 31 -1 2 31 27 -1 10 2 32 -1 32 2 33 -1 32 33 34 -1 34 33 35 -1 34 35 36 -1 36 35 37 -1 36 37 38 -1 38 37 39 -1 38 39 40 -1 40 39 41 -1 40 41 42 -1 42 41 43 -1 42 43 44 -1 44 43 45 -1 44 45 46 -1 46 45 47 -1 46 47 48 -1 48 47 49 -1 48 49 50 -1 50 49 51 -1 50 51 52 -1 52 51 53 -1 52 53 54 -1 54 53 55 -1 54 55 56 -1 56 55 57 -1 56 57 58 -1 58 57 59 -1 58 59 60 -1 26 61 22 -1 22 61 62 -1 22 62 63 -1 63 64 22 -1 22 64 65 -1 22 65 23 -1 66 5 67 -1 67 5 7 -1 67 7 68 -1 68 7 69 -1 68 69 70 -1 70 69 71 -1 70 71 72 -1 72 71 73 -1 72 73 74 -1 74 73 75 -1 74 75 76 -1 76 75 77 -1 76 77 78 -1 78 77 79 -1 78 79 80 -1 80 79 81 -1 80 81 82 -1 82 81 83 -1 82 83 84 -1 84 83 60 -1 84 60 85 -1 85 60 59 -1 86 5 87 -1 87 5 66 -1 3 88 11 -1 11 88 89 -1 90 10 32 -1 90 32 91 -1 91 32 34 -1 91 34 92 -1 92 34 36 -1 92 36 93 -1 93 36 38 -1 93 38 94 -1 94 38 40 -1 94 40 95 -1 95 40 42 -1 95 42 96 -1 96 42 44 -1 96 44 97 -1 97 44 46 -1 97 46 98 -1 98 46 48 -1 98 48 99 -1 99 48 50 -1 99 50 100 -1 100 50 52 -1 100 52 101 -1 101 52 54 -1 101 54 102 -1 102 54 56 -1 102 56 103 -1 103 56 58 -1 103 58 104 -1 104 58 60 -1 104 60 105 -1 105 60 83 -1 105 83 106 -1 106 83 81 -1 106 81 107 -1 107 81 79 -1 107 79 108 -1 108 79 77 -1 108 77 109 -1 109 77 75 -1 109 75 110 -1 110 75 73 -1 110 73 111 -1 111 73 71 -1 111 71 112 -1 112 71 69 -1 112 69 113 -1 113 69 7 -1 113 7 114 -1 114 7 6 -1 114 6 115 -1 115 6 4 -1 115 4 116 -1 116 4 13 -1 116 13 117 -1 117 13 15 -1 117 15 118 -1 118 15 17 -1 118 17 119 -1 119 17 19 -1 119 19 120 -1 120 19 21 -1 120 21 121 -1 104 122 103 -1 103 122 123 -1 103 123 102 -1 102 123 101 -1 101 123 124 -1 101 124 100 -1 115 116 125 -1 125 116 117 -1 125 117 118 -1 126 127 110 -1 128 108 127 -1 127 108 109 -1 127 109 110 -1 104 105 122 -1 122 105 106 -1 122 106 128 -1 128 106 107 -1 128 107 108 -1 129 91 92 -1 92 93 129 -1 129 93 94 -1 129 94 95 -1 110 111 126 -1 126 111 112 -1 126 112 130 -1 130 112 113 -1 130 113 125 -1 125 113 114 -1 125 114 115 -1 118 119 125 -1 125 119 120 -1 125 120 121 -1 91 129 90 -1 90 129 131 -1 90 131 132 -1 95 96 129 -1 129 96 97 -1 129 97 133 -1 133 97 98 -1 133 98 124 -1 124 98 99 -1 124 99 100 -1 134 135 136 -1 121 137 125 -1 125 137 138 -1 125 138 139 -1 132 131 136 -1 136 131 140 -1 136 140 134 -1 141 142 138 -1 138 142 143 -1 138 143 139 -1 29 129 0 -1 0 129 133 -1 0 133 1 -1 1 133 124 -1 144 1 145 -1 145 1 124 -1 145 124 146 -1 146 124 123 -1 146 123 147 -1 147 123 148 -1 148 123 122 -1 148 122 149 -1 149 122 150 -1 150 122 128 -1 150 128 151 -1 151 128 152 -1 152 128 127 -1 152 127 153 -1 153 127 154 -1 154 127 126 -1 154 126 155 -1 125 26 130 -1 130 26 25 -1 130 25 126 -1 126 25 24 -1 126 24 155 -1 155 24 156 -1 121 21 23 -1 121 23 137 -1 137 23 65 -1 137 65 138 -1 138 65 64 -1 138 64 141 -1 141 64 63 -1 141 63 142 -1 142 63 62 -1 142 62 143 -1 143 62 61 -1 143 61 139 -1 139 61 26 -1 139 26 125 -1 10 90 132 -1 10 132 9 -1 9 132 136 -1 9 136 8 -1 8 136 135 -1 8 135 30 -1 30 135 134 -1 30 134 31 -1 31 134 140 -1 31 140 27 -1 27 140 131 -1 27 131 28 -1 28 131 129 -1 28 129 29 -1 86 88 5 -1 5 88 3 -1 86 87 88 -1 88 87 157 -1 88 157 89 -1 158 159 160 -1 87 66 67 -1 156 24 161 -1 161 24 22 -1 161 22 162 -1 162 22 163 -1 163 22 20 -1 163 20 164 -1 164 20 18 -1 164 18 165 -1 165 18 16 -1 165 16 166 -1 166 16 14 -1 166 14 167 -1 167 14 12 -1 167 12 168 -1 12 11 168 -1 168 11 89 -1 168 89 169 -1 169 89 157 -1 169 157 170 -1 170 157 87 -1 87 67 170 -1 170 67 68 -1 170 68 171 -1 171 68 70 -1 171 70 172 -1 172 70 173 -1 173 70 72 -1 173 72 174 -1 175 176 177 -1 177 176 178 -1 177 178 179 -1 179 178 180 -1 179 180 181 -1 181 180 182 -1 181 182 183 -1 183 182 184 -1 183 184 185 -1 185 184 186 -1 185 186 187 -1 187 186 188 -1 187 188 189 -1 190 191 192 -1 193 191 194 -1 194 191 190 -1 194 190 160 -1 160 190 195 -1 160 195 158 -1 196 197 198 -1 198 197 199 -1 51 200 53 -1 53 200 201 -1 202 203 204 -1 196 198 204 -1 204 198 205 -1 204 205 202 -1 206 207 51 -1 51 207 208 -1 51 208 200 -1 200 208 209 -1 208 210 209 -1 209 210 211 -1 209 211 212 -1 212 211 213 -1 212 213 214 -1 214 213 215 -1 214 215 216 -1 216 215 217 -1 216 217 218 -1 218 217 219 -1 218 219 220 -1 220 219 221 -1 220 221 222 -1 51 49 206 -1 206 49 47 -1 206 47 223 -1 223 47 45 -1 223 45 224 -1 224 45 43 -1 224 43 225 -1 225 43 41 -1 225 41 226 -1 226 41 39 -1 226 39 227 -1 227 39 37 -1 227 37 228 -1 228 37 35 -1 228 35 229 -1 229 35 33 -1 229 33 230 -1 2 1 144 -1 144 231 2 -1 2 231 232 -1 2 232 33 -1 33 232 233 -1 33 233 230 -1 177 174 175 -1 175 174 72 -1 175 72 192 -1 192 72 74 -1 192 74 190 -1 190 74 76 -1 190 76 234 -1 234 76 78 -1 234 78 235 -1 235 78 80 -1 235 80 236 -1 236 80 82 -1 236 82 237 -1 237 82 84 -1 237 84 238 -1 238 84 85 -1 238 85 239 -1 239 85 59 -1 239 59 240 -1 240 59 57 -1 240 57 241 -1 241 57 55 -1 241 55 242 -1 242 55 53 -1 242 53 205 -1 205 53 201 -1 205 201 202 -1 243 158 244 -1 244 158 245 -1 244 245 246 -1 244 247 243 -1 243 247 248 -1 243 248 249 -1 249 248 250 -1 249 250 251 -1 251 250 252 -1 251 252 253 -1 253 252 254 -1 253 254 255 -1 255 254 256 -1 255 256 257 -1 257 256 258 -1 257 258 259 -1 259 258 260 -1 259 260 261 -1 261 260 262 -1 261 262 263 -1 263 262 264 -1 263 264 265 -1 265 264 266 -1 265 266 267 -1 267 266 268 -1 267 268 269 -1 269 268 270 -1 269 270 271 -1 271 272 199 -1 199 272 273 -1 199 273 198 -1 198 273 274 -1 198 274 205 -1 205 274 275 -1 205 275 242 -1 242 275 276 -1 242 276 241 -1 241 276 277 -1 241 277 240 -1 240 277 278 -1 240 278 239 -1 239 278 279 -1 239 279 238 -1 238 279 280 -1 238 280 237 -1 237 280 281 -1 237 281 236 -1 236 281 282 -1 236 282 235 -1 235 282 283 -1 235 283 234 -1 234 283 284 -1 234 284 190 -1 190 284 285 -1 190 285 195 -1 195 285 286 -1 195 286 158 -1 158 286 287 -1 158 287 245 -1 270 288 271 -1 271 288 289 -1 271 289 272 -1 272 289 290 -1 272 290 291 -1 291 290 292 -1 291 292 293 -1 293 292 294 -1 293 294 295 -1 295 294 296 -1 295 296 297 -1 297 296 298 -1 297 298 299 -1 299 298 300 -1 299 300 301 -1 301 300 302 -1 301 302 303 -1 303 302 304 -1 303 304 305 -1 305 304 306 -1 305 306 307 -1 307 306 308 -1 307 308 309 -1 309 308 310 -1 309 310 311 -1 311 310 312 -1 311 312 313 -1 313 312 314 -1 313 314 315 -1 315 314 316 -1 315 316 317 -1 317 316 318 -1 317 318 319 -1 319 318 320 -1 319 320 321 -1 321 320 322 -1 321 322 323 -1 323 322 324 -1 323 324 325 -1 325 324 326 -1 325 326 246 -1 246 326 327 -1 246 327 244 -1 246 328 325 -1 325 328 329 -1 325 329 323 -1 323 329 330 -1 323 330 321 -1 321 330 331 -1 321 331 319 -1 319 331 332 -1 319 332 317 -1 317 332 333 -1 317 333 315 -1 315 333 334 -1 315 334 313 -1 313 334 335 -1 313 335 311 -1 311 335 336 -1 311 336 309 -1 309 336 337 -1 309 337 307 -1 307 337 338 -1 307 338 305 -1 305 338 339 -1 305 339 303 -1 303 339 340 -1 303 340 301 -1 301 340 341 -1 301 341 299 -1 299 341 342 -1 299 342 297 -1 297 342 343 -1 297 343 295 -1 295 343 344 -1 295 344 293 -1 293 344 345 -1 293 345 291 -1 291 345 346 -1 291 346 272 -1 272 346 347 -1 272 347 273 -1 273 347 348 -1 273 348 274 -1 274 348 349 -1 274 349 275 -1 275 349 350 -1 275 350 276 -1 276 350 351 -1 276 351 277 -1 277 351 352 -1 277 352 278 -1 278 352 353 -1 278 353 279 -1 279 353 354 -1 279 354 280 -1 280 354 355 -1 280 355 281 -1 281 355 356 -1 281 356 282 -1 282 356 357 -1 282 357 283 -1 283 357 358 -1 283 358 284 -1 284 358 359 -1 284 359 285 -1 285 359 360 -1 285 360 286 -1 286 360 361 -1 286 361 287 -1 287 361 362 -1 287 362 245 -1 245 362 363 -1 245 363 246 -1 246 363 328 -1 364 359 365 -1 365 359 358 -1 365 358 366 -1 366 358 357 -1 366 357 367 -1 367 357 356 -1 367 356 368 -1 368 356 355 -1 368 355 369 -1 369 355 354 -1 369 354 370 -1 370 354 353 -1 370 353 371 -1 371 353 352 -1 371 352 372 -1 372 352 351 -1 372 351 373 -1 373 351 350 -1 373 350 374 -1 374 350 349 -1 374 349 375 -1 375 349 348 -1 375 348 376 -1 376 348 347 -1 376 347 377 -1 377 347 346 -1 377 346 378 -1 378 346 345 -1 378 345 379 -1 379 345 344 -1 379 344 380 -1 380 344 343 -1 380 343 381 -1 381 343 342 -1 381 342 382 -1 382 342 341 -1 382 341 383 -1 383 341 340 -1 383 340 384 -1 384 340 339 -1 384 339 385 -1 385 339 338 -1 385 338 386 -1 386 338 337 -1 386 337 387 -1 387 337 336 -1 387 336 388 -1 388 336 335 -1 388 335 389 -1 389 335 334 -1 389 334 390 -1 390 334 333 -1 390 333 391 -1 391 333 332 -1 391 332 392 -1 392 332 331 -1 392 331 393 -1 393 331 330 -1 393 330 394 -1 394 330 329 -1 394 329 395 -1 395 329 328 -1 395 328 396 -1 396 328 363 -1 396 363 397 -1 397 363 362 -1 397 362 398 -1 398 362 361 -1 398 361 399 -1 399 361 360 -1 399 360 364 -1 364 360 359 -1 400 401 402 -1 402 401 403 -1 402 403 404 -1 404 403 405 -1 404 405 406 -1 406 405 407 -1 406 407 408 -1 408 407 409 -1 408 409 410 -1 410 409 411 -1 410 411 412 -1 412 411 413 -1 412 413 414 -1 414 413 415 -1 414 415 416 -1 416 415 417 -1 416 417 418 -1 418 417 419 -1 418 419 420 -1 420 419 421 -1 420 421 422 -1 422 421 423 -1 422 423 424 -1 424 423 425 -1 424 425 426 -1 426 425 427 -1 426 427 428 -1 428 427 429 -1 428 429 430 -1 430 429 431 -1 430 431 432 -1 432 431 433 -1 432 433 434 -1 434 433 435 -1 434 435 436 -1 436 435 437 -1 436 437 438 -1 438 437 439 -1 438 439 440 -1 440 439 441 -1 440 441 442 -1 442 441 443 -1 442 443 444 -1 444 443 445 -1 444 445 446 -1 446 445 447 -1 446 447 448 -1 448 447 449 -1 448 449 450 -1 450 449 451 -1 450 451 452 -1 452 451 453 -1 452 453 454 -1 454 453 455 -1 454 455 456 -1 456 455 457 -1 456 457 458 -1 458 457 459 -1 458 459 460 -1 460 459 461 -1 460 461 462 -1 462 461 463 -1 462 463 464 -1 464 463 465 -1 464 465 466 -1 466 465 467 -1 466 467 468 -1 468 467 469 -1 468 469 470 -1 470 469 471 -1 470 471 400 -1 400 471 401 -1 292 457 294 -1 294 457 455 -1 294 455 296 -1 296 455 453 -1 296 453 298 -1 298 453 451 -1 298 451 300 -1 300 451 449 -1 300 449 302 -1 302 449 447 -1 302 447 304 -1 304 447 445 -1 304 445 306 -1 306 445 443 -1 306 443 308 -1 308 443 441 -1 308 441 310 -1 310 441 439 -1 310 439 312 -1 312 439 437 -1 312 437 314 -1 314 437 435 -1 314 435 316 -1 316 435 433 -1 316 433 318 -1 318 433 431 -1 318 431 320 -1 320 431 429 -1 320 429 322 -1 322 429 427 -1 322 427 324 -1 324 427 425 -1 324 425 326 -1 326 425 423 -1 326 423 327 -1 327 423 421 -1 327 421 244 -1 244 421 419 -1 244 419 247 -1 247 419 417 -1 247 417 248 -1 248 417 415 -1 248 415 250 -1 250 415 413 -1 250 413 252 -1 252 413 411 -1 252 411 254 -1 254 411 409 -1 254 409 256 -1 256 409 407 -1 256 407 258 -1 258 407 405 -1 258 405 260 -1 260 405 403 -1 260 403 262 -1 262 403 401 -1 262 401 264 -1 264 401 471 -1 264 471 266 -1 266 471 469 -1 266 469 268 -1 268 469 467 -1 268 467 270 -1 270 467 465 -1 270 465 288 -1 288 465 463 -1 288 463 289 -1 289 463 461 -1 289 461 290 -1 290 461 459 -1 290 459 292 -1 292 459 457 -1 458 472 456 -1 456 472 473 -1 456 473 454 -1 454 473 474 -1 454 474 452 -1 452 474 475 -1 452 475 450 -1 450 475 476 -1 450 476 448 -1 448 476 477 -1 448 477 446 -1 446 477 478 -1 446 478 444 -1 444 478 479 -1 444 479 442 -1 442 479 480 -1 442 480 440 -1 440 480 481 -1 440 481 438 -1 438 481 482 -1 438 482 436 -1 436 482 483 -1 436 483 434 -1 434 483 484 -1 434 484 432 -1 432 484 485 -1 432 485 430 -1 430 485 486 -1 430 486 428 -1 428 486 487 -1 428 487 426 -1 426 487 488 -1 426 488 424 -1 424 488 489 -1 424 489 422 -1 422 489 490 -1 422 490 420 -1 420 490 491 -1 420 491 418 -1 418 491 492 -1 418 492 416 -1 416 492 493 -1 416 493 414 -1 414 493 494 -1 414 494 412 -1 412 494 495 -1 412 495 410 -1 410 495 496 -1 410 496 408 -1 408 496 497 -1 408 497 406 -1 406 497 498 -1 406 498 404 -1 404 498 499 -1 404 499 402 -1 402 499 500 -1 402 500 400 -1 400 500 501 -1 400 501 470 -1 470 501 502 -1 470 502 468 -1 468 502 503 -1 468 503 466 -1 466 503 504 -1 466 504 464 -1 464 504 505 -1 464 505 462 -1 462 505 506 -1 462 506 460 -1 460 506 507 -1 460 507 458 -1 458 507 472 -1 508 379 509 -1 509 379 380 -1 509 380 510 -1 510 380 381 -1 510 381 511 -1 511 381 382 -1 511 382 512 -1 512 382 383 -1 512 383 513 -1 513 383 384 -1 513 384 514 -1 514 384 385 -1 514 385 515 -1 515 385 386 -1 515 386 516 -1 516 386 387 -1 516 387 517 -1 517 387 388 -1 517 388 518 -1 518 388 389 -1 518 389 519 -1 519 389 390 -1 519 390 520 -1 520 390 391 -1 520 391 521 -1 521 391 392 -1 521 392 522 -1 522 392 393 -1 522 393 523 -1 523 393 394 -1 523 394 524 -1 524 394 395 -1 524 395 525 -1 525 395 396 -1 525 396 526 -1 526 396 397 -1 526 397 527 -1 527 397 398 -1 527 398 528 -1 528 398 399 -1 528 399 529 -1 529 399 364 -1 529 364 530 -1 530 364 365 -1 530 365 531 -1 531 365 366 -1 531 366 532 -1 532 366 367 -1 532 367 533 -1 533 367 368 -1 533 368 534 -1 534 368 369 -1 534 369 535 -1 535 369 370 -1 535 370 536 -1 536 370 371 -1 536 371 537 -1 537 371 372 -1 537 372 538 -1 538 372 373 -1 538 373 539 -1 539 373 374 -1 539 374 540 -1 540 374 375 -1 540 375 541 -1 541 375 376 -1 541 376 542 -1 542 376 377 -1 542 377 543 -1 543 377 378 -1 543 378 508 -1 508 378 379 -1 542 543 544 -1 544 543 508 -1 544 508 509 -1 539 540 544 -1 544 540 541 -1 544 541 542 -1 536 537 544 -1 544 537 538 -1 544 538 539 -1 533 534 544 -1 544 534 535 -1 544 535 536 -1 530 531 544 -1 544 531 532 -1 544 532 533 -1 527 528 544 -1 544 528 529 -1 544 529 530 -1 524 525 544 -1 544 525 526 -1 544 526 527 -1 521 522 544 -1 544 522 523 -1 544 523 524 -1 518 519 544 -1 544 519 520 -1 544 520 521 -1 515 516 544 -1 544 516 517 -1 544 517 518 -1 512 513 544 -1 544 513 514 -1 544 514 515 -1 509 510 544 -1 544 510 511 -1 544 511 512 -1 545 546 547 -1 548 549 550 -1 550 549 551 -1 550 551 552 -1 552 551 553 -1 552 553 554 -1 554 553 555 -1 554 555 556 -1 556 555 557 -1 556 557 558 -1 558 557 559 -1 558 559 560 -1 561 562 563 -1 564 565 548 -1 548 565 566 -1 548 566 549 -1 563 567 561 -1 561 567 568 -1 561 568 569 -1 569 568 570 -1 569 570 571 -1 571 570 572 -1 571 572 573 -1 573 572 574 -1 573 574 575 -1 575 574 576 -1 575 576 577 -1 577 576 578 -1 577 578 579 -1 579 578 580 -1 579 580 581 -1 582 583 580 -1 580 583 584 -1 580 584 581 -1 547 546 585 -1 546 586 585 -1 585 586 587 -1 585 587 582 -1 582 587 588 -1 582 588 583 -1 545 547 589 -1 589 547 590 -1 589 590 591 -1 591 590 592 -1 591 592 593 -1 593 592 594 -1 594 592 595 -1 594 595 596 -1 596 595 597 -1 597 595 598 -1 597 598 599 -1 599 598 600 -1 600 598 601 -1 600 601 602 -1 602 601 603 -1 602 603 604 -1 604 603 605 -1 604 605 606 -1 606 605 607 -1 606 607 608 -1 608 607 609 -1 608 609 610 -1 610 609 611 -1 610 611 612 -1 612 611 613 -1 612 613 614 -1 614 613 615 -1 614 615 616 -1 616 615 617 -1 617 615 618 -1 617 618 619 -1 620 621 622 -1 622 621 623 -1 622 623 624 -1 624 623 625 -1 624 625 626 -1 626 625 627 -1 626 627 628 -1 628 627 629 -1 628 629 630 -1 630 629 631 -1 630 631 632 -1 632 631 633 -1 632 633 634 -1 622 619 620 -1 620 619 618 -1 620 618 635 -1 635 618 636 -1 635 636 637 -1 637 636 638 -1 271 639 269 -1 269 639 640 -1 269 640 267 -1 267 640 641 -1 642 243 643 -1 643 243 249 -1 643 249 644 -1 644 249 251 -1 644 251 645 -1 562 565 563 -1 563 565 564 -1 563 564 646 -1 646 564 647 -1 646 647 648 -1 641 637 267 -1 267 637 638 -1 267 638 265 -1 265 638 649 -1 265 649 263 -1 263 649 650 -1 263 650 261 -1 261 650 651 -1 261 651 259 -1 259 651 652 -1 259 652 257 -1 257 652 653 -1 257 653 255 -1 255 653 654 -1 255 654 253 -1 253 654 655 -1 253 655 251 -1 251 655 648 -1 251 648 645 -1 645 648 647 -1 231 144 145 -1 156 161 586 -1 617 207 616 -1 616 207 206 -1 616 206 614 -1 614 206 223 -1 614 223 612 -1 612 223 224 -1 612 224 610 -1 610 224 225 -1 610 225 608 -1 608 225 226 -1 608 226 606 -1 606 226 227 -1 606 227 604 -1 604 227 228 -1 604 228 602 -1 602 228 229 -1 602 229 600 -1 600 229 230 -1 600 230 599 -1 599 230 233 -1 599 233 597 -1 597 233 232 -1 597 232 596 -1 596 232 231 -1 596 231 594 -1 594 231 145 -1 594 145 593 -1 546 154 586 -1 586 154 155 -1 586 155 156 -1 591 149 589 -1 589 149 150 -1 589 150 545 -1 150 151 545 -1 545 151 152 -1 545 152 546 -1 546 152 153 -1 546 153 154 -1 145 146 593 -1 593 146 147 -1 593 147 591 -1 591 147 148 -1 591 148 149 -1 173 562 172 -1 172 562 561 -1 172 561 171 -1 171 561 569 -1 171 569 170 -1 170 569 571 -1 170 571 169 -1 169 571 573 -1 169 573 168 -1 168 573 575 -1 168 575 167 -1 167 575 577 -1 167 577 166 -1 166 577 579 -1 166 579 165 -1 165 579 581 -1 165 581 164 -1 164 581 584 -1 164 584 163 -1 163 584 583 -1 163 583 162 -1 162 583 588 -1 162 588 161 -1 161 588 587 -1 161 587 586 -1 562 173 565 -1 565 173 174 -1 619 208 617 -1 617 208 207 -1 634 221 632 -1 632 221 219 -1 632 219 630 -1 630 219 217 -1 630 217 628 -1 628 217 215 -1 628 215 626 -1 626 215 213 -1 626 213 624 -1 624 213 211 -1 624 211 622 -1 622 211 210 -1 622 210 619 -1 619 210 208 -1 656 657 658 -1 656 658 659 -1 634 660 661 -1 660 634 658 -1 658 634 662 -1 658 662 659 -1 657 663 658 -1 658 663 664 -1 658 664 665 -1 665 664 666 -1 665 666 667 -1 661 668 634 -1 634 668 669 -1 634 669 670 -1 670 671 634 -1 634 671 672 -1 634 672 221 -1 565 174 566 -1 566 174 177 -1 566 177 549 -1 549 177 179 -1 549 179 551 -1 551 179 181 -1 551 181 553 -1 553 181 183 -1 553 183 555 -1 555 183 185 -1 555 185 557 -1 557 185 187 -1 557 187 559 -1 559 187 189 -1 559 189 673 -1 674 675 559 -1 674 559 676 -1 677 678 679 -1 679 678 680 -1 675 681 559 -1 559 681 679 -1 559 679 682 -1 682 679 680 -1 683 684 685 -1 685 684 686 -1 685 686 679 -1 679 686 687 -1 679 687 677 -1 673 688 559 -1 559 688 689 -1 559 689 676 -1 222 221 690 -1 690 221 672 -1 690 672 691 -1 189 188 673 -1 673 188 692 -1 673 692 693 -1 693 692 694 -1 693 694 691 -1 691 694 695 -1 691 695 690 -1 642 696 697 -1 159 158 697 -1 697 158 243 -1 697 243 642 -1 698 639 699 -1 699 639 271 -1 699 271 197 -1 197 271 199 -1 634 633 700 -1 634 700 662 -1 662 700 701 -1 662 701 659 -1 659 701 702 -1 659 702 656 -1 656 702 703 -1 656 703 657 -1 657 703 704 -1 657 704 663 -1 663 704 705 -1 663 705 664 -1 664 705 706 -1 664 706 666 -1 666 706 707 -1 666 707 667 -1 667 707 708 -1 667 708 665 -1 709 710 668 -1 668 661 709 -1 709 661 660 -1 709 660 708 -1 708 660 658 -1 708 658 665 -1 711 691 672 -1 672 671 711 -1 711 671 670 -1 711 670 710 -1 710 670 669 -1 710 669 668 -1 712 713 674 -1 674 676 712 -1 712 676 689 -1 712 689 693 -1 693 689 688 -1 693 688 673 -1 685 679 714 -1 714 679 681 -1 714 681 713 -1 713 681 675 -1 713 675 674 -1 714 715 685 -1 685 715 716 -1 685 716 683 -1 683 716 717 -1 683 717 684 -1 684 717 718 -1 684 718 686 -1 686 718 719 -1 686 719 687 -1 687 719 720 -1 687 720 677 -1 677 720 721 -1 677 721 678 -1 678 721 722 -1 678 722 680 -1 680 722 723 -1 680 723 682 -1 682 723 560 -1 682 560 559 -1 724 201 200 -1 690 725 222 -1 222 725 726 -1 222 726 220 -1 220 726 218 -1 727 724 728 -1 728 724 200 -1 728 200 209 -1 209 212 728 -1 728 212 214 -1 728 214 726 -1 726 214 216 -1 726 216 218 -1 204 729 196 -1 196 729 730 -1 196 730 197 -1 197 730 731 -1 197 731 699 -1 699 731 732 -1 724 727 733 -1 733 727 729 -1 733 729 203 -1 203 729 204 -1 698 699 695 -1 695 699 732 -1 734 732 735 -1 735 732 736 -1 737 738 695 -1 695 738 739 -1 695 739 740 -1 741 725 742 -1 742 725 690 -1 742 690 743 -1 743 690 744 -1 741 745 725 -1 725 745 746 -1 725 746 747 -1 747 746 748 -1 747 748 749 -1 749 748 750 -1 749 750 751 -1 751 750 752 -1 753 754 755 -1 755 754 756 -1 755 756 752 -1 752 756 757 -1 752 757 751 -1 734 758 732 -1 732 758 759 -1 732 759 695 -1 695 759 760 -1 695 760 737 -1 740 761 695 -1 695 761 762 -1 695 762 690 -1 690 762 763 -1 690 763 744 -1 764 765 766 -1 766 765 767 -1 766 767 753 -1 753 767 768 -1 753 768 754 -1 736 732 769 -1 769 732 770 -1 769 770 771 -1 764 772 765 -1 765 772 773 -1 765 773 774 -1 770 775 771 -1 771 775 776 -1 771 776 777 -1 777 776 778 -1 777 778 779 -1 773 780 774 -1 774 780 781 -1 774 781 782 -1 782 781 783 -1 782 783 784 -1 784 783 785 -1 784 785 786 -1 786 785 779 -1 786 779 787 -1 787 779 778 -1 788 789 731 -1 730 728 731 -1 731 728 726 -1 790 791 726 -1 726 791 792 -1 726 792 731 -1 731 792 793 -1 731 793 794 -1 795 796 797 -1 797 796 798 -1 790 799 791 -1 791 799 798 -1 791 798 800 -1 800 798 796 -1 794 801 731 -1 731 801 802 -1 731 802 803 -1 803 804 731 -1 731 804 805 -1 731 805 788 -1 727 728 729 -1 729 728 730 -1 765 774 792 -1 792 774 793 -1 175 192 806 -1 807 808 692 -1 692 188 807 -1 807 188 186 -1 807 186 184 -1 806 809 175 -1 175 809 810 -1 175 810 176 -1 184 182 807 -1 807 182 180 -1 807 180 810 -1 810 180 178 -1 810 178 176 -1 193 194 811 -1 811 194 812 -1 811 812 806 -1 806 812 809 -1 159 697 813 -1 814 812 194 -1 813 815 159 -1 159 815 814 -1 159 814 160 -1 160 814 194 -1 710 816 817 -1 816 710 818 -1 818 710 709 -1 818 709 819 -1 820 821 645 -1 645 821 822 -1 714 713 823 -1 823 713 824 -1 822 825 645 -1 645 825 826 -1 645 826 637 -1 637 826 827 -1 637 827 828 -1 693 691 712 -1 712 691 711 -1 712 711 713 -1 713 711 710 -1 713 710 824 -1 824 710 817 -1 829 830 703 -1 823 831 714 -1 714 831 832 -1 714 832 715 -1 715 832 833 -1 819 709 834 -1 834 709 708 -1 834 708 830 -1 830 708 707 -1 830 707 706 -1 703 702 829 -1 829 702 701 -1 829 701 700 -1 828 835 637 -1 637 835 836 -1 637 836 635 -1 635 836 837 -1 635 837 620 -1 620 837 838 -1 620 838 621 -1 621 838 839 -1 621 839 623 -1 623 839 840 -1 623 840 625 -1 625 840 841 -1 625 841 627 -1 627 841 842 -1 627 842 629 -1 629 842 843 -1 629 843 631 -1 631 843 829 -1 631 829 633 -1 633 829 700 -1 706 705 830 -1 830 705 704 -1 830 704 703 -1 723 722 833 -1 833 722 721 -1 721 720 833 -1 833 720 719 -1 833 719 718 -1 718 717 833 -1 833 717 716 -1 833 716 715 -1 820 645 844 -1 844 645 647 -1 844 647 845 -1 845 647 564 -1 845 564 846 -1 846 564 548 -1 846 548 847 -1 847 548 550 -1 847 550 848 -1 848 550 552 -1 848 552 849 -1 849 552 554 -1 849 554 850 -1 850 554 556 -1 850 556 851 -1 851 556 558 -1 851 558 833 -1 833 558 560 -1 833 560 723 -1 697 696 813 -1 813 696 694 -1 852 853 808 -1 808 853 854 -1 808 854 692 -1 692 854 855 -1 692 855 856 -1 694 857 858 -1 859 860 861 -1 861 860 862 -1 861 862 863 -1 852 808 864 -1 864 808 865 -1 864 865 866 -1 856 867 692 -1 692 867 868 -1 692 868 694 -1 694 868 869 -1 694 869 857 -1 870 871 872 -1 872 871 873 -1 872 873 874 -1 874 873 875 -1 874 875 876 -1 876 875 813 -1 876 813 877 -1 877 813 878 -1 859 879 860 -1 860 879 880 -1 860 880 881 -1 858 882 694 -1 694 882 883 -1 694 883 884 -1 862 885 863 -1 863 885 886 -1 863 886 887 -1 887 886 888 -1 887 888 870 -1 870 888 889 -1 870 889 871 -1 880 890 881 -1 881 890 891 -1 881 891 892 -1 892 891 893 -1 892 893 894 -1 894 893 895 -1 894 895 896 -1 896 895 897 -1 865 898 866 -1 866 898 899 -1 866 899 900 -1 900 899 901 -1 900 901 897 -1 897 901 902 -1 897 902 896 -1 884 903 694 -1 694 903 904 -1 694 904 813 -1 813 904 905 -1 813 905 878 -1 807 810 814 -1 814 815 807 -1 807 815 906 -1 807 906 907 -1 908 909 815 -1 815 909 910 -1 815 910 906 -1 907 911 807 -1 807 911 912 -1 807 912 913 -1 815 914 908 -1 908 914 915 -1 908 915 916 -1 916 915 917 -1 916 917 918 -1 919 920 921 -1 921 920 922 -1 921 922 913 -1 913 922 923 -1 913 923 807 -1 812 814 809 -1 809 814 810 -1 907 906 881 -1 881 906 860 -1 841 924 842 -1 842 924 925 -1 842 925 843 -1 843 925 926 -1 843 926 829 -1 829 926 927 -1 829 927 830 -1 830 927 928 -1 830 928 834 -1 834 928 929 -1 834 929 819 -1 819 929 930 -1 819 930 818 -1 818 930 931 -1 818 931 816 -1 816 931 932 -1 816 932 817 -1 817 932 933 -1 817 933 824 -1 824 933 934 -1 824 934 823 -1 823 934 935 -1 823 935 831 -1 831 935 936 -1 831 936 832 -1 832 936 937 -1 832 937 833 -1 833 937 938 -1 833 938 851 -1 851 938 939 -1 851 939 850 -1 850 939 940 -1 850 940 849 -1 849 940 941 -1 849 941 848 -1 848 941 942 -1 848 942 847 -1 847 942 943 -1 847 943 846 -1 846 943 944 -1 846 944 845 -1 845 944 945 -1 845 945 844 -1 844 945 946 -1 844 946 820 -1 820 946 947 -1 820 947 821 -1 821 947 948 -1 821 948 822 -1 822 948 949 -1 822 949 825 -1 825 949 950 -1 825 950 826 -1 826 950 951 -1 826 951 827 -1 827 951 952 -1 827 952 828 -1 828 952 953 -1 828 953 835 -1 835 953 954 -1 835 954 836 -1 836 954 955 -1 836 955 837 -1 837 955 956 -1 837 956 838 -1 838 956 957 -1 838 957 839 -1 839 957 958 -1 839 958 840 -1 840 958 959 -1 840 959 841 -1 841 959 924 -1 694 696 642 -1 935 694 936 -1 936 694 937 -1 937 694 938 -1 938 694 642 -1 938 642 939 -1 695 931 930 -1 935 934 694 -1 694 934 933 -1 694 933 695 -1 695 933 932 -1 695 932 931 -1 945 642 946 -1 946 642 643 -1 946 643 947 -1 947 643 644 -1 930 929 695 -1 695 929 928 -1 695 928 927 -1 959 639 924 -1 924 639 698 -1 924 698 925 -1 925 698 695 -1 925 695 926 -1 926 695 927 -1 959 958 639 -1 639 958 957 -1 639 957 640 -1 640 957 956 -1 640 956 641 -1 641 956 955 -1 641 955 954 -1 945 944 642 -1 642 944 943 -1 642 943 942 -1 954 953 641 -1 641 953 952 -1 641 952 644 -1 644 952 951 -1 644 951 950 -1 950 949 644 -1 644 949 948 -1 644 948 947 -1 942 941 642 -1 642 941 940 -1 642 940 939 -1 645 637 644 -1 644 637 641 -1 193 811 191 -1 811 806 191 -1 191 806 192 -1 724 733 201 -1 201 733 202 -1 202 733 203 -1 876 769 874 -1 874 769 771 -1 874 771 872 -1 872 771 777 -1 872 777 870 -1 870 777 779 -1 870 779 887 -1 887 779 785 -1 887 785 863 -1 863 785 783 -1 863 783 861 -1 861 783 781 -1 861 781 859 -1 859 781 780 -1 859 780 879 -1 879 780 773 -1 879 773 880 -1 880 773 772 -1 880 772 890 -1 890 772 764 -1 890 764 891 -1 891 764 766 -1 891 766 893 -1 893 766 753 -1 893 753 895 -1 895 753 755 -1 895 755 897 -1 897 755 752 -1 897 752 900 -1 900 752 750 -1 900 750 866 -1 866 750 748 -1 866 748 864 -1 864 748 746 -1 864 746 852 -1 852 746 745 -1 852 745 853 -1 853 745 741 -1 853 741 854 -1 854 741 742 -1 854 742 855 -1 855 742 743 -1 855 743 856 -1 856 743 744 -1 856 744 867 -1 867 744 763 -1 867 763 868 -1 868 763 762 -1 868 762 869 -1 869 762 761 -1 869 761 857 -1 857 761 740 -1 857 740 858 -1 858 740 739 -1 858 739 882 -1 882 739 738 -1 882 738 883 -1 883 738 737 -1 883 737 884 -1 884 737 760 -1 884 760 903 -1 903 760 759 -1 903 759 904 -1 904 759 758 -1 904 758 905 -1 905 758 734 -1 905 734 878 -1 878 734 735 -1 878 735 877 -1 877 735 736 -1 877 736 876 -1 876 736 769 -1 726 725 747 -1 726 747 790 -1 790 747 749 -1 790 749 799 -1 799 749 751 -1 799 751 798 -1 798 751 757 -1 798 757 797 -1 797 757 756 -1 797 756 795 -1 795 756 754 -1 795 754 796 -1 796 754 768 -1 796 768 800 -1 800 768 767 -1 800 767 791 -1 791 767 765 -1 791 765 792 -1 907 881 892 -1 907 892 911 -1 911 892 894 -1 911 894 912 -1 912 894 896 -1 912 896 913 -1 913 896 902 -1 913 902 921 -1 921 902 901 -1 921 901 919 -1 919 901 899 -1 919 899 920 -1 920 899 898 -1 920 898 922 -1 922 898 865 -1 922 865 923 -1 923 865 808 -1 923 808 807 -1 860 906 910 -1 860 910 862 -1 862 910 909 -1 862 909 885 -1 885 909 908 -1 885 908 886 -1 886 908 916 -1 886 916 888 -1 888 916 918 -1 888 918 889 -1 889 918 917 -1 889 917 871 -1 871 917 915 -1 871 915 873 -1 873 915 914 -1 873 914 875 -1 875 914 815 -1 875 815 813 -1 732 731 789 -1 732 789 770 -1 770 789 788 -1 770 788 775 -1 775 788 805 -1 775 805 776 -1 776 805 804 -1 776 804 778 -1 778 804 803 -1 778 803 787 -1 787 803 802 -1 787 802 786 -1 786 802 801 -1 786 801 784 -1 784 801 794 -1 784 794 782 -1 782 794 793 -1 782 793 774 -1 491 567 492 -1 492 567 563 -1 492 563 493 -1 493 563 646 -1 493 646 494 -1 494 646 648 -1 494 648 495 -1 495 648 655 -1 495 655 496 -1 496 655 654 -1 496 654 497 -1 497 654 653 -1 497 653 498 -1 498 653 652 -1 498 652 499 -1 499 652 651 -1 499 651 500 -1 500 651 650 -1 500 650 501 -1 501 650 649 -1 501 649 502 -1 502 649 638 -1 502 638 503 -1 503 638 636 -1 503 636 504 -1 504 636 618 -1 504 618 505 -1 505 618 615 -1 505 615 506 -1 506 615 613 -1 506 613 507 -1 507 613 611 -1 507 611 472 -1 472 611 609 -1 472 609 473 -1 473 609 607 -1 473 607 474 -1 474 607 605 -1 474 605 475 -1 475 605 603 -1 475 603 476 -1 476 603 601 -1 476 601 477 -1 477 601 598 -1 477 598 478 -1 478 598 595 -1 478 595 479 -1 479 595 592 -1 479 592 480 -1 480 592 590 -1 480 590 481 -1 481 590 547 -1 481 547 482 -1 482 547 585 -1 482 585 483 -1 483 585 582 -1 483 582 484 -1 484 582 580 -1 484 580 485 -1 485 580 578 -1 485 578 486 -1 486 578 576 -1 486 576 487 -1 487 576 574 -1 487 574 488 -1 488 574 572 -1 488 572 489 -1 489 572 570 -1 489 570 490 -1 490 570 568 -1 490 568 491 -1 491 568 567 -1 "
						                >
							<Coordinate DEF="coords_ME_OMLV4_Packing_-_For_Xander_-_Refuler-1_Refuler_Probe-1"
							            point="88.118744 92.611588 342.848328 88.124718 92.678688 342.884491 88.147011 92.017036 343.159302 88.634285 98.321251 345.981934 88.565376 98.735832 345.382507 88.699165 98.352425 346.481720 88.676201 98.919174 346.216217 88.786598 98.955582 347.069092 88.055573 91.686081 342.498993 88.057716 91.552315 342.536194 88.062904 91.427002 342.595764 88.631584 98.086609 345.996918 88.546906 97.900398 345.366974 88.457413 98.410988 344.592743 88.458504 97.589455 344.727203 88.355499 97.954262 343.870270 88.375984 97.173607 344.149231 88.262665 97.379204 343.236542 88.301720 96.664879 343.649750 88.181664 96.702843 342.710297 88.237869 96.077988 343.243195 88.114883 95.945229 342.307190 88.186272 95.429893 342.941345 88.106743 95.813499 342.264038 88.148422 94.739349 342.752899 88.143936 94.801422 342.708466 88.120697 95.049370 342.489716 88.067574 92.097168 342.529266 88.077316 92.223694 342.585632 88.089508 92.338432 342.662872 88.056534 91.824249 342.485291 88.060577 91.962669 342.495483 88.112900 90.725487 343.092072 88.184181 91.411598 343.541229 88.179153 90.119881 343.700165 88.235168 90.879875 344.019226 88.259712 89.628128 344.402039 88.298485 90.437256 344.579468 88.352188 89.264793 345.176880 88.372307 90.096519 345.205780 88.453842 89.040665 346.001740 88.454491 89.867538 345.880035 88.561653 88.962364 346.852142 88.542679 89.756912 346.582733 88.672432 89.032227 347.702881 88.634300 89.767853 347.293549 88.782898 89.248169 348.528778 88.726723 89.900040 347.991974 88.889771 89.603806 349.305359 88.817261 90.149658 348.657776 88.989883 90.088585 350.009552 88.903305 90.509476 349.271729 89.080276 90.688148 350.620544 88.982361 90.969101 349.816071 89.158257 91.384720 351.120178 89.052155 91.515244 350.275055 89.221527 92.157654 351.493683 89.110657 92.132103 350.635406 89.268211 92.984047 351.729980 89.156181 92.801857 350.886719 89.296913 93.839409 351.822052 88.111023 95.153603 342.398499 88.104095 95.272118 342.326477 88.100136 95.401352 342.275848 88.099251 95.537407 342.248138 88.101479 95.676178 342.244171 88.696960 98.160446 346.493988 88.731018 98.174927 346.756622 88.821404 98.130569 347.466309 88.893288 98.843971 347.915924 88.907173 97.965668 348.158600 88.993118 98.587646 348.731567 88.985855 97.684990 348.813446 89.083130 98.194214 349.491852 89.055161 97.296646 349.411926 89.160652 97.675331 350.174286 89.113091 96.811874 349.936768 89.223389 97.046371 350.758575 89.157967 96.244682 350.372742 89.269485 96.325981 351.227448 89.188499 95.611473 350.707275 89.297562 95.535507 351.567017 89.203804 94.930550 350.930695 89.306801 94.698380 351.767212 89.203438 94.221603 351.036530 89.187408 93.505135 351.021729 89.095825 98.344597 346.430725 89.093613 98.152626 346.442963 89.030937 98.313423 345.930939 89.028244 98.078789 345.945923 86.872932 91.450462 342.748779 86.922928 90.748955 343.245087 86.989182 90.143341 343.853210 87.069740 89.651588 344.555084 87.162216 89.288261 345.329926 87.263870 89.064125 346.154755 87.371681 88.985825 347.005157 87.482460 89.055687 347.855927 87.592926 89.271637 348.681824 87.699799 89.627274 349.458374 87.799911 90.112053 350.162567 87.890297 90.711609 350.773560 87.968285 91.408180 351.273193 88.031555 92.181122 351.646698 88.078239 93.007515 351.882996 88.106941 93.862869 351.975098 88.116829 94.721840 351.920227 88.107590 95.558968 351.720062 88.079514 96.349442 351.380493 88.033417 97.069832 350.911591 87.970680 97.698792 350.327301 87.893158 98.217674 349.644897 87.803146 98.611115 348.884583 87.703316 98.867432 348.068939 87.596619 98.979042 347.222137 87.486229 98.942642 346.369232 87.375404 98.759300 345.535553 87.267441 98.434448 344.745758 87.165527 97.977730 344.023285 87.072693 97.402664 343.389557 86.991692 96.726303 342.863342 86.924911 95.968689 342.460205 86.980705 93.584404 343.259674 86.969917 93.254814 343.226318 86.952446 92.935440 343.139404 86.930725 95.072830 342.642761 86.970955 94.544037 343.036682 86.981232 94.237991 343.163513 86.984512 93.915161 343.238525 86.899536 92.361893 342.815887 86.953964 94.824890 342.861481 86.887337 92.247154 342.738647 86.867744 91.575783 342.689209 86.928772 92.635048 343.001343 86.870598 91.986130 342.648499 86.866562 91.847710 342.638306 86.865601 91.709541 342.652008 86.916771 95.836967 342.417053 86.911507 95.699646 342.397186 86.921043 95.177063 342.551514 86.877594 92.120628 342.682281 86.909279 95.560867 342.401154 86.910164 95.424812 342.428864 86.914124 95.295578 342.479523 88.759911 92.666168 342.802826 88.849113 92.898041 342.895508 88.895470 93.055168 342.940796 88.932289 93.216125 342.973969 88.959320 93.379791 342.994751 88.976379 93.545059 343.003021 88.983353 93.710777 342.998749 88.980186 93.875809 342.981903 88.966904 94.039024 342.952637 88.943596 94.199303 342.911163 88.910431 94.355530 342.857758 88.867622 94.506638 342.792786 88.783615 94.726822 342.671204 89.035286 98.089638 345.999023 143.303406 96.716431 341.619080 136.828491 96.844101 342.451721 136.852997 96.741180 342.658051 88.863152 95.074951 342.742798 88.963844 95.414566 342.841339 89.084953 95.743210 342.966095 89.225601 96.058510 343.116180 89.561325 96.640045 343.487762 89.961304 97.142342 343.945374 90.413971 97.550896 344.475739 90.906242 97.853882 345.063568 91.423882 98.042542 345.691864 91.951927 98.111420 346.342438 92.475105 98.058533 346.996460 92.978294 97.885399 347.635071 93.153915 97.793228 347.860443 114.172318 97.378799 345.157623 133.156998 96.814056 343.133331 133.078323 97.094734 342.478455 114.435013 97.462334 344.875885 132.992554 97.259636 341.786194 115.185066 97.610748 344.076111 132.902161 97.303993 341.076477 115.961296 97.638023 343.254974 132.809769 97.226524 340.369904 116.741249 97.543350 342.436218 132.718048 97.029465 339.686859 117.502380 97.329475 341.643494 132.629654 96.718513 339.047089 118.222687 97.002586 340.899719 132.581406 96.491890 338.706573 118.609634 96.767372 340.503265 143.397217 96.225174 342.423889 133.846741 96.604935 343.379852 133.195602 96.617775 343.463593 133.843292 96.624298 343.350159 136.888153 96.564255 342.958618 143.327911 96.613510 341.825409 136.770447 89.565666 343.116333 136.743286 89.437927 342.924744 143.245361 89.437996 342.283691 143.218201 89.310257 342.092102 133.074448 89.638542 343.591614 133.118027 89.874306 343.894287 133.769150 89.861465 343.810547 133.765228 89.838570 343.783569 136.810089 89.778534 343.392029 143.324417 89.897621 342.828033 92.888374 90.069382 348.134277 93.066399 90.185425 348.346344 114.084793 89.770996 345.643524 132.988403 89.278717 342.977661 114.345093 89.646317 345.375061 115.090385 89.380219 344.601776 132.897873 89.029106 342.311859 115.864578 89.230949 343.791931 132.805450 88.896919 341.613434 116.645302 89.202805 342.968903 132.713821 88.885979 340.902588 117.409973 89.296608 342.156525 132.625641 88.996597 340.199890 118.136482 89.509651 341.378296 132.543457 89.225586 339.525635 118.528145 89.683594 340.955688 132.499908 89.408112 339.158997 92.380417 89.828003 347.522125 91.855209 89.704346 346.879364 91.327927 89.701996 346.224548 90.813828 89.821014 345.576630 90.327774 90.057968 344.954315 89.883812 90.405998 344.375610 89.494774 90.855042 343.857239 89.171921 91.392120 343.414215 88.831558 92.328247 342.918243 88.924583 92.001701 343.059326 89.038307 91.688904 343.225037 143.455139 95.740395 342.948730 143.500031 95.173203 343.384705 143.530563 94.539993 343.719238 143.545868 93.859070 343.942657 143.545502 93.150124 344.048492 143.529465 92.433655 344.033691 143.498230 91.730377 343.898682 143.452713 91.060623 343.647369 143.394211 90.443764 343.287018 143.296753 96.138077 341.656036 143.087860 95.373520 340.148804 143.171906 97.857178 340.421570 143.061218 97.879372 339.557373 143.140656 95.286957 340.572632 143.189285 95.127563 340.975281 143.343384 95.877594 342.058533 143.232285 94.900169 341.344543 143.396973 95.448868 342.540985 143.268341 94.611702 341.669159 143.438614 94.942383 342.942505 143.296371 94.270912 341.939301 143.467041 94.373543 343.250824 143.315491 93.888161 342.146759 143.481400 93.759613 343.456604 143.325165 93.475082 342.285248 143.481247 93.119255 343.553589 143.325058 93.044212 342.350494 143.466583 92.471931 343.538849 143.315186 92.608658 342.340576 143.437866 91.837311 343.412811 143.295868 92.181648 342.255768 143.395950 91.234665 343.179291 143.267670 91.776161 342.098663 143.342133 90.682312 342.845428 143.231445 91.404510 341.873993 143.278030 90.197037 342.421326 143.188324 91.077988 341.588654 143.224854 89.888611 342.055176 143.058853 88.029770 341.049225 143.169617 88.306847 341.868134 143.275345 88.723175 342.626465 143.372818 89.266106 343.301270 143.459091 89.919151 343.871979 143.531525 90.662453 344.321259 143.587921 91.473434 344.635498 143.626572 92.327454 344.805115 143.646301 93.198555 344.824951 143.646500 94.060287 344.694427 143.627182 94.886452 344.417511 143.588928 95.651955 344.002594 143.532883 96.333534 343.462280 143.460770 96.910477 342.813019 143.374771 97.365250 342.074524 143.277496 97.684052 341.269226 143.139572 90.806526 341.251251 143.086716 90.598358 340.872070 143.031326 90.459824 340.462646 142.946411 87.900368 340.194702 142.975113 90.395119 340.035370 142.835724 87.922562 339.330475 142.919769 90.406219 339.603271 142.730133 88.095695 338.482849 142.866974 90.492783 339.179443 142.632858 88.414490 337.677551 142.818329 90.652176 338.776794 142.546860 88.869263 336.939026 142.775330 90.879570 338.407532 142.474747 89.446205 336.289764 142.739273 91.168037 338.082886 142.418701 90.127785 335.749481 142.711258 91.508827 337.812744 142.380432 90.893288 335.334564 142.692123 91.891579 337.605286 142.361115 91.719452 335.057617 142.682465 92.304665 337.466827 142.361328 92.581184 334.927094 142.682571 92.735527 337.401581 142.381058 93.452286 334.946960 142.692429 93.171082 337.411499 142.419708 94.306305 335.116577 142.711761 93.598091 337.496307 142.476105 95.117287 335.430786 142.739960 94.003578 337.653412 142.548538 95.860596 335.880096 142.776169 94.375229 337.878052 142.634796 96.513634 336.450806 142.819305 94.701752 338.163422 142.732285 97.056564 337.125580 142.868042 94.973213 338.500824 142.838013 97.472893 337.883942 142.920914 95.181381 338.879974 142.948776 97.749969 338.702820 142.976288 95.319916 339.289429 143.032516 95.384621 339.716705 144.138748 97.726509 338.549805 144.027985 97.449432 337.730927 143.922256 97.033096 336.972565 143.824768 96.490166 336.297791 143.738510 95.837128 335.727081 143.666077 95.093826 335.277771 143.609680 94.282845 334.963531 143.571030 93.428825 334.793915 143.551300 92.557716 334.774078 143.551086 91.695992 334.904602 143.570419 90.869820 335.181519 143.608673 90.104324 335.596436 143.664719 89.422745 336.136749 143.736832 88.845802 336.786011 143.822830 88.391022 337.524536 143.920105 88.072227 338.329834 144.025696 87.899101 339.177460 144.136383 87.876900 340.041687 144.248825 88.006310 340.896210 144.359589 88.283386 341.715088 144.465317 88.699715 342.473450 144.562790 89.242645 343.148224 144.649063 89.895683 343.718964 144.721497 90.638985 344.168243 144.777893 91.449966 344.482483 144.816544 92.303986 344.652100 144.836273 93.175095 344.671936 144.836472 94.036827 344.541412 144.817154 94.862991 344.264496 144.778900 95.628494 343.849579 144.722855 96.310066 343.309265 144.650742 96.887009 342.660004 144.564743 97.341789 341.921509 144.467468 97.660583 341.116180 144.361877 97.833710 340.268555 144.251190 97.855911 339.404327 144.422256 94.876709 341.191498 144.458313 94.588234 341.516144 144.486343 94.247452 341.786285 144.505478 93.864700 341.993744 144.515137 93.451614 342.132202 144.515030 93.020752 342.197479 144.505157 92.585197 342.187561 144.485840 92.158188 342.102753 144.457642 91.752693 341.945618 144.421417 91.381042 341.720978 144.378296 91.054527 341.435638 144.329559 90.783058 341.098236 144.276688 90.574898 340.719055 144.221298 90.436356 340.309601 144.165085 90.371658 339.882355 144.109741 90.382751 339.450226 144.056946 90.469315 339.026428 144.008301 90.628716 338.623779 143.965302 90.856102 338.254517 143.929245 91.144577 337.929871 143.901230 91.485367 337.659729 143.882095 91.868118 337.452271 143.872437 92.281197 337.313812 143.872543 92.712059 337.248535 143.882401 93.147614 337.258453 143.901733 93.574623 337.343262 143.929932 93.980118 337.500397 143.966141 94.351768 337.725037 144.009277 94.678284 338.010406 144.058014 94.949753 338.347778 144.110886 95.157921 338.726959 144.166260 95.296455 339.136414 144.222488 95.361160 339.563660 144.277832 95.350060 339.995789 144.330627 95.263496 340.419586 144.379257 95.104095 340.822266 141.288940 92.755089 340.676697 141.510910 92.216843 342.485291 141.293579 92.857574 340.697052 141.530228 92.643852 342.570099 141.295959 92.962105 340.699432 141.540100 93.079407 342.580017 141.295975 93.065514 340.683777 141.540207 93.510277 342.514771 141.293655 93.164658 340.650543 141.530548 93.923355 342.376312 141.289062 93.256516 340.600739 141.511414 94.306107 342.168854 141.282349 93.338303 340.535919 141.483383 94.646896 341.898712 141.273682 93.407539 340.458008 141.447327 94.935364 341.574066 141.263367 93.462112 340.369385 141.404327 95.162758 341.204803 141.251694 93.500366 340.272736 141.355698 95.322151 340.802155 141.239029 93.521141 340.171021 141.302902 95.408714 340.378326 141.225739 93.523804 340.067322 141.247559 95.419815 339.946228 141.212250 93.508278 339.964783 141.191330 95.355110 339.518951 141.198959 93.475029 339.866516 141.135956 95.216576 339.109528 141.186264 93.425064 339.775513 141.083084 95.008408 338.730347 141.174576 93.359917 339.694550 141.034348 94.736946 338.392944 141.164215 93.281548 339.626068 140.991211 94.410423 338.107605 141.155533 93.192352 339.572144 140.955002 94.038773 337.882935 141.148758 93.095039 339.534424 140.926804 93.633286 337.725830 141.144119 92.992554 339.514069 140.907471 93.206276 337.641022 141.141754 92.888023 339.511688 140.897614 92.770721 337.631104 141.141739 92.784615 339.527344 140.897507 92.339859 337.696350 141.144043 92.685471 339.560577 140.907166 91.926773 337.834839 141.148636 92.593613 339.610382 140.926300 91.544022 338.042297 141.155365 92.511826 339.675201 140.954315 91.203232 338.312439 141.164017 92.442589 339.753113 140.990372 90.914764 338.637054 141.174347 92.388016 339.841736 141.033371 90.687370 339.006317 141.186020 92.349762 339.938385 141.082016 90.527977 339.408966 141.198685 92.328987 340.040100 141.134811 90.441414 339.832794 141.211960 92.326324 340.143799 141.190155 90.430313 340.264893 141.225464 92.341850 340.246338 141.246368 90.495018 340.692169 141.238754 92.375099 340.344604 141.301758 90.633553 341.101624 141.251434 92.425064 340.435608 141.354614 90.841721 341.480774 141.263138 92.490211 340.516602 141.403366 91.113182 341.818176 141.273483 92.568581 340.585083 141.446487 91.439705 342.103546 141.282181 92.657776 340.639008 141.482712 91.811356 342.328186 88.641586 93.365273 346.798615 88.628914 93.386047 346.696899 88.617241 93.424301 346.600250 88.606918 93.478874 346.511627 88.598267 93.548111 346.433716 88.591545 93.629898 346.368896 88.586952 93.721756 346.319092 88.584633 93.820900 346.285858 88.584656 93.924309 346.270203 88.587021 94.028839 346.272583 88.591660 94.131317 346.292938 88.598427 94.228638 346.330627 88.607124 94.317833 346.384552 88.617477 94.396202 346.453033 88.629173 94.461349 346.534027 88.641861 94.511314 346.625031 88.655151 94.544563 346.723297 88.668640 94.560089 346.825836 88.681923 94.557426 346.929535 88.694595 94.536652 347.031250 88.706268 94.498390 347.127899 88.716591 94.443817 347.216522 88.725243 94.374588 347.294434 88.731972 94.292801 347.359253 88.736557 94.200935 347.409058 88.738876 94.101799 347.442291 88.738853 93.998390 347.457947 88.736488 93.893860 347.455566 88.731850 93.791374 347.435211 88.725082 93.694061 347.397491 88.716385 93.604858 347.343597 88.706039 93.526497 347.275085 88.694336 93.461342 347.194122 88.681648 93.411385 347.103119 88.668358 93.378136 347.004852 88.654869 93.362610 346.902313 147.140015 90.312996 339.499786 147.084671 90.324097 339.067688 147.031876 90.410660 338.643860 146.983246 90.570061 338.241211 146.940231 90.797447 337.871948 146.904175 91.085922 337.547333 146.876160 91.426704 337.277161 146.857025 91.809456 337.069702 146.847366 92.222542 336.931244 146.847473 92.653404 336.865997 146.857330 93.088959 336.875916 146.876663 93.515968 336.960724 146.904861 93.921455 337.117828 146.941071 94.293114 337.342468 146.984207 94.619629 337.627838 147.032944 94.891098 337.965240 147.085815 95.099258 338.344421 147.141190 95.237801 338.753845 147.197418 95.302498 339.181122 147.252762 95.291405 339.613220 147.305557 95.204842 340.037048 147.354187 95.045441 340.439697 147.397186 94.818054 340.808960 147.433258 94.529579 341.133575 147.461273 94.188789 341.403748 147.480408 93.806038 341.611206 147.490067 93.392960 341.749664 147.489960 92.962097 341.814911 147.480103 92.526543 341.804993 147.460770 92.099533 341.720184 147.432571 91.694038 341.563080 147.396347 91.322388 341.338409 147.353226 90.995872 341.053070 147.304489 90.724403 340.715668 147.251617 90.516235 340.336487 147.196228 90.377701 339.927063 147.168716 92.807747 339.340454 89.059746 94.038834 343.067993 89.094612 94.361626 343.086090 88.198982 94.379288 343.201263 133.036270 96.652985 342.219238 115.429092 97.127258 343.843414 132.957809 96.781639 341.589325 116.132881 97.128250 343.100128 132.875565 96.798134 340.947144 116.835381 97.016594 342.364044 132.792007 96.701973 340.312134 117.515236 96.795670 341.657532 132.709686 96.496078 339.703613 118.151794 96.472191 341.002014 132.631119 96.186699 339.140076 118.466103 96.261551 340.681000 132.591675 95.983032 338.864532 92.760246 97.447121 347.398468 93.147469 97.232903 347.896240 88.937416 97.287025 348.497772 133.108566 96.416084 342.817657 114.165871 96.818474 345.193390 114.745392 97.013634 344.571320 88.865128 97.523918 347.899353 88.786667 97.652573 347.269470 92.301155 97.583275 346.817535 88.704407 97.669067 346.627258 91.826340 97.607513 346.225800 88.620857 97.572906 345.992249 91.350227 97.519089 345.641266 88.538544 97.367012 345.383728 90.887291 97.320702 345.081696 88.459976 97.057632 344.820190 90.451584 97.018364 344.564087 88.387543 96.654182 344.318756 90.056358 96.621277 344.104156 88.323441 96.168907 343.894684 89.713608 96.141495 343.715912 88.269615 95.616554 343.560791 89.433769 95.593597 343.411102 89.565247 95.875061 343.552429 88.227699 95.013908 343.327301 89.149940 94.680901 343.129852 89.225319 94.994240 343.199005 89.320168 95.299248 343.292999 89.045609 93.714981 343.075745 88.184319 93.731956 343.186493 89.052307 93.392532 343.109283 88.184166 93.091606 343.283478 89.079796 93.073944 343.168304 89.127861 92.761650 343.252441 88.198524 92.477676 343.489288 89.196144 92.458008 343.360992 89.284111 92.165344 343.493134 88.226959 91.908829 343.797607 89.391113 91.885880 343.647888 89.516319 91.621742 343.824066 88.268600 91.402351 344.199097 89.658775 91.374939 344.020325 88.322189 90.973625 344.681580 89.991005 90.940720 344.466980 88.386101 90.635674 345.230377 90.377708 90.596405 344.974243 88.458382 90.398773 345.828796 90.807121 90.352463 345.526764 88.536842 90.270126 346.458679 91.266212 90.216309 346.107697 88.619102 90.253624 347.100891 91.741028 90.192070 346.699402 88.702652 90.349792 347.735870 92.217140 90.280495 347.283936 88.784966 90.555687 348.344391 92.680077 90.478882 347.843506 93.072845 90.745750 348.310547 88.863533 90.865059 348.907928 114.091240 90.331322 345.607727 133.034683 89.994125 343.227814 132.956116 89.684753 342.664276 114.665222 90.045395 345.016357 132.873810 89.478851 342.055756 115.345078 89.824471 344.309845 132.790253 89.382690 341.420746 116.047577 89.712814 343.573761 132.707993 89.399185 340.778564 116.751366 89.713806 342.830475 132.629532 89.527840 340.148682 117.435074 89.827431 342.102570 132.557251 89.764740 339.550232 118.077911 90.050232 341.412201 132.522064 89.932549 339.250977 118.396492 90.211067 341.067444 133.107117 90.397583 343.729248 88.935966 91.268517 349.409363 133.125473 90.522125 343.852905 89.000076 91.753792 349.833466 133.705078 90.076317 343.279358 133.758255 90.384743 343.645508 133.776611 90.509285 343.769165 133.776978 96.325783 342.880219 133.823593 96.065300 343.282715 133.839279 95.957115 343.421234 133.188141 95.969948 343.504974 89.001320 96.949074 349.046570 133.172470 96.078140 343.366425 89.054909 96.520348 349.529022 89.053902 92.306145 350.167328 89.095810 92.908791 350.400848 89.124527 93.543411 350.526886 89.139191 94.190735 350.541626 89.139343 94.831093 350.444641 89.124985 95.445015 350.238861 89.096550 96.013863 349.930542 118.437347 90.222061 341.023712 118.451996 90.221283 341.008301 118.519165 90.180595 340.939484 118.422943 90.220581 341.039001 118.522911 90.174561 340.935822 118.526115 90.168297 340.932770 118.409195 90.216881 341.053711 118.466484 90.218254 340.993164 118.480392 90.213081 340.978729 118.514900 90.186363 340.943665 118.493340 90.205894 340.965424 118.504951 90.196899 340.953644 118.528748 90.161850 340.930298 118.530807 90.155251 340.928497 118.532257 90.148567 340.927307 118.533104 90.141838 340.926758 118.533340 90.135101 340.926849 118.604439 96.315865 340.532104 118.599251 96.289886 340.538910 118.596466 96.283867 340.542175 118.601448 96.296150 340.536285 118.521271 96.242630 340.623718 118.506622 96.244156 340.639099 118.589249 96.272675 340.550385 118.492287 96.247894 340.654053 118.593124 96.278114 340.545990 118.478645 96.253754 340.668152 118.574684 96.258636 340.566498 118.562889 96.251488 340.579315 118.584862 96.267601 340.555267 118.549797 96.246353 340.593384 118.535797 96.243370 340.608337 118.604057 96.309181 340.532837 118.603058 96.302589 340.534241 132.501617 89.557137 339.149506 132.505096 89.859619 339.130188 132.579681 96.342857 338.716095 132.576202 96.040375 338.735413 133.230820 96.330025 338.632355 133.152756 89.544296 339.065765 133.780060 96.593910 342.863098 136.824921 96.533875 342.471527 133.701996 89.808189 343.296478 136.746857 89.748154 342.904938 132.520660 89.938644 339.239075 132.519104 89.942642 339.226349 132.517441 89.944443 339.213104 132.515717 89.943985 339.199799 132.513977 89.941277 339.186737 132.512283 89.936409 339.174316 132.510681 89.929512 339.162903 132.509216 89.920776 339.152771 132.507919 89.910454 339.144257 132.506821 89.898842 339.137573 132.505981 89.886253 339.132935 132.505402 89.873055 339.130432 132.576202 96.027077 338.737396 132.576477 96.014297 338.741547 132.577042 96.002388 338.747772 132.577866 95.991692 338.755859 132.578949 95.982513 338.765625 132.580231 95.975105 338.776764 132.581696 95.969681 338.788971 132.583298 95.966393 338.801910 132.584991 95.965332 338.815216 132.586716 95.966530 338.828491 132.588440 95.969955 338.841370 132.590103 95.975510 338.853516 133.117783 89.853172 343.895630 132.022888 89.327126 335.461914 132.011414 88.329224 335.525665 133.436356 90.006241 346.349579 133.424881 89.008339 346.413300 137.132355 89.933365 345.874298 137.120865 88.935463 345.938019 135.707397 88.256348 335.050385 135.718887 89.254250 334.986633 133.768906 89.840340 343.811890 134.873306 89.306229 335.648163 134.896408 89.294952 335.475769 134.889160 89.283928 335.301941 134.504623 89.347176 336.222870 134.357437 89.354813 336.315948 134.196259 89.360886 336.382080 134.026016 89.365219 336.419250 133.009628 89.342972 335.887817 133.102982 89.351288 336.034790 133.220474 89.358147 336.163361 133.358536 89.363342 336.269653 132.943253 89.333458 335.726929 132.905884 89.323036 335.556976 132.014191 89.313904 335.253357 132.898636 89.312019 335.383179 132.041916 89.300369 335.046478 132.921738 89.300743 335.210754 132.105209 89.286934 334.847565 132.974487 89.289551 335.045013 133.161667 89.268761 334.753204 132.484329 89.251228 334.356812 133.055283 89.278778 334.890930 132.329834 89.261986 334.497406 132.202164 89.274010 334.662659 134.820557 89.317421 335.813934 134.739761 89.328194 335.967987 134.633377 89.338211 336.105713 133.851868 89.367676 336.426361 133.679108 89.368187 336.403168 133.512985 89.366730 336.350403 133.437607 89.252159 334.542969 133.058655 89.229576 334.121155 133.290421 89.259796 334.636047 132.854370 89.234772 334.165771 132.660965 89.242065 334.245117 134.851791 89.273506 335.132019 135.674026 89.241737 334.782715 134.785416 89.263992 334.971100 133.598785 89.246078 334.476868 133.769028 89.241745 334.439667 134.374710 89.203629 333.951935 135.594376 89.230324 334.589630 135.482361 89.220352 334.413269 134.692062 89.255684 334.824127 135.341370 89.212120 334.258972 134.574570 89.248825 334.695557 133.943176 89.239288 334.432587 134.115936 89.238785 334.455750 134.583694 89.200676 333.943390 134.282059 89.240242 334.508514 134.791000 89.200066 333.971222 134.436508 89.243622 334.589264 134.990356 89.201820 334.034546 135.175690 89.205879 334.131439 135.582901 88.232422 334.653381 135.662552 88.243835 334.846466 132.002701 88.316002 335.317078 132.842880 88.236870 334.229523 133.047180 88.231674 334.184906 134.363235 88.205727 334.015656 134.572205 88.202774 334.007141 132.318359 88.264091 334.561127 132.472855 88.253334 334.420532 132.190689 88.276115 334.726379 132.093735 88.289040 334.911285 132.030426 88.302467 335.110199 132.649490 88.244164 334.308868 134.779526 88.202171 334.034943 134.978882 88.203918 334.098267 135.164200 88.207977 334.195160 135.329880 88.214218 334.322723 135.470871 88.222450 334.477020 133.195847 96.638901 343.462250 132.112427 97.110748 334.964783 132.100952 96.112846 335.028534 133.514420 96.791962 345.916168 133.525909 97.789864 345.852448 133.846985 96.626060 343.378510 137.210419 96.719093 345.440887 135.796951 96.039970 334.553253 137.221893 97.716988 345.377167 135.808426 97.037872 334.489502 132.671600 92.796661 339.974640 132.671646 93.012939 339.941864 132.676453 92.589310 340.044128 132.686050 92.397186 340.148254 132.965683 93.954697 342.084015 132.979752 93.783638 342.219635 132.989349 93.591515 342.323761 132.686310 93.445908 339.989410 132.676605 93.231567 339.946838 132.994202 93.384163 342.393250 132.994156 93.167885 342.426025 132.989197 92.949257 342.421051 132.979507 92.734917 342.378479 132.739807 91.967186 340.632172 132.718216 92.081329 340.446808 132.700455 93.649445 340.068298 132.718643 93.835999 340.181061 132.740295 93.999901 340.324280 132.700119 92.226128 340.283875 132.965347 92.531380 342.299591 132.947174 92.344826 342.186829 132.925522 92.180923 342.043610 132.901047 92.044662 341.874237 132.874512 91.940170 341.683929 132.846710 91.870628 341.478394 132.818497 91.838150 341.263916 132.790710 91.843727 341.047028 132.764221 91.887177 340.834290 132.947586 94.099495 341.921082 132.926010 94.213638 341.735718 132.901596 94.293648 341.533600 132.875092 94.337097 341.320862 132.847305 94.342674 341.103973 132.819092 94.310196 340.889496 132.791290 94.240654 340.683960 132.764755 94.136162 340.493652 132.983948 96.108765 335.123596 133.021317 96.119186 335.293518 133.087692 96.128700 335.454437 133.181046 96.137009 335.601410 133.298538 96.143875 335.729980 133.929932 96.153404 335.992950 134.104080 96.150948 335.985870 134.194000 96.024506 334.022369 134.452774 95.989349 333.518524 134.360123 96.025970 334.075134 134.661758 95.986404 333.510010 134.514572 96.029350 334.155884 132.976700 96.097748 334.949768 132.092255 96.099625 334.819946 132.999802 96.086464 334.777374 133.436600 96.149071 335.836273 133.591049 96.152451 335.917023 133.757172 96.153908 335.969788 134.770126 96.041405 334.390747 135.560425 96.006073 333.979889 134.863480 96.049721 334.537720 135.672440 96.016052 334.156250 134.929855 96.059235 334.698608 135.752090 96.027466 334.349335 134.967224 96.069656 334.868561 134.974472 96.080673 335.042358 134.951370 96.091949 335.214783 134.021240 96.025017 333.999176 133.847092 96.027473 334.006287 133.136719 96.015297 333.687775 134.274323 96.146614 335.948669 134.435501 96.140533 335.882538 134.582687 96.132896 335.789490 134.869064 95.985794 333.537811 135.068420 95.987549 333.601135 134.652634 96.034546 334.262177 135.253754 95.991600 333.698059 135.419434 95.997841 333.825592 133.676849 96.031807 334.043457 133.515671 96.037880 334.109589 132.932434 96.020500 333.732391 133.368484 96.045517 334.202637 132.739029 96.027794 333.811737 133.239731 96.054482 334.319824 132.562393 96.036957 333.923401 133.133347 96.064507 334.457520 132.119980 96.086098 334.613068 132.183273 96.072662 334.414154 133.052551 96.075272 334.611603 132.280228 96.059738 334.229279 132.407898 96.047714 334.063995 134.711441 96.123932 335.672333 134.817825 96.113914 335.534607 134.898621 96.103142 335.380524 134.464264 96.987251 333.454803 133.148209 97.013199 333.624023 135.079895 96.985443 333.537415 134.880554 96.983696 333.474091 134.673233 96.984306 333.446259 132.943909 97.018402 333.668640 132.750504 97.025696 333.747986 132.573883 97.034859 333.859680 135.763565 97.025368 334.285583 135.683929 97.013954 334.092499 135.265228 96.989502 333.634308 135.571899 97.003975 333.916138 135.430908 96.995743 333.761841 132.291718 97.057640 334.165527 132.194763 97.070564 334.350433 132.419388 97.045616 334.000275 132.131454 97.084000 334.549347 132.103729 97.097527 334.756226 133.469635 91.825317 341.180206 133.441849 91.830887 340.963287 133.415344 91.874336 340.750549 133.390930 91.954346 340.548431 133.369354 92.068489 340.363098 133.351257 92.213287 340.200134 133.337189 92.384346 340.064545 133.327576 92.576477 339.960388 133.322739 92.783821 339.890900 133.322784 93.000099 339.858124 133.327744 93.218727 339.863129 133.337433 93.433067 339.905701 133.351593 93.636612 339.984558 133.369766 93.823158 340.097321 133.391418 93.987061 340.240540 133.415894 94.123322 340.409912 133.442429 94.227814 340.600250 133.470230 94.297356 340.805756 133.498444 94.329834 341.020233 133.526230 94.324265 341.237122 133.552719 94.280807 341.449860 133.577133 94.200798 341.651978 133.598724 94.086662 341.837341 133.616821 93.941856 342.000275 133.630890 93.770798 342.135895 133.640488 93.578674 342.240021 133.645340 93.371323 342.309540 133.645294 93.155045 342.342285 133.640335 92.936417 342.337311 133.630630 92.722076 342.294739 133.616486 92.518539 342.215881 133.598297 92.331985 342.103119 133.576645 92.168091 341.959869 133.552185 92.031822 341.790527 133.525650 91.927330 341.600189 133.497849 91.857796 341.394653 "
							            />
						</IndexedFaceSet>
					</Shape>
				</Group>
			</Transform>
		</Transform>
	</Scene>
</X3D>