<?xml version="1.0" encoding="UTF-8"?>
<!DOCTYPE X3D PUBLIC "ISO//Web3D//DTD X3D 3.0//EN" "http://www.web3d.org/specifications/x3d-3.0.dtd">
<X3D version="3.0" profile="Immersive" xmlns:xsd="http://www.w3.org/2001/XMLSchema-instance" xsd:noNamespaceSchemaLocation="http://www.web3d.org/specifications/x3d-3.0.xsd">
	<head>
		<meta name="filename" content="OMLV4_Packing - For Xander - Refuler-1 Probe-1.x3d" />
		<meta name="created" content="2026-04-19 20:21:18" />
		<meta name="generator" content="Blender 4.3.2" />
		<meta name="translator" content="Web3D X3D/VRML2 format v2.5.1" />
	</head>
	<Scene>
		<NavigationInfo headlight="true"
		                visibilityLimit="0.0"
		                type='"EXAMINE", "ANY"'
		                avatarSize="0.25, 1.75, 0.75"
		                />
		<Background DEF="WO_World"
		            groundColor="0.051 0.051 0.051"
		            skyColor="0.051 0.051 0.051"
		            />
		<Transform DEF="OMLV4_Packing_-_For_Xander_-_Refuler-1_Probe-1_TRANSFORM"
		           translation="0.000000 0.000000 0.000000"
		           scale="1.000000 1.000000 1.000000"
		           rotation="-1.000000 0.000000 0.000000 1.570796"
		           >
			<Transform DEF="OMLV4_Packing_-_For_Xander_-_Refuler-1_Probe-1_ifs_TRANSFORM"
			           translation="0.000000 0.000000 0.000000"
			           scale="1.000000 1.000000 1.000000"
			           rotation="0.000000 1.000000 0.000000 0.000000"
			           >
				<Group DEF="group_ME_OMLV4_Packing_-_For_Xander_-_Refuler-1_Probe-1">
					<Shape>
						<Appearance>
						</Appearance>
						<IndexedFaceSet solid="false"
						                coordIndex="0 1 2 -1 2 1 3 -1 2 3 4 -1 0 5 1 -1 1 5 6 -1 1 6 7 -1 7 8 1 -1 1 8 9 -1 1 9 10 -1 10 11 1 -1 1 11 12 -1 1 12 13 -1 14 15 16 -1 14 16 17 -1 18 19 20 -1 20 19 21 -1 21 22 20 -1 20 22 23 -1 20 23 24 -1 24 23 25 -1 4 26 2 -1 2 26 27 -1 2 27 23 -1 23 27 28 -1 23 28 25 -1 29 30 31 -1 29 31 32 -1 31 33 34 -1 34 35 31 -1 31 35 36 -1 31 36 32 -1 30 37 31 -1 31 37 38 -1 31 38 16 -1 16 38 39 -1 16 39 17 -1 40 41 42 -1 42 41 43 -1 42 43 44 -1 44 45 42 -1 42 45 46 -1 42 46 47 -1 47 48 42 -1 42 48 49 -1 42 49 31 -1 31 49 50 -1 31 50 33 -1 51 52 53 -1 54 55 56 -1 54 56 57 -1 52 51 56 -1 56 51 58 -1 56 58 57 -1 59 60 61 -1 61 60 62 -1 62 63 61 -1 61 63 64 -1 61 64 65 -1 65 64 66 -1 65 66 42 -1 42 66 67 -1 42 67 40 -1 68 69 70 -1 71 70 13 -1 13 70 72 -1 72 73 13 -1 13 73 74 -1 13 74 1 -1 71 75 70 -1 70 75 76 -1 70 76 77 -1 77 78 70 -1 70 78 79 -1 70 79 68 -1 53 80 51 -1 51 80 70 -1 51 70 81 -1 81 70 69 -1 82 83 84 -1 84 83 85 -1 84 85 86 -1 86 87 84 -1 84 87 88 -1 84 88 89 -1 90 91 92 -1 92 91 93 -1 90 94 91 -1 91 94 95 -1 91 95 96 -1 97 98 99 -1 99 98 100 -1 100 101 99 -1 99 101 102 -1 99 102 103 -1 103 102 104 -1 103 104 84 -1 84 104 105 -1 84 105 82 -1 106 107 108 -1 106 108 109 -1 108 110 111 -1 111 112 108 -1 108 112 113 -1 108 113 114 -1 114 115 108 -1 108 115 116 -1 108 116 109 -1 93 117 92 -1 92 117 108 -1 92 108 118 -1 118 108 107 -1 119 120 121 -1 119 121 122 -1 122 121 123 -1 122 123 124 -1 120 125 121 -1 121 125 126 -1 121 126 127 -1 127 128 121 -1 121 128 129 -1 121 129 130 -1 110 131 111 -1 111 131 121 -1 111 121 132 -1 132 121 130 -1 133 134 135 -1 133 135 136 -1 137 138 139 -1 139 138 140 -1 140 141 139 -1 139 141 142 -1 139 142 143 -1 143 142 144 -1 124 145 122 -1 122 145 146 -1 122 146 142 -1 142 146 147 -1 142 147 144 -1 148 149 150 -1 89 151 84 -1 84 151 152 -1 84 152 150 -1 150 152 153 -1 153 154 150 -1 150 154 155 -1 150 155 156 -1 156 157 150 -1 150 157 158 -1 150 158 148 -1 149 159 150 -1 150 159 160 -1 150 160 135 -1 135 160 161 -1 135 161 136 -1 134 137 135 -1 135 137 139 -1 135 139 162 -1 162 139 163 -1 162 163 164 -1 164 165 162 -1 162 165 166 -1 162 166 167 -1 167 166 168 -1 167 168 169 -1 169 170 167 -1 167 170 171 -1 167 171 172 -1 172 171 173 -1 172 173 174 -1 174 175 172 -1 172 175 176 -1 172 176 177 -1 177 176 178 -1 177 178 179 -1 179 180 177 -1 177 180 181 -1 177 181 182 -1 182 181 183 -1 183 184 182 -1 182 184 185 -1 182 185 186 -1 186 185 187 -1 187 188 186 -1 186 188 189 -1 186 189 190 -1 190 189 191 -1 190 191 192 -1 192 193 190 -1 190 193 194 -1 190 194 195 -1 195 194 196 -1 195 196 197 -1 197 198 195 -1 195 198 199 -1 195 199 200 -1 200 199 201 -1 200 201 202 -1 202 203 200 -1 200 203 204 -1 200 204 205 -1 205 204 206 -1 206 207 205 -1 205 207 208 -1 205 208 209 -1 209 208 210 -1 209 210 211 -1 211 212 209 -1 209 212 213 -1 209 213 214 -1 214 213 215 -1 214 215 216 -1 216 217 214 -1 214 217 218 -1 214 218 219 -1 219 218 220 -1 219 220 221 -1 221 222 219 -1 219 222 223 -1 219 223 61 -1 61 223 224 -1 61 224 225 -1 55 59 56 -1 56 59 61 -1 56 61 226 -1 226 61 225 -1 15 18 16 -1 16 18 20 -1 16 20 227 -1 227 20 228 -1 227 228 229 -1 229 230 227 -1 227 230 231 -1 227 231 232 -1 232 231 233 -1 232 233 234 -1 234 235 232 -1 232 235 236 -1 232 236 237 -1 237 236 238 -1 237 238 239 -1 239 240 237 -1 237 240 241 -1 237 241 242 -1 242 241 243 -1 242 243 244 -1 244 245 242 -1 242 245 246 -1 242 246 247 -1 247 246 248 -1 247 248 249 -1 249 250 247 -1 247 250 251 -1 247 251 252 -1 252 251 253 -1 253 254 252 -1 252 254 255 -1 252 255 256 -1 256 255 257 -1 257 258 256 -1 256 258 259 -1 256 259 260 -1 260 259 261 -1 260 261 262 -1 262 263 260 -1 260 263 264 -1 260 264 265 -1 265 264 266 -1 265 266 267 -1 267 268 265 -1 265 268 269 -1 265 269 270 -1 270 269 271 -1 271 272 270 -1 270 272 273 -1 270 273 274 -1 274 273 275 -1 274 275 276 -1 276 277 274 -1 274 277 278 -1 274 278 279 -1 279 278 280 -1 279 280 281 -1 281 282 279 -1 279 282 283 -1 279 283 284 -1 284 283 285 -1 96 97 91 -1 91 97 99 -1 91 99 286 -1 285 287 284 -1 284 287 288 -1 284 288 99 -1 99 288 289 -1 99 289 286 -1 290 291 292 -1 292 291 293 -1 294 295 296 -1 296 295 297 -1 296 297 298 -1 298 297 299 -1 298 299 300 -1 290 301 302 -1 293 303 292 -1 292 303 304 -1 292 304 305 -1 306 307 296 -1 308 309 298 -1 298 309 310 -1 302 311 290 -1 290 311 312 -1 290 312 291 -1 305 313 292 -1 292 313 314 -1 292 314 315 -1 307 316 296 -1 296 316 317 -1 296 317 294 -1 318 319 290 -1 300 320 298 -1 298 320 321 -1 298 321 308 -1 315 322 292 -1 292 322 323 -1 292 323 296 -1 296 323 324 -1 296 324 306 -1 319 325 290 -1 290 325 326 -1 290 326 301 -1 310 327 298 -1 298 327 328 -1 298 328 290 -1 290 328 329 -1 290 329 318 -1 330 298 331 -1 331 298 290 -1 332 330 333 -1 333 334 332 -1 332 334 335 -1 332 335 336 -1 337 338 339 -1 339 338 340 -1 341 342 339 -1 339 342 343 -1 339 343 331 -1 331 343 344 -1 331 344 345 -1 336 346 332 -1 332 346 347 -1 332 347 348 -1 340 349 339 -1 339 349 350 -1 339 350 341 -1 345 351 331 -1 331 351 352 -1 331 352 353 -1 354 355 330 -1 355 356 330 -1 330 356 357 -1 330 357 358 -1 348 359 332 -1 332 359 360 -1 332 360 339 -1 339 360 361 -1 339 361 337 -1 358 362 330 -1 330 362 363 -1 330 363 333 -1 353 364 331 -1 331 364 365 -1 331 365 366 -1 366 367 331 -1 331 367 368 -1 331 368 330 -1 330 368 369 -1 330 369 354 -1 296 332 292 -1 292 332 339 -1 242 247 330 -1 265 270 298 -1 298 270 274 -1 296 135 162 -1 296 177 182 -1 247 252 330 -1 330 252 256 -1 330 256 298 -1 298 256 260 -1 298 260 265 -1 274 279 298 -1 298 279 284 -1 298 284 99 -1 162 167 296 -1 296 167 172 -1 296 172 177 -1 195 332 190 -1 190 332 296 -1 190 296 186 -1 186 296 182 -1 99 103 298 -1 298 103 84 -1 298 84 296 -1 296 84 150 -1 296 150 135 -1 195 200 332 -1 332 200 205 -1 332 205 209 -1 209 214 332 -1 332 214 219 -1 332 219 61 -1 16 227 330 -1 61 65 332 -1 332 65 42 -1 332 42 330 -1 330 42 31 -1 330 31 16 -1 227 232 330 -1 330 232 237 -1 330 237 242 -1 339 331 292 -1 292 331 290 -1 299 333 300 -1 300 333 363 -1 300 363 320 -1 320 363 362 -1 320 362 321 -1 321 362 358 -1 321 358 308 -1 308 358 357 -1 308 357 309 -1 309 357 356 -1 309 356 310 -1 310 356 355 -1 310 355 327 -1 327 355 354 -1 327 354 328 -1 328 354 369 -1 328 369 329 -1 329 369 368 -1 329 368 318 -1 318 368 367 -1 318 367 319 -1 319 367 366 -1 319 366 325 -1 325 366 365 -1 325 365 326 -1 326 365 364 -1 326 364 301 -1 301 364 353 -1 301 353 302 -1 302 353 352 -1 302 352 311 -1 311 352 351 -1 311 351 312 -1 312 351 345 -1 312 345 291 -1 291 345 344 -1 291 344 293 -1 293 344 343 -1 293 343 303 -1 303 343 342 -1 303 342 304 -1 304 342 341 -1 304 341 305 -1 305 341 350 -1 305 350 313 -1 313 350 349 -1 313 349 314 -1 314 349 340 -1 314 340 315 -1 315 340 338 -1 315 338 322 -1 322 338 337 -1 322 337 323 -1 323 337 361 -1 323 361 324 -1 324 361 360 -1 324 360 306 -1 306 360 359 -1 306 359 307 -1 307 359 348 -1 307 348 316 -1 316 348 347 -1 316 347 317 -1 317 347 346 -1 317 346 294 -1 294 346 336 -1 294 336 295 -1 295 336 335 -1 295 335 297 -1 297 335 334 -1 297 334 299 -1 299 334 333 -1 370 371 147 -1 147 371 144 -1 144 371 372 -1 144 372 143 -1 143 372 373 -1 143 373 139 -1 139 373 163 -1 163 373 374 -1 163 374 164 -1 164 374 375 -1 164 375 165 -1 165 375 376 -1 165 376 166 -1 166 376 168 -1 168 376 377 -1 168 377 169 -1 169 377 378 -1 169 378 170 -1 170 378 379 -1 170 379 171 -1 171 379 173 -1 173 379 380 -1 173 380 174 -1 174 380 381 -1 174 381 175 -1 175 381 382 -1 175 382 176 -1 176 382 383 -1 176 383 178 -1 178 383 179 -1 179 383 384 -1 179 384 180 -1 180 384 385 -1 180 385 181 -1 181 385 386 -1 181 386 183 -1 387 191 189 -1 376 388 377 -1 377 388 389 -1 377 389 378 -1 378 389 390 -1 378 390 379 -1 379 390 391 -1 379 391 380 -1 380 391 392 -1 380 392 381 -1 381 392 393 -1 381 393 382 -1 382 393 394 -1 382 394 383 -1 383 394 395 -1 383 395 384 -1 384 395 396 -1 384 396 385 -1 385 396 397 -1 385 397 386 -1 386 397 398 -1 386 398 399 -1 399 398 400 -1 399 400 401 -1 401 400 402 -1 401 402 403 -1 403 402 404 -1 403 404 405 -1 405 404 406 -1 183 386 184 -1 184 386 399 -1 184 399 185 -1 185 399 401 -1 185 401 187 -1 187 401 403 -1 187 403 188 -1 188 403 405 -1 188 405 189 -1 191 387 192 -1 192 387 407 -1 192 407 193 -1 193 407 408 -1 193 408 194 -1 409 196 194 -1 196 409 197 -1 197 409 410 -1 197 410 198 -1 198 410 411 -1 198 411 199 -1 199 411 412 -1 199 412 201 -1 201 412 202 -1 202 412 413 -1 202 413 203 -1 203 413 414 -1 203 414 204 -1 204 414 415 -1 204 415 206 -1 206 415 207 -1 207 415 416 -1 207 416 208 -1 208 416 417 -1 208 417 210 -1 210 417 211 -1 211 417 418 -1 211 418 212 -1 212 418 419 -1 212 419 213 -1 213 419 420 -1 213 420 215 -1 215 420 216 -1 216 420 421 -1 216 421 217 -1 217 421 422 -1 217 422 218 -1 218 422 423 -1 218 423 220 -1 220 423 221 -1 221 423 424 -1 221 424 222 -1 222 424 425 -1 222 425 223 -1 223 425 426 -1 223 426 224 -1 224 426 225 -1 225 426 427 -1 225 427 226 -1 226 427 428 -1 226 428 56 -1 56 428 429 -1 56 429 52 -1 52 429 53 -1 53 429 430 -1 53 430 80 -1 80 430 431 -1 80 431 70 -1 70 431 432 -1 70 432 72 -1 72 432 73 -1 73 432 433 -1 73 433 74 -1 74 433 434 -1 74 434 1 -1 1 434 435 -1 1 435 3 -1 3 435 4 -1 4 435 436 -1 4 436 26 -1 26 436 437 -1 26 437 27 -1 27 437 438 -1 27 438 28 -1 28 438 25 -1 25 438 439 -1 25 439 24 -1 24 439 440 -1 24 440 20 -1 20 440 441 -1 20 441 228 -1 228 441 229 -1 229 441 442 -1 229 442 230 -1 230 442 443 -1 230 443 231 -1 231 443 444 -1 231 444 233 -1 445 236 446 -1 446 236 235 -1 446 235 234 -1 447 241 448 -1 448 241 240 -1 448 240 449 -1 449 240 239 -1 449 239 445 -1 445 239 238 -1 445 238 236 -1 450 246 451 -1 451 246 245 -1 451 245 452 -1 452 245 244 -1 452 244 447 -1 447 244 243 -1 447 243 241 -1 453 251 454 -1 454 251 250 -1 454 250 455 -1 455 250 249 -1 455 249 450 -1 450 249 248 -1 450 248 246 -1 456 259 457 -1 457 259 258 -1 457 258 458 -1 458 258 257 -1 458 257 459 -1 459 257 255 -1 459 255 460 -1 460 255 254 -1 460 254 453 -1 453 254 253 -1 453 253 251 -1 461 264 462 -1 462 264 263 -1 462 263 463 -1 463 263 262 -1 463 262 456 -1 456 262 261 -1 456 261 259 -1 464 269 465 -1 465 269 268 -1 465 268 466 -1 466 268 267 -1 466 267 461 -1 461 267 266 -1 461 266 264 -1 467 273 468 -1 468 273 272 -1 468 272 464 -1 464 272 271 -1 464 271 269 -1 469 278 470 -1 470 278 277 -1 470 277 471 -1 471 277 276 -1 471 276 467 -1 467 276 275 -1 467 275 273 -1 472 283 473 -1 473 283 282 -1 473 282 474 -1 474 282 281 -1 474 281 469 -1 469 281 280 -1 469 280 278 -1 147 146 370 -1 370 146 145 -1 370 145 475 -1 475 145 124 -1 475 124 476 -1 476 124 123 -1 476 123 477 -1 477 123 121 -1 477 121 478 -1 478 121 131 -1 478 131 479 -1 479 131 110 -1 479 110 480 -1 480 110 108 -1 480 108 481 -1 481 108 117 -1 481 117 482 -1 482 117 93 -1 482 93 483 -1 483 93 91 -1 483 91 484 -1 484 91 286 -1 484 286 485 -1 485 286 289 -1 485 289 486 -1 486 289 288 -1 486 288 487 -1 487 288 287 -1 487 287 472 -1 472 287 285 -1 472 285 283 -1 477 488 476 -1 476 488 489 -1 476 489 475 -1 475 489 490 -1 475 490 370 -1 490 491 370 -1 370 491 492 -1 370 492 371 -1 371 492 493 -1 371 493 372 -1 372 493 494 -1 372 494 373 -1 494 495 373 -1 373 495 496 -1 373 496 374 -1 374 496 497 -1 374 497 375 -1 375 497 498 -1 375 498 376 -1 376 498 499 -1 499 500 376 -1 376 500 501 -1 376 501 388 -1 388 501 502 -1 388 502 389 -1 389 502 503 -1 389 503 390 -1 390 503 504 -1 390 504 391 -1 504 505 391 -1 391 505 506 -1 391 506 392 -1 392 506 507 -1 392 507 393 -1 393 507 508 -1 393 508 394 -1 508 509 394 -1 394 509 510 -1 394 510 395 -1 395 510 511 -1 395 511 396 -1 396 511 512 -1 396 512 397 -1 512 513 397 -1 397 513 514 -1 397 514 398 -1 398 514 515 -1 398 515 400 -1 400 515 516 -1 400 516 402 -1 402 516 517 -1 402 517 404 -1 404 517 518 -1 404 518 406 -1 189 405 387 -1 387 405 406 -1 387 406 407 -1 407 406 519 -1 407 519 408 -1 408 519 520 -1 408 520 521 -1 194 408 409 -1 409 408 521 -1 409 521 410 -1 410 521 522 -1 410 522 411 -1 522 523 411 -1 411 523 524 -1 411 524 412 -1 412 524 525 -1 412 525 413 -1 413 525 526 -1 413 526 414 -1 526 527 414 -1 414 527 528 -1 414 528 415 -1 415 528 529 -1 415 529 416 -1 416 529 530 -1 416 530 417 -1 417 530 531 -1 417 531 418 -1 418 531 532 -1 418 532 419 -1 532 533 419 -1 419 533 534 -1 419 534 420 -1 420 534 535 -1 420 535 421 -1 421 535 536 -1 421 536 422 -1 536 537 422 -1 422 537 538 -1 422 538 423 -1 423 538 539 -1 423 539 424 -1 424 539 540 -1 424 540 425 -1 540 541 425 -1 425 541 542 -1 425 542 426 -1 426 542 543 -1 426 543 427 -1 427 543 544 -1 427 544 428 -1 544 545 428 -1 428 545 546 -1 428 546 429 -1 429 546 547 -1 429 547 430 -1 430 547 548 -1 430 548 431 -1 548 549 431 -1 431 549 550 -1 431 550 432 -1 432 550 551 -1 432 551 433 -1 433 551 552 -1 433 552 434 -1 552 553 434 -1 434 553 554 -1 434 554 435 -1 435 554 555 -1 435 555 436 -1 436 555 556 -1 436 556 437 -1 556 557 437 -1 437 557 558 -1 437 558 438 -1 438 558 559 -1 438 559 439 -1 439 559 560 -1 439 560 440 -1 560 561 440 -1 440 561 562 -1 440 562 441 -1 441 562 563 -1 441 563 442 -1 442 563 564 -1 442 564 443 -1 443 564 565 -1 443 565 444 -1 444 565 566 -1 444 566 567 -1 567 566 568 -1 567 568 569 -1 233 444 234 -1 234 444 567 -1 234 567 446 -1 446 567 569 -1 446 569 445 -1 445 569 570 -1 445 570 449 -1 449 570 571 -1 449 571 448 -1 448 571 572 -1 448 572 447 -1 447 572 573 -1 447 573 452 -1 452 573 574 -1 452 574 451 -1 574 575 451 -1 451 575 576 -1 451 576 450 -1 450 576 577 -1 450 577 455 -1 455 577 578 -1 455 578 454 -1 578 579 454 -1 454 579 580 -1 454 580 453 -1 453 580 581 -1 453 581 460 -1 460 581 582 -1 460 582 459 -1 582 583 459 -1 459 583 584 -1 459 584 458 -1 458 584 585 -1 458 585 457 -1 457 585 586 -1 457 586 456 -1 456 586 587 -1 456 587 463 -1 463 587 588 -1 463 588 462 -1 588 589 462 -1 462 589 590 -1 462 590 461 -1 461 590 591 -1 461 591 466 -1 466 591 592 -1 466 592 465 -1 592 593 465 -1 465 593 594 -1 465 594 464 -1 464 594 595 -1 464 595 468 -1 468 595 596 -1 468 596 467 -1 467 596 597 -1 467 597 471 -1 471 597 598 -1 471 598 470 -1 598 599 470 -1 470 599 600 -1 470 600 469 -1 469 600 601 -1 469 601 474 -1 474 601 602 -1 474 602 473 -1 602 603 473 -1 473 603 604 -1 473 604 472 -1 472 604 605 -1 472 605 487 -1 487 605 606 -1 487 606 486 -1 606 607 486 -1 486 607 608 -1 486 608 485 -1 485 608 609 -1 485 609 484 -1 484 609 610 -1 484 610 483 -1 610 611 483 -1 483 611 612 -1 483 612 482 -1 482 612 613 -1 482 613 481 -1 481 613 614 -1 481 614 480 -1 614 615 480 -1 480 615 616 -1 480 616 479 -1 479 616 617 -1 479 617 478 -1 478 617 618 -1 478 618 477 -1 477 618 619 -1 477 619 488 -1 543 542 620 -1 563 562 621 -1 577 576 622 -1 591 590 623 -1 601 600 624 -1 493 492 625 -1 525 524 626 -1 626 524 523 -1 626 523 627 -1 627 523 522 -1 627 522 521 -1 406 628 519 -1 519 628 627 -1 519 627 520 -1 520 627 521 -1 406 518 628 -1 628 518 517 -1 628 517 629 -1 629 517 516 -1 629 516 515 -1 512 630 513 -1 513 630 629 -1 513 629 514 -1 514 629 515 -1 509 631 510 -1 510 631 630 -1 510 630 511 -1 511 630 512 -1 509 508 631 -1 631 508 507 -1 631 507 632 -1 632 507 506 -1 632 506 505 -1 505 504 632 -1 632 504 503 -1 632 503 633 -1 633 503 502 -1 633 502 501 -1 501 500 633 -1 633 500 499 -1 633 499 634 -1 634 499 498 -1 634 498 497 -1 497 496 634 -1 634 496 495 -1 634 495 625 -1 625 495 494 -1 625 494 493 -1 492 491 625 -1 625 491 490 -1 625 490 635 -1 490 489 635 -1 635 489 488 -1 635 488 636 -1 636 488 619 -1 636 619 618 -1 618 617 636 -1 636 617 616 -1 636 616 637 -1 637 616 615 -1 637 615 614 -1 614 613 637 -1 637 613 612 -1 637 612 638 -1 638 612 611 -1 638 611 610 -1 610 609 638 -1 638 609 608 -1 638 608 639 -1 608 607 639 -1 639 607 606 -1 639 606 605 -1 605 604 639 -1 639 604 603 -1 639 603 624 -1 624 603 602 -1 624 602 601 -1 600 599 624 -1 624 599 598 -1 624 598 640 -1 595 641 596 -1 596 641 640 -1 596 640 597 -1 597 640 598 -1 595 594 641 -1 641 594 593 -1 641 593 623 -1 623 593 592 -1 623 592 591 -1 587 642 588 -1 588 642 623 -1 588 623 589 -1 589 623 590 -1 587 586 642 -1 642 586 585 -1 642 585 643 -1 643 585 584 -1 643 584 583 -1 583 582 643 -1 643 582 581 -1 643 581 644 -1 581 580 644 -1 644 580 579 -1 644 579 622 -1 622 579 578 -1 622 578 577 -1 573 645 574 -1 574 645 622 -1 574 622 575 -1 575 622 576 -1 573 572 645 -1 645 572 571 -1 645 571 646 -1 568 647 569 -1 569 647 646 -1 569 646 570 -1 570 646 571 -1 568 566 647 -1 647 566 565 -1 647 565 621 -1 621 565 564 -1 621 564 563 -1 562 561 621 -1 621 561 560 -1 621 560 648 -1 648 560 559 -1 648 559 558 -1 555 649 556 -1 556 649 648 -1 556 648 557 -1 557 648 558 -1 555 554 649 -1 649 554 553 -1 649 553 650 -1 650 553 552 -1 650 552 551 -1 551 550 650 -1 650 550 549 -1 650 549 651 -1 651 549 548 -1 651 548 547 -1 547 546 651 -1 651 546 545 -1 651 545 620 -1 620 545 544 -1 620 544 543 -1 542 541 620 -1 620 541 540 -1 620 540 652 -1 652 540 539 -1 652 539 538 -1 535 653 536 -1 536 653 652 -1 536 652 537 -1 537 652 538 -1 532 654 533 -1 533 654 653 -1 533 653 534 -1 534 653 535 -1 529 655 530 -1 530 655 654 -1 530 654 531 -1 531 654 532 -1 529 528 655 -1 655 528 527 -1 655 527 626 -1 626 527 526 -1 626 526 525 -1 71 111 132 -1 71 132 75 -1 132 130 75 -1 75 130 129 -1 75 129 76 -1 76 129 128 -1 76 128 77 -1 77 128 78 -1 78 128 127 -1 78 127 79 -1 119 69 120 -1 120 69 68 -1 120 68 125 -1 125 68 79 -1 125 79 126 -1 126 79 127 -1 58 51 119 -1 119 51 81 -1 119 81 69 -1 161 160 67 -1 119 122 58 -1 58 122 142 -1 58 142 57 -1 57 142 141 -1 57 141 54 -1 54 141 140 -1 54 140 55 -1 55 140 138 -1 55 138 59 -1 59 138 137 -1 59 137 60 -1 60 137 134 -1 60 134 62 -1 62 134 133 -1 62 133 63 -1 63 133 136 -1 63 136 64 -1 64 136 161 -1 64 161 66 -1 66 161 67 -1 160 159 67 -1 67 159 149 -1 67 149 40 -1 40 149 148 -1 40 148 41 -1 41 148 158 -1 41 158 43 -1 43 158 44 -1 44 158 157 -1 44 157 45 -1 157 156 45 -1 45 156 155 -1 45 155 46 -1 46 155 154 -1 46 154 47 -1 47 154 48 -1 48 154 153 -1 48 153 49 -1 153 152 49 -1 49 152 151 -1 49 151 50 -1 50 151 89 -1 50 89 33 -1 33 89 34 -1 34 89 88 -1 34 88 35 -1 105 30 82 -1 82 30 29 -1 82 29 83 -1 83 29 32 -1 83 32 85 -1 85 32 36 -1 85 36 86 -1 86 36 35 -1 86 35 87 -1 87 35 88 -1 39 38 105 -1 105 38 37 -1 105 37 30 -1 105 104 39 -1 39 104 102 -1 39 102 17 -1 17 102 101 -1 17 101 14 -1 14 101 100 -1 14 100 15 -1 15 100 98 -1 15 98 18 -1 18 98 97 -1 18 97 19 -1 19 97 96 -1 19 96 21 -1 21 96 95 -1 21 95 22 -1 22 95 94 -1 22 94 23 -1 23 94 90 -1 92 0 90 -1 90 0 2 -1 90 2 23 -1 92 118 0 -1 0 118 107 -1 0 107 5 -1 5 107 106 -1 5 106 6 -1 6 106 109 -1 6 109 7 -1 7 109 116 -1 7 116 8 -1 8 116 115 -1 8 115 9 -1 9 115 10 -1 10 115 114 -1 10 114 11 -1 71 13 111 -1 111 13 12 -1 111 12 112 -1 112 12 11 -1 112 11 113 -1 113 11 114 -1 656 657 658 -1 656 658 659 -1 660 659 658 -1 661 660 658 -1 662 661 658 -1 663 662 658 -1 664 663 658 -1 665 664 658 -1 666 665 658 -1 667 666 658 -1 668 667 658 -1 669 668 658 -1 670 669 658 -1 671 670 658 -1 672 671 658 -1 673 672 658 -1 674 673 658 -1 675 674 658 -1 676 675 658 -1 677 676 658 -1 678 677 658 -1 679 678 658 -1 680 679 658 -1 681 680 658 -1 682 681 658 -1 683 682 658 -1 684 683 658 -1 685 684 658 -1 686 685 658 -1 687 686 658 -1 688 687 658 -1 689 688 658 -1 690 689 658 -1 691 690 658 -1 692 691 658 -1 657 692 658 -1 692 693 691 -1 691 693 694 -1 691 694 690 -1 690 694 695 -1 690 695 689 -1 689 695 696 -1 689 696 688 -1 688 696 697 -1 688 697 687 -1 687 697 698 -1 687 698 686 -1 686 698 699 -1 686 699 685 -1 685 699 700 -1 685 700 684 -1 684 700 701 -1 684 701 683 -1 683 701 702 -1 683 702 682 -1 682 702 703 -1 682 703 681 -1 681 703 704 -1 681 704 680 -1 680 704 705 -1 680 705 679 -1 679 705 706 -1 679 706 678 -1 678 706 707 -1 678 707 677 -1 677 707 708 -1 677 708 676 -1 676 708 709 -1 676 709 675 -1 675 709 710 -1 675 710 674 -1 674 710 711 -1 674 711 673 -1 673 711 712 -1 673 712 672 -1 672 712 713 -1 672 713 671 -1 671 713 714 -1 671 714 670 -1 670 714 715 -1 670 715 669 -1 669 715 716 -1 669 716 668 -1 668 716 717 -1 668 717 667 -1 667 717 718 -1 667 718 666 -1 666 718 719 -1 666 719 665 -1 665 719 720 -1 665 720 664 -1 664 720 721 -1 664 721 663 -1 663 721 722 -1 663 722 662 -1 662 722 723 -1 662 723 661 -1 661 723 724 -1 661 724 660 -1 660 724 725 -1 660 725 659 -1 659 725 726 -1 659 726 656 -1 656 726 727 -1 656 727 657 -1 657 727 728 -1 657 728 692 -1 692 728 693 -1 693 729 694 -1 694 729 730 -1 694 730 695 -1 695 730 731 -1 695 731 696 -1 696 731 732 -1 696 732 697 -1 697 732 733 -1 697 733 698 -1 698 733 734 -1 698 734 699 -1 699 734 735 -1 699 735 700 -1 700 735 736 -1 700 736 701 -1 701 736 737 -1 701 737 702 -1 702 737 738 -1 702 738 703 -1 703 738 739 -1 703 739 704 -1 704 739 740 -1 704 740 705 -1 705 740 741 -1 705 741 706 -1 706 741 742 -1 706 742 707 -1 707 742 743 -1 707 743 708 -1 708 743 744 -1 708 744 709 -1 709 744 745 -1 709 745 710 -1 710 745 746 -1 710 746 711 -1 711 746 747 -1 711 747 712 -1 712 747 748 -1 712 748 713 -1 713 748 749 -1 713 749 714 -1 714 749 750 -1 714 750 715 -1 715 750 751 -1 715 751 716 -1 716 751 752 -1 716 752 717 -1 717 752 753 -1 717 753 718 -1 718 753 754 -1 718 754 719 -1 719 754 755 -1 719 755 720 -1 720 755 756 -1 720 756 721 -1 721 756 757 -1 721 757 722 -1 722 757 758 -1 722 758 723 -1 723 758 759 -1 723 759 724 -1 724 759 760 -1 724 760 725 -1 725 760 761 -1 725 761 726 -1 726 761 762 -1 726 762 727 -1 727 762 763 -1 727 763 728 -1 728 763 764 -1 728 764 693 -1 693 764 729 -1 729 765 730 -1 730 765 766 -1 730 766 731 -1 731 766 767 -1 731 767 732 -1 732 767 768 -1 732 768 733 -1 733 768 769 -1 733 769 734 -1 734 769 770 -1 734 770 735 -1 735 770 771 -1 735 771 736 -1 736 771 772 -1 736 772 737 -1 737 772 773 -1 737 773 738 -1 738 773 774 -1 738 774 739 -1 739 774 775 -1 739 775 740 -1 740 775 776 -1 740 776 741 -1 741 776 777 -1 741 777 742 -1 742 777 778 -1 742 778 743 -1 743 778 779 -1 743 779 744 -1 744 779 780 -1 744 780 745 -1 745 780 781 -1 745 781 746 -1 746 781 782 -1 746 782 747 -1 747 782 783 -1 747 783 748 -1 748 783 784 -1 748 784 749 -1 749 784 785 -1 749 785 750 -1 750 785 786 -1 750 786 751 -1 751 786 787 -1 751 787 752 -1 752 787 788 -1 752 788 753 -1 753 788 789 -1 753 789 754 -1 754 789 790 -1 754 790 755 -1 755 790 791 -1 755 791 756 -1 756 791 792 -1 756 792 757 -1 757 792 793 -1 757 793 758 -1 758 793 794 -1 758 794 759 -1 759 794 795 -1 759 795 760 -1 760 795 796 -1 760 796 761 -1 761 796 797 -1 761 797 762 -1 762 797 798 -1 762 798 763 -1 763 798 799 -1 763 799 764 -1 764 799 800 -1 764 800 729 -1 729 800 765 -1 765 801 766 -1 766 801 802 -1 766 802 767 -1 767 802 803 -1 767 803 768 -1 768 803 804 -1 768 804 769 -1 769 804 805 -1 769 805 770 -1 770 805 806 -1 770 806 771 -1 771 806 807 -1 771 807 772 -1 772 807 808 -1 772 808 773 -1 773 808 809 -1 773 809 774 -1 774 809 810 -1 774 810 775 -1 775 810 811 -1 775 811 776 -1 776 811 812 -1 776 812 777 -1 777 812 813 -1 777 813 778 -1 778 813 814 -1 778 814 779 -1 779 814 815 -1 779 815 780 -1 780 815 816 -1 780 816 781 -1 781 816 817 -1 781 817 782 -1 782 817 818 -1 782 818 783 -1 783 818 819 -1 783 819 784 -1 784 819 820 -1 784 820 785 -1 785 820 821 -1 785 821 786 -1 786 821 822 -1 786 822 787 -1 787 822 823 -1 787 823 788 -1 788 823 824 -1 788 824 789 -1 789 824 825 -1 789 825 790 -1 790 825 826 -1 790 826 791 -1 791 826 827 -1 791 827 792 -1 792 827 828 -1 792 828 793 -1 793 828 829 -1 793 829 794 -1 794 829 830 -1 794 830 795 -1 795 830 831 -1 795 831 796 -1 796 831 832 -1 796 832 797 -1 797 832 833 -1 797 833 798 -1 798 833 834 -1 798 834 799 -1 799 834 835 -1 799 835 800 -1 800 835 836 -1 800 836 765 -1 765 836 801 -1 801 837 802 -1 802 837 838 -1 802 838 803 -1 803 838 839 -1 803 839 804 -1 804 839 840 -1 804 840 805 -1 805 840 841 -1 805 841 806 -1 806 841 842 -1 806 842 807 -1 807 842 843 -1 807 843 808 -1 808 843 844 -1 808 844 809 -1 809 844 845 -1 809 845 810 -1 810 845 846 -1 810 846 811 -1 811 846 847 -1 811 847 812 -1 812 847 848 -1 812 848 813 -1 813 848 849 -1 813 849 814 -1 814 849 850 -1 814 850 815 -1 815 850 851 -1 815 851 816 -1 816 851 852 -1 816 852 817 -1 817 852 853 -1 817 853 818 -1 818 853 854 -1 818 854 819 -1 819 854 855 -1 819 855 820 -1 820 855 856 -1 820 856 821 -1 821 856 857 -1 821 857 822 -1 822 857 858 -1 822 858 823 -1 823 858 859 -1 823 859 824 -1 824 859 860 -1 824 860 825 -1 825 860 861 -1 825 861 826 -1 826 861 862 -1 826 862 827 -1 827 862 863 -1 827 863 828 -1 828 863 864 -1 828 864 829 -1 829 864 865 -1 829 865 830 -1 830 865 866 -1 830 866 831 -1 831 866 867 -1 831 867 832 -1 832 867 868 -1 832 868 833 -1 833 868 869 -1 833 869 834 -1 834 869 870 -1 834 870 835 -1 835 870 871 -1 835 871 836 -1 836 871 872 -1 836 872 801 -1 801 872 837 -1 837 873 838 -1 838 873 874 -1 838 874 839 -1 839 874 875 -1 839 875 840 -1 840 875 876 -1 840 876 841 -1 841 876 877 -1 841 877 842 -1 842 877 878 -1 842 878 843 -1 843 878 879 -1 843 879 844 -1 844 879 880 -1 844 880 845 -1 845 880 881 -1 845 881 846 -1 846 881 882 -1 846 882 847 -1 847 882 883 -1 847 883 848 -1 848 883 884 -1 848 884 849 -1 849 884 885 -1 849 885 850 -1 850 885 886 -1 850 886 851 -1 851 886 887 -1 851 887 852 -1 852 887 888 -1 852 888 853 -1 853 888 889 -1 853 889 854 -1 854 889 890 -1 854 890 855 -1 855 890 891 -1 855 891 856 -1 856 891 892 -1 856 892 857 -1 857 892 893 -1 857 893 858 -1 858 893 894 -1 858 894 859 -1 859 894 895 -1 859 895 860 -1 860 895 896 -1 860 896 861 -1 861 896 897 -1 861 897 862 -1 862 897 898 -1 862 898 863 -1 863 898 899 -1 863 899 864 -1 864 899 900 -1 864 900 865 -1 865 900 901 -1 865 901 866 -1 866 901 902 -1 866 902 867 -1 867 902 903 -1 867 903 868 -1 868 903 904 -1 868 904 869 -1 869 904 905 -1 869 905 870 -1 870 905 906 -1 870 906 871 -1 871 906 907 -1 871 907 872 -1 872 907 908 -1 872 908 837 -1 837 908 873 -1 873 909 874 -1 874 909 910 -1 874 910 875 -1 875 910 911 -1 875 911 876 -1 876 911 912 -1 876 912 877 -1 877 912 913 -1 877 913 878 -1 878 913 914 -1 878 914 879 -1 879 914 915 -1 879 915 880 -1 880 915 916 -1 880 916 881 -1 881 916 917 -1 881 917 882 -1 882 917 918 -1 882 918 883 -1 883 918 919 -1 883 919 884 -1 884 919 920 -1 884 920 885 -1 885 920 921 -1 885 921 886 -1 886 921 922 -1 886 922 887 -1 887 922 923 -1 887 923 888 -1 888 923 924 -1 888 924 889 -1 889 924 925 -1 889 925 890 -1 890 925 926 -1 890 926 891 -1 891 926 927 -1 891 927 892 -1 892 927 928 -1 892 928 893 -1 893 928 929 -1 893 929 894 -1 894 929 930 -1 894 930 895 -1 895 930 931 -1 895 931 896 -1 896 931 932 -1 896 932 897 -1 897 932 933 -1 897 933 898 -1 898 933 934 -1 898 934 899 -1 899 934 935 -1 899 935 900 -1 900 935 936 -1 900 936 901 -1 901 936 937 -1 901 937 902 -1 902 937 938 -1 902 938 903 -1 903 938 939 -1 903 939 904 -1 904 939 940 -1 904 940 905 -1 905 940 941 -1 905 941 906 -1 906 941 942 -1 906 942 907 -1 907 942 943 -1 907 943 908 -1 908 943 944 -1 908 944 873 -1 873 944 909 -1 909 945 910 -1 910 945 946 -1 910 946 911 -1 911 946 947 -1 911 947 912 -1 912 947 948 -1 912 948 913 -1 913 948 949 -1 913 949 914 -1 914 949 950 -1 914 950 915 -1 915 950 951 -1 915 951 916 -1 916 951 952 -1 916 952 917 -1 917 952 953 -1 917 953 918 -1 918 953 954 -1 918 954 919 -1 919 954 955 -1 919 955 920 -1 920 955 956 -1 920 956 921 -1 921 956 957 -1 921 957 922 -1 922 957 958 -1 922 958 923 -1 923 958 959 -1 923 959 924 -1 924 959 960 -1 924 960 925 -1 925 960 961 -1 925 961 926 -1 926 961 962 -1 926 962 927 -1 927 962 963 -1 927 963 928 -1 928 963 964 -1 928 964 929 -1 929 964 965 -1 929 965 930 -1 930 965 966 -1 930 966 931 -1 931 966 967 -1 931 967 932 -1 932 967 968 -1 932 968 933 -1 933 968 969 -1 933 969 934 -1 934 969 970 -1 934 970 935 -1 935 970 971 -1 935 971 936 -1 936 971 972 -1 936 972 937 -1 937 972 973 -1 937 973 938 -1 938 973 974 -1 938 974 939 -1 939 974 975 -1 939 975 940 -1 940 975 976 -1 940 976 941 -1 941 976 977 -1 941 977 942 -1 942 977 978 -1 942 978 943 -1 943 978 979 -1 943 979 944 -1 944 979 980 -1 944 980 909 -1 909 980 945 -1 945 981 946 -1 946 981 982 -1 946 982 947 -1 947 982 983 -1 947 983 948 -1 948 983 984 -1 948 984 949 -1 949 984 985 -1 949 985 950 -1 950 985 986 -1 950 986 951 -1 951 986 987 -1 951 987 952 -1 952 987 988 -1 952 988 953 -1 953 988 989 -1 953 989 954 -1 954 989 990 -1 954 990 955 -1 955 990 991 -1 955 991 956 -1 956 991 992 -1 956 992 957 -1 957 992 993 -1 957 993 958 -1 958 993 994 -1 958 994 959 -1 959 994 995 -1 959 995 960 -1 960 995 996 -1 960 996 961 -1 961 996 997 -1 961 997 962 -1 962 997 998 -1 962 998 963 -1 963 998 999 -1 963 999 964 -1 964 999 1000 -1 964 1000 965 -1 965 1000 1001 -1 965 1001 966 -1 966 1001 1002 -1 966 1002 967 -1 967 1002 1003 -1 967 1003 968 -1 968 1003 1004 -1 968 1004 969 -1 969 1004 1005 -1 969 1005 970 -1 970 1005 1006 -1 970 1006 971 -1 971 1006 1007 -1 971 1007 972 -1 972 1007 1008 -1 972 1008 973 -1 973 1008 1009 -1 973 1009 974 -1 974 1009 1010 -1 974 1010 975 -1 975 1010 1011 -1 975 1011 976 -1 976 1011 1012 -1 976 1012 977 -1 977 1012 1013 -1 977 1013 978 -1 978 1013 1014 -1 978 1014 979 -1 979 1014 1015 -1 979 1015 980 -1 980 1015 1016 -1 980 1016 945 -1 945 1016 981 -1 981 1017 982 -1 982 1017 1018 -1 982 1018 983 -1 983 1018 1019 -1 983 1019 984 -1 984 1019 1020 -1 984 1020 985 -1 985 1020 1021 -1 985 1021 986 -1 986 1021 1022 -1 986 1022 987 -1 987 1022 1023 -1 987 1023 988 -1 988 1023 1024 -1 988 1024 989 -1 989 1024 1025 -1 989 1025 990 -1 990 1025 1026 -1 990 1026 991 -1 991 1026 1027 -1 991 1027 992 -1 992 1027 1028 -1 992 1028 993 -1 993 1028 1029 -1 993 1029 994 -1 994 1029 1030 -1 994 1030 995 -1 995 1030 1031 -1 995 1031 996 -1 996 1031 1032 -1 996 1032 997 -1 997 1032 1033 -1 997 1033 998 -1 998 1033 1034 -1 998 1034 999 -1 999 1034 1035 -1 999 1035 1000 -1 1000 1035 1036 -1 1000 1036 1001 -1 1001 1036 1037 -1 1001 1037 1002 -1 1002 1037 1038 -1 1002 1038 1003 -1 1003 1038 1039 -1 1003 1039 1004 -1 1004 1039 1040 -1 1004 1040 1005 -1 1005 1040 1041 -1 1005 1041 1006 -1 1006 1041 1042 -1 1006 1042 1007 -1 1007 1042 1043 -1 1007 1043 1008 -1 1008 1043 1044 -1 1008 1044 1009 -1 1009 1044 1045 -1 1009 1045 1010 -1 1010 1045 1046 -1 1010 1046 1011 -1 1011 1046 1047 -1 1011 1047 1012 -1 1012 1047 1048 -1 1012 1048 1013 -1 1013 1048 1049 -1 1013 1049 1014 -1 1014 1049 1050 -1 1014 1050 1015 -1 1015 1050 1051 -1 1015 1051 1016 -1 1016 1051 1052 -1 1016 1052 981 -1 981 1052 1017 -1 655 1052 654 -1 654 1052 1051 -1 654 1051 653 -1 653 1051 1050 -1 653 1050 652 -1 652 1050 1049 -1 652 1049 620 -1 620 1049 1048 -1 620 1048 651 -1 651 1048 1047 -1 651 1047 650 -1 650 1047 1046 -1 650 1046 649 -1 649 1046 1045 -1 649 1045 648 -1 648 1045 1044 -1 648 1044 621 -1 621 1044 1043 -1 621 1043 647 -1 647 1043 1042 -1 647 1042 646 -1 646 1042 1041 -1 646 1041 645 -1 645 1041 1040 -1 645 1040 622 -1 622 1040 1039 -1 622 1039 644 -1 644 1039 1038 -1 644 1038 643 -1 643 1038 1037 -1 643 1037 642 -1 642 1037 1036 -1 642 1036 623 -1 623 1036 1035 -1 623 1035 641 -1 641 1035 1034 -1 641 1034 640 -1 640 1034 1033 -1 640 1033 624 -1 624 1033 1032 -1 624 1032 639 -1 639 1032 1031 -1 639 1031 638 -1 638 1031 1030 -1 638 1030 637 -1 637 1030 1029 -1 637 1029 636 -1 636 1029 1028 -1 636 1028 635 -1 635 1028 1027 -1 635 1027 625 -1 625 1027 1026 -1 625 1026 634 -1 634 1026 1025 -1 634 1025 633 -1 633 1025 1024 -1 633 1024 632 -1 632 1024 1023 -1 632 1023 631 -1 631 1023 1022 -1 631 1022 630 -1 630 1022 1021 -1 630 1021 629 -1 629 1021 1020 -1 629 1020 628 -1 628 1020 1019 -1 628 1019 627 -1 627 1019 1018 -1 627 1018 626 -1 626 1018 1017 -1 626 1017 655 -1 655 1017 1052 -1 "
						                >
							<Coordinate DEF="coords_ME_OMLV4_Packing_-_For_Xander_-_Refuler-1_Probe-1"
							            point="109.855881 91.173782 337.940918 82.309914 91.698555 341.669891 109.857307 91.173859 337.939819 82.299706 91.695129 341.587219 82.286758 91.695816 341.481506 109.804031 91.170753 337.987885 109.761070 91.167747 338.043182 109.728317 91.165489 338.105042 109.716125 91.164856 338.137726 109.706764 91.164635 338.171570 109.700394 91.164894 338.206055 109.697083 91.165672 338.240692 109.696793 91.166992 338.275452 109.699562 91.168884 338.310303 110.117561 91.174606 337.860474 110.082611 91.175911 337.860107 129.861542 90.855446 335.141876 110.152306 91.172920 337.863922 110.047897 91.176788 337.862823 110.013519 91.177246 337.868591 82.227371 91.776604 340.984650 109.979698 91.177269 337.877380 109.946686 91.176888 337.889160 109.915039 91.176147 337.903687 82.234665 91.759224 341.046814 82.247208 91.734512 341.152985 82.273300 91.702629 341.370697 82.267654 91.707390 341.323944 82.260437 91.715172 341.263855 110.369240 91.155983 337.968597 110.314346 91.160881 337.925293 129.901825 90.786232 335.481201 110.415855 91.152191 338.020721 110.478928 91.150558 338.144775 110.467239 91.150063 338.111816 110.452789 91.150208 338.080048 110.435661 91.150932 338.049652 110.252831 91.166107 337.892212 110.251198 91.166237 337.891510 110.186569 91.170898 337.870392 110.389534 91.198792 338.532318 110.432327 91.187790 338.477936 129.944077 90.777390 335.827118 110.464935 91.176933 338.416901 110.477119 91.171837 338.384399 110.486366 91.167130 338.351074 110.492653 91.162888 338.317108 110.495972 91.159149 338.282379 110.496231 91.156013 338.247559 110.493462 91.153534 338.212921 110.487701 91.151711 338.178680 109.942528 91.216820 338.627838 82.385506 91.830338 342.265381 82.371315 91.791153 342.155884 110.076363 91.225998 338.657745 110.111168 91.226540 338.658020 82.395226 91.861221 342.339752 110.041733 91.224693 338.654541 110.007271 91.222649 338.648315 110.146049 91.226273 338.655243 110.180611 91.225189 338.649475 130.029388 90.940063 336.496979 110.214226 91.223335 338.640839 110.246994 91.220726 338.629364 110.278801 91.217392 338.614990 129.987045 90.829193 336.169189 110.336418 91.209198 338.579529 110.337837 91.208961 338.578461 109.824165 91.199554 338.552521 109.879219 91.208656 338.594910 82.352875 91.750351 342.011963 109.705368 91.171318 338.344696 82.343521 91.733948 341.938263 82.330032 91.715317 341.831238 82.314590 91.701271 341.707581 109.714127 91.174271 338.378296 109.725845 91.177711 338.411102 109.740341 91.181557 338.442566 109.757568 91.185760 338.472717 109.777397 91.190231 338.501251 82.357635 91.759796 342.049255 109.940887 91.216637 338.627167 110.359718 95.105362 337.673370 110.414780 95.114464 337.715759 129.990005 94.768990 335.572205 110.461548 95.123787 337.767059 110.481308 95.128242 337.795471 110.498604 95.132462 337.825714 110.513176 95.136330 337.857391 110.524818 95.139748 337.890015 109.960144 95.096626 337.653290 82.270523 95.527489 340.745087 109.902527 95.104820 337.688782 82.284164 95.569878 340.849579 109.991829 95.093307 337.638977 110.024719 95.090683 337.627441 110.058556 95.088814 337.618774 110.092888 95.087746 337.613037 110.127640 95.087479 337.610291 129.904694 94.606323 334.902313 110.162582 95.088020 337.610535 110.197456 95.089340 337.613800 110.231674 95.091370 337.619995 129.947037 94.717194 335.230133 110.296417 95.097198 337.640442 110.298058 95.097382 337.641144 109.806610 95.126228 337.790344 109.849411 95.115227 337.735962 82.312874 95.638351 341.072906 109.774010 95.137085 337.851379 82.325516 95.659843 341.172577 109.745483 95.160484 338.055359 109.742714 95.158005 338.020782 109.742973 95.154869 337.985901 109.746284 95.151138 337.951263 109.752579 95.146889 337.917206 109.761826 95.142181 337.883911 82.297806 95.605873 340.955170 109.901108 95.105057 337.689819 109.986115 95.147911 338.376068 109.924599 95.153137 338.342987 82.355835 95.690155 341.414948 109.987747 95.147781 338.376770 82.368454 95.693878 341.517242 82.381622 95.692055 341.624908 109.869705 95.158035 338.299713 109.823082 95.161827 338.247589 109.803291 95.163086 338.218628 109.786148 95.163811 338.188232 109.771736 95.163956 338.156555 109.760017 95.163460 338.123505 82.341133 95.679199 341.296814 109.751251 95.162308 338.089661 110.259247 95.136749 338.390900 110.225555 95.136772 338.399658 130.072540 94.690941 336.257416 110.292030 95.137123 338.379242 110.191048 95.137230 338.405457 110.156113 95.138115 338.408173 82.438377 95.612106 342.100189 110.121384 95.139412 338.407806 110.086761 95.141090 338.404388 110.052376 95.143120 338.397919 82.433617 95.623711 342.059570 82.420677 95.650444 341.949860 82.394608 95.684395 341.731995 82.398094 95.681313 341.760895 82.408012 95.670135 341.843506 110.477867 95.146271 338.225128 110.434914 95.143265 338.280396 130.032257 94.760155 335.918121 110.533562 95.142693 337.923523 110.539383 95.145134 337.957977 110.542152 95.147018 337.992798 110.541862 95.148346 338.027618 110.538521 95.149124 338.062439 110.532173 95.149384 338.096741 110.522850 95.149170 338.130432 110.510628 95.148529 338.163239 110.383064 95.140236 338.327393 110.381638 95.140160 338.328461 110.323906 95.137871 338.364594 130.109619 94.563461 336.579773 82.445923 95.591652 342.164917 82.458328 95.552200 342.272278 82.470047 95.507698 342.374878 82.475449 95.484619 342.422546 130.142365 94.381577 336.875397 82.481720 95.455627 342.478241 82.493073 95.396584 342.580109 82.504196 95.329414 342.681396 82.508194 95.302742 342.718170 130.169769 94.150833 337.135284 82.514221 95.259666 342.774048 82.523857 95.182571 342.864838 82.532791 95.100426 342.950623 82.535606 95.071991 342.978058 130.191025 93.878220 337.351562 82.541199 95.011215 343.033234 82.548752 94.918221 343.109436 82.555641 94.818939 343.181244 82.556862 94.799385 343.194305 130.205475 93.572037 337.517609 82.561714 94.714821 343.247223 82.567001 94.605133 343.307556 82.571312 94.493202 343.360382 130.212677 93.241585 337.628448 82.574776 94.375923 343.407074 82.577286 94.255051 343.446594 82.578522 94.162743 343.471222 130.212418 92.896896 337.680695 82.578812 94.131012 343.478638 82.579330 94.006798 343.502441 82.578865 93.880966 343.518463 82.578262 93.818054 343.523468 130.204712 92.548447 337.672729 82.578003 93.797050 343.524689 82.575836 93.667465 343.527435 82.572655 93.538300 343.521851 82.570541 93.469612 343.515503 130.189774 92.206833 337.604828 82.568398 93.407745 343.507721 82.563156 93.279312 343.485291 82.556900 93.151794 343.454346 82.555611 93.127991 343.447571 130.168076 91.882423 337.479004 82.549751 93.027962 343.415619 82.541512 92.904320 343.367889 82.533905 92.803581 343.321777 130.140259 91.585075 337.299164 82.532494 92.786026 343.313049 82.522476 92.670006 343.249695 82.511856 92.560638 343.180298 82.506096 92.506241 343.141907 130.107178 91.323830 337.070679 82.500160 92.453377 343.101929 82.488052 92.354134 343.018829 82.475006 92.258606 342.927490 82.473015 92.244995 342.913452 130.069855 91.106628 336.800568 82.461739 92.171936 342.833008 82.450432 92.105431 342.751343 82.439125 92.045021 342.668671 82.435684 92.027794 342.643341 82.425842 91.981308 342.570465 82.412720 91.925446 342.472260 82.398956 91.873970 342.368164 129.824463 90.982925 334.819550 82.221916 91.791153 340.937836 82.209824 91.828285 340.833466 82.197693 91.872925 340.727509 82.190300 91.904091 340.662292 129.791718 91.164803 334.523926 82.186119 91.923157 340.625183 82.174667 91.981140 340.522675 82.164841 92.038406 340.433563 82.157555 92.085968 340.366699 129.764313 91.395554 334.264038 82.154663 92.106239 340.339874 82.144829 92.181473 340.247894 82.135704 92.261757 340.160828 82.130142 92.316719 340.106812 129.743057 91.668159 334.047760 82.127083 92.349190 340.076752 82.119316 92.440430 339.999023 82.112190 92.538063 339.925537 82.108887 92.589325 339.890533 129.728607 91.974342 333.881683 82.105858 92.640671 339.857727 82.100304 92.749008 339.795349 82.095695 92.860016 339.740326 82.094437 92.895508 339.724457 129.721390 92.304802 333.770874 82.091965 92.975563 339.691681 82.089149 93.095497 339.649811 82.087234 93.225967 339.613617 129.721649 92.649490 333.718628 82.086479 93.343407 339.588928 82.086647 93.469856 339.570374 82.087494 93.570648 339.561401 129.729370 92.997932 333.726593 82.087822 93.597435 339.559875 82.090004 93.725349 339.557465 82.093231 93.855148 339.563354 82.095207 93.919098 339.569366 129.744308 93.339554 333.794495 82.097458 93.983696 339.577515 82.102776 94.113388 339.600403 82.109024 94.240105 339.631409 82.110146 94.260719 339.637268 129.766006 93.663963 333.920288 82.116302 94.365700 339.670959 82.124413 94.486763 339.717987 82.131851 94.585129 339.763062 129.793823 93.961304 334.100159 82.133583 94.606667 339.773834 82.143440 94.720520 339.836243 82.154358 94.832535 339.907593 82.159660 94.882469 339.942932 129.826904 94.222549 334.328644 82.165794 94.937134 339.984344 82.178230 95.038643 340.069702 82.190979 95.131691 340.158966 82.192734 95.143715 340.171387 129.864227 94.439758 334.598755 82.204010 95.216774 340.251831 82.256729 95.477791 340.640472 82.217140 95.293396 340.346741 82.230064 95.360916 340.441528 82.243126 95.421745 340.538391 137.594681 95.240601 331.773956 134.961075 95.471359 334.912567 138.281754 95.586967 337.320862 134.967300 95.482391 335.086426 133.170624 95.538094 335.634979 133.078125 95.529739 335.487457 130.342728 95.740494 338.294647 133.012695 95.520187 335.326172 129.655640 95.394127 332.747772 132.976318 95.509743 335.156036 132.970093 95.498711 334.982178 134.650040 95.436089 334.304382 134.766769 95.443008 334.433624 134.943192 95.493668 335.258698 134.889465 95.504852 335.424133 134.807770 95.515610 335.577759 133.744583 95.555237 336.006714 133.578766 95.553711 335.952972 133.129623 95.465492 334.490875 133.236816 95.455505 334.353760 133.366257 95.446579 334.237366 134.859268 95.451363 334.581146 134.924698 95.460907 334.742432 134.700577 95.525597 335.714844 134.571136 95.534523 335.831268 134.423401 95.542107 335.923462 133.424805 95.550270 335.871338 133.287354 95.545006 335.764252 134.020187 95.426308 334.037689 134.192825 95.425865 334.061890 132.994202 95.487427 334.809906 133.047928 95.476242 334.644470 134.261856 95.548126 335.988647 134.091385 95.552399 336.024811 133.917206 95.554794 336.030914 134.358627 95.427391 334.115631 134.512604 95.430832 334.197296 133.513992 95.438995 334.145172 133.675537 95.432968 334.079987 133.846008 95.428696 334.043793 129.591354 89.805885 333.104675 137.530380 89.652359 332.130890 130.278427 90.152252 338.651550 132.912033 89.921494 335.512939 132.948410 89.931946 335.683105 133.013840 89.941490 335.844391 133.106323 89.949852 335.991882 134.197556 89.959885 336.345551 134.359116 89.953865 336.280365 138.217453 89.998726 337.677765 134.506851 89.946274 336.188171 134.825180 89.916611 335.781067 134.878906 89.905426 335.615601 134.903015 89.894150 335.443359 134.896790 89.883118 335.269501 134.860413 89.872665 335.099335 133.223068 89.956764 336.121155 133.360504 89.962021 336.228241 133.514481 89.965469 336.309906 134.636292 89.937347 336.071747 134.743484 89.927361 335.934662 134.794983 89.863121 334.938049 134.702484 89.854759 334.790558 134.585754 89.847847 334.661285 133.449707 89.850746 334.502075 133.301971 89.858337 334.594269 133.172531 89.867264 334.710693 133.065338 89.877251 334.847778 132.983643 89.888000 335.001373 133.680283 89.966988 336.363617 133.852905 89.966553 336.387817 134.027100 89.964157 336.381744 132.929916 89.899185 335.166840 132.905807 89.910461 335.339081 134.448303 89.842590 334.554199 134.294342 89.839142 334.472534 134.128525 89.837624 334.418793 133.955902 89.838058 334.394623 133.781723 89.840454 334.400696 133.611252 89.844727 334.436890 81.558998 95.722633 341.984528 81.599815 95.717949 342.085419 81.638855 95.707436 342.182098 81.679283 95.690269 342.282379 81.718239 95.667458 342.379150 81.758087 95.637474 342.478363 81.796318 95.602074 342.573700 81.834999 95.559227 342.670380 81.873283 95.509331 342.766235 81.911537 95.451324 342.862244 81.946716 95.390007 342.950745 81.981369 95.321251 343.038177 82.014328 95.247063 343.121552 82.046280 95.165565 343.202637 82.075996 95.079781 343.278320 82.104248 94.987389 343.350555 82.130493 94.889702 343.417999 82.227333 94.330048 343.672180 81.511642 95.611031 342.766418 81.563385 95.565704 342.859283 81.615204 95.512276 342.952667 81.662964 95.455185 343.039093 81.710121 95.390594 343.124847 81.755096 95.320381 343.207001 81.798820 95.242752 343.287323 81.839622 95.160568 343.362762 81.878555 95.071625 343.435211 81.914886 94.977142 343.503387 81.948715 94.876411 343.567444 82.154808 94.785980 343.480804 81.979141 94.772049 343.625732 82.176537 94.678932 343.537354 82.006599 94.662560 343.679077 82.195992 94.567009 343.588409 82.030853 94.548119 343.726990 82.212997 94.450432 343.633545 81.875893 94.529114 343.865814 82.238708 94.208809 343.703522 82.247307 94.085304 343.728088 82.251411 94.002556 343.740479 82.255241 93.874176 343.753387 82.256050 93.745506 343.758850 82.253799 93.614731 343.756836 82.248482 93.485344 343.747192 82.240036 93.356148 343.729828 82.228699 93.229942 343.705231 82.214096 93.103142 343.672577 82.196777 92.981056 343.633118 82.176315 92.860504 343.585846 82.153534 92.746033 343.532684 82.127426 92.632874 343.471283 82.099434 92.527283 343.405029 82.068367 92.424667 343.331116 82.035973 92.330574 343.253662 82.007774 92.257591 343.186005 81.979080 92.190575 343.116974 81.944817 92.118950 343.034302 81.910393 92.055107 342.951019 81.873718 91.995125 342.862122 81.837364 91.943039 342.773743 81.798470 91.894775 342.679016 81.760445 91.854485 342.586243 81.720711 91.819305 342.489075 81.682251 91.791710 342.394867 81.637650 91.767273 342.285400 81.594078 91.750877 342.178284 81.555687 91.742455 342.083710 81.515305 91.739731 341.984100 81.476227 91.743095 341.887512 81.435539 91.752876 341.786804 81.396446 91.768341 341.689880 81.356178 91.790718 341.589844 81.317459 91.818657 341.493500 81.278000 91.853905 341.395142 81.239754 91.895020 341.299591 81.132133 92.052353 341.029633 81.167633 91.993027 341.118896 81.031250 92.270988 340.774658 81.063698 92.191399 340.856934 81.097076 92.119164 340.941284 80.945312 92.541550 340.555176 80.972198 92.445526 340.624146 81.001030 92.354912 340.697784 80.877670 92.859741 340.379578 80.897873 92.749245 340.432465 80.920296 92.643768 340.490662 80.816132 93.465660 340.211334 80.822762 93.339951 340.231079 80.832291 93.216049 340.257935 80.844620 93.094666 340.291656 80.859825 92.975189 340.332428 80.814064 93.850525 340.195831 80.811760 93.721741 340.193604 80.812469 93.592415 340.198853 80.839607 94.237625 340.248444 80.828003 94.109604 340.223236 80.819519 93.981201 340.205780 80.871651 94.485580 340.320892 80.854004 94.361809 340.280640 80.940834 94.831543 340.482361 80.915268 94.721169 340.422211 80.891823 94.603897 340.367493 81.031815 95.131935 340.698883 80.999969 95.039551 340.622742 80.969589 94.939583 340.550446 81.519951 95.721077 341.888153 81.480820 95.713623 341.791748 81.443756 95.701141 341.700592 81.401093 95.680222 341.595795 81.356400 95.650467 341.486267 81.318085 95.618217 341.392548 81.278648 95.578239 341.296265 81.241112 95.533463 341.204773 81.202888 95.480675 341.111816 81.167198 95.424202 341.025238 81.131363 95.359848 340.938507 81.097801 95.291794 340.857483 81.064598 95.216095 340.777527 80.548294 95.718369 342.007782 80.593185 95.733269 342.066254 80.658272 95.749870 342.151428 80.723381 95.760620 342.237091 80.757874 95.763954 342.282623 80.791603 95.765633 342.327332 80.857033 95.764420 342.414337 80.924950 95.756836 342.505188 80.966751 95.748909 342.561340 80.990555 95.743263 342.593414 81.057854 95.722748 342.684448 81.122589 95.696449 342.772552 81.168579 95.673668 342.835449 81.188278 95.662834 342.862488 81.253487 95.622078 342.952362 81.318871 95.573235 343.043091 81.357239 95.540535 343.096649 81.379219 95.520370 343.127472 81.438881 95.459946 343.211517 81.495857 95.393700 343.292450 81.526985 95.353554 343.337006 81.551369 95.319946 343.372040 81.603256 95.241379 343.447205 81.652863 95.155861 343.519897 81.672668 95.118393 343.549164 81.699272 95.064590 343.588776 81.742638 94.966866 343.654114 81.781769 94.865196 343.714172 81.789856 94.842209 343.726715 81.848717 94.645813 343.820465 81.874985 94.533394 343.864288 81.898125 94.410843 343.904724 81.915749 94.289642 343.937744 81.925476 94.201324 343.957642 81.934685 94.080887 343.979401 81.939491 93.952713 343.995941 81.939796 93.856094 344.003998 81.939224 93.821709 344.005951 81.933807 93.691376 344.009094 81.923210 93.560493 344.005341 81.917503 93.508186 344.001923 81.907669 93.431908 343.994904 81.886681 93.301964 343.977295 81.859283 93.168182 343.951477 81.830170 93.050980 343.922089 81.795212 92.931412 343.885101 81.766891 92.846413 343.854187 81.754684 92.812363 343.840668 81.710815 92.700417 343.791229 81.661743 92.590714 343.734711 81.643150 92.552643 343.713043 81.610207 92.489204 343.674286 81.565125 92.409744 343.620667 81.519035 92.336121 343.565277 81.491806 92.295807 343.532288 81.463791 92.256584 343.498169 81.408058 92.184776 343.429810 81.348488 92.116287 343.356079 81.317467 92.083710 343.317444 81.289215 92.055748 343.282104 81.225609 91.998444 343.202148 81.163239 91.949341 343.123169 81.125435 91.922791 343.075012 81.097885 91.904907 343.039856 81.034454 91.868271 342.958466 80.960709 91.833298 342.863251 80.921524 91.817940 342.812408 80.888451 91.806686 342.769348 80.824608 91.789299 342.685913 80.757309 91.777077 342.597473 80.711952 91.772354 342.537567 80.692024 91.771172 342.511200 80.623871 91.771263 342.420624 80.558243 91.777466 342.332947 80.503075 91.787399 342.258850 80.490448 91.790291 342.241852 80.425087 91.809029 342.153534 80.358307 91.834885 342.062744 80.301239 91.862640 341.984741 81.201256 91.943810 341.203217 80.227844 91.906479 341.883759 80.170433 91.947639 341.804199 80.112579 91.995773 341.723541 80.049316 92.056831 341.634644 79.991692 92.121033 341.553009 79.942833 92.182755 341.483215 79.882729 92.269356 341.396484 79.832199 92.352966 341.322723 79.797157 92.417915 341.271027 79.784767 92.442436 341.252655 79.740273 92.538490 341.185913 79.700020 92.638420 341.124542 79.679970 92.694099 341.093475 79.663353 92.743912 341.067474 79.630501 92.854881 341.015015 79.601906 92.970474 340.967896 79.594833 93.002914 340.955933 79.578072 93.088661 340.926849 79.558868 93.210030 340.891754 79.544342 93.334984 340.862549 79.534904 93.459473 340.840149 79.530243 93.588326 340.823761 79.530022 93.680214 340.816193 79.530655 93.717354 340.814117 79.536263 93.849007 340.811127 79.546951 93.979118 340.815033 79.552315 94.028122 340.818268 79.562881 94.109573 340.825867 79.583595 94.236855 340.843323 79.610542 94.368126 340.868713 79.640182 94.487305 340.898682 79.676163 94.609818 340.936798 79.702927 94.689896 340.966003 79.715874 94.725960 340.980347 79.760948 94.840530 341.031189 79.808952 94.947433 341.086487 79.826668 94.983665 341.107178 79.859619 95.047104 341.145905 79.912048 95.138794 341.208344 79.965424 95.222145 341.272644 79.978012 95.240501 341.287903 80.019608 95.297958 341.338623 80.077660 95.370605 341.410004 80.135696 95.435356 341.481995 80.152351 95.452599 341.502747 80.198051 95.497040 341.559967 80.259499 95.550529 341.637360 80.324242 95.599663 341.719482 80.344391 95.613518 341.745178 80.387299 95.640846 341.800018 80.461060 95.681137 341.894836 80.531677 95.712120 341.986206 75.107178 92.676170 348.337677 74.118439 92.167763 347.064240 73.412521 92.798279 346.076447 73.145393 94.060577 345.621582 73.318298 95.070259 345.771393 74.373238 96.144318 347.088013 75.555168 94.236458 348.809387 75.540848 94.581688 348.763031 75.490356 94.913757 348.669678 75.405220 95.222572 348.532104 75.288033 95.498756 348.354553 75.142357 95.733917 348.142395 74.972610 95.920898 347.902039 74.783951 96.054031 347.640869 74.582115 96.129265 347.366730 74.163666 96.098724 346.813171 73.959755 95.993881 346.550568 73.767723 95.832962 346.308167 73.593384 95.620865 346.093323 73.442039 95.364029 345.912567 73.225906 94.748489 345.674133 73.167686 94.408485 345.623688 73.159706 93.715347 345.667938 73.210205 93.383278 345.761322 73.295334 93.074463 345.898865 73.558205 92.563118 346.288605 73.727951 92.376129 346.528931 73.916611 92.243004 346.790131 74.327316 92.152718 347.342957 74.536896 92.198303 347.617798 74.740799 92.303154 347.880432 74.932838 92.464073 348.122833 75.258514 92.933006 348.518433 75.382263 93.226776 348.659576 75.474648 93.548546 348.756866 75.532875 93.888550 348.807312 69.977386 94.380074 350.636475 69.980553 94.398544 350.639221 69.909317 94.413086 350.557983 69.972374 94.362587 350.631195 69.965645 94.346626 350.623505 69.957428 94.332672 350.613708 69.947952 94.321152 350.602020 69.937515 94.312408 350.588867 69.926437 94.306709 350.574585 69.915054 94.304237 350.559662 69.903702 94.305054 350.544495 69.892738 94.309143 350.529602 69.882492 94.316376 350.515411 69.873268 94.326530 350.502380 69.865349 94.339310 350.490845 69.858986 94.354317 350.481201 69.854362 94.371094 350.473724 69.851616 94.389137 350.468658 69.850838 94.407890 350.466125 69.852051 94.426796 350.466248 69.855209 94.445267 350.468994 69.860229 94.462753 350.474274 69.866951 94.478714 350.481934 69.875175 94.492668 350.491760 69.884651 94.504189 350.503418 69.895081 94.512932 350.516602 69.906158 94.518631 350.530884 69.917549 94.521103 350.545807 69.928894 94.520287 350.560944 69.939865 94.516197 350.575836 69.950111 94.508965 350.590027 69.959335 94.498810 350.603088 69.967255 94.486031 350.614624 69.973618 94.471024 350.624268 69.978241 94.454247 350.631744 69.980988 94.436203 350.636810 69.981766 94.417450 350.639313 70.071388 94.421089 350.712463 70.069809 94.459251 350.707336 70.064224 94.495964 350.697021 70.054810 94.530106 350.681793 70.041855 94.560631 350.662170 70.025757 94.586632 350.638733 70.006989 94.607300 350.612152 69.986130 94.622017 350.583282 69.963821 94.630333 350.552979 69.940727 94.631996 350.522156 69.917557 94.626961 350.491791 69.895020 94.615372 350.462738 69.873787 94.597580 350.435944 69.854515 94.574135 350.412201 69.837784 94.545738 350.392212 69.824104 94.513268 350.376617 69.813889 94.477692 350.365845 69.807457 94.440102 350.360291 69.804993 94.401642 350.360046 69.806572 94.363480 350.365173 69.812157 94.326767 350.375488 69.821564 94.292633 350.390717 69.834518 94.262100 350.410339 69.850624 94.236099 350.433777 69.869392 94.215431 350.460358 69.890251 94.200714 350.489227 69.912560 94.192398 350.519531 69.935654 94.190735 350.550354 69.958817 94.195770 350.580719 69.981361 94.207367 350.609772 70.002594 94.225151 350.636566 70.021866 94.248604 350.660309 70.038597 94.276993 350.680298 70.052277 94.309471 350.695892 70.062485 94.345039 350.706635 70.068924 94.382629 350.712219 70.186287 94.424042 350.779388 70.183823 94.483383 350.771423 70.175148 94.540466 350.755371 70.160515 94.593552 350.731720 70.140366 94.641022 350.701202 70.115326 94.681450 350.664734 70.086151 94.713585 350.623413 70.053719 94.736473 350.578522 70.019028 94.749405 350.531403 69.983116 94.751991 350.483490 69.947098 94.744156 350.436249 69.912048 94.726135 350.391113 69.879036 94.698471 350.349426 69.849068 94.662010 350.312500 69.823051 94.617867 350.281433 69.801781 94.567368 350.257172 69.785896 94.512054 350.240448 69.775887 94.453613 350.231781 69.772057 94.393806 350.231415 69.774521 94.334465 350.239380 69.783203 94.277382 350.255432 69.797836 94.224297 350.279083 69.817978 94.176826 350.309601 69.843018 94.136406 350.346069 69.872200 94.104263 350.387390 69.904625 94.081375 350.432281 69.939323 94.068443 350.479401 69.975227 94.065857 350.527313 70.011253 94.073692 350.574554 70.046303 94.091713 350.619690 70.079315 94.119377 350.661377 70.109276 94.155838 350.698303 70.135292 94.199982 350.729370 70.156563 94.250481 350.753632 70.172447 94.305794 350.770355 70.182457 94.364235 350.779022 70.338417 94.426079 350.838684 70.334961 94.509415 350.827515 70.322769 94.589577 350.804962 70.302223 94.664124 350.771759 70.273933 94.730797 350.728912 70.238762 94.787560 350.677673 70.197784 94.832695 350.619659 70.152245 94.864838 350.556610 70.103523 94.882996 350.490448 70.053101 94.886627 350.423157 70.002510 94.875626 350.356812 69.953285 94.850311 350.293427 69.906929 94.811470 350.234894 69.864845 94.760269 350.183044 69.828316 94.698273 350.139404 69.798447 94.627357 350.105347 69.776146 94.549683 350.081848 69.762085 94.467606 350.069672 69.756706 94.383621 350.069183 69.760162 94.300285 350.080353 69.772354 94.220123 350.102905 69.792900 94.145576 350.136108 69.821190 94.078911 350.178955 69.856354 94.022141 350.230194 69.897331 93.977005 350.288208 69.942871 93.944862 350.351257 69.991592 93.926704 350.417419 70.042015 93.923073 350.484711 70.092606 93.934074 350.551056 70.141830 93.959389 350.614441 70.188187 93.998230 350.672974 70.230270 94.049431 350.724823 70.266808 94.111427 350.768463 70.296677 94.182343 350.802521 70.318977 94.260017 350.826019 70.333031 94.342094 350.838196 70.547127 94.426628 350.884949 70.542503 94.538040 350.869995 70.526207 94.645195 350.839844 70.498734 94.744858 350.795471 70.460922 94.833984 350.738159 70.413910 94.909866 350.669708 70.359131 94.970207 350.592133 70.298248 95.013168 350.507843 70.233116 95.037445 350.419403 70.165710 95.042305 350.329437 70.098083 95.027596 350.240753 70.032280 94.993759 350.156006 69.970306 94.941833 350.077789 69.914047 94.873383 350.008453 69.865211 94.790504 349.950134 69.825279 94.695702 349.904572 69.795464 94.591866 349.873169 69.776680 94.482147 349.856903 69.769485 94.369873 349.856232 69.774101 94.258469 349.871185 69.790398 94.151306 349.901306 69.817871 94.051651 349.945709 69.855682 93.962524 350.002991 69.902695 93.886642 350.071472 69.957474 93.826302 350.149017 70.018356 93.783333 350.233307 70.083488 93.759056 350.321777 70.150894 93.754204 350.411713 70.218529 93.768913 350.500397 70.284325 93.802750 350.585144 70.346298 93.854675 350.663391 70.402557 93.923119 350.732727 70.451393 94.006004 350.791046 70.491325 94.100800 350.836609 70.521141 94.204643 350.867981 70.539932 94.314362 350.884277 70.910744 94.423676 350.904205 70.904449 94.575523 350.883820 70.882240 94.721581 350.842743 70.844795 94.857414 350.782227 70.793251 94.978889 350.704132 70.729172 95.082321 350.610809 70.654510 95.164566 350.505096 70.571533 95.223122 350.390228 70.482758 95.256218 350.269653 70.390884 95.262833 350.147064 70.298706 95.242783 350.026184 70.209015 95.196663 349.910675 70.124550 95.125885 349.804047 70.047874 95.032600 349.709564 69.981300 94.919632 349.630035 69.926872 94.790421 349.567963 69.886238 94.648888 349.525177 69.860634 94.499344 349.502991 69.850830 94.346321 349.502075 69.857124 94.194473 349.522461 69.879333 94.048416 349.563538 69.916779 93.912582 349.624023 69.968323 93.791107 349.702118 70.032402 93.687675 349.795441 70.107063 93.605431 349.901154 70.190041 93.546875 350.016052 70.278816 93.513779 350.136597 70.370689 93.507164 350.259186 70.462868 93.527214 350.380096 70.552551 93.573334 350.495605 70.637016 93.644112 350.602234 70.713699 93.737396 350.696716 70.780266 93.850365 350.776215 70.834694 93.979576 350.838318 70.875328 94.121109 350.881104 70.900940 94.270653 350.903290 71.430450 94.414047 350.847015 71.422241 94.612000 350.820435 71.393288 94.802399 350.766876 71.344475 94.979477 350.688019 71.277283 95.137833 350.586212 71.193748 95.272675 350.464539 71.096420 95.379883 350.326752 70.988243 95.456223 350.176971 70.872513 95.499359 350.019806 70.752747 95.507988 349.859985 70.632576 95.481850 349.702393 70.515663 95.421730 349.551819 70.405548 95.329460 349.412842 70.305588 95.207848 349.289642 70.218811 95.060585 349.186005 70.147858 94.892143 349.105072 70.094887 94.707642 349.049286 70.061501 94.512688 349.020355 70.048714 94.313202 349.019165 70.056931 94.115250 349.045746 70.085876 93.924843 349.099274 70.134689 93.747772 349.178162 70.201889 93.589409 349.279968 70.285416 93.454575 349.401611 70.382744 93.347359 349.539429 70.490921 93.271027 349.689178 70.606651 93.227882 349.846375 70.726418 93.219254 350.006165 70.846588 93.245399 350.163757 70.963501 93.305519 350.314331 71.073616 93.397781 350.453339 71.173576 93.519402 350.576538 71.260353 93.666664 350.680176 71.331306 93.835106 350.761108 71.384285 94.019608 350.816895 71.417671 94.214561 350.845825 72.074944 94.396370 350.686340 72.064880 94.639107 350.653748 72.029373 94.872589 350.588104 71.969521 95.089729 350.491394 71.887123 95.283913 350.366547 71.784691 95.449257 350.217377 71.665337 95.580734 350.048370 71.532692 95.674339 349.864716 71.390778 95.727234 349.671997 71.243912 95.737816 349.476013 71.096558 95.705765 349.282776 70.953194 95.632042 349.098114 70.818161 95.518898 348.927673 70.695587 95.369766 348.776611 70.589172 95.189186 348.649536 70.502167 94.982635 348.550293 70.437210 94.756386 348.481873 70.396271 94.517326 348.446411 70.380600 94.272713 348.444946 70.390663 94.029968 348.477539 70.426163 93.796486 348.543182 70.486023 93.579353 348.639923 70.568420 93.385162 348.764771 70.670853 93.219818 348.913940 70.790199 93.088348 349.082916 70.922852 92.994743 349.266571 71.064766 92.941841 349.459320 71.211624 92.931259 349.655273 71.358986 92.963318 349.848511 71.502350 93.037033 350.033173 71.637375 93.150177 350.203613 71.759956 93.299309 350.354675 71.866364 93.479897 350.481750 71.953377 93.686447 350.581024 72.018333 93.912689 350.649414 72.059273 94.151756 350.684875 72.884850 94.367813 350.385132 72.873016 94.653122 350.346832 72.831284 94.927559 350.269684 72.760933 95.182770 350.156006 72.664085 95.411018 350.009247 72.543694 95.605354 349.833893 72.403404 95.759888 349.635284 72.247498 95.869911 349.419434 72.080696 95.932083 349.192902 71.908073 95.944527 348.962555 71.734879 95.906845 348.735413 71.566360 95.820198 348.518402 71.407661 95.687210 348.318054 71.263580 95.511925 348.140503 71.138512 95.299675 347.991119 71.036240 95.056892 347.874481 70.959892 94.790970 347.794067 70.911774 94.509987 347.752380 70.893349 94.222466 347.750671 70.905182 93.937157 347.788971 70.946907 93.662727 347.866119 71.017265 93.407509 347.979797 71.114113 93.179268 348.126556 71.234512 92.984924 348.301880 71.374794 92.830399 348.500519 71.530701 92.720375 348.716370 71.697502 92.658195 348.942902 71.870125 92.645760 349.173248 72.043320 92.683434 349.400391 72.211838 92.770088 349.617401 72.370544 92.903069 349.817749 72.514618 93.078354 349.995300 72.639694 93.290611 350.144684 72.741959 93.533386 350.261322 72.818306 93.799309 350.341736 72.866425 94.080299 350.383423 73.730766 94.332039 349.977325 73.717621 94.648941 349.934784 73.671272 94.953766 349.849060 73.593124 95.237244 349.722809 73.485558 95.490761 349.559814 73.351830 95.706619 349.365051 73.196007 95.878265 349.144440 73.022835 96.000473 348.904663 72.837563 96.069534 348.653046 72.645821 96.083351 348.397217 72.453445 96.041496 348.144928 72.266273 95.945259 347.903839 72.089989 95.797546 347.681335 71.929955 95.602844 347.484100 71.791039 95.367088 347.318207 71.677444 95.097427 347.188629 71.592636 94.802055 347.099335 71.539192 94.489952 347.053009 71.518730 94.170593 347.051117 71.531876 93.853691 347.093658 71.578224 93.548866 347.179352 71.656372 93.265388 347.305634 71.763939 93.011871 347.468628 71.897667 92.796005 347.663391 72.053490 92.624367 347.884003 72.226662 92.502159 348.123749 72.411934 92.433098 348.375366 72.603676 92.419281 348.631226 72.796051 92.461128 348.883514 72.983223 92.557373 349.124573 73.159508 92.705086 349.347107 73.319542 92.899780 349.544312 73.458458 93.135544 349.710236 73.572052 93.405205 349.839813 73.656860 93.700577 349.929108 73.710304 94.012680 349.975403 74.614136 94.288910 349.461212 74.600136 94.626350 349.415924 74.550789 94.950928 349.324646 74.467575 95.252777 349.190186 74.353035 95.522720 349.016632 74.210640 95.752571 348.809265 74.044724 95.935341 348.574341 73.860329 96.065468 348.319061 73.663048 96.139000 348.051117 73.458885 96.153717 347.778687 73.254044 96.109154 347.510071 73.054733 96.006668 347.253387 72.867035 95.849388 347.016418 72.696632 95.642075 346.806427 72.548706 95.391037 346.629761 72.427750 95.103897 346.491791 72.337448 94.789383 346.396698 72.280540 94.457054 346.347412 72.258751 94.117004 346.345367 72.272751 93.779564 346.390686 72.322098 93.454994 346.481934 72.405312 93.153145 346.616394 72.519852 92.883194 346.789948 72.662247 92.653343 346.997314 72.828163 92.470581 347.232239 73.012558 92.340454 347.487518 73.209839 92.266914 347.755463 73.414001 92.252205 348.027893 73.618843 92.296768 348.296509 73.818146 92.399246 348.553223 74.005852 92.556534 348.790161 74.176254 92.763847 349.000153 74.324181 93.014885 349.176819 74.445137 93.302017 349.314789 74.535439 93.616531 349.409882 74.592346 93.948860 349.459167 "
							            />
						</IndexedFaceSet>
					</Shape>
				</Group>
			</Transform>
		</Transform>
	</Scene>
</X3D>