<?xml version="1.0" encoding="UTF-8"?>
<!DOCTYPE X3D PUBLIC "ISO//Web3D//DTD X3D 3.0//EN" "http://www.web3d.org/specifications/x3d-3.0.dtd">
<X3D version="3.0" profile="Immersive" xmlns:xsd="http://www.w3.org/2001/XMLSchema-instance" xsd:noNamespaceSchemaLocation="http://www.web3d.org/specifications/x3d-3.0.xsd">
	<head>
		<meta name="filename" content="OMLV4_Packing - For Xander - Param_Horstab_V4_PDR-1.x3d" />
		<meta name="created" content="2026-04-19 20:21:18" />
		<meta name="generator" content="Blender 4.3.2" />
		<meta name="translator" content="Web3D X3D/VRML2 format v2.5.1" />
	</head>
	<Scene>
		<NavigationInfo headlight="true"
		                visibilityLimit="0.0"
		                type='"EXAMINE", "ANY"'
		                avatarSize="0.25, 1.75, 0.75"
		                />
		<Background DEF="WO_World"
		            groundColor="0.051 0.051 0.051"
		            skyColor="0.051 0.051 0.051"
		            />
		<Transform DEF="OMLV4_Packing_-_For_Xander_-_Param_Horstab_V4_PDR-1_TRANSFORM"
		           translation="0.000000 0.000000 0.000000"
		           scale="1.000000 1.000000 1.000000"
		           rotation="-1.000000 0.000000 0.000000 1.570796"
		           >
			<Transform DEF="OMLV4_Packing_-_For_Xander_-_Param_Horstab_V4_PDR-1_ifs_TRANSFORM"
			           translation="0.000000 0.000000 0.000000"
			           scale="1.000000 1.000000 1.000000"
			           rotation="0.000000 1.000000 0.000000 0.000000"
			           >
				<Group DEF="group_ME_OMLV4_Packing_-_For_Xander_-_Param_Horstab_V4_PDR-1">
					<Shape>
						<Appearance>
						</Appearance>
						<IndexedFaceSet solid="false"
						                coordIndex="0 1 2 -1 3 4 5 -1 6 7 8 -1 8 7 9 -1 8 9 10 -1 11 12 13 -1 13 12 14 -1 13 14 15 -1 16 17 9 -1 9 17 18 -1 9 18 10 -1 0 2 19 -1 5 4 20 -1 20 4 21 -1 20 21 22 -1 22 21 23 -1 22 23 11 -1 11 23 24 -1 11 24 12 -1 14 25 15 -1 15 25 26 -1 15 26 27 -1 27 26 28 -1 27 28 29 -1 29 28 30 -1 29 30 31 -1 31 30 32 -1 31 32 33 -1 33 32 34 -1 33 34 35 -1 35 34 36 -1 35 36 37 -1 37 36 16 -1 37 16 38 -1 38 16 9 -1 39 40 41 -1 41 40 42 -1 41 42 43 -1 39 41 44 -1 44 41 45 -1 44 45 46 -1 5 47 3 -1 3 47 48 -1 3 48 49 -1 49 48 50 -1 49 50 51 -1 51 50 52 -1 51 52 53 -1 53 52 54 -1 53 54 55 -1 55 54 56 -1 55 56 57 -1 57 56 58 -1 57 58 59 -1 59 58 60 -1 59 60 61 -1 61 60 62 -1 61 62 63 -1 63 62 44 -1 63 44 64 -1 64 44 46 -1 65 66 1 -1 1 66 2 -1 6 8 1 -1 1 8 67 -1 1 67 65 -1 19 2 68 -1 68 2 69 -1 68 69 70 -1 43 71 41 -1 41 71 72 -1 41 72 73 -1 73 74 41 -1 41 74 75 -1 75 76 41 -1 41 76 77 -1 41 77 78 -1 41 79 80 -1 80 79 81 -1 78 82 41 -1 41 82 83 -1 41 83 79 -1 84 85 86 -1 85 84 87 -1 87 84 88 -1 87 88 89 -1 90 91 92 -1 93 94 95 -1 95 94 96 -1 95 96 97 -1 98 99 100 -1 101 102 103 -1 103 102 104 -1 103 104 105 -1 105 104 106 -1 105 106 96 -1 96 106 107 -1 96 107 97 -1 108 109 110 -1 110 109 111 -1 100 99 112 -1 89 88 113 -1 113 88 114 -1 113 114 109 -1 109 114 115 -1 109 115 111 -1 86 116 84 -1 84 116 117 -1 84 117 90 -1 90 117 118 -1 90 118 91 -1 108 119 120 -1 95 121 122 -1 123 124 125 -1 125 124 126 -1 125 126 127 -1 127 126 128 -1 127 128 129 -1 129 128 130 -1 129 130 92 -1 92 130 131 -1 92 131 90 -1 101 132 102 -1 102 132 133 -1 102 133 100 -1 100 133 134 -1 100 134 98 -1 99 135 112 -1 112 135 136 -1 112 136 137 -1 120 138 108 -1 108 138 139 -1 108 139 109 -1 140 141 142 -1 122 143 95 -1 95 143 144 -1 95 144 93 -1 136 145 137 -1 137 145 146 -1 137 146 147 -1 147 146 148 -1 147 148 149 -1 149 148 150 -1 149 150 151 -1 151 150 152 -1 151 152 153 -1 153 152 154 -1 155 156 119 -1 156 157 119 -1 119 157 158 -1 119 158 159 -1 125 160 123 -1 123 160 161 -1 123 161 154 -1 154 161 162 -1 154 162 153 -1 119 108 163 -1 119 163 155 -1 95 164 121 -1 121 164 165 -1 121 165 141 -1 141 165 166 -1 141 166 167 -1 167 168 141 -1 141 168 169 -1 141 169 142 -1 170 171 172 -1 172 171 173 -1 172 173 158 -1 158 173 174 -1 158 174 159 -1 175 176 177 -1 177 176 178 -1 177 178 142 -1 142 178 179 -1 142 179 140 -1 54 52 180 -1 181 44 62 -1 182 16 36 -1 134 133 183 -1 90 131 184 -1 185 186 187 -1 184 131 188 -1 188 131 130 -1 188 130 189 -1 189 130 128 -1 189 128 190 -1 191 192 193 -1 193 192 111 -1 193 111 194 -1 194 111 115 -1 194 115 114 -1 139 138 195 -1 195 138 120 -1 195 120 119 -1 196 192 197 -1 157 156 195 -1 195 156 155 -1 155 163 195 -1 195 163 108 -1 195 108 192 -1 192 108 110 -1 192 110 111 -1 195 119 159 -1 195 159 174 -1 170 172 195 -1 195 172 158 -1 195 158 157 -1 174 173 195 -1 195 173 171 -1 195 171 170 -1 139 195 109 -1 109 195 185 -1 109 185 113 -1 113 185 187 -1 113 187 89 -1 89 187 198 -1 89 198 87 -1 87 198 199 -1 87 199 85 -1 118 117 200 -1 200 117 116 -1 200 116 199 -1 199 116 86 -1 199 86 85 -1 90 184 84 -1 84 184 201 -1 84 201 88 -1 202 203 153 -1 204 149 203 -1 203 149 151 -1 203 151 153 -1 107 205 97 -1 97 205 206 -1 97 206 95 -1 95 206 164 -1 207 165 164 -1 164 206 207 -1 207 206 208 -1 93 144 209 -1 144 143 209 -1 209 143 122 -1 209 122 121 -1 209 210 211 -1 211 210 212 -1 211 212 213 -1 178 176 175 -1 121 141 209 -1 209 141 140 -1 209 140 179 -1 177 209 175 -1 175 209 179 -1 175 179 178 -1 177 142 207 -1 207 142 169 -1 207 169 168 -1 168 167 207 -1 207 167 166 -1 207 166 165 -1 104 214 106 -1 106 214 215 -1 183 133 216 -1 133 132 216 -1 216 132 101 -1 216 101 217 -1 217 101 103 -1 217 103 213 -1 213 103 105 -1 213 105 211 -1 211 105 96 -1 211 96 209 -1 209 96 94 -1 209 94 93 -1 218 150 219 -1 219 150 148 -1 219 148 220 -1 136 221 145 -1 145 221 220 -1 145 220 146 -1 146 220 148 -1 136 135 221 -1 221 135 99 -1 221 99 183 -1 183 99 98 -1 183 98 134 -1 104 102 214 -1 214 102 100 -1 214 100 222 -1 222 100 112 -1 222 112 223 -1 223 112 137 -1 223 137 204 -1 204 137 147 -1 204 147 149 -1 224 7 6 -1 6 1 224 -1 224 1 0 -1 224 0 19 -1 66 65 224 -1 224 65 67 -1 224 67 8 -1 19 68 224 -1 224 68 70 -1 224 70 69 -1 69 2 224 -1 224 2 66 -1 225 9 7 -1 10 18 182 -1 182 18 17 -1 182 17 16 -1 207 208 226 -1 226 208 224 -1 226 224 182 -1 182 224 8 -1 182 8 10 -1 7 224 225 -1 225 224 208 -1 225 208 227 -1 227 208 206 -1 227 206 228 -1 228 206 205 -1 228 205 215 -1 215 205 107 -1 215 107 106 -1 177 207 209 -1 209 207 210 -1 210 207 226 -1 210 226 212 -1 212 226 182 -1 212 182 213 -1 213 182 36 -1 213 36 217 -1 217 36 34 -1 217 34 216 -1 34 32 216 -1 216 32 30 -1 216 30 183 -1 183 30 28 -1 183 28 221 -1 221 28 26 -1 221 26 220 -1 220 26 25 -1 220 25 219 -1 219 25 14 -1 219 14 218 -1 222 29 214 -1 214 29 31 -1 214 31 215 -1 215 31 33 -1 215 33 228 -1 228 33 35 -1 228 35 227 -1 227 35 37 -1 227 37 225 -1 225 37 38 -1 225 38 9 -1 63 64 229 -1 229 64 46 -1 46 45 229 -1 229 45 41 -1 229 41 230 -1 230 41 80 -1 78 77 230 -1 80 79 83 -1 80 83 230 -1 230 83 82 -1 230 82 78 -1 77 76 230 -1 230 76 75 -1 75 74 230 -1 230 74 73 -1 230 73 72 -1 88 201 114 -1 114 201 231 -1 114 231 194 -1 194 231 232 -1 194 232 193 -1 193 232 233 -1 193 233 191 -1 72 71 230 -1 230 71 43 -1 230 43 42 -1 42 40 181 -1 181 40 39 -1 181 39 44 -1 42 181 230 -1 230 181 197 -1 230 197 229 -1 196 195 192 -1 197 192 191 -1 197 191 229 -1 229 191 233 -1 229 233 63 -1 63 233 232 -1 63 232 61 -1 61 232 231 -1 61 231 59 -1 59 231 201 -1 59 201 57 -1 195 196 185 -1 185 196 197 -1 185 197 186 -1 186 197 181 -1 186 181 187 -1 187 181 62 -1 187 62 198 -1 234 235 48 -1 180 52 235 -1 235 52 50 -1 235 50 48 -1 62 60 198 -1 198 60 58 -1 198 58 199 -1 199 58 56 -1 199 56 200 -1 200 56 54 -1 200 54 236 -1 236 54 180 -1 237 21 238 -1 238 21 4 -1 238 4 190 -1 190 4 3 -1 190 3 189 -1 189 3 49 -1 189 49 188 -1 188 49 51 -1 188 51 184 -1 184 51 53 -1 184 53 201 -1 201 53 55 -1 201 55 57 -1 128 126 190 -1 190 126 124 -1 190 124 238 -1 238 124 123 -1 238 123 237 -1 237 123 154 -1 237 154 218 -1 218 154 152 -1 218 152 150 -1 153 162 202 -1 202 162 161 -1 202 161 239 -1 239 161 160 -1 239 160 234 -1 234 160 125 -1 234 125 235 -1 235 125 127 -1 235 127 180 -1 180 127 129 -1 180 129 236 -1 236 129 92 -1 236 92 200 -1 200 92 91 -1 200 91 118 -1 14 12 218 -1 218 12 24 -1 218 24 237 -1 237 24 23 -1 237 23 21 -1 48 47 234 -1 234 47 5 -1 234 5 239 -1 239 5 20 -1 239 20 202 -1 202 20 22 -1 202 22 203 -1 203 22 11 -1 203 11 204 -1 204 11 13 -1 204 13 223 -1 223 13 15 -1 223 15 222 -1 222 15 27 -1 222 27 29 -1 240 241 242 -1 243 244 245 -1 246 247 248 -1 248 247 249 -1 248 249 250 -1 245 244 251 -1 251 244 252 -1 251 252 253 -1 254 255 256 -1 256 255 257 -1 256 257 258 -1 258 257 259 -1 258 259 260 -1 261 262 263 -1 263 262 264 -1 263 264 265 -1 265 264 266 -1 265 266 267 -1 267 266 268 -1 267 268 269 -1 269 268 270 -1 269 270 271 -1 271 270 272 -1 271 272 246 -1 246 272 273 -1 246 273 247 -1 274 275 276 -1 276 275 277 -1 276 277 278 -1 256 279 254 -1 254 279 280 -1 254 280 281 -1 281 280 243 -1 281 243 282 -1 282 243 245 -1 263 283 261 -1 261 283 284 -1 261 284 276 -1 276 284 285 -1 276 285 274 -1 286 287 241 -1 241 287 288 -1 241 288 289 -1 290 291 241 -1 241 291 242 -1 249 292 250 -1 250 292 293 -1 250 293 294 -1 294 293 260 -1 294 260 295 -1 295 260 259 -1 278 296 276 -1 276 296 297 -1 276 297 298 -1 252 299 253 -1 253 299 300 -1 253 300 241 -1 241 300 301 -1 241 301 286 -1 289 302 241 -1 241 302 303 -1 241 303 304 -1 304 305 241 -1 241 305 306 -1 241 306 290 -1 307 308 242 -1 242 308 309 -1 242 309 240 -1 307 310 308 -1 308 310 311 -1 308 311 312 -1 298 313 276 -1 276 313 314 -1 276 314 315 -1 315 316 276 -1 276 316 317 -1 276 317 318 -1 318 319 276 -1 276 319 320 -1 276 320 321 -1 322 323 324 -1 324 323 325 -1 324 325 326 -1 327 328 329 -1 330 331 332 -1 322 324 333 -1 333 324 334 -1 333 334 335 -1 336 337 338 -1 338 337 339 -1 338 339 340 -1 340 339 341 -1 340 341 342 -1 342 341 328 -1 342 328 343 -1 343 328 327 -1 344 345 346 -1 346 345 347 -1 346 347 348 -1 348 347 349 -1 348 349 350 -1 350 349 326 -1 350 326 351 -1 351 326 325 -1 352 353 354 -1 354 353 355 -1 356 357 358 -1 358 357 359 -1 358 359 360 -1 361 362 363 -1 363 362 364 -1 363 364 365 -1 366 367 368 -1 344 346 354 -1 354 346 369 -1 354 369 352 -1 365 370 363 -1 363 370 371 -1 363 371 336 -1 336 371 372 -1 336 372 337 -1 368 367 373 -1 373 367 374 -1 373 374 375 -1 375 374 376 -1 375 376 334 -1 334 376 377 -1 334 377 335 -1 332 331 360 -1 360 331 378 -1 360 378 358 -1 332 379 330 -1 330 379 380 -1 330 380 361 -1 361 380 381 -1 361 381 362 -1 368 382 366 -1 366 382 383 -1 366 383 384 -1 384 383 385 -1 384 385 386 -1 386 385 357 -1 386 357 387 -1 387 357 356 -1 329 388 327 -1 327 388 389 -1 327 389 390 -1 391 392 393 -1 393 392 394 -1 390 395 327 -1 327 395 394 -1 327 394 396 -1 396 394 392 -1 397 398 355 -1 355 398 399 -1 355 399 400 -1 400 401 355 -1 355 401 402 -1 355 402 354 -1 403 404 393 -1 393 404 405 -1 397 406 398 -1 398 406 407 -1 398 407 408 -1 408 407 409 -1 408 409 410 -1 405 411 393 -1 393 411 412 -1 393 412 391 -1 403 413 404 -1 404 413 414 -1 404 414 415 -1 415 414 416 -1 415 416 417 -1 418 283 263 -1 283 418 284 -1 336 338 419 -1 325 323 420 -1 421 369 346 -1 422 423 424 -1 369 421 352 -1 375 425 373 -1 373 425 426 -1 373 426 368 -1 368 426 427 -1 368 427 382 -1 382 427 428 -1 349 347 429 -1 429 347 345 -1 429 345 430 -1 430 345 344 -1 430 344 354 -1 421 355 353 -1 421 353 352 -1 348 431 423 -1 402 421 354 -1 354 421 430 -1 430 432 429 -1 402 401 421 -1 421 401 400 -1 421 400 399 -1 406 397 421 -1 421 397 355 -1 399 398 421 -1 421 398 408 -1 421 408 410 -1 410 409 421 -1 421 409 407 -1 421 407 406 -1 431 348 433 -1 433 348 350 -1 433 350 420 -1 420 350 351 -1 420 351 325 -1 322 333 434 -1 429 435 349 -1 349 435 436 -1 349 436 326 -1 326 436 437 -1 326 437 324 -1 324 437 425 -1 324 425 334 -1 334 425 375 -1 438 386 439 -1 439 386 387 -1 439 387 440 -1 440 387 356 -1 441 442 443 -1 444 343 443 -1 443 343 327 -1 443 327 441 -1 441 327 396 -1 441 396 392 -1 390 389 445 -1 329 328 445 -1 445 389 388 -1 445 388 329 -1 393 394 445 -1 445 394 395 -1 445 395 390 -1 417 416 414 -1 417 414 415 -1 414 413 445 -1 445 413 403 -1 445 403 393 -1 392 391 405 -1 405 391 412 -1 405 412 411 -1 441 392 445 -1 445 392 405 -1 445 405 414 -1 414 405 404 -1 419 338 446 -1 446 338 340 -1 446 340 444 -1 444 340 342 -1 444 342 343 -1 447 341 448 -1 448 341 339 -1 448 339 449 -1 371 450 372 -1 372 450 449 -1 372 449 337 -1 337 449 339 -1 371 370 450 -1 450 370 365 -1 450 365 451 -1 451 365 364 -1 451 364 362 -1 362 381 451 -1 451 381 380 -1 451 380 452 -1 452 380 379 -1 452 379 453 -1 453 379 332 -1 453 332 454 -1 356 358 440 -1 440 358 378 -1 440 378 455 -1 455 378 331 -1 455 331 456 -1 456 331 330 -1 456 330 457 -1 457 330 361 -1 457 361 419 -1 419 361 363 -1 419 363 336 -1 458 319 318 -1 284 418 285 -1 285 418 459 -1 285 459 274 -1 274 459 460 -1 274 460 275 -1 296 278 460 -1 460 278 277 -1 460 277 275 -1 313 298 460 -1 460 298 297 -1 460 297 296 -1 318 317 460 -1 460 317 316 -1 460 316 315 -1 460 315 314 -1 460 314 313 -1 319 458 320 -1 328 341 461 -1 461 341 447 -1 461 447 462 -1 462 447 463 -1 462 463 458 -1 318 460 458 -1 458 460 464 -1 458 464 462 -1 462 464 465 -1 462 465 461 -1 328 461 445 -1 445 461 465 -1 445 465 441 -1 441 465 464 -1 441 464 442 -1 442 464 460 -1 442 460 443 -1 443 460 459 -1 443 459 444 -1 444 459 418 -1 444 418 446 -1 446 418 263 -1 446 263 419 -1 449 264 448 -1 448 264 262 -1 448 262 447 -1 447 262 261 -1 447 261 463 -1 463 261 276 -1 463 276 458 -1 458 276 321 -1 458 321 320 -1 263 265 419 -1 419 265 267 -1 419 267 457 -1 457 267 269 -1 457 269 456 -1 456 269 271 -1 456 271 455 -1 455 271 246 -1 455 246 440 -1 440 246 248 -1 440 248 439 -1 439 248 250 -1 439 250 438 -1 287 286 466 -1 466 286 301 -1 466 301 467 -1 307 306 310 -1 310 306 311 -1 307 242 306 -1 306 242 290 -1 290 242 291 -1 304 303 468 -1 311 306 468 -1 468 306 305 -1 468 305 304 -1 288 468 289 -1 289 468 303 -1 289 303 302 -1 430 469 432 -1 432 469 470 -1 432 470 429 -1 429 470 466 -1 429 466 435 -1 435 466 467 -1 435 467 436 -1 309 308 468 -1 468 308 312 -1 468 312 311 -1 423 431 424 -1 424 431 471 -1 424 471 468 -1 287 466 288 -1 288 466 470 -1 288 470 468 -1 468 470 469 -1 468 469 424 -1 424 469 430 -1 424 430 422 -1 422 430 421 -1 422 421 423 -1 423 421 346 -1 423 346 348 -1 301 300 467 -1 467 300 299 -1 467 299 436 -1 436 299 252 -1 436 252 437 -1 281 282 420 -1 420 282 245 -1 420 245 433 -1 433 245 251 -1 433 251 431 -1 431 251 253 -1 431 253 471 -1 471 253 241 -1 471 241 468 -1 468 241 240 -1 468 240 309 -1 472 257 473 -1 473 257 255 -1 473 255 474 -1 474 255 254 -1 474 254 475 -1 475 254 281 -1 475 281 434 -1 434 281 420 -1 434 420 322 -1 322 420 323 -1 293 476 260 -1 260 476 477 -1 260 477 258 -1 258 477 428 -1 258 428 256 -1 256 428 427 -1 256 427 279 -1 279 427 426 -1 279 426 280 -1 280 426 425 -1 280 425 243 -1 243 425 437 -1 243 437 244 -1 244 437 252 -1 332 360 454 -1 454 360 359 -1 454 359 476 -1 476 359 357 -1 476 357 477 -1 477 357 385 -1 477 385 428 -1 428 385 383 -1 428 383 382 -1 333 335 434 -1 434 335 377 -1 434 377 475 -1 475 377 376 -1 475 376 474 -1 474 376 374 -1 474 374 473 -1 473 374 367 -1 473 367 472 -1 472 367 366 -1 472 366 438 -1 438 366 384 -1 438 384 386 -1 293 292 476 -1 476 292 249 -1 476 249 454 -1 454 249 247 -1 454 247 453 -1 453 247 273 -1 453 273 452 -1 452 273 272 -1 452 272 451 -1 451 272 270 -1 451 270 450 -1 450 270 268 -1 450 268 449 -1 449 268 266 -1 449 266 264 -1 250 294 438 -1 438 294 295 -1 438 295 472 -1 472 295 259 -1 472 259 257 -1 "
						                >
							<Coordinate DEF="coords_ME_OMLV4_Packing_-_For_Xander_-_Param_Horstab_V4_PDR-1"
							            point="556.491699 88.679207 512.584412 556.491882 88.678955 512.584412 556.491394 88.680153 512.584412 585.656189 90.033173 512.584412 582.970398 90.198097 512.584412 584.012390 87.225334 512.584412 556.492065 88.678772 512.584412 556.492615 88.678360 512.584412 556.491821 88.680962 512.584412 556.493286 88.677963 512.584412 556.491943 88.681084 512.584412 580.155518 87.261536 512.584412 578.538086 90.002121 512.584412 574.550049 87.597397 512.584412 575.304443 89.806641 512.584412 567.148193 88.042732 512.584412 556.496948 88.683472 512.584412 556.493469 88.682114 512.584412 556.492554 88.681549 512.584412 556.491516 88.679413 512.584412 582.770386 87.154907 512.584412 581.771729 90.198792 512.584412 581.955872 87.154884 512.584412 581.375549 90.178535 512.584412 578.766541 90.015518 512.584412 568.836609 89.421700 512.584412 563.042786 89.071365 512.584412 559.745972 88.483223 512.584412 559.111694 88.837395 512.584412 557.895874 88.600388 512.584412 557.145752 88.724632 512.584412 556.969910 88.643135 512.584412 556.654053 88.700035 512.584412 556.507385 88.674011 512.584412 556.531311 88.689545 512.584412 556.499756 88.675690 512.584412 556.500916 88.684563 512.584412 556.495300 88.677048 512.584412 556.493347 88.677910 512.584412 608.231201 88.677597 512.584412 608.232605 88.678375 512.584412 608.231934 88.681999 512.584412 608.233032 88.678719 512.584412 608.233337 88.679008 512.584412 608.228943 88.676720 512.584412 608.231689 88.682114 512.584412 608.230408 88.682693 512.584412 585.510681 87.318291 512.584412 587.297668 87.423019 512.584412 588.770508 89.847313 512.584412 589.360840 87.549713 512.584412 595.736938 89.430458 512.584412 596.754822 87.990044 512.584412 602.703186 89.010262 512.584412 604.857910 88.475960 512.584412 606.186279 88.799911 512.584412 606.883362 88.603317 512.584412 607.928772 88.708366 512.584412 607.897034 88.649956 512.584412 608.146423 88.694374 512.584412 608.150269 88.665932 512.584412 608.200684 88.688660 512.584412 608.213379 88.673218 512.584412 608.222473 88.684998 512.584412 608.227478 88.683701 512.584412 556.491516 88.680557 512.584412 556.491516 88.680420 512.584412 556.491699 88.680809 512.584412 556.491455 88.679604 512.584412 556.491394 88.679977 512.584412 556.491394 88.679802 512.584412 608.233398 88.679077 512.584412 608.233582 88.679329 512.584412 608.233704 88.679543 512.584412 608.233765 88.679718 512.584412 608.233826 88.679909 512.584412 608.233765 88.680099 512.584412 608.233765 88.680275 512.584412 608.233765 88.680359 512.584412 608.233459 88.680855 512.584412 608.232544 88.681610 512.584412 608.233154 88.681152 512.584412 608.233643 88.680550 512.584412 608.233521 88.680756 512.584412 598.047607 88.777336 433.884399 598.126221 88.586044 433.884399 597.734619 88.568466 433.884399 599.078796 88.628639 433.884399 599.280884 88.720268 433.884399 599.510986 88.655930 433.884399 592.082214 89.134201 433.884399 595.147034 88.409164 433.884399 589.588745 88.079903 433.884399 511.058746 88.684219 433.884399 511.063049 88.685822 433.884399 511.063568 88.673965 433.884399 511.066223 88.686783 433.884399 511.067352 88.672874 433.884399 519.309692 89.174576 433.884399 521.007446 89.273544 433.884399 522.302246 88.007896 433.884399 512.760193 88.781746 433.884399 513.185547 88.558098 433.884399 511.238037 88.707481 433.884399 511.297333 88.648048 433.884399 511.097443 88.692947 433.884399 511.120789 88.663811 433.884399 511.073364 88.671402 433.884399 599.650696 88.683441 433.884399 599.644836 88.674141 433.884399 599.649536 88.684021 433.884399 599.644287 88.686005 433.884399 523.138428 87.954323 433.884399 599.620422 88.668648 433.884399 599.607666 88.693367 433.884399 599.643250 88.686317 433.884399 597.136169 88.537384 433.884399 596.688293 88.510300 433.884399 596.073303 88.469635 433.884399 599.653198 88.678307 433.884399 599.652649 88.677803 433.884399 511.054688 88.681656 433.884399 511.055145 88.682106 433.884399 556.162842 91.288071 433.884399 559.126892 91.109222 433.884399 557.646301 86.152916 433.884399 562.834961 90.888916 433.884399 569.454346 86.868546 433.884399 567.285583 90.618507 433.884399 578.514832 87.409920 433.884399 572.496033 90.312538 433.884399 590.646118 89.218727 433.884399 513.383972 88.812202 433.884399 516.335266 88.999207 433.884399 517.605347 89.074615 433.884399 523.473633 89.426910 433.884399 526.758118 89.621056 433.884399 534.213196 87.291504 433.884399 599.651672 88.677101 433.884399 599.649292 88.675842 433.884399 511.054291 88.681137 433.884399 511.054626 88.681564 433.884399 511.054108 88.679222 433.884399 511.056061 88.682777 433.884399 511.058258 88.684006 433.884399 530.707214 89.861237 433.884399 532.193054 89.950050 433.884399 545.287598 86.623383 433.884399 543.268005 90.609192 433.884399 545.866028 86.588165 433.884399 548.805176 90.943916 433.884399 549.934937 86.349991 433.884399 550.836975 91.063423 433.884399 553.238403 86.141037 433.884399 554.342163 91.280685 433.884399 599.652832 88.681999 433.884399 599.653381 88.681435 433.884399 599.653625 88.681053 433.884399 599.653809 88.680717 433.884399 599.653564 88.678795 433.884399 556.365662 86.079277 433.884399 555.938293 86.065636 433.884399 553.593201 86.118263 433.884399 599.651794 88.682785 433.884399 511.059174 88.675568 433.884399 511.057129 88.676529 433.884399 511.056396 88.676964 433.884399 511.055176 88.677818 433.884399 511.054596 88.678421 433.884399 511.054260 88.678879 433.884399 599.653931 88.680099 433.884399 599.653931 88.679787 433.884399 599.653870 88.680405 433.884399 599.653870 88.679489 433.884399 599.653748 88.679161 433.884399 511.053955 88.679840 433.884399 511.053955 88.680153 433.884399 511.053986 88.679535 433.884399 511.053986 88.680450 433.884399 511.054108 88.680771 433.884399 587.201660 87.674095 473.234406 606.080383 88.675301 492.909424 545.140503 88.684662 492.909424 537.342102 88.894470 473.234406 594.372925 89.254707 473.234406 601.787903 88.673889 453.559418 603.934143 88.674599 473.234406 603.914551 88.670532 473.234406 585.601685 89.779655 473.234406 576.830811 90.308807 473.234406 572.444946 90.567108 473.234406 603.940857 88.682953 473.234314 601.796509 88.677185 453.559265 603.936218 88.684753 473.234406 603.928528 88.686783 473.234406 600.721863 88.675964 443.721893 601.794617 88.676186 453.559418 603.943237 88.678658 473.234406 603.846863 88.662415 473.234406 602.561707 88.598015 473.234406 600.374390 88.465500 473.234406 603.352417 88.727287 473.234406 567.463806 86.651100 473.234406 565.271545 86.792854 473.234406 560.885742 87.051155 473.234406 533.788025 88.673187 473.234406 533.780334 88.675217 473.234406 522.415710 88.682549 453.560150 533.775696 88.677124 473.234833 516.738159 88.683998 443.721893 522.417603 88.683777 453.559418 522.424316 88.686081 453.559418 533.782349 88.685371 473.234406 533.802002 88.689430 473.234406 534.364136 88.632683 473.234406 533.843628 88.665062 473.234406 535.154846 88.761955 473.234406 533.869690 88.697548 473.234406 563.671631 90.473022 473.234406 559.286194 90.207916 473.234406 550.514832 89.685875 473.234406 541.744324 89.155251 473.234406 543.343567 88.105263 473.234406 552.114807 87.580307 473.234406 545.135193 88.682549 492.910461 545.134644 88.677498 492.909790 533.773254 88.681313 473.234406 545.138672 88.675842 492.909424 545.145386 88.674080 492.909424 606.086243 88.682564 492.909332 606.085693 88.677147 492.909210 603.872864 88.694901 473.234406 606.075439 88.685890 492.909424 606.082214 88.684128 492.909424 574.044922 86.886948 473.234406 578.430298 87.152054 473.234406 595.972229 88.204720 473.234406 568.057007 90.739738 473.234406 570.252747 90.708870 473.234406 569.659546 86.620224 473.234406 608.231201 88.677597 211.184402 608.228943 88.676720 211.184402 608.233826 88.679932 211.184402 606.186279 88.799911 211.184402 607.928772 88.708366 211.184402 607.897034 88.649956 211.184402 574.550049 87.597397 211.184402 578.538086 90.002121 211.184402 580.155518 87.261536 211.184402 578.766541 90.015518 211.184402 581.955872 87.154884 211.184402 608.150269 88.665932 211.184402 608.146423 88.694374 211.184402 608.213379 88.673218 211.184402 596.754822 87.990044 211.184402 589.360840 87.549713 211.184402 588.770508 89.847313 211.184402 587.297668 87.423019 211.184402 585.656189 90.033173 211.184402 585.510681 87.318291 211.184402 582.970398 90.198097 211.184402 556.500916 88.684563 211.184402 556.531311 88.689545 211.184402 556.507385 88.674011 211.184402 556.654053 88.700035 211.184402 556.969910 88.643135 211.184402 557.145752 88.724632 211.184402 557.895874 88.600388 211.184402 559.111694 88.837395 211.184402 559.745972 88.483223 211.184402 563.042786 89.071365 211.184402 567.148193 88.042732 211.184402 568.836609 89.421700 211.184402 575.304443 89.806641 211.184402 556.493286 88.677963 211.184402 556.492615 88.678360 211.184402 556.496948 88.683472 211.184402 556.492065 88.678772 211.184402 556.491882 88.678955 211.184402 595.736938 89.430458 211.184402 602.703186 89.010262 211.184402 604.857910 88.475960 211.184402 606.883362 88.603317 211.184402 556.499756 88.675690 211.184402 556.495300 88.677048 211.184402 556.493347 88.677910 211.184402 608.230408 88.682693 211.184402 608.231689 88.682114 211.184402 608.231934 88.681999 211.184402 608.232544 88.681610 211.184402 608.233765 88.680275 211.184402 608.233765 88.680099 211.184402 581.375549 90.178535 211.184402 581.771729 90.198792 211.184402 582.770386 87.154907 211.184402 584.012390 87.225334 211.184402 556.491699 88.679207 211.184402 556.491516 88.679413 211.184402 556.491455 88.679604 211.184402 608.200684 88.688660 211.184402 608.222473 88.684998 211.184402 608.227478 88.683701 211.184402 608.233154 88.681152 211.184402 608.233459 88.680855 211.184402 608.233521 88.680756 211.184402 608.233643 88.680550 211.184402 608.233765 88.680359 211.184402 608.233765 88.679718 211.184402 608.233032 88.678719 211.184402 608.232605 88.678375 211.184402 608.233704 88.679543 211.184402 608.233582 88.679329 211.184402 608.233398 88.679077 211.184402 556.491394 88.679802 211.184402 556.491394 88.679977 211.184402 556.491394 88.680153 211.184402 556.491516 88.680420 211.184402 556.491516 88.680557 211.184402 556.491699 88.680809 211.184402 556.491943 88.681084 211.184402 556.492554 88.681549 211.184402 556.493469 88.682114 211.184402 597.136169 88.537384 289.884399 597.734619 88.568466 289.884399 598.047607 88.777336 289.884399 598.126221 88.586044 289.884399 599.280884 88.720268 289.884399 511.063568 88.673965 289.884399 511.066223 88.686783 289.884399 511.063049 88.685822 289.884399 534.213196 87.291504 289.884399 545.287598 86.623383 289.884399 543.268005 90.609192 289.884399 596.688293 88.510300 289.884399 592.082214 89.134201 289.884399 596.073303 88.469635 289.884399 513.185547 88.558098 289.884399 512.760193 88.781746 289.884399 511.297333 88.648048 289.884399 511.238037 88.707481 289.884399 511.120789 88.663811 289.884399 511.097443 88.692947 289.884399 511.073364 88.671402 289.884399 511.067352 88.672874 289.884399 599.649536 88.684021 289.884399 599.644287 88.686005 289.884399 599.644836 88.674141 289.884399 599.643250 88.686317 289.884399 599.620422 88.668648 289.884399 599.607666 88.693367 289.884399 599.510986 88.655930 289.884399 599.078796 88.628639 289.884399 599.651672 88.677101 289.884399 599.652649 88.677803 289.884399 599.650696 88.683441 289.884399 599.653198 88.678307 289.884399 553.238403 86.141037 289.884399 554.342163 91.280685 289.884399 549.934937 86.349991 289.884399 550.836975 91.063423 289.884399 548.805176 90.943916 289.884399 523.138428 87.954323 289.884399 523.473633 89.426910 289.884399 522.302246 88.007896 289.884399 521.007446 89.273544 289.884399 519.309692 89.174576 289.884399 557.646301 86.152916 289.884399 569.454346 86.868546 289.884399 567.285583 90.618507 289.884399 599.649292 88.675842 289.884399 517.605347 89.074615 289.884399 516.335266 88.999207 289.884399 513.383972 88.812202 289.884399 572.496033 90.312538 289.884399 578.514832 87.409920 289.884399 590.646118 89.218727 289.884399 589.588745 88.079903 289.884399 595.147034 88.409164 289.884399 545.866028 86.588165 289.884399 532.193054 89.950050 289.884399 530.707214 89.861237 289.884399 526.758118 89.621056 289.884399 562.834961 90.888916 289.884399 559.126892 91.109222 289.884399 556.365662 86.079277 289.884399 556.162842 91.288071 289.884399 555.938293 86.065636 289.884399 553.593201 86.118263 289.884399 511.058746 88.684219 289.884399 511.058258 88.684006 289.884399 511.056061 88.682777 289.884399 511.056396 88.676964 289.884399 511.057129 88.676529 289.884399 511.054626 88.681564 289.884399 511.054688 88.681656 289.884399 511.055145 88.682106 289.884399 511.059174 88.675568 289.884399 599.653564 88.678795 289.884399 599.653809 88.680717 289.884399 599.653625 88.681053 289.884399 599.653381 88.681435 289.884399 599.652832 88.681999 289.884399 599.651794 88.682785 289.884399 511.054291 88.681137 289.884399 511.054108 88.679222 289.884399 511.054260 88.678879 289.884399 599.653748 88.679161 289.884399 599.653870 88.679489 289.884399 599.653870 88.680405 289.884399 599.653931 88.679787 289.884399 599.653931 88.680099 289.884399 511.054596 88.678421 289.884399 511.055176 88.677818 289.884399 511.054108 88.680771 289.884399 511.053986 88.680450 289.884399 511.053986 88.679535 289.884399 511.053955 88.680153 289.884399 511.053955 88.679840 289.884399 545.145386 88.674080 230.859406 534.364136 88.632683 250.534409 602.561707 88.598015 250.534409 600.721863 88.675964 280.046906 601.794617 88.676186 270.209412 601.787903 88.673889 270.209412 603.934143 88.674599 250.534409 594.372925 89.254707 250.534409 585.601685 89.779655 250.534409 576.830811 90.308807 250.534409 572.444946 90.567108 250.534409 603.936218 88.684753 250.534409 601.798218 88.678482 270.209412 603.914551 88.670532 250.534409 603.940857 88.682953 250.534500 603.846863 88.662415 250.534409 600.374390 88.465500 250.534409 603.928528 88.686783 250.534409 603.872864 88.694901 250.534409 603.352417 88.727287 250.534409 569.659546 86.620224 250.534409 567.463806 86.651100 250.534409 565.271545 86.792854 250.534409 522.414001 88.681480 270.209412 533.775696 88.677124 250.533981 533.780334 88.675217 250.534409 533.788025 88.673187 250.534409 516.738159 88.683998 280.046906 533.843628 88.665062 250.534409 533.802002 88.689430 250.534409 533.869690 88.697548 250.534409 535.154846 88.761955 250.534409 537.342102 88.894470 250.534409 541.744324 89.155251 250.534409 550.514832 89.685875 250.534409 559.286194 90.207916 250.534409 563.671631 90.473022 250.534409 560.885742 87.051155 250.534409 552.114807 87.580307 250.534409 543.343567 88.105263 250.534409 545.134766 88.682411 230.858612 545.138672 88.675842 230.859406 545.135864 88.677071 230.858505 522.424316 88.686081 270.209412 533.782349 88.685371 250.534409 545.140503 88.684662 230.859406 533.773254 88.681313 250.534409 522.417603 88.683777 270.209412 606.082214 88.684128 230.859406 606.075439 88.685890 230.859406 606.086060 88.677330 230.859558 603.943237 88.678658 250.534409 606.085022 88.683105 230.859589 606.080383 88.675301 230.859406 574.044922 86.886948 250.534409 578.430298 87.152054 250.534409 587.201660 87.674095 250.534409 595.972229 88.204720 250.534409 568.057007 90.739738 250.534409 570.252747 90.708870 250.534409 "
							            />
						</IndexedFaceSet>
					</Shape>
				</Group>
			</Transform>
		</Transform>
	</Scene>
</X3D>