<?xml version="1.0" encoding="UTF-8"?>
<!DOCTYPE X3D PUBLIC "ISO//Web3D//DTD X3D 3.0//EN" "http://www.web3d.org/specifications/x3d-3.0.dtd">
<X3D version="3.0" profile="Immersive" xmlns:xsd="http://www.w3.org/2001/XMLSchema-instance" xsd:noNamespaceSchemaLocation="http://www.web3d.org/specifications/x3d-3.0.xsd">
	<head>
		<meta name="filename" content="OMLV4_Packing - For Xander - WingTank-2.x3d" />
		<meta name="created" content="2026-04-19 20:21:18" />
		<meta name="generator" content="Blender 4.3.2" />
		<meta name="translator" content="Web3D X3D/VRML2 format v2.5.1" />
	</head>
	<Scene>
		<NavigationInfo headlight="true"
		                visibilityLimit="0.0"
		                type='"EXAMINE", "ANY"'
		                avatarSize="0.25, 1.75, 0.75"
		                />
		<Background DEF="WO_World"
		            groundColor="0.051 0.051 0.051"
		            skyColor="0.051 0.051 0.051"
		            />
		<Transform DEF="OMLV4_Packing_-_For_Xander_-_WingTank-2_TRANSFORM"
		           translation="0.000000 0.000000 0.000000"
		           scale="1.000000 1.000000 1.000000"
		           rotation="-1.000000 0.000000 0.000000 1.570796"
		           >
			<Transform DEF="OMLV4_Packing_-_For_Xander_-_WingTank-2_ifs_TRANSFORM"
			           translation="0.000000 0.000000 0.000000"
			           scale="1.000000 1.000000 1.000000"
			           rotation="0.000000 1.000000 0.000000 0.000000"
			           >
				<Group DEF="group_ME_OMLV4_Packing_-_For_Xander_-_WingTank-2">
					<Shape>
						<Appearance>
						</Appearance>
						<IndexedFaceSet solid="false"
						                coordIndex="0 1 2 -1 2 1 3 -1 2 3 4 -1 4 3 5 -1 4 5 6 -1 6 5 7 -1 6 7 8 -1 8 7 9 -1 8 9 10 -1 11 12 13 -1 13 12 14 -1 13 14 15 -1 15 14 16 -1 15 16 17 -1 17 16 18 -1 17 18 19 -1 19 18 20 -1 19 20 21 -1 21 20 10 -1 21 10 22 -1 22 10 9 -1 15 17 23 -1 24 25 26 -1 27 28 29 -1 27 29 30 -1 30 29 31 -1 30 31 32 -1 32 31 33 -1 32 33 34 -1 35 36 37 -1 36 35 38 -1 38 35 39 -1 38 39 26 -1 26 39 24 -1 24 39 40 -1 24 40 1 -1 1 40 3 -1 3 40 41 -1 3 41 5 -1 7 42 9 -1 9 42 22 -1 17 19 23 -1 23 19 21 -1 23 21 43 -1 44 11 13 -1 13 15 44 -1 44 15 23 -1 44 23 45 -1 45 23 43 -1 46 47 43 -1 43 47 48 -1 43 48 45 -1 49 50 51 -1 51 50 52 -1 51 52 46 -1 46 52 53 -1 46 53 47 -1 29 54 31 -1 31 54 55 -1 31 55 33 -1 33 55 56 -1 33 56 49 -1 49 56 57 -1 49 57 50 -1 34 58 37 -1 37 58 59 -1 37 59 35 -1 35 59 60 -1 35 60 39 -1 39 60 61 -1 39 61 40 -1 40 61 42 -1 40 42 41 -1 41 42 7 -1 41 7 5 -1 34 33 58 -1 58 33 49 -1 58 49 59 -1 59 49 51 -1 59 51 60 -1 60 51 46 -1 60 46 61 -1 61 46 43 -1 61 43 42 -1 42 43 21 -1 42 21 22 -1 25 24 62 -1 62 24 1 -1 62 1 63 -1 63 1 0 -1 29 28 54 -1 54 28 64 -1 54 64 55 -1 55 64 65 -1 55 65 56 -1 66 67 68 -1 69 70 71 -1 72 73 74 -1 73 72 75 -1 76 77 78 -1 78 77 79 -1 78 79 80 -1 80 79 81 -1 80 81 82 -1 82 81 83 -1 82 83 84 -1 84 83 85 -1 84 85 86 -1 86 85 87 -1 86 87 88 -1 88 87 89 -1 89 87 74 -1 89 74 90 -1 90 74 73 -1 90 73 91 -1 91 73 75 -1 91 75 92 -1 66 68 93 -1 93 68 94 -1 93 94 95 -1 96 95 97 -1 97 95 94 -1 97 94 98 -1 98 94 99 -1 98 99 100 -1 100 99 101 -1 100 101 102 -1 102 101 103 -1 66 69 67 -1 67 69 71 -1 67 71 68 -1 68 71 104 -1 68 104 94 -1 94 104 105 -1 94 105 99 -1 99 105 106 -1 99 106 101 -1 79 103 81 -1 81 103 101 -1 81 101 83 -1 83 101 106 -1 83 106 85 -1 85 106 105 -1 85 105 87 -1 87 105 104 -1 87 104 74 -1 74 104 71 -1 74 71 72 -1 72 71 70 -1 80 107 78 -1 78 107 108 -1 78 108 76 -1 30 77 27 -1 27 77 76 -1 27 76 108 -1 26 96 38 -1 38 96 97 -1 38 97 36 -1 36 97 98 -1 36 98 37 -1 37 98 100 -1 37 100 34 -1 34 100 102 -1 34 102 32 -1 32 102 103 -1 32 103 30 -1 30 103 79 -1 30 79 77 -1 27 108 28 -1 28 108 107 -1 28 107 64 -1 64 107 80 -1 64 80 65 -1 65 80 82 -1 12 11 92 -1 92 11 44 -1 92 44 91 -1 91 44 45 -1 91 45 90 -1 90 45 48 -1 90 48 89 -1 48 47 89 -1 89 47 53 -1 89 53 88 -1 88 53 52 -1 88 52 86 -1 86 52 50 -1 86 50 84 -1 84 50 57 -1 84 57 82 -1 82 57 56 -1 82 56 65 -1 95 96 26 -1 63 93 62 -1 62 93 95 -1 62 95 25 -1 25 95 26 -1 75 16 92 -1 92 16 14 -1 92 14 12 -1 69 8 70 -1 70 8 10 -1 70 10 72 -1 72 10 20 -1 72 20 75 -1 75 20 18 -1 75 18 16 -1 93 63 0 -1 93 0 66 -1 0 2 66 -1 66 2 4 -1 66 4 69 -1 69 4 6 -1 69 6 8 -1 "
						                >
							<Coordinate DEF="coords_ME_OMLV4_Packing_-_For_Xander_-_WingTank-2"
							            point="386.012329 88.085915 151.900055 386.028809 88.085793 151.900040 374.934113 87.890381 171.088135 372.773193 87.854767 174.888718 369.394928 87.803787 180.682251 366.561066 87.759644 185.657181 363.855774 87.721321 190.276398 359.411926 87.655457 198.048584 358.316589 87.641815 199.870560 357.593597 87.629654 201.200104 352.777405 87.564552 209.464722 308.148468 86.949348 286.884399 308.079102 86.952721 286.884399 313.067261 87.019730 278.361328 316.484070 87.071808 272.326599 317.867462 87.087173 270.043701 324.889038 87.187569 257.768768 328.820984 87.237541 251.063293 333.294006 87.301186 243.210922 336.169220 87.336784 238.329575 341.699005 87.414055 228.653076 345.402863 87.461411 222.327988 352.431000 87.557556 210.147781 331.710266 87.051193 253.571655 393.415894 88.133636 151.890381 393.416351 88.133682 151.884399 393.434784 88.134033 151.884399 383.448669 88.023590 286.884399 383.382477 88.019234 286.884399 383.383026 88.019218 286.877533 385.127930 87.982582 264.182831 383.156738 87.807144 253.538300 386.807190 87.954659 241.481262 374.607117 87.371040 253.541351 388.486450 87.945129 218.779739 387.410797 87.856125 185.228394 391.290375 87.994232 180.874512 390.165710 87.961868 196.078217 392.414978 88.051361 165.670898 380.802429 87.696281 185.233704 374.191101 87.652267 185.240936 367.575409 87.744461 185.248810 354.003906 87.292465 219.406555 340.306976 86.823288 253.564819 314.383881 86.681099 286.884399 322.717163 86.425018 286.884399 348.894684 86.734550 253.557358 331.135590 86.279236 286.884399 326.764801 86.340851 286.884399 366.045441 87.033806 253.545227 344.663910 86.328377 286.884399 357.473877 86.813042 253.550385 339.169250 86.263527 286.884399 336.296997 86.253281 286.884399 374.392181 87.468010 286.879883 364.875824 86.980423 286.882996 361.165344 86.818863 286.884399 352.798492 86.519859 286.884399 384.377655 87.748726 219.382843 376.796906 87.453117 219.386719 369.206696 87.263199 219.391907 361.609436 87.202095 219.398941 387.790039 88.079308 151.884399 386.021393 88.086090 151.884399 373.194458 87.401085 286.884399 363.165070 86.903854 286.884399 371.227661 92.858315 177.507919 367.674530 92.953316 185.034073 374.285248 92.907822 185.029190 362.068726 93.054230 193.371628 352.325012 93.247246 210.248276 354.163208 93.382568 218.989243 341.263580 93.452202 229.407227 331.943451 93.757271 252.948471 340.529480 93.823456 252.944473 330.202118 93.646896 248.566254 383.448822 92.589516 286.882629 385.080811 92.547348 264.820038 383.398285 92.592064 286.882629 385.960114 92.525124 252.933029 365.950684 93.410072 286.884399 374.770874 93.042580 252.929825 364.008026 93.490715 286.884399 366.223328 93.376541 252.931732 352.326721 93.914787 286.884399 357.667297 93.635773 252.934799 348.549377 94.024719 286.884399 349.103668 93.792900 252.939499 339.127960 94.223480 286.884399 330.203064 94.287895 286.884399 328.599487 94.286781 286.884399 318.294403 94.212143 286.884399 308.079102 94.021065 286.884399 386.021393 92.494179 151.884399 380.888855 92.762360 185.024612 392.652588 92.328911 151.884399 393.434784 92.302605 151.884399 392.594543 92.338890 163.243515 391.754272 92.368774 174.602631 387.488861 92.536949 185.021759 390.073792 92.418770 197.320908 384.493073 92.643364 218.975006 388.393311 92.463318 220.039185 386.712799 92.506119 242.757462 361.759308 93.344559 218.984344 369.344849 93.193474 218.979736 376.923035 92.951523 218.976791 380.778656 92.723442 286.884399 383.448669 92.589516 286.884399 "
							            />
						</IndexedFaceSet>
					</Shape>
				</Group>
			</Transform>
		</Transform>
	</Scene>
</X3D>