<?xml version="1.0" encoding="UTF-8"?>
<!DOCTYPE X3D PUBLIC "ISO//Web3D//DTD X3D 3.0//EN" "http://www.web3d.org/specifications/x3d-3.0.dtd">
<X3D version="3.0" profile="Immersive" xmlns:xsd="http://www.w3.org/2001/XMLSchema-instance" xsd:noNamespaceSchemaLocation="http://www.web3d.org/specifications/x3d-3.0.xsd">
	<head>
		<meta name="filename" content="OMLV4_Packing - For Xander - Refuler-1 Bar-1.x3d" />
		<meta name="created" content="2026-04-19 20:21:18" />
		<meta name="generator" content="Blender 4.3.2" />
		<meta name="translator" content="Web3D X3D/VRML2 format v2.5.1" />
	</head>
	<Scene>
		<NavigationInfo headlight="true"
		                visibilityLimit="0.0"
		                type='"EXAMINE", "ANY"'
		                avatarSize="0.25, 1.75, 0.75"
		                />
		<Background DEF="WO_World"
		            groundColor="0.051 0.051 0.051"
		            skyColor="0.051 0.051 0.051"
		            />
		<Transform DEF="OMLV4_Packing_-_For_Xander_-_Refuler-1_Bar-1_TRANSFORM"
		           translation="0.000000 0.000000 0.000000"
		           scale="1.000000 1.000000 1.000000"
		           rotation="-1.000000 0.000000 0.000000 1.570796"
		           >
			<Transform DEF="OMLV4_Packing_-_For_Xander_-_Refuler-1_Bar-1_ifs_TRANSFORM"
			           translation="0.000000 0.000000 0.000000"
			           scale="1.000000 1.000000 1.000000"
			           rotation="0.000000 1.000000 0.000000 0.000000"
			           >
				<Group DEF="group_ME_OMLV4_Packing_-_For_Xander_-_Refuler-1_Bar-1">
					<Shape>
						<Appearance>
						</Appearance>
						<IndexedFaceSet solid="false"
						                coordIndex="0 1 2 -1 2 1 3 -1 4 0 5 -1 5 0 2 -1 6 4 7 -1 7 4 5 -1 1 6 3 -1 3 6 7 -1 8 9 10 -1 11 12 13 -1 10 9 14 -1 15 16 10 -1 16 17 10 -1 10 17 18 -1 10 18 8 -1 1 0 19 -1 20 21 6 -1 22 23 13 -1 23 24 13 -1 13 24 25 -1 13 25 11 -1 14 9 12 -1 12 9 26 -1 12 26 13 -1 27 28 0 -1 0 28 29 -1 0 29 19 -1 19 30 1 -1 1 30 31 -1 1 31 32 -1 21 33 6 -1 6 33 34 -1 6 34 4 -1 34 35 4 -1 4 35 36 -1 4 36 37 -1 32 38 1 -1 1 38 39 -1 1 39 40 -1 37 41 4 -1 4 41 42 -1 4 42 43 -1 44 4 45 -1 45 4 46 -1 47 48 0 -1 49 1 50 -1 50 1 51 -1 52 53 6 -1 43 54 4 -1 4 54 55 -1 4 55 56 -1 48 57 0 -1 0 57 58 -1 0 58 27 -1 40 59 1 -1 1 59 60 -1 1 60 61 -1 46 4 62 -1 62 4 56 -1 62 56 10 -1 10 56 63 -1 10 63 15 -1 51 1 64 -1 64 1 61 -1 64 61 13 -1 13 61 65 -1 13 65 22 -1 49 66 1 -1 1 66 67 -1 1 67 6 -1 6 67 68 -1 6 68 52 -1 69 70 6 -1 6 70 71 -1 6 71 20 -1 44 72 4 -1 4 72 73 -1 4 73 0 -1 0 73 74 -1 0 74 75 -1 75 76 0 -1 0 76 77 -1 0 77 47 -1 53 78 6 -1 6 78 79 -1 6 79 69 -1 80 81 5 -1 82 83 3 -1 83 84 3 -1 3 84 85 -1 3 85 2 -1 86 87 88 -1 5 81 7 -1 81 89 7 -1 7 89 90 -1 7 90 91 -1 92 93 94 -1 94 93 95 -1 94 95 96 -1 97 98 5 -1 98 99 5 -1 5 99 100 -1 5 100 80 -1 101 102 3 -1 3 102 103 -1 3 103 104 -1 105 106 104 -1 104 106 107 -1 104 107 108 -1 85 109 2 -1 2 109 110 -1 2 110 111 -1 86 88 96 -1 96 88 112 -1 96 112 94 -1 105 104 87 -1 87 104 113 -1 87 113 88 -1 114 2 115 -1 115 2 94 -1 116 117 3 -1 3 117 118 -1 3 118 82 -1 111 119 2 -1 2 119 120 -1 2 120 121 -1 91 122 7 -1 7 122 123 -1 7 123 124 -1 125 126 3 -1 121 127 2 -1 2 127 128 -1 2 128 129 -1 114 130 2 -1 2 130 131 -1 2 131 5 -1 5 131 132 -1 124 133 7 -1 7 133 134 -1 7 134 135 -1 135 136 7 -1 7 136 137 -1 7 137 3 -1 3 137 138 -1 3 138 101 -1 126 139 3 -1 3 139 140 -1 3 140 116 -1 132 141 5 -1 5 141 142 -1 5 142 143 -1 108 144 104 -1 104 144 145 -1 104 145 3 -1 3 145 146 -1 3 146 125 -1 143 147 5 -1 5 147 148 -1 5 148 97 -1 129 149 2 -1 2 149 150 -1 2 150 94 -1 94 150 151 -1 94 151 92 -1 19 85 30 -1 30 85 84 -1 30 84 31 -1 31 84 83 -1 31 83 32 -1 32 83 82 -1 32 82 38 -1 38 82 118 -1 38 118 39 -1 39 118 117 -1 39 117 40 -1 40 117 116 -1 40 116 59 -1 59 116 140 -1 59 140 60 -1 60 140 139 -1 60 139 61 -1 61 139 126 -1 61 126 65 -1 65 126 125 -1 65 125 22 -1 22 125 146 -1 22 146 23 -1 23 146 145 -1 23 145 24 -1 24 145 144 -1 24 144 25 -1 25 144 108 -1 25 108 11 -1 11 108 107 -1 11 107 12 -1 12 107 106 -1 12 106 14 -1 14 106 105 -1 14 105 10 -1 10 105 87 -1 10 87 62 -1 62 87 86 -1 62 86 46 -1 46 86 96 -1 46 96 45 -1 45 96 95 -1 45 95 44 -1 44 95 93 -1 44 93 72 -1 72 93 92 -1 72 92 73 -1 73 92 151 -1 73 151 74 -1 74 151 150 -1 74 150 75 -1 75 150 149 -1 75 149 76 -1 76 149 129 -1 76 129 77 -1 77 129 128 -1 77 128 47 -1 47 128 127 -1 47 127 48 -1 48 127 121 -1 48 121 57 -1 57 121 120 -1 57 120 58 -1 58 120 119 -1 58 119 27 -1 27 119 111 -1 27 111 28 -1 28 111 110 -1 28 110 29 -1 29 110 109 -1 29 109 19 -1 19 109 85 -1 13 88 64 -1 64 88 113 -1 64 113 51 -1 51 113 104 -1 51 104 50 -1 50 104 103 -1 50 103 49 -1 49 103 102 -1 49 102 66 -1 66 102 101 -1 66 101 67 -1 67 101 138 -1 67 138 68 -1 68 138 137 -1 68 137 52 -1 52 137 136 -1 52 136 53 -1 53 136 135 -1 53 135 78 -1 78 135 134 -1 78 134 79 -1 79 134 133 -1 79 133 69 -1 69 133 124 -1 69 124 70 -1 70 124 123 -1 70 123 71 -1 71 123 122 -1 71 122 20 -1 20 122 91 -1 20 91 21 -1 21 91 90 -1 21 90 33 -1 33 90 89 -1 33 89 34 -1 34 89 81 -1 34 81 35 -1 35 81 80 -1 35 80 36 -1 36 80 100 -1 36 100 37 -1 37 100 99 -1 37 99 41 -1 41 99 98 -1 41 98 42 -1 42 98 97 -1 42 97 43 -1 43 97 148 -1 43 148 54 -1 54 148 147 -1 54 147 55 -1 55 147 143 -1 55 143 56 -1 56 143 142 -1 56 142 63 -1 63 142 141 -1 63 141 15 -1 15 141 132 -1 15 132 16 -1 16 132 131 -1 16 131 17 -1 17 131 130 -1 17 130 18 -1 18 130 114 -1 18 114 8 -1 8 114 115 -1 8 115 9 -1 9 115 94 -1 9 94 26 -1 26 94 112 -1 26 112 13 -1 13 112 88 -1 "
						                >
							<Coordinate DEF="coords_ME_OMLV4_Packing_-_For_Xander_-_Refuler-1_Bar-1"
							            point="134.781082 90.132538 342.293213 135.018326 90.003242 340.311554 134.790268 90.930855 342.242218 135.027512 90.801559 340.260559 109.172112 90.230927 339.220886 109.181297 91.029243 339.169922 109.409355 90.101631 337.239227 109.418541 90.899948 337.188232 110.405251 90.174835 338.564789 110.442001 90.170639 338.505676 133.708267 90.072464 341.159424 133.785202 90.059334 340.967651 133.748444 90.063530 341.026764 110.482178 90.161697 338.372986 133.722534 90.067955 341.091339 110.176277 90.187004 338.714081 110.242516 90.184860 338.692413 110.303963 90.182053 338.659576 110.358765 90.178680 338.616608 134.502563 90.069412 341.254730 109.764816 90.151619 338.085938 109.728058 90.155815 338.145020 134.014160 90.047165 340.818359 133.947922 90.049309 340.840027 133.886475 90.052109 340.872833 133.831680 90.055489 340.915833 110.467911 90.166214 338.441101 134.425629 90.082550 341.446503 134.462387 90.078354 341.387421 134.488281 90.073929 341.322815 134.504761 90.064949 341.185181 134.494843 90.060661 341.116302 134.473083 90.056686 341.050171 109.702156 90.160240 338.209625 109.687881 90.164749 338.277710 109.685677 90.169220 338.347260 109.695602 90.173500 338.416138 109.717361 90.177475 338.482269 134.440140 90.053146 340.988831 134.397049 90.050148 340.934113 134.345078 90.047783 340.887665 109.750298 90.181015 338.543610 109.793396 90.184013 338.598328 109.845367 90.186386 338.644775 133.770676 90.088730 341.425354 133.737747 90.085190 341.363983 133.715988 90.081215 341.297852 134.196655 90.094719 341.595825 134.262894 90.092575 341.574127 110.419762 90.145432 338.107086 110.452698 90.148972 338.168457 110.474457 90.152946 338.234589 110.200722 90.137497 337.943329 110.132477 90.137367 337.929016 109.904610 90.188049 338.681488 109.969337 90.188957 338.707397 110.037582 90.189087 338.721680 134.324341 90.089767 341.541321 134.379150 90.086395 341.498352 134.285828 90.046120 340.850952 134.221100 90.045212 340.825043 134.152863 90.045082 340.810760 133.706055 90.076935 341.228973 110.107269 90.188423 338.723938 110.484383 90.157234 338.303467 134.083176 90.045738 340.808502 110.376663 90.142433 338.052368 110.324699 90.140068 338.005951 110.265450 90.138405 337.969208 109.927551 90.141594 337.958282 109.866096 90.144394 337.991119 109.811295 90.147774 338.034088 133.813782 90.091728 341.480072 133.865738 90.094101 341.526489 133.924988 90.095764 341.563232 133.989716 90.096672 341.589111 134.057968 90.096802 341.603424 134.127655 90.096138 341.605682 110.062798 90.138023 337.926758 109.993782 90.139450 337.936615 109.694862 90.967537 338.296265 109.697067 90.963074 338.226715 134.482254 90.855011 340.999207 134.504028 90.858986 341.065308 134.513947 90.863266 341.134186 134.511749 90.867737 341.203735 133.715240 90.875252 341.178009 133.717453 90.870789 341.108459 110.491364 90.960022 338.322021 109.711342 90.958557 338.158630 109.737244 90.954132 338.094055 109.773994 90.949936 338.034943 133.822968 90.890053 341.429077 133.779861 90.887054 341.374359 110.451187 90.968956 338.454681 133.746933 90.883514 341.312988 133.725174 90.879539 341.246887 109.802582 90.982338 338.547363 109.759483 90.979340 338.492615 109.726547 90.975800 338.431274 109.704788 90.971825 338.365143 110.385849 90.940758 338.001373 110.428947 90.943756 338.056122 110.461884 90.947296 338.117462 110.483643 90.951271 338.183594 133.731720 90.866272 341.040344 133.757629 90.861847 340.975769 133.794373 90.857651 340.916656 133.840866 90.853806 340.864838 134.497467 90.872246 341.271851 134.471558 90.876671 341.336426 134.434814 90.880867 341.395538 110.477089 90.964531 338.390106 110.493568 90.955551 338.252472 110.367950 90.976997 338.565613 110.414429 90.973152 338.513794 134.354263 90.846107 340.836670 134.406219 90.848473 340.883118 134.449326 90.851471 340.937836 134.388336 90.884712 341.447357 134.333527 90.888092 341.490326 134.272079 90.890892 341.523163 109.820480 90.946091 337.983124 109.875282 90.942719 337.940125 109.936729 90.939911 337.907318 134.092361 90.844063 340.757507 134.162048 90.843399 340.759766 134.205841 90.893036 341.544830 134.136826 90.894463 341.554688 134.067154 90.895119 341.552429 110.313148 90.980377 338.608612 110.251701 90.983177 338.641418 110.185463 90.985321 338.663086 110.002968 90.937767 337.885651 110.071976 90.936348 337.875793 110.141663 90.935684 337.878021 110.209908 90.935814 337.892334 110.274635 90.936722 337.918243 110.333885 90.938385 337.954956 134.230286 90.843529 340.774048 134.295013 90.844437 340.799957 110.116447 90.986748 338.672943 110.046768 90.987404 338.670715 109.978523 90.987274 338.656403 133.895660 90.850433 340.821869 133.957108 90.847633 340.789032 134.023346 90.845482 340.767365 109.913795 90.986366 338.630493 109.854546 90.984703 338.593781 133.998901 90.894989 341.538147 133.934174 90.894081 341.512238 133.874924 90.892418 341.475494 "
							            />
						</IndexedFaceSet>
					</Shape>
				</Group>
			</Transform>
		</Transform>
	</Scene>
</X3D>