<?xml version="1.0" encoding="UTF-8"?>
<!DOCTYPE X3D PUBLIC "ISO//Web3D//DTD X3D 3.0//EN" "http://www.web3d.org/specifications/x3d-3.0.dtd">
<X3D version="3.0" profile="Immersive" xmlns:xsd="http://www.w3.org/2001/XMLSchema-instance" xsd:noNamespaceSchemaLocation="http://www.web3d.org/specifications/x3d-3.0.xsd">
	<head>
		<meta name="filename" content="OMLV4_Packing - For Xander - AIM-120_LAU176_Pylon_Assy-5 AIM-120D AMRAAM-1.x3d" />
		<meta name="created" content="2026-04-19 20:21:16" />
		<meta name="generator" content="Blender 4.3.2" />
		<meta name="translator" content="Web3D X3D/VRML2 format v2.5.1" />
	</head>
	<Scene>
		<NavigationInfo headlight="true"
		                visibilityLimit="0.0"
		                type='"EXAMINE", "ANY"'
		                avatarSize="0.25, 1.75, 0.75"
		                />
		<Background DEF="WO_World"
		            groundColor="0.051 0.051 0.051"
		            skyColor="0.051 0.051 0.051"
		            />
		<Transform DEF="OMLV4_Packing_-_For_Xander_-_AIM-120_LAU176_Pylon_Assy-5_AIM-12_TRANSFORM"
		           translation="0.000000 0.000000 0.000000"
		           scale="1.000000 1.000000 1.000000"
		           rotation="-1.000000 0.000000 0.000000 1.570796"
		           >
			<Transform DEF="OMLV4_Packing_-_For_Xander_-_AIM-120_LAU176_Pylon_Assy-5_AIM-12_ifs_TRANSFORM"
			           translation="0.000000 0.000000 0.000000"
			           scale="1.000000 1.000000 1.000000"
			           rotation="0.000000 1.000000 0.000000 0.000000"
			           >
				<Group DEF="group_ME_OMLV4_Packing_-_For_Xander_-_AIM-120_LAU176_Pylon_Assy-5_AIM-12">
					<Shape>
						<Appearance>
						</Appearance>
						<IndexedFaceSet solid="false"
						                coordIndex="0 1 2 -1 3 4 5 -1 6 7 8 -1 9 10 11 -1 12 13 14 -1 12 14 15 -1 16 17 18 -1 18 17 19 -1 18 19 20 -1 20 19 21 -1 20 21 22 -1 15 14 23 -1 23 14 24 -1 23 24 22 -1 22 24 9 -1 22 9 20 -1 25 26 27 -1 28 29 30 -1 27 26 30 -1 30 26 31 -1 30 31 28 -1 32 33 34 -1 34 33 35 -1 34 35 36 -1 36 35 37 -1 36 37 25 -1 38 39 40 -1 38 40 41 -1 42 43 44 -1 44 43 45 -1 44 45 46 -1 46 45 47 -1 46 47 48 -1 41 40 49 -1 49 40 50 -1 49 50 48 -1 48 50 3 -1 48 3 46 -1 51 52 53 -1 54 55 56 -1 53 52 56 -1 56 52 57 -1 56 57 54 -1 58 59 60 -1 60 59 61 -1 60 61 62 -1 62 61 63 -1 62 63 51 -1 9 11 20 -1 20 11 64 -1 20 64 65 -1 65 64 66 -1 65 66 67 -1 67 66 68 -1 67 68 69 -1 69 68 70 -1 69 70 71 -1 71 70 72 -1 71 72 73 -1 73 72 74 -1 73 74 75 -1 75 74 38 -1 75 38 42 -1 42 38 41 -1 42 41 43 -1 27 6 25 -1 25 6 8 -1 25 8 36 -1 36 8 76 -1 36 76 77 -1 77 76 78 -1 77 78 79 -1 79 78 80 -1 79 80 81 -1 81 80 82 -1 81 82 83 -1 83 82 84 -1 83 84 85 -1 85 84 86 -1 85 86 87 -1 87 86 12 -1 87 12 16 -1 16 12 15 -1 16 15 17 -1 53 0 51 -1 51 0 2 -1 51 2 62 -1 62 2 88 -1 62 88 89 -1 89 88 90 -1 89 90 91 -1 91 90 92 -1 91 92 93 -1 93 92 94 -1 93 94 95 -1 95 94 96 -1 95 96 97 -1 97 96 98 -1 97 98 99 -1 99 98 28 -1 99 28 32 -1 32 28 31 -1 32 31 33 -1 3 5 46 -1 46 5 100 -1 46 100 101 -1 101 100 102 -1 101 102 103 -1 103 102 104 -1 103 104 105 -1 105 104 106 -1 105 106 107 -1 107 106 108 -1 107 108 109 -1 109 108 110 -1 109 110 111 -1 111 110 54 -1 111 54 58 -1 58 54 57 -1 58 57 59 -1 112 113 114 -1 115 113 112 -1 112 116 117 -1 118 116 112 -1 114 118 112 -1 112 119 120 -1 121 119 112 -1 117 121 112 -1 112 122 123 -1 124 122 112 -1 120 124 112 -1 112 125 126 -1 127 125 112 -1 123 127 112 -1 112 128 129 -1 130 128 112 -1 126 130 112 -1 112 131 132 -1 133 131 112 -1 129 133 112 -1 112 134 135 -1 136 134 112 -1 132 136 112 -1 112 137 138 -1 139 137 112 -1 135 139 112 -1 112 140 141 -1 142 140 112 -1 138 142 112 -1 112 143 144 -1 145 143 112 -1 141 145 112 -1 112 146 147 -1 148 146 112 -1 144 148 112 -1 147 115 112 -1 149 62 150 -1 150 62 89 -1 150 89 151 -1 151 89 91 -1 151 91 152 -1 152 91 93 -1 152 93 153 -1 153 93 95 -1 153 95 154 -1 154 95 97 -1 154 97 155 -1 155 97 99 -1 155 99 156 -1 156 99 32 -1 156 32 157 -1 157 32 34 -1 157 34 158 -1 158 34 36 -1 158 36 159 -1 159 36 77 -1 159 77 160 -1 160 77 79 -1 160 79 161 -1 161 79 81 -1 161 81 162 -1 162 81 83 -1 162 83 163 -1 163 83 85 -1 163 85 164 -1 164 85 87 -1 164 87 165 -1 165 87 16 -1 165 16 166 -1 166 16 18 -1 166 18 167 -1 167 18 20 -1 167 20 168 -1 168 20 65 -1 168 65 169 -1 169 65 67 -1 169 67 170 -1 170 67 69 -1 170 69 171 -1 171 69 71 -1 171 71 172 -1 172 71 73 -1 172 73 173 -1 173 73 75 -1 173 75 174 -1 174 75 42 -1 174 42 175 -1 175 42 44 -1 175 44 176 -1 176 44 46 -1 176 46 177 -1 177 46 101 -1 177 101 178 -1 178 101 103 -1 178 103 179 -1 179 103 105 -1 179 105 180 -1 180 105 107 -1 180 107 181 -1 181 107 109 -1 181 109 182 -1 182 109 111 -1 182 111 183 -1 183 111 58 -1 183 58 184 -1 184 58 60 -1 184 60 149 -1 149 60 62 -1 149 185 184 -1 184 185 186 -1 184 186 183 -1 183 186 187 -1 183 187 182 -1 182 187 188 -1 182 188 181 -1 181 188 189 -1 181 189 180 -1 180 189 190 -1 180 190 179 -1 179 190 191 -1 179 191 178 -1 178 191 192 -1 178 192 177 -1 177 192 193 -1 177 193 176 -1 176 193 194 -1 176 194 175 -1 175 194 195 -1 175 195 174 -1 174 195 196 -1 174 196 173 -1 173 196 197 -1 173 197 172 -1 172 197 198 -1 172 198 171 -1 171 198 199 -1 171 199 170 -1 170 199 200 -1 170 200 169 -1 169 200 201 -1 169 201 168 -1 168 201 202 -1 168 202 167 -1 167 202 203 -1 167 203 166 -1 166 203 204 -1 166 204 165 -1 165 204 205 -1 165 205 164 -1 164 205 206 -1 164 206 163 -1 163 206 207 -1 163 207 162 -1 162 207 208 -1 162 208 161 -1 161 208 209 -1 161 209 160 -1 160 209 210 -1 160 210 159 -1 159 210 211 -1 159 211 158 -1 158 211 212 -1 158 212 157 -1 157 212 213 -1 157 213 156 -1 156 213 214 -1 156 214 155 -1 155 214 215 -1 155 215 154 -1 154 215 216 -1 154 216 153 -1 153 216 217 -1 153 217 152 -1 152 217 218 -1 152 218 151 -1 151 218 219 -1 151 219 150 -1 150 219 220 -1 150 220 149 -1 149 220 185 -1 220 221 185 -1 185 221 222 -1 185 222 186 -1 186 222 223 -1 186 223 187 -1 187 223 224 -1 187 224 188 -1 188 224 225 -1 188 225 189 -1 189 225 226 -1 189 226 190 -1 190 226 227 -1 190 227 191 -1 191 227 228 -1 191 228 192 -1 192 228 229 -1 192 229 193 -1 193 229 230 -1 193 230 194 -1 194 230 231 -1 194 231 195 -1 195 231 232 -1 195 232 196 -1 196 232 233 -1 196 233 197 -1 197 233 234 -1 197 234 198 -1 198 234 235 -1 198 235 199 -1 199 235 236 -1 199 236 200 -1 200 236 237 -1 200 237 201 -1 201 237 238 -1 201 238 202 -1 202 238 239 -1 202 239 203 -1 203 239 240 -1 203 240 204 -1 204 240 241 -1 204 241 205 -1 205 241 242 -1 205 242 206 -1 206 242 243 -1 206 243 207 -1 207 243 244 -1 207 244 208 -1 208 244 245 -1 208 245 209 -1 209 245 246 -1 209 246 210 -1 210 246 247 -1 210 247 211 -1 211 247 248 -1 211 248 212 -1 212 248 249 -1 212 249 213 -1 213 249 250 -1 213 250 214 -1 214 250 251 -1 214 251 215 -1 215 251 252 -1 215 252 216 -1 216 252 253 -1 216 253 217 -1 217 253 254 -1 217 254 218 -1 218 254 255 -1 218 255 219 -1 219 255 256 -1 219 256 220 -1 220 256 221 -1 256 257 221 -1 221 257 258 -1 221 258 222 -1 222 258 259 -1 222 259 223 -1 223 259 260 -1 223 260 224 -1 224 260 261 -1 224 261 225 -1 225 261 262 -1 225 262 226 -1 226 262 263 -1 226 263 227 -1 227 263 264 -1 227 264 228 -1 228 264 265 -1 228 265 229 -1 229 265 266 -1 229 266 230 -1 230 266 267 -1 230 267 231 -1 231 267 268 -1 231 268 232 -1 232 268 269 -1 232 269 233 -1 233 269 270 -1 233 270 234 -1 234 270 271 -1 234 271 235 -1 235 271 272 -1 235 272 236 -1 236 272 273 -1 236 273 237 -1 237 273 274 -1 237 274 238 -1 238 274 275 -1 238 275 239 -1 239 275 276 -1 239 276 240 -1 240 276 277 -1 240 277 241 -1 241 277 278 -1 241 278 242 -1 242 278 279 -1 242 279 243 -1 243 279 280 -1 243 280 244 -1 244 280 281 -1 244 281 245 -1 245 281 282 -1 245 282 246 -1 246 282 283 -1 246 283 247 -1 247 283 284 -1 247 284 248 -1 248 284 285 -1 248 285 249 -1 249 285 286 -1 249 286 250 -1 250 286 287 -1 250 287 251 -1 251 287 288 -1 251 288 252 -1 252 288 289 -1 252 289 253 -1 253 289 290 -1 253 290 254 -1 254 290 291 -1 254 291 255 -1 255 291 292 -1 255 292 256 -1 256 292 257 -1 292 293 257 -1 257 293 294 -1 257 294 258 -1 258 294 295 -1 258 295 259 -1 259 295 296 -1 259 296 260 -1 260 296 297 -1 260 297 261 -1 261 297 298 -1 261 298 262 -1 262 298 299 -1 262 299 263 -1 263 299 300 -1 263 300 264 -1 264 300 301 -1 264 301 265 -1 265 301 302 -1 265 302 266 -1 266 302 303 -1 266 303 267 -1 267 303 304 -1 267 304 268 -1 268 304 305 -1 268 305 269 -1 269 305 306 -1 269 306 270 -1 270 306 307 -1 270 307 271 -1 271 307 308 -1 271 308 272 -1 272 308 309 -1 272 309 273 -1 273 309 310 -1 273 310 274 -1 274 310 311 -1 274 311 275 -1 275 311 312 -1 275 312 276 -1 276 312 313 -1 276 313 277 -1 277 313 314 -1 277 314 278 -1 278 314 315 -1 278 315 279 -1 279 315 316 -1 279 316 280 -1 280 316 317 -1 280 317 281 -1 281 317 318 -1 281 318 282 -1 282 318 319 -1 282 319 283 -1 283 319 320 -1 283 320 284 -1 284 320 321 -1 284 321 285 -1 285 321 322 -1 285 322 286 -1 286 322 323 -1 286 323 287 -1 287 323 324 -1 287 324 288 -1 288 324 325 -1 288 325 289 -1 289 325 326 -1 289 326 290 -1 290 326 327 -1 290 327 291 -1 291 327 328 -1 291 328 292 -1 292 328 293 -1 328 115 293 -1 293 115 147 -1 293 147 294 -1 294 147 146 -1 294 146 295 -1 295 146 148 -1 295 148 296 -1 296 148 144 -1 296 144 297 -1 297 144 143 -1 297 143 298 -1 298 143 145 -1 298 145 299 -1 299 145 141 -1 299 141 300 -1 300 141 140 -1 300 140 301 -1 301 140 142 -1 301 142 302 -1 302 142 138 -1 302 138 303 -1 303 138 137 -1 303 137 304 -1 304 137 139 -1 304 139 305 -1 305 139 135 -1 305 135 306 -1 306 135 134 -1 306 134 307 -1 307 134 136 -1 307 136 308 -1 308 136 132 -1 308 132 309 -1 309 132 131 -1 309 131 310 -1 310 131 133 -1 310 133 311 -1 311 133 129 -1 311 129 312 -1 312 129 128 -1 312 128 313 -1 313 128 130 -1 313 130 314 -1 314 130 126 -1 314 126 315 -1 315 126 125 -1 315 125 316 -1 316 125 127 -1 316 127 317 -1 317 127 123 -1 317 123 318 -1 318 123 122 -1 318 122 319 -1 319 122 124 -1 319 124 320 -1 320 124 120 -1 320 120 321 -1 321 120 119 -1 321 119 322 -1 322 119 121 -1 322 121 323 -1 323 121 117 -1 323 117 324 -1 324 117 116 -1 324 116 325 -1 325 116 118 -1 325 118 326 -1 326 118 114 -1 326 114 327 -1 327 114 113 -1 327 113 328 -1 328 113 115 -1 11 10 29 -1 7 13 12 -1 329 330 10 -1 10 330 13 -1 10 13 29 -1 29 13 7 -1 29 7 331 -1 331 7 332 -1 333 334 1 -1 1 334 55 -1 335 336 4 -1 4 336 39 -1 12 86 84 -1 55 29 1 -1 1 29 28 -1 1 28 2 -1 2 28 88 -1 84 82 12 -1 12 82 80 -1 12 80 78 -1 78 76 12 -1 12 76 8 -1 12 8 7 -1 96 94 92 -1 100 5 54 -1 54 5 4 -1 54 4 55 -1 55 4 39 -1 55 39 29 -1 29 39 38 -1 29 38 74 -1 96 92 98 -1 108 106 104 -1 68 66 29 -1 29 66 64 -1 29 64 11 -1 98 92 28 -1 28 92 90 -1 28 90 88 -1 108 104 110 -1 74 72 29 -1 29 72 70 -1 29 70 68 -1 110 104 54 -1 54 104 102 -1 54 102 100 -1 47 45 337 -1 338 43 339 -1 339 43 41 -1 339 41 340 -1 341 48 342 -1 342 48 47 -1 342 47 337 -1 45 43 338 -1 340 41 341 -1 341 41 49 -1 341 49 48 -1 339 340 342 -1 342 340 341 -1 338 339 45 -1 45 339 342 -1 45 342 337 -1 9 24 343 -1 330 344 345 -1 14 13 346 -1 346 13 330 -1 346 330 347 -1 347 330 345 -1 348 349 350 -1 350 349 329 -1 350 329 343 -1 343 329 10 -1 343 10 9 -1 344 330 349 -1 349 330 329 -1 345 344 348 -1 348 344 349 -1 347 345 350 -1 350 345 348 -1 346 347 24 -1 24 347 350 -1 24 350 343 -1 24 14 346 -1 27 30 351 -1 331 352 353 -1 30 29 351 -1 351 29 331 -1 351 331 354 -1 354 331 353 -1 355 356 357 -1 357 356 332 -1 357 332 358 -1 358 332 7 -1 358 7 6 -1 352 331 356 -1 356 331 332 -1 353 352 355 -1 355 352 356 -1 354 353 357 -1 357 353 355 -1 351 354 27 -1 27 354 357 -1 27 357 358 -1 6 27 358 -1 3 50 359 -1 336 360 361 -1 40 39 362 -1 362 39 336 -1 362 336 363 -1 363 336 361 -1 364 365 366 -1 366 365 335 -1 366 335 359 -1 359 335 4 -1 359 4 3 -1 360 336 365 -1 365 336 335 -1 361 360 364 -1 364 360 365 -1 363 361 366 -1 366 361 364 -1 362 363 50 -1 50 363 366 -1 50 366 359 -1 50 40 362 -1 63 61 367 -1 368 59 369 -1 369 59 57 -1 369 57 370 -1 371 51 372 -1 372 51 63 -1 372 63 367 -1 61 59 368 -1 51 371 52 -1 52 371 370 -1 52 370 57 -1 369 370 372 -1 372 370 371 -1 368 369 61 -1 61 369 372 -1 61 372 367 -1 35 33 373 -1 373 33 374 -1 374 33 31 -1 374 31 375 -1 376 25 377 -1 377 25 37 -1 377 37 378 -1 37 35 378 -1 375 31 376 -1 376 31 26 -1 376 26 25 -1 374 375 377 -1 377 375 376 -1 373 374 35 -1 35 374 377 -1 35 377 378 -1 21 19 379 -1 380 17 381 -1 381 17 15 -1 381 15 382 -1 383 22 384 -1 384 22 21 -1 384 21 379 -1 19 17 380 -1 382 15 383 -1 383 15 23 -1 383 23 22 -1 381 382 384 -1 384 382 383 -1 380 381 19 -1 19 381 384 -1 19 384 379 -1 0 53 385 -1 334 386 387 -1 56 55 388 -1 388 55 334 -1 388 334 389 -1 389 334 387 -1 390 391 392 -1 392 391 333 -1 392 333 385 -1 385 333 1 -1 385 1 0 -1 386 334 391 -1 391 334 333 -1 387 386 390 -1 390 386 391 -1 389 387 392 -1 392 387 390 -1 388 389 53 -1 53 389 392 -1 53 392 385 -1 53 56 388 -1 "
						                >
							<Coordinate DEF="coords_ME_OMLV4_Packing_-_For_Xander_-_AIM-120_LAU176_Pylon_Assy-5_AIM-12"
							            point="423.428009 80.534676 521.769165 436.339966 80.534676 521.769165 436.339966 80.855133 521.376099 423.428009 75.625977 521.908386 436.339966 75.625977 521.908386 436.339966 76.019066 522.228821 423.428009 80.395485 516.860474 436.339966 80.395485 516.860474 436.339966 80.002403 516.540039 423.428009 75.486786 516.999634 436.339966 75.486786 516.999634 436.339966 75.166336 517.392761 436.339966 76.019066 516.540039 436.339966 75.625977 516.860474 423.428009 75.625977 516.860474 371.011261 75.625977 516.860474 306.480103 76.019066 516.540039 357.701904 75.625977 516.860474 306.480103 75.555397 516.929077 357.701904 75.555397 516.929077 306.480103 75.166336 517.392761 357.701904 75.486786 516.999634 371.011261 75.486786 516.999634 371.011261 75.555397 516.929077 423.428009 75.555397 516.929077 371.011261 80.395485 516.860474 371.011261 80.466064 516.929077 423.428009 80.466064 516.929077 436.339966 80.855133 517.392761 436.339966 80.534676 516.999634 423.428009 80.534676 516.999634 371.011261 80.534676 516.999634 306.480103 80.855133 517.392761 357.701904 80.534676 516.999634 306.480103 80.466064 516.929077 357.701904 80.466064 516.929077 306.480103 80.002403 516.540039 357.701904 80.395485 516.860474 436.339966 75.166336 521.376099 436.339966 75.486786 521.769165 423.428009 75.486786 521.769165 371.011261 75.486786 521.769165 306.480103 75.166336 521.376099 357.701904 75.486786 521.769165 306.480103 75.555397 521.839722 357.701904 75.555397 521.839722 306.480103 76.019066 522.228821 357.701904 75.625977 521.908386 371.011261 75.625977 521.908386 371.011261 75.555397 521.839722 423.428009 75.555397 521.839722 371.011261 80.534676 521.769165 371.011261 80.466064 521.839722 423.428009 80.466064 521.839722 436.339966 80.002403 522.228821 436.339966 80.395485 521.908386 423.428009 80.395485 521.908386 371.011261 80.395485 521.908386 306.480103 80.002403 522.228821 357.701904 80.395485 521.908386 306.480103 80.466064 521.839722 357.701904 80.466064 521.839722 306.480103 80.855133 521.376099 357.701904 80.534676 521.769165 436.339966 74.863693 517.916931 306.480103 74.863693 517.916931 436.339966 74.656685 518.485718 306.480103 74.656685 518.485718 436.339966 74.551575 519.081787 306.480103 74.551575 519.081787 436.339966 74.551575 519.687073 306.480103 74.551575 519.687073 436.339966 74.656685 520.283142 306.480103 74.656685 520.283142 436.339966 74.863693 520.851868 306.480103 74.863693 520.851868 436.339966 79.478218 516.237366 306.480103 79.478218 516.237366 436.339966 78.909447 516.030334 306.480103 78.909447 516.030334 436.339966 78.313370 515.925232 306.480103 78.313370 515.925232 436.339966 77.708092 515.925232 306.480103 77.708092 515.925232 436.339966 77.112015 516.030334 306.480103 77.112015 516.030334 436.339966 76.543243 516.237366 306.480103 76.543243 516.237366 436.339966 81.157768 520.851868 306.480103 81.157768 520.851868 436.339966 81.364784 520.283142 306.480103 81.364784 520.283142 436.339966 81.469887 519.687073 306.480103 81.469887 519.687073 436.339966 81.469887 519.081787 306.480103 81.469887 519.081787 436.339966 81.364784 518.485718 306.480103 81.364784 518.485718 436.339966 81.157768 517.916931 306.480103 81.157768 517.916931 436.339966 76.543243 522.531433 306.480103 76.543243 522.531433 436.339966 77.112015 522.738464 306.480103 77.112015 522.738464 436.339966 77.708092 522.843567 306.480103 77.708092 522.843567 436.339966 78.313370 522.843567 306.480103 78.313370 522.843567 436.339966 78.909447 522.738464 306.480103 78.909447 522.738464 436.339966 79.478218 522.531433 306.480103 79.478218 522.531433 292.334412 78.010735 519.384399 292.960754 78.318428 519.599854 292.960754 78.351166 519.543152 292.960754 78.276337 519.650024 292.960754 78.384926 519.417175 292.960754 78.384926 519.351685 292.960754 78.373558 519.481628 292.960754 78.351166 519.225647 292.960754 78.318428 519.168945 292.960754 78.373558 519.287170 292.960754 78.226181 519.076721 292.960754 78.169479 519.044006 292.960754 78.276337 519.118774 292.960754 78.043472 519.010193 292.960754 77.977997 519.010193 292.960754 78.107948 519.021606 292.960754 77.851982 519.044006 292.960754 77.795280 519.076721 292.960754 77.913513 519.021606 292.960754 77.703041 519.168945 292.960754 77.670296 519.225647 292.960754 77.745125 519.118774 292.960754 77.636536 519.351685 292.960754 77.636536 519.417175 292.960754 77.647903 519.287170 292.960754 77.670296 519.543152 292.960754 77.703041 519.599854 292.960754 77.647903 519.481628 292.960754 77.795280 519.692078 292.960754 77.851982 519.724854 292.960754 77.745125 519.650024 292.960754 77.977997 519.758606 292.960754 78.043472 519.758606 292.960754 77.913513 519.747253 292.960754 78.169479 519.724854 292.960754 78.226181 519.692078 292.960754 78.107948 519.747253 304.296722 80.775375 521.320251 304.296722 81.069527 520.810730 304.296722 81.270744 520.257935 304.296722 81.372902 519.678589 304.296722 81.372902 519.090271 304.296722 81.270744 518.510864 304.296722 81.069527 517.958069 304.296722 80.775375 517.448608 304.296722 80.397224 516.997925 304.296722 79.946556 516.619751 304.296722 79.437073 516.325623 304.296722 78.884247 516.124390 304.296722 78.304886 516.022217 304.296722 77.716583 516.022217 304.296722 77.137215 516.124390 304.296722 76.584389 516.325623 304.296722 76.074905 516.619751 304.296722 75.624237 516.997925 304.296722 75.246086 517.448608 304.296722 74.951935 517.958069 304.296722 74.750725 518.510864 304.296722 74.648567 519.090271 304.296722 74.648567 519.678589 304.296722 74.750725 520.257935 304.296722 74.951935 520.810730 304.296722 75.246086 521.320251 304.296722 75.624237 521.770874 304.296722 76.074905 522.149048 304.296722 76.584389 522.443237 304.296722 77.137215 522.644409 304.296722 77.716583 522.746582 304.296722 78.304886 522.746582 304.296722 78.884247 522.644409 304.296722 79.437073 522.443237 304.296722 79.946556 522.149048 304.296722 80.397224 521.770874 301.757507 80.177048 521.550720 301.757507 79.767960 521.893982 301.757507 79.305481 522.161011 301.757507 78.803658 522.343628 301.757507 78.277748 522.436401 301.757507 77.743721 522.436401 301.757507 77.217804 522.343628 301.757507 76.715981 522.161011 301.757507 76.253502 521.893982 301.757507 75.844414 521.550720 301.757507 75.501144 521.141663 301.757507 75.234131 520.679138 301.757507 75.051483 520.177307 301.757507 74.958755 519.651428 301.757507 74.958755 519.117371 301.757507 75.051483 518.591492 301.757507 75.234131 518.089661 301.757507 75.501144 517.627197 301.757507 75.844414 517.218079 301.757507 76.253502 516.874817 301.757507 76.715981 516.607788 301.757507 77.217804 516.425171 301.757507 77.743721 516.332458 301.757507 78.277748 516.332458 301.757507 78.803658 516.425171 301.757507 79.305481 516.607788 301.757507 79.767960 516.874817 301.757507 80.177048 517.218079 301.757507 80.520317 517.627197 301.757507 80.787331 518.089661 301.757507 80.969978 518.591492 301.757507 81.062714 519.117371 301.757507 81.062714 519.651428 301.757507 80.969978 520.177307 301.757507 80.787331 520.679138 301.757507 80.520317 521.141663 299.109192 79.810608 521.184265 299.109192 79.470718 521.469482 299.109192 79.086464 521.691345 299.109192 78.669533 521.843079 299.109192 78.232582 521.920105 299.109192 77.788887 521.920105 299.109192 77.351929 521.843079 299.109192 76.934998 521.691345 299.109192 76.550743 521.469482 299.109192 76.210861 521.184265 299.109192 75.925659 520.844421 299.109192 75.703812 520.460144 299.109192 75.552055 520.043213 299.109192 75.475014 519.606262 299.109192 75.475014 519.162537 299.109192 75.552055 518.725586 299.109192 75.703812 518.308655 299.109192 75.925659 517.924438 299.109192 76.210861 517.584534 299.109192 76.550743 517.299316 299.109192 76.934998 517.077515 299.109192 77.351929 516.925720 299.109192 77.788887 516.848694 299.109192 78.232582 516.848694 299.109192 78.669533 516.925720 299.109192 79.086464 517.077515 299.109192 79.470718 517.299316 299.109192 79.810608 517.584534 299.109192 80.095810 517.924438 299.109192 80.317650 518.308655 299.109192 80.469406 518.725586 299.109192 80.546455 519.162537 299.109192 80.546455 519.606262 299.109192 80.469406 520.043213 299.109192 80.317650 520.460144 299.109192 80.095810 520.844421 296.619659 79.332687 520.706360 296.619659 79.083046 520.915833 296.619659 78.800827 521.078796 296.619659 78.494598 521.190247 296.619659 78.173668 521.246826 296.619659 77.847794 521.246826 296.619659 77.526863 521.190247 296.619659 77.220634 521.078796 296.619659 76.938416 520.915833 296.619659 76.688774 520.706360 296.619659 76.479309 520.456726 296.619659 76.316368 520.174500 296.619659 76.204910 519.868286 296.619659 76.148323 519.547363 296.619659 76.148323 519.221497 296.619659 76.204910 518.900513 296.619659 76.316368 518.594299 296.619659 76.479309 518.312073 296.619659 76.688774 518.062439 296.619659 76.938416 517.852966 296.619659 77.220634 517.690063 296.619659 77.526863 517.578613 296.619659 77.847794 517.521973 296.619659 78.173668 517.521973 296.619659 78.494598 517.578613 296.619659 78.800827 517.690063 296.619659 79.083046 517.852966 296.619659 79.332687 518.062439 296.619659 79.542160 518.312073 296.619659 79.705101 518.594299 296.619659 79.816559 518.900513 296.619659 79.873146 519.221497 296.619659 79.873146 519.547363 296.619659 79.816559 519.868286 296.619659 79.705101 520.174500 296.619659 79.542160 520.456726 294.525848 78.800629 520.174316 294.525848 78.651466 520.299500 294.525848 78.482834 520.396851 294.525848 78.299858 520.463440 294.525848 78.108093 520.497253 294.525848 77.913368 520.497253 294.525848 77.721611 520.463440 294.525848 77.538628 520.396851 294.525848 77.369995 520.299500 294.525848 77.220833 520.174316 294.525848 77.095673 520.025146 294.525848 76.998306 519.856506 294.525848 76.931709 519.673523 294.525848 76.897896 519.481750 294.525848 76.897896 519.287048 294.525848 76.931709 519.095276 294.525848 76.998306 518.912292 294.525848 77.095673 518.743652 294.525848 77.220833 518.594482 294.525848 77.369995 518.469360 294.525848 77.538628 518.372009 294.525848 77.721611 518.305359 294.525848 77.913368 518.271606 294.525848 78.108093 518.271606 294.525848 78.299858 518.305359 294.525848 78.482834 518.372009 294.525848 78.651466 518.469360 294.525848 78.800629 518.594482 294.525848 78.925797 518.743652 294.525848 79.023155 518.912292 294.525848 79.089752 519.095276 294.525848 79.123566 519.287048 294.525848 79.123566 519.481750 294.525848 79.089752 519.673523 294.525848 79.023155 519.856506 294.525848 78.925797 520.025146 436.339966 74.544601 516.057495 436.339966 74.683800 515.918274 436.339966 81.476860 516.057495 436.339966 81.337662 515.918274 436.339966 81.476860 522.711365 436.339966 81.337662 522.850525 436.339966 74.683800 522.850525 436.339966 74.544601 522.711365 357.701904 75.624992 521.909363 357.701904 75.485802 521.770142 369.732635 70.720001 526.535950 371.011261 70.720001 526.535950 371.011261 70.859192 526.675171 369.732635 70.859192 526.675171 423.428009 75.485802 516.998657 438.310730 69.912270 511.146759 435.071350 69.912270 511.146759 423.428009 75.624992 516.859497 423.846893 73.916046 515.150513 435.071350 69.773079 511.285950 438.310730 69.773079 511.285950 423.846893 73.776855 515.289734 423.428009 80.535667 516.998657 438.310730 86.248390 511.285950 435.071350 86.248390 511.285950 423.846893 82.244614 515.289734 435.071350 86.109192 511.146759 438.310730 86.109192 511.146759 423.846893 82.105415 515.150513 423.428009 80.396469 516.859497 423.428009 75.624992 521.909363 438.310730 69.773079 527.482849 435.071350 69.773079 527.482849 423.428009 75.485802 521.770142 423.846893 73.776855 523.479065 435.071350 69.912270 527.622070 438.310730 69.912270 527.622070 423.846893 73.916046 523.618286 357.701904 80.535667 521.770142 357.701904 80.396469 521.909363 369.732635 85.162270 526.675171 371.011261 85.162270 526.675171 371.011261 85.301460 526.535950 369.732635 85.301460 526.535950 357.701904 80.535667 516.998657 369.732635 85.301460 512.232849 371.011261 85.301460 512.232849 371.011261 85.162270 512.093689 369.732635 85.162270 512.093689 357.701904 80.396469 516.859497 357.701904 75.485802 516.998657 357.701904 75.624992 516.859497 369.732635 70.859192 512.093689 371.011261 70.859192 512.093689 371.011261 70.720001 512.232849 369.732635 70.720001 512.232849 423.428009 80.535667 521.770142 438.310730 86.109192 527.622070 435.071350 86.109192 527.622070 423.428009 80.396469 521.909363 423.846893 82.105415 523.618286 435.071350 86.248390 527.482849 438.310730 86.248390 527.482849 423.846893 82.244614 523.479065 "
							            />
						</IndexedFaceSet>
					</Shape>
				</Group>
			</Transform>
		</Transform>
	</Scene>
</X3D>