<?xml version="1.0" encoding="UTF-8"?>
<!DOCTYPE X3D PUBLIC "ISO//Web3D//DTD X3D 3.0//EN" "http://www.web3d.org/specifications/x3d-3.0.dtd">
<X3D version="3.0" profile="Immersive" xmlns:xsd="http://www.w3.org/2001/XMLSchema-instance" xsd:noNamespaceSchemaLocation="http://www.web3d.org/specifications/x3d-3.0.xsd">
	<head>
		<meta name="filename" content="OMLV4_Packing - For Xander - AIM-120_LAU176_Pylon_Assy-1 LAU179_Pylon_LinkBroken-1.x3d" />
		<meta name="created" content="2026-04-19 20:21:16" />
		<meta name="generator" content="Blender 4.3.2" />
		<meta name="translator" content="Web3D X3D/VRML2 format v2.5.1" />
	</head>
	<Scene>
		<NavigationInfo headlight="true"
		                visibilityLimit="0.0"
		                type='"EXAMINE", "ANY"'
		                avatarSize="0.25, 1.75, 0.75"
		                />
		<Background DEF="WO_World"
		            groundColor="0.051 0.051 0.051"
		            skyColor="0.051 0.051 0.051"
		            />
		<Transform DEF="OMLV4_Packing_-_For_Xander_-_AIM-120_LAU176_Pylon_Assy-1_LAU179_TRANSFORM"
		           translation="0.000000 0.000000 0.000000"
		           scale="1.000000 1.000000 1.000000"
		           rotation="-1.000000 0.000000 0.000000 1.570796"
		           >
			<Transform DEF="OMLV4_Packing_-_For_Xander_-_AIM-120_LAU176_Pylon_Assy-1_LAU179_ifs_TRANSFORM"
			           translation="0.000000 0.000000 0.000000"
			           scale="1.000000 1.000000 1.000000"
			           rotation="0.000000 1.000000 0.000000 0.000000"
			           >
				<Group DEF="group_ME_OMLV4_Packing_-_For_Xander_-_AIM-120_LAU176_Pylon_Assy-1_LAU179">
					<Shape>
						<Appearance>
						</Appearance>
						<IndexedFaceSet solid="false"
						                coordIndex="0 1 2 -1 3 4 5 -1 5 4 6 -1 7 8 6 -1 6 8 9 -1 9 10 6 -1 6 10 11 -1 6 11 12 -1 12 11 13 -1 12 13 14 -1 12 15 6 -1 6 15 0 -1 6 0 5 -1 5 0 2 -1 7 16 8 -1 8 16 17 -1 8 17 18 -1 17 19 18 -1 18 19 20 -1 18 20 21 -1 21 20 22 -1 21 22 23 -1 23 22 24 -1 23 24 25 -1 23 26 27 -1 27 26 28 -1 25 29 23 -1 23 29 30 -1 23 30 26 -1 31 32 26 -1 26 32 33 -1 26 33 28 -1 34 35 36 -1 34 36 26 -1 26 36 37 -1 26 37 31 -1 38 39 40 -1 40 39 41 -1 3 42 4 -1 4 42 43 -1 44 45 4 -1 46 43 47 -1 47 43 48 -1 47 48 49 -1 46 50 43 -1 43 50 51 -1 43 51 52 -1 52 53 43 -1 43 53 38 -1 43 38 4 -1 4 38 40 -1 4 40 44 -1 45 54 4 -1 4 54 55 -1 4 55 56 -1 56 57 4 -1 4 57 58 -1 4 58 59 -1 60 42 5 -1 5 42 3 -1 61 62 60 -1 60 5 63 -1 63 5 2 -1 63 64 65 -1 60 63 61 -1 61 63 65 -1 61 65 66 -1 67 68 0 -1 0 68 1 -1 69 67 15 -1 15 67 0 -1 70 69 12 -1 12 69 15 -1 12 71 70 -1 70 71 72 -1 70 73 74 -1 75 12 76 -1 76 12 14 -1 77 78 79 -1 75 80 12 -1 12 80 81 -1 12 81 82 -1 14 83 76 -1 76 83 79 -1 76 79 84 -1 84 79 78 -1 82 85 12 -1 12 85 86 -1 12 86 71 -1 72 87 70 -1 70 87 88 -1 70 88 89 -1 89 90 70 -1 70 90 91 -1 70 91 73 -1 92 93 94 -1 79 95 96 -1 96 97 79 -1 79 97 98 -1 79 98 77 -1 74 99 70 -1 70 99 100 -1 70 100 101 -1 101 102 70 -1 70 102 103 -1 70 103 94 -1 94 103 104 -1 94 104 92 -1 105 106 107 -1 62 68 60 -1 60 68 67 -1 69 70 67 -1 67 70 108 -1 67 108 60 -1 60 108 43 -1 60 43 42 -1 70 94 109 -1 110 111 108 -1 70 109 108 -1 108 109 112 -1 108 112 110 -1 113 114 115 -1 115 114 106 -1 106 114 116 -1 106 116 107 -1 115 117 113 -1 113 117 118 -1 113 118 119 -1 119 118 120 -1 119 120 111 -1 111 120 121 -1 111 121 108 -1 122 123 107 -1 123 124 107 -1 107 124 125 -1 107 125 105 -1 126 107 127 -1 126 128 107 -1 107 128 129 -1 107 129 122 -1 130 127 131 -1 131 127 132 -1 130 133 127 -1 127 133 134 -1 127 134 126 -1 135 136 137 -1 137 136 138 -1 137 138 139 -1 139 138 140 -1 139 140 141 -1 141 140 142 -1 141 142 143 -1 143 142 144 -1 143 144 145 -1 145 144 146 -1 145 146 147 -1 147 146 148 -1 147 148 149 -1 149 148 150 -1 149 150 151 -1 151 150 152 -1 151 152 153 -1 153 152 154 -1 153 154 155 -1 155 154 156 -1 155 156 157 -1 157 156 158 -1 157 158 159 -1 159 158 160 -1 160 158 161 -1 160 161 162 -1 162 161 163 -1 162 163 164 -1 164 163 165 -1 164 165 166 -1 166 165 167 -1 166 167 168 -1 168 167 169 -1 168 169 170 -1 169 171 170 -1 170 171 172 -1 170 172 173 -1 173 172 174 -1 173 174 175 -1 175 174 176 -1 176 174 177 -1 176 177 178 -1 179 180 181 -1 181 180 182 -1 181 182 183 -1 183 182 184 -1 183 184 185 -1 185 184 178 -1 185 178 186 -1 186 178 177 -1 187 188 189 -1 189 188 190 -1 189 190 191 -1 191 190 192 -1 191 192 193 -1 193 192 194 -1 193 194 195 -1 195 194 196 -1 195 196 197 -1 197 196 198 -1 197 198 199 -1 199 198 200 -1 199 200 179 -1 179 200 201 -1 179 201 180 -1 72 71 202 -1 202 71 203 -1 202 203 187 -1 187 203 204 -1 187 204 188 -1 205 206 207 -1 208 114 113 -1 209 72 210 -1 211 212 213 -1 214 215 216 -1 99 74 217 -1 88 87 218 -1 218 87 72 -1 212 214 219 -1 220 221 222 -1 223 211 224 -1 72 225 218 -1 218 225 226 -1 218 226 88 -1 88 226 89 -1 72 227 225 -1 225 227 228 -1 225 228 226 -1 226 228 229 -1 226 229 89 -1 89 229 90 -1 72 230 227 -1 227 230 231 -1 227 231 228 -1 228 231 232 -1 228 232 229 -1 229 232 233 -1 229 233 90 -1 90 233 91 -1 234 235 236 -1 72 237 230 -1 230 237 238 -1 230 238 231 -1 231 238 239 -1 231 239 232 -1 232 239 240 -1 232 240 233 -1 233 240 241 -1 233 241 91 -1 91 241 73 -1 242 235 243 -1 243 235 234 -1 243 234 244 -1 72 245 237 -1 237 245 246 -1 237 246 238 -1 238 246 247 -1 238 247 239 -1 239 247 248 -1 239 248 240 -1 240 248 249 -1 240 249 241 -1 241 249 217 -1 241 217 73 -1 73 217 74 -1 250 242 251 -1 251 242 243 -1 251 243 252 -1 252 243 244 -1 252 244 253 -1 254 250 255 -1 255 250 251 -1 255 251 256 -1 256 251 252 -1 256 252 257 -1 257 252 253 -1 257 253 258 -1 72 209 259 -1 259 209 260 -1 259 260 261 -1 261 260 262 -1 261 262 263 -1 263 262 264 -1 263 264 265 -1 265 264 266 -1 265 266 267 -1 267 266 268 -1 267 268 269 -1 269 268 270 -1 269 270 271 -1 272 210 72 -1 273 254 274 -1 274 254 255 -1 274 255 275 -1 275 255 256 -1 275 256 276 -1 276 256 257 -1 276 257 277 -1 277 257 258 -1 277 258 278 -1 220 222 279 -1 279 222 280 -1 279 280 281 -1 281 280 282 -1 281 282 283 -1 283 282 284 -1 283 284 285 -1 285 284 286 -1 285 286 287 -1 287 286 288 -1 287 288 289 -1 289 288 290 -1 289 290 291 -1 291 290 292 -1 291 292 293 -1 294 273 295 -1 295 273 274 -1 295 274 296 -1 296 274 275 -1 296 275 297 -1 297 275 276 -1 297 276 298 -1 298 276 277 -1 298 277 299 -1 299 277 278 -1 214 216 219 -1 219 216 300 -1 219 300 301 -1 301 300 302 -1 301 302 303 -1 303 302 304 -1 303 304 305 -1 305 304 306 -1 305 306 307 -1 307 306 308 -1 307 308 309 -1 309 308 310 -1 309 310 311 -1 311 310 207 -1 311 207 312 -1 312 207 206 -1 312 206 313 -1 211 213 224 -1 224 213 314 -1 224 314 315 -1 315 314 316 -1 315 316 317 -1 317 316 318 -1 317 318 319 -1 319 318 320 -1 319 320 321 -1 321 320 322 -1 321 322 323 -1 323 322 324 -1 323 324 325 -1 325 324 326 -1 325 326 327 -1 327 326 328 -1 327 328 329 -1 212 219 213 -1 213 219 301 -1 213 301 314 -1 314 301 303 -1 314 303 316 -1 316 303 305 -1 316 305 318 -1 318 305 307 -1 318 307 320 -1 320 307 309 -1 320 309 322 -1 322 309 311 -1 322 311 324 -1 324 311 312 -1 324 312 326 -1 326 312 313 -1 326 313 328 -1 330 293 331 -1 331 293 292 -1 331 292 332 -1 332 292 290 -1 332 290 333 -1 333 290 288 -1 333 288 334 -1 334 288 286 -1 334 286 335 -1 335 286 284 -1 335 284 336 -1 336 284 282 -1 336 282 337 -1 337 282 280 -1 337 280 338 -1 338 280 222 -1 338 222 339 -1 339 222 221 -1 339 221 223 -1 223 224 339 -1 339 224 315 -1 339 315 338 -1 338 315 317 -1 338 317 337 -1 337 317 319 -1 337 319 336 -1 336 319 321 -1 336 321 335 -1 335 321 323 -1 335 323 334 -1 334 323 325 -1 334 325 333 -1 333 325 327 -1 333 327 332 -1 332 327 329 -1 332 329 331 -1 272 340 210 -1 210 340 299 -1 210 299 209 -1 209 299 278 -1 209 278 260 -1 260 278 258 -1 260 258 262 -1 262 258 253 -1 262 253 264 -1 264 253 244 -1 264 244 266 -1 266 244 234 -1 266 234 268 -1 268 234 236 -1 268 236 270 -1 341 294 342 -1 342 294 295 -1 342 295 343 -1 343 295 296 -1 343 296 344 -1 344 296 297 -1 344 297 345 -1 345 297 298 -1 345 298 346 -1 346 298 299 -1 346 299 347 -1 347 299 340 -1 94 93 348 -1 100 99 271 -1 271 99 217 -1 271 217 269 -1 269 217 249 -1 269 249 267 -1 267 249 248 -1 267 248 265 -1 265 248 247 -1 265 247 263 -1 263 247 246 -1 263 246 261 -1 261 246 245 -1 261 245 259 -1 259 245 72 -1 94 348 109 -1 109 348 349 -1 109 349 112 -1 349 350 112 -1 112 350 351 -1 112 351 110 -1 110 351 352 -1 110 352 111 -1 111 352 353 -1 111 353 119 -1 119 353 354 -1 119 354 113 -1 113 354 355 -1 113 355 208 -1 116 114 330 -1 330 114 208 -1 330 208 293 -1 293 208 355 -1 293 355 291 -1 291 355 354 -1 291 354 289 -1 289 354 353 -1 289 353 287 -1 287 353 352 -1 287 352 285 -1 285 352 351 -1 285 351 283 -1 283 351 350 -1 283 350 281 -1 281 350 349 -1 281 349 279 -1 279 349 348 -1 279 348 220 -1 220 348 93 -1 220 93 221 -1 221 93 92 -1 221 92 223 -1 223 92 104 -1 223 104 211 -1 211 104 103 -1 211 103 212 -1 212 103 102 -1 212 102 214 -1 214 102 101 -1 214 101 215 -1 215 101 100 -1 100 271 215 -1 215 271 270 -1 215 270 216 -1 216 270 236 -1 216 236 300 -1 300 236 235 -1 300 235 302 -1 302 235 242 -1 302 242 304 -1 304 242 250 -1 304 250 306 -1 306 250 254 -1 306 254 308 -1 308 254 273 -1 308 273 310 -1 310 273 294 -1 310 294 207 -1 207 294 341 -1 207 341 205 -1 356 11 357 -1 358 18 359 -1 360 71 361 -1 362 363 364 -1 365 366 367 -1 367 366 368 -1 368 366 369 -1 368 369 370 -1 371 372 373 -1 373 372 374 -1 373 374 375 -1 375 374 71 -1 360 361 376 -1 71 377 361 -1 361 377 378 -1 361 378 376 -1 376 378 379 -1 376 379 380 -1 380 379 364 -1 380 364 381 -1 381 364 363 -1 381 371 380 -1 380 371 373 -1 380 373 376 -1 376 373 375 -1 376 375 360 -1 360 375 71 -1 71 382 377 -1 377 382 383 -1 377 383 378 -1 378 383 384 -1 378 384 379 -1 379 384 385 -1 379 385 364 -1 364 385 386 -1 364 386 362 -1 362 386 387 -1 82 81 388 -1 388 81 80 -1 388 80 389 -1 389 80 390 -1 71 86 391 -1 391 86 85 -1 391 85 392 -1 392 85 82 -1 392 82 393 -1 393 82 388 -1 21 23 394 -1 394 23 395 -1 394 395 396 -1 396 395 365 -1 396 365 397 -1 397 365 367 -1 369 398 370 -1 370 398 399 -1 370 399 400 -1 400 399 401 -1 400 401 402 -1 402 401 403 -1 402 403 404 -1 404 403 405 -1 404 405 406 -1 18 21 359 -1 359 21 394 -1 359 394 407 -1 407 394 396 -1 407 396 408 -1 408 396 397 -1 408 397 409 -1 409 397 367 -1 409 367 410 -1 410 367 368 -1 410 368 411 -1 411 368 370 -1 411 370 412 -1 412 370 400 -1 412 400 413 -1 413 400 402 -1 413 402 414 -1 414 402 404 -1 414 404 415 -1 415 404 406 -1 415 406 416 -1 358 359 417 -1 417 359 407 -1 417 407 418 -1 418 407 408 -1 418 408 419 -1 419 408 409 -1 419 409 420 -1 420 409 410 -1 420 410 421 -1 421 410 411 -1 421 411 422 -1 422 411 412 -1 422 412 423 -1 423 412 413 -1 423 413 424 -1 424 413 414 -1 424 414 425 -1 425 414 415 -1 425 415 426 -1 426 415 416 -1 426 416 427 -1 8 18 428 -1 428 18 358 -1 428 358 429 -1 429 358 417 -1 429 417 430 -1 430 417 418 -1 430 418 431 -1 431 418 419 -1 431 419 432 -1 432 419 420 -1 432 420 433 -1 433 420 421 -1 433 421 434 -1 434 421 422 -1 434 422 435 -1 435 422 423 -1 435 423 436 -1 436 423 424 -1 436 424 437 -1 437 424 425 -1 437 425 438 -1 438 425 426 -1 438 426 439 -1 439 426 427 -1 439 427 440 -1 9 8 441 -1 441 8 428 -1 441 428 442 -1 442 428 429 -1 442 429 443 -1 443 429 430 -1 443 430 444 -1 444 430 431 -1 444 431 445 -1 445 431 432 -1 445 432 446 -1 446 432 433 -1 446 433 447 -1 447 433 434 -1 447 434 448 -1 448 434 435 -1 448 435 449 -1 449 435 436 -1 449 436 450 -1 450 436 437 -1 450 437 451 -1 451 437 438 -1 451 438 452 -1 452 438 439 -1 452 439 453 -1 453 439 440 -1 453 440 454 -1 10 9 455 -1 455 9 441 -1 455 441 456 -1 456 441 442 -1 456 442 457 -1 457 442 443 -1 457 443 458 -1 458 443 444 -1 458 444 459 -1 459 444 445 -1 459 445 460 -1 460 445 446 -1 460 446 461 -1 461 446 447 -1 461 447 462 -1 462 447 448 -1 462 448 463 -1 463 448 449 -1 463 449 464 -1 464 449 450 -1 464 450 465 -1 465 450 451 -1 465 451 466 -1 466 451 452 -1 466 452 467 -1 467 452 453 -1 467 453 468 -1 468 453 454 -1 468 454 469 -1 11 10 357 -1 357 10 455 -1 357 455 470 -1 470 455 456 -1 470 456 471 -1 471 456 457 -1 471 457 472 -1 472 457 458 -1 472 458 473 -1 473 458 459 -1 473 459 474 -1 474 459 460 -1 474 460 475 -1 475 460 461 -1 475 461 476 -1 476 461 462 -1 476 462 477 -1 477 462 463 -1 477 463 478 -1 478 463 464 -1 478 464 479 -1 479 464 465 -1 479 465 480 -1 480 465 466 -1 480 466 481 -1 481 466 467 -1 481 467 482 -1 482 467 468 -1 482 468 483 -1 483 468 469 -1 356 357 484 -1 484 357 470 -1 484 470 485 -1 485 470 471 -1 485 471 486 -1 486 471 472 -1 486 472 487 -1 487 472 473 -1 487 473 488 -1 488 473 474 -1 488 474 489 -1 489 474 475 -1 489 475 490 -1 490 475 476 -1 490 476 491 -1 491 476 477 -1 491 477 492 -1 492 477 478 -1 492 478 493 -1 493 478 479 -1 493 479 494 -1 494 479 480 -1 494 480 495 -1 495 480 481 -1 495 481 496 -1 496 481 482 -1 496 482 497 -1 497 482 483 -1 497 483 71 -1 469 71 483 -1 405 387 406 -1 406 387 386 -1 406 386 416 -1 416 386 385 -1 416 385 427 -1 427 385 384 -1 427 384 440 -1 440 384 383 -1 440 383 454 -1 454 383 382 -1 454 382 469 -1 469 382 71 -1 13 11 498 -1 498 11 356 -1 498 356 499 -1 499 356 484 -1 499 484 500 -1 500 484 485 -1 500 485 501 -1 501 485 486 -1 501 486 502 -1 502 486 487 -1 502 487 503 -1 503 487 488 -1 503 488 504 -1 504 488 489 -1 504 489 505 -1 505 489 490 -1 505 490 506 -1 506 490 491 -1 506 491 390 -1 390 491 492 -1 390 492 389 -1 389 492 493 -1 389 493 388 -1 388 493 494 -1 388 494 393 -1 393 494 495 -1 393 495 392 -1 392 495 496 -1 392 496 391 -1 391 496 497 -1 391 497 71 -1 14 13 83 -1 83 13 498 -1 83 498 79 -1 79 498 499 -1 79 499 95 -1 95 499 500 -1 95 500 96 -1 96 500 501 -1 96 501 97 -1 97 501 502 -1 97 502 98 -1 98 502 503 -1 98 503 77 -1 77 503 504 -1 77 504 78 -1 78 504 505 -1 78 505 84 -1 84 505 506 -1 84 506 76 -1 76 506 390 -1 76 390 75 -1 75 390 80 -1 507 508 509 -1 510 202 187 -1 511 512 513 -1 514 161 158 -1 515 144 142 -1 516 517 518 -1 138 136 519 -1 519 136 520 -1 138 519 140 -1 140 519 521 -1 140 521 142 -1 142 521 522 -1 142 522 515 -1 508 523 524 -1 148 525 526 -1 148 526 150 -1 150 526 527 -1 150 527 152 -1 508 524 509 -1 509 524 528 -1 509 528 529 -1 529 528 530 -1 529 530 531 -1 531 530 532 -1 531 532 533 -1 533 532 534 -1 533 534 535 -1 535 534 536 -1 535 536 537 -1 152 527 154 -1 154 527 538 -1 154 538 156 -1 156 538 539 -1 156 539 158 -1 158 539 540 -1 158 540 514 -1 541 542 543 -1 543 542 544 -1 545 167 546 -1 546 167 165 -1 546 165 514 -1 514 165 163 -1 514 163 161 -1 512 511 547 -1 547 511 548 -1 547 548 549 -1 550 174 551 -1 551 174 172 -1 551 172 552 -1 552 172 171 -1 552 171 545 -1 545 171 169 -1 545 169 167 -1 183 185 553 -1 553 185 186 -1 553 186 550 -1 550 186 177 -1 550 177 174 -1 554 555 556 -1 556 555 557 -1 556 557 558 -1 72 202 272 -1 272 202 510 -1 272 510 340 -1 340 510 347 -1 559 108 560 -1 560 108 121 -1 561 562 563 -1 562 561 564 -1 564 561 565 -1 564 565 566 -1 566 565 567 -1 567 565 568 -1 567 568 569 -1 569 568 570 -1 569 570 571 -1 571 570 572 -1 572 570 573 -1 572 573 574 -1 574 573 575 -1 574 575 576 -1 576 575 577 -1 576 577 578 -1 579 580 581 -1 582 577 583 -1 583 577 575 -1 583 575 584 -1 584 575 573 -1 584 573 585 -1 585 573 570 -1 585 570 586 -1 586 570 568 -1 586 568 587 -1 587 568 565 -1 587 565 588 -1 588 565 561 -1 588 561 589 -1 589 561 563 -1 589 563 590 -1 591 592 593 -1 594 582 595 -1 595 582 583 -1 595 583 596 -1 596 583 584 -1 596 584 597 -1 597 584 585 -1 597 585 598 -1 598 585 586 -1 598 586 599 -1 599 586 587 -1 599 587 600 -1 600 587 588 -1 600 588 601 -1 601 588 589 -1 601 589 602 -1 602 589 590 -1 602 590 603 -1 604 593 605 -1 605 593 592 -1 605 592 606 -1 607 594 608 -1 608 594 595 -1 608 595 609 -1 609 595 596 -1 609 596 610 -1 610 596 597 -1 610 597 611 -1 611 597 598 -1 611 598 612 -1 612 598 599 -1 612 599 613 -1 613 599 600 -1 613 600 614 -1 614 600 601 -1 614 601 615 -1 615 601 602 -1 615 602 560 -1 560 602 603 -1 560 603 559 -1 146 144 616 -1 616 144 515 -1 616 515 617 -1 617 515 522 -1 617 522 618 -1 618 522 521 -1 618 521 619 -1 619 521 519 -1 619 519 620 -1 620 519 520 -1 620 520 621 -1 591 120 592 -1 592 120 118 -1 592 118 606 -1 606 118 117 -1 606 117 115 -1 148 146 525 -1 525 146 616 -1 525 616 622 -1 622 616 617 -1 622 617 623 -1 623 617 618 -1 623 618 624 -1 624 618 619 -1 624 619 625 -1 625 619 620 -1 625 620 579 -1 579 620 621 -1 579 621 580 -1 626 627 628 -1 628 627 629 -1 628 629 630 -1 630 629 631 -1 630 631 632 -1 632 631 633 -1 632 633 634 -1 635 626 636 -1 636 626 628 -1 636 628 637 -1 637 628 630 -1 637 630 638 -1 638 630 632 -1 638 632 639 -1 639 632 634 -1 639 634 640 -1 641 635 642 -1 642 635 636 -1 642 636 643 -1 643 636 637 -1 643 637 644 -1 644 637 638 -1 644 638 645 -1 645 638 639 -1 645 639 646 -1 646 639 640 -1 646 640 647 -1 647 648 646 -1 646 648 649 -1 646 649 645 -1 645 649 650 -1 645 650 644 -1 644 650 651 -1 644 651 643 -1 643 651 652 -1 643 652 642 -1 642 652 653 -1 642 653 641 -1 641 653 654 -1 648 655 649 -1 649 655 656 -1 649 656 650 -1 650 656 657 -1 650 657 651 -1 651 657 658 -1 651 658 652 -1 652 658 659 -1 652 659 653 -1 653 659 660 -1 653 660 654 -1 654 660 661 -1 633 604 634 -1 634 604 605 -1 634 605 640 -1 640 605 606 -1 640 606 647 -1 647 606 115 -1 647 115 648 -1 648 115 106 -1 648 106 655 -1 655 106 662 -1 655 662 656 -1 656 662 663 -1 656 663 657 -1 657 663 664 -1 657 664 658 -1 658 664 665 -1 658 665 659 -1 659 665 666 -1 659 666 660 -1 660 666 667 -1 660 667 661 -1 661 667 544 -1 668 536 669 -1 669 536 534 -1 669 534 670 -1 670 534 532 -1 670 532 671 -1 671 532 530 -1 671 530 672 -1 672 530 528 -1 672 528 673 -1 673 528 524 -1 673 524 674 -1 674 524 523 -1 674 523 675 -1 106 105 662 -1 662 105 676 -1 662 676 663 -1 663 676 677 -1 663 677 664 -1 664 677 678 -1 664 678 665 -1 665 678 679 -1 665 679 666 -1 666 679 680 -1 666 680 667 -1 667 680 681 -1 667 681 544 -1 544 681 682 -1 544 682 543 -1 541 668 542 -1 542 668 669 -1 542 669 544 -1 544 669 670 -1 544 670 661 -1 661 670 671 -1 661 671 654 -1 654 671 672 -1 654 672 641 -1 641 672 673 -1 641 673 635 -1 635 673 674 -1 635 674 626 -1 626 674 675 -1 626 675 627 -1 105 125 676 -1 676 125 683 -1 676 683 677 -1 677 683 684 -1 677 684 678 -1 678 684 685 -1 678 685 679 -1 679 685 686 -1 679 686 680 -1 680 686 687 -1 680 687 681 -1 681 687 688 -1 681 688 682 -1 682 688 689 -1 682 689 543 -1 543 689 690 -1 543 690 541 -1 537 536 691 -1 691 536 668 -1 691 668 513 -1 513 668 541 -1 513 541 511 -1 511 541 690 -1 511 690 548 -1 548 690 692 -1 548 692 549 -1 549 692 693 -1 549 693 694 -1 694 693 695 -1 694 695 696 -1 124 123 697 -1 697 123 698 -1 697 698 699 -1 699 698 700 -1 699 700 701 -1 701 700 702 -1 701 702 703 -1 703 702 704 -1 703 704 705 -1 705 704 706 -1 705 706 707 -1 707 706 708 -1 707 708 709 -1 709 708 710 -1 709 710 711 -1 711 710 712 -1 181 183 713 -1 713 183 553 -1 713 553 714 -1 714 553 550 -1 714 550 715 -1 715 550 551 -1 715 551 716 -1 716 551 552 -1 716 552 717 -1 717 552 545 -1 717 545 718 -1 718 545 546 -1 718 546 719 -1 719 546 514 -1 719 514 720 -1 720 514 540 -1 720 540 721 -1 721 540 539 -1 721 539 722 -1 722 539 538 -1 722 538 723 -1 723 538 527 -1 723 527 724 -1 724 527 526 -1 724 526 725 -1 725 526 525 -1 725 525 726 -1 726 525 622 -1 726 622 727 -1 727 622 623 -1 727 623 728 -1 728 623 624 -1 728 624 729 -1 729 624 625 -1 729 625 730 -1 730 625 579 -1 730 579 516 -1 516 579 581 -1 516 581 517 -1 123 122 698 -1 698 122 731 -1 698 731 700 -1 700 731 732 -1 700 732 702 -1 702 732 733 -1 702 733 704 -1 704 733 734 -1 704 734 706 -1 706 734 735 -1 706 735 708 -1 708 735 736 -1 708 736 710 -1 710 736 737 -1 710 737 712 -1 712 737 738 -1 125 124 683 -1 683 124 697 -1 683 697 684 -1 684 697 699 -1 684 699 685 -1 685 699 701 -1 685 701 686 -1 686 701 703 -1 686 703 687 -1 687 703 705 -1 687 705 688 -1 688 705 707 -1 688 707 689 -1 689 707 709 -1 689 709 690 -1 690 709 711 -1 690 711 692 -1 692 711 712 -1 692 712 693 -1 693 712 738 -1 693 738 695 -1 507 509 739 -1 739 509 529 -1 739 529 740 -1 740 529 531 -1 740 531 741 -1 741 531 533 -1 741 533 742 -1 742 533 535 -1 742 535 743 -1 743 535 537 -1 743 537 744 -1 744 537 691 -1 744 691 745 -1 745 691 513 -1 745 513 746 -1 746 513 512 -1 746 512 747 -1 747 512 547 -1 747 547 748 -1 748 547 549 -1 748 549 749 -1 749 549 694 -1 749 694 557 -1 557 694 696 -1 557 696 558 -1 121 120 560 -1 560 120 591 -1 560 591 615 -1 615 591 593 -1 615 593 614 -1 614 593 604 -1 614 604 613 -1 613 604 633 -1 613 633 612 -1 612 633 631 -1 612 631 611 -1 611 631 629 -1 611 629 610 -1 610 629 627 -1 610 627 609 -1 609 627 675 -1 609 675 608 -1 608 675 523 -1 608 523 607 -1 607 523 508 -1 607 508 750 -1 750 508 507 -1 750 507 751 -1 751 507 739 -1 751 739 752 -1 752 739 740 -1 752 740 753 -1 753 740 741 -1 753 741 754 -1 754 741 742 -1 754 742 755 -1 755 742 743 -1 755 743 756 -1 756 743 744 -1 756 744 757 -1 757 744 745 -1 757 745 758 -1 758 745 746 -1 758 746 759 -1 759 746 747 -1 759 747 760 -1 760 747 748 -1 760 748 761 -1 761 748 749 -1 761 749 762 -1 762 749 557 -1 762 557 763 -1 763 557 555 -1 763 555 764 -1 764 555 554 -1 764 554 765 -1 193 195 766 -1 766 195 197 -1 766 197 767 -1 767 197 199 -1 767 199 768 -1 768 199 179 -1 768 179 769 -1 769 179 181 -1 769 181 770 -1 770 181 713 -1 770 713 771 -1 771 713 714 -1 771 714 772 -1 772 714 715 -1 772 715 773 -1 773 715 716 -1 773 716 774 -1 774 716 717 -1 774 717 775 -1 775 717 718 -1 775 718 776 -1 776 718 719 -1 776 719 777 -1 777 719 720 -1 777 720 778 -1 778 720 721 -1 778 721 779 -1 779 721 722 -1 779 722 780 -1 780 722 723 -1 780 723 781 -1 781 723 724 -1 781 724 782 -1 782 724 725 -1 782 725 783 -1 783 725 726 -1 783 726 784 -1 784 726 727 -1 784 727 785 -1 785 727 728 -1 785 728 786 -1 786 728 729 -1 786 729 787 -1 787 729 730 -1 787 730 788 -1 788 730 516 -1 788 516 789 -1 789 516 518 -1 789 518 790 -1 122 129 731 -1 731 129 791 -1 731 791 732 -1 732 791 792 -1 732 792 733 -1 733 792 793 -1 733 793 734 -1 734 793 794 -1 734 794 735 -1 735 794 795 -1 735 795 736 -1 736 795 796 -1 736 796 737 -1 737 796 797 -1 737 797 738 -1 738 797 798 -1 738 798 695 -1 695 798 799 -1 695 799 696 -1 696 799 800 -1 696 800 558 -1 558 800 801 -1 558 801 556 -1 556 801 802 -1 556 802 554 -1 554 802 803 -1 554 803 765 -1 765 803 804 -1 129 128 791 -1 791 128 805 -1 791 805 792 -1 792 805 806 -1 792 806 793 -1 793 806 807 -1 793 807 794 -1 794 807 808 -1 794 808 795 -1 795 808 809 -1 795 809 796 -1 796 809 810 -1 796 810 797 -1 797 810 811 -1 797 811 798 -1 798 811 812 -1 798 812 799 -1 799 812 813 -1 799 813 800 -1 800 813 814 -1 800 814 801 -1 801 814 815 -1 801 815 802 -1 802 815 816 -1 802 816 803 -1 803 816 817 -1 803 817 804 -1 804 817 818 -1 128 126 805 -1 805 126 819 -1 805 819 806 -1 806 819 820 -1 806 820 807 -1 807 820 821 -1 807 821 808 -1 808 821 822 -1 808 822 809 -1 809 822 823 -1 809 823 810 -1 810 823 824 -1 810 824 811 -1 811 824 825 -1 811 825 812 -1 812 825 826 -1 812 826 813 -1 813 826 827 -1 813 827 814 -1 814 827 828 -1 814 828 815 -1 815 828 829 -1 815 829 816 -1 816 829 830 -1 816 830 817 -1 817 830 831 -1 817 831 818 -1 818 831 832 -1 126 134 819 -1 819 134 833 -1 819 833 820 -1 820 833 834 -1 820 834 821 -1 821 834 835 -1 821 835 822 -1 822 835 836 -1 822 836 823 -1 823 836 837 -1 823 837 824 -1 824 837 838 -1 824 838 825 -1 825 838 839 -1 825 839 826 -1 826 839 840 -1 826 840 827 -1 827 840 841 -1 827 841 828 -1 828 841 842 -1 828 842 829 -1 829 842 843 -1 829 843 830 -1 830 843 844 -1 830 844 831 -1 831 844 845 -1 831 845 832 -1 832 845 846 -1 191 193 847 -1 847 193 766 -1 847 766 846 -1 846 766 767 -1 846 767 832 -1 832 767 768 -1 832 768 818 -1 818 768 769 -1 818 769 804 -1 804 769 770 -1 804 770 765 -1 765 770 771 -1 765 771 764 -1 764 771 772 -1 764 772 763 -1 763 772 773 -1 763 773 762 -1 762 773 774 -1 762 774 761 -1 761 774 775 -1 761 775 760 -1 760 775 776 -1 760 776 759 -1 759 776 777 -1 759 777 758 -1 758 777 778 -1 758 778 757 -1 757 778 779 -1 757 779 756 -1 756 779 780 -1 756 780 755 -1 755 780 781 -1 755 781 754 -1 754 781 782 -1 754 782 753 -1 753 782 783 -1 753 783 752 -1 752 783 784 -1 752 784 751 -1 751 784 785 -1 751 785 750 -1 750 785 786 -1 750 786 607 -1 607 786 787 -1 607 787 594 -1 594 787 788 -1 594 788 582 -1 582 788 789 -1 582 789 577 -1 577 789 790 -1 577 790 578 -1 848 849 850 -1 850 849 851 -1 850 851 852 -1 852 851 853 -1 852 853 854 -1 854 853 855 -1 854 855 856 -1 856 855 857 -1 856 857 858 -1 858 857 859 -1 858 859 860 -1 860 859 861 -1 860 861 862 -1 862 861 863 -1 862 863 864 -1 864 863 865 -1 864 865 866 -1 866 865 867 -1 866 867 868 -1 868 867 869 -1 868 869 870 -1 870 869 871 -1 870 871 872 -1 872 871 873 -1 872 873 874 -1 874 873 875 -1 874 875 876 -1 876 875 877 -1 132 127 878 -1 849 879 851 -1 851 879 880 -1 851 880 853 -1 853 880 881 -1 853 881 855 -1 855 881 882 -1 855 882 857 -1 857 882 883 -1 857 883 859 -1 859 883 884 -1 859 884 861 -1 861 884 885 -1 861 885 863 -1 863 885 886 -1 863 886 865 -1 865 886 887 -1 865 887 867 -1 867 887 888 -1 867 888 869 -1 869 888 889 -1 869 889 871 -1 871 889 890 -1 871 890 873 -1 873 890 891 -1 873 891 875 -1 875 891 892 -1 875 892 877 -1 877 892 893 -1 879 894 880 -1 880 894 895 -1 880 895 881 -1 881 895 896 -1 881 896 882 -1 882 896 897 -1 882 897 883 -1 883 897 898 -1 883 898 884 -1 884 898 899 -1 884 899 885 -1 885 899 900 -1 885 900 886 -1 886 900 901 -1 886 901 887 -1 887 901 902 -1 887 902 888 -1 888 902 903 -1 888 903 889 -1 889 903 904 -1 889 904 890 -1 890 904 905 -1 890 905 891 -1 891 905 906 -1 891 906 892 -1 892 906 907 -1 892 907 893 -1 893 907 908 -1 331 909 910 -1 910 909 911 -1 910 911 912 -1 912 911 878 -1 848 133 849 -1 849 133 130 -1 849 130 879 -1 879 130 131 -1 879 131 894 -1 894 131 913 -1 894 913 895 -1 895 913 914 -1 895 914 896 -1 896 914 915 -1 896 915 897 -1 897 915 916 -1 897 916 898 -1 898 916 917 -1 898 917 899 -1 899 917 918 -1 899 918 900 -1 900 918 919 -1 900 919 901 -1 901 919 920 -1 901 920 902 -1 902 920 921 -1 902 921 903 -1 903 921 922 -1 903 922 904 -1 904 922 923 -1 904 923 905 -1 905 923 924 -1 905 924 906 -1 906 924 925 -1 906 925 907 -1 907 925 926 -1 907 926 908 -1 116 330 107 -1 107 330 927 -1 107 927 127 -1 878 127 912 -1 912 127 927 -1 912 927 910 -1 910 927 330 -1 910 330 331 -1 131 132 913 -1 913 132 878 -1 913 878 914 -1 914 878 911 -1 914 911 915 -1 915 911 909 -1 915 909 916 -1 916 909 331 -1 916 331 917 -1 917 331 329 -1 917 329 918 -1 918 329 328 -1 918 328 919 -1 919 328 313 -1 919 313 920 -1 920 313 206 -1 920 206 921 -1 206 205 921 -1 921 205 341 -1 921 341 922 -1 922 341 342 -1 922 342 923 -1 923 342 343 -1 923 343 924 -1 924 343 344 -1 924 344 925 -1 925 344 345 -1 925 345 926 -1 926 345 346 -1 346 347 926 -1 926 347 510 -1 926 510 908 -1 908 510 187 -1 908 187 893 -1 893 187 189 -1 893 189 877 -1 877 189 191 -1 877 191 876 -1 876 191 847 -1 876 847 874 -1 874 847 846 -1 874 846 872 -1 872 846 845 -1 872 845 870 -1 870 845 844 -1 870 844 868 -1 868 844 843 -1 868 843 866 -1 866 843 842 -1 866 842 864 -1 864 842 841 -1 864 841 862 -1 862 841 840 -1 862 840 860 -1 860 840 839 -1 860 839 858 -1 858 839 838 -1 858 838 856 -1 856 838 837 -1 856 837 854 -1 854 837 836 -1 854 836 852 -1 852 836 835 -1 852 835 850 -1 850 835 834 -1 850 834 848 -1 848 834 833 -1 848 833 133 -1 133 833 134 -1 928 39 38 -1 928 38 929 -1 929 38 53 -1 929 53 930 -1 930 53 931 -1 931 53 52 -1 931 52 932 -1 932 52 933 -1 933 52 51 -1 933 51 934 -1 934 51 935 -1 935 51 50 -1 935 50 936 -1 936 50 46 -1 936 46 937 -1 937 46 938 -1 938 46 47 -1 938 47 939 -1 939 47 940 -1 940 47 49 -1 940 49 941 -1 941 49 942 -1 942 49 48 -1 942 48 943 -1 943 48 43 -1 943 43 108 -1 944 27 945 -1 945 27 28 -1 946 31 37 -1 175 176 947 -1 948 949 950 -1 951 952 953 -1 954 955 956 -1 957 958 959 -1 960 961 962 -1 955 963 964 -1 964 963 957 -1 965 966 954 -1 967 968 969 -1 6 968 970 -1 971 972 973 -1 6 970 7 -1 7 970 974 -1 7 974 16 -1 16 974 17 -1 17 974 975 -1 17 975 19 -1 976 977 978 -1 978 977 979 -1 978 979 980 -1 19 975 20 -1 20 975 981 -1 20 981 22 -1 982 24 983 -1 983 24 22 -1 983 22 984 -1 984 22 981 -1 971 973 985 -1 985 973 986 -1 985 986 987 -1 987 986 988 -1 987 988 989 -1 989 988 990 -1 989 990 991 -1 991 990 992 -1 991 992 993 -1 993 992 994 -1 993 994 995 -1 995 994 996 -1 995 996 997 -1 997 996 998 -1 997 998 999 -1 999 998 1000 -1 999 1000 1001 -1 1001 1000 1002 -1 1001 1002 1003 -1 1003 1002 1004 -1 1003 1004 1005 -1 1005 1004 1006 -1 1005 1006 1007 -1 1008 1009 1010 -1 982 1011 24 -1 24 1011 1012 -1 24 1012 25 -1 25 1012 1013 -1 25 1013 29 -1 29 1013 1014 -1 29 1014 30 -1 30 1014 1015 -1 30 1015 26 -1 26 1015 1016 -1 26 1016 34 -1 34 1016 1017 -1 34 1017 35 -1 35 1017 1018 -1 35 1018 36 -1 36 1018 1019 -1 36 1019 37 -1 37 1019 1020 -1 37 1020 946 -1 946 1021 31 -1 31 1021 1022 -1 31 1022 32 -1 32 1022 1023 -1 32 1023 33 -1 33 1023 1024 -1 33 1024 28 -1 28 1024 1025 -1 28 1025 945 -1 1008 1010 1026 -1 1026 1010 1027 -1 1026 1027 1028 -1 1028 1027 1029 -1 1028 1029 1030 -1 1030 1029 1031 -1 1030 1031 1032 -1 1032 1031 1033 -1 1032 1033 1034 -1 1034 1033 1035 -1 1034 1035 1036 -1 1036 1035 1037 -1 1036 1037 1038 -1 1038 1037 1039 -1 1038 1039 1040 -1 1040 1039 1041 -1 1040 1041 1042 -1 1042 1041 362 -1 1042 362 387 -1 1043 405 403 -1 1044 401 399 -1 957 959 964 -1 964 959 1045 -1 964 1045 1046 -1 1046 1045 1047 -1 1046 1047 1048 -1 1048 1047 1049 -1 1048 1049 1050 -1 1050 1049 1051 -1 1050 1051 1052 -1 1052 1051 1053 -1 1052 1053 1054 -1 1054 1053 1055 -1 1054 1055 1056 -1 1056 1055 1057 -1 1056 1057 1058 -1 1058 1057 1059 -1 1058 1059 1060 -1 1060 1059 1061 -1 1060 1061 1062 -1 1062 1061 1063 -1 1062 1063 1064 -1 1064 1063 1065 -1 1064 1065 1066 -1 1066 1065 1067 -1 1066 1067 1068 -1 1068 1067 1069 -1 1068 1069 1070 -1 1070 1069 1071 -1 1070 1071 1072 -1 1072 1071 1073 -1 1072 1073 1074 -1 1074 1073 1075 -1 1074 1075 1076 -1 1076 1075 1077 -1 1076 1077 1078 -1 1078 1077 1079 -1 1078 1079 1080 -1 1080 1079 1081 -1 1080 1081 1082 -1 1082 1081 1083 -1 1082 1083 1084 -1 1084 1083 1085 -1 1084 1085 1086 -1 1086 1085 1087 -1 1086 1087 1088 -1 1088 1087 1089 -1 1088 1089 1090 -1 1090 1089 1044 -1 1090 1044 1091 -1 1091 1044 399 -1 1091 399 398 -1 954 956 965 -1 965 956 1092 -1 965 1092 1093 -1 1093 1092 1094 -1 1093 1094 1095 -1 1095 1094 1096 -1 1095 1096 1097 -1 1097 1096 1098 -1 1097 1098 1099 -1 1099 1098 1100 -1 1099 1100 1101 -1 1101 1100 1102 -1 1101 1102 1103 -1 1103 1102 1104 -1 1103 1104 1105 -1 1105 1104 1106 -1 1105 1106 1107 -1 1107 1106 1108 -1 1107 1108 1109 -1 1109 1108 1110 -1 1109 1110 1111 -1 1111 1110 1112 -1 1111 1112 1113 -1 1113 1112 1114 -1 1113 1114 1115 -1 1115 1114 1116 -1 1115 1116 1117 -1 1117 1116 1118 -1 1117 1118 1119 -1 1119 1118 1120 -1 1119 1120 1121 -1 1121 1120 1122 -1 1121 1122 1123 -1 1123 1122 1124 -1 1123 1124 1125 -1 1125 1124 1126 -1 1125 1126 1127 -1 1127 1126 1128 -1 1127 1128 1129 -1 1129 1128 1130 -1 1129 1130 1131 -1 1131 1130 1132 -1 1131 1132 1133 -1 1133 1132 1134 -1 1133 1134 1135 -1 1135 1134 1136 -1 1135 1136 1137 -1 1137 1136 1138 -1 1137 1138 1139 -1 1139 1138 369 -1 1139 369 366 -1 135 137 1140 -1 1140 137 1141 -1 1140 1141 1142 -1 962 1143 960 -1 960 1143 1144 -1 960 1144 1145 -1 1145 1144 1146 -1 1145 1146 1147 -1 971 1148 972 -1 972 1148 1149 -1 972 1149 1150 -1 1151 961 1152 -1 1152 961 960 -1 1152 960 1153 -1 1153 960 1145 -1 1153 1145 1154 -1 1154 1145 1147 -1 1154 1147 1155 -1 1156 1157 1158 -1 977 1151 979 -1 979 1151 1152 -1 979 1152 980 -1 980 1152 1153 -1 980 1153 1159 -1 1159 1153 1154 -1 1159 1154 1160 -1 1160 1154 1155 -1 1160 1155 1161 -1 1158 1162 951 -1 948 950 1163 -1 1163 950 1164 -1 1163 1164 1165 -1 1165 1164 1166 -1 1165 1166 1167 -1 1167 1166 1168 -1 1167 1168 1169 -1 1169 1168 1170 -1 1169 1170 1171 -1 1171 1170 1172 -1 1171 1172 1173 -1 1173 1172 1174 -1 1173 1174 1175 -1 1175 1174 1176 -1 1175 1176 1177 -1 1177 1176 976 -1 1177 976 1178 -1 1178 976 978 -1 1178 978 1179 -1 1179 978 980 -1 1179 980 1180 -1 1180 980 1159 -1 1180 1159 1181 -1 1181 1159 1160 -1 1181 1160 1141 -1 1141 1160 1161 -1 1141 1161 1142 -1 139 141 1156 -1 1156 141 143 -1 1156 143 1157 -1 1157 143 145 -1 1157 145 1182 -1 1182 145 147 -1 1182 147 1183 -1 1183 147 149 -1 1183 149 1184 -1 1184 149 151 -1 1184 151 1185 -1 1158 1157 1162 -1 1162 1157 1182 -1 1162 1182 1186 -1 1186 1182 1183 -1 1186 1183 1187 -1 1187 1183 1184 -1 1187 1184 1188 -1 1188 1184 1185 -1 1188 1185 1189 -1 951 1162 952 -1 952 1162 1186 -1 952 1186 1190 -1 1190 1186 1187 -1 1190 1187 1191 -1 1191 1187 1188 -1 1191 1188 1192 -1 1192 1188 1189 -1 1192 1189 1193 -1 1194 1195 1196 -1 1194 153 1195 -1 1195 153 155 -1 1195 155 1197 -1 1197 155 157 -1 1197 157 1198 -1 1198 157 159 -1 1198 159 1199 -1 1199 159 160 -1 1196 1195 1200 -1 1200 1195 1197 -1 1200 1197 1201 -1 1201 1197 1198 -1 1201 1198 1202 -1 1202 1198 1199 -1 1202 1199 1203 -1 151 153 1185 -1 1185 153 1194 -1 1185 1194 1189 -1 1189 1194 1196 -1 1189 1196 1193 -1 1193 1196 1200 -1 1193 1200 1204 -1 1204 1200 1201 -1 1204 1201 1205 -1 1205 1201 1202 -1 1205 1202 1206 -1 1206 1202 1203 -1 1206 1203 1207 -1 164 166 1208 -1 953 952 1209 -1 1209 952 1190 -1 1209 1190 1210 -1 1210 1190 1191 -1 1210 1191 1211 -1 1211 1191 1192 -1 1211 1192 1212 -1 1212 1192 1193 -1 1212 1193 1213 -1 1213 1193 1204 -1 1213 1204 1214 -1 1214 1204 1205 -1 1214 1205 1215 -1 1215 1205 1206 -1 1215 1206 1216 -1 1216 1206 1207 -1 1216 1207 1217 -1 137 139 1141 -1 1141 139 1156 -1 1141 1156 1181 -1 1181 1156 1158 -1 1181 1158 1180 -1 1180 1158 951 -1 1180 951 1179 -1 1179 951 953 -1 1179 953 1178 -1 1178 953 1209 -1 1178 1209 1177 -1 1177 1209 1210 -1 1177 1210 1175 -1 1175 1210 1211 -1 1175 1211 1173 -1 1173 1211 1212 -1 1173 1212 1171 -1 1171 1212 1213 -1 1171 1213 1169 -1 1169 1213 1214 -1 1169 1214 1167 -1 1167 1214 1215 -1 1167 1215 1165 -1 1165 1215 1216 -1 1165 1216 1163 -1 1163 1216 1217 -1 1163 1217 948 -1 1218 1007 1219 -1 1219 1007 1006 -1 1219 1006 949 -1 949 1006 1004 -1 949 1004 950 -1 950 1004 1002 -1 950 1002 1164 -1 1164 1002 1000 -1 1164 1000 1166 -1 1166 1000 998 -1 1166 998 1168 -1 1168 998 996 -1 1168 996 1170 -1 1170 996 994 -1 1170 994 1172 -1 1172 994 992 -1 1172 992 1174 -1 1174 992 990 -1 1174 990 1176 -1 1176 990 988 -1 1176 988 976 -1 976 988 986 -1 976 986 977 -1 977 986 973 -1 977 973 1151 -1 1151 973 972 -1 1151 972 961 -1 961 972 1150 -1 961 1150 962 -1 170 173 1220 -1 160 162 1199 -1 1199 162 1221 -1 1199 1221 1203 -1 1203 1221 1222 -1 1203 1222 1207 -1 1207 1222 1223 -1 1207 1223 1217 -1 1217 1223 1224 -1 1217 1224 948 -1 948 1224 1225 -1 948 1225 949 -1 949 1225 1226 -1 949 1226 1219 -1 1219 1226 1227 -1 1219 1227 1218 -1 1218 1227 1228 -1 1218 1228 1229 -1 1229 1228 1230 -1 1229 1230 1231 -1 1231 1230 1232 -1 1231 1232 1233 -1 1233 1232 1234 -1 1233 1234 1235 -1 1235 1234 1236 -1 1235 1236 1237 -1 1237 1236 1238 -1 1237 1238 1239 -1 1239 1238 1240 -1 1239 1240 1241 -1 1241 1240 1242 -1 1241 1242 1243 -1 1243 1242 1244 -1 1243 1244 1245 -1 1245 1244 1246 -1 1245 1246 1247 -1 1247 1246 1043 -1 1247 1043 1248 -1 1248 1043 403 -1 1248 403 401 -1 947 1249 1250 -1 166 168 1208 -1 1208 168 1251 -1 1208 1251 1252 -1 1252 1251 1253 -1 1252 1253 1254 -1 1254 1253 1255 -1 1254 1255 1256 -1 1256 1255 1257 -1 1256 1257 1258 -1 1258 1257 1259 -1 1258 1259 1260 -1 1260 1259 1261 -1 947 176 1249 -1 1249 176 178 -1 1249 178 1262 -1 1262 178 184 -1 1262 184 1263 -1 1263 184 182 -1 1263 182 1264 -1 168 170 1251 -1 1251 170 1220 -1 1251 1220 1253 -1 1253 1220 1265 -1 1253 1265 1255 -1 1255 1265 1266 -1 1255 1266 1257 -1 1257 1266 1267 -1 1257 1267 1259 -1 1259 1267 1009 -1 1259 1009 1261 -1 1261 1009 1008 -1 182 180 1264 -1 1264 180 201 -1 1264 201 1268 -1 1268 201 200 -1 1268 200 1269 -1 1269 200 198 -1 1269 198 1270 -1 1250 1249 1271 -1 1271 1249 1262 -1 1271 1262 1272 -1 1272 1262 1263 -1 1272 1263 1273 -1 1273 1263 1264 -1 1273 1264 1274 -1 1274 1264 1268 -1 1274 1268 1275 -1 1275 1268 1269 -1 1275 1269 1276 -1 1276 1269 1270 -1 1276 1270 1277 -1 203 1278 204 -1 204 1278 1279 -1 204 1279 188 -1 188 1279 1280 -1 188 1280 190 -1 190 1280 1281 -1 190 1281 192 -1 192 1281 1282 -1 192 1282 194 -1 194 1282 1283 -1 194 1283 196 -1 198 196 1270 -1 1270 196 1283 -1 1270 1283 1277 -1 1277 1283 1282 -1 1277 1282 1284 -1 1284 1282 1281 -1 1284 1281 1285 -1 1285 1281 1280 -1 1285 1280 1286 -1 1286 1280 1279 -1 1286 1279 1287 -1 1287 1279 1278 -1 1287 1288 1286 -1 1286 1288 1289 -1 1286 1289 1285 -1 1285 1289 1290 -1 1285 1290 1284 -1 1284 1290 1291 -1 1284 1291 1277 -1 1277 1291 1292 -1 1277 1292 1276 -1 1276 1292 1293 -1 1276 1293 1275 -1 1275 1293 1294 -1 1275 1294 1274 -1 1274 1294 1295 -1 1274 1295 1273 -1 1273 1295 1296 -1 1273 1296 1272 -1 1272 1296 1297 -1 1272 1297 1271 -1 1271 1297 1298 -1 1271 1298 1250 -1 1288 1299 1289 -1 1289 1299 1300 -1 1289 1300 1290 -1 1290 1300 1301 -1 1290 1301 1291 -1 1291 1301 1302 -1 1291 1302 1292 -1 1292 1302 1303 -1 1292 1303 1293 -1 1293 1303 1304 -1 1293 1304 1294 -1 1294 1304 1305 -1 1294 1305 1295 -1 1295 1305 1306 -1 1295 1306 1296 -1 1296 1306 1307 -1 1296 1307 1297 -1 1297 1307 1308 -1 1297 1308 1298 -1 401 1044 1248 -1 1248 1044 1089 -1 1248 1089 1247 -1 1247 1089 1087 -1 1247 1087 1245 -1 1245 1087 1085 -1 1245 1085 1243 -1 1243 1085 1083 -1 1243 1083 1241 -1 1241 1083 1081 -1 1241 1081 1239 -1 1239 1081 1079 -1 1239 1079 1237 -1 1237 1079 1077 -1 1237 1077 1235 -1 1235 1077 1075 -1 1235 1075 1233 -1 1233 1075 1073 -1 1233 1073 1231 -1 1231 1073 1071 -1 1231 1071 1229 -1 1229 1071 1069 -1 1229 1069 1218 -1 1218 1069 1067 -1 1218 1067 1007 -1 1007 1067 1065 -1 1007 1065 1005 -1 1005 1065 1063 -1 1005 1063 1003 -1 1003 1063 1061 -1 1003 1061 1001 -1 1001 1061 1059 -1 1001 1059 999 -1 999 1059 1057 -1 999 1057 997 -1 997 1057 1055 -1 997 1055 995 -1 995 1055 1053 -1 995 1053 993 -1 993 1053 1051 -1 993 1051 991 -1 991 1051 1049 -1 991 1049 989 -1 989 1049 1047 -1 989 1047 987 -1 987 1047 1045 -1 987 1045 985 -1 985 1045 959 -1 985 959 971 -1 971 959 958 -1 971 958 1148 -1 968 967 970 -1 970 967 1309 -1 970 1309 974 -1 974 1309 1310 -1 974 1310 975 -1 975 1310 1311 -1 975 1311 981 -1 981 1311 1312 -1 981 1312 984 -1 984 1312 1313 -1 984 1313 983 -1 983 1313 1314 -1 983 1314 982 -1 982 1314 1315 -1 982 1315 1011 -1 1011 1315 1316 -1 1011 1316 1012 -1 1012 1316 1317 -1 1012 1317 1013 -1 1013 1317 1318 -1 1013 1318 1014 -1 1014 1318 1319 -1 1014 1319 1015 -1 1015 1319 1320 -1 1015 1320 1016 -1 1016 1320 1321 -1 1016 1321 1017 -1 1017 1321 1322 -1 1017 1322 1018 -1 1018 1322 1323 -1 1018 1323 1019 -1 1019 1323 1324 -1 1019 1324 1020 -1 1020 1324 1325 -1 1020 1325 946 -1 946 1325 1326 -1 946 1326 1021 -1 1021 1326 1327 -1 1021 1327 1022 -1 1022 1327 1328 -1 1022 1328 1023 -1 1023 1328 1329 -1 1023 1329 1024 -1 1024 1329 1330 -1 1024 1330 1025 -1 1025 1330 1331 -1 1025 1331 945 -1 945 1331 1332 -1 945 1332 944 -1 363 1299 381 -1 381 1299 1288 -1 381 1288 371 -1 371 1288 1287 -1 371 1287 372 -1 372 1287 1278 -1 372 1278 374 -1 374 1278 203 -1 374 203 71 -1 173 175 1220 -1 1220 175 947 -1 1220 947 1265 -1 1265 947 1250 -1 1265 1250 1266 -1 1266 1250 1298 -1 1266 1298 1267 -1 1267 1298 1308 -1 1267 1308 1009 -1 1009 1308 1307 -1 1009 1307 1010 -1 1010 1307 1306 -1 1010 1306 1027 -1 1027 1306 1305 -1 1027 1305 1029 -1 1029 1305 1304 -1 1029 1304 1031 -1 1031 1304 1303 -1 1031 1303 1033 -1 1033 1303 1302 -1 1033 1302 1035 -1 1035 1302 1301 -1 1035 1301 1037 -1 1037 1301 1300 -1 1037 1300 1039 -1 1039 1300 1299 -1 1039 1299 1041 -1 1041 1299 363 -1 1041 363 362 -1 162 164 1221 -1 1221 164 1208 -1 1221 1208 1222 -1 1222 1208 1252 -1 1222 1252 1223 -1 1223 1252 1254 -1 1223 1254 1224 -1 1224 1254 1256 -1 1224 1256 1225 -1 1225 1256 1258 -1 1225 1258 1226 -1 1226 1258 1260 -1 1226 1260 1227 -1 1227 1260 1261 -1 1227 1261 1228 -1 1228 1261 1008 -1 1228 1008 1230 -1 1230 1008 1026 -1 1230 1026 1232 -1 1232 1026 1028 -1 1232 1028 1234 -1 1234 1028 1030 -1 1234 1030 1236 -1 1236 1030 1032 -1 1236 1032 1238 -1 1238 1032 1034 -1 1238 1034 1240 -1 1240 1034 1036 -1 1240 1036 1242 -1 1242 1036 1038 -1 1242 1038 1244 -1 1244 1038 1040 -1 1244 1040 1246 -1 1246 1040 1042 -1 1246 1042 1043 -1 1043 1042 387 -1 1043 387 405 -1 955 964 956 -1 956 964 1046 -1 956 1046 1092 -1 1092 1046 1048 -1 1092 1048 1094 -1 1094 1048 1050 -1 1094 1050 1096 -1 1096 1050 1052 -1 1096 1052 1098 -1 1098 1052 1054 -1 1098 1054 1100 -1 1100 1054 1056 -1 1100 1056 1102 -1 1102 1056 1058 -1 1102 1058 1104 -1 1104 1058 1060 -1 1104 1060 1106 -1 1106 1060 1062 -1 1106 1062 1108 -1 1108 1062 1064 -1 1108 1064 1110 -1 1110 1064 1066 -1 1110 1066 1112 -1 1112 1066 1068 -1 1112 1068 1114 -1 1114 1068 1070 -1 1114 1070 1116 -1 1116 1070 1072 -1 1116 1072 1118 -1 1118 1072 1074 -1 1118 1074 1120 -1 1120 1074 1076 -1 1120 1076 1122 -1 1122 1076 1078 -1 1122 1078 1124 -1 1124 1078 1080 -1 1124 1080 1126 -1 1126 1080 1082 -1 1126 1082 1128 -1 1128 1082 1084 -1 1128 1084 1130 -1 1130 1084 1086 -1 1130 1086 1132 -1 1132 1086 1088 -1 1132 1088 1134 -1 1134 1088 1090 -1 1134 1090 1136 -1 1136 1090 1091 -1 1136 1091 1138 -1 1138 1091 398 -1 1138 398 369 -1 966 965 1333 -1 1333 965 1093 -1 1333 1093 1334 -1 1334 1093 1095 -1 1334 1095 1335 -1 1335 1095 1097 -1 1335 1097 1336 -1 1336 1097 1099 -1 1336 1099 1337 -1 1337 1099 1101 -1 1337 1101 1338 -1 1338 1101 1103 -1 1338 1103 1339 -1 1339 1103 1105 -1 1339 1105 1340 -1 1340 1105 1107 -1 1340 1107 1341 -1 1341 1107 1109 -1 1341 1109 1342 -1 1342 1109 1111 -1 1342 1111 1343 -1 1343 1111 1113 -1 1343 1113 1344 -1 1344 1113 1115 -1 1344 1115 1345 -1 1345 1115 1117 -1 1345 1117 1346 -1 1346 1117 1119 -1 1346 1119 1347 -1 1347 1119 1121 -1 1347 1121 1348 -1 1348 1121 1123 -1 1348 1123 1349 -1 1349 1123 1125 -1 1349 1125 1350 -1 1350 1125 1127 -1 1350 1127 1351 -1 1351 1127 1129 -1 1351 1129 1352 -1 1352 1129 1131 -1 1352 1131 1353 -1 1353 1131 1133 -1 1353 1133 1354 -1 1354 1133 1135 -1 1354 1135 1355 -1 1355 1135 1137 -1 1355 1137 1356 -1 1356 1137 1139 -1 1356 1139 1357 -1 1357 1139 366 -1 1357 366 365 -1 23 27 395 -1 395 27 944 -1 395 944 365 -1 365 944 1332 -1 365 1332 1357 -1 1357 1332 1331 -1 1357 1331 1356 -1 1356 1331 1330 -1 1356 1330 1355 -1 1355 1330 1329 -1 1355 1329 1354 -1 1354 1329 1328 -1 1354 1328 1353 -1 1353 1328 1327 -1 1353 1327 1352 -1 1352 1327 1326 -1 1352 1326 1351 -1 1351 1326 1325 -1 1351 1325 1350 -1 1350 1325 1324 -1 1350 1324 1349 -1 1349 1324 1323 -1 1349 1323 1348 -1 1348 1323 1322 -1 1348 1322 1347 -1 1347 1322 1321 -1 1347 1321 1346 -1 1346 1321 1320 -1 1346 1320 1345 -1 1345 1320 1319 -1 1345 1319 1344 -1 1344 1319 1318 -1 1344 1318 1343 -1 1343 1318 1317 -1 1343 1317 1342 -1 1342 1317 1316 -1 1342 1316 1341 -1 1341 1316 1315 -1 1341 1315 1340 -1 1340 1315 1314 -1 1340 1314 1339 -1 1339 1314 1313 -1 1339 1313 1338 -1 1338 1313 1312 -1 1338 1312 1337 -1 1337 1312 1311 -1 1337 1311 1336 -1 1336 1311 1310 -1 1336 1310 1335 -1 1335 1310 1309 -1 1335 1309 1334 -1 1334 1309 967 -1 1334 967 1333 -1 1333 967 969 -1 1333 969 966 -1 41 39 1358 -1 41 1358 1359 -1 1359 1358 136 -1 1359 136 135 -1 1360 1361 59 -1 59 1361 6 -1 59 6 4 -1 1360 59 1362 -1 1362 59 58 -1 1362 58 1363 -1 1363 58 1364 -1 1364 58 57 -1 1364 57 1365 -1 1365 57 1366 -1 1366 57 56 -1 1366 56 1367 -1 1367 56 1368 -1 1368 56 55 -1 1368 55 1369 -1 1369 55 54 -1 1369 54 1370 -1 1370 54 1371 -1 1371 54 45 -1 1371 45 1372 -1 1372 45 1373 -1 1373 45 44 -1 1373 44 1374 -1 1374 44 1375 -1 1375 44 40 -1 1375 40 41 -1 1375 41 1140 -1 1140 41 1359 -1 1140 1359 135 -1 1140 1142 1375 -1 1375 1142 1161 -1 1375 1161 1374 -1 1374 1161 1155 -1 1374 1155 1373 -1 1373 1155 1147 -1 1373 1147 1372 -1 1372 1147 1146 -1 1372 1146 1371 -1 1146 1144 1371 -1 1371 1144 1143 -1 1371 1143 1370 -1 1370 1143 962 -1 1370 962 1369 -1 1369 962 1150 -1 1369 1150 1368 -1 1368 1150 1149 -1 1368 1149 1367 -1 1367 1149 1148 -1 1367 1148 1366 -1 1366 1148 958 -1 1366 958 1365 -1 958 957 1365 -1 1365 957 963 -1 1365 963 1364 -1 1364 963 955 -1 1364 955 1363 -1 1363 955 954 -1 1363 954 1362 -1 1362 954 966 -1 1362 966 1360 -1 6 1361 968 -1 968 1361 1360 -1 968 1360 969 -1 969 1360 966 -1 943 108 559 -1 559 603 943 -1 943 603 590 -1 943 590 942 -1 942 590 563 -1 942 563 941 -1 941 563 562 -1 941 562 940 -1 562 564 940 -1 940 564 566 -1 940 566 939 -1 939 566 567 -1 939 567 938 -1 938 567 569 -1 938 569 937 -1 937 569 571 -1 937 571 936 -1 936 571 572 -1 936 572 935 -1 935 572 574 -1 935 574 934 -1 574 576 934 -1 934 576 578 -1 934 578 933 -1 933 578 790 -1 933 790 932 -1 932 790 518 -1 932 518 931 -1 136 1358 520 -1 520 1358 621 -1 518 517 931 -1 931 517 581 -1 931 581 930 -1 930 581 580 -1 930 580 929 -1 929 580 621 -1 929 621 928 -1 928 621 1358 -1 928 1358 39 -1 63 2 1376 -1 1376 2 1 -1 1376 1 1377 -1 1377 1 68 -1 1377 68 61 -1 61 68 62 -1 1377 1378 1376 -1 1376 1378 1379 -1 1376 1379 1380 -1 1378 1377 66 -1 66 1377 61 -1 64 1380 65 -1 65 1380 1379 -1 65 1379 66 -1 66 1379 1378 -1 1376 1380 63 -1 63 1380 64 -1 "
						                >
							<Coordinate DEF="coords_ME_OMLV4_Packing_-_For_Xander_-_AIM-120_LAU176_Pylon_Assy-1_LAU179"
							            point="325.654480 82.892075 246.884415 326.353729 82.193130 246.884415 414.238098 82.193130 246.884415 415.113525 82.734825 246.884415 415.113525 87.891579 246.884415 414.238098 82.734825 246.884415 314.998932 87.891579 246.884415 313.742340 87.773834 246.884415 310.474731 84.276970 246.884415 310.560852 84.181679 246.884415 310.630310 84.073662 246.884415 310.681274 83.955788 246.884415 311.445862 83.703201 246.884415 310.712433 83.831200 246.884415 310.722900 83.703201 246.884415 311.445862 82.892075 246.884415 313.211304 87.665527 246.884415 312.605011 87.490082 246.884415 310.374298 84.357002 246.884415 312.350250 87.396957 246.884415 311.816864 87.155525 246.884415 310.262177 84.419632 246.884415 311.118591 86.717514 246.884415 310.141388 84.463211 246.884415 310.306030 86.008812 246.884415 309.939209 85.591141 246.884415 309.675690 85.067856 246.884415 309.944000 84.531631 246.884415 309.843445 84.584045 246.884415 309.781525 85.345642 246.884415 309.703949 85.168602 246.884415 309.714355 84.701401 246.884415 309.743408 84.664330 246.884415 309.783508 84.626556 246.884415 309.659393 84.949944 246.884415 309.661499 84.859756 246.884415 309.674286 84.791237 246.884415 309.690277 84.745720 246.884415 415.113525 88.678986 242.671814 314.998932 88.678986 242.671814 415.113525 88.678986 246.097015 314.998932 88.678986 246.097015 415.113525 82.734825 241.884415 415.113525 87.891579 241.884415 415.113525 88.667023 246.233734 415.113525 88.631500 246.366318 415.113525 88.397713 242.068634 415.113525 88.285286 241.989899 415.113525 88.028313 241.896378 415.113525 88.160889 241.931900 415.113525 88.494766 242.165680 415.113525 88.573494 242.278107 415.113525 88.631500 242.402512 415.113525 88.667023 242.535080 415.113525 88.573494 246.490707 415.113525 88.494766 246.603134 415.113525 88.397713 246.700195 415.113525 88.285286 246.778915 415.113525 88.160889 246.836929 415.113525 88.028313 246.872452 414.238098 82.734825 241.884415 414.238098 82.193130 243.459213 414.238098 82.193130 241.884415 414.238098 82.193130 245.309601 414.238098 80.773064 245.309601 414.238098 80.834480 244.384415 414.238098 80.773064 243.459213 325.654480 82.892075 241.884415 326.353729 82.193130 241.884415 311.445862 82.892075 241.884415 311.445862 83.703201 241.884415 309.935486 83.703201 246.097015 309.935486 83.703201 242.671814 310.040985 83.703201 242.278107 310.063843 83.703201 242.240936 310.040985 83.703201 246.490707 310.063843 83.703201 246.527878 310.216766 83.703201 246.700195 310.166138 83.703201 246.653778 310.579620 83.703201 246.871262 310.023468 83.703201 246.458664 309.982971 83.703201 246.366318 309.965881 83.703201 246.313675 310.586182 83.703201 246.872452 310.119720 83.703201 246.603134 309.947449 83.703201 246.233734 309.938690 83.703201 246.167755 309.938690 83.703201 242.601059 309.947449 83.703201 242.535080 309.965881 83.703201 242.455154 309.982971 83.703201 242.402512 310.023468 83.703201 242.310165 310.506226 83.703201 241.914810 310.586182 83.703201 241.896378 310.722900 83.703201 241.884415 310.453583 83.703201 246.836929 310.433075 83.703201 246.829132 310.329193 83.703201 246.778915 310.292023 83.703201 246.756058 310.119720 83.703201 242.165680 310.166138 83.703201 242.115036 310.216766 83.703201 242.068634 310.329193 83.703201 241.989899 310.361237 83.703201 241.972382 310.453583 83.703201 241.931900 310.208710 85.908157 241.884415 310.951447 86.588829 241.884415 310.088501 84.478447 241.884415 314.998932 87.891579 241.884415 310.712433 83.831200 241.884415 310.630310 84.073662 241.884415 310.560852 84.181679 241.884415 310.681274 83.955788 241.884415 310.374298 84.357002 241.884415 310.262177 84.419632 241.884415 311.715485 87.101456 241.884415 310.141388 84.463211 241.884415 312.350220 87.396889 241.884415 312.488495 87.449059 241.884415 310.474731 84.276970 241.884415 313.487000 87.726639 241.884415 314.098907 87.825592 241.884415 309.681641 85.093262 241.884415 309.730225 85.237602 241.884415 309.815186 85.405907 241.884415 310.004700 85.675659 241.884415 309.667908 84.818024 241.884415 309.916016 84.544563 241.884415 309.659241 84.888260 241.884415 309.661621 84.979424 241.884415 309.727356 84.683350 241.884415 309.760864 84.646553 241.884415 309.818329 84.600410 241.884415 309.702301 84.721321 241.884415 309.682831 84.764381 241.884415 314.978638 88.678719 246.097015 314.978638 88.678719 242.671814 314.002228 88.607048 246.097015 314.002228 88.607056 242.671814 313.469971 88.525261 246.097015 313.469971 88.525261 242.671814 313.026611 88.431053 246.097015 312.369629 88.241737 242.671814 312.369629 88.241737 246.097015 312.063263 88.130127 242.671814 311.592224 87.923950 246.097015 311.371063 87.810455 242.671814 311.371063 87.810455 246.097015 311.134613 87.675591 242.671814 310.700989 87.387779 246.097015 310.502625 87.237762 242.671814 310.502625 87.237762 246.097015 310.301178 87.073814 242.671814 309.930939 86.743057 246.097015 309.595001 86.404541 242.671814 309.595001 86.404541 246.097015 309.574646 86.382355 242.671814 309.396667 86.176010 246.097015 309.225006 85.945084 242.671814 309.225006 85.945084 246.097015 309.053009 85.650070 246.097015 309.053009 85.650040 242.671814 309.033264 85.608528 246.097015 309.033264 85.608528 242.671814 308.978943 85.479080 246.097015 308.978973 85.479172 242.671814 308.936035 85.351364 246.097015 308.936035 85.351364 242.671814 308.917847 85.284576 246.097015 308.917908 85.284821 242.671814 308.882141 85.093964 246.097015 308.882141 85.093964 242.671814 308.878540 85.061783 242.671814 308.871277 84.937553 246.097015 308.871735 84.876732 242.671814 308.871735 84.876732 246.097015 308.876099 84.801476 246.097015 308.876099 84.801445 242.671814 308.892487 84.680710 246.097015 309.012268 84.342018 242.671814 308.988495 84.387756 246.097015 308.948669 84.479576 242.671814 308.939728 84.503891 246.097015 308.939728 84.503891 242.671814 308.919312 84.567375 246.097015 308.898590 84.650009 242.671814 308.892487 84.680710 242.671814 309.590912 83.827286 242.671814 309.502533 83.871887 246.097015 309.384399 83.943298 242.671814 309.384399 83.943298 246.097015 309.286041 84.016197 242.671814 309.286041 84.016190 246.097015 309.229370 84.065514 242.671814 309.229370 84.065514 246.097015 309.162079 84.133232 242.671814 309.162079 84.133232 246.097015 309.109436 84.195274 242.671814 309.109436 84.195274 246.097015 309.039307 84.295647 242.671814 309.039307 84.295654 246.097015 309.012268 84.342018 246.097015 309.773804 83.753098 242.671814 309.773804 83.753098 246.097015 309.590912 83.827286 246.097015 309.988678 83.899467 242.143814 309.995789 83.925766 242.115097 310.024292 83.916054 242.115036 310.211395 84.364616 241.887589 309.937103 83.705956 242.601059 309.937073 83.705940 242.601456 310.357635 83.758659 241.972382 310.289001 83.749641 242.012756 310.279938 83.795288 242.012756 310.224121 83.741119 242.060516 310.164154 83.733238 242.115036 310.158295 83.762772 242.115036 310.062744 83.719917 242.240936 309.938660 83.703613 242.601059 310.216736 83.778389 242.060516 310.574127 83.787102 241.897552 310.501373 83.777542 241.914810 310.486877 83.850616 241.914810 310.428833 83.768013 241.939697 310.346802 83.813171 241.972382 309.938568 83.704025 242.601059 309.948517 83.704910 242.528534 309.938446 83.704414 242.601059 309.948212 83.706596 242.528534 309.965637 83.707161 242.455154 309.938263 83.704788 242.601059 309.947662 83.708221 242.528534 309.964874 83.711052 242.455154 309.990326 83.710403 242.381973 310.046722 83.767250 242.240936 310.088104 83.791084 242.175507 310.098236 83.770454 242.175507 309.938019 83.705139 242.601059 309.946899 83.709763 242.528534 309.963593 83.714806 242.455154 309.988922 83.717484 242.381973 310.022705 83.714661 242.310165 310.075348 83.810211 242.175507 310.037445 83.781197 242.240936 310.005371 83.756653 242.310165 309.937744 83.705452 242.601059 309.945953 83.711189 242.528534 309.961853 83.718369 242.455154 309.986603 83.724312 242.381973 310.020477 83.725922 242.310165 310.060211 83.827515 242.175507 310.026398 83.793808 242.240936 309.997803 83.765297 242.310165 309.974670 83.742226 242.381973 310.042969 83.842705 242.175507 310.013824 83.804878 242.240936 309.989197 83.772888 242.310165 309.969238 83.746994 242.381973 309.954041 83.727280 242.455154 309.937439 83.705727 242.601059 309.943512 83.713615 242.528534 309.944824 83.712479 242.528534 309.957031 83.724655 242.455154 309.959625 83.721672 242.455154 309.979401 83.736794 242.381973 309.983398 83.730789 242.381973 310.011719 83.747101 242.310165 310.016785 83.736794 242.310165 310.054108 83.752220 242.240936 310.059479 83.736351 242.240936 310.105621 83.748688 242.175507 310.110107 83.726135 242.175507 309.936035 83.705200 242.615097 310.023895 83.855515 242.175507 309.999908 83.814217 242.240936 309.979645 83.779282 242.310165 309.963257 83.751015 242.381973 309.950745 83.729492 242.455154 309.942108 83.714569 242.528534 310.557770 83.869568 241.897552 310.462982 83.921181 241.914810 310.530792 83.949203 241.897552 310.430084 83.988029 241.914810 310.493683 84.024651 241.897552 310.388763 84.050026 241.914810 310.447052 84.094620 241.897552 310.339752 84.106110 241.914810 310.391724 84.157913 241.897552 310.283813 84.155334 241.914810 310.328583 84.213463 241.897552 310.221954 84.196846 241.914810 310.258789 84.260323 241.897552 310.155212 84.229958 241.914810 310.183472 84.297684 241.897552 310.003296 83.865730 242.175507 309.984894 83.821655 242.240936 309.969360 83.784386 242.310165 309.956787 83.754227 242.381973 309.947205 83.731255 242.455154 309.940552 83.715332 242.528534 310.148651 83.791283 242.115036 310.204529 83.814377 242.060516 310.135345 83.818291 242.115036 310.187775 83.848473 242.060516 310.118652 83.843346 242.115036 310.166687 83.880096 242.060516 310.098846 83.866005 242.115036 310.141693 83.908707 242.060516 310.076233 83.885895 242.115036 310.113159 83.933807 242.060516 310.051239 83.902672 242.115036 310.081604 83.954987 242.060516 310.047577 83.971870 242.060516 310.013245 83.990242 242.055420 310.265015 83.839363 242.012756 310.328979 83.865807 241.972382 310.244446 83.881126 242.012756 310.304443 83.915672 241.972382 310.218658 83.919853 242.012756 310.273621 83.961922 241.972382 310.188019 83.954887 242.012756 310.237061 84.003754 241.972382 310.153076 83.985634 242.012756 310.195343 84.040474 241.972382 310.114441 84.011574 242.012756 310.149170 84.071442 241.972382 310.072754 84.032249 242.012756 310.099396 84.096138 241.972382 310.028717 84.047340 242.012741 310.041840 84.095711 241.982620 310.105743 84.331665 241.896255 310.072723 84.209732 241.929504 310.127045 84.162415 241.939697 310.185211 84.133553 241.939697 310.239166 84.097359 241.939697 310.287903 84.054451 241.939697 310.330658 84.005554 241.939697 310.366669 83.951508 241.939697 310.395355 83.893234 241.939697 310.416168 83.831718 241.939697 309.936493 83.706902 242.594635 309.981567 83.873230 242.175552 309.968048 83.823364 242.246994 309.958496 83.788109 242.310196 309.951996 83.764091 242.363052 309.943451 83.732597 242.455261 309.941345 83.724770 242.485947 309.938965 83.715973 242.528549 310.646057 83.796547 241.887589 310.627838 83.888306 241.887589 310.597809 83.976906 241.887589 310.556519 84.060844 241.887589 310.504639 84.138687 241.887589 310.443085 84.209114 241.887589 310.372864 84.270920 241.887589 310.295197 84.323051 241.887589 310.627838 83.888306 246.881226 310.597809 83.976906 246.881226 310.372864 84.270920 246.881226 310.295197 84.323051 246.881226 309.937103 83.705956 246.167755 309.937439 83.705727 246.167755 309.961182 83.797997 246.477753 309.949951 83.756592 246.386841 309.956787 83.754227 246.386841 310.092773 84.283806 246.862061 310.060638 84.165184 246.821320 310.127045 84.162415 246.829132 310.099396 84.096138 246.796448 310.044342 84.104942 246.791412 310.072754 84.032249 246.756058 309.944366 83.735909 246.325577 309.938599 83.714630 246.233292 309.941406 83.714668 246.238998 309.936493 83.706841 246.174194 309.937073 83.706017 246.168137 309.942108 83.714569 246.240280 309.937744 83.705452 246.167755 309.943512 83.713615 246.240280 309.950745 83.729492 246.313675 309.947205 83.731255 246.313675 309.947296 83.746727 246.359619 309.938019 83.705139 246.167755 309.944824 83.712479 246.240280 309.954041 83.727280 246.313675 309.963257 83.751015 246.386841 309.969360 83.784386 246.458664 309.970184 83.831276 246.534470 309.990326 83.710403 246.386841 310.022705 83.714661 246.458664 310.062744 83.719917 246.527878 309.938660 83.703613 246.167755 309.948517 83.704910 246.240280 309.965637 83.707161 246.313675 310.211395 84.364616 246.881226 310.126556 84.408463 246.882339 310.183472 84.297684 246.871262 310.155212 84.229958 246.854019 310.030304 84.053177 246.759918 310.028717 84.047356 246.756012 310.047577 83.971870 246.708313 310.003326 83.953575 246.681076 310.024292 83.916054 246.653778 309.995789 83.925819 246.653778 310.003296 83.865730 246.593307 309.980225 83.868256 246.587036 309.984894 83.821655 246.527878 310.258789 84.260323 246.871262 310.221954 84.196846 246.854019 310.185211 84.133553 246.829132 310.149170 84.071442 246.796448 310.114441 84.011574 246.756058 310.081604 83.954987 246.708313 310.051239 83.902672 246.653778 310.023895 83.855515 246.593307 309.999908 83.814217 246.527878 309.979645 83.779282 246.458664 310.328583 84.213463 246.871262 310.283813 84.155334 246.854019 310.239166 84.097359 246.829132 310.195343 84.040474 246.796448 310.153076 83.985634 246.756058 310.113159 83.933807 246.708313 310.076233 83.885895 246.653778 310.042969 83.842705 246.593307 310.013824 83.804878 246.527878 309.989197 83.772888 246.458664 309.969238 83.746994 246.386841 310.443085 84.209114 246.881226 310.391724 84.157913 246.871262 310.339752 84.106110 246.854019 310.287903 84.054451 246.829132 310.237061 84.003754 246.796448 310.188019 83.954887 246.756058 310.141693 83.908707 246.708313 310.098846 83.866005 246.653778 310.060211 83.827515 246.593307 310.026398 83.793808 246.527878 309.997803 83.765297 246.458664 309.974670 83.742226 246.386841 309.957031 83.724655 246.313675 310.504639 84.138687 246.881226 310.447052 84.094620 246.871262 310.388763 84.050026 246.854019 310.330658 84.005554 246.829132 310.273621 83.961922 246.796448 310.218658 83.919853 246.756058 310.166687 83.880096 246.708313 310.118652 83.843346 246.653778 310.075348 83.810211 246.593307 310.037445 83.781197 246.527878 310.005371 83.756653 246.458664 309.979401 83.736794 246.386841 309.959625 83.721672 246.313675 309.945953 83.711189 246.240280 310.556519 84.060844 246.881226 310.493683 84.024651 246.871262 310.430084 83.988029 246.854019 310.366669 83.951508 246.829132 310.304443 83.915672 246.796448 310.244446 83.881126 246.756058 310.187775 83.848473 246.708313 310.135345 83.818291 246.653778 310.088104 83.791084 246.593307 310.046722 83.767250 246.527878 310.011719 83.747101 246.458664 309.983398 83.730789 246.386841 309.961853 83.718369 246.313675 309.946899 83.709763 246.240280 309.938263 83.704788 246.167755 310.530792 83.949203 246.871262 310.462982 83.921181 246.854019 310.395355 83.893234 246.829132 310.328979 83.865807 246.796448 310.265015 83.839363 246.756058 310.204529 83.814377 246.708313 310.148651 83.791283 246.653778 310.098236 83.770454 246.593307 310.054108 83.752220 246.527878 310.016785 83.736794 246.458664 309.986603 83.724312 246.386841 309.963593 83.714806 246.313675 309.947662 83.708221 246.240280 309.938446 83.704414 246.167755 310.557770 83.869568 246.871262 310.486877 83.850616 246.854019 310.416168 83.831718 246.829132 310.346802 83.813171 246.796448 310.279938 83.795288 246.756058 310.216736 83.778389 246.708313 310.158295 83.762772 246.653778 310.105621 83.748688 246.593307 310.059479 83.736351 246.527878 310.020477 83.725922 246.458664 309.988922 83.717484 246.386841 309.964874 83.711052 246.313675 309.948212 83.706596 246.240280 309.938568 83.704025 246.167755 310.646057 83.796547 246.881226 310.574127 83.787102 246.871262 310.501373 83.777542 246.854019 310.428833 83.768013 246.829132 310.357635 83.758659 246.796448 310.289001 83.749641 246.756058 310.224121 83.741119 246.708313 310.164154 83.733238 246.653778 310.110107 83.726135 246.593307 311.182556 87.595940 242.300629 311.203064 87.561874 242.234375 310.779083 87.280418 242.234375 309.775085 83.756752 242.594635 309.056488 85.043755 242.172302 309.010681 85.048393 242.234375 309.046509 85.252563 242.234375 309.056488 85.648346 242.594635 312.064636 88.126572 242.594635 314.009613 88.547508 242.370468 314.980194 88.618767 242.370468 314.980835 88.594269 242.317017 314.002716 88.603226 242.594635 314.978760 88.674889 242.594635 313.027527 88.427338 242.594635 312.543549 88.294113 242.594635 311.226807 87.522423 242.172302 310.806152 87.243179 242.172302 311.136566 87.672340 242.594635 310.703247 87.384689 242.594635 310.303650 87.070869 242.594635 310.416351 86.937019 242.172302 310.386688 86.972244 242.234375 309.706696 86.261826 242.172302 309.672668 86.292870 242.234375 309.535706 86.063629 242.172302 309.499908 86.092598 242.234375 309.368774 85.838333 242.172302 309.330536 85.863983 242.234375 309.213684 85.571526 242.172302 309.172302 85.591743 242.234375 309.577454 86.379784 242.594635 309.399689 86.173706 242.594635 309.223480 85.935822 242.594635 309.091187 85.241356 242.172302 309.194916 85.397591 242.115021 309.141479 85.228737 242.115021 309.311676 85.523643 242.063095 308.921417 85.283936 242.594635 308.982758 85.477745 242.594635 309.003906 84.935509 242.234375 309.049957 84.934837 242.172302 309.008331 84.812950 242.234375 308.879852 84.801773 242.594635 308.874939 84.937370 242.594635 308.882416 85.061401 242.594635 308.902405 84.650833 242.594635 308.980438 84.491684 242.443237 308.976929 84.584076 242.370468 309.004730 84.500931 242.370468 308.989624 84.669395 242.300629 309.035614 84.512688 242.300629 314.997437 87.949593 241.886536 314.089417 87.902191 241.888184 314.061920 88.124611 241.944382 314.990906 88.202705 241.948578 314.992767 88.130600 241.921585 314.989807 88.246284 241.968933 314.053345 88.193939 241.977417 314.989380 88.262611 241.977417 314.987976 88.316742 242.009155 314.045197 88.259735 242.017090 314.987030 88.353081 242.033905 314.037567 88.321335 242.063095 314.985291 88.420578 242.088715 314.984589 88.448128 242.115021 314.030548 88.378105 242.115021 314.983002 88.509766 242.184494 314.024200 88.429573 242.172302 314.982513 88.529213 242.210251 314.018524 88.475273 242.234375 314.982086 88.545998 242.234375 314.006409 88.573296 242.443237 314.979523 88.644745 242.443237 314.979797 88.634659 242.412231 313.057770 88.302002 242.234375 313.068542 88.257240 242.172302 313.080719 88.206825 242.115021 313.094116 88.151207 242.063095 313.108673 88.090874 242.017090 313.124237 88.026421 241.977417 313.140625 87.958511 241.944382 314.070831 88.052422 241.918289 314.994110 88.078362 241.906860 313.193176 87.740646 241.888184 312.753235 87.619576 241.888184 312.730560 87.692566 241.899490 312.581818 88.170998 242.234375 312.595490 88.127029 242.172302 312.610901 88.077499 242.115021 312.627869 88.022873 242.063095 312.646301 87.963608 242.017090 312.665985 87.900291 241.977417 312.686707 87.833588 241.944382 313.157654 87.887802 241.918289 314.080048 87.978050 241.899490 314.995911 88.008865 241.893158 312.266907 87.609734 241.918289 312.294220 87.539948 241.899490 312.322083 87.468765 241.888184 312.111633 88.006508 242.234375 312.128418 87.963631 242.172302 312.147308 87.915337 242.115021 312.168152 87.862061 242.063095 312.190796 87.804260 242.017090 312.214935 87.742523 241.977417 312.240417 87.677467 241.944382 312.708313 87.764130 241.918289 313.175232 87.814949 241.899490 311.593933 87.920494 242.594635 312.068787 88.115967 242.518204 312.546936 88.283241 242.518204 313.030182 88.416267 242.518204 314.004120 88.591927 242.518204 314.978943 88.667206 242.538101 311.598907 87.910263 242.518204 312.075653 88.098488 242.443237 312.552521 88.265320 242.443237 313.034607 88.398026 242.443237 310.870300 87.154968 242.063095 311.283051 87.428970 242.063095 310.906799 87.104767 242.017090 311.315033 87.375793 242.017090 310.945801 87.051147 241.977417 311.349243 87.318985 241.977417 310.986877 86.994652 241.944382 311.385254 87.259132 241.944382 311.422760 87.196808 241.918289 310.486603 86.853592 242.063095 310.526581 86.806114 242.017090 310.569275 86.755402 241.977417 310.614288 86.701965 241.944382 311.029663 86.935829 241.918289 311.461426 87.132599 241.899490 309.787262 86.188301 242.063095 309.833099 86.146461 242.017090 309.882080 86.101768 241.977417 309.933655 86.054672 241.944382 310.661133 86.646324 241.918289 311.073761 86.875221 241.899490 311.500824 87.067108 241.888184 311.118713 86.813400 241.888184 310.709381 86.589005 241.899490 309.987396 86.005638 241.918289 309.774597 85.870300 241.944382 309.720276 85.914253 241.977417 309.668732 85.955963 242.017090 309.620483 85.995010 242.063095 310.758636 86.530533 241.888184 310.042755 85.955124 241.899490 309.831146 85.824539 241.918289 309.623932 85.667130 241.944382 309.565918 85.706047 241.977417 309.510864 85.742989 242.017090 309.459320 85.777565 242.063095 310.099213 85.903595 241.888184 309.889374 85.777397 241.899490 309.684326 85.626602 241.918289 309.489746 85.436615 241.944382 309.427002 85.467285 241.977417 309.367432 85.496391 242.017090 309.146423 85.415916 242.172302 309.260254 85.548759 242.115021 309.411835 85.809441 242.115021 309.576019 86.030998 242.115021 309.744995 86.226868 242.115021 310.449768 86.897354 242.115021 310.836670 87.201233 242.115021 311.253540 87.477982 242.115021 309.948822 85.729309 241.888184 309.746552 85.584854 241.899490 309.555115 85.404686 241.918289 309.389313 85.166580 241.944382 309.321533 85.183578 241.977417 309.257202 85.199715 242.017090 309.196991 85.214813 242.063095 309.810028 85.542267 241.888184 309.622437 85.371780 241.899490 309.459869 85.148880 241.918289 309.362183 85.012756 241.944382 309.292694 85.019798 241.977417 309.226746 85.026489 242.017090 309.165009 85.032753 242.063095 309.108093 85.038521 242.115021 309.103363 85.432190 242.234375 309.054199 84.816940 242.172302 309.073547 84.687248 242.172302 309.028503 84.677666 242.234375 309.115784 84.543221 242.172302 309.072754 84.526833 242.234375 309.691101 85.338226 241.888184 309.606750 85.112038 241.888184 309.532593 85.130638 241.899490 309.509094 84.997856 241.899490 309.434540 85.005417 241.918289 309.432831 84.849869 241.918289 309.360352 84.843567 241.944382 309.374084 84.751205 241.944382 309.290741 84.837517 241.977417 309.305756 84.736671 241.977417 309.224701 84.831772 242.017090 309.240906 84.722870 242.017090 309.162872 84.826393 242.063095 309.180206 84.709953 242.063095 309.105865 84.821434 242.115021 309.124268 84.698044 242.115021 308.923004 84.568451 242.594635 308.913544 84.653206 242.518204 308.891205 84.802765 242.518204 308.886353 84.937210 242.518204 308.893768 85.060257 242.518204 308.932465 85.281174 242.518204 308.993408 85.473724 242.518204 309.066711 85.643349 242.518204 309.232910 85.929474 242.518204 309.408539 86.166542 242.518204 309.585846 86.372108 242.518204 310.310974 87.062157 242.518204 310.709930 87.375481 242.518204 311.142426 87.662582 242.518204 311.607117 87.893387 242.443237 312.085114 88.074295 242.370468 312.560211 88.240509 242.370468 313.040680 88.372765 242.370468 309.585144 84.990150 241.888184 309.507477 84.856369 241.899490 309.445221 84.766342 241.918289 309.402954 84.652580 241.944382 309.337677 84.627716 241.977417 309.275726 84.604126 242.017090 309.217712 84.582039 242.063095 309.164246 84.561676 242.115021 310.755676 87.312576 242.300629 310.361084 87.002663 242.300629 309.643311 86.319672 242.300629 309.468994 86.117615 242.300629 309.297516 85.886139 242.300629 309.136597 85.609200 242.300629 309.066162 85.446236 242.300629 309.007904 85.262238 242.300629 308.971130 85.052406 242.300629 308.964142 84.936081 242.300629 308.968689 84.809502 242.300629 311.632996 87.840340 242.300629 311.165527 87.624237 242.370468 310.736267 87.339287 242.370468 310.339813 87.027924 242.370468 309.618927 86.341942 242.370468 309.443329 86.138390 242.370468 309.270081 85.904541 242.370468 309.106903 85.623695 242.370468 309.035278 85.457909 242.370468 308.975891 85.270279 242.370468 308.938263 85.055740 242.370468 308.931091 84.936562 242.370468 308.935791 84.806648 242.370468 308.957306 84.662521 242.370468 308.951965 84.576843 242.443237 308.962921 84.485008 242.518204 309.164948 84.135834 242.594635 309.101776 84.211456 242.594635 309.042572 84.297661 242.594635 308.991974 84.389450 242.594635 308.952271 84.480949 242.594635 308.933929 84.571625 242.518204 308.931885 84.657112 242.443237 308.909912 84.804398 242.443237 308.905121 84.936935 242.443237 308.912415 85.058365 242.443237 308.950653 85.276604 242.443237 309.010956 85.467087 242.443237 309.083557 85.635109 242.443237 309.248505 85.919022 242.443237 309.423126 86.154739 242.443237 309.599731 86.359459 242.443237 310.323059 87.047798 242.443237 310.720978 87.360306 242.443237 311.152100 87.646500 242.443237 311.618530 87.870026 242.370468 312.097137 88.043541 242.300629 312.570038 88.208969 242.300629 313.048431 88.340660 242.300629 314.013672 88.514732 242.300629 314.981171 88.581268 242.292358 309.583649 84.862991 241.888184 309.518524 84.781944 241.899490 309.470947 84.678459 241.918289 309.425140 84.601456 241.944382 309.362396 84.570747 241.977417 309.302826 84.541603 242.017090 309.247101 84.514320 242.063095 309.195709 84.489166 242.115021 309.149139 84.466370 242.172302 309.107758 84.446129 242.234375 309.072052 84.428650 242.300629 309.042389 84.414131 242.370468 309.019043 84.402710 242.443237 309.002197 84.394455 242.518204 309.593262 84.797852 241.888184 309.540955 84.705132 241.899490 309.490448 84.633430 241.918289 309.452972 84.550957 241.944382 309.393524 84.514267 241.977417 309.337097 84.479446 242.017090 309.284271 84.446846 242.063095 309.235596 84.416801 242.115021 309.191467 84.389565 242.172302 309.152283 84.365379 242.234375 309.118439 84.344498 242.300629 309.090332 84.327148 242.370468 309.068237 84.313499 242.443237 309.052277 84.303642 242.518204 309.612396 84.732330 241.888184 309.557770 84.666374 241.899490 309.514862 84.589157 241.918289 309.485565 84.503510 241.944382 309.429962 84.461205 241.977417 309.377197 84.421059 242.017090 309.327820 84.383469 242.063095 309.282288 84.348824 242.115021 309.241028 84.317421 242.172302 309.204376 84.289536 242.234375 309.172729 84.265457 242.300629 309.146454 84.245453 242.370468 309.125763 84.229721 242.443237 309.110840 84.218353 242.518204 309.626434 84.699974 241.888184 309.578644 84.628517 241.899490 309.543457 84.547554 241.918289 309.520996 84.461113 241.944382 309.469421 84.413994 241.977417 309.420471 84.369278 242.017090 309.374634 84.327415 242.063095 309.332397 84.288826 242.115021 309.294128 84.253845 242.172302 309.260132 84.222794 242.234375 309.230774 84.195969 242.300629 309.206390 84.173691 242.370468 309.187195 84.156166 242.443237 309.173340 84.143509 242.518204 309.227722 84.072235 242.594635 309.643677 84.668663 241.888184 309.663910 84.639229 241.888184 309.603088 84.592934 241.899490 309.630005 84.560715 241.899490 309.574677 84.510170 241.918289 309.639801 84.448807 241.918289 309.593750 84.392502 241.944382 309.665222 84.340324 241.944382 309.549530 84.338425 241.977417 309.627014 84.281845 241.977417 309.507568 84.287102 242.017090 309.590759 84.226341 242.017090 309.468292 84.239059 242.063095 309.556793 84.174385 242.063095 309.432068 84.194771 242.115021 309.525513 84.126495 242.115021 309.399231 84.154625 242.172302 309.497131 84.083084 242.172302 309.370087 84.118980 242.234375 309.471954 84.044533 242.234375 309.344910 84.088196 242.300629 309.450195 84.011246 242.300629 309.324005 84.062630 242.370468 309.432129 83.983597 242.370468 309.307556 84.042511 242.443237 309.417908 83.961845 242.443237 309.295685 84.027985 242.518204 309.407654 83.946129 242.518204 309.288483 84.019173 242.594635 309.401428 83.936600 242.594635 309.841675 84.495911 241.888184 309.686432 84.612267 241.888184 309.687256 84.506821 241.899490 309.705017 84.401215 241.918289 309.734680 84.298996 241.944382 309.701324 84.237625 241.977417 309.669647 84.179367 242.017090 309.640015 84.124840 242.063095 309.612701 84.074577 242.115021 309.587952 84.029007 242.172302 309.565948 83.988548 242.234375 309.546967 83.953613 242.300629 309.531189 83.924599 242.370468 309.518799 83.901764 242.443237 309.509827 83.885277 242.518204 309.504395 83.875275 242.594635 309.735626 84.565994 241.888184 309.746033 84.463951 241.899490 309.769409 84.362907 241.918289 309.802429 84.264992 241.944382 309.773102 84.201591 241.977417 309.745270 84.141418 242.017090 309.719208 84.085083 242.063095 309.695160 84.033165 242.115021 309.673401 83.986099 242.172302 309.654053 83.944305 242.234375 309.637360 83.908218 242.300629 309.623474 83.878242 242.370468 309.612579 83.854660 242.443237 309.604675 83.837624 242.518204 309.599915 83.827293 242.594635 309.958221 84.280655 241.918289 309.982941 84.351395 241.899490 309.864471 84.399017 241.899490 309.896545 84.468391 241.888184 309.787842 84.527939 241.888184 309.805176 84.428749 241.899490 309.832977 84.331001 241.918289 309.934204 84.211998 241.944382 309.911163 84.146049 241.977417 309.889282 84.083466 242.017090 309.868805 84.024879 242.063095 309.849915 83.970879 242.115021 309.832825 83.921928 242.172302 309.817627 83.878464 242.234375 309.804504 83.840927 242.300629 309.793610 83.809746 242.370468 309.785034 83.785217 242.443237 309.778839 83.767502 242.518204 310.008148 84.423546 241.888184 314.998932 88.670197 242.554535 314.998932 88.667023 242.535080 314.998932 88.641815 242.432755 314.998932 88.631500 242.402512 314.998932 88.594513 242.317017 314.998932 88.573494 242.278107 314.998932 88.529488 242.210205 314.998932 88.494766 242.165680 314.998932 88.448372 242.115051 314.998932 88.397713 242.068634 314.998932 88.353218 242.033936 314.998932 88.285286 241.989899 314.998932 88.246422 241.968903 314.998932 88.160889 241.931900 314.998932 88.130676 241.921585 314.998932 88.028313 241.896378 310.008148 84.423553 246.880585 309.896545 84.468399 246.880585 309.643677 84.668671 246.880585 308.879791 84.801788 246.174194 308.971161 85.052498 246.468170 309.010620 85.048485 246.534470 309.046539 85.252357 246.534470 311.607056 87.893463 246.325577 311.152069 87.646553 246.325577 311.165527 87.624207 246.398315 314.989807 88.246300 246.799911 314.989166 88.270927 246.786911 314.053223 88.194122 246.791412 314.987061 88.353027 246.734833 314.986389 88.378746 246.715393 314.037506 88.321487 246.705597 314.013611 88.514931 246.468170 314.018463 88.475548 246.534470 314.981873 88.554031 246.522308 314.987671 88.328873 246.751648 314.045105 88.259888 246.751648 314.061798 88.124802 246.824432 314.992249 88.151093 246.840332 314.079895 87.978165 246.869186 314.995483 88.025261 246.872894 314.992767 88.130577 246.847168 314.089294 87.902298 246.880585 314.030487 88.378357 246.653748 314.024109 88.429893 246.596527 313.068542 88.257217 246.596527 313.193207 87.740547 246.880585 312.322113 87.468834 246.880585 311.203033 87.561897 246.534470 312.111633 88.006699 246.534470 311.632965 87.840309 246.468170 312.097168 88.043655 246.468170 312.085114 88.074425 246.398315 311.500885 87.067085 246.880585 310.419159 86.227196 246.880585 310.758636 86.530548 246.880585 311.118713 86.813370 246.880585 313.080719 88.206741 246.653748 312.128387 87.963867 246.596527 312.147308 87.915504 246.653748 311.226746 87.522491 246.596527 311.253540 87.478004 246.653748 310.806091 87.243256 246.596527 310.836609 87.201263 246.653748 310.416290 86.937149 246.596527 310.449707 86.897430 246.653748 310.053802 86.613251 246.596527 310.089478 86.575539 246.653748 309.706482 86.262077 246.596527 309.744843 86.227058 246.653748 309.368530 85.838509 246.596527 309.411652 85.809570 246.653748 309.213593 85.571587 246.596527 309.260223 85.548790 246.653748 309.146057 85.415962 246.596527 309.194641 85.397614 246.653748 309.091156 85.241180 246.596527 309.141541 85.228569 246.653748 309.056396 85.043839 246.596527 309.108032 85.038589 246.653748 309.072693 84.526817 246.534470 309.035614 84.512695 246.468170 309.072052 84.428650 246.468170 310.099060 85.903625 246.880585 309.809967 85.542282 246.880585 309.691101 85.338203 246.880585 309.643341 85.228165 246.880585 309.606812 85.112083 246.880585 309.585144 84.990128 246.880585 309.583649 84.862991 246.880585 309.593292 84.797859 246.880585 309.612396 84.732338 246.880585 309.626434 84.699982 246.880585 309.663910 84.639229 246.880585 309.686432 84.612274 246.880585 309.735626 84.566002 246.880585 309.787842 84.527946 246.880585 309.841675 84.495918 246.880585 309.107697 84.446098 246.534470 309.118469 84.344513 246.468170 309.152222 84.365356 246.534470 309.172760 84.265450 246.468170 309.204315 84.289482 246.534470 309.230774 84.195976 246.468170 309.260071 84.222740 246.534470 309.344910 84.088203 246.468170 309.370026 84.118919 246.534470 309.450195 84.011253 246.468170 309.471893 84.044472 246.534470 309.546967 83.953621 246.468170 309.565918 83.988487 246.534470 309.637360 83.908226 246.468170 309.654022 83.944237 246.534470 309.804504 83.840935 246.468170 309.817596 83.878387 246.534470 309.832764 83.921806 246.596527 309.868805 84.024902 246.705597 313.094147 88.151054 246.705597 313.108704 88.090729 246.751648 312.168182 87.862152 246.705597 312.190826 87.804352 246.751648 311.283081 87.428925 246.705597 311.315094 87.375740 246.751648 310.870331 87.154930 246.705597 310.906830 87.104736 246.751648 310.486633 86.853607 246.705597 310.526611 86.806129 246.751648 310.128845 86.533928 246.705597 310.171509 86.488853 246.751648 309.787140 86.188431 246.705597 309.832977 86.146568 246.751648 309.459229 85.777641 246.705597 309.510773 85.743057 246.751648 309.311707 85.523636 246.705597 309.367462 85.496384 246.751648 309.248260 85.377373 246.705597 309.306305 85.355446 246.751648 309.197113 85.214661 246.705597 309.257324 85.199585 246.751648 309.165039 85.032806 246.705597 309.226776 85.026535 246.751648 309.162872 84.826408 246.705597 309.224701 84.831779 246.751648 309.180237 84.709946 246.705597 309.240936 84.722862 246.751648 309.217743 84.582047 246.705597 309.275726 84.604134 246.751648 309.247101 84.514328 246.705597 309.302856 84.541611 246.751648 309.284302 84.446869 246.705597 309.337128 84.479462 246.751648 309.327820 84.383476 246.705597 309.377228 84.421059 246.751648 309.374664 84.327423 246.705597 309.420471 84.369286 246.751648 309.468292 84.239067 246.705597 309.507568 84.287117 246.751648 309.556824 84.174400 246.705597 309.590759 84.226357 246.751648 309.640015 84.124855 246.705597 309.669647 84.179390 246.751648 309.719208 84.085106 246.705597 309.745270 84.141434 246.751648 309.889282 84.083488 246.751648 313.124268 88.026329 246.791412 313.140625 87.958435 246.824432 312.214966 87.742645 246.791412 312.240417 87.677597 246.824432 311.349243 87.318977 246.791412 311.385284 87.259140 246.824432 310.945770 87.051155 246.791412 310.986847 86.994667 246.824432 310.569275 86.755447 246.791412 310.614258 86.702019 246.824432 310.217072 86.440735 246.791412 310.265076 86.390007 246.824432 309.881927 86.101891 246.791412 309.933502 86.054794 246.824432 309.565796 85.706131 246.791412 309.623810 85.667206 246.824432 309.426971 85.467293 246.791412 309.489716 85.436630 246.824432 309.368286 85.332039 246.791412 309.433624 85.307365 246.824432 309.321594 85.183495 246.791412 309.389343 85.166527 246.824432 309.292664 85.019836 246.791412 309.362152 85.012779 246.824432 309.290710 84.837524 246.791412 309.360321 84.843575 246.824432 309.305725 84.736656 246.791412 309.374054 84.751198 246.824432 309.337646 84.627716 246.791412 309.402924 84.652565 246.824432 309.362366 84.570732 246.791412 309.425079 84.601440 246.824432 309.393494 84.514259 246.791412 309.452942 84.550941 246.824432 309.429962 84.461182 246.791412 309.485535 84.503479 246.824432 309.469391 84.413971 246.791412 309.520935 84.461082 246.824432 309.549530 84.338402 246.791412 309.593719 84.392471 246.824432 309.627014 84.281822 246.791412 309.665222 84.340286 246.824432 309.701294 84.237595 246.791412 309.734650 84.298958 246.824432 309.773102 84.201561 246.791412 309.802429 84.264946 246.824432 309.911163 84.146027 246.791412 309.934204 84.211952 246.824432 314.978699 88.676590 246.155029 314.002655 88.603500 246.174194 314.978760 88.674950 246.174194 314.981049 88.585747 246.468170 314.980835 88.594246 246.451782 314.009552 88.547729 246.398315 314.980316 88.614586 246.408234 314.979523 88.644852 246.325577 314.984589 88.448189 246.653748 314.983917 88.474487 246.626175 314.982513 88.529305 246.558624 313.057770 88.301926 246.534470 313.048462 88.340492 246.468170 313.040710 88.372612 246.398315 314.006348 88.573616 246.325577 314.979218 88.656288 246.283844 313.027527 88.427231 246.174194 312.064636 88.126762 246.174194 312.068756 88.116234 246.250626 313.034576 88.397964 246.325577 314.004059 88.592278 246.250626 314.978882 88.669975 246.214294 311.598846 87.910362 246.250626 309.008026 85.261993 246.468170 309.103027 85.432213 246.534470 309.065918 85.446228 246.468170 309.172272 85.591789 246.534470 309.136627 85.609207 246.468170 309.330322 85.864143 246.534470 309.297394 85.886253 246.468170 309.672516 86.293098 246.534470 309.643219 86.319855 246.468170 310.022186 86.646660 246.534470 309.994904 86.675476 246.468170 310.386658 86.972328 246.534470 310.361084 87.002686 246.468170 310.779022 87.280457 246.534470 310.755707 87.312546 246.468170 311.182556 87.595894 246.468170 311.618500 87.870010 246.398315 312.075623 88.098717 246.325577 313.030182 88.416237 246.250626 311.593872 87.920525 246.174194 311.136536 87.672348 246.174194 310.703217 87.384720 246.174194 310.303619 87.070946 246.174194 311.142365 87.662666 246.250626 310.709869 87.375572 246.250626 310.310913 87.062294 246.250626 309.941345 86.732079 246.250626 310.720917 87.360367 246.325577 310.322998 87.047913 246.325577 309.954254 86.718414 246.325577 309.599548 86.359726 246.325577 309.933563 86.740288 246.174194 309.577301 86.380028 246.174194 309.585663 86.372406 246.250626 309.399750 86.173515 246.174194 309.223267 85.935982 246.174194 309.056458 85.648392 246.174194 309.408539 86.166405 246.250626 309.232666 85.929680 246.250626 309.066620 85.643425 246.250626 308.993011 85.473763 246.250626 309.248291 85.919205 246.325577 309.083496 85.635170 246.325577 309.010620 85.467117 246.325577 308.950684 85.276352 246.325577 308.921478 85.283661 246.174194 310.736267 87.339272 246.398315 310.339813 87.027962 246.398315 309.972198 86.699478 246.398315 309.618805 86.342140 246.398315 309.269928 85.904671 246.398315 309.106934 85.623718 246.398315 309.035004 85.457901 246.398315 308.975983 85.270020 246.398315 308.938293 85.055832 246.398315 309.105804 84.821442 246.653748 309.049805 84.934937 246.596527 308.874878 84.937500 246.174194 308.982422 85.477753 246.174194 308.932434 85.280914 246.250626 308.912354 85.058472 246.325577 308.931061 84.936684 246.398315 308.964111 84.936195 246.468170 309.003784 84.935616 246.534470 309.054047 84.816940 246.596527 309.073425 84.687210 246.596527 309.124207 84.698013 246.653748 309.115662 84.543182 246.596527 309.164185 84.561661 246.653748 309.149017 84.466316 246.596527 309.195648 84.489143 246.653748 309.191376 84.389511 246.596527 309.235535 84.416779 246.653748 309.240936 84.317337 246.596527 309.282257 84.348778 246.653748 309.294037 84.253761 246.596527 309.332367 84.288788 246.653748 309.399170 84.154526 246.596527 309.432037 84.194725 246.653748 309.497070 84.082977 246.596527 309.525482 84.126442 246.653748 309.587860 84.028900 246.596527 309.612671 84.074516 246.653748 309.673340 83.985985 246.596527 309.695129 84.033104 246.653748 309.849915 83.970818 246.653748 308.902344 84.650795 246.174194 308.913422 84.653152 246.250626 308.882385 85.061508 246.174194 308.893646 85.060371 246.250626 308.886169 84.937340 246.250626 308.904968 84.937065 246.325577 308.909790 84.804398 246.325577 308.935791 84.806664 246.398315 308.957306 84.662498 246.398315 308.968689 84.809525 246.468170 308.989624 84.669373 246.468170 309.008240 84.812958 246.534470 309.028442 84.677635 246.534470 308.922943 84.568428 246.174194 308.952209 84.480942 246.174194 308.991913 84.389420 246.174194 308.891052 84.802773 246.250626 308.931793 84.657066 246.325577 308.976929 84.584076 246.398315 309.042511 84.297646 246.174194 309.101746 84.211418 246.174194 309.164886 84.135796 246.174194 308.933807 84.571579 246.250626 308.962769 84.484962 246.250626 309.002075 84.394394 246.250626 309.052155 84.303589 246.250626 309.110718 84.218262 246.250626 309.173248 84.143425 246.250626 309.295593 84.027885 246.250626 309.775055 83.756699 246.174194 309.599884 83.827240 246.174194 309.504364 83.875221 246.174194 309.401398 83.936554 246.174194 309.288422 84.019127 246.174194 309.227661 84.072205 246.174194 309.407562 83.946022 246.250626 309.509766 83.885155 246.250626 309.604614 83.837502 246.250626 309.778778 83.767372 246.250626 309.785004 83.785126 246.325577 309.612518 83.854568 246.325577 309.518738 83.901680 246.325577 309.417847 83.961761 246.325577 309.307495 84.042435 246.325577 309.187134 84.156105 246.325577 309.125702 84.229645 246.325577 309.068146 84.313461 246.325577 309.018951 84.402664 246.325577 308.980347 84.491661 246.325577 308.951874 84.576813 246.325577 309.793610 83.809746 246.398315 309.623474 83.878235 246.398315 309.531189 83.924591 246.398315 309.432129 83.983589 246.398315 309.324005 84.062622 246.398315 309.206390 84.173691 246.398315 309.146454 84.245445 246.398315 309.090332 84.327164 246.398315 309.042389 84.414124 246.398315 309.004730 84.500938 246.398315 313.175293 87.814842 246.869186 312.294250 87.540016 246.869186 311.461456 87.132568 246.869186 311.073761 86.875191 246.869186 310.709412 86.589012 246.869186 310.366608 86.282715 246.869186 310.042603 85.955170 246.869186 309.746490 85.584877 246.869186 309.622437 85.371758 246.869186 309.571838 85.255173 246.869186 309.532654 85.130646 246.869186 309.509125 84.997856 246.869186 309.507507 84.856369 246.869186 309.518524 84.781944 246.869186 309.540985 84.705139 246.869186 309.557770 84.666382 246.869186 309.578644 84.628532 246.869186 309.603088 84.592941 246.869186 309.630005 84.560722 246.869186 309.687256 84.506828 246.869186 309.746033 84.463959 246.869186 309.805176 84.428757 246.869186 309.864471 84.399025 246.869186 309.982941 84.351402 246.869186 314.070709 88.052574 246.850418 313.157715 87.887711 246.850418 312.266937 87.609833 246.850418 311.422791 87.196800 246.850418 311.029663 86.935814 246.850418 310.661133 86.646362 246.850418 310.315094 86.337158 246.850418 309.987244 86.005722 246.850418 309.684235 85.626656 246.850418 309.555115 85.404678 246.850418 309.501709 85.281654 246.850418 309.459930 85.148857 246.850418 309.434540 85.005432 246.850418 309.432800 84.849876 246.850418 309.445221 84.766342 246.850418 309.470917 84.678459 246.850418 309.490448 84.633423 246.850418 309.514862 84.589157 246.850418 309.543427 84.547546 246.850418 309.574677 84.510162 246.850418 309.639801 84.448799 246.850418 309.705017 84.401207 246.850418 309.769379 84.362892 246.850418 309.832977 84.330994 246.850418 309.958191 84.280640 246.850418 314.988800 88.678917 242.671814 314.988800 88.678917 246.097015 314.998932 88.130676 246.847229 314.998932 88.028313 246.872452 314.998932 88.160889 246.836929 314.998932 88.246422 246.799927 314.998932 88.285286 246.778915 314.998932 88.353218 246.734894 314.998932 88.397713 246.700195 314.998932 88.448372 246.653763 314.998932 88.494766 246.603134 314.998932 88.529488 246.558609 314.998932 88.573494 246.490707 314.998932 88.594513 246.451813 314.998932 88.631500 246.366318 314.998932 88.641815 246.336060 314.998932 88.667023 246.233734 314.998932 88.670197 246.214294 326.836517 82.193130 245.309601 326.836517 82.193130 243.459213 326.836517 80.773064 243.459213 326.836517 80.834480 244.384415 326.836517 80.773064 245.309601 "
							            />
						</IndexedFaceSet>
					</Shape>
				</Group>
			</Transform>
		</Transform>
	</Scene>
</X3D>