<?xml version="1.0" encoding="UTF-8"?>
<!DOCTYPE X3D PUBLIC "ISO//Web3D//DTD X3D 3.0//EN" "http://www.web3d.org/specifications/x3d-3.0.dtd">
<X3D version="3.0" profile="Immersive" xmlns:xsd="http://www.w3.org/2001/XMLSchema-instance" xsd:noNamespaceSchemaLocation="http://www.web3d.org/specifications/x3d-3.0.xsd">
	<head>
		<meta name="filename" content="OMLV4_Packing - For Xander - ArrestorHook-1.x3d" />
		<meta name="created" content="2026-04-19 20:21:16" />
		<meta name="generator" content="Blender 4.3.2" />
		<meta name="translator" content="Web3D X3D/VRML2 format v2.5.1" />
	</head>
	<Scene>
		<NavigationInfo headlight="true"
		                visibilityLimit="0.0"
		                type='"EXAMINE", "ANY"'
		                avatarSize="0.25, 1.75, 0.75"
		                />
		<Background DEF="WO_World"
		            groundColor="0.051 0.051 0.051"
		            skyColor="0.051 0.051 0.051"
		            />
		<Transform DEF="OMLV4_Packing_-_For_Xander_-_ArrestorHook-1_TRANSFORM"
		           translation="0.000000 0.000000 0.000000"
		           scale="1.000000 1.000000 1.000000"
		           rotation="-1.000000 0.000000 0.000000 1.570796"
		           >
			<Transform DEF="OMLV4_Packing_-_For_Xander_-_ArrestorHook-1_ifs_TRANSFORM"
			           translation="0.000000 0.000000 0.000000"
			           scale="1.000000 1.000000 1.000000"
			           rotation="0.000000 1.000000 0.000000 0.000000"
			           >
				<Group DEF="group_ME_OMLV4_Packing_-_For_Xander_-_ArrestorHook-1">
					<Shape>
						<Appearance>
						</Appearance>
						<IndexedFaceSet solid="false"
						                coordIndex="0 1 2 -1 2 1 3 -1 1 4 5 -1 6 7 8 -1 8 7 1 -1 8 1 9 -1 6 10 7 -1 7 10 11 -1 7 11 12 -1 13 14 15 -1 15 14 7 -1 15 7 16 -1 16 7 17 -1 0 18 1 -1 1 18 19 -1 1 19 4 -1 5 20 1 -1 1 20 21 -1 1 21 9 -1 12 22 7 -1 7 22 23 -1 7 23 17 -1 13 24 14 -1 14 24 25 -1 14 25 26 -1 3 27 28 -1 28 29 3 -1 3 29 30 -1 3 30 31 -1 31 32 3 -1 3 32 33 -1 3 33 2 -1 26 34 14 -1 14 34 35 -1 14 35 36 -1 36 37 14 -1 14 37 38 -1 14 38 3 -1 3 38 39 -1 3 39 27 -1 40 1 41 -1 41 1 7 -1 40 41 42 -1 40 42 43 -1 43 42 44 -1 43 44 45 -1 45 44 46 -1 45 46 47 -1 48 47 49 -1 49 47 46 -1 48 49 50 -1 50 49 51 -1 50 51 52 -1 52 51 53 -1 52 53 54 -1 54 53 55 -1 54 55 56 -1 56 55 57 -1 56 57 58 -1 58 57 59 -1 58 59 60 -1 60 59 61 -1 60 61 62 -1 62 61 63 -1 62 63 64 -1 64 63 65 -1 64 65 66 -1 66 65 67 -1 66 67 68 -1 68 67 69 -1 68 69 70 -1 70 69 71 -1 70 71 72 -1 72 71 73 -1 72 73 74 -1 74 73 75 -1 74 75 76 -1 76 75 77 -1 76 77 78 -1 78 77 79 -1 78 79 80 -1 80 79 81 -1 80 81 82 -1 82 81 83 -1 82 83 84 -1 84 83 85 -1 84 85 86 -1 86 85 87 -1 86 87 88 -1 88 87 89 -1 88 89 90 -1 90 89 91 -1 90 91 92 -1 92 91 93 -1 92 93 94 -1 94 93 95 -1 96 94 97 -1 97 94 95 -1 98 96 99 -1 99 96 97 -1 100 98 101 -1 101 98 99 -1 100 101 102 -1 100 102 103 -1 103 102 104 -1 103 104 105 -1 105 104 106 -1 105 106 107 -1 107 106 108 -1 107 108 109 -1 109 108 110 -1 109 110 111 -1 111 110 112 -1 111 112 113 -1 113 112 114 -1 113 114 115 -1 115 114 116 -1 115 116 117 -1 118 117 119 -1 119 117 116 -1 118 119 120 -1 118 120 121 -1 121 120 122 -1 121 122 123 -1 123 122 124 -1 123 124 125 -1 125 124 126 -1 125 126 127 -1 127 126 128 -1 127 128 129 -1 129 128 130 -1 129 130 131 -1 131 130 132 -1 131 132 133 -1 133 132 134 -1 133 134 135 -1 135 134 136 -1 135 136 137 -1 138 137 139 -1 139 137 136 -1 138 139 140 -1 140 139 141 -1 140 141 142 -1 142 141 143 -1 142 143 144 -1 144 143 145 -1 3 144 14 -1 14 144 145 -1 118 58 60 -1 60 62 118 -1 118 62 64 -1 118 64 117 -1 117 64 66 -1 109 111 74 -1 140 142 47 -1 47 142 144 -1 74 111 72 -1 88 96 86 -1 86 96 98 -1 86 98 84 -1 84 98 82 -1 88 90 96 -1 96 90 92 -1 96 92 94 -1 140 47 138 -1 138 47 48 -1 138 48 137 -1 66 68 117 -1 117 68 70 -1 117 70 115 -1 115 70 72 -1 115 72 113 -1 113 72 111 -1 100 103 74 -1 103 105 74 -1 74 105 107 -1 74 107 109 -1 74 76 100 -1 100 76 78 -1 100 78 98 -1 98 78 80 -1 98 80 82 -1 3 1 144 -1 144 1 40 -1 58 118 56 -1 56 118 121 -1 56 121 123 -1 40 43 144 -1 144 43 45 -1 144 45 47 -1 48 50 137 -1 137 50 52 -1 137 52 135 -1 135 52 54 -1 135 54 133 -1 133 54 56 -1 133 56 131 -1 131 56 129 -1 123 125 56 -1 56 125 127 -1 56 127 129 -1 128 126 57 -1 116 67 119 -1 119 67 65 -1 119 65 63 -1 97 95 93 -1 93 91 97 -1 97 91 89 -1 97 89 99 -1 99 89 87 -1 99 87 85 -1 85 83 99 -1 99 83 81 -1 99 81 101 -1 106 75 108 -1 108 75 110 -1 110 75 112 -1 112 75 73 -1 112 73 114 -1 114 73 71 -1 114 71 116 -1 116 71 69 -1 116 69 67 -1 81 79 101 -1 101 79 77 -1 101 77 102 -1 102 77 75 -1 102 75 104 -1 104 75 106 -1 63 61 119 -1 119 61 59 -1 119 59 120 -1 120 59 57 -1 128 57 130 -1 53 51 136 -1 136 51 49 -1 126 124 57 -1 57 124 122 -1 57 122 120 -1 53 136 55 -1 55 136 134 -1 55 134 57 -1 57 134 132 -1 57 132 130 -1 7 14 41 -1 41 14 145 -1 46 44 145 -1 145 44 42 -1 145 42 41 -1 145 143 46 -1 46 143 141 -1 46 141 49 -1 49 141 139 -1 49 139 136 -1 15 146 13 -1 13 146 147 -1 13 147 24 -1 24 147 148 -1 24 148 25 -1 25 148 149 -1 25 149 26 -1 26 149 150 -1 26 150 34 -1 34 150 151 -1 34 151 35 -1 35 151 152 -1 35 152 36 -1 36 152 153 -1 36 153 37 -1 37 153 154 -1 37 154 38 -1 38 154 155 -1 38 155 39 -1 39 155 156 -1 39 156 27 -1 27 156 157 -1 27 157 28 -1 28 157 158 -1 28 158 29 -1 29 158 159 -1 29 159 30 -1 30 159 160 -1 30 160 31 -1 31 160 161 -1 31 161 32 -1 32 161 162 -1 32 162 33 -1 33 162 163 -1 33 163 2 -1 2 163 164 -1 2 164 0 -1 0 164 165 -1 0 165 18 -1 18 165 166 -1 18 166 19 -1 19 166 167 -1 19 167 4 -1 4 167 168 -1 4 168 5 -1 5 168 169 -1 5 169 20 -1 20 169 170 -1 20 170 21 -1 21 170 171 -1 21 171 9 -1 9 171 172 -1 9 172 8 -1 8 172 173 -1 8 173 6 -1 6 173 174 -1 6 174 10 -1 10 174 175 -1 10 175 11 -1 11 175 176 -1 11 176 12 -1 12 176 177 -1 12 177 22 -1 22 177 178 -1 22 178 23 -1 23 178 179 -1 23 179 17 -1 17 179 180 -1 17 180 16 -1 16 180 181 -1 16 181 15 -1 15 181 146 -1 165 164 182 -1 182 164 163 -1 182 163 162 -1 168 167 182 -1 182 167 166 -1 182 166 165 -1 171 170 182 -1 182 170 169 -1 182 169 168 -1 174 173 182 -1 182 173 172 -1 182 172 171 -1 177 176 182 -1 182 176 175 -1 182 175 174 -1 180 179 182 -1 182 179 178 -1 182 178 177 -1 147 146 182 -1 182 146 181 -1 182 181 180 -1 150 149 182 -1 182 149 148 -1 182 148 147 -1 153 152 182 -1 182 152 151 -1 182 151 150 -1 156 155 182 -1 182 155 154 -1 182 154 153 -1 159 158 182 -1 182 158 157 -1 182 157 156 -1 162 161 182 -1 182 161 160 -1 182 160 159 -1 "
						                >
							<Coordinate DEF="coords_ME_OMLV4_Packing_-_For_Xander_-_ArrestorHook-1"
							            point="601.053955 71.259605 363.854034 601.053955 68.606895 364.884399 601.053955 71.606895 363.884399 601.053955 74.606895 364.884399 601.053955 70.321320 363.416504 601.053955 70.074806 363.169983 601.053955 69.637283 361.537109 601.053955 68.606895 358.884399 601.053955 69.606895 361.884399 601.053955 69.637283 362.231720 601.053955 69.727516 361.200378 601.053955 69.874847 360.884399 601.053955 70.074806 360.598846 601.053955 71.954193 359.914795 601.053955 74.606895 358.884399 601.053955 71.606895 359.884399 601.053955 71.259605 359.914795 601.053955 70.922859 360.005035 601.053955 70.922859 363.763794 601.053955 70.606895 363.616455 601.053955 69.874847 362.884399 601.053955 69.727516 362.568451 601.053955 70.321320 360.352325 601.053955 70.606895 360.152374 601.053955 72.290939 360.005035 601.053955 72.606895 360.152374 601.053955 72.892471 360.352325 601.053955 73.486282 362.568451 601.053955 73.338951 362.884399 601.053955 73.138985 363.169983 601.053955 72.892471 363.416504 601.053955 72.606895 363.616455 601.053955 72.290939 363.763794 601.053955 71.954193 363.854034 601.053955 73.138985 360.598846 601.053955 73.338951 360.884399 601.053955 73.486282 361.200378 601.053955 73.576515 361.537109 601.053955 73.606895 361.884399 601.053955 73.576515 362.231720 607.701294 68.606895 364.884399 607.701294 68.606895 358.884399 607.933472 68.620422 358.884399 607.933472 68.620422 364.884399 608.162537 68.660812 358.884399 608.162537 68.660812 364.884399 608.385315 68.727516 358.884399 608.385315 68.727516 364.884399 618.675232 72.472725 364.884399 618.675232 72.472725 358.884399 619.086792 72.583847 364.884399 619.086792 72.583847 358.884399 619.511292 72.623421 364.884399 619.511292 72.623421 358.884399 619.936340 72.590294 364.884399 619.936340 72.590294 358.884399 620.349548 72.485428 364.884399 620.349548 72.485428 358.884399 620.738953 72.311882 364.884399 620.738953 72.311882 358.884399 621.093262 72.074684 364.884399 621.093262 72.074684 358.884399 621.402039 71.780754 364.884399 621.402039 71.780754 358.884399 621.656433 71.438622 364.884399 621.656433 71.438622 358.884399 621.848938 71.058250 364.884399 621.848938 71.058250 358.884399 621.974060 70.650688 364.884399 621.974060 70.650688 358.884399 622.028076 70.227798 364.884399 622.028076 70.227798 358.884399 622.009521 69.801880 364.884399 622.009521 69.801880 358.884399 621.918823 69.385307 364.884399 621.918823 69.385307 358.884399 621.758667 68.990204 364.884399 621.758667 68.990204 358.884399 621.533691 68.628059 364.884399 621.533691 68.628059 358.884399 621.250488 68.309402 364.884399 621.250488 68.309402 358.884399 620.917236 68.043503 364.884399 620.917236 68.043503 358.884399 620.543640 67.838089 364.884399 620.543640 67.838089 358.884399 620.140625 67.699135 364.884399 620.140625 67.699135 358.884399 619.719788 67.630684 364.884399 619.719788 67.630684 358.884399 619.293518 67.634727 364.884399 619.293518 67.634727 358.884399 618.874084 67.711151 364.884399 618.874084 67.711151 358.884399 618.473755 67.857719 364.884399 618.473755 67.857719 358.884399 616.836792 64.347366 364.884399 616.836792 64.347366 358.884399 622.474976 66.399483 364.884399 622.474976 66.399483 358.884399 624.403625 67.749931 364.884399 624.403625 67.749931 358.884399 624.655151 67.958679 358.884399 624.655151 67.958679 364.884399 624.869324 68.205620 358.884399 624.869324 68.205620 364.884399 625.040466 68.484146 358.884399 625.040466 68.484146 364.884399 625.163879 68.786827 358.884399 625.163879 68.786827 364.884399 625.236389 69.105568 358.884399 625.236389 69.105568 364.884399 625.255981 69.431870 358.884399 625.255981 69.431870 364.884399 625.222168 69.756996 358.884399 625.222168 69.756996 364.884399 625.135864 70.072273 358.884399 625.135864 70.072273 364.884399 622.924561 76.147713 364.884399 622.924561 76.147713 358.884399 622.777222 76.463676 358.884399 622.777222 76.463676 364.884399 622.577271 76.749252 358.884399 622.577271 76.749252 364.884399 622.330750 76.995766 358.884399 622.330750 76.995766 364.884399 622.045166 77.195724 358.884399 622.045166 77.195724 364.884399 621.729248 77.343056 358.884399 621.729248 77.343056 364.884399 621.392456 77.433289 358.884399 621.392456 77.433289 364.884399 621.045166 77.463676 358.884399 621.045166 77.463676 364.884399 620.697876 77.433289 358.884399 620.697876 77.433289 364.884399 620.361145 77.343056 358.884399 620.361145 77.343056 364.884399 613.174988 74.727516 364.884399 613.174988 74.727516 358.884399 612.952209 74.660812 364.884399 612.952209 74.660812 358.884399 612.723145 74.620422 364.884399 612.723145 74.620422 358.884399 612.490967 74.606895 364.884399 612.490967 74.606895 358.884399 460.053955 71.954193 359.914795 460.053955 72.290939 360.005035 460.053955 72.606895 360.152374 460.053955 72.892471 360.352325 460.053955 73.138985 360.598846 460.053955 73.338951 360.884399 460.053955 73.486282 361.200378 460.053955 73.576515 361.537109 460.053955 73.606895 361.884399 460.053955 73.576515 362.231720 460.053955 73.486282 362.568451 460.053955 73.338951 362.884399 460.053955 73.138985 363.169983 460.053955 72.892471 363.416504 460.053955 72.606895 363.616455 460.053955 72.290939 363.763794 460.053955 71.954193 363.854034 460.053955 71.606895 363.884399 460.053955 71.259605 363.854034 460.053955 70.922859 363.763794 460.053955 70.606895 363.616455 460.053955 70.321320 363.416504 460.053955 70.074806 363.169983 460.053955 69.874847 362.884399 460.053955 69.727516 362.568451 460.053955 69.637283 362.231720 460.053955 69.606895 361.884399 460.053955 69.637283 361.537109 460.053955 69.727516 361.200378 460.053955 69.874847 360.884399 460.053955 70.074806 360.598846 460.053955 70.321320 360.352325 460.053955 70.606895 360.152374 460.053955 70.922859 360.005035 460.053955 71.259605 359.914795 460.053955 71.606895 359.884399 460.053955 71.606895 361.884399 "
							            />
						</IndexedFaceSet>
					</Shape>
				</Group>
			</Transform>
		</Transform>
	</Scene>
</X3D>