<?xml version="1.0" encoding="UTF-8"?>
<!DOCTYPE X3D PUBLIC "ISO//Web3D//DTD X3D 3.0//EN" "http://www.web3d.org/specifications/x3d-3.0.dtd">
<X3D version="3.0" profile="Immersive" xmlns:xsd="http://www.w3.org/2001/XMLSchema-instance" xsd:noNamespaceSchemaLocation="http://www.web3d.org/specifications/x3d-3.0.xsd">
	<head>
		<meta name="filename" content="OMLV4_Packing - For Xander - Refuler-1 Bar-2.x3d" />
		<meta name="created" content="2026-04-19 20:21:18" />
		<meta name="generator" content="Blender 4.3.2" />
		<meta name="translator" content="Web3D X3D/VRML2 format v2.5.1" />
	</head>
	<Scene>
		<NavigationInfo headlight="true"
		                visibilityLimit="0.0"
		                type='"EXAMINE", "ANY"'
		                avatarSize="0.25, 1.75, 0.75"
		                />
		<Background DEF="WO_World"
		            groundColor="0.051 0.051 0.051"
		            skyColor="0.051 0.051 0.051"
		            />
		<Transform DEF="OMLV4_Packing_-_For_Xander_-_Refuler-1_Bar-2_TRANSFORM"
		           translation="0.000000 0.000000 0.000000"
		           scale="1.000000 1.000000 1.000000"
		           rotation="-1.000000 0.000000 0.000000 1.570796"
		           >
			<Transform DEF="OMLV4_Packing_-_For_Xander_-_Refuler-1_Bar-2_ifs_TRANSFORM"
			           translation="0.000000 0.000000 0.000000"
			           scale="1.000000 1.000000 1.000000"
			           rotation="0.000000 1.000000 0.000000 0.000000"
			           >
				<Group DEF="group_ME_OMLV4_Packing_-_For_Xander_-_Refuler-1_Bar-2">
					<Shape>
						<Appearance>
						</Appearance>
						<IndexedFaceSet solid="false"
						                coordIndex="0 1 2 -1 2 1 3 -1 4 0 5 -1 5 0 2 -1 6 4 7 -1 7 4 5 -1 1 6 3 -1 3 6 7 -1 8 9 10 -1 11 12 13 -1 10 9 14 -1 15 16 10 -1 16 17 10 -1 10 17 18 -1 10 18 8 -1 1 0 19 -1 20 21 6 -1 22 23 13 -1 23 24 13 -1 13 24 25 -1 13 25 11 -1 14 9 12 -1 12 9 26 -1 12 26 13 -1 27 28 0 -1 0 28 29 -1 0 29 19 -1 19 30 1 -1 1 30 31 -1 1 31 32 -1 21 33 6 -1 6 33 34 -1 6 34 4 -1 34 35 4 -1 4 35 36 -1 4 36 37 -1 32 38 1 -1 1 38 39 -1 1 39 40 -1 37 41 4 -1 4 41 42 -1 4 42 43 -1 44 4 45 -1 45 4 46 -1 47 48 0 -1 49 1 50 -1 50 1 51 -1 52 53 6 -1 43 54 4 -1 4 54 55 -1 4 55 56 -1 48 57 0 -1 0 57 58 -1 0 58 27 -1 40 59 1 -1 1 59 60 -1 1 60 61 -1 46 4 62 -1 62 4 56 -1 62 56 10 -1 10 56 63 -1 10 63 15 -1 51 1 64 -1 64 1 61 -1 64 61 13 -1 13 61 65 -1 13 65 22 -1 49 66 1 -1 1 66 67 -1 1 67 6 -1 6 67 68 -1 6 68 52 -1 69 70 6 -1 6 70 71 -1 6 71 20 -1 44 72 4 -1 4 72 73 -1 4 73 0 -1 0 73 74 -1 0 74 75 -1 75 76 0 -1 0 76 77 -1 0 77 47 -1 53 78 6 -1 6 78 79 -1 6 79 69 -1 80 81 5 -1 82 83 3 -1 83 84 3 -1 3 84 85 -1 3 85 2 -1 86 87 88 -1 5 81 7 -1 81 89 7 -1 7 89 90 -1 7 90 91 -1 92 93 94 -1 94 93 95 -1 94 95 96 -1 97 98 5 -1 98 99 5 -1 5 99 100 -1 5 100 80 -1 101 102 3 -1 3 102 103 -1 3 103 104 -1 105 106 104 -1 104 106 107 -1 104 107 108 -1 85 109 2 -1 2 109 110 -1 2 110 111 -1 86 88 96 -1 96 88 112 -1 96 112 94 -1 105 104 87 -1 87 104 113 -1 87 113 88 -1 114 2 115 -1 115 2 94 -1 116 117 3 -1 3 117 118 -1 3 118 82 -1 111 119 2 -1 2 119 120 -1 2 120 121 -1 91 122 7 -1 7 122 123 -1 7 123 124 -1 125 126 3 -1 121 127 2 -1 2 127 128 -1 2 128 129 -1 114 130 2 -1 2 130 131 -1 2 131 5 -1 5 131 132 -1 124 133 7 -1 7 133 134 -1 7 134 135 -1 135 136 7 -1 7 136 137 -1 7 137 3 -1 3 137 138 -1 3 138 101 -1 126 139 3 -1 3 139 140 -1 3 140 116 -1 132 141 5 -1 5 141 142 -1 5 142 143 -1 108 144 104 -1 104 144 145 -1 104 145 3 -1 3 145 146 -1 3 146 125 -1 143 147 5 -1 5 147 148 -1 5 148 97 -1 129 149 2 -1 2 149 150 -1 2 150 94 -1 94 150 151 -1 94 151 92 -1 19 85 30 -1 30 85 84 -1 30 84 31 -1 31 84 83 -1 31 83 32 -1 32 83 82 -1 32 82 38 -1 38 82 118 -1 38 118 39 -1 39 118 117 -1 39 117 40 -1 40 117 116 -1 40 116 59 -1 59 116 140 -1 59 140 60 -1 60 140 139 -1 60 139 61 -1 61 139 126 -1 61 126 65 -1 65 126 125 -1 65 125 22 -1 22 125 146 -1 22 146 23 -1 23 146 145 -1 23 145 24 -1 24 145 144 -1 24 144 25 -1 25 144 108 -1 25 108 11 -1 11 108 107 -1 11 107 12 -1 12 107 106 -1 12 106 14 -1 14 106 105 -1 14 105 10 -1 10 105 87 -1 10 87 62 -1 62 87 86 -1 62 86 46 -1 46 86 96 -1 46 96 45 -1 45 96 95 -1 45 95 44 -1 44 95 93 -1 44 93 72 -1 72 93 92 -1 72 92 73 -1 73 92 151 -1 73 151 74 -1 74 151 150 -1 74 150 75 -1 75 150 149 -1 75 149 76 -1 76 149 129 -1 76 129 77 -1 77 129 128 -1 77 128 47 -1 47 128 127 -1 47 127 48 -1 48 127 121 -1 48 121 57 -1 57 121 120 -1 57 120 58 -1 58 120 119 -1 58 119 27 -1 27 119 111 -1 27 111 28 -1 28 111 110 -1 28 110 29 -1 29 110 109 -1 29 109 19 -1 19 109 85 -1 13 88 64 -1 64 88 113 -1 64 113 51 -1 51 113 104 -1 51 104 50 -1 50 104 103 -1 50 103 49 -1 49 103 102 -1 49 102 66 -1 66 102 101 -1 66 101 67 -1 67 101 138 -1 67 138 68 -1 68 138 137 -1 68 137 52 -1 52 137 136 -1 52 136 53 -1 53 136 135 -1 53 135 78 -1 78 135 134 -1 78 134 79 -1 79 134 133 -1 79 133 69 -1 69 133 124 -1 69 124 70 -1 70 124 123 -1 70 123 71 -1 71 123 122 -1 71 122 20 -1 20 122 91 -1 20 91 21 -1 21 91 90 -1 21 90 33 -1 33 90 89 -1 33 89 34 -1 34 89 81 -1 34 81 35 -1 35 81 80 -1 35 80 36 -1 36 80 100 -1 36 100 37 -1 37 100 99 -1 37 99 41 -1 41 99 98 -1 41 98 42 -1 42 98 97 -1 42 97 43 -1 43 97 148 -1 43 148 54 -1 54 148 147 -1 54 147 55 -1 55 147 143 -1 55 143 56 -1 56 143 142 -1 56 142 63 -1 63 142 141 -1 63 141 15 -1 15 141 132 -1 15 132 16 -1 16 132 131 -1 16 131 17 -1 17 131 130 -1 17 130 18 -1 18 130 114 -1 18 114 8 -1 8 114 115 -1 8 115 9 -1 9 115 94 -1 9 94 26 -1 26 94 112 -1 26 112 13 -1 13 112 88 -1 "
						                >
							<Coordinate DEF="coords_ME_OMLV4_Packing_-_For_Xander_-_Refuler-1_Bar-2"
							            point="134.840790 95.321617 341.961792 135.078033 95.192329 339.980133 134.849976 96.119942 341.910797 135.087219 95.990646 339.929138 109.231804 95.420006 338.889465 109.240990 96.218330 338.838501 109.469048 95.290710 336.907806 109.478233 96.089035 336.856812 110.464943 95.363914 338.233368 110.501694 95.359718 338.174255 133.767960 95.261551 340.828033 133.844894 95.248421 340.636230 133.808136 95.252617 340.695343 110.541878 95.350784 338.041595 133.782227 95.257034 340.759918 110.235970 95.376091 338.382660 110.302208 95.373940 338.360992 110.363663 95.371140 338.328186 110.418465 95.367760 338.285187 134.562256 95.258499 340.923309 109.824509 95.340698 337.754517 109.787758 95.344902 337.813599 134.073868 95.236244 340.486938 134.007629 95.238396 340.508606 133.946167 95.241196 340.541443 133.891373 95.244576 340.584412 110.527603 95.355301 338.109680 134.485321 95.271629 341.115082 134.522079 95.267433 341.056000 134.547989 95.263016 340.991425 134.564468 95.254028 340.853760 134.554535 95.249748 340.784882 134.532776 95.245773 340.718750 109.761848 95.349319 337.878204 109.747581 95.353836 337.946289 109.745369 95.358299 338.015839 109.755302 95.362587 338.084717 109.777061 95.366562 338.150848 134.499847 95.242233 340.657410 134.456741 95.239235 340.602692 134.404770 95.236870 340.556244 109.809998 95.370102 338.212189 109.853096 95.373100 338.266907 109.905060 95.375465 338.313354 133.830368 95.277817 341.093933 133.797440 95.274277 341.032562 133.775681 95.270302 340.966431 134.256348 95.283806 341.264404 134.322586 95.281654 341.242737 110.479462 95.334518 337.775665 110.512390 95.338058 337.837036 110.534157 95.342033 337.903168 110.260422 95.326576 337.611908 110.192177 95.326454 337.597595 109.964310 95.377129 338.350067 110.029037 95.378044 338.375977 110.097275 95.378166 338.390259 134.384048 95.278854 341.209900 134.438843 95.275475 341.166931 134.345535 95.235207 340.519531 134.280807 95.234291 340.493622 134.212555 95.234169 340.479340 133.765747 95.266022 340.897552 110.166962 95.377510 338.392517 110.544083 95.346313 337.972046 134.142868 95.234825 340.477081 110.436356 95.331520 337.720947 110.384392 95.329155 337.674530 110.325150 95.327492 337.637787 109.987244 95.330681 337.626892 109.925789 95.333481 337.659698 109.870995 95.336853 337.702667 133.873474 95.280815 341.148651 133.925446 95.283180 341.195068 133.984695 95.284843 341.231812 134.049423 95.285759 341.257690 134.117661 95.285881 341.272003 134.187347 95.285225 341.274261 110.122490 95.327110 337.595337 110.053482 95.328529 337.605194 109.754555 96.156624 337.964844 109.756760 96.152153 337.895294 134.541962 96.044098 340.667786 134.563721 96.048065 340.733887 134.573654 96.052353 340.802765 134.571442 96.056816 340.872314 133.774933 96.064339 340.846588 133.777145 96.059868 340.777039 110.551064 96.149101 337.990601 109.771034 96.147644 337.827209 109.796944 96.143219 337.762634 109.833694 96.139023 337.703522 133.882660 96.079132 341.097656 133.839554 96.076134 341.042938 110.510880 96.158043 338.123260 133.806625 96.072594 340.981567 133.784866 96.068626 340.915466 109.862282 96.171417 338.215942 109.819176 96.168419 338.161194 109.786247 96.164879 338.099854 109.764488 96.160912 338.033722 110.445541 96.129837 337.669952 110.488647 96.132843 337.724701 110.521576 96.136383 337.786041 110.543335 96.140350 337.852173 133.791412 96.055359 340.708923 133.817322 96.050934 340.644348 133.854080 96.046738 340.585236 133.900558 96.042892 340.533417 134.557175 96.061333 340.940430 134.531265 96.065758 341.005005 134.494507 96.069954 341.064117 110.536789 96.153618 338.058685 110.553268 96.144638 337.921051 110.427643 96.166084 338.234192 110.474129 96.162239 338.182373 134.413956 96.035187 340.505280 134.465927 96.037560 340.551697 134.509018 96.040558 340.606415 134.448029 96.073799 341.115936 134.393234 96.077171 341.158905 134.331772 96.079979 341.191742 109.880180 96.135178 337.651703 109.934975 96.131805 337.608704 109.996429 96.128998 337.575897 134.152054 96.033142 340.426086 134.221741 96.032486 340.428345 134.265533 96.082123 341.213409 134.196533 96.083549 341.223267 134.126846 96.084206 341.221008 110.372849 96.169456 338.277191 110.311394 96.172264 338.309998 110.245155 96.174408 338.331665 110.062668 96.126854 337.554230 110.131676 96.125427 337.544373 110.201363 96.124771 337.546631 110.269600 96.124901 337.560913 110.334328 96.125809 337.586823 110.393578 96.127472 337.623535 134.289978 96.032616 340.442627 134.354706 96.033524 340.468536 110.176147 96.175835 338.341522 110.106461 96.176491 338.339294 110.038216 96.176361 338.324982 133.955353 96.039520 340.490448 134.016815 96.036713 340.457611 134.083054 96.034569 340.435944 109.973488 96.175453 338.299072 109.914246 96.173790 338.262360 134.058594 96.084076 341.206726 133.993866 96.083168 341.180817 133.934631 96.081505 341.144073 "
							            />
						</IndexedFaceSet>
					</Shape>
				</Group>
			</Transform>
		</Transform>
	</Scene>
</X3D>