<?xml version="1.0" encoding="UTF-8"?>
<!DOCTYPE X3D PUBLIC "ISO//Web3D//DTD X3D 3.0//EN" "http://www.web3d.org/specifications/x3d-3.0.dtd">
<X3D version="3.0" profile="Immersive" xmlns:xsd="http://www.w3.org/2001/XMLSchema-instance" xsd:noNamespaceSchemaLocation="http://www.web3d.org/specifications/x3d-3.0.xsd">
	<head>
		<meta name="filename" content="OMLV4_Packing - For Xander - WingTank-1.x3d" />
		<meta name="created" content="2026-04-19 20:21:18" />
		<meta name="generator" content="Blender 4.3.2" />
		<meta name="translator" content="Web3D X3D/VRML2 format v2.5.1" />
	</head>
	<Scene>
		<NavigationInfo headlight="true"
		                visibilityLimit="0.0"
		                type='"EXAMINE", "ANY"'
		                avatarSize="0.25, 1.75, 0.75"
		                />
		<Background DEF="WO_World"
		            groundColor="0.051 0.051 0.051"
		            skyColor="0.051 0.051 0.051"
		            />
		<Transform DEF="OMLV4_Packing_-_For_Xander_-_WingTank-1_TRANSFORM"
		           translation="0.000000 0.000000 0.000000"
		           scale="1.000000 1.000000 1.000000"
		           rotation="-1.000000 0.000000 0.000000 1.570796"
		           >
			<Transform DEF="OMLV4_Packing_-_For_Xander_-_WingTank-1_ifs_TRANSFORM"
			           translation="0.000000 0.000000 0.000000"
			           scale="1.000000 1.000000 1.000000"
			           rotation="0.000000 1.000000 0.000000 0.000000"
			           >
				<Group DEF="group_ME_OMLV4_Packing_-_For_Xander_-_WingTank-1">
					<Shape>
						<Appearance>
						</Appearance>
						<IndexedFaceSet solid="false"
						                coordIndex="0 1 2 -1 2 1 3 -1 2 3 4 -1 4 3 5 -1 4 5 6 -1 6 5 7 -1 6 7 8 -1 8 7 9 -1 8 9 10 -1 11 12 13 -1 13 12 14 -1 13 14 15 -1 15 14 16 -1 15 16 17 -1 17 16 18 -1 17 18 19 -1 19 18 20 -1 19 20 21 -1 21 20 10 -1 21 10 22 -1 22 10 9 -1 15 17 23 -1 24 25 26 -1 27 28 29 -1 27 29 30 -1 30 29 31 -1 30 31 32 -1 32 31 33 -1 32 33 34 -1 35 36 37 -1 36 35 38 -1 38 35 39 -1 38 39 26 -1 26 39 24 -1 24 39 40 -1 24 40 1 -1 1 40 3 -1 3 40 41 -1 3 41 5 -1 7 42 9 -1 9 42 22 -1 17 19 23 -1 23 19 21 -1 23 21 43 -1 44 11 13 -1 13 15 44 -1 44 15 23 -1 44 23 45 -1 45 23 43 -1 46 47 43 -1 43 47 48 -1 43 48 45 -1 49 50 51 -1 51 50 52 -1 51 52 46 -1 46 52 53 -1 46 53 47 -1 29 54 31 -1 31 54 55 -1 31 55 33 -1 33 55 56 -1 33 56 49 -1 49 56 57 -1 49 57 50 -1 34 58 37 -1 37 58 59 -1 37 59 35 -1 35 59 60 -1 35 60 39 -1 39 60 61 -1 39 61 40 -1 40 61 42 -1 40 42 41 -1 41 42 7 -1 41 7 5 -1 34 33 58 -1 58 33 49 -1 58 49 59 -1 59 49 51 -1 59 51 60 -1 60 51 46 -1 60 46 61 -1 61 46 43 -1 61 43 42 -1 42 43 21 -1 42 21 22 -1 25 24 62 -1 62 24 1 -1 62 1 63 -1 63 1 0 -1 29 28 54 -1 54 28 64 -1 54 64 55 -1 55 64 65 -1 55 65 56 -1 66 67 68 -1 69 70 71 -1 72 73 74 -1 73 72 75 -1 76 77 78 -1 78 77 79 -1 78 79 80 -1 80 79 81 -1 80 81 82 -1 82 81 83 -1 82 83 84 -1 84 83 85 -1 84 85 86 -1 86 85 87 -1 86 87 88 -1 88 87 89 -1 89 87 74 -1 89 74 90 -1 90 74 73 -1 90 73 91 -1 91 73 75 -1 91 75 92 -1 66 68 93 -1 93 68 94 -1 93 94 95 -1 96 95 97 -1 97 95 94 -1 97 94 98 -1 98 94 99 -1 98 99 100 -1 100 99 101 -1 100 101 102 -1 102 101 103 -1 66 69 67 -1 67 69 71 -1 67 71 68 -1 68 71 104 -1 68 104 94 -1 94 104 105 -1 94 105 99 -1 99 105 106 -1 99 106 101 -1 79 103 81 -1 81 103 101 -1 81 101 83 -1 83 101 106 -1 83 106 85 -1 85 106 105 -1 85 105 87 -1 87 105 104 -1 87 104 74 -1 74 104 71 -1 74 71 72 -1 72 71 70 -1 80 107 78 -1 78 107 108 -1 78 108 76 -1 30 77 27 -1 27 77 76 -1 27 76 108 -1 26 96 38 -1 38 96 97 -1 38 97 36 -1 36 97 98 -1 36 98 37 -1 37 98 100 -1 37 100 34 -1 34 100 102 -1 34 102 32 -1 32 102 103 -1 32 103 30 -1 30 103 79 -1 30 79 77 -1 27 108 28 -1 28 108 107 -1 28 107 64 -1 64 107 80 -1 64 80 65 -1 65 80 82 -1 12 11 92 -1 92 11 44 -1 92 44 91 -1 91 44 45 -1 91 45 90 -1 90 45 48 -1 90 48 89 -1 48 47 89 -1 89 47 53 -1 89 53 88 -1 88 53 52 -1 88 52 86 -1 86 52 50 -1 86 50 84 -1 84 50 57 -1 84 57 82 -1 82 57 56 -1 82 56 65 -1 95 96 26 -1 63 93 62 -1 62 93 95 -1 62 95 25 -1 25 95 26 -1 75 16 92 -1 92 16 14 -1 92 14 12 -1 69 8 70 -1 70 8 10 -1 70 10 72 -1 72 10 20 -1 72 20 75 -1 75 20 18 -1 75 18 16 -1 93 63 0 -1 93 0 66 -1 0 2 66 -1 66 2 4 -1 66 4 69 -1 69 4 6 -1 69 6 8 -1 "
						                >
							<Coordinate DEF="coords_ME_OMLV4_Packing_-_For_Xander_-_WingTank-1"
							            point="386.012329 91.942802 571.868774 386.028809 91.942924 571.868774 374.934113 92.138344 552.680664 372.773193 92.173950 548.880127 369.394928 92.224930 543.086548 366.561066 92.269073 538.111633 363.855774 92.307396 533.492432 359.411926 92.373260 525.720215 358.316589 92.386902 523.898254 357.593597 92.399071 522.568726 352.777405 92.464165 514.304077 308.148468 93.079369 436.884399 308.079102 93.076004 436.884399 313.067261 93.008987 445.407471 316.484070 92.956909 451.442230 317.867462 92.941551 453.725128 324.889038 92.841148 466.000061 328.820984 92.791183 472.705536 333.294006 92.727539 480.557892 336.169220 92.691933 485.439240 341.699005 92.614670 495.115753 345.402863 92.567307 501.440826 352.431000 92.471169 513.621033 331.710266 92.977531 470.197174 393.415894 91.895081 571.878418 393.416351 91.895035 571.884399 393.434784 91.894691 571.884399 383.448669 92.005127 436.884399 383.382477 92.009491 436.884399 383.383026 92.009506 436.891296 385.127930 92.046135 459.585968 383.156738 92.221573 470.230499 386.807190 92.074066 482.287567 374.607117 92.657677 470.227478 388.486450 92.083595 504.989075 387.410797 92.172592 538.540405 391.290375 92.034492 542.894287 390.165710 92.066856 527.690613 392.414978 91.977356 558.097900 380.802429 92.332436 538.535095 374.191101 92.376457 538.527893 367.575409 92.284256 538.520020 354.003906 92.736259 504.362274 340.306976 93.205429 470.204010 314.383881 93.347618 436.884399 322.717163 93.603699 436.884399 348.894684 93.294167 470.211456 331.135590 93.749489 436.884399 326.764801 93.687866 436.884399 366.045441 92.994911 470.223572 344.663910 93.700348 436.884399 357.473877 93.215675 470.218445 339.169250 93.765198 436.884399 336.296997 93.775436 436.884399 374.392181 92.560707 436.888916 364.875824 93.048294 436.885803 361.165344 93.209854 436.884399 352.798492 93.508865 436.884399 384.377655 92.279991 504.385986 376.796906 92.575600 504.382111 369.206696 92.765526 504.376892 361.609436 92.826622 504.369873 387.790039 91.949417 571.884399 386.021393 91.942627 571.884399 373.194458 92.627640 436.884399 363.165070 93.124863 436.884399 371.227661 87.170403 546.260864 367.674530 87.075401 538.734741 374.285248 87.120895 538.739624 362.068726 86.974487 530.397217 352.325012 86.781479 513.520569 354.163208 86.646156 504.779572 341.263580 86.576523 494.361603 331.943451 86.271454 470.820343 340.529480 86.205261 470.824341 330.202118 86.381821 475.202576 383.448822 87.439209 436.886200 385.080811 87.481369 458.948761 383.398285 87.436653 436.886200 385.960114 87.503593 470.835785 365.950684 86.618652 436.884399 374.770874 86.986137 470.838989 364.008026 86.538002 436.884399 366.223328 86.652176 470.837097 352.326721 86.113930 436.884399 357.667297 86.392944 470.834015 348.549377 86.003998 436.884399 349.103668 86.235817 470.829315 339.127960 85.805237 436.884399 330.203064 85.740822 436.884399 328.599487 85.741936 436.884399 318.294403 85.816574 436.884399 308.079102 86.007652 436.884399 386.021393 87.534538 571.884399 380.888855 87.266357 538.744202 392.652588 87.699814 571.884399 393.434784 87.726112 571.884399 392.594543 87.689835 560.525330 391.754272 87.659943 549.166199 387.488861 87.491776 538.747070 390.073792 87.609947 526.447937 384.493073 87.385353 504.793823 388.393311 87.565407 503.729614 386.712799 87.522598 481.011353 361.759308 86.684166 504.784485 369.344849 86.835251 504.789093 376.923035 87.077194 504.792023 380.778656 87.305283 436.884399 383.448669 87.439201 436.884399 "
							            />
						</IndexedFaceSet>
					</Shape>
				</Group>
			</Transform>
		</Transform>
	</Scene>
</X3D>