<?xml version="1.0" encoding="UTF-8"?>
<!DOCTYPE X3D PUBLIC "ISO//Web3D//DTD X3D 3.0//EN" "http://www.web3d.org/specifications/x3d-3.0.dtd">
<X3D version="3.0" profile="Immersive" xmlns:xsd="http://www.w3.org/2001/XMLSchema-instance" xsd:noNamespaceSchemaLocation="http://www.web3d.org/specifications/x3d-3.0.xsd">
	<head>
		<meta name="filename" content="OMLV4_Packing - For Xander - Refuler-1 Slider-1.x3d" />
		<meta name="created" content="2026-04-19 20:21:18" />
		<meta name="generator" content="Blender 4.3.2" />
		<meta name="translator" content="Web3D X3D/VRML2 format v2.5.1" />
	</head>
	<Scene>
		<NavigationInfo headlight="true"
		                visibilityLimit="0.0"
		                type='"EXAMINE", "ANY"'
		                avatarSize="0.25, 1.75, 0.75"
		                />
		<Background DEF="WO_World"
		            groundColor="0.051 0.051 0.051"
		            skyColor="0.051 0.051 0.051"
		            />
		<Transform DEF="OMLV4_Packing_-_For_Xander_-_Refuler-1_Slider-1_TRANSFORM"
		           translation="0.000000 0.000000 0.000000"
		           scale="1.000000 1.000000 1.000000"
		           rotation="-1.000000 0.000000 0.000000 1.570796"
		           >
			<Transform DEF="OMLV4_Packing_-_For_Xander_-_Refuler-1_Slider-1_ifs_TRANSFORM"
			           translation="0.000000 0.000000 0.000000"
			           scale="1.000000 1.000000 1.000000"
			           rotation="0.000000 1.000000 0.000000 0.000000"
			           >
				<Group DEF="group_ME_OMLV4_Packing_-_For_Xander_-_Refuler-1_Slider-1">
					<Shape>
						<Appearance>
						</Appearance>
						<IndexedFaceSet solid="false"
						                coordIndex="0 1 2 -1 2 1 3 -1 4 5 6 -1 6 5 7 -1 7 8 6 -1 6 8 9 -1 6 9 10 -1 10 11 6 -1 6 11 12 -1 6 12 13 -1 13 12 14 -1 13 14 15 -1 16 17 18 -1 18 17 13 -1 18 13 19 -1 3 20 2 -1 2 20 21 -1 2 21 22 -1 16 23 17 -1 17 23 24 -1 17 24 25 -1 25 26 17 -1 17 26 27 -1 17 27 28 -1 28 29 17 -1 17 29 30 -1 17 30 2 -1 2 30 31 -1 2 31 0 -1 22 32 2 -1 2 32 33 -1 2 33 6 -1 6 33 34 -1 6 34 4 -1 15 35 13 -1 13 35 36 -1 13 36 37 -1 37 38 13 -1 13 38 39 -1 13 39 19 -1 40 41 17 -1 17 41 13 -1 42 43 44 -1 45 46 47 -1 47 46 48 -1 43 49 44 -1 44 49 50 -1 44 50 51 -1 44 52 40 -1 40 52 53 -1 40 53 54 -1 55 41 56 -1 56 41 40 -1 56 40 57 -1 48 58 47 -1 47 58 59 -1 47 59 60 -1 51 61 44 -1 44 61 62 -1 44 62 52 -1 55 63 41 -1 41 63 64 -1 41 64 65 -1 65 66 41 -1 41 66 67 -1 41 67 68 -1 68 69 41 -1 41 69 70 -1 41 70 47 -1 47 70 71 -1 47 71 45 -1 60 72 47 -1 47 72 73 -1 47 73 44 -1 44 73 74 -1 44 74 42 -1 54 75 40 -1 40 75 76 -1 40 76 77 -1 77 78 40 -1 40 78 79 -1 40 79 57 -1 2 6 44 -1 44 6 47 -1 80 81 47 -1 82 6 83 -1 83 6 13 -1 83 13 84 -1 84 13 85 -1 80 47 86 -1 82 87 6 -1 6 87 88 -1 6 88 89 -1 90 13 91 -1 91 13 41 -1 91 41 92 -1 92 41 93 -1 90 94 13 -1 13 94 95 -1 13 95 96 -1 89 97 6 -1 6 97 98 -1 6 98 99 -1 99 100 6 -1 6 100 101 -1 6 101 47 -1 47 101 102 -1 47 102 86 -1 81 103 47 -1 47 103 104 -1 47 104 105 -1 106 107 41 -1 41 107 108 -1 96 109 13 -1 13 109 110 -1 13 110 85 -1 108 111 41 -1 41 111 112 -1 41 112 93 -1 105 113 47 -1 47 113 114 -1 47 114 41 -1 41 114 115 -1 41 115 106 -1 114 116 115 -1 115 116 117 -1 115 117 106 -1 106 117 118 -1 106 118 107 -1 107 118 119 -1 107 119 108 -1 108 119 120 -1 108 120 111 -1 111 120 121 -1 111 121 112 -1 112 121 122 -1 112 122 93 -1 93 122 123 -1 93 123 92 -1 92 123 124 -1 92 124 91 -1 91 124 125 -1 91 125 90 -1 90 125 126 -1 90 126 94 -1 94 126 127 -1 94 127 95 -1 95 127 128 -1 95 128 96 -1 96 128 129 -1 96 129 109 -1 109 129 130 -1 109 130 110 -1 110 130 131 -1 110 131 85 -1 85 131 132 -1 85 132 84 -1 84 132 133 -1 84 133 83 -1 83 133 134 -1 83 134 82 -1 82 134 135 -1 82 135 87 -1 87 135 136 -1 87 136 88 -1 88 136 137 -1 88 137 89 -1 89 137 138 -1 89 138 97 -1 97 138 139 -1 97 139 98 -1 98 139 140 -1 98 140 99 -1 99 140 141 -1 99 141 100 -1 100 141 142 -1 100 142 101 -1 101 142 143 -1 101 143 102 -1 102 143 144 -1 102 144 86 -1 86 144 145 -1 86 145 80 -1 80 145 146 -1 80 146 81 -1 81 146 147 -1 81 147 103 -1 103 147 148 -1 103 148 104 -1 104 148 149 -1 104 149 105 -1 105 149 150 -1 105 150 113 -1 113 150 151 -1 113 151 114 -1 114 151 116 -1 123 122 40 -1 150 149 44 -1 44 149 148 -1 141 140 2 -1 2 140 139 -1 40 119 118 -1 139 138 2 -1 2 138 137 -1 2 137 136 -1 132 131 17 -1 17 131 130 -1 130 129 17 -1 17 129 128 -1 17 128 127 -1 122 121 40 -1 40 121 120 -1 40 120 119 -1 118 117 40 -1 40 117 116 -1 40 116 44 -1 44 116 151 -1 44 151 150 -1 148 147 44 -1 44 147 146 -1 44 146 145 -1 145 144 44 -1 44 144 143 -1 44 143 2 -1 2 143 142 -1 2 142 141 -1 127 126 17 -1 17 126 125 -1 17 125 40 -1 40 125 124 -1 40 124 123 -1 136 135 2 -1 2 135 134 -1 2 134 17 -1 17 134 133 -1 17 133 132 -1 12 152 14 -1 14 152 153 -1 14 153 15 -1 15 153 154 -1 15 154 35 -1 35 154 155 -1 35 155 36 -1 36 155 156 -1 36 156 37 -1 37 156 157 -1 37 157 38 -1 38 157 158 -1 38 158 39 -1 39 158 159 -1 39 159 19 -1 19 159 160 -1 19 160 18 -1 18 160 161 -1 18 161 16 -1 16 161 162 -1 16 162 23 -1 23 162 163 -1 23 163 24 -1 24 163 164 -1 24 164 25 -1 25 164 165 -1 25 165 26 -1 26 165 166 -1 26 166 27 -1 27 166 167 -1 27 167 28 -1 28 167 168 -1 28 168 29 -1 29 168 169 -1 29 169 30 -1 30 169 170 -1 30 170 31 -1 31 170 171 -1 31 171 0 -1 0 171 172 -1 0 172 1 -1 1 172 173 -1 1 173 3 -1 3 173 174 -1 3 174 20 -1 20 174 175 -1 20 175 21 -1 21 175 176 -1 21 176 22 -1 22 176 177 -1 22 177 32 -1 32 177 178 -1 32 178 33 -1 33 178 179 -1 33 179 34 -1 34 179 180 -1 34 180 4 -1 4 180 181 -1 4 181 5 -1 5 181 182 -1 5 182 7 -1 7 182 183 -1 7 183 8 -1 8 183 184 -1 8 184 9 -1 9 184 185 -1 9 185 10 -1 10 185 186 -1 10 186 11 -1 11 186 187 -1 11 187 12 -1 12 187 152 -1 171 170 188 -1 188 170 169 -1 188 169 168 -1 174 173 188 -1 188 173 172 -1 188 172 171 -1 177 176 188 -1 188 176 175 -1 188 175 174 -1 180 179 188 -1 188 179 178 -1 188 178 177 -1 183 182 188 -1 188 182 181 -1 188 181 180 -1 186 185 188 -1 188 185 184 -1 188 184 183 -1 153 152 188 -1 188 152 187 -1 188 187 186 -1 156 155 188 -1 188 155 154 -1 188 154 153 -1 159 158 188 -1 188 158 157 -1 188 157 156 -1 162 161 188 -1 188 161 160 -1 188 160 159 -1 165 164 188 -1 188 164 163 -1 188 163 162 -1 168 167 188 -1 188 167 166 -1 188 166 165 -1 52 189 53 -1 53 189 190 -1 53 190 54 -1 54 190 191 -1 54 191 75 -1 75 191 192 -1 75 192 76 -1 76 192 193 -1 76 193 77 -1 77 193 194 -1 77 194 78 -1 78 194 195 -1 78 195 79 -1 79 195 196 -1 79 196 57 -1 57 196 197 -1 57 197 56 -1 56 197 198 -1 56 198 55 -1 55 198 199 -1 55 199 63 -1 63 199 200 -1 63 200 64 -1 64 200 201 -1 64 201 65 -1 65 201 202 -1 65 202 66 -1 66 202 203 -1 66 203 67 -1 67 203 204 -1 67 204 68 -1 68 204 205 -1 68 205 69 -1 69 205 206 -1 69 206 70 -1 70 206 207 -1 70 207 71 -1 71 207 208 -1 71 208 45 -1 45 208 209 -1 45 209 46 -1 46 209 210 -1 46 210 48 -1 48 210 211 -1 48 211 58 -1 58 211 212 -1 58 212 59 -1 59 212 213 -1 59 213 60 -1 60 213 214 -1 60 214 72 -1 72 214 215 -1 72 215 73 -1 73 215 216 -1 73 216 74 -1 74 216 217 -1 74 217 42 -1 42 217 218 -1 42 218 43 -1 43 218 219 -1 43 219 49 -1 49 219 220 -1 49 220 50 -1 50 220 221 -1 50 221 51 -1 51 221 222 -1 51 222 61 -1 61 222 223 -1 61 223 62 -1 62 223 224 -1 62 224 52 -1 52 224 189 -1 208 207 225 -1 225 207 206 -1 225 206 205 -1 211 210 225 -1 225 210 209 -1 225 209 208 -1 214 213 225 -1 225 213 212 -1 225 212 211 -1 217 216 225 -1 225 216 215 -1 225 215 214 -1 220 219 225 -1 225 219 218 -1 225 218 217 -1 223 222 225 -1 225 222 221 -1 225 221 220 -1 190 189 225 -1 225 189 224 -1 225 224 223 -1 193 192 225 -1 225 192 191 -1 225 191 190 -1 196 195 225 -1 225 195 194 -1 225 194 193 -1 199 198 225 -1 225 198 197 -1 225 197 196 -1 202 201 225 -1 225 201 200 -1 225 200 199 -1 205 204 225 -1 225 204 203 -1 225 203 202 -1 "
						                >
							<Coordinate DEF="coords_ME_OMLV4_Packing_-_For_Xander_-_Refuler-1_Slider-1"
							            point="133.773209 92.082535 341.262970 133.810562 92.085861 341.321747 132.670242 92.159767 342.273438 133.857559 92.088608 341.373169 134.312332 92.087273 341.434204 134.371216 92.084221 341.396973 135.843506 92.097198 341.865356 134.422714 92.080635 341.350128 134.465271 92.076622 341.295044 134.497589 92.072319 341.233398 134.518692 92.067841 341.167084 134.527924 92.063332 341.098145 134.525024 92.058922 341.028595 135.586502 91.973717 339.885803 134.510071 92.054749 340.960632 134.483536 92.050949 340.896271 134.008881 92.043777 340.698578 132.413239 92.036285 340.293854 134.076965 92.042046 340.683685 134.146637 92.041061 340.680847 133.912781 92.090691 341.415680 133.974548 92.092041 341.447998 134.041000 92.092621 341.469086 133.944412 92.046211 340.725037 133.885529 92.049263 340.762238 133.834030 92.052849 340.809113 133.791473 92.056862 340.864197 133.759155 92.061165 340.925842 133.738052 92.065643 340.992126 133.728821 92.070160 341.061096 133.731720 92.074562 341.130615 133.746658 92.078735 341.198608 134.110107 92.092422 341.478363 134.179764 92.091438 341.475525 134.247864 92.089706 341.460663 134.446182 92.047623 340.837494 134.399185 92.044876 340.786041 134.343964 92.042801 340.743530 134.282181 92.041443 340.711243 134.215744 92.040863 340.690125 132.436203 94.032089 340.166382 135.609467 93.969521 339.758331 134.063965 94.088425 341.341644 133.997513 94.087845 341.320526 132.693207 94.155563 342.145966 134.541641 94.063644 341.039612 134.520554 94.068115 341.105927 135.866455 94.092995 341.737915 134.488220 94.072426 341.167572 133.935745 94.086487 341.288208 133.880508 94.084412 341.245697 133.833511 94.081665 341.194275 133.754669 94.070366 341.003143 133.751770 94.065956 340.933624 133.761017 94.061447 340.864655 134.169586 94.036865 340.553375 134.099930 94.037849 340.556244 134.031830 94.039581 340.571106 134.445679 94.076431 341.222656 134.394180 94.080017 341.269501 134.335297 94.083076 341.306732 133.796173 94.078339 341.135498 133.769623 94.074532 341.071136 134.238693 94.036667 340.562653 134.305145 94.037247 340.583771 134.366928 94.038597 340.616058 134.422150 94.040680 340.658569 134.469147 94.043427 340.710022 134.506485 94.046745 340.768799 134.533035 94.050552 340.833160 134.547989 94.054726 340.901123 134.550888 94.059128 340.970673 134.270828 94.085503 341.333191 134.202728 94.087242 341.348053 134.133072 94.088219 341.350891 133.782120 94.056969 340.798370 133.814438 94.052658 340.736725 133.856995 94.048653 340.681641 133.908493 94.045067 340.634766 133.967361 94.042015 340.597565 135.796692 93.364807 341.307037 135.789963 93.446602 341.242188 135.733093 92.450150 340.952637 135.719589 92.434616 340.850098 135.706314 92.437279 340.746399 135.693634 92.458061 340.644653 135.801285 93.272949 341.356842 135.746384 92.483398 341.050903 135.759064 92.533356 341.141907 135.770767 92.598511 341.222870 135.649353 92.892906 340.233643 135.649384 92.996315 340.217987 135.651749 93.100853 340.220367 135.656387 93.203331 340.240723 135.651672 92.793770 340.266876 135.656265 92.701912 340.316650 135.662994 92.620117 340.381500 135.781113 92.676872 341.291351 135.789810 92.766068 341.345276 135.796570 92.863388 341.382996 135.801208 92.965866 341.403351 135.803574 93.070404 341.405731 135.803604 93.173813 341.390045 135.781311 93.515831 341.164276 135.770996 93.570404 341.075653 135.759323 93.608658 340.979034 135.706589 93.583321 340.572784 135.693893 93.533363 340.481812 135.682205 93.468208 340.400818 135.671646 92.550888 340.459412 135.681961 92.496315 340.548035 135.671844 93.389847 340.332336 135.663162 93.300652 340.278412 135.746658 93.629433 340.877319 135.733368 93.632103 340.773621 135.719879 93.616570 340.671051 132.560104 93.694664 341.181671 132.546616 93.679138 341.079132 132.533325 93.645889 340.980865 132.520645 93.595932 340.889862 132.508942 93.530777 340.808868 132.498596 93.452415 340.740387 132.489899 93.363220 340.686493 132.483124 93.265900 340.648773 132.478485 93.163414 340.628418 132.476120 93.058884 340.626038 132.476105 92.955475 340.641693 132.478424 92.856339 340.674927 132.483002 92.764481 340.724731 132.489731 92.682686 340.789551 132.498383 92.613457 340.867462 132.508713 92.558884 340.956085 132.520386 92.520622 341.052734 132.533051 92.499847 341.154449 132.546341 92.497185 341.258148 132.559830 92.512718 341.360687 132.573120 92.545967 341.458954 132.585800 92.595924 341.549957 132.597504 92.661079 341.630951 132.607849 92.739441 341.699432 132.616547 92.828636 341.753326 132.623322 92.925957 341.791046 132.627960 93.028435 341.811401 132.630325 93.132973 341.813782 132.630341 93.236374 341.798126 132.628021 93.335518 341.764893 132.623428 93.427376 341.715088 132.616714 93.509163 341.650269 132.608063 93.578400 341.572357 132.597733 93.632973 341.483734 132.586060 93.671227 341.387085 132.573395 93.692001 341.285370 134.487122 90.058952 341.088104 134.460571 90.055145 341.023743 134.423233 90.051819 340.964966 134.376236 90.049072 340.913513 134.320999 90.046997 340.871002 134.259232 90.045647 340.838715 134.192780 90.045059 340.817596 134.123672 90.045265 340.808319 134.054016 90.046242 340.811157 133.985916 90.047981 340.826050 133.921448 90.050407 340.852478 133.862564 90.053467 340.889709 133.811066 90.057053 340.936584 133.768509 90.061058 340.991669 133.736191 90.065369 341.053314 133.715103 90.069847 341.119598 133.705856 90.074356 341.188568 133.708755 90.078758 341.258087 133.723709 90.082932 341.326080 133.750259 90.086739 341.390411 133.787598 90.090065 341.449219 133.834595 90.092804 341.500641 133.889816 90.094887 341.543152 133.951599 90.096237 341.575470 134.018051 90.096825 341.596558 134.087158 90.096619 341.605835 134.156815 90.095634 341.602997 134.224915 90.093903 341.588135 134.289383 90.091469 341.561676 134.348251 90.088417 341.524445 134.399750 90.084831 341.477570 134.442307 90.080826 341.422485 134.474625 90.076515 341.360870 134.495728 90.072037 341.294556 134.504974 90.067528 341.225586 134.502075 90.063118 341.156067 134.105408 90.070938 341.207092 133.774734 96.061760 340.806152 133.783981 96.057251 340.737183 133.805084 96.052773 340.670898 133.837402 96.048462 340.609253 133.879959 96.044456 340.554169 133.931458 96.040871 340.507294 133.990326 96.037811 340.470093 134.054794 96.035385 340.443634 134.122894 96.033653 340.428772 134.192551 96.032669 340.425934 134.261658 96.032463 340.435181 134.328110 96.033051 340.456299 134.389877 96.034401 340.488617 134.445114 96.036484 340.531128 134.492111 96.039223 340.582550 134.529449 96.042549 340.641327 134.556000 96.046356 340.705688 134.570953 96.050522 340.773682 134.573853 96.054932 340.843201 134.564606 96.059441 340.912170 134.543503 96.063919 340.978455 134.511185 96.068230 341.040100 134.468628 96.072235 341.095184 134.417130 96.075821 341.142059 134.358261 96.078880 341.179260 134.293793 96.081306 341.205719 134.225693 96.083038 341.220581 134.156036 96.084023 341.223419 134.086929 96.084229 341.214172 134.020477 96.083641 341.193054 133.958694 96.082291 341.160767 133.903473 96.080208 341.118225 133.856476 96.077469 341.066803 133.819138 96.074142 341.008026 133.792587 96.070335 340.943665 133.777634 96.066170 340.875671 134.174286 96.058342 340.824677 "
							            />
						</IndexedFaceSet>
					</Shape>
				</Group>
			</Transform>
		</Transform>
	</Scene>
</X3D>