<?xml version="1.0" encoding="UTF-8"?>
<!DOCTYPE X3D PUBLIC "ISO//Web3D//DTD X3D 3.0//EN" "http://www.web3d.org/specifications/x3d-3.0.dtd">
<X3D version="3.0" profile="Immersive" xmlns:xsd="http://www.w3.org/2001/XMLSchema-instance" xsd:noNamespaceSchemaLocation="http://www.web3d.org/specifications/x3d-3.0.xsd">
	<head>
		<meta name="filename" content="OMLV4_Packing - For Xander - IRST-21 Independent-1.x3d" />
		<meta name="created" content="2026-04-19 20:21:18" />
		<meta name="generator" content="Blender 4.3.2" />
		<meta name="translator" content="Web3D X3D/VRML2 format v2.5.1" />
	</head>
	<Scene>
		<NavigationInfo headlight="true"
		                visibilityLimit="0.0"
		                type='"EXAMINE", "ANY"'
		                avatarSize="0.25, 1.75, 0.75"
		                />
		<Background DEF="WO_World"
		            groundColor="0.051 0.051 0.051"
		            skyColor="0.051 0.051 0.051"
		            />
		<Transform DEF="OMLV4_Packing_-_For_Xander_-_IRST-21_Independent-1_TRANSFORM"
		           translation="0.000000 0.000000 0.000000"
		           scale="1.000000 1.000000 1.000000"
		           rotation="-1.000000 0.000000 0.000000 1.570796"
		           >
			<Transform DEF="OMLV4_Packing_-_For_Xander_-_IRST-21_Independent-1_ifs_TRANSFORM"
			           translation="0.000000 0.000000 0.000000"
			           scale="1.000000 1.000000 1.000000"
			           rotation="0.000000 1.000000 0.000000 0.000000"
			           >
				<Group DEF="group_ME_OMLV4_Packing_-_For_Xander_-_IRST-21_Independent-1">
					<Shape>
						<Appearance>
						</Appearance>
						<IndexedFaceSet solid="false"
						                coordIndex="0 1 2 -1 2 1 3 -1 4 0 5 -1 5 0 2 -1 6 4 7 -1 7 4 5 -1 1 6 3 -1 3 6 7 -1 8 9 4 -1 10 11 1 -1 12 13 0 -1 0 13 14 -1 0 14 15 -1 9 16 4 -1 4 16 17 -1 4 17 18 -1 15 19 0 -1 0 19 20 -1 0 20 21 -1 22 6 23 -1 23 6 1 -1 23 1 24 -1 24 1 11 -1 22 25 6 -1 6 25 26 -1 6 26 27 -1 28 29 6 -1 6 29 30 -1 6 30 4 -1 4 30 31 -1 4 31 8 -1 18 32 4 -1 4 32 33 -1 4 33 34 -1 27 35 6 -1 6 35 36 -1 6 36 28 -1 34 37 4 -1 4 37 38 -1 4 38 0 -1 0 38 39 -1 0 39 12 -1 40 1 41 -1 41 1 0 -1 41 0 42 -1 42 0 21 -1 40 43 1 -1 1 43 44 -1 1 44 45 -1 45 46 1 -1 1 46 47 -1 1 47 10 -1 7 5 3 -1 3 5 2 -1 23 24 48 -1 11 49 24 -1 24 49 50 -1 24 50 48 -1 51 52 10 -1 10 52 53 -1 10 53 11 -1 11 53 54 -1 11 54 49 -1 51 10 55 -1 55 10 47 -1 55 47 56 -1 56 47 57 -1 57 47 46 -1 57 46 58 -1 45 59 46 -1 46 59 60 -1 46 60 58 -1 44 61 45 -1 45 61 62 -1 45 62 59 -1 63 64 43 -1 43 64 65 -1 43 65 44 -1 44 65 66 -1 44 66 61 -1 63 43 67 -1 67 43 40 -1 67 40 68 -1 68 40 69 -1 69 40 41 -1 69 41 70 -1 42 71 41 -1 41 71 72 -1 41 72 70 -1 73 74 21 -1 21 74 75 -1 21 75 42 -1 42 75 76 -1 42 76 71 -1 73 21 77 -1 77 21 20 -1 77 20 78 -1 78 20 79 -1 79 20 19 -1 79 19 80 -1 80 19 81 -1 81 19 15 -1 81 15 82 -1 14 83 15 -1 15 83 84 -1 15 84 82 -1 85 86 13 -1 13 86 87 -1 13 87 14 -1 14 87 88 -1 14 88 83 -1 85 13 89 -1 89 13 12 -1 89 12 90 -1 90 12 91 -1 91 12 39 -1 91 39 92 -1 38 93 39 -1 39 93 94 -1 39 94 92 -1 37 95 38 -1 38 95 96 -1 38 96 93 -1 97 98 34 -1 34 98 99 -1 34 99 37 -1 37 99 100 -1 37 100 95 -1 97 34 101 -1 101 34 33 -1 101 33 102 -1 102 33 103 -1 103 33 32 -1 103 32 104 -1 105 106 18 -1 18 106 107 -1 18 107 32 -1 32 107 108 -1 32 108 104 -1 16 109 17 -1 17 109 110 -1 17 110 18 -1 18 110 111 -1 18 111 105 -1 9 112 16 -1 16 112 113 -1 16 113 109 -1 114 115 8 -1 8 115 116 -1 8 116 9 -1 9 116 117 -1 9 117 112 -1 114 8 118 -1 118 8 31 -1 118 31 119 -1 119 31 120 -1 120 31 30 -1 120 30 121 -1 122 123 29 -1 29 123 124 -1 29 124 30 -1 30 124 125 -1 30 125 121 -1 36 126 28 -1 28 126 127 -1 28 127 29 -1 29 127 128 -1 29 128 122 -1 35 129 36 -1 36 129 130 -1 36 130 126 -1 131 132 27 -1 27 132 133 -1 27 133 35 -1 35 133 134 -1 35 134 129 -1 131 27 135 -1 135 27 26 -1 135 26 136 -1 136 26 137 -1 137 26 25 -1 137 25 138 -1 22 139 25 -1 25 139 140 -1 25 140 138 -1 48 141 23 -1 23 141 142 -1 23 142 22 -1 22 142 143 -1 22 143 139 -1 144 145 146 -1 144 146 147 -1 148 147 146 -1 149 148 146 -1 150 149 146 -1 151 150 146 -1 152 151 146 -1 153 152 146 -1 154 153 146 -1 155 154 146 -1 156 155 146 -1 157 156 146 -1 158 157 146 -1 159 158 146 -1 160 159 146 -1 161 160 146 -1 162 161 146 -1 163 162 146 -1 164 163 146 -1 165 164 146 -1 166 165 146 -1 167 166 146 -1 168 167 146 -1 169 168 146 -1 170 169 146 -1 171 170 146 -1 172 171 146 -1 173 172 146 -1 174 173 146 -1 175 174 146 -1 176 175 146 -1 177 176 146 -1 178 177 146 -1 179 178 146 -1 180 179 146 -1 181 180 146 -1 182 181 146 -1 183 182 146 -1 184 183 146 -1 185 184 146 -1 186 185 146 -1 187 186 146 -1 188 187 146 -1 189 188 146 -1 190 189 146 -1 191 190 146 -1 192 191 146 -1 193 192 146 -1 194 193 146 -1 195 194 146 -1 196 195 146 -1 197 196 146 -1 198 197 146 -1 199 198 146 -1 200 199 146 -1 201 200 146 -1 145 201 146 -1 54 202 203 -1 54 53 202 -1 202 53 52 -1 202 52 204 -1 204 52 51 -1 204 51 205 -1 51 55 205 -1 205 55 56 -1 205 56 206 -1 56 57 206 -1 206 57 58 -1 206 58 207 -1 207 58 60 -1 207 60 208 -1 60 59 208 -1 208 59 62 -1 208 62 209 -1 62 61 209 -1 209 61 66 -1 209 66 210 -1 66 65 210 -1 210 65 64 -1 210 64 211 -1 211 64 63 -1 211 63 212 -1 63 67 212 -1 212 67 68 -1 212 68 213 -1 68 69 213 -1 213 69 70 -1 213 70 214 -1 214 70 72 -1 214 72 215 -1 72 71 215 -1 215 71 76 -1 215 76 216 -1 76 75 216 -1 216 75 74 -1 216 74 217 -1 217 74 73 -1 217 73 218 -1 73 77 218 -1 218 77 78 -1 218 78 219 -1 78 79 219 -1 219 79 80 -1 219 80 220 -1 80 81 220 -1 220 81 82 -1 220 82 221 -1 221 82 84 -1 221 84 222 -1 84 83 222 -1 222 83 88 -1 222 88 223 -1 88 87 223 -1 223 87 86 -1 223 86 224 -1 224 86 85 -1 224 85 225 -1 85 89 225 -1 225 89 90 -1 225 90 226 -1 90 91 226 -1 226 91 92 -1 226 92 227 -1 227 92 94 -1 227 94 228 -1 94 93 228 -1 228 93 96 -1 228 96 229 -1 96 95 229 -1 229 95 100 -1 229 100 230 -1 100 99 230 -1 230 99 98 -1 230 98 231 -1 231 98 97 -1 231 97 232 -1 97 101 232 -1 232 101 102 -1 232 102 233 -1 102 103 233 -1 233 103 104 -1 233 104 234 -1 234 104 108 -1 234 108 235 -1 108 107 235 -1 235 107 106 -1 235 106 236 -1 106 105 236 -1 236 105 111 -1 236 111 237 -1 237 111 110 -1 237 110 238 -1 110 109 238 -1 238 109 113 -1 238 113 239 -1 113 112 239 -1 239 112 117 -1 239 117 240 -1 117 116 240 -1 240 116 115 -1 240 115 241 -1 241 115 114 -1 241 114 242 -1 114 118 242 -1 242 118 119 -1 242 119 243 -1 119 120 243 -1 243 120 121 -1 243 121 244 -1 244 121 125 -1 244 125 245 -1 125 124 245 -1 245 124 123 -1 245 123 246 -1 123 122 246 -1 246 122 128 -1 246 128 247 -1 247 128 127 -1 247 127 248 -1 127 126 248 -1 248 126 130 -1 248 130 249 -1 130 129 249 -1 249 129 134 -1 249 134 250 -1 134 133 250 -1 250 133 132 -1 250 132 251 -1 251 132 131 -1 251 131 252 -1 131 135 252 -1 252 135 136 -1 252 136 253 -1 136 137 253 -1 253 137 138 -1 253 138 254 -1 254 138 140 -1 254 140 255 -1 140 139 255 -1 255 139 143 -1 255 143 256 -1 143 142 256 -1 256 142 141 -1 256 141 257 -1 257 141 48 -1 257 48 258 -1 258 48 50 -1 258 50 203 -1 203 50 49 -1 203 49 54 -1 257 259 256 -1 256 259 260 -1 256 260 255 -1 255 260 261 -1 255 261 254 -1 254 261 262 -1 254 262 253 -1 253 262 263 -1 253 263 252 -1 252 263 264 -1 252 264 251 -1 251 264 265 -1 251 265 250 -1 250 265 266 -1 250 266 249 -1 249 266 267 -1 249 267 248 -1 248 267 268 -1 248 268 247 -1 247 268 269 -1 247 269 246 -1 246 269 270 -1 246 270 245 -1 245 270 271 -1 245 271 244 -1 244 271 272 -1 244 272 243 -1 243 272 273 -1 243 273 242 -1 242 273 274 -1 242 274 241 -1 241 274 275 -1 241 275 240 -1 240 275 276 -1 240 276 239 -1 239 276 277 -1 239 277 238 -1 238 277 278 -1 238 278 237 -1 237 278 279 -1 237 279 236 -1 236 279 280 -1 236 280 235 -1 235 280 281 -1 235 281 234 -1 234 281 282 -1 234 282 233 -1 233 282 283 -1 233 283 232 -1 232 283 284 -1 232 284 231 -1 231 284 285 -1 231 285 230 -1 230 285 286 -1 230 286 229 -1 229 286 287 -1 229 287 228 -1 228 287 288 -1 228 288 227 -1 227 288 289 -1 227 289 226 -1 226 289 290 -1 226 290 225 -1 225 290 291 -1 225 291 224 -1 224 291 292 -1 224 292 223 -1 223 292 293 -1 223 293 222 -1 222 293 294 -1 222 294 221 -1 221 294 295 -1 221 295 220 -1 220 295 296 -1 220 296 219 -1 219 296 297 -1 219 297 218 -1 218 297 298 -1 218 298 217 -1 217 298 299 -1 217 299 216 -1 216 299 300 -1 216 300 215 -1 215 300 301 -1 215 301 214 -1 214 301 302 -1 214 302 213 -1 213 302 303 -1 213 303 212 -1 212 303 304 -1 212 304 211 -1 211 304 305 -1 211 305 210 -1 210 305 306 -1 210 306 209 -1 209 306 307 -1 209 307 208 -1 208 307 308 -1 208 308 207 -1 207 308 309 -1 207 309 206 -1 206 309 310 -1 206 310 205 -1 205 310 311 -1 205 311 204 -1 204 311 312 -1 204 312 202 -1 202 312 313 -1 202 313 203 -1 203 313 314 -1 203 314 258 -1 258 314 315 -1 258 315 257 -1 257 315 259 -1 315 316 259 -1 259 316 317 -1 259 317 260 -1 260 317 318 -1 260 318 261 -1 261 318 319 -1 261 319 262 -1 262 319 320 -1 262 320 263 -1 263 320 321 -1 263 321 264 -1 264 321 322 -1 264 322 265 -1 265 322 323 -1 265 323 266 -1 266 323 324 -1 266 324 267 -1 267 324 325 -1 267 325 268 -1 268 325 326 -1 268 326 269 -1 269 326 327 -1 269 327 270 -1 270 327 328 -1 270 328 271 -1 271 328 329 -1 271 329 272 -1 272 329 330 -1 272 330 273 -1 273 330 331 -1 273 331 274 -1 274 331 332 -1 274 332 275 -1 275 332 333 -1 275 333 276 -1 276 333 334 -1 276 334 277 -1 277 334 335 -1 277 335 278 -1 278 335 336 -1 278 336 279 -1 279 336 337 -1 279 337 280 -1 280 337 338 -1 280 338 281 -1 281 338 339 -1 281 339 282 -1 282 339 340 -1 282 340 283 -1 283 340 341 -1 283 341 284 -1 284 341 342 -1 284 342 285 -1 285 342 343 -1 285 343 286 -1 286 343 344 -1 286 344 287 -1 287 344 345 -1 287 345 288 -1 288 345 346 -1 288 346 289 -1 289 346 347 -1 289 347 290 -1 290 347 348 -1 290 348 291 -1 291 348 349 -1 291 349 292 -1 292 349 350 -1 292 350 293 -1 293 350 351 -1 293 351 294 -1 294 351 352 -1 294 352 295 -1 295 352 353 -1 295 353 296 -1 296 353 354 -1 296 354 297 -1 297 354 355 -1 297 355 298 -1 298 355 356 -1 298 356 299 -1 299 356 357 -1 299 357 300 -1 300 357 358 -1 300 358 301 -1 301 358 359 -1 301 359 302 -1 302 359 360 -1 302 360 303 -1 303 360 361 -1 303 361 304 -1 304 361 362 -1 304 362 305 -1 305 362 363 -1 305 363 306 -1 306 363 364 -1 306 364 307 -1 307 364 365 -1 307 365 308 -1 308 365 366 -1 308 366 309 -1 309 366 367 -1 309 367 310 -1 310 367 368 -1 310 368 311 -1 311 368 369 -1 311 369 312 -1 312 369 370 -1 312 370 313 -1 313 370 371 -1 313 371 314 -1 314 371 372 -1 314 372 315 -1 315 372 316 -1 372 373 316 -1 316 373 374 -1 316 374 317 -1 317 374 375 -1 317 375 318 -1 318 375 376 -1 318 376 319 -1 319 376 377 -1 319 377 320 -1 320 377 378 -1 320 378 321 -1 321 378 379 -1 321 379 322 -1 322 379 380 -1 322 380 323 -1 323 380 381 -1 323 381 324 -1 324 381 382 -1 324 382 325 -1 325 382 383 -1 325 383 326 -1 326 383 384 -1 326 384 327 -1 327 384 385 -1 327 385 328 -1 328 385 386 -1 328 386 329 -1 329 386 387 -1 329 387 330 -1 330 387 388 -1 330 388 331 -1 331 388 389 -1 331 389 332 -1 332 389 390 -1 332 390 333 -1 333 390 391 -1 333 391 334 -1 334 391 392 -1 334 392 335 -1 335 392 393 -1 335 393 336 -1 336 393 394 -1 336 394 337 -1 337 394 395 -1 337 395 338 -1 338 395 396 -1 338 396 339 -1 339 396 397 -1 339 397 340 -1 340 397 398 -1 340 398 341 -1 341 398 399 -1 341 399 342 -1 342 399 400 -1 342 400 343 -1 343 400 401 -1 343 401 344 -1 344 401 402 -1 344 402 345 -1 345 402 403 -1 345 403 346 -1 346 403 404 -1 346 404 347 -1 347 404 405 -1 347 405 348 -1 348 405 406 -1 348 406 349 -1 349 406 407 -1 349 407 350 -1 350 407 408 -1 350 408 351 -1 351 408 409 -1 351 409 352 -1 352 409 410 -1 352 410 353 -1 353 410 411 -1 353 411 354 -1 354 411 412 -1 354 412 355 -1 355 412 413 -1 355 413 356 -1 356 413 414 -1 356 414 357 -1 357 414 415 -1 357 415 358 -1 358 415 416 -1 358 416 359 -1 359 416 417 -1 359 417 360 -1 360 417 418 -1 360 418 361 -1 361 418 419 -1 361 419 362 -1 362 419 420 -1 362 420 363 -1 363 420 421 -1 363 421 364 -1 364 421 422 -1 364 422 365 -1 365 422 423 -1 365 423 366 -1 366 423 424 -1 366 424 367 -1 367 424 425 -1 367 425 368 -1 368 425 426 -1 368 426 369 -1 369 426 427 -1 369 427 370 -1 370 427 428 -1 370 428 371 -1 371 428 429 -1 371 429 372 -1 372 429 373 -1 429 430 373 -1 373 430 431 -1 373 431 374 -1 374 431 432 -1 374 432 375 -1 375 432 433 -1 375 433 376 -1 376 433 434 -1 376 434 377 -1 377 434 435 -1 377 435 378 -1 378 435 436 -1 378 436 379 -1 379 436 437 -1 379 437 380 -1 380 437 438 -1 380 438 381 -1 381 438 439 -1 381 439 382 -1 382 439 440 -1 382 440 383 -1 383 440 441 -1 383 441 384 -1 384 441 442 -1 384 442 385 -1 385 442 443 -1 385 443 386 -1 386 443 444 -1 386 444 387 -1 387 444 445 -1 387 445 388 -1 388 445 446 -1 388 446 389 -1 389 446 447 -1 389 447 390 -1 390 447 448 -1 390 448 391 -1 391 448 449 -1 391 449 392 -1 392 449 450 -1 392 450 393 -1 393 450 451 -1 393 451 394 -1 394 451 452 -1 394 452 395 -1 395 452 453 -1 395 453 396 -1 396 453 454 -1 396 454 397 -1 397 454 455 -1 397 455 398 -1 398 455 456 -1 398 456 399 -1 399 456 457 -1 399 457 400 -1 400 457 458 -1 400 458 401 -1 401 458 459 -1 401 459 402 -1 402 459 460 -1 402 460 403 -1 403 460 461 -1 403 461 404 -1 404 461 462 -1 404 462 405 -1 405 462 463 -1 405 463 406 -1 406 463 464 -1 406 464 407 -1 407 464 465 -1 407 465 408 -1 408 465 466 -1 408 466 409 -1 409 466 467 -1 409 467 410 -1 410 467 468 -1 410 468 411 -1 411 468 469 -1 411 469 412 -1 412 469 470 -1 412 470 413 -1 413 470 471 -1 413 471 414 -1 414 471 472 -1 414 472 415 -1 415 472 473 -1 415 473 416 -1 416 473 474 -1 416 474 417 -1 417 474 475 -1 417 475 418 -1 418 475 476 -1 418 476 419 -1 419 476 477 -1 419 477 420 -1 420 477 478 -1 420 478 421 -1 421 478 479 -1 421 479 422 -1 422 479 480 -1 422 480 423 -1 423 480 481 -1 423 481 424 -1 424 481 482 -1 424 482 425 -1 425 482 483 -1 425 483 426 -1 426 483 484 -1 426 484 427 -1 427 484 485 -1 427 485 428 -1 428 485 486 -1 428 486 429 -1 429 486 430 -1 486 487 430 -1 430 487 488 -1 430 488 431 -1 431 488 489 -1 431 489 432 -1 432 489 490 -1 432 490 433 -1 433 490 491 -1 433 491 434 -1 434 491 492 -1 434 492 435 -1 435 492 493 -1 435 493 436 -1 436 493 494 -1 436 494 437 -1 437 494 495 -1 437 495 438 -1 438 495 496 -1 438 496 439 -1 439 496 497 -1 439 497 440 -1 440 497 498 -1 440 498 441 -1 441 498 499 -1 441 499 442 -1 442 499 500 -1 442 500 443 -1 443 500 501 -1 443 501 444 -1 444 501 502 -1 444 502 445 -1 445 502 503 -1 445 503 446 -1 446 503 504 -1 446 504 447 -1 447 504 505 -1 447 505 448 -1 448 505 506 -1 448 506 449 -1 449 506 507 -1 449 507 450 -1 450 507 508 -1 450 508 451 -1 451 508 509 -1 451 509 452 -1 452 509 510 -1 452 510 453 -1 453 510 511 -1 453 511 454 -1 454 511 512 -1 454 512 455 -1 455 512 513 -1 455 513 456 -1 456 513 514 -1 456 514 457 -1 457 514 515 -1 457 515 458 -1 458 515 516 -1 458 516 459 -1 459 516 517 -1 459 517 460 -1 460 517 518 -1 460 518 461 -1 461 518 519 -1 461 519 462 -1 462 519 520 -1 462 520 463 -1 463 520 521 -1 463 521 464 -1 464 521 522 -1 464 522 465 -1 465 522 523 -1 465 523 466 -1 466 523 524 -1 466 524 467 -1 467 524 525 -1 467 525 468 -1 468 525 526 -1 468 526 469 -1 469 526 527 -1 469 527 470 -1 470 527 528 -1 470 528 471 -1 471 528 529 -1 471 529 472 -1 472 529 530 -1 472 530 473 -1 473 530 531 -1 473 531 474 -1 474 531 532 -1 474 532 475 -1 475 532 533 -1 475 533 476 -1 476 533 534 -1 476 534 477 -1 477 534 535 -1 477 535 478 -1 478 535 536 -1 478 536 479 -1 479 536 537 -1 479 537 480 -1 480 537 538 -1 480 538 481 -1 481 538 539 -1 481 539 482 -1 482 539 540 -1 482 540 483 -1 483 540 541 -1 483 541 484 -1 484 541 542 -1 484 542 485 -1 485 542 543 -1 485 543 486 -1 486 543 487 -1 543 544 487 -1 487 544 545 -1 487 545 488 -1 488 545 546 -1 488 546 489 -1 489 546 547 -1 489 547 490 -1 490 547 548 -1 490 548 491 -1 491 548 549 -1 491 549 492 -1 492 549 550 -1 492 550 493 -1 493 550 551 -1 493 551 494 -1 494 551 552 -1 494 552 495 -1 495 552 553 -1 495 553 496 -1 496 553 554 -1 496 554 497 -1 497 554 555 -1 497 555 498 -1 498 555 556 -1 498 556 499 -1 499 556 557 -1 499 557 500 -1 500 557 558 -1 500 558 501 -1 501 558 559 -1 501 559 502 -1 502 559 560 -1 502 560 503 -1 503 560 561 -1 503 561 504 -1 504 561 562 -1 504 562 505 -1 505 562 563 -1 505 563 506 -1 506 563 564 -1 506 564 507 -1 507 564 565 -1 507 565 508 -1 508 565 566 -1 508 566 509 -1 509 566 567 -1 509 567 510 -1 510 567 568 -1 510 568 511 -1 511 568 569 -1 511 569 512 -1 512 569 570 -1 512 570 513 -1 513 570 571 -1 513 571 514 -1 514 571 572 -1 514 572 515 -1 515 572 573 -1 515 573 516 -1 516 573 574 -1 516 574 517 -1 517 574 575 -1 517 575 518 -1 518 575 576 -1 518 576 519 -1 519 576 577 -1 519 577 520 -1 520 577 578 -1 520 578 521 -1 521 578 579 -1 521 579 522 -1 522 579 580 -1 522 580 523 -1 523 580 581 -1 523 581 524 -1 524 581 582 -1 524 582 525 -1 525 582 583 -1 525 583 526 -1 526 583 584 -1 526 584 527 -1 527 584 585 -1 527 585 528 -1 528 585 586 -1 528 586 529 -1 529 586 587 -1 529 587 530 -1 530 587 588 -1 530 588 531 -1 531 588 589 -1 531 589 532 -1 532 589 590 -1 532 590 533 -1 533 590 591 -1 533 591 534 -1 534 591 592 -1 534 592 535 -1 535 592 593 -1 535 593 536 -1 536 593 594 -1 536 594 537 -1 537 594 595 -1 537 595 538 -1 538 595 596 -1 538 596 539 -1 539 596 597 -1 539 597 540 -1 540 597 598 -1 540 598 541 -1 541 598 599 -1 541 599 542 -1 542 599 600 -1 542 600 543 -1 543 600 544 -1 600 601 544 -1 544 601 602 -1 544 602 545 -1 545 602 603 -1 545 603 546 -1 546 603 604 -1 546 604 547 -1 547 604 605 -1 547 605 548 -1 548 605 606 -1 548 606 549 -1 549 606 607 -1 549 607 550 -1 550 607 608 -1 550 608 551 -1 551 608 609 -1 551 609 552 -1 552 609 610 -1 552 610 553 -1 553 610 611 -1 553 611 554 -1 554 611 612 -1 554 612 555 -1 555 612 613 -1 555 613 556 -1 556 613 614 -1 556 614 557 -1 557 614 615 -1 557 615 558 -1 558 615 616 -1 558 616 559 -1 559 616 617 -1 559 617 560 -1 560 617 618 -1 560 618 561 -1 561 618 619 -1 561 619 562 -1 562 619 620 -1 562 620 563 -1 563 620 621 -1 563 621 564 -1 564 621 622 -1 564 622 565 -1 565 622 623 -1 565 623 566 -1 566 623 624 -1 566 624 567 -1 567 624 625 -1 567 625 568 -1 568 625 626 -1 568 626 569 -1 569 626 627 -1 569 627 570 -1 570 627 628 -1 570 628 571 -1 571 628 629 -1 571 629 572 -1 572 629 630 -1 572 630 573 -1 573 630 631 -1 573 631 574 -1 574 631 632 -1 574 632 575 -1 575 632 633 -1 575 633 576 -1 576 633 634 -1 576 634 577 -1 577 634 635 -1 577 635 578 -1 578 635 636 -1 578 636 579 -1 579 636 637 -1 579 637 580 -1 580 637 638 -1 580 638 581 -1 581 638 639 -1 581 639 582 -1 582 639 640 -1 582 640 583 -1 583 640 641 -1 583 641 584 -1 584 641 642 -1 584 642 585 -1 585 642 643 -1 585 643 586 -1 586 643 644 -1 586 644 587 -1 587 644 645 -1 587 645 588 -1 588 645 646 -1 588 646 589 -1 589 646 647 -1 589 647 590 -1 590 647 648 -1 590 648 591 -1 591 648 649 -1 591 649 592 -1 592 649 650 -1 592 650 593 -1 593 650 651 -1 593 651 594 -1 594 651 652 -1 594 652 595 -1 595 652 653 -1 595 653 596 -1 596 653 654 -1 596 654 597 -1 597 654 655 -1 597 655 598 -1 598 655 656 -1 598 656 599 -1 599 656 657 -1 599 657 600 -1 600 657 601 -1 657 658 601 -1 601 658 659 -1 601 659 602 -1 602 659 660 -1 602 660 603 -1 603 660 661 -1 603 661 604 -1 604 661 662 -1 604 662 605 -1 605 662 663 -1 605 663 606 -1 606 663 664 -1 606 664 607 -1 607 664 665 -1 607 665 608 -1 608 665 666 -1 608 666 609 -1 609 666 667 -1 609 667 610 -1 610 667 668 -1 610 668 611 -1 611 668 669 -1 611 669 612 -1 612 669 670 -1 612 670 613 -1 613 670 671 -1 613 671 614 -1 614 671 672 -1 614 672 615 -1 615 672 673 -1 615 673 616 -1 616 673 674 -1 616 674 617 -1 617 674 675 -1 617 675 618 -1 618 675 676 -1 618 676 619 -1 619 676 677 -1 619 677 620 -1 620 677 678 -1 620 678 621 -1 621 678 679 -1 621 679 622 -1 622 679 680 -1 622 680 623 -1 623 680 681 -1 623 681 624 -1 624 681 682 -1 624 682 625 -1 625 682 683 -1 625 683 626 -1 626 683 684 -1 626 684 627 -1 627 684 685 -1 627 685 628 -1 628 685 686 -1 628 686 629 -1 629 686 687 -1 629 687 630 -1 630 687 688 -1 630 688 631 -1 631 688 689 -1 631 689 632 -1 632 689 690 -1 632 690 633 -1 633 690 691 -1 633 691 634 -1 634 691 692 -1 634 692 635 -1 635 692 693 -1 635 693 636 -1 636 693 694 -1 636 694 637 -1 637 694 695 -1 637 695 638 -1 638 695 696 -1 638 696 639 -1 639 696 697 -1 639 697 640 -1 640 697 698 -1 640 698 641 -1 641 698 699 -1 641 699 642 -1 642 699 700 -1 642 700 643 -1 643 700 701 -1 643 701 644 -1 644 701 702 -1 644 702 645 -1 645 702 703 -1 645 703 646 -1 646 703 704 -1 646 704 647 -1 647 704 705 -1 647 705 648 -1 648 705 706 -1 648 706 649 -1 649 706 707 -1 649 707 650 -1 650 707 708 -1 650 708 651 -1 651 708 709 -1 651 709 652 -1 652 709 710 -1 652 710 653 -1 653 710 711 -1 653 711 654 -1 654 711 712 -1 654 712 655 -1 655 712 713 -1 655 713 656 -1 656 713 714 -1 656 714 657 -1 657 714 658 -1 714 715 658 -1 658 715 716 -1 658 716 659 -1 659 716 717 -1 659 717 660 -1 660 717 718 -1 660 718 661 -1 661 718 719 -1 661 719 662 -1 662 719 720 -1 662 720 663 -1 663 720 721 -1 663 721 664 -1 664 721 722 -1 664 722 665 -1 665 722 723 -1 665 723 666 -1 666 723 724 -1 666 724 667 -1 667 724 725 -1 667 725 668 -1 668 725 726 -1 668 726 669 -1 669 726 727 -1 669 727 670 -1 670 727 728 -1 670 728 671 -1 671 728 729 -1 671 729 672 -1 672 729 730 -1 672 730 673 -1 673 730 731 -1 673 731 674 -1 674 731 732 -1 674 732 675 -1 675 732 733 -1 675 733 676 -1 676 733 734 -1 676 734 677 -1 677 734 735 -1 677 735 678 -1 678 735 736 -1 678 736 679 -1 679 736 737 -1 679 737 680 -1 680 737 738 -1 680 738 681 -1 681 738 739 -1 681 739 682 -1 682 739 740 -1 682 740 683 -1 683 740 741 -1 683 741 684 -1 684 741 742 -1 684 742 685 -1 685 742 743 -1 685 743 686 -1 686 743 744 -1 686 744 687 -1 687 744 745 -1 687 745 688 -1 688 745 746 -1 688 746 689 -1 689 746 747 -1 689 747 690 -1 690 747 748 -1 690 748 691 -1 691 748 749 -1 691 749 692 -1 692 749 750 -1 692 750 693 -1 693 750 751 -1 693 751 694 -1 694 751 752 -1 694 752 695 -1 695 752 753 -1 695 753 696 -1 696 753 754 -1 696 754 697 -1 697 754 755 -1 697 755 698 -1 698 755 756 -1 698 756 699 -1 699 756 757 -1 699 757 700 -1 700 757 758 -1 700 758 701 -1 701 758 759 -1 701 759 702 -1 702 759 760 -1 702 760 703 -1 703 760 761 -1 703 761 704 -1 704 761 762 -1 704 762 705 -1 705 762 763 -1 705 763 706 -1 706 763 764 -1 706 764 707 -1 707 764 765 -1 707 765 708 -1 708 765 766 -1 708 766 709 -1 709 766 767 -1 709 767 710 -1 710 767 768 -1 710 768 711 -1 711 768 769 -1 711 769 712 -1 712 769 770 -1 712 770 713 -1 713 770 771 -1 713 771 714 -1 714 771 715 -1 771 772 715 -1 715 772 773 -1 715 773 716 -1 716 773 774 -1 716 774 717 -1 717 774 775 -1 717 775 718 -1 718 775 776 -1 718 776 719 -1 719 776 777 -1 719 777 720 -1 720 777 778 -1 720 778 721 -1 721 778 779 -1 721 779 722 -1 722 779 780 -1 722 780 723 -1 723 780 781 -1 723 781 724 -1 724 781 782 -1 724 782 725 -1 725 782 783 -1 725 783 726 -1 726 783 784 -1 726 784 727 -1 727 784 785 -1 727 785 728 -1 728 785 786 -1 728 786 729 -1 729 786 787 -1 729 787 730 -1 730 787 788 -1 730 788 731 -1 731 788 789 -1 731 789 732 -1 732 789 790 -1 732 790 733 -1 733 790 791 -1 733 791 734 -1 734 791 792 -1 734 792 735 -1 735 792 793 -1 735 793 736 -1 736 793 794 -1 736 794 737 -1 737 794 795 -1 737 795 738 -1 738 795 796 -1 738 796 739 -1 739 796 797 -1 739 797 740 -1 740 797 798 -1 740 798 741 -1 741 798 799 -1 741 799 742 -1 742 799 800 -1 742 800 743 -1 743 800 801 -1 743 801 744 -1 744 801 802 -1 744 802 745 -1 745 802 803 -1 745 803 746 -1 746 803 804 -1 746 804 747 -1 747 804 805 -1 747 805 748 -1 748 805 806 -1 748 806 749 -1 749 806 807 -1 749 807 750 -1 750 807 808 -1 750 808 751 -1 751 808 809 -1 751 809 752 -1 752 809 810 -1 752 810 753 -1 753 810 811 -1 753 811 754 -1 754 811 812 -1 754 812 755 -1 755 812 813 -1 755 813 756 -1 756 813 814 -1 756 814 757 -1 757 814 815 -1 757 815 758 -1 758 815 816 -1 758 816 759 -1 759 816 817 -1 759 817 760 -1 760 817 818 -1 760 818 761 -1 761 818 819 -1 761 819 762 -1 762 819 820 -1 762 820 763 -1 763 820 821 -1 763 821 764 -1 764 821 822 -1 764 822 765 -1 765 822 823 -1 765 823 766 -1 766 823 824 -1 766 824 767 -1 767 824 825 -1 767 825 768 -1 768 825 826 -1 768 826 769 -1 769 826 827 -1 769 827 770 -1 770 827 828 -1 770 828 771 -1 771 828 772 -1 828 829 772 -1 772 829 830 -1 772 830 773 -1 773 830 831 -1 773 831 774 -1 774 831 832 -1 774 832 775 -1 775 832 833 -1 775 833 776 -1 776 833 834 -1 776 834 777 -1 777 834 835 -1 777 835 778 -1 778 835 836 -1 778 836 779 -1 779 836 837 -1 779 837 780 -1 780 837 838 -1 780 838 781 -1 781 838 839 -1 781 839 782 -1 782 839 840 -1 782 840 783 -1 783 840 841 -1 783 841 784 -1 784 841 842 -1 784 842 785 -1 785 842 843 -1 785 843 786 -1 786 843 844 -1 786 844 787 -1 787 844 845 -1 787 845 788 -1 788 845 846 -1 788 846 789 -1 789 846 847 -1 789 847 790 -1 790 847 848 -1 790 848 791 -1 791 848 849 -1 791 849 792 -1 792 849 850 -1 792 850 793 -1 793 850 851 -1 793 851 794 -1 794 851 852 -1 794 852 795 -1 795 852 853 -1 795 853 796 -1 796 853 854 -1 796 854 797 -1 797 854 855 -1 797 855 798 -1 798 855 856 -1 798 856 799 -1 799 856 857 -1 799 857 800 -1 800 857 858 -1 800 858 801 -1 801 858 859 -1 801 859 802 -1 802 859 860 -1 802 860 803 -1 803 860 861 -1 803 861 804 -1 804 861 862 -1 804 862 805 -1 805 862 863 -1 805 863 806 -1 806 863 864 -1 806 864 807 -1 807 864 865 -1 807 865 808 -1 808 865 866 -1 808 866 809 -1 809 866 867 -1 809 867 810 -1 810 867 868 -1 810 868 811 -1 811 868 869 -1 811 869 812 -1 812 869 870 -1 812 870 813 -1 813 870 871 -1 813 871 814 -1 814 871 872 -1 814 872 815 -1 815 872 873 -1 815 873 816 -1 816 873 874 -1 816 874 817 -1 817 874 875 -1 817 875 818 -1 818 875 876 -1 818 876 819 -1 819 876 877 -1 819 877 820 -1 820 877 878 -1 820 878 821 -1 821 878 879 -1 821 879 822 -1 822 879 880 -1 822 880 823 -1 823 880 881 -1 823 881 824 -1 824 881 882 -1 824 882 825 -1 825 882 883 -1 825 883 826 -1 826 883 884 -1 826 884 827 -1 827 884 885 -1 827 885 828 -1 828 885 829 -1 885 886 829 -1 829 886 887 -1 829 887 830 -1 830 887 888 -1 830 888 831 -1 831 888 889 -1 831 889 832 -1 832 889 890 -1 832 890 833 -1 833 890 891 -1 833 891 834 -1 834 891 892 -1 834 892 835 -1 835 892 893 -1 835 893 836 -1 836 893 894 -1 836 894 837 -1 837 894 895 -1 837 895 838 -1 838 895 896 -1 838 896 839 -1 839 896 897 -1 839 897 840 -1 840 897 898 -1 840 898 841 -1 841 898 899 -1 841 899 842 -1 842 899 900 -1 842 900 843 -1 843 900 901 -1 843 901 844 -1 844 901 902 -1 844 902 845 -1 845 902 903 -1 845 903 846 -1 846 903 904 -1 846 904 847 -1 847 904 905 -1 847 905 848 -1 848 905 906 -1 848 906 849 -1 849 906 907 -1 849 907 850 -1 850 907 908 -1 850 908 851 -1 851 908 909 -1 851 909 852 -1 852 909 910 -1 852 910 853 -1 853 910 911 -1 853 911 854 -1 854 911 912 -1 854 912 855 -1 855 912 913 -1 855 913 856 -1 856 913 914 -1 856 914 857 -1 857 914 915 -1 857 915 858 -1 858 915 916 -1 858 916 859 -1 859 916 917 -1 859 917 860 -1 860 917 918 -1 860 918 861 -1 861 918 919 -1 861 919 862 -1 862 919 920 -1 862 920 863 -1 863 920 921 -1 863 921 864 -1 864 921 922 -1 864 922 865 -1 865 922 923 -1 865 923 866 -1 866 923 924 -1 866 924 867 -1 867 924 925 -1 867 925 868 -1 868 925 926 -1 868 926 869 -1 869 926 927 -1 869 927 870 -1 870 927 928 -1 870 928 871 -1 871 928 929 -1 871 929 872 -1 872 929 930 -1 872 930 873 -1 873 930 931 -1 873 931 874 -1 874 931 932 -1 874 932 875 -1 875 932 933 -1 875 933 876 -1 876 933 934 -1 876 934 877 -1 877 934 935 -1 877 935 878 -1 878 935 936 -1 878 936 879 -1 879 936 937 -1 879 937 880 -1 880 937 938 -1 880 938 881 -1 881 938 939 -1 881 939 882 -1 882 939 940 -1 882 940 883 -1 883 940 941 -1 883 941 884 -1 884 941 942 -1 884 942 885 -1 885 942 886 -1 942 145 886 -1 886 145 144 -1 886 144 887 -1 887 144 147 -1 887 147 888 -1 888 147 148 -1 888 148 889 -1 889 148 149 -1 889 149 890 -1 890 149 150 -1 890 150 891 -1 891 150 151 -1 891 151 892 -1 892 151 152 -1 892 152 893 -1 893 152 153 -1 893 153 894 -1 894 153 154 -1 894 154 895 -1 895 154 155 -1 895 155 896 -1 896 155 156 -1 896 156 897 -1 897 156 157 -1 897 157 898 -1 898 157 158 -1 898 158 899 -1 899 158 159 -1 899 159 900 -1 900 159 160 -1 900 160 901 -1 901 160 161 -1 901 161 902 -1 902 161 162 -1 902 162 903 -1 903 162 163 -1 903 163 904 -1 904 163 164 -1 904 164 905 -1 905 164 165 -1 905 165 906 -1 906 165 166 -1 906 166 907 -1 907 166 167 -1 907 167 908 -1 908 167 168 -1 908 168 909 -1 909 168 169 -1 909 169 910 -1 910 169 170 -1 910 170 911 -1 911 170 171 -1 911 171 912 -1 912 171 172 -1 912 172 913 -1 913 172 173 -1 913 173 914 -1 914 173 174 -1 914 174 915 -1 915 174 175 -1 915 175 916 -1 916 175 176 -1 916 176 917 -1 917 176 177 -1 917 177 918 -1 918 177 178 -1 918 178 919 -1 919 178 179 -1 919 179 920 -1 920 179 180 -1 920 180 921 -1 921 180 181 -1 921 181 922 -1 922 181 182 -1 922 182 923 -1 923 182 183 -1 923 183 924 -1 924 183 184 -1 924 184 925 -1 925 184 185 -1 925 185 926 -1 926 185 186 -1 926 186 927 -1 927 186 187 -1 927 187 928 -1 928 187 188 -1 928 188 929 -1 929 188 189 -1 929 189 930 -1 930 189 190 -1 930 190 931 -1 931 190 191 -1 931 191 932 -1 932 191 192 -1 932 192 933 -1 933 192 193 -1 933 193 934 -1 934 193 194 -1 934 194 935 -1 935 194 195 -1 935 195 936 -1 936 195 196 -1 936 196 937 -1 937 196 197 -1 937 197 938 -1 938 197 198 -1 938 198 939 -1 939 198 199 -1 939 199 940 -1 940 199 200 -1 940 200 941 -1 941 200 201 -1 941 201 942 -1 942 201 145 -1 "
						                >
							<Coordinate DEF="coords_ME_OMLV4_Packing_-_For_Xander_-_IRST-21_Independent-1"
							            point="69.503342 108.183350 368.198608 69.503342 108.183350 358.998596 69.503342 101.683350 368.198608 69.503342 101.683350 358.998596 78.703339 108.183350 368.198608 78.703339 101.683350 368.198608 78.703339 108.183350 358.998596 78.703339 101.683350 358.998596 74.984627 108.183350 365.737885 74.888557 108.183350 366.138062 71.203667 108.183350 362.990845 71.583878 108.183350 362.833374 71.583878 108.183350 367.821869 71.203667 108.183350 367.664368 70.852776 108.183350 367.449341 70.539841 108.183350 367.182068 74.731064 108.183350 366.518250 74.516037 108.183350 366.869141 74.248772 108.183350 367.182068 70.272575 108.183350 366.869141 70.057549 108.183350 366.518250 69.900063 108.183350 366.138062 72.804573 108.183350 362.737305 72.394310 108.183350 362.705017 71.984039 108.183350 362.737305 73.204735 108.183350 362.833374 73.584946 108.183350 362.990845 73.935837 108.183350 363.205872 74.731064 108.183350 364.136993 74.888557 108.183350 364.517181 74.984627 108.183350 364.917358 75.016914 108.183350 365.327606 73.935837 108.183350 367.449341 73.584946 108.183350 367.664368 73.204735 108.183350 367.821869 74.248772 108.183350 363.473145 74.516037 108.183350 363.786102 72.804573 108.183350 367.917938 72.394310 108.183350 367.950226 71.984039 108.183350 367.917938 69.803986 108.183350 364.917358 69.771698 108.183350 365.327606 69.803986 108.183350 365.737885 69.900063 108.183350 364.517181 70.057549 108.183350 364.136993 70.272575 108.183350 363.786102 70.539841 108.183350 363.473145 70.852776 108.183350 363.205872 72.105797 111.260880 362.720917 71.820793 111.260880 362.768494 71.984039 111.260880 362.737305 71.203667 111.260880 362.990845 71.275040 111.260880 362.955841 71.542747 111.260880 362.847107 71.583878 111.260880 362.833374 71.020920 111.260880 363.093353 70.852776 111.260880 363.205872 70.783470 111.260880 363.258026 70.565575 111.260880 363.447784 70.369873 111.260880 363.660370 70.539841 111.260880 363.473145 70.198746 111.260880 363.893188 70.272575 111.260880 363.786102 69.900063 111.260880 364.517181 69.938210 111.260880 364.408020 70.054276 111.260880 364.143433 70.057549 111.260880 364.136993 69.851952 111.260880 364.683807 69.803986 111.260880 364.917358 69.796555 111.260880 364.967407 69.772697 111.260880 365.255341 69.780655 111.260880 365.544189 69.771698 111.260880 365.327606 69.900063 111.260880 366.138062 69.891281 111.260880 366.110504 69.820343 111.260880 365.830414 69.803986 111.260880 365.737885 69.992592 111.260880 366.381104 70.057549 111.260880 366.518250 70.123062 111.260880 366.638916 70.272575 111.260880 366.869141 70.281105 111.260880 366.880829 70.464790 111.260880 367.103851 70.671906 111.260880 367.305328 70.539841 111.260880 367.182068 71.203667 111.260880 367.664368 71.146080 111.260880 367.634125 70.899925 111.260880 367.482819 70.852776 111.260880 367.449341 71.407394 111.260880 367.757446 71.583878 111.260880 367.821869 71.680687 111.260880 367.851257 71.962639 111.260880 367.914459 72.249832 111.260880 367.946228 71.984039 111.260880 367.917938 72.538780 111.260880 367.946228 72.394310 111.260880 367.950226 73.204735 111.260880 367.821869 73.107925 111.260880 367.851257 72.825974 111.260880 367.914459 72.804573 111.260880 367.917938 73.381218 111.260880 367.757446 73.584946 111.260880 367.664368 73.642532 111.260880 367.634125 73.888687 111.260880 367.482819 74.323822 111.260880 367.103851 74.248772 111.260880 367.182068 74.116707 111.260880 367.305328 73.935837 111.260880 367.449341 74.665550 111.260880 366.638916 74.516037 111.260880 366.869141 74.507515 111.260880 366.880829 74.796021 111.260880 366.381104 74.731064 111.260880 366.518250 74.984627 111.260880 365.737885 74.968269 111.260880 365.830414 74.897339 111.260880 366.110504 74.888557 111.260880 366.138062 75.007957 111.260880 365.544189 75.016914 111.260880 365.327606 75.015915 111.260880 365.255341 74.992058 111.260880 364.967407 74.850410 111.260880 364.408020 74.888557 111.260880 364.517181 74.936661 111.260880 364.683807 74.984627 111.260880 364.917358 74.589867 111.260880 363.893188 74.731064 111.260880 364.136993 74.734337 111.260880 364.143433 74.418739 111.260880 363.660370 74.516037 111.260880 363.786102 73.935837 111.260880 363.205872 74.005142 111.260880 363.258026 74.223045 111.260880 363.447784 74.248772 111.260880 363.473145 73.767693 111.260880 363.093353 73.584946 111.260880 362.990845 73.513573 111.260880 362.955841 73.245865 111.260880 362.847107 72.967819 111.260880 362.768494 73.204735 111.260880 362.833374 72.394310 111.260880 362.705017 72.682816 111.260880 362.720917 72.804573 111.260880 362.737305 72.454254 113.869118 365.060120 72.424461 113.869118 365.055145 72.394310 113.883484 365.327606 72.483322 113.869118 365.068329 72.511299 113.869118 365.079712 72.537865 113.869118 365.094086 72.562683 113.869118 365.111298 72.585464 113.869118 365.131134 72.605919 113.869118 365.153351 72.623802 113.869118 365.177673 72.638908 113.869118 365.203827 72.651039 113.869118 365.231506 72.660057 113.869118 365.260315 72.665848 113.869118 365.289978 72.668343 113.869118 365.320068 72.667511 113.869118 365.350250 72.663361 113.869118 365.380157 72.655945 113.869118 365.409454 72.645355 113.869118 365.437744 72.631714 113.869118 365.464691 72.615196 113.869118 365.489960 72.595993 113.869118 365.513275 72.574348 113.869118 365.534332 72.550514 113.869118 365.552887 72.524780 113.869118 365.568726 72.497467 113.869118 365.581604 72.468903 113.869118 365.591400 72.439430 113.869118 365.598022 72.409409 113.869118 365.601349 72.379204 113.869118 365.601349 72.349182 113.869118 365.598022 72.319710 113.869118 365.591400 72.291145 113.869118 365.581604 72.263832 113.869118 365.568726 72.238098 113.869118 365.552887 72.214264 113.869118 365.534332 72.192619 113.869118 365.513275 72.173416 113.869118 365.489960 72.156898 113.869118 365.464691 72.143257 113.869118 365.437744 72.132668 113.869118 365.409454 72.125252 113.869118 365.380157 72.121109 113.869118 365.350250 72.120277 113.869118 365.320068 72.122765 113.869118 365.289978 72.128555 113.869118 365.260315 72.137573 113.869118 365.231506 72.149704 113.869118 365.203827 72.164810 113.869118 365.177673 72.182693 113.869118 365.153351 72.203156 113.869118 365.131134 72.225929 113.869118 365.111298 72.250748 113.869118 365.094086 72.277313 113.869118 365.079712 72.305298 113.869118 365.068329 72.334358 113.869118 365.060120 72.364151 113.869118 365.055145 72.394310 113.869118 365.053467 71.547409 111.535011 362.860687 71.823936 111.535011 362.782501 71.281174 111.535011 362.968842 71.028442 111.535011 363.105621 70.792290 111.535011 363.269348 70.575592 111.535011 363.458069 70.380966 111.535011 363.669495 70.210777 111.535011 363.901031 70.067093 111.535011 364.149902 69.951660 111.535011 364.413055 69.865875 111.535011 364.687317 69.810783 111.535011 364.969360 69.787056 111.535011 365.255737 69.794975 111.535011 365.542999 69.834442 111.535011 365.827637 69.904991 111.535011 366.106201 70.005753 111.535011 366.375336 70.135506 111.535011 366.631744 70.292679 111.535011 366.872314 70.475365 111.535011 367.094116 70.681343 111.535011 367.294495 70.908112 111.535011 367.471008 71.152924 111.535011 367.621490 71.412804 111.535011 367.744141 71.684593 111.535011 367.837433 71.965004 111.535011 367.900299 72.250626 111.535011 367.931885 72.537987 111.535011 367.931885 72.823608 111.535011 367.900299 73.104019 111.535011 367.837433 73.375809 111.535011 367.744141 73.635689 111.535011 367.621490 73.880501 111.535011 367.471008 74.107277 111.535011 367.294495 74.313248 111.535011 367.094116 74.495934 111.535011 366.872314 74.653107 111.535011 366.631744 74.782860 111.535011 366.375336 74.883621 111.535011 366.106201 74.954170 111.535011 365.827637 74.993637 111.535011 365.542999 75.001556 111.535011 365.255737 74.977829 111.535011 364.969360 74.922737 111.535011 364.687317 74.836952 111.535011 364.413055 74.721519 111.535011 364.149902 74.577835 111.535011 363.901031 74.407654 111.535011 363.669495 74.213020 111.535011 363.458069 73.996323 111.535011 363.269348 73.760170 111.535011 363.105621 73.507439 111.535011 362.968842 73.241203 111.535011 362.860687 72.964676 111.535011 362.782501 72.681236 111.535011 362.735199 72.394310 111.535011 362.719391 72.107376 111.535011 362.735199 72.676514 111.806145 362.777893 72.955292 111.806145 362.824402 73.227257 111.806145 362.901306 73.489113 111.806145 363.007660 73.737686 111.806145 363.142181 73.969948 111.806145 363.303223 74.183083 111.806145 363.488861 74.374504 111.806145 363.696808 74.541885 111.806145 363.924530 74.683205 111.806145 364.169312 74.796738 111.806145 364.428131 74.881104 111.806145 364.697876 74.935287 111.806145 364.975250 74.958626 111.806145 365.256927 74.950844 111.806145 365.539459 74.912018 111.806145 365.819397 74.842636 111.806145 366.093384 74.743538 111.806145 366.358093 74.615921 111.806145 366.610260 74.461334 111.806145 366.846863 74.281654 111.806145 367.065033 74.079071 111.806145 367.262115 73.856033 111.806145 367.435730 73.615250 111.806145 367.583740 73.359650 111.806145 367.704346 73.092331 111.806145 367.796112 72.816544 111.806145 367.857941 72.535622 111.806145 367.889008 72.252991 111.806145 367.889008 71.972076 111.806145 367.857941 71.696281 111.806145 367.796112 71.428963 111.806145 367.704346 71.173363 111.806145 367.583740 70.932579 111.806145 367.435730 70.709541 111.806145 367.262115 70.506958 111.806145 367.065033 70.327278 111.806145 366.846863 70.172691 111.806145 366.610260 70.045074 111.806145 366.358093 69.945976 111.806145 366.093384 69.876595 111.806145 365.819397 69.837769 111.806145 365.539459 69.829987 111.806145 365.256927 69.853325 111.806145 364.975250 69.907509 111.806145 364.697876 69.991875 111.806145 364.428131 70.105408 111.806145 364.169312 70.246727 111.806145 363.924530 70.414108 111.806145 363.696808 70.605530 111.806145 363.488861 70.818672 111.806145 363.303223 71.050934 111.806145 363.142181 71.299500 111.806145 363.007660 71.561356 111.806145 362.901306 71.833328 111.806145 362.824402 72.112106 111.806145 362.777893 72.394310 111.806145 362.762329 72.668694 112.071304 362.848511 72.939751 112.071304 362.893738 73.204185 112.071304 362.968506 73.458794 112.071304 363.071930 73.700478 112.071304 363.202728 73.926308 112.071304 363.359314 74.133537 112.071304 363.539795 74.319656 112.071304 363.741974 74.482407 112.071304 363.963379 74.619812 112.071304 364.201385 74.730194 112.071304 364.453033 74.812233 112.071304 364.715302 74.864914 112.071304 364.985016 74.887604 112.071304 365.258881 74.880035 112.071304 365.533600 74.842293 112.071304 365.805786 74.774826 112.071304 366.072174 74.678474 112.071304 366.329559 74.554390 112.071304 366.574738 74.404083 112.071304 366.804810 74.229385 112.071304 367.016937 74.032410 112.071304 367.208557 73.815552 112.071304 367.377319 73.581436 112.071304 367.521240 73.332916 112.071304 367.638519 73.072998 112.071304 367.727753 72.804848 112.071304 367.787842 72.531708 112.071304 367.818085 72.256905 112.071304 367.818085 71.983765 112.071304 367.787842 71.715614 112.071304 367.727753 71.455696 112.071304 367.638519 71.207176 112.071304 367.521240 70.973061 112.071304 367.377319 70.756203 112.071304 367.208557 70.559227 112.071304 367.016937 70.384529 112.071304 366.804810 70.234222 112.071304 366.574738 70.110138 112.071304 366.329559 70.013786 112.071304 366.072174 69.946327 112.071304 365.805786 69.908577 112.071304 365.533600 69.901009 112.071304 365.258881 69.923698 112.071304 364.985016 69.976379 112.071304 364.715302 70.058418 112.071304 364.453033 70.168800 112.071304 364.201385 70.306206 112.071304 363.963379 70.468956 112.071304 363.741974 70.655075 112.071304 363.539795 70.862305 112.071304 363.359314 71.088135 112.071304 363.202728 71.329819 112.071304 363.071930 71.584427 112.071304 362.968506 71.848862 112.071304 362.893738 72.119919 112.071304 362.848511 72.394310 112.071304 362.833374 72.657875 112.327591 362.946289 72.918236 112.327591 362.989746 73.172241 112.327591 363.061554 73.416809 112.327591 363.160889 73.648956 112.327591 363.286530 73.865883 112.327591 363.436951 74.064941 112.327591 363.610291 74.243721 112.327591 363.804504 74.400047 112.327591 364.017212 74.532036 112.327591 364.245789 74.638069 112.327591 364.487549 74.716866 112.327591 364.739471 74.767471 112.327591 364.998535 74.789268 112.327591 365.261597 74.781998 112.327591 365.525452 74.745735 112.327591 365.786926 74.680939 112.327591 366.042816 74.588379 112.327591 366.290039 74.469193 112.327591 366.525543 74.324814 112.327591 366.746552 74.157005 112.327591 366.950287 73.967796 112.327591 367.134369 73.759491 112.327591 367.296478 73.534615 112.327591 367.434723 73.295898 112.327591 367.547363 73.046234 112.327591 367.633087 72.788651 112.327591 367.690796 72.526291 112.327591 367.719849 72.262321 112.327591 367.719849 71.999962 112.327591 367.690796 71.742378 112.327591 367.633087 71.492722 112.327591 367.547363 71.253998 112.327591 367.434723 71.029121 112.327591 367.296478 70.820816 112.327591 367.134369 70.631607 112.327591 366.950287 70.463799 112.327591 366.746552 70.319420 112.327591 366.525543 70.200233 112.327591 366.290039 70.107674 112.327591 366.042816 70.042877 112.327591 365.786926 70.006622 112.327591 365.525452 69.999344 112.327591 365.261597 70.021141 112.327591 364.998535 70.071747 112.327591 364.739471 70.150543 112.327591 364.487549 70.256584 112.327591 364.245789 70.388565 112.327591 364.017212 70.544891 112.327591 363.804504 70.723671 112.327591 363.610291 70.922729 112.327591 363.436951 71.139656 112.327591 363.286530 71.371803 112.327591 363.160889 71.616371 112.327591 363.061554 71.870377 112.327591 362.989746 72.130745 112.327591 362.946289 72.394310 112.327591 362.931732 72.644165 112.572182 363.070160 72.890984 112.572182 363.111359 73.131775 112.572182 363.179443 73.363617 112.572182 363.273590 73.583694 112.572182 363.392700 73.789337 112.572182 363.535278 73.978035 112.572182 363.699615 74.147514 112.572182 363.883728 74.295715 112.572182 364.085358 74.420837 112.572182 364.302063 74.521355 112.572182 364.531219 74.596054 112.572182 364.770050 74.644028 112.572182 365.015656 74.664688 112.572182 365.265045 74.657791 112.572182 365.515167 74.623421 112.572182 365.763031 74.561996 112.572182 366.005615 74.474251 112.572182 366.239960 74.361259 112.572182 366.463226 74.224396 112.572182 366.672729 74.065315 112.572182 366.865875 73.885948 112.572182 367.040375 73.688477 112.572182 367.194061 73.475296 112.572182 367.325104 73.249001 112.572182 367.431915 73.012321 112.572182 367.513153 72.768143 112.572182 367.567871 72.519424 112.572182 367.595398 72.269188 112.572182 367.595398 72.020470 112.572182 367.567871 71.776291 112.572182 367.513153 71.539619 112.572182 367.431915 71.313316 112.572182 367.325104 71.100136 112.572182 367.194061 70.902664 112.572182 367.040375 70.723297 112.572182 366.865875 70.564217 112.572182 366.672729 70.427353 112.572182 366.463226 70.314362 112.572182 366.239960 70.226624 112.572182 366.005615 70.165192 112.572182 365.763031 70.130821 112.572182 365.515167 70.123924 112.572182 365.265045 70.144592 112.572182 365.015656 70.192558 112.572182 364.770050 70.267258 112.572182 364.531219 70.367783 112.572182 364.302063 70.492897 112.572182 364.085358 70.641098 112.572182 363.883728 70.810577 112.572182 363.699615 70.999283 112.572182 363.535278 71.204918 112.572182 363.392700 71.424995 112.572182 363.273590 71.656837 112.572182 363.179443 71.897629 112.572182 363.111359 72.144447 112.572182 363.070160 72.394310 112.572182 363.056366 72.627716 112.802406 363.218750 72.858292 112.802406 363.257233 73.083229 112.802406 363.320831 73.299812 112.802406 363.408813 73.505402 112.802406 363.520081 73.697502 112.802406 363.653259 73.873787 112.802406 363.806793 74.032104 112.802406 363.978790 74.170547 112.802406 364.167145 74.287430 112.802406 364.369598 74.381332 112.802406 364.583649 74.451118 112.802406 364.806763 74.495934 112.802406 365.036194 74.515236 112.802406 365.269165 74.508797 112.802406 365.502838 74.476685 112.802406 365.734375 74.419296 112.802406 365.960999 74.337334 112.802406 366.179901 74.231781 112.802406 366.388489 74.103928 112.802406 366.584167 73.955315 112.802406 366.764618 73.787758 112.802406 366.927643 73.603287 112.802406 367.071198 73.404137 112.802406 367.193634 73.192734 112.802406 367.293396 72.971634 112.802406 367.369293 72.743530 112.802406 367.420410 72.511185 112.802406 367.446136 72.277428 112.802406 367.446136 72.045082 112.802406 367.420410 71.816978 112.802406 367.369293 71.595879 112.802406 367.293396 71.384476 112.802406 367.193634 71.185326 112.802406 367.071198 71.000854 112.802406 366.927643 70.833298 112.802406 366.764618 70.684685 112.802406 366.584167 70.556831 112.802406 366.388489 70.451279 112.802406 366.179901 70.369316 112.802406 365.960999 70.311928 112.802406 365.734375 70.279823 112.802406 365.502838 70.273376 112.802406 365.269165 70.292686 112.802406 365.036194 70.337494 112.802406 364.806763 70.407280 112.802406 364.583649 70.501183 112.802406 364.369598 70.618065 112.802406 364.167145 70.756508 112.802406 363.978790 70.914825 112.802406 363.806793 71.091110 112.802406 363.653259 71.283211 112.802406 363.520081 71.488800 112.802406 363.408813 71.705383 112.802406 363.320831 71.930321 112.802406 363.257233 72.160896 112.802406 363.218750 72.394310 112.802406 363.205872 72.608711 113.015739 363.390472 72.820511 113.015739 363.425812 73.027138 113.015739 363.484253 73.226082 113.015739 363.565033 73.414932 113.015739 363.667236 73.591393 113.015739 363.789612 73.753319 113.015739 363.930634 73.898758 113.015739 364.088593 74.025925 113.015739 364.261627 74.133293 113.015739 364.447601 74.219543 113.015739 364.644226 74.283646 113.015739 364.849182 74.324814 113.015739 365.059906 74.342545 113.015739 365.273926 74.336624 113.015739 365.488556 74.307137 113.015739 365.701263 74.254417 113.015739 365.909424 74.179131 113.015739 366.110504 74.082169 113.015739 366.302094 73.964722 113.015739 366.481873 73.828217 113.015739 366.647614 73.674301 113.015739 366.797363 73.504852 113.015739 366.929230 73.321915 113.015739 367.041687 73.127724 113.015739 367.133331 72.924629 113.015739 367.203064 72.715096 113.015739 367.250000 72.501671 113.015739 367.273621 72.286942 113.015739 367.273621 72.073517 113.015739 367.250000 71.863983 113.015739 367.203064 71.660889 113.015739 367.133331 71.466698 113.015739 367.041687 71.283768 113.015739 366.929230 71.114311 113.015739 366.797363 70.960396 113.015739 366.647614 70.823891 113.015739 366.481873 70.706444 113.015739 366.302094 70.609482 113.015739 366.110504 70.534195 113.015739 365.909424 70.481483 113.015739 365.701263 70.451988 113.015739 365.488556 70.446068 113.015739 365.273926 70.463799 113.015739 365.059906 70.504967 113.015739 364.849182 70.569069 113.015739 364.644226 70.655327 113.015739 364.447601 70.762688 113.015739 364.261627 70.889862 113.015739 364.088593 71.035294 113.015739 363.930634 71.197220 113.015739 363.789612 71.373680 113.015739 363.667236 71.562531 113.015739 363.565033 71.761475 113.015739 363.484253 71.968102 113.015739 363.425812 72.179901 113.015739 363.390472 72.394310 113.015739 363.378632 72.587357 113.209854 363.583405 72.778061 113.209854 363.615234 72.964111 113.209854 363.667847 73.143242 113.209854 363.740601 73.313286 113.209854 363.832611 73.472168 113.209854 363.942780 73.617966 113.209854 364.069763 73.748917 113.209854 364.212006 73.863419 113.209854 364.367798 73.960091 113.209854 364.535248 74.037758 113.209854 364.712280 74.095474 113.209854 364.896820 74.132538 113.209854 365.086578 74.148506 113.209854 365.279266 74.143181 113.209854 365.472534 74.116623 113.209854 365.664032 74.069160 113.209854 365.851471 74.001366 113.209854 366.032532 73.914062 113.209854 366.205048 73.808319 113.209854 366.366913 73.685402 113.209854 366.516144 73.546822 113.209854 366.650970 73.394241 113.209854 366.769714 73.229530 113.209854 366.870972 73.054680 113.209854 366.953491 72.871811 113.209854 367.016266 72.683151 113.209854 367.058563 72.490982 113.209854 367.079834 72.297638 113.209854 367.079834 72.105469 113.209854 367.058563 71.916801 113.209854 367.016266 71.733932 113.209854 366.953491 71.559082 113.209854 366.870972 71.394371 113.209854 366.769714 71.241791 113.209854 366.650970 71.103210 113.209854 366.516144 70.980293 113.209854 366.366913 70.874550 113.209854 366.205048 70.787247 113.209854 366.032532 70.719452 113.209854 365.851471 70.671989 113.209854 365.664032 70.645432 113.209854 365.472534 70.640106 113.209854 365.279266 70.656075 113.209854 365.086578 70.693138 113.209854 364.896820 70.750854 113.209854 364.712280 70.828522 113.209854 364.535248 70.925194 113.209854 364.367798 71.039696 113.209854 364.212006 71.170647 113.209854 364.069763 71.316444 113.209854 363.942780 71.475334 113.209854 363.832611 71.645370 113.209854 363.740601 71.824501 113.209854 363.667847 72.010551 113.209854 363.615234 72.201256 113.209854 363.583405 72.394310 113.209854 363.572754 72.563889 113.382614 363.795441 72.731407 113.382614 363.823395 72.894844 113.382614 363.869598 73.052193 113.382614 363.933533 73.201561 113.382614 364.014343 73.341133 113.382614 364.111145 73.469208 113.382614 364.222687 73.584236 113.382614 364.347626 73.684822 113.382614 364.484467 73.769745 113.382614 364.631561 73.837967 113.382614 364.787109 73.888664 113.382614 364.949188 73.921227 113.382614 365.115875 73.935249 113.382614 365.285156 73.930573 113.382614 365.454926 73.907242 113.382614 365.623138 73.865547 113.382614 365.787781 73.806000 113.382614 365.946838 73.729309 113.382614 366.098389 73.636421 113.382614 366.240570 73.528450 113.382614 366.371674 73.406708 113.382614 366.490082 73.272682 113.382614 366.594421 73.127991 113.382614 366.683350 72.974396 113.382614 366.755829 72.813759 113.382614 366.810974 72.648033 113.382614 366.848114 72.479225 113.382614 366.866791 72.309387 113.382614 366.866791 72.140579 113.382614 366.848114 71.974854 113.382614 366.810974 71.814217 113.382614 366.755829 71.660622 113.382614 366.683350 71.515930 113.382614 366.594421 71.381905 113.382614 366.490082 71.260170 113.382614 366.371674 71.152199 113.382614 366.240570 71.059303 113.382614 366.098389 70.982613 113.382614 365.946838 70.923065 113.382614 365.787781 70.881371 113.382614 365.623138 70.858040 113.382614 365.454926 70.853363 113.382614 365.285156 70.867386 113.382614 365.115875 70.899948 113.382614 364.949188 70.950645 113.382614 364.787109 71.018867 113.382614 364.631561 71.103790 113.382614 364.484467 71.204376 113.382614 364.347626 71.319405 113.382614 364.222687 71.447479 113.382614 364.111145 71.587051 113.382614 364.014343 71.736420 113.382614 363.933533 71.893776 113.382614 363.869598 72.057205 113.382614 363.823395 72.224724 113.382614 363.795441 72.394310 113.382614 363.786102 72.538559 113.532120 364.024261 72.681061 113.532120 364.048065 72.820084 113.532120 364.087372 72.953941 113.532120 364.141724 73.081001 113.532120 364.210480 73.199722 113.532120 364.292816 73.308678 113.532120 364.387695 73.406525 113.532120 364.493988 73.492088 113.532120 364.610413 73.564323 113.532120 364.735535 73.622360 113.532120 364.867828 73.665482 113.532120 365.005707 73.693184 113.532120 365.147491 73.705109 113.532120 365.291473 73.701134 113.532120 365.435913 73.681290 113.532120 365.579010 73.645821 113.532120 365.719055 73.595161 113.532120 365.854370 73.529930 113.532120 365.983276 73.450912 113.532120 366.104218 73.359062 113.532120 366.215729 73.255508 113.532120 366.316467 73.141495 113.532120 366.405212 73.018417 113.532120 366.480865 72.887764 113.532120 366.542542 72.751114 113.532120 366.589447 72.610138 113.532120 366.621033 72.466545 113.532120 366.636932 72.322067 113.532120 366.636932 72.178474 113.532120 366.621033 72.037498 113.532120 366.589447 71.900848 113.532120 366.542542 71.770195 113.532120 366.480865 71.647118 113.532120 366.405212 71.533104 113.532120 366.316467 71.429550 113.532120 366.215729 71.337708 113.532120 366.104218 71.258682 113.532120 365.983276 71.193451 113.532120 365.854370 71.142792 113.532120 365.719055 71.107323 113.532120 365.579010 71.087479 113.532120 365.435913 71.083504 113.532120 365.291473 71.095428 113.532120 365.147491 71.123131 113.532120 365.005707 71.166260 113.532120 364.867828 71.224289 113.532120 364.735535 71.296524 113.532120 364.610413 71.382088 113.532120 364.493988 71.479942 113.532120 364.387695 71.588890 113.532120 364.292816 71.707611 113.532120 364.210480 71.834671 113.532120 364.141724 71.968529 113.532120 364.087372 72.107552 113.532120 364.048065 72.250053 113.532120 364.024261 72.394310 113.532120 364.016327 72.511650 113.656746 364.267395 72.627579 113.656746 364.286713 72.740669 113.656746 364.318695 72.849556 113.656746 364.362915 72.952911 113.656746 364.418854 73.049492 113.656746 364.485840 73.138123 113.656746 364.563019 73.217720 113.656746 364.649475 73.287323 113.656746 364.744171 73.346085 113.656746 364.845947 73.393295 113.656746 364.953583 73.428375 113.656746 365.065765 73.450905 113.656746 365.181091 73.460609 113.656746 365.298218 73.457375 113.656746 365.415710 73.441231 113.656746 365.532104 73.412384 113.656746 365.646057 73.371170 113.656746 365.756104 73.318108 113.656746 365.860962 73.253822 113.656746 365.959351 73.179108 113.656746 366.050079 73.094872 113.656746 366.132019 73.002129 113.656746 366.204224 72.902008 113.656746 366.265747 72.795723 113.656746 366.315918 72.684563 113.656746 366.354065 72.569878 113.656746 366.379791 72.453072 113.656746 366.392700 72.335541 113.656746 366.392700 72.218735 113.656746 366.379791 72.104050 113.656746 366.354065 71.992897 113.656746 366.315918 71.886612 113.656746 366.265747 71.786484 113.656746 366.204224 71.693741 113.656746 366.132019 71.609505 113.656746 366.050079 71.534790 113.656746 365.959351 71.470505 113.656746 365.860962 71.417442 113.656746 365.756104 71.376236 113.656746 365.646057 71.347382 113.656746 365.532104 71.331238 113.656746 365.415710 71.328003 113.656746 365.298218 71.337708 113.656746 365.181091 71.360237 113.656746 365.065765 71.395317 113.656746 364.953583 71.442528 113.656746 364.845947 71.501289 113.656746 364.744171 71.570892 113.656746 364.649475 71.650490 113.656746 364.563019 71.739120 113.656746 364.485840 71.835701 113.656746 364.418854 71.939056 113.656746 364.362915 72.047943 113.656746 364.318695 72.161034 113.656746 364.286713 72.276962 113.656746 364.267395 72.394310 113.656746 364.260895 72.483459 113.755127 364.522095 72.571533 113.755127 364.536804 72.657455 113.755127 364.561096 72.740181 113.755127 364.594696 72.818710 113.755127 364.637207 72.892082 113.755127 364.688080 72.959419 113.755127 364.746704 73.019890 113.755127 364.812408 73.072769 113.755127 364.884369 73.117416 113.755127 364.961670 73.153282 113.755127 365.043457 73.179939 113.755127 365.128662 73.197052 113.755127 365.216309 73.204430 113.755127 365.305298 73.201965 113.755127 365.394531 73.189705 113.755127 365.482971 73.167786 113.755127 365.569550 73.136475 113.755127 365.653168 73.096161 113.755127 365.732819 73.047325 113.755127 365.807587 72.990562 113.755127 365.876495 72.926559 113.755127 365.938782 72.856094 113.755127 365.993622 72.780029 113.755127 366.040375 72.699280 113.755127 366.078461 72.614830 113.755127 366.107483 72.527702 113.755127 366.126984 72.438950 113.755127 366.136810 72.349663 113.755127 366.136810 72.260918 113.755127 366.126984 72.173782 113.755127 366.107483 72.089333 113.755127 366.078461 72.008583 113.755127 366.040375 71.932518 113.755127 365.993622 71.862053 113.755127 365.938782 71.798058 113.755127 365.876495 71.741287 113.755127 365.807587 71.692451 113.755127 365.732819 71.652138 113.755127 365.653168 71.620827 113.755127 365.569550 71.598907 113.755127 365.482971 71.586647 113.755127 365.394531 71.584183 113.755127 365.305298 71.591560 113.755127 365.216309 71.608673 113.755127 365.128662 71.635330 113.755127 365.043457 71.671196 113.755127 364.961670 71.715843 113.755127 364.884369 71.768723 113.755127 364.812408 71.829193 113.755127 364.746704 71.896530 113.755127 364.688080 71.969910 113.755127 364.637207 72.048431 113.755127 364.594696 72.131157 113.755127 364.561096 72.217079 113.755127 364.536804 72.305153 113.755127 364.522095 72.394310 113.755127 364.517181 72.454292 113.826172 364.785645 72.513550 113.826172 364.795532 72.571358 113.826172 364.811890 72.627014 113.826172 364.834503 72.679848 113.826172 364.863098 72.729218 113.826172 364.897308 72.774521 113.826172 364.936768 72.815208 113.826172 364.980988 72.850792 113.826172 365.029388 72.880829 113.826172 365.081421 72.904961 113.826172 365.136414 72.922890 113.826172 365.193756 72.934410 113.826172 365.252716 72.939369 113.826172 365.312592 72.937714 113.826172 365.372650 72.929466 113.826172 365.432159 72.914719 113.826172 365.490387 72.893654 113.826172 365.546661 72.866524 113.826172 365.600250 72.833664 113.826172 365.650543 72.795479 113.826172 365.696930 72.752411 113.826172 365.738800 72.705009 113.826172 365.775696 72.653824 113.826172 365.807159 72.599495 113.826172 365.832794 72.542679 113.826172 365.852325 72.484055 113.826172 365.865448 72.424347 113.826172 365.872070 72.364265 113.826172 365.872070 72.304558 113.826172 365.865448 72.245934 113.826172 365.852325 72.189117 113.826172 365.832794 72.134789 113.826172 365.807159 72.083611 113.826172 365.775696 72.036201 113.826172 365.738800 71.993141 113.826172 365.696930 71.954948 113.826172 365.650543 71.922089 113.826172 365.600250 71.894958 113.826172 365.546661 71.873901 113.826172 365.490387 71.859146 113.826172 365.432159 71.850899 113.826172 365.372650 71.849243 113.826172 365.312592 71.854202 113.826172 365.252716 71.865723 113.826172 365.193756 71.883652 113.826172 365.136414 71.907784 113.826172 365.081421 71.937828 113.826172 365.029388 71.973404 113.826172 364.980988 72.014091 113.826172 364.936768 72.059395 113.826172 364.897308 72.108765 113.826172 364.863098 72.161598 113.826172 364.834503 72.217255 113.826172 364.811890 72.275063 113.826172 364.795532 72.334320 113.826172 364.785645 72.394310 113.826172 364.782349 "
							            />
						</IndexedFaceSet>
					</Shape>
				</Group>
			</Transform>
		</Transform>
	</Scene>
</X3D>