<?xml version="1.0" encoding="UTF-8"?>
<!DOCTYPE X3D PUBLIC "ISO//Web3D//DTD X3D 3.0//EN" "http://www.web3d.org/specifications/x3d-3.0.dtd">
<X3D version="3.0" profile="Immersive" xmlns:xsd="http://www.w3.org/2001/XMLSchema-instance" xsd:noNamespaceSchemaLocation="http://www.web3d.org/specifications/x3d-3.0.xsd">
	<head>
		<meta name="filename" content="OMLV4_Packing - For Xander - Param_VTail_V4_PDR-1.x3d" />
		<meta name="created" content="2026-04-19 20:21:18" />
		<meta name="generator" content="Blender 4.3.2" />
		<meta name="translator" content="Web3D X3D/VRML2 format v2.5.1" />
	</head>
	<Scene>
		<NavigationInfo headlight="true"
		                visibilityLimit="0.0"
		                type='"EXAMINE", "ANY"'
		                avatarSize="0.25, 1.75, 0.75"
		                />
		<Background DEF="WO_World"
		            groundColor="0.051 0.051 0.051"
		            skyColor="0.051 0.051 0.051"
		            />
		<Transform DEF="OMLV4_Packing_-_For_Xander_-_Param_VTail_V4_PDR-1_TRANSFORM"
		           translation="0.000000 0.000000 0.000000"
		           scale="1.000000 1.000000 1.000000"
		           rotation="-1.000000 0.000000 0.000000 1.570796"
		           >
			<Transform DEF="OMLV4_Packing_-_For_Xander_-_Param_VTail_V4_PDR-1_ifs_TRANSFORM"
			           translation="0.000000 0.000000 0.000000"
			           scale="1.000000 1.000000 1.000000"
			           rotation="0.000000 1.000000 0.000000 0.000000"
			           >
				<Group DEF="group_ME_OMLV4_Packing_-_For_Xander_-_Param_VTail_V4_PDR-1">
					<Shape>
						<Appearance>
						</Appearance>
						<IndexedFaceSet solid="false"
						                coordIndex="0 1 2 -1 3 4 5 -1 5 4 6 -1 5 6 7 -1 2 1 8 -1 8 1 9 -1 8 9 10 -1 10 9 11 -1 10 11 12 -1 12 11 13 -1 12 13 14 -1 14 13 15 -1 14 15 16 -1 17 18 19 -1 19 18 20 -1 21 22 23 -1 23 22 24 -1 23 24 3 -1 3 24 25 -1 3 25 4 -1 26 27 28 -1 20 29 19 -1 19 29 30 -1 19 30 31 -1 27 32 28 -1 28 32 33 -1 28 33 34 -1 34 33 35 -1 34 35 36 -1 36 35 16 -1 36 16 37 -1 37 16 15 -1 2 38 0 -1 0 38 39 -1 0 39 40 -1 40 39 41 -1 40 41 42 -1 42 43 40 -1 40 43 44 -1 40 44 19 -1 19 44 45 -1 19 45 17 -1 30 46 31 -1 31 46 47 -1 31 47 48 -1 48 47 49 -1 48 49 50 -1 50 49 51 -1 50 51 52 -1 52 51 53 -1 52 53 54 -1 54 53 55 -1 54 55 56 -1 56 55 57 -1 56 57 58 -1 58 57 59 -1 58 59 60 -1 60 59 61 -1 60 61 62 -1 62 61 63 -1 62 63 21 -1 21 63 64 -1 21 64 22 -1 65 5 66 -1 66 5 67 -1 68 28 69 -1 7 70 5 -1 5 70 71 -1 5 71 72 -1 73 74 5 -1 5 74 67 -1 75 76 77 -1 77 76 78 -1 77 78 65 -1 65 78 79 -1 65 79 5 -1 72 80 5 -1 5 80 81 -1 5 81 73 -1 68 82 28 -1 28 82 83 -1 28 83 84 -1 84 85 28 -1 28 85 86 -1 28 86 26 -1 69 87 68 -1 68 87 88 -1 68 88 89 -1 89 90 68 -1 68 90 91 -1 68 91 92 -1 93 94 95 -1 93 96 94 -1 94 96 97 -1 94 97 98 -1 99 100 101 -1 101 100 102 -1 103 104 105 -1 103 106 104 -1 104 106 107 -1 104 107 95 -1 95 107 108 -1 95 108 93 -1 109 110 111 -1 111 110 112 -1 111 112 113 -1 114 115 116 -1 116 115 117 -1 116 117 118 -1 100 119 102 -1 102 119 120 -1 102 120 121 -1 121 120 122 -1 123 124 125 -1 125 124 126 -1 125 126 127 -1 128 129 130 -1 130 129 131 -1 130 131 132 -1 132 131 133 -1 132 133 134 -1 134 133 113 -1 134 113 135 -1 135 113 112 -1 123 136 124 -1 124 136 137 -1 124 137 101 -1 101 137 138 -1 101 138 99 -1 117 139 118 -1 118 139 140 -1 118 140 122 -1 122 140 141 -1 122 141 121 -1 142 143 126 -1 126 143 144 -1 126 144 127 -1 145 146 147 -1 97 148 98 -1 98 148 149 -1 98 149 111 -1 111 149 150 -1 111 150 109 -1 105 151 103 -1 103 151 145 -1 103 145 152 -1 152 145 147 -1 130 153 128 -1 128 153 154 -1 128 154 114 -1 114 154 155 -1 114 155 115 -1 156 157 158 -1 158 157 159 -1 158 159 160 -1 142 126 161 -1 161 126 162 -1 161 162 163 -1 146 145 158 -1 158 145 164 -1 158 164 156 -1 165 166 162 -1 162 166 167 -1 162 167 163 -1 168 169 170 -1 170 169 171 -1 170 171 159 -1 159 171 172 -1 159 172 160 -1 173 174 175 -1 175 174 176 -1 175 176 165 -1 165 176 177 -1 165 177 166 -1 178 179 180 -1 180 179 181 -1 180 181 175 -1 175 181 182 -1 175 182 173 -1 183 184 185 -1 185 184 186 -1 186 184 180 -1 180 184 187 -1 180 187 188 -1 188 189 180 -1 180 189 190 -1 180 190 178 -1 143 142 191 -1 191 142 192 -1 131 129 193 -1 194 195 21 -1 54 56 196 -1 21 195 62 -1 197 198 199 -1 13 11 200 -1 192 37 191 -1 191 37 15 -1 191 15 201 -1 33 32 202 -1 202 32 27 -1 89 88 202 -1 202 88 87 -1 202 87 69 -1 27 26 202 -1 202 26 86 -1 202 86 85 -1 92 91 202 -1 202 91 90 -1 202 90 89 -1 85 84 202 -1 202 84 83 -1 202 83 82 -1 82 68 202 -1 202 68 92 -1 198 197 202 -1 202 197 35 -1 202 35 33 -1 69 28 202 -1 202 28 34 -1 202 34 36 -1 200 11 203 -1 203 11 9 -1 203 9 204 -1 204 9 1 -1 204 1 205 -1 1 0 205 -1 205 0 40 -1 205 40 206 -1 206 40 19 -1 2 8 207 -1 207 8 10 -1 207 10 208 -1 208 10 12 -1 208 12 209 -1 30 29 210 -1 210 29 211 -1 211 29 20 -1 211 20 18 -1 18 17 211 -1 211 17 45 -1 211 45 212 -1 45 44 212 -1 212 44 43 -1 212 43 42 -1 42 41 212 -1 212 41 39 -1 212 39 207 -1 207 39 38 -1 207 38 2 -1 209 12 199 -1 199 12 14 -1 199 14 197 -1 197 14 16 -1 197 16 35 -1 213 214 215 -1 75 77 7 -1 75 7 76 -1 5 79 6 -1 6 79 7 -1 7 79 78 -1 7 78 76 -1 77 65 7 -1 7 65 66 -1 7 66 67 -1 7 67 74 -1 7 74 70 -1 70 74 73 -1 70 73 71 -1 71 73 72 -1 72 73 80 -1 80 73 81 -1 5 214 3 -1 3 214 213 -1 3 213 23 -1 5 6 214 -1 214 6 4 -1 214 4 25 -1 215 214 216 -1 216 214 25 -1 216 25 217 -1 217 25 24 -1 217 24 218 -1 218 24 22 -1 218 22 219 -1 219 22 64 -1 219 64 220 -1 220 64 63 -1 220 63 221 -1 221 63 61 -1 221 61 59 -1 55 222 57 -1 57 222 223 -1 57 223 59 -1 196 56 224 -1 224 56 58 -1 224 58 60 -1 222 225 130 -1 107 216 108 -1 108 216 217 -1 108 217 93 -1 93 217 218 -1 93 218 96 -1 152 147 226 -1 226 147 146 -1 157 156 226 -1 226 156 164 -1 226 164 145 -1 146 158 226 -1 226 158 160 -1 226 160 172 -1 172 171 226 -1 226 171 169 -1 226 169 168 -1 168 170 226 -1 226 170 159 -1 226 159 157 -1 227 228 226 -1 95 229 104 -1 104 229 227 -1 104 227 105 -1 105 227 226 -1 105 226 151 -1 151 226 145 -1 106 103 230 -1 21 23 194 -1 194 23 213 -1 194 213 231 -1 231 213 215 -1 231 215 232 -1 232 215 216 -1 232 216 230 -1 230 216 107 -1 230 107 106 -1 110 109 221 -1 221 109 150 -1 221 150 220 -1 220 150 149 -1 220 149 219 -1 219 149 148 -1 219 148 218 -1 218 148 97 -1 218 97 96 -1 59 223 221 -1 221 223 112 -1 221 112 110 -1 130 132 222 -1 222 132 134 -1 222 134 223 -1 223 134 135 -1 223 135 112 -1 195 94 98 -1 62 195 233 -1 233 195 98 -1 233 98 111 -1 193 129 234 -1 234 129 128 -1 234 128 235 -1 131 193 133 -1 133 193 236 -1 133 236 113 -1 113 236 196 -1 113 196 111 -1 111 196 224 -1 111 224 233 -1 233 224 60 -1 233 60 62 -1 94 195 95 -1 95 195 194 -1 95 194 229 -1 229 194 231 -1 229 231 227 -1 227 231 232 -1 227 232 228 -1 228 232 230 -1 228 230 226 -1 226 230 103 -1 226 103 152 -1 114 206 237 -1 237 206 19 -1 237 19 31 -1 161 163 238 -1 136 123 200 -1 200 123 201 -1 200 201 13 -1 13 201 15 -1 123 125 201 -1 201 125 127 -1 201 127 191 -1 191 127 144 -1 191 144 143 -1 239 177 176 -1 174 173 239 -1 173 182 239 -1 239 182 181 -1 239 181 179 -1 179 178 239 -1 239 178 190 -1 239 190 189 -1 189 188 239 -1 239 188 187 -1 239 187 184 -1 184 183 239 -1 239 183 185 -1 239 185 186 -1 186 180 239 -1 239 180 175 -1 239 175 240 -1 126 241 162 -1 162 241 240 -1 162 240 165 -1 165 240 175 -1 177 239 166 -1 176 174 239 -1 242 239 240 -1 242 240 243 -1 243 240 241 -1 243 241 242 -1 242 241 244 -1 242 244 239 -1 142 161 192 -1 192 161 238 -1 192 238 244 -1 244 238 163 -1 244 163 239 -1 239 163 167 -1 239 167 166 -1 100 99 203 -1 203 99 138 -1 203 138 200 -1 200 138 137 -1 200 137 136 -1 114 116 206 -1 206 116 118 -1 206 118 205 -1 205 118 122 -1 205 122 204 -1 204 122 120 -1 204 120 203 -1 203 120 119 -1 203 119 100 -1 245 210 115 -1 141 140 211 -1 211 140 139 -1 211 139 210 -1 210 139 117 -1 210 117 115 -1 141 211 121 -1 121 211 212 -1 121 212 102 -1 102 212 207 -1 102 207 101 -1 101 207 208 -1 101 208 124 -1 124 208 209 -1 124 209 126 -1 126 209 199 -1 126 199 241 -1 241 199 198 -1 241 198 244 -1 244 198 202 -1 244 202 192 -1 192 202 36 -1 192 36 37 -1 55 53 222 -1 222 53 51 -1 222 51 225 -1 225 51 49 -1 225 49 245 -1 245 49 47 -1 245 47 210 -1 210 47 46 -1 210 46 30 -1 54 196 52 -1 52 196 236 -1 52 236 50 -1 50 236 193 -1 50 193 48 -1 48 193 234 -1 48 234 31 -1 31 234 235 -1 31 235 237 -1 237 235 128 -1 237 128 114 -1 115 155 245 -1 245 155 154 -1 245 154 225 -1 225 154 153 -1 225 153 130 -1 246 247 248 -1 248 247 249 -1 250 251 252 -1 253 254 255 -1 247 256 249 -1 249 256 257 -1 249 257 258 -1 258 257 259 -1 258 259 260 -1 260 259 261 -1 262 263 264 -1 265 266 267 -1 267 266 268 -1 267 268 269 -1 264 270 262 -1 262 270 271 -1 262 271 272 -1 272 271 273 -1 272 273 268 -1 268 273 274 -1 268 274 269 -1 253 255 275 -1 246 248 276 -1 276 248 277 -1 276 277 251 -1 251 277 278 -1 251 278 279 -1 280 281 282 -1 282 281 283 -1 282 283 284 -1 285 286 263 -1 263 286 287 -1 263 287 264 -1 254 288 255 -1 255 288 289 -1 255 289 282 -1 282 289 290 -1 282 290 280 -1 283 291 284 -1 284 291 292 -1 284 292 293 -1 293 292 294 -1 293 294 261 -1 261 294 295 -1 261 295 260 -1 296 297 298 -1 298 297 299 -1 298 299 300 -1 300 299 301 -1 300 301 302 -1 302 301 303 -1 302 303 304 -1 304 303 305 -1 304 305 306 -1 306 305 307 -1 306 307 265 -1 265 307 308 -1 265 308 266 -1 250 252 309 -1 263 310 311 -1 296 312 297 -1 297 312 313 -1 297 313 314 -1 314 313 315 -1 314 315 255 -1 255 315 316 -1 255 316 275 -1 279 317 251 -1 251 317 318 -1 251 318 319 -1 263 320 310 -1 310 320 321 -1 310 321 322 -1 322 321 323 -1 322 323 324 -1 311 325 263 -1 263 325 326 -1 326 327 263 -1 263 327 328 -1 319 329 251 -1 251 329 330 -1 251 330 331 -1 331 332 251 -1 251 332 252 -1 328 333 263 -1 263 333 334 -1 263 334 285 -1 335 252 336 -1 336 252 337 -1 335 338 252 -1 252 338 339 -1 252 339 309 -1 340 341 342 -1 343 344 345 -1 346 347 348 -1 348 347 349 -1 348 349 350 -1 350 349 351 -1 350 351 352 -1 353 354 355 -1 355 354 356 -1 355 356 357 -1 358 359 360 -1 360 359 353 -1 360 353 361 -1 361 353 355 -1 342 341 362 -1 363 364 365 -1 365 364 366 -1 365 366 367 -1 367 366 368 -1 367 368 369 -1 363 370 364 -1 364 370 371 -1 364 371 372 -1 372 371 373 -1 374 375 376 -1 376 375 377 -1 376 377 378 -1 378 377 357 -1 378 357 379 -1 379 357 356 -1 358 380 359 -1 359 380 381 -1 359 381 348 -1 348 381 382 -1 348 382 346 -1 341 383 362 -1 362 383 384 -1 362 384 345 -1 345 384 385 -1 345 385 343 -1 342 386 340 -1 340 386 387 -1 340 387 388 -1 388 387 389 -1 388 389 390 -1 390 389 375 -1 390 375 391 -1 391 375 374 -1 344 392 345 -1 345 392 393 -1 345 393 394 -1 394 393 395 -1 394 395 368 -1 368 395 396 -1 368 396 369 -1 397 398 399 -1 399 398 400 -1 373 371 399 -1 399 371 401 -1 399 401 397 -1 402 403 400 -1 400 403 404 -1 352 405 350 -1 350 405 406 -1 350 406 407 -1 407 406 408 -1 408 409 407 -1 407 409 410 -1 407 410 411 -1 404 412 400 -1 400 412 413 -1 400 413 399 -1 414 415 416 -1 402 417 403 -1 403 417 418 -1 403 418 419 -1 419 418 420 -1 419 420 421 -1 410 422 411 -1 411 422 423 -1 411 423 416 -1 416 423 424 -1 416 424 414 -1 415 425 416 -1 416 425 426 -1 416 426 427 -1 427 428 429 -1 426 430 427 -1 427 430 431 -1 427 431 432 -1 433 434 429 -1 429 434 435 -1 429 435 427 -1 432 436 427 -1 427 436 437 -1 427 437 428 -1 438 439 440 -1 441 442 438 -1 409 408 443 -1 444 445 446 -1 447 262 272 -1 448 248 249 -1 449 450 259 -1 248 448 277 -1 448 251 250 -1 317 279 448 -1 448 279 278 -1 448 278 277 -1 250 309 448 -1 448 309 339 -1 448 339 338 -1 329 319 448 -1 448 319 318 -1 448 318 317 -1 338 335 448 -1 448 335 336 -1 448 336 337 -1 337 252 448 -1 448 252 332 -1 332 331 448 -1 448 331 330 -1 448 330 329 -1 251 448 276 -1 276 448 451 -1 276 451 246 -1 246 451 247 -1 247 451 443 -1 247 443 256 -1 256 443 452 -1 256 452 257 -1 259 450 261 -1 261 450 453 -1 261 453 293 -1 293 453 454 -1 293 454 284 -1 284 454 455 -1 284 455 282 -1 282 455 255 -1 255 455 456 -1 255 456 314 -1 260 295 457 -1 260 457 258 -1 458 290 459 -1 459 290 289 -1 459 289 288 -1 275 460 253 -1 253 460 459 -1 253 459 254 -1 254 459 288 -1 295 294 457 -1 457 294 292 -1 457 292 458 -1 458 292 291 -1 458 291 283 -1 283 281 458 -1 458 281 280 -1 458 280 290 -1 334 333 320 -1 334 320 285 -1 264 287 320 -1 320 287 286 -1 320 286 285 -1 326 325 321 -1 333 328 320 -1 320 328 327 -1 320 327 321 -1 321 327 326 -1 321 325 311 -1 321 311 323 -1 323 311 310 -1 323 310 322 -1 320 263 264 -1 264 263 461 -1 264 461 270 -1 271 462 273 -1 273 462 463 -1 273 463 274 -1 274 463 464 -1 274 464 269 -1 269 464 465 -1 269 465 267 -1 267 465 466 -1 267 466 265 -1 265 466 467 -1 265 467 306 -1 306 467 468 -1 298 300 469 -1 469 300 302 -1 469 302 468 -1 468 302 304 -1 468 304 306 -1 470 303 471 -1 471 303 301 -1 471 301 472 -1 473 266 474 -1 474 266 308 -1 474 308 475 -1 475 308 307 -1 475 307 470 -1 470 307 305 -1 470 305 303 -1 445 447 446 -1 446 447 272 -1 446 272 473 -1 473 272 268 -1 473 268 266 -1 476 469 341 -1 397 401 477 -1 477 373 399 -1 397 477 398 -1 399 413 477 -1 477 413 412 -1 477 412 404 -1 417 402 477 -1 477 402 400 -1 477 400 398 -1 404 403 477 -1 477 403 419 -1 477 419 421 -1 421 420 477 -1 477 420 418 -1 477 418 417 -1 372 373 478 -1 372 478 364 -1 364 478 479 -1 364 479 366 -1 480 477 481 -1 481 477 462 -1 373 477 478 -1 478 477 480 -1 478 480 479 -1 479 480 481 -1 479 481 482 -1 482 481 462 -1 482 462 461 -1 461 462 271 -1 461 271 270 -1 367 464 365 -1 365 464 463 -1 365 463 363 -1 363 463 462 -1 363 462 370 -1 370 462 477 -1 370 477 371 -1 371 477 401 -1 367 369 464 -1 464 369 396 -1 464 396 465 -1 465 396 395 -1 465 395 466 -1 466 395 393 -1 466 393 467 -1 467 393 392 -1 467 392 344 -1 344 343 467 -1 467 343 385 -1 467 385 468 -1 468 385 384 -1 468 384 469 -1 469 384 383 -1 469 383 341 -1 389 387 472 -1 472 387 386 -1 472 386 471 -1 471 386 342 -1 471 342 470 -1 470 342 362 -1 470 362 475 -1 475 362 345 -1 475 345 474 -1 474 345 394 -1 474 394 473 -1 473 394 368 -1 473 368 446 -1 446 368 366 -1 446 366 444 -1 444 366 479 -1 444 479 445 -1 445 479 482 -1 445 482 447 -1 447 482 461 -1 447 461 262 -1 262 461 263 -1 443 408 452 -1 452 408 406 -1 452 406 405 -1 405 352 452 -1 452 352 449 -1 452 449 257 -1 257 449 259 -1 347 450 349 -1 349 450 449 -1 349 449 351 -1 351 449 352 -1 483 427 435 -1 434 433 483 -1 483 433 429 -1 483 429 428 -1 428 437 483 -1 483 437 436 -1 483 436 432 -1 432 431 483 -1 483 431 430 -1 483 430 426 -1 426 425 483 -1 483 425 415 -1 483 415 414 -1 484 485 483 -1 439 438 486 -1 423 422 410 -1 410 409 423 -1 423 409 483 -1 423 483 424 -1 424 483 414 -1 441 483 442 -1 442 483 485 -1 442 485 438 -1 438 485 484 -1 438 484 486 -1 486 484 487 -1 457 488 258 -1 258 488 489 -1 258 489 249 -1 249 489 440 -1 249 440 448 -1 448 440 439 -1 448 439 451 -1 451 439 486 -1 451 486 443 -1 443 486 487 -1 443 487 409 -1 409 487 484 -1 409 484 483 -1 434 483 435 -1 347 346 450 -1 450 346 382 -1 450 382 453 -1 453 382 381 -1 453 381 380 -1 380 358 453 -1 453 358 360 -1 453 360 454 -1 454 360 361 -1 454 361 455 -1 455 361 355 -1 455 355 456 -1 460 490 391 -1 391 374 460 -1 460 374 376 -1 460 376 459 -1 459 376 378 -1 459 378 458 -1 458 378 379 -1 379 356 458 -1 458 356 354 -1 458 354 457 -1 457 354 353 -1 457 353 488 -1 488 353 359 -1 488 359 489 -1 489 359 348 -1 489 348 440 -1 440 348 350 -1 440 350 438 -1 438 350 407 -1 438 407 441 -1 441 407 411 -1 441 411 483 -1 483 411 416 -1 483 416 427 -1 456 491 314 -1 314 491 492 -1 314 492 297 -1 297 492 493 -1 297 493 299 -1 275 316 460 -1 460 316 315 -1 460 315 490 -1 490 315 313 -1 490 313 476 -1 476 313 312 -1 476 312 469 -1 469 312 296 -1 469 296 298 -1 355 357 456 -1 456 357 377 -1 456 377 491 -1 491 377 375 -1 491 375 492 -1 492 375 389 -1 492 389 493 -1 493 389 472 -1 493 472 299 -1 299 472 301 -1 341 340 476 -1 476 340 388 -1 476 388 490 -1 490 388 390 -1 490 390 391 -1 "
						                >
							<Coordinate DEF="coords_ME_OMLV4_Packing_-_For_Xander_-_Param_VTail_V4_PDR-1"
							            point="574.883423 200.987381 416.960938 573.457153 200.972488 417.045380 573.526367 200.892700 417.497894 609.002625 200.933701 417.265320 609.005554 200.932297 417.273346 609.008728 200.933456 417.266724 609.009033 200.932465 417.272461 609.011536 200.932602 417.271606 572.427368 200.903900 417.434418 572.030823 200.957901 417.128143 571.328674 200.915756 417.367188 570.604675 200.942383 417.216125 570.229492 200.926468 417.306366 569.890991 200.936752 417.248108 569.679810 200.931793 417.276245 569.712708 200.934723 417.259552 569.676636 200.931870 417.275787 582.317322 200.800873 418.018677 583.416321 200.789703 418.082092 585.401306 201.097198 416.338165 584.515137 200.778137 418.147644 608.672485 200.937637 417.243073 608.814941 200.929504 417.289154 608.983398 200.934219 417.262451 608.964966 200.931335 417.278809 609.002319 200.932175 417.273987 569.654663 200.932755 417.270721 569.655151 200.932709 417.271027 569.657349 200.933365 417.267303 585.613953 200.766571 418.213226 586.712952 200.755371 418.276703 588.766296 201.132660 416.137085 569.656189 200.932617 417.271545 569.657288 200.932541 417.271973 569.658813 200.933441 417.266815 569.662842 200.932281 417.273468 569.668274 200.933807 417.264771 569.685486 200.934235 417.262329 574.625305 200.881378 417.562073 575.724060 200.869568 417.629120 577.736084 201.016861 416.793762 576.822998 200.858383 417.692505 577.921936 200.847000 417.757141 579.020691 200.835220 417.823914 580.119629 200.824036 417.887299 581.218567 200.812561 417.952454 587.811829 200.743851 418.342072 588.910889 200.732147 418.408447 590.014221 201.131607 416.142975 590.182373 200.736053 418.386292 591.257751 201.117676 416.221954 591.579468 200.751556 418.298370 593.745728 201.092239 416.366211 593.304138 200.769089 418.198944 596.233398 201.066193 416.513947 595.345825 200.790649 418.076691 598.721069 201.040100 416.661926 597.704956 200.815384 417.936371 601.208740 201.013931 416.810333 602.509033 200.865189 417.653961 603.696594 200.988358 416.955383 604.911011 200.890366 417.511139 606.184387 200.962570 417.101624 607.313049 200.915451 417.368866 608.514404 200.927048 417.303162 609.013794 200.933029 417.269196 609.013855 200.932999 417.269348 609.013916 200.932968 417.269470 569.653931 200.932953 417.269623 569.655762 200.933258 417.267914 609.012573 200.932693 417.271118 609.013306 200.932770 417.270630 609.013550 200.932816 417.270416 609.013916 200.932922 417.269806 609.013977 200.932953 417.269684 609.013611 200.933075 417.268921 609.013245 200.933121 417.268616 609.013733 200.933044 417.269104 609.012878 200.933182 417.268341 609.012085 200.933258 417.267914 609.013733 200.932846 417.270203 609.013855 200.932877 417.270020 569.653931 200.932922 417.269806 569.653992 200.932892 417.269928 569.654053 200.932877 417.270050 569.654175 200.932846 417.270233 569.654358 200.932800 417.270477 569.654785 200.933151 417.268463 569.654480 200.933121 417.268707 569.654175 200.933075 417.268982 569.654053 200.933029 417.269165 569.653992 200.932999 417.269318 569.653931 200.932983 417.269470 579.206848 113.673111 401.917694 578.684387 113.690010 401.821899 579.383606 113.682014 401.867218 579.099792 113.671852 401.924835 578.918640 113.670021 401.935211 577.376465 113.700050 401.764954 487.662903 113.748306 401.491272 489.476532 113.766716 401.386841 488.623535 113.599907 402.332855 494.770264 113.535774 402.696564 579.441711 113.677742 401.891449 579.439514 113.680336 401.876770 579.448303 113.679825 401.879639 579.440857 113.677704 401.891693 579.434631 113.677414 401.893280 579.296204 113.674362 401.910614 571.165283 113.592621 402.374207 569.547058 113.576065 402.468079 568.881958 113.788597 401.262756 567.194214 113.551918 402.605011 549.214783 113.994652 400.094147 528.834839 114.178230 399.053040 528.013611 113.188087 404.668427 524.269775 114.128685 399.334045 524.143494 113.230568 404.427521 516.535950 114.047989 399.791656 491.156464 113.783875 401.289520 491.937286 113.791725 401.245026 507.070068 113.408203 403.420074 504.235992 113.920952 400.512115 482.631287 113.696213 401.786713 484.331390 113.646439 402.068970 482.016144 113.691566 401.813049 481.353821 113.672470 401.921356 481.661835 113.688606 401.829834 530.565613 114.184189 399.019257 533.965454 114.152779 399.197388 533.027161 113.194313 404.633087 538.189087 114.108810 399.446716 543.971924 113.309975 403.977173 543.265930 114.055389 399.749725 546.935059 113.340103 403.806305 552.630615 113.400085 403.466095 483.304504 113.701485 401.756805 483.772919 113.705727 401.732727 486.473358 113.735756 401.562439 519.400940 113.278862 404.153625 513.805237 113.337730 403.819763 507.356506 113.405312 403.436462 481.252106 113.684196 401.854828 481.326416 113.685165 401.849335 481.450836 113.686569 401.841370 579.451233 113.679558 401.881134 579.452576 113.678574 401.886749 579.451538 113.678444 401.887482 576.952576 113.654282 402.024506 573.964783 113.621460 402.210663 572.663330 113.607803 402.288086 579.449585 113.679718 401.880219 579.449036 113.678200 401.888824 531.672974 113.179733 404.715790 531.221191 113.176399 404.734711 528.593689 113.181938 404.703308 579.453186 113.679283 401.882721 579.453552 113.679192 401.883209 579.453186 113.678673 401.886139 579.453735 113.679131 401.883575 579.453552 113.678757 401.885681 481.114349 113.681786 401.868500 481.088348 113.676880 401.896332 481.096008 113.681313 401.871216 579.452576 113.679398 401.882080 481.077332 113.677254 401.894196 481.073822 113.680573 401.875397 481.082977 113.680908 401.873474 579.453918 113.679008 401.884247 579.453918 113.678947 401.884613 579.453857 113.679070 401.883911 579.453857 113.678894 401.884918 579.453735 113.678833 401.885284 481.055725 113.679451 401.881744 481.057220 113.679619 401.880798 481.063141 113.677910 401.890503 481.060822 113.679909 401.879150 481.066162 113.680222 401.877380 481.054047 113.679100 401.883728 481.054199 113.679169 401.883362 481.057922 113.678276 401.888397 481.054474 113.679245 401.882935 481.054932 113.679337 401.882416 481.054474 113.678726 401.885864 481.054169 113.678810 401.885406 481.054962 113.678627 401.886444 481.055908 113.678490 401.887238 481.054016 113.678871 401.885071 481.053955 113.678932 401.884735 481.053955 113.678986 401.884399 481.053955 113.679047 401.884064 525.491577 157.309601 409.556396 525.409119 157.308212 409.564240 563.108032 157.629807 407.740417 594.014771 157.310638 409.550568 593.382996 157.316147 409.519348 576.022644 157.495514 408.502075 547.535156 179.117966 413.431793 525.402832 157.307236 409.589172 525.573059 157.301300 409.603485 526.434753 157.317856 409.509613 525.742188 157.312363 409.540741 547.532532 179.123306 413.416046 528.649902 157.340210 409.382812 532.972290 157.384888 409.129456 541.581360 157.475342 408.616425 550.191345 157.564270 408.112091 534.955383 157.205719 410.145538 530.652649 157.250610 409.890930 526.204895 157.295792 409.634705 556.479858 156.982117 411.413635 552.174744 157.026123 411.164124 543.565247 157.116425 410.651978 601.619873 179.119080 413.420288 601.617249 179.118774 413.427216 594.189392 157.303406 409.588348 594.178772 157.303711 409.589813 594.096313 157.302338 409.597656 593.845703 157.299561 409.613312 593.153076 157.294083 409.644440 590.937927 157.271729 409.771240 586.615601 157.227051 410.024597 569.396545 157.047653 411.041962 578.006470 157.136581 410.537628 584.632507 157.406219 409.008514 560.787292 156.956497 411.558990 583.142212 124.585083 403.802490 586.824036 135.493942 405.722382 586.829285 135.486542 405.722961 586.795715 135.494781 405.717621 583.137634 124.584579 403.814087 594.172058 157.307068 409.563293 586.833557 135.491425 405.736694 588.935181 157.361313 409.263123 560.956055 157.653900 407.603790 559.878479 157.659790 407.570404 567.413147 157.585815 407.989899 558.800598 157.655441 407.595062 525.380981 157.307526 409.568176 492.132965 124.585052 403.811432 492.150574 124.584129 403.816620 503.223877 135.491013 405.739044 503.207642 135.491852 405.734283 503.223785 135.490982 405.739044 525.384155 157.308777 409.568054 558.631775 156.958038 411.550262 569.668274 200.933807 306.504059 569.685486 200.934235 306.506470 569.676636 200.931870 306.493011 569.679810 200.931793 306.492584 569.655762 200.933258 306.500885 569.657349 200.933365 306.501526 569.653931 200.932953 306.499146 584.515137 200.778137 305.621185 583.416321 200.789703 305.686737 585.401306 201.097198 307.430634 569.712708 200.934723 306.509277 569.890991 200.936752 306.520691 570.229492 200.926468 306.462433 570.604675 200.942383 306.552704 571.328674 200.915756 306.401642 572.030823 200.957901 306.640686 609.002625 200.933701 306.503479 609.008728 200.933456 306.502075 609.009033 200.932465 306.496368 604.911011 200.890366 306.257690 606.184387 200.962570 306.667175 607.313049 200.915451 306.399933 608.672485 200.937637 306.525757 608.514404 200.927048 306.465668 609.005554 200.932297 306.495483 609.002319 200.932175 306.494812 608.983398 200.934219 306.506378 608.964966 200.931335 306.489990 608.814941 200.929504 306.479675 585.613953 200.766571 305.555603 569.658813 200.933441 306.501984 569.662842 200.932281 306.495361 569.657288 200.932541 306.496857 569.656189 200.932617 306.497284 579.020691 200.835220 305.944916 577.921936 200.847000 306.011688 577.736084 201.016861 306.975067 576.822998 200.858383 306.076324 574.883423 200.987381 306.807861 609.013306 200.932770 306.498169 609.012573 200.932693 306.497711 609.011536 200.932602 306.497223 582.317322 200.800873 305.750153 581.218567 200.812561 305.816376 580.119629 200.824036 305.881531 575.724060 200.869568 306.139709 574.625305 200.881378 306.206757 573.457153 200.972488 306.723450 573.526367 200.892700 306.270935 572.427368 200.903900 306.334412 590.182373 200.736053 305.382538 590.014221 201.131607 307.625854 591.579468 200.751556 305.470459 591.257751 201.117676 307.546875 593.304138 200.769089 305.569855 593.745728 201.092239 307.402618 595.345825 200.790649 305.692108 596.233398 201.066193 307.254883 597.704956 200.815384 305.832428 598.721069 201.040100 307.106903 602.509033 200.865189 306.114868 601.208740 201.013931 306.958496 603.696594 200.988358 306.813416 569.654785 200.933151 306.500336 609.013794 200.933029 306.499603 609.013855 200.932999 306.499481 589.901550 200.733246 305.366638 588.910889 200.732147 305.360382 588.766296 201.132660 307.631744 587.811829 200.743851 305.426758 586.712952 200.755371 305.492096 569.655151 200.932709 306.497772 569.654663 200.932755 306.498108 569.654358 200.932800 306.498352 609.012085 200.933258 306.500916 609.012878 200.933182 306.500488 609.013733 200.933044 306.499725 609.013245 200.933121 306.500183 609.013611 200.933075 306.499908 609.013916 200.932968 306.499268 609.013977 200.932953 306.499146 609.013916 200.932907 306.498962 609.013855 200.932877 306.498810 569.654175 200.932846 306.498596 569.654053 200.932877 306.498749 569.653992 200.932892 306.498871 569.653931 200.932922 306.499023 609.013733 200.932846 306.498627 609.013550 200.932816 306.498413 569.654053 200.933029 306.499664 569.653992 200.932999 306.499481 569.653931 200.932983 306.499359 569.654175 200.933075 306.499847 569.654480 200.933121 306.500092 533.027161 113.194313 319.135712 543.971924 113.309975 319.791656 543.265930 114.055389 324.019104 569.547058 113.576065 321.300751 571.165283 113.592621 321.394592 568.881958 113.788597 322.506042 483.304504 113.701485 322.012024 482.631287 113.696213 321.982086 484.331390 113.646439 321.699829 482.016144 113.691566 321.955780 481.353821 113.672470 321.847473 481.661835 113.688606 321.938995 481.450836 113.686569 321.927429 494.770264 113.535774 321.072266 507.070068 113.408203 320.348755 504.235992 113.920952 323.256683 507.356506 113.405312 320.332336 516.535950 114.047989 323.977142 489.476532 113.766716 322.381989 488.623535 113.599907 321.435974 491.156464 113.783875 322.479309 491.937286 113.791725 322.523804 549.214783 113.994652 323.674683 579.434631 113.677414 321.875519 579.439514 113.680336 321.892059 579.296204 113.674362 321.858185 579.383606 113.682014 321.901611 579.206848 113.673111 321.851135 578.684387 113.690010 321.946930 579.099792 113.671852 321.843994 579.440857 113.677704 321.877136 579.441711 113.677742 321.877380 579.448303 113.679825 321.889191 579.449585 113.679718 321.888580 528.013611 113.188087 319.100372 528.834839 114.178230 324.715790 524.143494 113.230568 319.341309 524.269775 114.128685 324.434784 519.400940 113.278862 319.615204 513.805237 113.337730 319.949036 487.662903 113.748306 322.277557 486.473358 113.735756 322.206360 483.772919 113.705727 322.036102 546.935059 113.340103 319.962524 552.630615 113.400085 320.302704 567.194214 113.551918 321.163788 538.189087 114.108810 324.322083 533.965454 114.152779 324.571442 531.672974 113.179733 319.053040 530.565613 114.184189 324.749573 531.221191 113.176399 319.034119 528.593689 113.181938 319.065521 572.663330 113.607803 321.480743 573.964783 113.621460 321.558167 577.376465 113.700050 322.003876 576.952576 113.654282 321.744324 578.918640 113.670021 321.833618 579.451538 113.678444 321.881348 579.452576 113.678574 321.882080 579.451233 113.679558 321.887665 579.453186 113.678673 321.882660 579.449036 113.678200 321.879974 579.453552 113.678757 321.883148 579.453735 113.679131 321.885254 579.453552 113.679192 321.885620 481.326416 113.685165 321.919495 481.252106 113.684196 321.914001 481.088348 113.676880 321.872498 481.114349 113.681786 321.900299 481.096008 113.681313 321.897614 481.082977 113.680908 321.895325 481.077332 113.677254 321.874634 579.453186 113.679283 321.886108 579.452576 113.679398 321.886749 481.057220 113.679619 321.888031 481.055725 113.679451 321.887054 481.063141 113.677910 321.878326 579.453735 113.678833 321.883545 579.453857 113.678894 321.883881 579.453857 113.679070 321.884888 579.453918 113.678947 321.884216 579.453918 113.679008 321.884552 481.073822 113.680573 321.893402 481.066162 113.680222 321.891449 481.060822 113.679909 321.889679 481.054932 113.679337 321.886414 481.054474 113.679245 321.885895 481.057922 113.678276 321.880402 481.054016 113.678871 321.883759 481.054169 113.678810 321.883392 481.054199 113.679169 321.885468 481.054047 113.679100 321.885071 481.053955 113.679047 321.884766 481.054474 113.678726 321.882965 481.054962 113.678627 321.882385 481.055908 113.678490 321.881592 481.053955 113.678986 321.884430 481.053955 113.678932 321.884094 503.223877 135.491013 318.029785 525.395203 157.305573 314.180756 525.573059 157.301300 314.165344 492.150574 124.584129 319.952209 503.223785 135.490982 318.029785 525.409119 157.308212 314.204559 586.795715 135.494781 318.051178 594.172058 157.307068 314.205536 594.014771 157.310638 314.218262 601.619873 179.119080 310.348541 547.530029 179.123215 310.337708 525.742188 157.312363 314.228088 526.434753 157.317856 314.259186 547.532532 179.123306 310.352783 525.491577 157.309601 314.212433 528.649902 157.340210 314.386017 532.972290 157.384888 314.639374 541.581360 157.475342 315.152405 550.191345 157.564270 315.656708 534.955383 157.205719 313.623291 543.565247 157.116425 313.116821 552.174744 157.026123 312.604675 556.479858 156.982117 312.355194 601.617249 179.118774 310.341614 594.178772 157.303711 314.179016 594.096313 157.302338 314.171173 593.845703 157.299561 314.155518 593.153076 157.294083 314.124390 590.937927 157.271729 313.997589 586.615601 157.227051 313.744202 578.006470 157.136581 313.231201 569.396545 157.047653 312.726868 576.022644 157.495514 315.266754 567.413147 157.585815 315.778900 563.108032 157.629807 316.028412 593.382996 157.316147 314.249481 588.935181 157.361313 314.505707 584.632507 157.406219 314.760315 560.787292 156.956497 312.209839 583.137634 124.584579 319.954742 583.142212 124.585083 319.966339 586.824036 135.493942 318.046417 586.829285 135.486542 318.045837 586.833313 135.483185 318.034424 594.189392 157.303406 314.180481 492.142487 124.586533 319.954346 503.214325 135.493530 318.044067 503.207642 135.491852 318.034546 525.384644 157.309250 314.200684 525.380981 157.307526 314.200653 530.652649 157.250610 313.877899 526.204895 157.295792 314.134125 558.631775 156.958038 312.218567 558.800598 157.655441 316.173767 559.878479 157.659790 316.198425 560.956055 157.653900 316.165009 "
							            />
						</IndexedFaceSet>
					</Shape>
				</Group>
			</Transform>
		</Transform>
	</Scene>
</X3D>