<?xml version="1.0" encoding="UTF-8"?>
<!DOCTYPE X3D PUBLIC "ISO//Web3D//DTD X3D 3.0//EN" "http://www.web3d.org/specifications/x3d-3.0.dtd">
<X3D version="3.0" profile="Immersive" xmlns:xsd="http://www.w3.org/2001/XMLSchema-instance" xsd:noNamespaceSchemaLocation="http://www.web3d.org/specifications/x3d-3.0.xsd">
	<head>
		<meta name="filename" content="OMLV4_Packing - For Xander - Fuel Pump-1.x3d" />
		<meta name="created" content="2026-04-19 20:21:17" />
		<meta name="generator" content="Blender 4.3.2" />
		<meta name="translator" content="Web3D X3D/VRML2 format v2.5.1" />
	</head>
	<Scene>
		<NavigationInfo headlight="true"
		                visibilityLimit="0.0"
		                type='"EXAMINE", "ANY"'
		                avatarSize="0.25, 1.75, 0.75"
		                />
		<Background DEF="WO_World"
		            groundColor="0.051 0.051 0.051"
		            skyColor="0.051 0.051 0.051"
		            />
		<Transform DEF="OMLV4_Packing_-_For_Xander_-_Fuel_Pump-1_TRANSFORM"
		           translation="0.000000 0.000000 0.000000"
		           scale="1.000000 1.000000 1.000000"
		           rotation="-1.000000 0.000000 0.000000 1.570796"
		           >
			<Transform DEF="OMLV4_Packing_-_For_Xander_-_Fuel_Pump-1_ifs_TRANSFORM"
			           translation="0.000000 0.000000 0.000000"
			           scale="1.000000 1.000000 1.000000"
			           rotation="0.000000 1.000000 0.000000 0.000000"
			           >
				<Group DEF="group_ME_OMLV4_Packing_-_For_Xander_-_Fuel_Pump-1">
					<Shape>
						<Appearance>
						</Appearance>
						<IndexedFaceSet solid="false"
						                coordIndex="0 1 2 -1 2 1 3 -1 2 3 4 -1 4 3 5 -1 4 5 6 -1 6 5 7 -1 6 7 8 -1 8 7 9 -1 8 9 10 -1 10 9 11 -1 10 11 12 -1 12 11 13 -1 12 13 14 -1 14 13 15 -1 14 15 16 -1 16 15 17 -1 16 17 18 -1 18 17 19 -1 18 19 20 -1 20 19 21 -1 20 21 22 -1 22 21 23 -1 22 23 24 -1 24 23 25 -1 24 25 26 -1 26 25 27 -1 26 27 28 -1 28 27 29 -1 28 29 30 -1 30 29 31 -1 30 31 32 -1 32 31 33 -1 32 33 34 -1 34 33 35 -1 34 35 36 -1 36 35 37 -1 36 37 38 -1 38 37 39 -1 38 39 40 -1 40 39 41 -1 40 41 42 -1 42 41 43 -1 42 43 44 -1 44 43 45 -1 44 45 46 -1 46 45 47 -1 46 47 48 -1 48 47 49 -1 48 49 50 -1 50 49 51 -1 50 51 52 -1 52 51 53 -1 52 53 54 -1 54 53 55 -1 54 55 56 -1 56 55 57 -1 56 57 58 -1 58 57 59 -1 58 59 60 -1 60 59 61 -1 60 61 62 -1 62 61 63 -1 62 63 64 -1 64 63 65 -1 64 65 66 -1 66 65 67 -1 66 67 68 -1 68 67 69 -1 68 69 70 -1 70 69 71 -1 70 71 72 -1 72 71 73 -1 72 73 74 -1 74 73 75 -1 74 75 76 -1 76 75 77 -1 76 77 78 -1 78 77 79 -1 78 79 80 -1 80 79 81 -1 80 81 82 -1 82 81 83 -1 82 83 84 -1 84 83 85 -1 84 85 86 -1 86 85 87 -1 86 87 88 -1 88 87 89 -1 88 89 90 -1 90 89 91 -1 90 91 92 -1 92 91 93 -1 92 93 94 -1 94 93 95 -1 94 95 96 -1 96 95 97 -1 96 97 98 -1 98 97 99 -1 98 99 100 -1 100 99 101 -1 100 101 102 -1 102 101 103 -1 102 103 0 -1 0 103 1 -1 51 49 104 -1 57 55 104 -1 104 55 53 -1 104 53 51 -1 63 61 104 -1 104 61 59 -1 104 59 57 -1 69 67 104 -1 104 67 65 -1 104 65 63 -1 75 73 104 -1 104 73 71 -1 104 71 69 -1 81 79 104 -1 104 79 77 -1 104 77 75 -1 87 85 104 -1 104 85 83 -1 104 83 81 -1 93 91 104 -1 104 91 89 -1 104 89 87 -1 99 97 104 -1 104 97 95 -1 104 95 93 -1 1 103 104 -1 104 103 101 -1 104 101 99 -1 7 5 104 -1 104 5 3 -1 104 3 1 -1 13 11 104 -1 104 11 9 -1 104 9 7 -1 19 17 104 -1 104 17 15 -1 104 15 13 -1 25 23 104 -1 104 23 21 -1 104 21 19 -1 31 29 104 -1 104 29 27 -1 104 27 25 -1 37 35 104 -1 104 35 33 -1 104 33 31 -1 43 41 104 -1 104 41 39 -1 104 39 37 -1 49 47 104 -1 104 47 45 -1 104 45 43 -1 52 54 105 -1 46 48 105 -1 105 48 50 -1 105 50 52 -1 40 42 105 -1 105 42 44 -1 105 44 46 -1 34 36 105 -1 105 36 38 -1 105 38 40 -1 28 30 105 -1 105 30 32 -1 105 32 34 -1 22 24 105 -1 105 24 26 -1 105 26 28 -1 16 18 105 -1 105 18 20 -1 105 20 22 -1 10 12 105 -1 105 12 14 -1 105 14 16 -1 4 6 105 -1 105 6 8 -1 105 8 10 -1 102 0 105 -1 105 0 2 -1 105 2 4 -1 96 98 105 -1 105 98 100 -1 105 100 102 -1 90 92 105 -1 105 92 94 -1 105 94 96 -1 84 86 105 -1 105 86 88 -1 105 88 90 -1 78 80 105 -1 105 80 82 -1 105 82 84 -1 72 74 105 -1 105 74 76 -1 105 76 78 -1 66 68 105 -1 105 68 70 -1 105 70 72 -1 60 62 105 -1 105 62 64 -1 105 64 66 -1 54 56 105 -1 105 56 58 -1 105 58 60 -1 "
						                >
							<Coordinate DEF="coords_ME_OMLV4_Packing_-_For_Xander_-_Fuel_Pump-1"
							            point="476.858704 101.868652 367.884399 494.858704 102.591873 367.840668 476.858704 102.591873 367.840668 494.858704 103.304550 367.710052 476.858704 103.304550 367.710052 494.858704 103.996284 367.494507 476.858704 103.996284 367.494507 494.858704 104.656990 367.197144 476.858704 104.656990 367.197144 494.858704 105.277039 366.822327 476.858704 105.277039 366.822327 494.858704 105.847389 366.375488 476.858704 105.847389 366.375488 494.858704 106.359718 365.863159 476.858704 106.359718 365.863159 494.858704 106.806557 365.292786 476.858704 106.806557 365.292786 494.858704 107.181389 364.672760 476.858704 107.181389 364.672760 494.858704 107.478752 364.012054 476.858704 107.478752 364.012054 494.858704 107.694305 363.320312 476.858704 107.694305 363.320312 494.858704 107.824905 362.607635 476.858704 107.824905 362.607635 494.858704 107.868652 361.884399 476.858704 107.868652 361.884399 494.858704 107.824905 361.161194 476.858704 107.824905 361.161194 494.858704 107.694305 360.448517 476.858704 107.694305 360.448517 494.858704 107.478752 359.756775 476.858704 107.478752 359.756775 494.858704 107.181389 359.096069 476.858704 107.181389 359.096069 494.858704 106.806557 358.476013 476.858704 106.806557 358.476013 494.858704 106.359718 357.905670 476.858704 106.359718 357.905670 494.858704 105.847389 357.393341 476.858704 105.847389 357.393341 494.858704 105.277039 356.946503 476.858704 105.277039 356.946503 494.858704 104.656990 356.571686 476.858704 104.656990 356.571686 494.858704 103.996284 356.274323 476.858704 103.996284 356.274323 494.858704 103.304550 356.058746 476.858704 103.304550 356.058746 494.858704 102.591873 355.928162 476.858704 102.591873 355.928162 494.858704 101.868652 355.884399 476.858704 101.868652 355.884399 494.858704 101.145432 355.928162 476.858704 101.145432 355.928162 494.858704 100.432762 356.058746 476.858704 100.432762 356.058746 494.858704 99.741020 356.274323 476.858704 99.741020 356.274323 494.858704 99.080315 356.571686 476.858704 99.080315 356.571686 494.858704 98.460266 356.946503 476.858704 98.460266 356.946503 494.858704 97.889915 357.393341 476.858704 97.889915 357.393341 494.858704 97.377586 357.905670 476.858704 97.377586 357.905670 494.858704 96.930748 358.476013 476.858704 96.930748 358.476013 494.858704 96.555916 359.096069 476.858704 96.555916 359.096069 494.858704 96.258553 359.756775 476.858704 96.258553 359.756775 494.858704 96.042999 360.448517 476.858704 96.042999 360.448517 494.858704 95.912399 361.161194 476.858704 95.912399 361.161194 494.858704 95.868652 361.884399 476.858704 95.868652 361.884399 494.858704 95.912399 362.607635 476.858704 95.912399 362.607635 494.858704 96.042999 363.320312 476.858704 96.042999 363.320312 494.858704 96.258553 364.012054 476.858704 96.258553 364.012054 494.858704 96.555916 364.672760 476.858704 96.555916 364.672760 494.858704 96.930748 365.292786 476.858704 96.930748 365.292786 494.858704 97.377586 365.863159 476.858704 97.377586 365.863159 494.858704 97.889915 366.375488 476.858704 97.889915 366.375488 494.858704 98.460266 366.822327 476.858704 98.460266 366.822327 494.858704 99.080315 367.197144 476.858704 99.080315 367.197144 494.858704 99.741020 367.494507 476.858704 99.741020 367.494507 494.858704 100.432762 367.710052 476.858704 100.432762 367.710052 494.858704 101.145432 367.840668 476.858704 101.145432 367.840668 494.858704 101.868652 367.884399 494.858704 101.868652 361.884399 476.858704 101.868652 361.884399 "
							            />
						</IndexedFaceSet>
					</Shape>
				</Group>
			</Transform>
		</Transform>
	</Scene>
</X3D>