<?xml version="1.0" encoding="UTF-8"?>
<!DOCTYPE X3D PUBLIC "ISO//Web3D//DTD X3D 3.0//EN" "http://www.web3d.org/specifications/x3d-3.0.dtd">
<X3D version="3.0" profile="Immersive" xmlns:xsd="http://www.w3.org/2001/XMLSchema-instance" xsd:noNamespaceSchemaLocation="http://www.web3d.org/specifications/x3d-3.0.xsd">
	<head>
		<meta name="filename" content="OMLV4_Packing - For Xander - InletTank-1.x3d" />
		<meta name="created" content="2026-04-19 20:21:18" />
		<meta name="generator" content="Blender 4.3.2" />
		<meta name="translator" content="Web3D X3D/VRML2 format v2.5.1" />
	</head>
	<Scene>
		<NavigationInfo headlight="true"
		                visibilityLimit="0.0"
		                type='"EXAMINE", "ANY"'
		                avatarSize="0.25, 1.75, 0.75"
		                />
		<Background DEF="WO_World"
		            groundColor="0.051 0.051 0.051"
		            skyColor="0.051 0.051 0.051"
		            />
		<Transform DEF="OMLV4_Packing_-_For_Xander_-_InletTank-1_TRANSFORM"
		           translation="0.000000 0.000000 0.000000"
		           scale="1.000000 1.000000 1.000000"
		           rotation="-1.000000 0.000000 0.000000 1.570796"
		           >
			<Transform DEF="OMLV4_Packing_-_For_Xander_-_InletTank-1_ifs_TRANSFORM"
			           translation="0.000000 0.000000 0.000000"
			           scale="1.000000 1.000000 1.000000"
			           rotation="0.000000 1.000000 0.000000 0.000000"
			           >
				<Group DEF="group_ME_OMLV4_Packing_-_For_Xander_-_InletTank-1">
					<Shape>
						<Appearance>
						</Appearance>
						<IndexedFaceSet solid="false"
						                coordIndex="0 1 2 -1 3 4 5 -1 5 4 6 -1 6 7 5 -1 5 7 8 -1 5 8 9 -1 9 8 10 -1 11 12 5 -1 5 12 0 -1 5 0 3 -1 3 0 2 -1 13 14 15 -1 15 14 16 -1 14 17 16 -1 16 17 18 -1 16 18 12 -1 12 18 19 -1 12 19 20 -1 20 21 12 -1 12 21 22 -1 12 22 0 -1 0 22 23 -1 0 23 1 -1 24 25 26 -1 27 28 29 -1 28 27 30 -1 30 27 31 -1 30 31 32 -1 32 31 33 -1 32 33 34 -1 34 33 35 -1 34 35 36 -1 26 25 37 -1 37 25 38 -1 37 38 39 -1 40 41 24 -1 24 41 42 -1 24 42 25 -1 25 42 43 -1 25 43 38 -1 44 45 46 -1 46 45 47 -1 46 47 48 -1 48 47 49 -1 50 51 52 -1 52 51 53 -1 44 54 45 -1 45 54 55 -1 45 55 53 -1 53 55 56 -1 53 56 52 -1 12 11 57 -1 57 11 58 -1 59 60 61 -1 61 60 57 -1 61 57 62 -1 62 57 58 -1 59 63 60 -1 60 63 36 -1 60 36 64 -1 64 36 35 -1 65 29 66 -1 66 29 28 -1 66 28 67 -1 67 28 30 -1 67 30 68 -1 68 30 32 -1 63 69 36 -1 36 69 70 -1 36 70 34 -1 34 70 71 -1 34 71 32 -1 32 71 72 -1 32 72 68 -1 68 72 73 -1 68 73 67 -1 67 73 74 -1 67 74 66 -1 66 74 75 -1 66 75 65 -1 51 76 77 -1 78 79 80 -1 80 79 81 -1 80 81 82 -1 77 78 51 -1 51 78 80 -1 51 80 53 -1 53 80 83 -1 53 83 45 -1 45 83 39 -1 45 39 47 -1 47 39 38 -1 47 38 49 -1 49 38 43 -1 26 84 24 -1 24 84 85 -1 24 85 40 -1 40 85 86 -1 40 86 29 -1 29 86 87 -1 29 87 27 -1 27 87 88 -1 27 88 31 -1 31 88 89 -1 31 89 33 -1 33 89 90 -1 33 90 35 -1 35 90 91 -1 35 91 64 -1 64 91 92 -1 64 92 60 -1 60 92 93 -1 60 93 57 -1 57 93 16 -1 57 16 12 -1 94 50 95 -1 95 50 96 -1 95 96 97 -1 94 98 50 -1 50 98 99 -1 50 99 51 -1 51 99 100 -1 51 100 101 -1 101 102 51 -1 51 102 103 -1 51 103 104 -1 104 105 51 -1 51 105 106 -1 51 106 76 -1 65 107 29 -1 29 107 108 -1 29 108 40 -1 40 108 109 -1 40 109 41 -1 110 79 78 -1 81 79 111 -1 111 79 110 -1 111 110 112 -1 113 114 115 -1 115 114 116 -1 114 117 116 -1 116 117 118 -1 116 118 119 -1 112 120 111 -1 111 120 82 -1 111 82 81 -1 121 122 123 -1 123 122 124 -1 123 124 125 -1 125 124 126 -1 125 126 127 -1 127 126 128 -1 127 128 129 -1 129 128 130 -1 129 130 131 -1 131 130 132 -1 131 132 133 -1 133 132 134 -1 133 134 135 -1 135 134 136 -1 135 136 137 -1 137 136 138 -1 137 138 139 -1 139 138 140 -1 139 140 141 -1 141 140 142 -1 141 142 143 -1 143 142 144 -1 143 144 145 -1 145 144 146 -1 145 146 147 -1 147 146 148 -1 147 148 113 -1 113 148 149 -1 113 149 114 -1 114 149 150 -1 114 150 117 -1 97 121 95 -1 95 121 123 -1 95 123 94 -1 94 123 125 -1 94 125 98 -1 98 125 127 -1 98 127 99 -1 99 127 129 -1 99 129 100 -1 100 129 131 -1 100 131 101 -1 101 131 133 -1 101 133 102 -1 102 133 135 -1 102 135 103 -1 103 135 137 -1 103 137 104 -1 104 137 139 -1 104 139 105 -1 105 139 141 -1 105 141 106 -1 106 141 143 -1 106 143 76 -1 76 143 145 -1 76 145 77 -1 77 145 147 -1 77 147 78 -1 78 147 113 -1 78 113 110 -1 110 113 115 -1 110 115 112 -1 112 115 116 -1 112 116 120 -1 120 116 119 -1 120 119 151 -1 152 153 154 -1 155 156 157 -1 157 156 158 -1 157 158 159 -1 159 158 160 -1 159 160 161 -1 161 160 162 -1 161 162 163 -1 163 162 164 -1 163 164 165 -1 165 164 166 -1 165 166 167 -1 167 166 168 -1 167 168 169 -1 169 168 170 -1 169 170 171 -1 171 170 172 -1 171 172 173 -1 173 172 174 -1 173 174 175 -1 175 174 176 -1 175 176 177 -1 178 153 179 -1 179 153 152 -1 179 152 180 -1 181 182 183 -1 183 182 184 -1 183 184 185 -1 156 186 158 -1 158 186 187 -1 158 187 160 -1 160 187 188 -1 160 188 162 -1 162 188 189 -1 162 189 164 -1 164 189 190 -1 164 190 166 -1 166 190 191 -1 166 191 168 -1 168 191 192 -1 168 192 170 -1 170 192 193 -1 170 193 172 -1 172 193 194 -1 172 194 174 -1 174 194 195 -1 174 195 176 -1 176 195 196 -1 197 154 198 -1 198 154 153 -1 198 153 199 -1 199 153 178 -1 199 178 177 -1 200 181 201 -1 201 181 183 -1 201 183 202 -1 202 183 185 -1 202 185 203 -1 186 204 187 -1 187 204 205 -1 187 205 188 -1 188 205 206 -1 188 206 189 -1 189 206 207 -1 189 207 190 -1 190 207 208 -1 190 208 191 -1 191 208 209 -1 191 209 192 -1 192 209 210 -1 192 210 193 -1 193 210 211 -1 193 211 194 -1 194 211 212 -1 194 212 195 -1 195 212 213 -1 195 213 196 -1 196 213 214 -1 215 200 216 -1 216 200 201 -1 216 201 217 -1 217 201 202 -1 217 202 218 -1 218 202 203 -1 218 203 219 -1 204 151 205 -1 205 151 119 -1 205 119 206 -1 206 119 118 -1 206 118 207 -1 207 118 117 -1 207 117 208 -1 208 117 150 -1 208 150 209 -1 209 150 149 -1 209 149 210 -1 210 149 148 -1 210 148 211 -1 211 148 146 -1 211 146 212 -1 212 146 144 -1 212 144 213 -1 213 144 142 -1 213 142 214 -1 214 142 140 -1 214 140 138 -1 177 176 199 -1 199 176 196 -1 199 196 198 -1 198 196 214 -1 198 214 197 -1 197 214 138 -1 197 138 136 -1 136 134 197 -1 197 134 219 -1 197 219 154 -1 154 219 203 -1 154 203 152 -1 152 203 185 -1 152 185 180 -1 180 185 184 -1 122 215 124 -1 124 215 216 -1 124 216 126 -1 126 216 217 -1 126 217 128 -1 128 217 218 -1 128 218 130 -1 130 218 219 -1 130 219 132 -1 132 219 134 -1 184 182 220 -1 221 222 223 -1 224 225 226 -1 227 167 169 -1 155 157 228 -1 228 157 159 -1 228 159 161 -1 167 227 165 -1 165 227 229 -1 165 229 163 -1 230 231 232 -1 232 231 233 -1 232 233 234 -1 233 235 234 -1 234 235 236 -1 234 236 237 -1 237 236 238 -1 237 238 239 -1 239 238 240 -1 239 240 229 -1 229 240 228 -1 229 228 163 -1 163 228 161 -1 224 241 242 -1 242 241 243 -1 242 243 244 -1 244 243 245 -1 244 245 246 -1 246 245 247 -1 248 249 250 -1 250 249 251 -1 250 251 252 -1 252 251 253 -1 252 253 254 -1 254 253 255 -1 254 255 256 -1 257 258 259 -1 259 258 260 -1 259 260 261 -1 241 257 243 -1 243 257 259 -1 243 259 245 -1 245 259 261 -1 245 261 247 -1 247 261 262 -1 263 264 265 -1 265 266 263 -1 263 266 267 -1 263 267 268 -1 221 223 269 -1 269 223 270 -1 269 270 271 -1 272 273 274 -1 274 273 275 -1 274 275 276 -1 276 275 277 -1 276 277 278 -1 278 277 279 -1 278 279 280 -1 280 279 268 -1 280 268 281 -1 281 268 267 -1 272 271 273 -1 273 271 270 -1 273 270 282 -1 282 270 223 -1 282 223 283 -1 230 264 284 -1 284 264 263 -1 284 263 285 -1 285 263 268 -1 285 268 286 -1 286 268 279 -1 286 279 287 -1 287 279 277 -1 169 171 227 -1 227 171 173 -1 227 173 175 -1 184 220 180 -1 175 177 227 -1 227 177 178 -1 227 178 179 -1 179 180 227 -1 227 180 220 -1 227 220 229 -1 229 220 288 -1 229 288 239 -1 239 288 289 -1 239 289 237 -1 237 289 290 -1 237 290 234 -1 234 290 291 -1 234 291 232 -1 224 226 241 -1 241 226 292 -1 241 292 257 -1 257 292 293 -1 257 293 258 -1 287 248 286 -1 286 248 250 -1 286 250 285 -1 285 250 252 -1 285 252 284 -1 284 252 254 -1 284 254 230 -1 230 254 256 -1 230 256 231 -1 283 225 282 -1 282 225 224 -1 282 224 273 -1 273 224 242 -1 273 242 275 -1 275 242 244 -1 275 244 277 -1 277 244 246 -1 277 246 287 -1 287 246 247 -1 287 247 248 -1 248 247 262 -1 248 262 249 -1 291 294 232 -1 232 294 295 -1 232 295 230 -1 230 295 296 -1 230 296 264 -1 264 296 297 -1 264 297 265 -1 298 299 300 -1 301 302 303 -1 304 305 306 -1 307 293 292 -1 299 298 308 -1 308 298 309 -1 308 309 310 -1 311 312 313 -1 304 306 314 -1 226 225 315 -1 315 225 283 -1 315 283 316 -1 316 283 223 -1 316 223 222 -1 317 318 319 -1 319 318 320 -1 319 320 303 -1 303 320 321 -1 303 321 301 -1 307 322 300 -1 300 322 323 -1 300 323 298 -1 298 323 324 -1 298 324 309 -1 309 324 325 -1 309 325 326 -1 312 317 313 -1 313 317 319 -1 313 319 326 -1 326 319 303 -1 326 303 309 -1 309 303 302 -1 309 302 310 -1 306 311 314 -1 314 311 313 -1 314 313 327 -1 327 313 326 -1 327 326 328 -1 328 326 325 -1 328 325 329 -1 329 325 324 -1 329 324 330 -1 330 324 323 -1 330 323 316 -1 316 323 322 -1 316 322 315 -1 315 322 307 -1 315 307 226 -1 226 307 292 -1 331 332 333 -1 320 318 334 -1 335 336 337 -1 337 336 338 -1 337 338 339 -1 339 338 302 -1 339 302 301 -1 340 341 342 -1 342 341 343 -1 342 343 344 -1 344 343 345 -1 344 345 346 -1 346 345 347 -1 346 347 348 -1 348 347 321 -1 348 321 320 -1 320 334 348 -1 348 334 349 -1 348 349 346 -1 346 349 350 -1 346 350 344 -1 344 350 351 -1 344 351 342 -1 342 351 352 -1 342 352 340 -1 353 354 355 -1 355 354 340 -1 355 340 356 -1 356 340 352 -1 357 358 359 -1 359 358 360 -1 305 332 306 -1 306 332 331 -1 306 331 311 -1 361 362 333 -1 333 362 363 -1 333 363 331 -1 361 364 362 -1 362 364 365 -1 362 365 366 -1 366 365 367 -1 366 367 368 -1 368 367 369 -1 368 369 370 -1 370 369 371 -1 370 371 359 -1 359 371 372 -1 359 372 357 -1 312 311 373 -1 373 311 374 -1 373 374 375 -1 311 331 374 -1 374 331 363 -1 374 363 375 -1 375 363 362 -1 375 362 376 -1 376 362 366 -1 376 366 377 -1 377 366 368 -1 377 368 378 -1 378 368 370 -1 378 370 379 -1 379 370 359 -1 379 359 380 -1 380 359 360 -1 380 360 381 -1 382 383 335 -1 335 383 384 -1 335 384 336 -1 354 385 340 -1 340 385 382 -1 340 382 341 -1 341 382 335 -1 341 335 343 -1 343 335 337 -1 343 337 345 -1 345 337 339 -1 345 339 347 -1 347 339 301 -1 347 301 321 -1 386 387 388 -1 388 387 389 -1 388 389 381 -1 381 389 390 -1 381 390 380 -1 380 390 391 -1 380 391 379 -1 379 391 392 -1 379 392 378 -1 378 392 393 -1 378 393 377 -1 377 393 394 -1 377 394 376 -1 376 394 395 -1 376 395 375 -1 375 395 396 -1 375 396 373 -1 373 396 317 -1 373 317 312 -1 387 353 389 -1 389 353 355 -1 389 355 390 -1 390 355 356 -1 390 356 391 -1 391 356 352 -1 391 352 392 -1 392 352 351 -1 392 351 393 -1 393 351 350 -1 393 350 394 -1 394 350 349 -1 394 349 395 -1 395 349 334 -1 395 334 396 -1 396 334 318 -1 396 318 317 -1 358 397 360 -1 360 397 398 -1 360 398 381 -1 381 398 399 -1 381 399 388 -1 388 399 400 -1 388 400 386 -1 386 400 401 -1 402 403 404 -1 405 406 407 -1 408 409 410 -1 411 412 413 -1 414 21 20 -1 415 416 417 -1 418 419 420 -1 420 419 421 -1 422 423 424 -1 424 423 425 -1 424 425 426 -1 426 425 401 -1 426 401 400 -1 427 428 429 -1 429 428 430 -1 431 432 433 -1 421 434 435 -1 435 434 436 -1 435 436 437 -1 437 436 438 -1 437 438 439 -1 440 441 442 -1 443 433 444 -1 444 433 432 -1 444 432 445 -1 445 432 414 -1 445 414 446 -1 446 414 20 -1 446 20 19 -1 21 414 22 -1 22 414 432 -1 22 432 23 -1 23 432 431 -1 23 431 1 -1 447 448 449 -1 450 451 452 -1 452 451 453 -1 452 453 454 -1 454 453 455 -1 454 455 447 -1 456 457 458 -1 458 457 459 -1 458 459 460 -1 460 459 461 -1 460 461 462 -1 462 461 463 -1 457 464 459 -1 459 464 465 -1 459 465 461 -1 461 465 411 -1 461 411 463 -1 463 411 413 -1 466 467 468 -1 468 467 469 -1 468 469 470 -1 470 469 471 -1 470 471 472 -1 472 471 473 -1 474 475 476 -1 476 475 477 -1 476 477 478 -1 479 480 473 -1 473 480 481 -1 473 481 472 -1 464 482 465 -1 465 482 483 -1 465 483 411 -1 411 483 484 -1 411 484 412 -1 412 484 485 -1 412 485 486 -1 486 485 14 -1 486 14 13 -1 487 488 489 -1 489 488 490 -1 489 490 491 -1 491 490 492 -1 491 492 448 -1 448 492 449 -1 449 492 493 -1 449 493 479 -1 479 493 494 -1 479 494 480 -1 456 443 457 -1 457 443 444 -1 457 444 464 -1 464 444 445 -1 464 445 482 -1 482 445 446 -1 482 446 483 -1 483 446 19 -1 483 19 484 -1 484 19 18 -1 484 18 485 -1 485 18 17 -1 485 17 14 -1 495 496 497 -1 498 467 499 -1 499 467 466 -1 499 466 500 -1 496 500 497 -1 497 500 466 -1 497 466 501 -1 501 466 468 -1 501 468 478 -1 478 468 470 -1 478 470 476 -1 476 470 472 -1 476 472 474 -1 474 472 481 -1 502 503 504 -1 502 504 505 -1 506 507 508 -1 508 507 509 -1 508 509 510 -1 427 511 512 -1 513 514 515 -1 515 514 516 -1 515 516 517 -1 518 519 520 -1 520 519 514 -1 520 514 521 -1 521 514 513 -1 518 522 519 -1 519 522 523 -1 519 523 524 -1 525 516 526 -1 526 516 514 -1 526 514 527 -1 527 514 519 -1 527 519 528 -1 528 519 524 -1 528 524 529 -1 529 530 528 -1 528 530 531 -1 528 531 532 -1 532 531 533 -1 532 533 534 -1 534 533 535 -1 534 535 536 -1 536 537 538 -1 538 537 539 -1 538 539 540 -1 540 539 541 -1 540 541 542 -1 541 543 542 -1 542 543 544 -1 542 544 545 -1 544 546 545 -1 545 546 547 -1 545 547 548 -1 547 549 548 -1 548 549 550 -1 548 550 551 -1 550 552 551 -1 551 552 553 -1 551 553 405 -1 551 554 548 -1 548 554 555 -1 548 555 545 -1 545 555 556 -1 545 556 542 -1 542 556 557 -1 542 557 540 -1 540 557 410 -1 540 410 538 -1 538 410 409 -1 554 558 555 -1 555 558 559 -1 555 559 556 -1 556 559 560 -1 556 560 557 -1 557 560 561 -1 557 561 410 -1 410 561 562 -1 410 562 408 -1 408 562 563 -1 408 563 564 -1 525 565 516 -1 516 565 504 -1 516 504 517 -1 517 504 503 -1 512 506 427 -1 427 506 508 -1 427 508 428 -1 428 508 415 -1 428 415 430 -1 430 415 417 -1 430 417 450 -1 450 417 566 -1 450 566 451 -1 451 566 442 -1 451 442 453 -1 453 442 441 -1 453 441 455 -1 558 567 559 -1 559 567 568 -1 559 568 560 -1 560 568 569 -1 560 569 561 -1 561 569 570 -1 561 570 562 -1 562 570 571 -1 562 571 563 -1 563 571 572 -1 563 572 564 -1 564 572 573 -1 564 573 574 -1 574 573 419 -1 574 419 575 -1 575 419 418 -1 575 418 576 -1 405 407 551 -1 551 407 577 -1 551 577 554 -1 554 577 578 -1 554 578 558 -1 558 578 579 -1 558 579 567 -1 567 579 580 -1 567 580 568 -1 568 580 581 -1 568 581 569 -1 569 581 582 -1 569 582 570 -1 570 582 583 -1 570 583 571 -1 571 583 584 -1 571 584 572 -1 572 584 585 -1 572 585 573 -1 3 2 586 -1 586 2 587 -1 586 587 588 -1 588 587 589 -1 588 589 590 -1 590 589 591 -1 590 591 592 -1 4 3 593 -1 593 3 586 -1 593 586 594 -1 594 586 588 -1 594 588 595 -1 595 588 590 -1 595 590 596 -1 596 590 592 -1 596 592 597 -1 597 592 598 -1 597 598 599 -1 599 598 600 -1 434 600 436 -1 436 600 598 -1 436 598 438 -1 438 598 592 -1 438 592 439 -1 439 592 591 -1 536 538 534 -1 534 538 409 -1 534 409 532 -1 532 409 408 -1 532 408 528 -1 528 408 564 -1 528 564 527 -1 527 564 574 -1 527 574 526 -1 526 574 575 -1 526 575 525 -1 525 575 576 -1 525 576 565 -1 421 419 434 -1 434 419 573 -1 434 573 600 -1 600 573 585 -1 600 585 599 -1 599 585 584 -1 599 584 597 -1 597 584 583 -1 597 583 596 -1 596 583 582 -1 596 582 595 -1 595 582 581 -1 595 581 594 -1 594 581 580 -1 594 580 593 -1 593 580 579 -1 593 579 4 -1 4 579 578 -1 4 578 6 -1 6 578 577 -1 6 577 7 -1 7 577 407 -1 7 407 8 -1 8 407 406 -1 8 406 10 -1 601 602 427 -1 427 602 603 -1 427 603 511 -1 447 449 454 -1 454 449 479 -1 454 479 452 -1 452 479 473 -1 452 473 450 -1 450 473 471 -1 450 471 430 -1 430 471 469 -1 430 469 429 -1 429 469 467 -1 429 467 427 -1 427 467 498 -1 427 498 601 -1 403 604 404 -1 404 604 605 -1 404 605 606 -1 397 402 398 -1 398 402 404 -1 398 404 399 -1 13 487 486 -1 486 487 489 -1 486 489 412 -1 412 489 491 -1 412 491 413 -1 413 491 448 -1 413 448 463 -1 463 448 447 -1 463 447 462 -1 462 447 455 -1 462 455 460 -1 460 455 441 -1 460 441 458 -1 458 441 440 -1 458 440 456 -1 607 608 609 -1 609 608 422 -1 609 422 610 -1 610 422 424 -1 610 424 611 -1 611 424 426 -1 611 426 612 -1 612 426 400 -1 612 400 399 -1 2 1 587 -1 587 1 431 -1 587 431 589 -1 589 431 433 -1 589 433 591 -1 591 433 443 -1 591 443 439 -1 439 443 456 -1 439 456 437 -1 437 456 440 -1 437 440 435 -1 435 440 442 -1 435 442 421 -1 421 442 566 -1 421 566 420 -1 420 566 417 -1 420 417 418 -1 418 417 416 -1 418 416 576 -1 576 416 415 -1 576 415 565 -1 565 415 508 -1 565 508 504 -1 504 508 510 -1 504 510 505 -1 399 404 612 -1 612 404 606 -1 612 606 611 -1 611 606 613 -1 611 613 610 -1 610 613 614 -1 610 614 609 -1 605 615 606 -1 606 615 616 -1 606 616 613 -1 613 616 617 -1 613 617 618 -1 478 607 501 -1 501 607 609 -1 501 609 497 -1 497 609 614 -1 497 614 495 -1 495 614 613 -1 495 613 619 -1 619 613 618 -1 487 13 310 -1 338 336 607 -1 15 16 93 -1 607 336 608 -1 386 401 387 -1 387 401 425 -1 387 425 353 -1 353 425 423 -1 353 423 354 -1 120 151 204 -1 87 253 88 -1 88 253 251 -1 88 251 89 -1 475 302 477 -1 477 302 338 -1 477 338 478 -1 478 338 607 -1 83 156 39 -1 39 156 155 -1 39 155 37 -1 310 13 308 -1 308 13 15 -1 308 15 299 -1 475 474 302 -1 302 474 481 -1 302 481 310 -1 310 481 480 -1 82 120 80 -1 80 120 204 -1 80 204 83 -1 83 204 186 -1 83 186 156 -1 251 249 89 -1 89 249 262 -1 89 262 90 -1 336 384 608 -1 608 384 383 -1 608 383 422 -1 422 383 382 -1 422 382 423 -1 423 382 385 -1 423 385 354 -1 155 228 37 -1 37 228 240 -1 37 240 26 -1 262 261 90 -1 90 261 260 -1 90 260 91 -1 91 260 258 -1 91 258 92 -1 92 258 293 -1 92 293 93 -1 93 293 307 -1 93 307 15 -1 15 307 300 -1 15 300 299 -1 480 494 310 -1 310 494 493 -1 310 493 492 -1 240 238 26 -1 26 238 236 -1 26 236 84 -1 84 236 235 -1 84 235 85 -1 492 490 310 -1 310 490 488 -1 310 488 487 -1 235 233 85 -1 85 233 231 -1 85 231 86 -1 86 231 256 -1 86 256 87 -1 87 256 255 -1 87 255 253 -1 182 620 621 -1 182 621 220 -1 220 621 622 -1 220 622 288 -1 288 622 623 -1 288 623 289 -1 624 294 625 -1 625 294 291 -1 625 291 623 -1 623 291 290 -1 623 290 289 -1 626 297 627 -1 627 297 296 -1 627 296 624 -1 624 296 295 -1 624 295 294 -1 628 266 626 -1 626 266 265 -1 626 265 297 -1 629 281 628 -1 628 281 267 -1 628 267 266 -1 630 278 629 -1 629 278 280 -1 629 280 281 -1 271 272 631 -1 631 272 274 -1 631 274 630 -1 630 274 276 -1 630 276 278 -1 271 631 269 -1 269 631 632 -1 269 632 221 -1 221 632 222 -1 222 632 633 -1 222 633 316 -1 316 633 634 -1 316 634 330 -1 330 634 635 -1 330 635 329 -1 329 635 328 -1 328 635 636 -1 328 636 327 -1 327 636 314 -1 314 636 637 -1 314 637 304 -1 364 361 638 -1 638 361 333 -1 638 333 639 -1 639 333 332 -1 639 332 637 -1 637 332 305 -1 637 305 304 -1 364 638 365 -1 365 638 640 -1 365 640 367 -1 367 640 641 -1 367 641 369 -1 369 641 371 -1 371 641 642 -1 371 642 372 -1 643 358 642 -1 642 358 357 -1 642 357 372 -1 620 182 181 -1 620 181 644 -1 181 200 644 -1 644 200 215 -1 644 215 645 -1 645 215 122 -1 121 97 646 -1 646 97 647 -1 646 647 648 -1 648 647 649 -1 122 121 645 -1 645 121 646 -1 645 646 644 -1 644 646 648 -1 59 61 650 -1 651 652 653 -1 654 73 72 -1 654 72 655 -1 656 649 647 -1 657 652 658 -1 658 652 651 -1 658 651 11 -1 659 660 661 -1 661 660 650 -1 661 650 662 -1 662 650 61 -1 662 61 653 -1 653 61 62 -1 653 62 651 -1 651 62 58 -1 651 58 11 -1 72 71 655 -1 655 71 70 -1 655 70 660 -1 660 70 69 -1 660 69 650 -1 650 69 63 -1 650 63 59 -1 663 654 664 -1 664 654 655 -1 664 655 665 -1 665 655 660 -1 665 660 666 -1 666 660 659 -1 107 65 663 -1 663 65 75 -1 663 75 654 -1 654 75 74 -1 654 74 73 -1 107 663 108 -1 108 663 667 -1 108 667 109 -1 109 667 668 -1 109 668 41 -1 41 668 669 -1 41 669 42 -1 42 669 670 -1 42 670 43 -1 43 670 671 -1 43 671 49 -1 49 671 672 -1 49 672 48 -1 48 672 673 -1 48 673 46 -1 46 673 674 -1 46 674 44 -1 44 674 675 -1 44 675 54 -1 54 675 55 -1 55 675 676 -1 55 676 56 -1 56 676 677 -1 56 677 52 -1 52 677 50 -1 50 677 656 -1 50 656 96 -1 96 656 647 -1 96 647 97 -1 678 679 680 -1 681 657 682 -1 682 657 658 -1 682 658 683 -1 10 679 9 -1 9 679 678 -1 9 678 5 -1 684 681 680 -1 680 681 682 -1 680 682 678 -1 678 682 683 -1 678 683 5 -1 5 683 658 -1 5 658 11 -1 397 685 686 -1 687 688 689 -1 523 522 690 -1 691 692 690 -1 518 520 693 -1 693 520 521 -1 693 521 694 -1 694 521 513 -1 694 513 695 -1 695 513 515 -1 695 515 696 -1 691 690 697 -1 529 698 530 -1 530 698 699 -1 530 699 531 -1 531 699 700 -1 701 536 702 -1 702 536 535 -1 702 535 700 -1 700 535 533 -1 700 533 531 -1 703 539 701 -1 701 539 537 -1 701 537 536 -1 704 544 705 -1 705 544 543 -1 705 543 703 -1 703 543 541 -1 703 541 539 -1 706 549 707 -1 707 549 547 -1 707 547 546 -1 684 680 708 -1 708 680 679 -1 708 679 10 -1 406 405 709 -1 709 405 553 -1 709 553 710 -1 710 553 552 -1 710 552 706 -1 706 552 550 -1 706 550 549 -1 711 604 712 -1 712 604 403 -1 712 403 686 -1 686 403 402 -1 686 402 397 -1 713 617 714 -1 714 617 616 -1 714 616 715 -1 715 616 615 -1 715 615 711 -1 711 615 605 -1 711 605 604 -1 716 500 717 -1 717 500 496 -1 717 496 718 -1 718 496 495 -1 718 495 719 -1 719 495 619 -1 719 619 713 -1 713 619 618 -1 713 618 617 -1 720 498 716 -1 716 498 499 -1 716 499 500 -1 721 511 722 -1 722 511 603 -1 722 603 723 -1 723 603 602 -1 723 602 720 -1 720 602 601 -1 720 601 498 -1 724 507 725 -1 725 507 506 -1 725 506 721 -1 721 506 512 -1 721 512 511 -1 502 505 726 -1 726 505 510 -1 726 510 724 -1 724 510 509 -1 724 509 507 -1 515 517 696 -1 696 517 503 -1 696 503 727 -1 727 503 502 -1 727 502 728 -1 728 502 726 -1 522 518 690 -1 690 518 693 -1 690 693 697 -1 697 693 694 -1 697 694 729 -1 729 694 695 -1 729 695 730 -1 730 695 696 -1 730 696 731 -1 731 696 727 -1 731 727 732 -1 732 727 728 -1 692 688 690 -1 690 688 687 -1 690 687 523 -1 523 687 524 -1 733 699 689 -1 689 699 698 -1 689 698 687 -1 687 698 529 -1 687 529 524 -1 734 704 735 -1 735 704 705 -1 735 705 736 -1 736 705 703 -1 736 703 737 -1 737 703 701 -1 737 701 738 -1 738 701 702 -1 738 702 739 -1 739 702 700 -1 739 700 740 -1 740 700 699 -1 740 699 741 -1 741 699 733 -1 742 706 734 -1 734 706 707 -1 734 707 704 -1 704 707 546 -1 704 546 544 -1 10 406 708 -1 708 406 709 -1 708 709 743 -1 743 709 710 -1 743 710 744 -1 744 710 706 -1 744 706 745 -1 745 706 742 -1 397 358 685 -1 685 358 643 -1 621 620 644 -1 640 638 684 -1 684 638 639 -1 685 643 686 -1 686 643 642 -1 686 642 712 -1 712 642 711 -1 711 642 641 -1 711 641 715 -1 633 662 653 -1 632 659 633 -1 633 659 661 -1 633 661 662 -1 681 634 657 -1 657 634 633 -1 657 633 652 -1 652 633 653 -1 674 624 625 -1 640 684 641 -1 641 684 708 -1 641 708 743 -1 641 742 734 -1 740 741 641 -1 641 741 733 -1 641 733 689 -1 641 691 697 -1 743 744 641 -1 641 744 745 -1 641 745 742 -1 718 719 641 -1 639 637 684 -1 684 637 636 -1 684 636 681 -1 681 636 635 -1 681 635 634 -1 622 677 623 -1 623 677 676 -1 623 676 625 -1 625 676 675 -1 625 675 674 -1 734 735 641 -1 641 735 736 -1 641 736 737 -1 689 688 641 -1 641 688 692 -1 641 692 691 -1 697 729 641 -1 641 729 730 -1 641 730 731 -1 719 713 641 -1 641 713 714 -1 641 714 715 -1 628 667 629 -1 629 667 663 -1 629 663 630 -1 630 663 664 -1 630 664 631 -1 631 664 665 -1 631 665 632 -1 632 665 666 -1 632 666 659 -1 626 669 628 -1 628 669 668 -1 628 668 667 -1 674 673 624 -1 624 673 672 -1 624 672 627 -1 627 672 671 -1 627 671 626 -1 626 671 670 -1 626 670 669 -1 644 648 621 -1 621 648 649 -1 621 649 622 -1 622 649 656 -1 622 656 677 -1 737 738 641 -1 641 738 739 -1 641 739 740 -1 731 732 641 -1 641 732 728 -1 641 728 726 -1 726 724 641 -1 641 724 725 -1 641 725 721 -1 721 722 641 -1 641 722 723 -1 641 723 720 -1 720 716 641 -1 641 716 717 -1 641 717 718 -1 746 747 748 -1 746 748 749 -1 749 748 750 -1 749 750 751 -1 752 753 754 -1 754 753 755 -1 754 755 756 -1 757 758 754 -1 754 758 749 -1 754 749 752 -1 752 749 751 -1 759 757 760 -1 760 757 754 -1 760 754 761 -1 761 754 756 -1 759 762 757 -1 757 762 763 -1 757 763 764 -1 764 763 765 -1 765 766 764 -1 764 766 767 -1 764 767 768 -1 768 767 769 -1 770 771 772 -1 773 774 775 -1 776 777 778 -1 779 780 781 -1 781 780 782 -1 781 782 783 -1 783 782 775 -1 783 775 764 -1 777 776 784 -1 784 776 785 -1 784 785 786 -1 786 785 787 -1 786 787 779 -1 779 787 788 -1 779 788 780 -1 789 790 791 -1 791 790 792 -1 791 792 793 -1 794 795 796 -1 797 794 792 -1 792 794 796 -1 792 796 793 -1 793 796 798 -1 793 798 799 -1 799 798 800 -1 799 800 801 -1 801 800 802 -1 801 802 803 -1 803 802 804 -1 803 804 805 -1 795 806 796 -1 796 806 807 -1 796 807 798 -1 798 807 808 -1 798 808 800 -1 800 808 809 -1 800 809 802 -1 802 809 810 -1 802 810 804 -1 764 775 757 -1 757 775 774 -1 757 774 758 -1 773 775 811 -1 811 775 782 -1 811 782 812 -1 813 814 815 -1 772 816 817 -1 818 819 820 -1 772 817 770 -1 770 817 821 -1 770 821 822 -1 822 821 823 -1 822 823 818 -1 818 823 824 -1 818 824 819 -1 771 770 825 -1 825 770 822 -1 825 822 826 -1 826 822 818 -1 826 818 827 -1 827 818 820 -1 827 820 813 -1 813 820 828 -1 813 828 814 -1 789 829 830 -1 830 831 789 -1 789 831 832 -1 789 832 790 -1 790 832 833 -1 805 804 834 -1 834 804 835 -1 834 835 778 -1 778 835 772 -1 778 772 776 -1 776 772 771 -1 776 771 785 -1 785 771 825 -1 785 825 787 -1 787 825 826 -1 787 826 788 -1 788 826 827 -1 788 827 780 -1 780 827 813 -1 780 813 782 -1 782 813 815 -1 782 815 812 -1 833 836 790 -1 790 836 837 -1 790 837 838 -1 838 839 790 -1 790 839 840 -1 790 840 841 -1 841 842 790 -1 790 842 843 -1 790 843 844 -1 797 792 845 -1 845 792 790 -1 845 790 846 -1 846 790 844 -1 846 844 847 -1 847 848 846 -1 846 848 849 -1 846 849 850 -1 850 849 851 -1 810 852 804 -1 804 852 853 -1 804 853 835 -1 835 853 854 -1 835 854 772 -1 772 854 855 -1 772 855 816 -1 856 857 858 -1 858 857 859 -1 860 859 861 -1 861 859 857 -1 861 857 862 -1 862 857 856 -1 862 856 863 -1 863 856 864 -1 860 865 859 -1 859 865 866 -1 859 866 858 -1 858 866 867 -1 858 867 856 -1 856 867 829 -1 868 869 870 -1 870 869 871 -1 870 871 872 -1 872 871 873 -1 872 873 874 -1 874 873 875 -1 874 875 876 -1 876 875 877 -1 876 877 878 -1 878 877 879 -1 878 879 880 -1 880 879 881 -1 880 881 882 -1 882 881 883 -1 882 883 884 -1 884 883 885 -1 884 885 886 -1 886 885 887 -1 886 887 888 -1 888 887 889 -1 888 889 890 -1 890 889 891 -1 890 891 892 -1 892 891 893 -1 892 893 894 -1 894 893 895 -1 894 895 865 -1 865 895 896 -1 865 896 866 -1 866 896 897 -1 866 897 867 -1 867 897 830 -1 867 830 829 -1 869 851 871 -1 871 851 849 -1 871 849 873 -1 873 849 848 -1 873 848 875 -1 875 848 847 -1 875 847 877 -1 877 847 844 -1 877 844 879 -1 879 844 843 -1 879 843 881 -1 881 843 842 -1 881 842 883 -1 883 842 841 -1 883 841 885 -1 885 841 840 -1 885 840 887 -1 887 840 839 -1 887 839 889 -1 889 839 838 -1 889 838 891 -1 891 838 837 -1 891 837 893 -1 893 837 836 -1 893 836 895 -1 895 836 833 -1 895 833 896 -1 896 833 832 -1 896 832 897 -1 897 832 831 -1 897 831 830 -1 898 899 900 -1 863 901 862 -1 862 901 902 -1 862 902 861 -1 861 902 903 -1 861 903 860 -1 860 903 904 -1 860 904 865 -1 865 904 905 -1 865 905 894 -1 894 905 906 -1 894 906 892 -1 892 906 907 -1 892 907 890 -1 890 907 908 -1 890 908 888 -1 888 908 909 -1 888 909 886 -1 886 909 910 -1 911 882 910 -1 910 882 884 -1 910 884 886 -1 912 878 911 -1 911 878 880 -1 911 880 882 -1 913 868 914 -1 914 868 870 -1 914 870 915 -1 915 870 872 -1 915 872 916 -1 916 872 874 -1 916 874 912 -1 912 874 876 -1 912 876 878 -1 917 901 918 -1 918 901 863 -1 918 863 864 -1 913 914 919 -1 919 914 915 -1 919 915 920 -1 920 915 916 -1 920 916 921 -1 921 916 912 -1 921 912 922 -1 922 912 911 -1 922 911 923 -1 923 911 910 -1 923 910 924 -1 924 910 909 -1 924 909 925 -1 925 909 908 -1 925 908 926 -1 926 908 907 -1 926 907 927 -1 927 907 906 -1 927 906 928 -1 928 906 905 -1 928 905 929 -1 929 905 904 -1 929 904 930 -1 930 904 903 -1 930 903 931 -1 931 903 902 -1 931 902 932 -1 932 902 901 -1 932 901 933 -1 933 901 917 -1 933 917 934 -1 934 935 933 -1 933 935 936 -1 933 936 932 -1 932 936 937 -1 932 937 931 -1 931 937 938 -1 931 938 930 -1 930 938 939 -1 930 939 929 -1 929 939 940 -1 929 940 928 -1 928 940 941 -1 928 941 927 -1 927 941 942 -1 927 942 926 -1 926 942 943 -1 926 943 925 -1 925 943 944 -1 925 944 924 -1 924 944 945 -1 924 945 923 -1 923 945 946 -1 923 946 922 -1 922 946 947 -1 922 947 921 -1 921 947 948 -1 921 948 920 -1 920 948 898 -1 920 898 919 -1 919 898 900 -1 919 900 913 -1 949 899 950 -1 950 899 898 -1 950 898 951 -1 951 898 948 -1 951 948 952 -1 952 948 947 -1 952 947 953 -1 953 947 946 -1 953 946 954 -1 954 946 945 -1 954 945 955 -1 955 945 944 -1 955 944 956 -1 956 944 943 -1 956 943 957 -1 957 943 942 -1 957 942 958 -1 958 942 941 -1 958 941 959 -1 959 941 940 -1 959 940 960 -1 960 940 939 -1 960 939 961 -1 961 939 938 -1 961 938 962 -1 962 938 937 -1 962 937 963 -1 963 937 936 -1 963 936 964 -1 964 936 935 -1 964 935 965 -1 965 935 934 -1 966 967 968 -1 969 970 971 -1 961 962 972 -1 962 963 972 -1 972 963 964 -1 972 964 965 -1 958 959 973 -1 973 959 960 -1 973 960 974 -1 975 976 977 -1 977 976 978 -1 977 978 979 -1 960 961 974 -1 974 961 972 -1 974 972 980 -1 980 972 981 -1 980 981 975 -1 975 981 982 -1 975 982 976 -1 983 984 985 -1 985 984 986 -1 985 986 987 -1 987 986 988 -1 987 988 989 -1 971 970 990 -1 990 970 991 -1 990 991 992 -1 969 971 993 -1 993 971 994 -1 993 994 995 -1 996 995 997 -1 997 995 994 -1 997 994 998 -1 998 994 971 -1 998 971 999 -1 999 971 990 -1 999 990 1000 -1 1001 1002 1003 -1 1004 1005 1003 -1 1003 1005 1006 -1 1003 1006 1001 -1 1001 1006 1007 -1 1001 1007 1008 -1 1008 1007 1009 -1 1008 1009 966 -1 966 1009 1010 -1 966 1010 967 -1 1002 1011 1003 -1 1003 1011 1012 -1 1003 1012 1004 -1 1004 1012 1013 -1 1014 949 950 -1 951 952 973 -1 952 953 973 -1 973 953 954 -1 973 954 955 -1 955 956 973 -1 973 956 957 -1 973 957 958 -1 979 1015 1016 -1 1016 1017 979 -1 979 1017 1018 -1 979 1018 977 -1 977 1018 1019 -1 977 1019 975 -1 975 1019 1020 -1 975 1020 980 -1 980 1020 1021 -1 980 1021 974 -1 974 1021 1022 -1 974 1022 973 -1 973 1022 1014 -1 973 1014 951 -1 951 1014 950 -1 1023 983 1024 -1 1024 983 985 -1 1024 985 1025 -1 1025 985 987 -1 1025 987 1026 -1 1026 987 989 -1 1026 989 1027 -1 1027 989 1028 -1 1027 1028 1029 -1 1029 1028 1030 -1 1029 1030 1031 -1 1031 1030 1032 -1 1031 1032 1033 -1 1033 1032 1034 -1 1033 1034 1035 -1 1035 1034 1036 -1 1035 1036 1037 -1 1037 1036 1015 -1 1037 1015 1038 -1 1038 1015 979 -1 1038 979 1039 -1 1039 979 978 -1 1040 1011 1041 -1 1041 1011 1002 -1 1041 1002 1042 -1 1042 1002 1001 -1 1042 1001 1043 -1 1043 1001 1008 -1 1043 1008 996 -1 996 1008 966 -1 996 966 995 -1 995 966 968 -1 995 968 993 -1 992 1016 990 -1 990 1016 1015 -1 990 1015 1000 -1 1000 1015 1036 -1 1000 1036 999 -1 999 1036 1034 -1 999 1034 998 -1 998 1034 1032 -1 998 1032 997 -1 997 1032 1030 -1 997 1030 996 -1 996 1030 1028 -1 996 1028 1043 -1 1043 1028 989 -1 1043 989 1042 -1 1042 989 988 -1 1042 988 1041 -1 1041 988 986 -1 1041 986 1040 -1 1040 986 984 -1 1044 1045 1046 -1 1047 1048 1049 -1 1049 1040 984 -1 1049 984 1047 -1 1047 984 983 -1 1047 983 1023 -1 1050 1051 1052 -1 1053 1054 1055 -1 1055 1054 1045 -1 1055 1045 1056 -1 1056 1045 1044 -1 1056 1044 1057 -1 1057 1044 1058 -1 1013 1012 1059 -1 1059 1012 1011 -1 1060 1052 1061 -1 1061 1052 1051 -1 1061 1051 1062 -1 1062 1051 1063 -1 1064 1065 1050 -1 1050 1065 1066 -1 1050 1066 1051 -1 1051 1066 1067 -1 1051 1067 1063 -1 1052 1068 1050 -1 1050 1068 1069 -1 1050 1069 1064 -1 1064 1069 1070 -1 1064 1070 1071 -1 1048 1047 1071 -1 1071 1047 1072 -1 1071 1072 1064 -1 1064 1072 1073 -1 1064 1073 1065 -1 1060 1058 1052 -1 1052 1058 1044 -1 1052 1044 1068 -1 1068 1044 1046 -1 1068 1046 1069 -1 1069 1046 1074 -1 1069 1074 1070 -1 1070 1074 1075 -1 1070 1075 1071 -1 1071 1075 1076 -1 1071 1076 1048 -1 1048 1076 1059 -1 1048 1059 1049 -1 1049 1059 1011 -1 1049 1011 1040 -1 1077 1056 1057 -1 1078 1079 1080 -1 1081 1082 1083 -1 1084 1085 1086 -1 1084 1086 1087 -1 1087 1086 1088 -1 1087 1088 1089 -1 1089 1088 1063 -1 1089 1063 1067 -1 1090 1091 1092 -1 1092 1091 1081 -1 1081 1083 1092 -1 1092 1083 1093 -1 1092 1093 1094 -1 1095 1094 1096 -1 1096 1094 1093 -1 1096 1093 1097 -1 1078 1080 1098 -1 1099 1100 1101 -1 1101 1100 1080 -1 1101 1080 1102 -1 1102 1080 1079 -1 1100 1103 1080 -1 1080 1103 1104 -1 1080 1104 1098 -1 1098 1104 1105 -1 1106 1105 1107 -1 1107 1105 1104 -1 1107 1104 1108 -1 1108 1104 1103 -1 1108 1103 1109 -1 1109 1103 1100 -1 1109 1100 1110 -1 1110 1100 1099 -1 1110 1099 1090 -1 1056 1077 1055 -1 1055 1077 1111 -1 1055 1111 1053 -1 1112 1113 1114 -1 1113 1112 1115 -1 1115 1112 1116 -1 1115 1116 1117 -1 1062 1118 1061 -1 1061 1118 1119 -1 1061 1119 1060 -1 1060 1119 1120 -1 1060 1120 1058 -1 1058 1120 1121 -1 1058 1121 1057 -1 1057 1121 1122 -1 1057 1122 1077 -1 1077 1122 1112 -1 1077 1112 1111 -1 1111 1112 1114 -1 1111 1114 1053 -1 1123 1124 1125 -1 1125 1124 1126 -1 1125 1126 1127 -1 1127 1126 1128 -1 1127 1128 1129 -1 1129 1128 1130 -1 1129 1130 1131 -1 1131 1130 1132 -1 1118 1123 1119 -1 1119 1123 1125 -1 1119 1125 1120 -1 1120 1125 1127 -1 1120 1127 1121 -1 1121 1127 1129 -1 1121 1129 1122 -1 1122 1129 1131 -1 1122 1131 1112 -1 1112 1131 1132 -1 1112 1132 1116 -1 1097 1133 1096 -1 1096 1133 1134 -1 1096 1134 1095 -1 1095 1134 1135 -1 1095 1135 1136 -1 1084 1137 1085 -1 1085 1137 1138 -1 1085 1138 1082 -1 1082 1138 1139 -1 1082 1139 1083 -1 1083 1139 1140 -1 1083 1140 1093 -1 1093 1140 1141 -1 1093 1141 1097 -1 1090 1092 1110 -1 1110 1092 1094 -1 1110 1094 1109 -1 1109 1094 1095 -1 1109 1095 1108 -1 1108 1095 1136 -1 1108 1136 1107 -1 1107 1136 1142 -1 1107 1142 1106 -1 1102 1117 1101 -1 1101 1117 1116 -1 1101 1116 1099 -1 1099 1116 1132 -1 1099 1132 1090 -1 1090 1132 1130 -1 1090 1130 1091 -1 1091 1130 1128 -1 1091 1128 1081 -1 1081 1128 1126 -1 1081 1126 1082 -1 1082 1126 1124 -1 1082 1124 1085 -1 1085 1124 1123 -1 1085 1123 1086 -1 1086 1123 1118 -1 1086 1118 1088 -1 1088 1118 1062 -1 1088 1062 1063 -1 1143 1142 1144 -1 1144 1142 1136 -1 1144 1136 1145 -1 1145 1136 1135 -1 1145 1135 1146 -1 1146 1135 1134 -1 1146 1134 1147 -1 1147 1134 1133 -1 1148 1149 1150 -1 1151 1152 1153 -1 1154 1155 1156 -1 1157 1158 1159 -1 1160 1161 1162 -1 1163 1164 1165 -1 1166 1167 1168 -1 1169 767 766 -1 1170 1171 1172 -1 1173 1174 1175 -1 1176 1177 1178 -1 1145 1146 1179 -1 1145 1179 1180 -1 1180 1179 1181 -1 1180 1181 1182 -1 1183 1181 1184 -1 1184 1181 1179 -1 1184 1179 1185 -1 1185 1179 1146 -1 1185 1146 1147 -1 1174 1173 1186 -1 1186 1173 1187 -1 1186 1187 1188 -1 1188 1187 1189 -1 1188 1189 1190 -1 1191 1190 1192 -1 1192 1190 1189 -1 1192 1189 1193 -1 1193 1189 1187 -1 1193 1187 1194 -1 1194 1187 1173 -1 1194 1173 1195 -1 1195 1173 1175 -1 1195 1175 1196 -1 759 760 1197 -1 1197 760 1198 -1 1197 1198 1199 -1 1199 1198 1200 -1 1199 1200 1201 -1 1201 1200 1202 -1 1201 1202 1203 -1 1203 1202 1204 -1 1203 1204 1205 -1 1205 1204 1206 -1 1207 1206 1208 -1 1209 1210 1211 -1 1211 1210 1212 -1 1211 1212 1213 -1 1213 1212 1214 -1 759 1197 1215 -1 1215 1197 1199 -1 1215 1199 1214 -1 1214 1199 1201 -1 1214 1201 1213 -1 1213 1201 1203 -1 1213 1203 1211 -1 1211 1203 1205 -1 1211 1205 1209 -1 1206 1207 1205 -1 1205 1207 1216 -1 1205 1216 1209 -1 1209 1216 1217 -1 1209 1217 1210 -1 1218 1171 1219 -1 1219 1171 1170 -1 1219 1170 1220 -1 1221 1222 1223 -1 1223 1222 1224 -1 1223 1224 1225 -1 1225 1224 1226 -1 1225 1226 1227 -1 1228 1229 1218 -1 1218 1229 1230 -1 1218 1230 1171 -1 1171 1230 1231 -1 1171 1231 1172 -1 1172 1231 1232 -1 1172 1232 1233 -1 1233 1232 1234 -1 1233 1234 1235 -1 1228 1221 1236 -1 1236 1221 1223 -1 1236 1223 1237 -1 1237 1223 1225 -1 1217 1169 1210 -1 1210 1169 766 -1 1210 766 1212 -1 1212 766 765 -1 1212 765 1214 -1 1214 765 763 -1 1214 763 1215 -1 1215 763 762 -1 1215 762 759 -1 1238 1149 1239 -1 1239 1149 1148 -1 1239 1148 1240 -1 1241 1242 1243 -1 1243 1242 1244 -1 1243 1244 1245 -1 1222 1246 1224 -1 1224 1246 1247 -1 1224 1247 1226 -1 1226 1247 1248 -1 1226 1248 1227 -1 1227 1248 1241 -1 1227 1241 1240 -1 1240 1241 1243 -1 1240 1243 1239 -1 1239 1243 1245 -1 1239 1245 1238 -1 1249 1250 1251 -1 1251 1250 1252 -1 1251 1252 1253 -1 1253 1252 1254 -1 1253 1254 1255 -1 1255 1256 1253 -1 1253 1256 1257 -1 1253 1257 1154 -1 1154 1257 1258 -1 1258 1259 1154 -1 1154 1259 1260 -1 1154 1260 1155 -1 1261 1262 1263 -1 1166 1168 1264 -1 1264 1168 1265 -1 1265 1168 1266 -1 1265 1266 1267 -1 1268 1269 1270 -1 1270 1269 1271 -1 1270 1271 1272 -1 1272 1271 1273 -1 1272 1273 1266 -1 1266 1273 1274 -1 1266 1274 1267 -1 1275 1276 1277 -1 1277 1276 1278 -1 1277 1278 1279 -1 1164 1279 1165 -1 1165 1279 1278 -1 1165 1278 1280 -1 1280 1278 1276 -1 1280 1276 1281 -1 1161 1163 1162 -1 1162 1163 1165 -1 1162 1165 1282 -1 1282 1165 1280 -1 1282 1280 1283 -1 1283 1280 1281 -1 1283 1281 1284 -1 1285 1286 1287 -1 1285 1287 1288 -1 747 1289 1290 -1 1158 1160 1159 -1 1159 1160 1162 -1 1159 1162 1291 -1 1291 1162 1282 -1 1291 1282 1292 -1 1292 1282 1283 -1 1292 1283 1293 -1 1293 1283 1284 -1 1293 1284 1294 -1 1294 1284 1295 -1 1262 1249 1263 -1 1263 1249 1251 -1 1263 1251 1296 -1 1296 1251 1253 -1 1296 1253 1297 -1 1297 1253 1154 -1 1297 1154 1298 -1 1298 1154 1156 -1 1289 1288 1290 -1 1290 1288 1287 -1 1290 1287 1299 -1 1299 1287 1300 -1 1299 1300 1301 -1 1301 1300 1302 -1 1301 1302 1303 -1 1303 1302 1304 -1 1303 1304 1305 -1 1305 1304 1306 -1 1305 1306 1307 -1 1307 1306 1308 -1 1307 1308 1309 -1 1309 1308 1310 -1 1311 1312 1313 -1 1311 1314 1315 -1 1315 1314 1316 -1 1315 1316 1317 -1 1317 1316 1318 -1 1317 1318 1319 -1 1319 1318 1320 -1 1319 1320 1321 -1 1321 1320 750 -1 1321 750 748 -1 1311 1313 1314 -1 1314 1313 1151 -1 1314 1151 1316 -1 1316 1151 1153 -1 1316 1153 1318 -1 1322 1191 1323 -1 1323 1191 1192 -1 1323 1192 1324 -1 1324 1192 1193 -1 1324 1193 1325 -1 1325 1193 1194 -1 1325 1194 1326 -1 1326 1194 1195 -1 1326 1195 1327 -1 1327 1195 1196 -1 1327 1196 1152 -1 1152 1151 1327 -1 1327 1151 1313 -1 1327 1313 1326 -1 1326 1313 1312 -1 1326 1312 1325 -1 1325 1312 1328 -1 1325 1328 1324 -1 1324 1328 1176 -1 1324 1176 1323 -1 1323 1176 1178 -1 1323 1178 1322 -1 1222 1322 1246 -1 1246 1322 1178 -1 1246 1178 1329 -1 1329 1178 1177 -1 1329 1177 1330 -1 1330 1177 1176 -1 1330 1176 1310 -1 1310 1176 1328 -1 1310 1328 1309 -1 1309 1328 1312 -1 1309 1312 1307 -1 1307 1312 1311 -1 1307 1311 1305 -1 1305 1311 1315 -1 1305 1315 1303 -1 1303 1315 1317 -1 1303 1317 1301 -1 1301 1317 1319 -1 1301 1319 1299 -1 1299 1319 1321 -1 1299 1321 1290 -1 1290 1321 748 -1 1290 748 747 -1 1298 1331 1297 -1 1297 1331 1332 -1 1297 1332 1296 -1 1296 1332 1333 -1 1296 1333 1263 -1 1263 1333 1168 -1 1263 1168 1261 -1 1261 1168 1167 -1 1275 1268 1276 -1 1276 1268 1270 -1 1276 1270 1281 -1 1281 1270 1272 -1 1281 1272 1284 -1 1284 1272 1266 -1 1284 1266 1295 -1 1295 1266 1168 -1 1295 1168 1334 -1 1334 1168 1333 -1 1334 1333 1335 -1 1335 1333 1332 -1 1335 1332 1336 -1 1336 1332 1331 -1 1174 1337 1175 -1 1175 1337 1338 -1 1175 1338 1196 -1 1196 1338 1339 -1 1196 1339 1152 -1 1152 1339 1340 -1 1152 1340 1153 -1 1153 1340 1341 -1 1153 1341 1318 -1 1318 1341 1342 -1 1318 1342 1320 -1 1320 1342 751 -1 1320 751 750 -1 1286 1157 1287 -1 1287 1157 1159 -1 1287 1159 1300 -1 1300 1159 1291 -1 1300 1291 1302 -1 1302 1291 1292 -1 1302 1292 1304 -1 1304 1292 1293 -1 1304 1293 1306 -1 1306 1293 1294 -1 1306 1294 1308 -1 1308 1294 1295 -1 1308 1295 1310 -1 1310 1295 1334 -1 1310 1334 1330 -1 1330 1334 1335 -1 1330 1335 1329 -1 1329 1335 1336 -1 1329 1336 1246 -1 1246 1336 1331 -1 1246 1331 1247 -1 1247 1331 1298 -1 1247 1298 1248 -1 1248 1298 1156 -1 1248 1156 1241 -1 1241 1156 1155 -1 1241 1155 1242 -1 1260 1343 1155 -1 1155 1343 1344 -1 1155 1344 1345 -1 1345 1346 1155 -1 1155 1346 1347 -1 1155 1347 1242 -1 1143 1144 1348 -1 1348 1144 1349 -1 1348 1349 1350 -1 1350 1349 1351 -1 1351 1349 1352 -1 1352 1349 1353 -1 1352 1353 1354 -1 1354 1353 1355 -1 1355 1353 1356 -1 1355 1356 1357 -1 769 767 1358 -1 1358 767 1169 -1 1358 1169 1235 -1 1235 1169 1217 -1 1235 1217 1233 -1 1233 1217 1216 -1 1233 1216 1172 -1 1172 1216 1207 -1 1172 1207 1170 -1 1170 1207 1208 -1 1170 1208 1220 -1 1182 1181 1150 -1 1150 1181 1183 -1 1150 1183 1148 -1 1148 1183 1359 -1 1148 1359 1240 -1 1240 1359 1360 -1 1240 1360 1227 -1 1227 1360 1361 -1 1227 1361 1225 -1 1225 1361 1362 -1 1225 1362 1237 -1 1228 1218 1221 -1 1221 1218 1219 -1 1221 1219 1222 -1 1222 1219 1220 -1 1222 1220 1322 -1 1322 1220 1208 -1 1322 1208 1191 -1 1191 1208 1206 -1 1191 1206 1190 -1 1190 1206 1204 -1 1190 1204 1188 -1 1188 1204 1202 -1 1188 1202 1186 -1 1186 1202 1200 -1 1186 1200 1174 -1 1174 1200 1198 -1 1174 1198 1337 -1 1337 1198 760 -1 1337 760 1338 -1 1338 760 761 -1 1338 761 1339 -1 1339 761 756 -1 1339 756 1340 -1 1340 756 755 -1 1340 755 1341 -1 1341 755 753 -1 1341 753 1342 -1 1342 753 752 -1 1342 752 751 -1 1363 1364 1356 -1 1356 1364 1365 -1 1356 1365 1357 -1 1238 1363 1149 -1 1149 1363 1356 -1 1149 1356 1150 -1 1150 1356 1353 -1 1150 1353 1182 -1 1182 1353 1349 -1 1182 1349 1180 -1 1180 1349 1144 -1 1180 1144 1145 -1 856 829 789 -1 783 764 768 -1 1023 783 1047 -1 1047 783 768 -1 1047 768 1072 -1 1147 1133 1185 -1 1185 1133 1097 -1 1185 1097 1184 -1 1184 1097 1141 -1 778 777 1031 -1 1031 777 1029 -1 1029 777 784 -1 1029 784 1027 -1 1231 1230 1066 -1 1066 1230 1229 -1 1066 1229 1067 -1 1067 1229 1228 -1 1067 1228 1236 -1 1066 1065 768 -1 768 1065 1073 -1 768 1073 1072 -1 864 856 918 -1 918 856 789 -1 918 789 917 -1 917 789 791 -1 1141 1140 1184 -1 1184 1140 1139 -1 1184 1139 1183 -1 1183 1139 1138 -1 1183 1138 1359 -1 1236 1237 1067 -1 1067 1237 1362 -1 1067 1362 1089 -1 1089 1362 1361 -1 1089 1361 1087 -1 1087 1361 1360 -1 1087 1360 1084 -1 1084 1360 1359 -1 1084 1359 1137 -1 1137 1359 1138 -1 799 801 982 -1 1027 784 1026 -1 1026 784 786 -1 1026 786 1025 -1 982 981 799 -1 799 981 972 -1 799 972 793 -1 793 972 965 -1 793 965 791 -1 791 965 934 -1 791 934 917 -1 768 769 1066 -1 1066 769 1358 -1 1066 1358 1235 -1 1025 786 1024 -1 1024 786 779 -1 1024 779 1023 -1 1023 779 781 -1 1023 781 783 -1 1235 1234 1066 -1 1066 1234 1232 -1 1066 1232 1231 -1 805 1039 803 -1 803 1039 978 -1 803 978 801 -1 801 978 976 -1 801 976 982 -1 1031 1033 778 -1 778 1033 1035 -1 778 1035 834 -1 834 1035 1037 -1 834 1037 805 -1 805 1037 1038 -1 805 1038 1039 -1 1018 1017 1366 -1 1367 992 991 -1 1142 1368 1106 -1 1106 1368 1369 -1 1106 1369 1105 -1 1370 1078 1369 -1 1369 1078 1098 -1 1369 1098 1105 -1 1113 1115 1371 -1 1371 1115 1117 -1 1371 1117 1372 -1 1372 1117 1102 -1 1372 1102 1370 -1 1370 1102 1079 -1 1370 1079 1078 -1 1113 1371 1114 -1 1114 1371 1373 -1 1114 1373 1053 -1 1053 1373 1054 -1 1054 1373 1374 -1 1054 1374 1045 -1 1045 1374 1375 -1 1045 1375 1046 -1 1046 1375 1074 -1 1074 1375 1376 -1 1074 1376 1075 -1 1075 1376 1377 -1 1075 1377 1076 -1 1076 1377 1378 -1 1076 1378 1059 -1 1059 1378 1013 -1 1013 1378 1379 -1 1013 1379 1004 -1 1004 1379 1005 -1 1005 1379 1380 -1 1005 1380 1006 -1 1381 1009 1380 -1 1380 1009 1007 -1 1380 1007 1006 -1 1382 967 1381 -1 1381 967 1010 -1 1381 1010 1009 -1 970 969 1383 -1 1383 969 993 -1 1383 993 1382 -1 1382 993 968 -1 1382 968 967 -1 970 1383 991 -1 991 1383 1384 -1 991 1384 1367 -1 1366 1017 1367 -1 1367 1017 1016 -1 1367 1016 992 -1 1018 1366 1019 -1 1019 1366 1385 -1 1019 1385 1020 -1 1020 1385 1386 -1 1020 1386 1021 -1 1021 1386 1387 -1 1021 1387 1022 -1 1022 1387 1388 -1 1022 1388 1014 -1 1014 1388 1389 -1 1014 1389 949 -1 1389 1390 1391 -1 868 913 1391 -1 1391 913 900 -1 900 899 1391 -1 1391 899 949 -1 1391 949 1389 -1 869 868 1392 -1 1392 868 1391 -1 1392 1391 1393 -1 1393 1391 1390 -1 851 869 1394 -1 1394 869 1392 -1 1394 1392 1395 -1 1395 1392 1393 -1 1396 1397 807 -1 1398 774 773 -1 1395 1399 1394 -1 1394 1399 850 -1 1394 850 851 -1 1400 1401 1398 -1 1398 1401 1402 -1 1398 1402 774 -1 774 1402 758 -1 1400 1398 1403 -1 1403 1398 773 -1 1403 773 1404 -1 1404 773 811 -1 1404 811 1405 -1 1405 811 812 -1 1405 812 815 -1 1406 1407 1405 -1 1405 1407 1408 -1 1405 1408 1404 -1 814 828 1409 -1 1409 828 820 -1 1409 820 1410 -1 1410 820 819 -1 1410 819 1411 -1 1411 819 824 -1 1411 824 823 -1 815 814 1405 -1 1405 814 1409 -1 1405 1409 1406 -1 1406 1409 1410 -1 1406 1410 1412 -1 1412 1410 1411 -1 1412 1411 1413 -1 823 821 1411 -1 1411 821 1414 -1 1411 1414 1413 -1 821 817 1414 -1 1414 817 816 -1 1414 816 1415 -1 1415 816 855 -1 1415 855 1416 -1 855 854 1416 -1 1416 854 853 -1 1416 853 1417 -1 1417 853 852 -1 1417 852 1418 -1 1418 852 810 -1 1418 810 1419 -1 1419 810 809 -1 807 1397 808 -1 808 1397 1420 -1 808 1420 809 -1 809 1420 1421 -1 809 1421 1419 -1 807 806 1396 -1 1396 806 795 -1 1396 795 1422 -1 1422 795 794 -1 1422 794 1423 -1 794 797 1423 -1 1423 797 845 -1 1423 845 1399 -1 1399 845 846 -1 1399 846 850 -1 1424 1425 1426 -1 1427 1424 1428 -1 1428 1424 1426 -1 1428 1426 1429 -1 1402 1401 1430 -1 1427 747 1424 -1 1424 747 746 -1 1424 746 1425 -1 1425 746 749 -1 749 758 1425 -1 1425 758 1402 -1 1425 1402 1426 -1 1426 1402 1430 -1 1426 1430 1429 -1 1431 1273 1271 -1 1432 1433 1351 -1 1250 1249 1434 -1 1434 1249 1262 -1 1434 1262 1435 -1 1435 1262 1261 -1 1435 1261 1436 -1 1436 1261 1167 -1 1436 1167 1437 -1 1274 1438 1267 -1 1267 1438 1439 -1 1167 1166 1437 -1 1437 1166 1264 -1 1437 1264 1439 -1 1439 1264 1265 -1 1439 1265 1267 -1 1431 1271 1440 -1 1440 1271 1269 -1 1440 1269 1441 -1 1442 1443 1164 -1 1269 1268 1441 -1 1441 1268 1275 -1 1441 1275 1444 -1 1444 1275 1277 -1 1444 1277 1443 -1 1443 1277 1279 -1 1443 1279 1164 -1 1164 1163 1442 -1 1442 1163 1161 -1 1442 1161 1445 -1 1445 1161 1160 -1 1445 1160 1446 -1 1158 1157 1447 -1 1447 1157 1286 -1 1447 1286 1448 -1 1428 1429 1449 -1 1289 747 1427 -1 1286 1285 1448 -1 1448 1285 1288 -1 1448 1288 1450 -1 1450 1288 1289 -1 1450 1289 1449 -1 1449 1289 1427 -1 1449 1427 1428 -1 1451 1452 1348 -1 1348 1452 1143 -1 1451 1348 1433 -1 1433 1348 1350 -1 1433 1350 1351 -1 1351 1352 1432 -1 1432 1352 1354 -1 1432 1354 1453 -1 1453 1354 1355 -1 1453 1355 1454 -1 1454 1355 1357 -1 1454 1357 1455 -1 1455 1357 1365 -1 1455 1365 1456 -1 1456 1365 1364 -1 1456 1364 1457 -1 1364 1363 1457 -1 1457 1363 1238 -1 1457 1238 1458 -1 1238 1245 1458 -1 1458 1245 1244 -1 1458 1244 1459 -1 1459 1244 1242 -1 1459 1242 1460 -1 1460 1242 1347 -1 1460 1347 1461 -1 1461 1347 1346 -1 1461 1346 1462 -1 1346 1345 1462 -1 1462 1345 1344 -1 1462 1344 1463 -1 1463 1344 1343 -1 1463 1343 1464 -1 1343 1260 1464 -1 1464 1260 1259 -1 1464 1259 1465 -1 1466 1467 1468 -1 1468 1467 1469 -1 1259 1258 1465 -1 1465 1258 1257 -1 1465 1257 1470 -1 1470 1257 1256 -1 1470 1256 1469 -1 1469 1256 1255 -1 1469 1255 1468 -1 1468 1255 1254 -1 1468 1254 1466 -1 1466 1254 1252 -1 1471 1472 1466 -1 1466 1472 1473 -1 1466 1473 1467 -1 1252 1250 1466 -1 1466 1250 1434 -1 1466 1434 1471 -1 1471 1434 1435 -1 1471 1435 1474 -1 1474 1435 1436 -1 1438 1475 1439 -1 1439 1475 1476 -1 1439 1476 1437 -1 1437 1476 1477 -1 1437 1477 1436 -1 1436 1477 1478 -1 1436 1478 1474 -1 1479 1480 1438 -1 1438 1480 1481 -1 1438 1481 1475 -1 1274 1273 1438 -1 1438 1273 1431 -1 1438 1431 1479 -1 1479 1431 1440 -1 1479 1440 1482 -1 1482 1440 1441 -1 1482 1441 1483 -1 1483 1441 1444 -1 1483 1444 1484 -1 1484 1444 1443 -1 1484 1443 1485 -1 1485 1443 1442 -1 1485 1442 1486 -1 1486 1442 1445 -1 1486 1445 1487 -1 1487 1445 1446 -1 1488 1489 1446 -1 1446 1489 1490 -1 1446 1490 1487 -1 1160 1158 1446 -1 1446 1158 1447 -1 1446 1447 1488 -1 1488 1447 1448 -1 1488 1448 1491 -1 1491 1448 1450 -1 1491 1450 1492 -1 1492 1450 1449 -1 1142 1143 1368 -1 1368 1143 1452 -1 1429 1372 1449 -1 1449 1372 1370 -1 1433 1432 1369 -1 1369 1432 1370 -1 1433 1369 1451 -1 1451 1369 1368 -1 1451 1368 1452 -1 1374 1373 1429 -1 1429 1373 1371 -1 1429 1371 1372 -1 1465 1470 1370 -1 1370 1470 1469 -1 1370 1469 1467 -1 1467 1473 1370 -1 1370 1473 1472 -1 1370 1472 1471 -1 1370 1489 1488 -1 1430 1401 1378 -1 1378 1401 1400 -1 1378 1400 1403 -1 1403 1404 1378 -1 1378 1404 1408 -1 1378 1408 1379 -1 1370 1477 1476 -1 1366 1397 1385 -1 1385 1397 1396 -1 1385 1396 1386 -1 1432 1453 1370 -1 1370 1453 1454 -1 1370 1454 1455 -1 1370 1461 1462 -1 1471 1474 1370 -1 1370 1474 1478 -1 1370 1478 1477 -1 1476 1475 1370 -1 1370 1475 1481 -1 1370 1481 1480 -1 1486 1487 1370 -1 1370 1487 1490 -1 1370 1490 1489 -1 1488 1491 1370 -1 1370 1491 1492 -1 1370 1492 1449 -1 1408 1407 1379 -1 1379 1407 1406 -1 1379 1406 1380 -1 1380 1406 1412 -1 1380 1412 1381 -1 1381 1412 1413 -1 1381 1413 1382 -1 1378 1377 1430 -1 1430 1377 1376 -1 1430 1376 1429 -1 1429 1376 1375 -1 1429 1375 1374 -1 1455 1456 1370 -1 1370 1456 1457 -1 1370 1457 1458 -1 1462 1463 1370 -1 1370 1463 1464 -1 1370 1464 1465 -1 1480 1479 1370 -1 1370 1479 1482 -1 1370 1482 1483 -1 1396 1422 1386 -1 1386 1422 1423 -1 1386 1423 1387 -1 1367 1421 1366 -1 1366 1421 1420 -1 1366 1420 1397 -1 1390 1389 1393 -1 1393 1389 1388 -1 1393 1388 1395 -1 1395 1388 1387 -1 1395 1387 1399 -1 1399 1387 1423 -1 1383 1417 1384 -1 1384 1417 1418 -1 1384 1418 1367 -1 1367 1418 1419 -1 1367 1419 1421 -1 1413 1414 1382 -1 1382 1414 1415 -1 1382 1415 1383 -1 1383 1415 1416 -1 1383 1416 1417 -1 1458 1459 1370 -1 1370 1459 1460 -1 1370 1460 1461 -1 1483 1484 1370 -1 1370 1484 1485 -1 1370 1485 1486 -1 "
						                >
							<Coordinate DEF="coords_ME_OMLV4_Packing_-_For_Xander_-_InletTank-1"
							            point="368.099396 78.672516 433.323792 373.355103 69.101883 431.652161 378.610779 69.030991 431.666290 383.866425 68.960098 431.680420 389.122101 68.889206 431.694550 410.144836 78.360832 433.392426 394.377777 68.818314 431.708679 399.633484 68.747421 431.722809 404.889160 68.676529 431.736938 410.144836 73.481544 432.582306 410.144836 68.605629 431.751068 410.144836 88.129730 434.948975 368.099396 88.177490 434.975677 326.053925 69.739922 431.524994 331.309631 69.669029 431.539124 326.053925 78.984192 433.255188 326.053925 88.225258 435.002411 336.565308 69.598137 431.553253 341.820984 69.527245 431.567383 347.076660 69.456352 431.581512 352.332367 69.385452 431.595642 357.588043 69.314560 431.609772 362.843719 69.243668 431.623901 368.099396 69.172775 431.638031 368.099396 106.311531 414.942383 368.099396 108.089508 412.576630 326.053925 107.015045 410.997406 347.076660 100.216393 421.303131 368.099396 100.501015 421.662567 368.099396 102.507919 419.482513 368.099396 98.436752 423.799774 347.076660 98.232452 423.541595 368.099396 96.330162 425.910889 347.076660 96.203285 425.752075 368.099396 94.200867 428.021362 347.076660 94.146103 427.953644 368.099396 92.079704 430.179230 326.053925 108.506233 408.584747 368.099396 109.767776 410.152740 326.053925 110.548058 405.039154 368.099396 104.446587 417.245361 410.144836 106.022003 417.650696 410.144836 107.351097 416.224365 410.144836 109.130768 414.164032 410.144836 114.184113 406.827454 368.099396 112.808296 405.115479 410.144836 112.895607 408.983521 368.099396 111.341301 407.666992 410.144836 111.897049 410.496460 410.144836 111.029327 411.720703 410.144836 116.685883 401.650024 368.099396 115.431374 399.815186 410.144836 116.359795 402.428345 368.099396 114.171097 402.497833 410.144836 114.748276 405.793823 410.144836 115.586067 404.131836 410.144836 116.124352 402.966614 368.099396 89.072159 433.681763 410.144836 88.723122 434.000671 410.144836 90.182289 432.129639 368.099396 90.033134 432.464539 410.144836 89.539940 432.896973 410.144836 88.857170 433.806610 410.144836 90.266098 432.034363 347.076660 92.086143 430.181610 410.144836 102.058723 421.493073 389.122101 100.785645 422.022003 389.122101 98.641060 424.057922 389.122101 96.457031 426.069733 410.144836 92.066818 430.174500 410.144836 92.575790 429.696960 410.144836 94.310387 428.156799 410.144836 96.470535 426.323944 410.144836 96.583908 426.228546 410.144836 98.845360 424.316101 410.144836 101.070267 422.381439 362.843719 116.446976 396.852386 357.588043 116.307388 396.623627 352.332367 116.167809 396.394836 347.076660 116.028221 396.166046 326.053925 113.673050 399.015472 336.565308 115.749046 395.708496 326.053925 115.469879 395.250946 326.053925 112.843040 400.683411 326.053925 105.271957 413.660400 326.053925 104.583397 414.670349 326.053925 103.555344 416.137024 326.053925 101.776108 418.564392 326.053925 100.772636 419.874573 326.053925 98.028152 423.283417 326.053925 96.528633 425.064331 326.053925 92.092590 430.183990 326.053925 90.614784 431.924133 326.053925 90.115494 432.530792 399.633484 117.424072 398.453857 404.889160 117.563660 398.682648 410.144836 117.067558 400.683746 410.144836 117.703247 398.911438 394.377777 117.284492 398.225098 389.122101 117.144905 397.996307 386.494293 117.075111 397.881927 383.866425 117.005318 397.767517 381.238586 116.935524 397.653137 378.610779 116.865730 397.538757 375.982910 116.795937 397.424347 373.355103 116.726151 397.309967 368.099396 116.586563 397.081177 410.144836 102.712502 420.892914 410.144836 103.239731 420.400604 410.144836 105.337830 418.353729 347.076660 115.130363 395.938171 336.565308 114.664352 395.594543 336.565308 113.577972 395.480316 352.332367 114.554726 395.824402 347.076660 113.324478 395.480621 347.076660 114.229141 395.709717 336.565308 112.489876 395.365784 341.820984 111.908150 395.250946 336.565308 111.400009 395.250946 331.309631 110.891869 395.250946 326.053925 112.926811 395.250946 410.144836 118.136147 397.086029 410.144836 118.513939 395.250946 404.889160 117.810562 396.971344 404.889160 118.005798 395.250946 399.633484 117.484978 396.856628 399.633484 117.497665 395.250946 394.377777 117.159393 396.741943 394.377777 116.989525 395.250946 389.122101 116.833809 396.627258 389.122101 116.481384 395.250946 386.494293 116.671021 396.569916 386.494293 116.227318 395.250946 383.866425 116.508224 396.512543 383.866425 115.973251 395.250946 381.238586 116.345436 396.455200 381.238586 115.719177 395.250946 378.610779 116.182640 396.397858 378.610779 115.465111 395.250946 375.982910 116.019852 396.340515 375.982910 115.211044 395.250946 373.355103 115.857056 396.283173 373.355103 114.956978 395.250946 368.099396 115.531479 396.168488 368.099396 114.448837 395.250946 362.843719 115.205894 396.053772 362.843719 113.940697 395.250946 357.588043 114.880310 395.939087 357.588043 113.432556 395.250946 352.332367 112.924423 395.250946 347.076660 112.416283 395.250946 326.053925 110.383736 395.250946 394.377777 112.012642 396.366089 389.122101 111.765930 396.737793 389.122101 113.359406 396.246948 326.053925 108.100372 403.142517 326.053925 108.805367 401.198303 331.309631 108.271126 402.649323 331.309631 109.052086 400.826599 336.565308 108.441879 402.156067 336.565308 109.298798 400.454895 341.820984 108.612625 401.662872 341.820984 109.545509 400.083191 347.076660 108.783379 401.169647 347.076660 109.792221 399.711487 352.332367 108.954132 400.676422 352.332367 110.038933 399.339752 357.588043 109.124886 400.183197 357.588043 110.285652 398.968048 362.843719 109.295631 399.689972 362.843719 110.532364 398.596344 368.099396 109.466385 399.196747 368.099396 110.779076 398.224640 373.355103 109.637138 398.703522 373.355103 111.025787 397.852936 378.610779 109.807892 398.210297 378.610779 111.272507 397.481232 383.866425 109.978638 397.717072 389.122101 110.149391 397.223846 394.377777 110.320145 396.730652 399.633484 110.490898 396.237427 410.144836 112.752785 395.250977 410.144836 110.832397 395.250977 404.889160 112.506065 395.622681 404.889160 110.661644 395.744202 399.633484 112.259361 395.994385 326.053925 109.418129 399.234863 331.309631 109.746567 398.985870 336.565308 110.075005 398.736877 341.820984 110.403450 398.487885 347.076660 110.731888 398.238892 352.332367 111.060326 397.989899 357.588043 111.388771 397.740906 362.843719 111.717209 397.491913 368.099396 112.045647 397.242920 373.355103 112.374084 396.993927 378.610779 112.702530 396.744934 383.866425 114.515388 395.876434 383.866425 113.030968 396.495941 383.866425 111.519218 397.109497 410.144836 114.673164 395.250946 404.889160 114.344727 395.499939 399.633484 114.016289 395.748932 394.377777 113.687851 395.997955 326.053925 109.943420 397.252472 331.309631 110.359055 397.127350 336.565308 110.774689 397.002258 341.820984 111.190323 396.877167 347.076660 111.605957 396.752075 352.332367 112.021591 396.626984 357.588043 112.437218 396.501892 362.843719 112.852852 396.376801 368.099396 113.268486 396.251709 373.355103 113.684120 396.126617 378.610779 114.099754 396.001526 410.144836 116.593552 395.250946 404.889160 116.177917 395.376038 399.633484 115.762291 395.501129 394.377777 115.346649 395.626221 389.122101 114.931023 395.751312 410.144836 110.601059 395.875305 410.144836 89.110931 410.899170 410.144836 88.679184 410.903168 399.633484 88.665428 412.517792 368.099396 90.284286 416.922485 368.099396 88.624168 417.361572 347.076660 88.596657 420.590759 368.099396 108.797272 400.845978 326.053925 106.618332 406.500702 368.099396 108.025146 402.466553 368.099396 102.659737 409.792114 326.053925 102.280197 413.307770 368.099396 103.925034 408.457001 326.053925 102.774063 412.675934 368.099396 105.097435 407.049133 326.053925 103.844925 411.202362 326.053925 104.411263 410.358307 368.099396 106.173477 405.576233 326.053925 104.842140 409.681976 368.099396 107.150162 404.046051 326.053925 106.425179 406.883514 347.076660 90.234512 419.963135 368.099396 91.944839 416.393585 347.076660 91.859604 419.265167 368.099396 93.595192 415.768799 347.076660 93.462990 418.490784 368.099396 95.224533 415.041473 347.076660 95.036163 417.632050 347.076660 96.569885 416.683014 326.053925 96.318504 419.158997 347.076660 98.055847 415.639496 326.053925 97.655098 418.085876 347.076660 99.485733 414.498749 326.053925 99.635246 416.266113 347.076660 100.852654 413.262726 326.053925 100.399857 415.478241 326.053925 101.627144 414.101837 336.565308 90.209633 421.483490 326.053925 90.184746 423.003815 336.565308 91.816986 420.700958 326.053925 92.187096 421.899689 326.053925 93.330795 421.212769 326.053925 94.756531 420.285065 389.122101 100.258888 409.918335 389.122101 101.758255 408.831726 410.144836 101.934151 406.808258 410.144836 100.645462 407.628113 410.144836 99.568466 408.227783 389.122101 98.692650 410.886444 410.144836 90.383820 410.841156 399.633484 90.358940 412.361481 410.144836 91.783783 410.697021 410.144836 92.115318 410.650421 389.122101 92.030075 413.522003 410.144836 93.859596 410.324829 389.122101 93.727394 413.046814 410.144836 94.441811 410.185425 389.122101 95.412903 412.450897 410.144836 95.601273 409.860321 389.122101 97.072655 411.731079 410.144836 97.053665 409.360107 410.144836 99.011055 408.509918 389.122101 90.334053 413.881836 389.122101 88.651672 414.132385 368.099396 101.305450 411.047241 368.099396 99.872307 412.208527 368.099396 98.374245 413.262970 368.099396 96.821266 414.207062 410.144836 109.535439 398.235596 410.144836 108.146629 400.568268 410.144836 107.504822 401.470520 410.144836 106.505974 402.716187 336.565308 88.582909 422.205353 326.053925 88.569153 423.819977 410.144836 105.076012 404.238098 410.144836 104.617424 404.672729 410.144836 103.692329 405.482422 410.144836 102.502228 406.407837 347.076660 81.238434 419.422668 326.053925 80.920433 422.565979 326.053925 82.841179 422.954315 336.565308 73.778824 418.911102 326.053925 73.431702 420.565857 347.076660 75.865501 417.884979 410.144836 76.416847 407.456512 410.144836 76.208687 407.327820 404.889160 76.035126 408.155212 326.053925 84.731812 423.287781 326.053925 77.299904 421.696686 347.076660 77.634705 418.458099 326.053925 77.148750 421.656433 399.633484 75.861565 408.982574 389.122101 75.514442 410.637329 389.122101 77.034248 411.390198 410.144836 77.618622 408.142822 368.099396 86.850243 417.212219 410.144836 86.455414 410.798492 378.610779 75.167320 412.292084 368.099396 74.820190 413.946838 368.099396 76.449875 414.637604 357.588043 74.473068 415.601593 347.076660 74.125946 417.256348 368.099396 85.075859 416.982513 368.099396 83.309097 416.671387 368.099396 81.556427 416.279358 368.099396 79.824928 415.808075 368.099396 78.120651 415.259766 410.144836 78.750717 408.707336 410.144836 80.620728 409.481689 410.144836 81.224243 409.692413 410.144836 83.807076 410.394409 404.889160 74.445496 406.937744 410.144836 74.240486 405.951294 410.144836 73.082870 404.989166 368.099396 73.322456 411.891632 336.565308 69.894707 410.416016 326.053925 71.099152 415.311920 336.565308 71.063812 413.304382 326.053925 72.038979 417.553223 336.565308 72.359848 416.137817 347.076660 68.120415 403.915192 347.076660 69.068306 406.709076 357.588043 69.281731 405.943878 347.076660 70.146622 409.444336 357.588043 70.398537 408.472687 347.076660 71.352249 412.116486 357.588043 71.640686 410.928589 347.076660 72.680717 414.722443 357.588043 73.001587 413.307037 368.099396 71.929123 409.740723 368.099396 70.650459 407.501007 368.099396 69.495155 405.178711 368.099396 68.470253 402.781830 326.053925 67.030205 401.814056 326.053925 67.614464 404.415375 347.076660 67.306046 401.066406 368.099396 67.581879 400.318726 410.144836 67.248749 397.061951 410.144836 66.521111 395.250946 399.633484 67.145782 397.246918 389.122101 66.380783 395.250946 410.144836 72.264572 404.228027 399.633484 71.406204 404.585999 399.633484 72.794434 406.177063 410.144836 71.658127 403.614349 410.144836 70.474014 402.272491 399.633484 70.135414 402.883118 410.144836 69.169930 400.515106 399.633484 68.995003 401.081787 410.144836 68.899765 400.104004 399.633484 67.995636 399.197235 410.144836 68.133560 398.823395 410.144836 67.573624 397.752411 389.122101 73.964195 409.060852 399.633484 74.285065 407.645447 389.122101 72.505997 407.364929 389.122101 71.154289 405.557678 389.122101 69.921997 403.648315 389.122101 68.820091 401.648468 389.122101 67.857719 399.571075 389.122101 67.042809 397.431854 368.099396 66.240456 395.250946 326.053925 68.641464 408.239471 326.053925 69.162697 409.934814 326.053925 69.642792 411.387695 326.053925 67.770576 405.048553 326.053925 65.959801 395.250946 326.053925 66.471077 398.821259 347.076660 66.100128 395.250946 347.076660 66.630913 398.171661 368.099396 66.836861 397.801758 378.610779 67.719803 399.944885 378.610779 68.645172 402.215149 378.610779 69.708572 404.413513 378.610779 70.902374 406.529358 378.610779 72.217560 408.552826 378.610779 73.643326 410.476257 410.144836 59.264061 395.250946 389.122101 59.841003 395.250946 368.099396 60.417942 395.250946 347.076660 60.994884 395.250946 326.053925 61.571827 395.250946 410.144836 59.158825 397.470764 410.144836 59.072887 400.447327 389.122101 59.811115 400.343201 410.144836 68.328529 431.790436 410.144836 68.448280 431.774689 404.889160 68.393997 431.766479 394.377777 66.947983 431.204193 399.633484 66.837029 431.295776 399.633484 67.292610 431.517120 341.820984 69.131271 431.339233 336.565308 69.212975 431.303131 336.565308 68.847183 430.984955 357.588043 69.195473 431.577362 368.099396 65.529434 428.050781 368.099396 66.110718 429.064728 357.588043 66.423134 428.804596 368.099396 66.427124 429.533234 368.099396 66.764854 429.972351 357.588043 67.033585 429.742493 357.588043 67.370926 430.170898 326.053925 63.162479 409.554962 326.053925 62.628922 405.454102 347.076660 61.685158 405.010864 326.053925 62.025795 400.030853 347.076660 61.287567 400.134979 389.122101 63.250900 425.300079 368.099396 65.006279 426.976379 368.099396 64.119362 424.726227 357.588043 65.389908 426.690155 368.099396 68.936485 431.589417 362.843719 69.013977 431.564117 362.843719 68.804436 431.483551 368.099396 67.126244 430.380249 357.588043 67.724648 430.563110 368.099396 67.502739 430.746277 362.843719 67.995056 430.988281 368.099396 67.894707 431.063812 368.099396 68.304314 431.325623 357.588043 68.095406 430.912720 352.332367 68.195755 430.837189 352.332367 67.835602 430.471527 362.843719 68.598343 431.384918 357.588043 68.886147 431.447479 357.588043 69.091476 431.538818 352.332367 69.270851 431.557526 341.820984 68.396454 430.686066 336.565308 68.496803 430.610535 336.565308 68.168457 430.196777 347.076660 66.735542 428.544434 347.076660 67.302307 429.512665 341.820984 67.436668 429.397736 347.076660 67.946548 430.379944 341.820984 68.057503 430.288361 347.076660 68.296104 430.761627 362.843719 68.394791 431.268829 357.588043 68.684341 431.338318 357.588043 68.485268 431.212067 352.332367 68.770348 431.291718 352.332367 68.575752 431.155273 347.076660 68.856354 431.245117 347.076660 68.666229 431.098511 341.820984 68.756706 431.041718 352.332367 68.967857 431.411377 347.076660 69.049561 431.375305 368.099396 62.806313 419.984955 368.099396 63.401314 422.380859 347.076660 64.336861 421.834320 357.588043 64.553589 424.439270 347.076660 64.987816 424.152344 347.076660 65.773544 426.403900 336.565308 66.157181 426.117676 336.565308 67.047958 428.284302 326.053925 66.826378 426.653290 326.053925 65.973282 423.994781 336.565308 65.422050 423.865417 326.053925 65.856277 423.578461 326.053925 64.875748 419.524078 336.565308 67.571037 429.282806 326.053925 67.701462 428.775787 326.053925 67.360367 428.024139 352.332367 69.168976 431.513519 347.076660 69.246475 431.488220 341.820984 69.323967 431.462921 336.565308 69.401466 431.437653 331.309631 69.478966 431.412354 326.053925 69.484444 431.327087 326.053925 69.376389 431.230988 331.309631 69.294685 431.267059 326.053925 69.033630 430.877655 331.309631 68.937668 430.928192 326.053925 68.697502 430.459412 326.053925 68.399902 430.028412 326.053925 67.839760 429.052979 410.144836 59.905598 415.955353 410.144836 60.047398 416.892975 368.099396 62.311218 417.562744 410.144836 61.530209 423.473938 410.144836 60.923405 421.285675 410.144836 60.473534 419.269135 347.076660 63.782486 419.477325 410.144836 64.231422 429.309143 410.144836 64.319756 429.431488 399.633484 64.477715 428.883087 410.144836 63.863857 428.765717 410.144836 62.977299 427.195374 410.144836 63.099262 427.436829 389.122101 64.239006 427.548828 410.144836 63.400417 427.996033 410.144836 63.471741 428.121277 410.144836 62.382442 425.873962 410.144836 62.496418 426.147186 410.144836 65.142365 430.403717 399.633484 65.553139 430.273468 410.144836 64.861076 430.105316 399.633484 65.173485 429.845184 410.144836 64.620468 429.822174 410.144836 65.689949 430.891724 399.633484 65.958679 430.661896 410.144836 65.440849 430.684082 410.144836 65.189278 430.450195 410.144836 65.703629 430.902496 410.144836 65.902542 431.051727 410.144836 65.934586 431.074524 389.122101 65.485901 429.585022 389.122101 65.844467 430.026733 389.122101 66.227402 430.432037 399.633484 66.392197 431.008270 410.144836 66.147514 431.217621 410.144836 66.170456 431.232147 410.144836 66.377556 431.355408 399.633484 66.613640 431.160065 410.144836 66.566963 431.455475 404.889160 66.726074 431.387360 410.144836 66.615120 431.478943 410.144836 66.776718 431.551971 410.144836 66.969551 431.627228 404.889160 66.957382 431.498901 410.144836 67.056427 431.656860 404.889160 67.192261 431.592682 410.144836 67.156898 431.687866 404.889160 67.431122 431.667908 410.144836 67.335854 431.734406 410.144836 67.346283 431.736755 404.889160 67.670959 431.723022 410.144836 67.539696 431.773682 410.144836 67.729713 431.797272 404.889160 67.910309 431.757721 410.144836 67.824303 431.804321 410.144836 68.000488 431.809265 404.889160 68.150780 431.772217 410.144836 68.069069 431.808319 410.144836 68.092812 431.807617 399.633484 68.232491 431.736145 399.633484 67.996315 431.711121 399.633484 67.761436 431.666260 399.633484 67.526390 431.601440 394.377777 68.314194 431.700043 394.377777 68.082321 431.664520 394.377777 67.851921 431.609497 394.377777 67.621658 431.534943 394.377777 67.392960 431.441589 389.122101 67.058929 431.112610 389.122101 66.636887 430.798920 389.122101 64.828285 428.605652 352.332367 67.167946 429.627594 389.122101 68.395905 431.663971 389.122101 68.168320 431.617920 389.122101 67.942398 431.552704 389.122101 67.716934 431.468475 389.122101 67.493309 431.366028 383.866425 67.169884 431.021027 378.610779 66.881561 430.589600 378.610779 66.496132 430.202179 378.610779 66.135796 429.779968 378.610779 65.798309 429.324890 399.633484 68.471497 431.741180 394.377777 68.548996 431.715881 389.122101 68.626495 431.690582 383.866425 68.477608 431.627899 383.866425 68.254326 431.571320 383.866425 68.032875 431.495941 383.866425 67.812202 431.402008 383.866425 67.593658 431.290466 378.610779 67.280838 430.929443 378.610779 68.781487 431.639984 373.355103 68.858986 431.614716 373.355103 68.641029 431.555725 368.099396 68.722733 431.519653 373.355103 68.426331 431.478119 368.099396 68.512337 431.431519 373.355103 68.213837 431.382385 383.866425 68.703987 431.665283 378.610779 68.559319 431.591797 378.610779 68.340332 431.524719 378.610779 68.123352 431.439148 378.610779 67.907471 431.335510 373.355103 67.794357 431.139374 378.610779 67.694008 431.214935 373.355103 67.391785 430.837860 410.144836 61.586113 423.652557 410.144836 61.987419 424.843506 410.144836 62.068459 425.065918 410.144836 59.056107 401.769287 410.144836 59.052605 402.741547 389.122101 59.954502 405.432648 326.053925 64.758659 418.969666 326.053925 63.761974 413.534760 347.076660 62.890751 414.702789 368.099396 61.255508 410.191132 368.099396 60.819828 405.221771 368.099396 60.549339 400.239075 389.122101 60.302021 410.509216 368.099396 61.895699 415.120300 410.144836 59.089169 405.643555 410.144836 59.164818 407.799103 410.144836 59.348534 410.827271 410.144836 59.449432 412.030609 410.144836 59.556396 413.126648 476.053925 110.838287 395.250946 476.053925 110.608681 395.870422 476.053925 109.564163 398.199890 476.053925 108.223160 400.488647 476.053925 104.846214 404.499756 476.053925 106.651939 402.589630 476.053925 102.276863 406.585571 476.053925 102.820992 406.193359 476.053925 100.009460 407.987823 476.053925 97.591217 409.133362 476.053925 95.062515 410.004608 476.053925 92.460701 410.588501 476.053925 89.805199 410.875092 476.053925 87.121277 410.849548 476.053925 84.406143 410.501556 476.053925 81.729912 409.836639 476.053925 79.147850 408.871002 476.053925 76.701790 407.623169 476.053925 72.355949 404.351807 476.053925 74.418655 406.104889 476.053925 70.508247 402.351074 476.053925 68.905731 400.136688 476.053925 67.571083 397.755035 476.053925 66.519676 395.250946 476.053925 117.594620 395.250946 443.099396 118.054276 395.250946 443.099396 117.780624 397.426636 443.099396 117.423065 399.595337 476.053925 117.425110 397.767242 476.053925 117.142883 400.279266 443.099396 90.451515 432.098236 443.099396 88.576401 434.294952 476.053925 88.693459 434.197052 476.053925 89.099785 433.732910 443.099396 98.865967 424.936646 443.099396 94.312752 428.621857 476.053925 116.635841 402.039398 476.053925 88.252052 434.734131 443.099396 88.190887 434.841553 476.053925 90.668938 432.131836 443.099396 92.416969 430.226410 476.053925 90.636932 432.162140 476.053925 89.856453 432.928619 476.053925 103.108978 422.048523 476.053925 99.065010 425.400208 476.053925 94.563866 428.871704 476.053925 92.945152 430.149048 476.053925 104.098770 421.158325 476.053925 106.425568 418.902710 476.053925 107.185730 418.105072 476.053925 108.958275 416.096222 476.053925 109.850883 414.989532 476.053925 111.065750 413.354706 476.053925 112.217842 411.633362 476.053925 113.030273 410.292511 476.053925 114.215714 408.088257 476.053925 115.409569 405.452484 476.053925 115.866516 404.287109 443.099396 74.105515 432.328522 443.099396 69.428543 431.398224 459.576660 69.840004 431.221832 476.053925 79.222549 433.032532 459.576660 79.007118 433.122498 443.099396 78.791687 433.212494 476.053925 70.251465 431.045410 476.053925 60.385872 395.250946 476.053925 60.093925 397.854218 443.099396 66.665108 430.891541 476.053925 67.395630 430.708557 476.053925 67.653854 430.834778 443.099396 66.422913 430.735077 476.053925 66.959213 430.455261 476.053925 67.142189 430.567657 443.099396 66.146187 430.534393 443.099396 65.880089 430.317352 443.099396 65.571373 430.033417 443.099396 65.273827 429.725281 476.053925 66.851524 430.384705 443.099396 66.912155 431.033478 443.099396 67.129021 431.143127 443.099396 67.346313 431.238556 443.099396 67.744545 431.375061 443.099396 67.544739 431.312866 443.099396 67.938110 431.423096 443.099396 68.330696 431.483490 443.099396 68.133270 431.459351 443.099396 68.713615 431.494629 443.099396 68.527481 431.495056 476.053925 70.094688 431.082123 443.099396 69.141937 431.452271 443.099396 68.900467 431.483154 476.053925 59.726784 403.428375 476.053925 59.900658 400.127838 476.053925 59.942001 412.099884 476.053925 59.728024 408.575409 476.053925 59.702454 407.680115 476.053925 61.508888 421.066498 476.053925 60.703907 417.642212 476.053925 60.422916 416.040405 476.053925 60.043934 413.155640 476.053925 62.382469 423.727386 476.053925 63.821529 426.833038 476.053925 62.951649 425.106689 476.053925 62.620136 424.330322 476.053925 64.515564 427.935242 476.053925 64.020462 427.171234 476.053925 65.054497 428.657654 443.099396 64.855804 429.234802 476.053925 65.084473 428.694885 476.053925 66.570900 430.184509 476.053925 66.224373 429.902466 476.053925 66.132065 429.820557 476.053925 65.480194 429.160492 476.053925 67.745308 430.875244 476.053925 69.325249 431.192871 476.053925 69.123093 431.193512 476.053925 68.920250 431.181915 476.053925 68.873749 431.177521 476.053925 68.519539 431.122925 476.053925 68.317162 431.074951 476.053925 68.106804 431.012360 476.053925 67.880486 430.930847 476.053925 69.406853 431.189209 476.053925 69.955353 431.114136 476.053925 69.708115 431.158722 476.053925 69.516426 431.181183 410.144836 73.481544 291.186523 410.144836 68.605629 292.017761 404.889160 68.676529 292.031891 410.144836 78.360840 290.376404 399.633484 68.747421 292.046021 394.377777 68.818314 292.060150 389.122101 68.889206 292.074280 383.866425 68.960098 292.088409 368.099396 78.672516 290.445038 378.610779 69.030991 292.102539 373.355103 69.101883 292.116669 368.099396 88.177490 288.793121 410.144836 88.129730 288.819855 357.588043 69.314560 292.159058 362.843719 69.243668 292.144928 368.099396 69.172775 292.130798 352.332367 69.385452 292.173187 347.076660 69.456352 292.187317 326.053925 88.225258 288.766418 341.820984 69.527245 292.201447 336.565308 69.598137 292.215576 331.309631 69.669029 292.229706 326.053925 78.984192 290.513641 326.053925 69.739922 292.243835 389.122101 100.785645 301.746826 368.099396 100.501015 302.106232 368.099396 102.507919 304.286316 410.144836 88.857307 289.962402 410.144836 88.723297 289.768402 368.099396 89.072159 290.087067 347.076660 100.216393 302.465668 326.053925 100.772705 303.894318 326.053925 101.776108 305.204407 326.053925 92.092590 293.584839 347.076660 92.086143 293.587219 326.053925 90.614799 291.844696 368.099396 90.033134 291.304291 326.053925 90.115494 291.238037 326.053925 98.028152 300.485413 347.076660 98.232452 300.227234 326.053925 96.528709 298.704559 347.076660 96.203285 298.016724 347.076660 94.146103 295.815186 326.053925 113.672882 324.752991 368.099396 115.431374 323.953644 326.053925 112.843040 323.085388 368.099396 114.171097 321.270996 326.053925 110.547867 318.729309 410.144836 115.586052 319.636963 410.144836 114.748268 317.974976 368.099396 112.808296 318.653351 410.144836 116.124344 320.802185 368.099396 111.341301 316.101837 326.053925 108.506233 315.184082 368.099396 109.767776 313.616089 326.053925 107.014824 312.771057 368.099396 108.089508 311.192169 326.053925 105.271957 310.108429 368.099396 106.311531 308.826447 326.053925 104.583481 309.098602 410.144836 114.184097 316.941345 410.144836 112.895584 314.785278 410.144836 111.897018 313.272339 410.144836 111.029327 312.048096 410.144836 109.130730 309.604736 410.144836 89.540092 290.872040 410.144836 90.182510 291.639435 368.099396 92.079704 293.589569 410.144836 92.066818 293.594330 410.144836 90.266266 291.734650 410.144836 102.712608 302.876007 410.144836 102.058632 302.275665 389.122101 96.457031 297.699097 410.144836 96.470375 297.444763 410.144836 94.310387 295.612000 410.144836 101.070267 301.387390 389.122101 98.641060 299.710876 410.144836 98.845360 299.452698 410.144836 96.583908 297.540283 368.099396 98.436752 299.969055 368.099396 96.330162 297.857910 368.099396 94.200867 295.747467 410.144836 92.576286 294.072296 326.053925 115.469879 328.517883 336.565308 115.749046 328.060333 347.076660 116.028221 327.602753 352.332367 116.167809 327.373993 357.588043 116.307388 327.145203 326.053925 103.555344 307.631805 368.099396 104.446587 306.523438 362.843719 116.446976 326.916412 368.099396 116.586563 326.687653 373.355103 116.726151 326.458862 375.982910 116.795937 326.344452 378.610779 116.865730 326.230072 381.238586 116.935524 326.115692 383.866425 117.005318 326.001282 386.494293 117.075111 325.886902 389.122101 117.144905 325.772522 410.144836 116.359795 321.340454 410.144836 116.685883 322.118805 394.377777 117.284492 325.543732 399.633484 117.424072 325.314941 404.889160 117.563660 325.086182 410.144836 117.067551 323.085083 410.144836 117.703247 324.857391 410.144836 107.351097 307.544434 410.144836 106.021942 306.118073 410.144836 105.337830 305.415100 410.144836 103.239731 303.368225 326.053925 112.926811 328.517883 336.565308 112.489876 328.403046 336.565308 113.577972 328.288513 347.076660 113.324478 328.288177 347.076660 112.416283 328.517883 341.820984 111.908150 328.517883 336.565308 111.400009 328.517883 331.309631 110.891869 328.517883 326.053925 110.383736 328.517883 352.332367 112.924423 328.517883 347.076660 114.229141 328.059113 336.565308 114.664352 328.174255 410.144836 118.513939 328.517883 410.144836 118.136147 326.682800 404.889160 118.005798 328.517883 404.889160 117.810562 326.797485 399.633484 117.497665 328.517883 399.633484 117.484978 326.912170 394.377777 116.989525 328.517883 394.377777 117.159393 327.026886 389.122101 116.481384 328.517883 389.122101 116.833809 327.141571 386.494293 116.227318 328.517883 386.494293 116.671021 327.198914 383.866425 115.973251 328.517883 383.866425 116.508224 327.256256 381.238586 115.719177 328.517883 381.238586 116.345436 327.313599 378.610779 115.465111 328.517883 378.610779 116.182640 327.370941 375.982910 115.211044 328.517883 375.982910 116.019852 327.428314 373.355103 114.956978 328.517883 373.355103 115.857056 327.485657 368.099396 114.448837 328.517883 368.099396 115.531479 327.600342 362.843719 113.940697 328.517883 362.843719 115.205894 327.715027 357.588043 113.432556 328.517883 357.588043 114.880310 327.829712 352.332367 114.554726 327.944427 347.076660 115.130363 327.830658 404.889160 112.506065 328.146149 410.144836 112.752785 328.517853 410.144836 114.673164 328.517853 331.309631 110.359055 326.641449 336.565308 110.774689 326.766541 341.820984 111.190323 326.891632 347.076660 111.605957 327.016754 352.332367 112.021591 327.141846 357.588043 112.437218 327.266937 362.843719 112.852852 327.392029 368.099396 113.268486 327.517120 373.355103 113.684120 327.642212 378.610779 114.099754 327.767303 383.866425 114.515388 327.892395 389.122101 114.931023 328.017487 410.144836 116.593552 328.517883 404.889160 116.177917 328.392761 399.633484 115.762291 328.267670 394.377777 115.346649 328.142578 326.053925 109.418129 324.533936 326.053925 109.943420 326.516357 404.889160 114.344727 328.268860 399.633484 114.016289 328.019867 394.377777 113.687851 327.770874 389.122101 113.359406 327.521881 383.866425 113.030968 327.272888 378.610779 112.702530 327.023895 373.355103 112.374084 326.774902 368.099396 112.045647 326.525909 362.843719 111.717209 326.276917 357.588043 111.388771 326.027924 352.332367 111.060326 325.778931 347.076660 110.731888 325.529938 341.820984 110.403450 325.280945 336.565308 110.075005 325.031952 331.309631 109.746567 324.782928 326.053925 108.805367 322.570526 331.309631 109.052086 322.942230 336.565308 109.298798 323.313934 341.820984 109.545509 323.685638 347.076660 109.792221 324.057343 352.332367 110.038933 324.429047 357.588043 110.285652 324.800751 362.843719 110.532364 325.172485 368.099396 110.779076 325.544189 373.355103 111.025787 325.915894 378.610779 111.272507 326.287598 383.866425 111.519218 326.659302 389.122101 111.765930 327.031006 394.377777 112.012642 327.402740 399.633484 112.259361 327.774445 410.144836 110.832397 328.517853 404.889160 110.661644 328.024628 399.633484 110.490898 327.531403 394.377777 110.320145 327.038177 389.122101 110.149391 326.544952 383.866425 109.978638 326.051727 378.610779 109.807892 325.558502 373.355103 109.637138 325.065308 368.099396 109.466385 324.572083 362.843719 109.295631 324.078857 357.588043 109.124886 323.585632 352.332367 108.954132 323.092407 347.076660 108.783379 322.599182 341.820984 108.612625 322.105957 336.565308 108.441879 321.612732 331.309631 108.271126 321.119507 326.053925 108.100372 320.626282 389.122101 95.412903 311.317932 410.144836 95.601273 313.908508 410.144836 97.053802 314.408752 410.144836 99.568604 315.541107 410.144836 100.645462 316.140717 389.122101 100.258888 313.850494 326.053925 106.618332 317.268097 368.099396 108.797272 322.922852 368.099396 108.025146 321.302277 368.099396 106.173477 318.192566 326.053925 104.411247 313.410492 368.099396 105.097435 316.719666 326.053925 103.844925 312.566467 368.099396 103.925034 315.311798 368.099396 107.150162 319.722748 326.053925 106.425171 316.885315 326.053925 104.842140 314.086823 336.565308 88.582909 301.563446 347.076660 88.596657 303.178040 336.565308 90.209633 302.285339 347.076660 90.234512 303.805664 336.565308 91.816986 303.067841 347.076660 91.859604 304.503632 347.076660 93.462990 305.278046 389.122101 101.758255 314.937073 410.144836 101.934288 316.960663 410.144836 102.501831 317.360687 410.144836 99.011055 315.258881 389.122101 98.692650 312.882385 389.122101 97.072655 312.037750 368.099396 95.224533 308.727325 368.099396 96.821266 309.561768 368.099396 98.374245 310.505859 368.099396 99.872307 311.560303 368.099396 101.305450 312.721588 389.122101 92.030075 310.246826 389.122101 90.334053 309.886993 399.633484 90.358940 311.407318 410.144836 89.111046 312.869659 410.144836 90.383820 312.927673 410.144836 91.783905 313.071808 410.144836 92.115318 313.118408 389.122101 93.727394 310.721985 410.144836 93.859596 313.443970 410.144836 94.441940 313.583435 389.122101 88.651672 309.636444 399.633484 88.665428 311.251038 410.144836 88.679184 312.865631 410.144836 110.600906 327.893097 368.099396 102.659737 313.976685 410.144836 103.692329 318.286407 410.144836 104.617073 319.095795 410.144836 105.076012 319.530731 410.144836 106.505676 321.052277 410.144836 107.504822 322.298309 410.144836 108.146378 323.200195 410.144836 109.535233 325.532837 326.053925 88.569153 299.948853 326.053925 90.184746 300.765015 326.053925 92.187241 301.869232 326.053925 93.330795 302.556061 326.053925 94.756485 303.483704 347.076660 95.036163 306.136749 326.053925 96.318504 304.609833 347.076660 96.569885 307.085785 326.053925 97.655067 305.682922 347.076660 98.055847 308.129333 326.053925 99.635254 307.502716 347.076660 99.485733 309.270081 326.053925 100.399857 308.290588 347.076660 100.852654 310.506073 326.053925 101.627144 309.666992 326.053925 102.280212 310.461060 326.053925 102.774063 311.092896 368.099396 88.624168 306.407257 368.099396 90.284286 306.846344 368.099396 91.944839 307.375244 368.099396 93.595192 308.000031 389.122101 77.034248 312.378632 410.144836 77.618622 315.626007 410.144836 78.750778 315.061462 326.053925 84.731812 300.481018 368.099396 85.075859 306.786316 368.099396 86.850243 306.556580 347.076660 77.634705 305.310730 347.076660 75.865501 305.883850 368.099396 76.449875 309.131226 410.144836 76.208687 316.441010 410.144836 76.416901 316.312256 404.889160 76.035126 315.613617 399.633484 75.861565 314.786255 389.122101 75.514442 313.131500 378.610779 75.167320 311.476746 410.144836 86.455513 312.970306 368.099396 74.820190 309.821991 357.588043 74.473068 308.167236 347.076660 74.125946 306.512482 336.565308 73.778824 304.857727 347.076660 81.238434 304.346130 326.053925 77.299858 302.072144 326.053925 77.148750 302.112396 326.053925 73.431702 303.202972 368.099396 78.120651 308.509033 368.099396 79.824928 307.960754 368.099396 81.556427 307.489471 368.099396 83.309097 307.097443 326.053925 82.841156 300.814514 326.053925 80.920433 301.202820 410.144836 80.620728 314.287140 410.144836 81.224319 314.076385 410.144836 83.807159 313.374390 399.633484 74.285065 316.123383 410.144836 68.899780 323.664795 410.144836 69.169930 323.253693 399.633484 68.995003 322.687012 357.588043 69.281731 317.824921 347.076660 69.068306 317.059723 347.076660 68.120415 319.853638 326.053925 69.642792 312.381134 336.565308 69.894707 313.352814 336.565308 71.063812 310.464447 326.053925 71.099144 308.456940 336.565308 72.359848 307.630981 326.053925 72.038979 306.215607 378.610779 69.708572 319.355316 368.099396 69.495155 318.590118 368.099396 68.470253 320.987000 347.076660 67.306046 322.702423 368.099396 67.581879 323.450104 368.099396 66.836861 325.967072 347.076660 66.630913 325.597168 326.053925 66.471062 324.947632 410.144836 68.133560 324.945404 389.122101 69.921997 320.120514 389.122101 68.820091 322.120331 399.633484 70.135414 320.885712 410.144836 70.474030 321.496307 389.122101 67.857719 324.197754 399.633484 67.995636 324.571594 410.144836 67.573631 326.016418 410.144836 67.248749 326.706848 399.633484 67.145782 326.521912 389.122101 67.042809 326.336975 378.610779 67.719803 323.823914 378.610779 68.645172 321.553650 404.889160 74.445496 316.831085 399.633484 72.794434 317.591766 410.144836 73.082870 318.779663 410.144836 74.240524 317.817505 410.144836 72.264603 319.540771 399.633484 71.406204 319.182831 410.144836 71.658127 320.154480 347.076660 72.680717 309.046387 357.588043 73.001587 310.461792 368.099396 73.322456 311.877197 378.610779 73.643326 313.292572 389.122101 73.964195 314.707977 347.076660 71.352249 311.652344 347.076660 70.146622 314.324463 357.588043 71.640686 312.840210 357.588043 70.398537 315.296143 368.099396 71.929123 314.028107 368.099396 70.650459 316.267792 378.610779 72.217560 315.216003 378.610779 70.902374 317.239471 389.122101 72.505997 316.403870 389.122101 71.154289 318.211151 326.053925 65.959801 328.517883 347.076660 66.100128 328.517883 368.099396 66.240456 328.517883 389.122101 66.380783 328.517883 326.053925 69.162682 313.834045 326.053925 68.641464 315.529358 326.053925 67.770576 318.720276 326.053925 67.614449 319.353516 326.053925 67.030205 321.954773 410.144836 66.521111 328.517883 410.144836 59.264061 328.517883 389.122101 59.841003 328.517883 368.099396 60.417942 328.517883 347.076660 60.994884 328.517883 326.053925 61.571827 328.517883 347.076660 62.890751 309.066040 368.099396 61.895699 308.648529 368.099396 61.255508 313.577698 378.610779 68.340332 292.244110 378.610779 68.559319 292.177002 383.866425 68.477608 292.140930 389.122101 64.239006 296.220001 389.122101 63.250900 298.468719 368.099396 64.119362 299.042603 410.144836 68.000412 291.959564 410.144836 67.824310 291.964508 404.889160 67.910309 292.011108 410.144836 67.729713 291.971558 410.144836 67.539604 291.995148 404.889160 67.670959 292.045776 410.144836 67.346283 292.032074 410.144836 67.335854 292.034424 404.889160 67.431122 292.100891 410.144836 65.703629 292.866333 410.144836 65.689949 292.877075 399.633484 65.958679 293.106934 331.309631 69.478966 292.356476 341.820984 68.057503 293.480438 336.565308 68.168457 293.572021 336.565308 68.496803 293.158295 362.843719 68.598343 292.383911 362.843719 68.804436 292.285278 368.099396 68.722733 292.249176 368.099396 67.126244 293.388580 368.099396 66.764854 293.796478 357.588043 67.033585 294.026306 347.076660 61.287567 323.633850 368.099396 60.549339 323.529724 347.076660 61.685158 318.757965 368.099396 60.819828 318.547058 326.053925 63.162479 314.213837 326.053925 62.628925 318.314697 326.053925 62.025795 323.737976 357.588043 68.684341 292.430511 357.588043 68.485268 292.556763 352.332367 68.575752 292.613525 357.588043 68.095406 292.856110 352.332367 68.195755 292.931641 352.332367 67.835602 293.297272 357.588043 67.724648 293.205688 362.843719 67.995056 292.780548 362.843719 68.394791 292.500000 368.099396 68.512337 292.337311 373.355103 68.641029 292.213104 357.588043 69.195473 292.191467 357.588043 69.091476 292.230011 352.332367 69.168976 292.255310 357.588043 68.886147 292.321350 352.332367 68.967857 292.357422 352.332367 68.770348 292.477112 347.076660 68.856354 292.523712 347.076660 68.666229 292.670319 341.820984 68.756706 292.727081 347.076660 68.296104 293.007202 341.820984 68.396454 293.082733 347.076660 67.946548 293.388855 336.565308 69.212975 292.465668 336.565308 69.401466 292.331177 341.820984 69.131271 292.429596 341.820984 69.323967 292.305878 347.076660 69.049561 292.393524 347.076660 69.246475 292.280579 352.332367 69.270851 292.211304 336.565308 68.847183 292.783875 331.309631 69.294685 292.501770 336.565308 67.571037 294.485992 341.820984 67.436668 294.371094 347.076660 67.302307 294.256165 336.565308 67.047958 295.484528 347.076660 66.735542 295.224365 336.565308 66.157181 297.651123 347.076660 65.773544 297.364899 336.565308 65.422050 299.903412 347.076660 64.987816 299.616486 347.076660 64.336861 301.934509 326.053925 67.360367 295.744659 326.053925 67.701485 294.992981 326.053925 67.839760 294.715851 326.053925 68.399918 293.740387 326.053925 68.697502 293.309387 331.309631 68.937668 292.840637 326.053925 69.033638 292.891144 326.053925 69.376389 292.537842 326.053925 66.826408 297.115479 326.053925 65.973274 299.774048 410.144836 60.047310 306.876373 368.099396 62.311218 306.206085 347.076660 63.782486 304.291504 368.099396 63.401314 301.387970 410.144836 61.530209 300.294891 368.099396 62.806313 303.783875 410.144836 60.923298 302.483551 410.144836 60.473530 304.499725 357.588043 66.423134 294.964233 357.588043 65.389908 297.078674 357.588043 64.553589 299.329529 410.144836 65.142242 293.365234 410.144836 64.861076 293.663483 399.633484 65.173485 293.923645 410.144836 64.620468 293.946655 399.633484 64.477715 294.885742 410.144836 64.319656 294.337463 410.144836 64.231422 294.459686 410.144836 63.863857 295.003113 410.144836 63.471741 295.647552 410.144836 63.400417 295.772797 410.144836 63.099129 296.332245 410.144836 62.977303 296.573456 410.144836 65.440849 293.084747 410.144836 65.189278 293.318634 399.633484 65.553139 293.495331 410.144836 65.902428 292.717194 410.144836 65.934586 292.694275 399.633484 66.392197 292.760529 410.144836 66.147514 292.551178 410.144836 66.776718 292.216858 410.144836 66.615120 292.289856 404.889160 66.726074 292.381439 410.144836 66.566872 292.313416 399.633484 66.613640 292.608734 410.144836 66.377556 292.413422 410.144836 66.170456 292.536652 410.144836 66.969551 292.141602 404.889160 66.957382 292.269928 410.144836 67.056335 292.111969 404.889160 67.192261 292.176147 410.144836 67.156898 292.080933 399.633484 67.292610 292.251678 399.633484 66.837029 292.473022 399.633484 67.526390 292.167389 394.377777 67.392960 292.327240 394.377777 66.947983 292.564606 410.144836 68.092812 291.961212 410.144836 68.069069 291.960510 404.889160 68.150780 291.996613 410.144836 68.328529 291.978363 410.144836 68.448280 291.994110 404.889160 68.393997 292.002350 399.633484 67.761436 292.102570 394.377777 67.621658 292.233856 389.122101 67.493309 292.402802 389.122101 67.058929 292.656189 389.122101 66.636887 292.969879 389.122101 65.485901 294.183777 389.122101 64.828285 295.163177 368.099396 65.006279 296.792450 399.633484 68.232491 292.032684 399.633484 67.996315 292.057709 394.377777 68.082321 292.104309 394.377777 67.851921 292.159332 389.122101 67.942398 292.216095 389.122101 67.716934 292.300323 383.866425 67.812202 292.366821 383.866425 67.593658 292.478333 378.610779 67.694008 292.553894 383.866425 67.169884 292.747772 378.610779 67.280838 292.839355 378.610779 66.881561 293.179230 378.610779 67.907471 292.433289 373.355103 67.794357 292.629456 373.355103 68.213837 292.386444 378.610779 68.123352 292.329651 383.866425 68.032875 292.272888 383.866425 68.254326 292.197510 389.122101 68.168320 292.150909 389.122101 68.395905 292.104858 394.377777 68.314194 292.068756 394.377777 68.548996 292.052948 399.633484 68.471497 292.027649 352.332367 67.167946 294.141235 357.588043 67.370926 293.597931 368.099396 67.502739 293.022522 368.099396 67.894707 292.704987 368.099396 68.304314 292.443207 373.355103 68.426331 292.290710 373.355103 67.391785 292.930939 368.099396 66.427124 294.235596 378.610779 66.496132 293.566620 368.099396 65.529434 295.718048 378.610779 65.798309 294.443939 389.122101 65.844467 293.742096 389.122101 66.227402 293.336792 378.610779 66.135796 293.988831 368.099396 66.110718 294.704071 362.843719 69.013977 292.204712 368.099396 68.936485 292.179413 373.355103 68.858986 292.154114 378.610779 68.781487 292.128815 383.866425 68.703987 292.103516 389.122101 68.626495 292.078217 410.144836 62.496418 297.621643 410.144836 62.382442 297.894867 410.144836 62.068459 298.702911 410.144836 61.987305 298.925629 410.144836 61.586113 300.116241 410.144836 59.158829 326.298126 389.122101 59.811115 323.425629 410.144836 59.072887 323.321503 410.144836 59.056095 321.997620 410.144836 59.052605 321.027313 389.122101 59.954502 318.336151 410.144836 59.089169 318.125275 410.144836 59.164898 315.968018 389.122101 60.302021 313.259613 410.144836 59.348534 312.941528 326.053925 69.484459 292.441742 326.053925 63.761978 310.234009 326.053925 64.758659 304.799133 326.053925 64.875732 304.244781 326.053925 65.856277 300.190338 410.144836 59.905598 307.813477 410.144836 59.556572 310.640503 410.144836 59.449429 311.738220 476.053925 104.845879 319.268768 476.053925 102.820618 317.575165 476.053925 66.519676 328.517883 476.053925 67.571091 326.013763 476.053925 68.905746 323.632141 476.053925 72.355980 319.416992 476.053925 70.508270 321.417725 476.053925 74.418701 317.663879 476.053925 76.701843 316.145630 476.053925 79.147911 314.897766 476.053925 81.729988 313.932159 476.053925 84.406235 313.267242 476.053925 87.121376 312.919250 476.053925 89.805313 312.893738 476.053925 92.460815 313.180359 476.053925 95.062637 313.764252 476.053925 97.591347 314.635529 476.053925 100.009590 315.781067 476.053925 102.276993 317.183319 476.053925 106.651649 321.178864 476.053925 108.222923 323.279816 476.053925 109.563957 325.568512 476.053925 110.608528 327.898010 476.053925 110.838287 328.517883 476.053925 117.594620 328.517883 443.099396 118.054276 328.517883 443.099396 117.780624 326.342194 476.053925 117.425110 326.001587 443.099396 117.423065 324.173462 476.053925 117.142883 323.489563 476.053925 114.215698 315.680542 476.053925 113.030251 313.476257 443.099396 88.576469 289.473938 476.053925 116.635834 321.729431 476.053925 88.693275 289.571533 476.053925 88.252052 289.034698 443.099396 88.190887 288.927277 476.053925 89.099937 290.036072 476.053925 89.856621 290.840363 443.099396 90.451691 291.670746 476.053925 92.944916 293.619568 476.053925 90.668724 291.636780 476.053925 90.637115 291.606842 443.099396 92.417175 293.542603 443.099396 94.312988 295.147156 443.099396 98.866104 298.832275 476.053925 94.564102 294.897308 476.053925 99.065239 298.368805 476.053925 103.109200 301.720490 476.053925 104.098694 302.610443 476.053925 106.425667 304.866211 476.053925 107.185677 305.663696 476.053925 108.958374 307.672729 476.053925 109.850845 308.779236 476.053925 112.217812 312.135406 476.053925 111.065712 310.414062 476.053925 115.409561 318.316315 476.053925 115.866508 319.481689 443.099396 74.105515 291.440308 443.099396 78.791687 290.556335 459.576660 79.007118 290.646301 443.099396 69.428543 292.370575 459.576660 69.840004 292.546997 476.053925 70.251465 292.723419 476.053925 79.222549 290.736267 443.099396 67.129021 292.625702 476.053925 59.726788 320.340546 476.053925 59.900661 323.641022 443.099396 65.571373 293.735413 443.099396 65.880089 293.451477 443.099396 66.146187 293.234436 443.099396 66.422913 293.033752 443.099396 66.912155 292.735352 443.099396 66.665108 292.877289 443.099396 67.346313 292.530243 443.099396 67.544739 292.455933 443.099396 68.133270 292.309479 443.099396 67.938118 292.345734 443.099396 67.744545 292.393738 443.099396 68.330696 292.285309 443.099396 68.527481 292.273743 443.099396 68.713615 292.274200 443.099396 68.900467 292.285645 476.053925 70.094688 292.686707 443.099396 69.141937 292.316528 476.053925 60.093937 325.914734 476.053925 60.385872 328.517883 476.053925 59.702450 316.088745 476.053925 59.728020 315.193481 476.053925 59.942001 311.668945 476.053925 60.043930 310.613251 476.053925 60.422916 307.728424 476.053925 60.703899 306.126648 476.053925 61.508881 302.702362 476.053925 62.382469 300.041443 476.053925 62.620132 299.438507 476.053925 62.951649 298.662140 476.053925 63.821529 296.935760 476.053925 64.020462 296.597595 476.053925 64.515564 295.833557 443.099396 65.273827 294.043549 476.053925 65.480194 294.608337 443.099396 64.855812 294.533997 476.053925 65.084473 295.073914 476.053925 65.054497 295.111176 476.053925 66.243958 293.849335 476.053925 66.224373 293.866364 476.053925 66.132065 293.948273 476.053925 66.570900 293.584320 476.053925 67.395630 293.060272 476.053925 67.142197 293.201141 476.053925 66.959213 293.313538 476.053925 66.851524 293.384094 476.053925 67.880486 292.837982 476.053925 67.745308 292.893585 476.053925 67.653854 292.934052 476.053925 68.106804 292.756439 476.053925 68.317162 292.693848 476.053925 68.519539 292.645905 476.053925 68.873749 292.591309 476.053925 68.920250 292.586914 476.053925 69.123093 292.575317 476.053925 69.516426 292.587646 476.053925 69.406853 292.579620 476.053925 69.325249 292.575928 476.053925 69.708115 292.610107 476.053925 69.955353 292.654694 "
							            />
						</IndexedFaceSet>
					</Shape>
				</Group>
			</Transform>
		</Transform>
	</Scene>
</X3D>