<?xml version="1.0" encoding="UTF-8"?>
<!DOCTYPE X3D PUBLIC "ISO//Web3D//DTD X3D 3.0//EN" "http://www.web3d.org/specifications/x3d-3.0.dtd">
<X3D version="3.0" profile="Immersive" xmlns:xsd="http://www.w3.org/2001/XMLSchema-instance" xsd:noNamespaceSchemaLocation="http://www.web3d.org/specifications/x3d-3.0.xsd">
	<head>
		<meta name="filename" content="OMLV4_Packing - For Xander - EPACS Cooling Unit-1.x3d" />
		<meta name="created" content="2026-04-19 20:21:16" />
		<meta name="generator" content="Blender 4.3.2" />
		<meta name="translator" content="Web3D X3D/VRML2 format v2.5.1" />
	</head>
	<Scene>
		<NavigationInfo headlight="true"
		                visibilityLimit="0.0"
		                type='"EXAMINE", "ANY"'
		                avatarSize="0.25, 1.75, 0.75"
		                />
		<Background DEF="WO_World"
		            groundColor="0.051 0.051 0.051"
		            skyColor="0.051 0.051 0.051"
		            />
		<Transform DEF="OMLV4_Packing_-_For_Xander_-_EPACS_Cooling_Unit-1_TRANSFORM"
		           translation="0.000000 0.000000 0.000000"
		           scale="1.000000 1.000000 1.000000"
		           rotation="-1.000000 0.000000 0.000000 1.570796"
		           >
			<Transform DEF="OMLV4_Packing_-_For_Xander_-_EPACS_Cooling_Unit-1_ifs_TRANSFORM"
			           translation="0.000000 0.000000 0.000000"
			           scale="1.000000 1.000000 1.000000"
			           rotation="0.000000 1.000000 0.000000 0.000000"
			           >
				<Group DEF="group_ME_OMLV4_Packing_-_For_Xander_-_EPACS_Cooling_Unit-1">
					<Shape>
						<Appearance>
						</Appearance>
						<IndexedFaceSet solid="false"
						                coordIndex="0 1 2 -1 2 1 3 -1 4 5 6 -1 6 5 7 -1 8 9 10 -1 10 9 11 -1 12 13 14 -1 14 13 15 -1 16 17 15 -1 15 5 14 -1 14 5 4 -1 17 18 15 -1 15 18 1 -1 15 1 5 -1 5 1 0 -1 5 0 19 -1 20 21 22 -1 23 24 25 -1 25 24 26 -1 26 24 15 -1 15 24 27 -1 15 27 16 -1 28 29 30 -1 30 29 31 -1 30 31 32 -1 32 31 4 -1 4 31 33 -1 4 33 34 -1 8 14 9 -1 9 14 4 -1 9 4 35 -1 35 4 34 -1 19 0 22 -1 22 0 36 -1 22 36 20 -1 21 37 22 -1 22 37 38 -1 22 38 39 -1 40 41 42 -1 8 43 14 -1 14 43 44 -1 14 44 45 -1 45 46 14 -1 14 46 40 -1 14 40 47 -1 47 40 42 -1 48 49 13 -1 50 51 12 -1 51 52 12 -1 12 52 10 -1 12 10 13 -1 6 7 2 -1 2 7 53 -1 2 53 54 -1 49 55 13 -1 13 55 56 -1 13 56 57 -1 58 59 57 -1 57 59 60 -1 57 60 13 -1 61 62 63 -1 63 62 64 -1 64 62 12 -1 12 62 65 -1 12 65 50 -1 48 13 3 -1 3 13 10 -1 3 10 2 -1 2 10 11 -1 2 11 6 -1 6 11 66 -1 6 66 67 -1 68 69 70 -1 70 69 71 -1 67 72 6 -1 6 72 71 -1 6 71 73 -1 73 71 69 -1 74 75 54 -1 54 75 76 -1 54 76 77 -1 77 78 54 -1 54 78 79 -1 54 79 2 -1 8 10 52 -1 8 52 43 -1 43 52 51 -1 43 51 44 -1 44 51 50 -1 44 50 45 -1 45 50 65 -1 45 65 46 -1 46 65 62 -1 46 62 40 -1 40 62 61 -1 40 61 41 -1 41 61 63 -1 41 63 42 -1 42 63 64 -1 42 64 47 -1 47 64 12 -1 47 12 14 -1 4 6 73 -1 4 73 32 -1 32 73 69 -1 32 69 30 -1 30 69 68 -1 30 68 28 -1 28 68 70 -1 28 70 29 -1 29 70 71 -1 29 71 31 -1 31 71 72 -1 31 72 33 -1 33 72 67 -1 33 67 34 -1 34 67 66 -1 34 66 35 -1 35 66 11 -1 35 11 9 -1 0 2 79 -1 0 79 36 -1 36 79 78 -1 36 78 20 -1 20 78 77 -1 20 77 21 -1 21 77 76 -1 21 76 37 -1 37 76 75 -1 37 75 38 -1 38 75 74 -1 38 74 39 -1 39 74 54 -1 39 54 22 -1 22 54 53 -1 22 53 19 -1 19 53 7 -1 19 7 5 -1 15 13 60 -1 15 60 26 -1 26 60 59 -1 26 59 25 -1 25 59 58 -1 25 58 23 -1 23 58 57 -1 23 57 24 -1 24 57 56 -1 24 56 27 -1 27 56 55 -1 27 55 16 -1 16 55 49 -1 16 49 17 -1 17 49 48 -1 17 48 18 -1 18 48 3 -1 18 3 1 -1 "
						                >
							<Coordinate DEF="coords_ME_OMLV4_Packing_-_For_Xander_-_EPACS_Cooling_Unit-1"
							            point="530.858704 75.537613 369.384399 530.858704 82.537613 369.384399 495.858704 75.537613 369.384399 495.858704 82.537613 369.384399 530.858704 71.537613 358.384399 530.858704 71.537613 365.384399 495.858704 71.537613 358.384399 495.858704 71.537613 365.384399 530.858704 82.537613 354.384399 530.858704 75.537613 354.384399 495.858704 82.537613 354.384399 495.858704 75.537613 354.384399 495.858704 86.537613 358.384399 495.858704 86.537613 365.384399 530.858704 86.537613 358.384399 530.858704 86.537613 365.384399 530.858704 84.537613 368.848511 530.858704 83.905693 369.143188 530.858704 83.232208 369.323639 530.858704 71.598381 366.079010 530.858704 74.169533 369.143188 530.858704 73.537613 368.848511 530.858704 71.778847 366.752502 530.858704 86.001717 367.384399 530.858704 85.601791 367.955566 530.858704 86.296387 366.752502 530.858704 86.476845 366.079010 530.858704 85.108765 368.448578 530.858704 72.073517 356.384399 530.858704 72.473434 355.813263 530.858704 71.778847 357.016327 530.858704 72.966461 355.320221 530.858704 71.598381 357.689819 530.858704 73.537613 354.920319 530.858704 74.169533 354.625641 530.858704 74.843025 354.445190 530.858704 74.843025 369.323639 530.858704 72.966461 368.448578 530.858704 72.473434 367.955566 530.858704 72.073517 367.384399 530.858704 85.601791 355.813263 530.858704 86.001717 356.384399 530.858704 86.296387 357.016327 530.858704 83.232208 354.445190 530.858704 83.905693 354.625641 530.858704 84.537613 354.920319 530.858704 85.108765 355.320221 530.858704 86.476845 357.689819 495.858704 83.232208 369.323639 495.858704 83.905693 369.143188 495.858704 84.537613 354.920319 495.858704 83.905693 354.625641 495.858704 83.232208 354.445190 495.858704 71.598381 366.079010 495.858704 71.778847 366.752502 495.858704 84.537613 368.848511 495.858704 85.108765 368.448578 495.858704 85.601791 367.955566 495.858704 86.001717 367.384399 495.858704 86.296387 366.752502 495.858704 86.476845 366.079010 495.858704 86.001717 356.384399 495.858704 85.601791 355.813263 495.858704 86.296387 357.016327 495.858704 86.476845 357.689819 495.858704 85.108765 355.320221 495.858704 74.843025 354.445190 495.858704 74.169533 354.625641 495.858704 72.073517 356.384399 495.858704 71.778847 357.016327 495.858704 72.473434 355.813263 495.858704 72.966461 355.320221 495.858704 73.537613 354.920319 495.858704 71.598381 357.689819 495.858704 72.073517 367.384399 495.858704 72.473434 367.955566 495.858704 72.966461 368.448578 495.858704 73.537613 368.848511 495.858704 74.169533 369.143188 495.858704 74.843025 369.323639 "
							            />
						</IndexedFaceSet>
					</Shape>
				</Group>
			</Transform>
		</Transform>
	</Scene>
</X3D>